<?xml version="1.0" encoding="UTF-8" standalone="no"?>
<!DOCTYPE svg PUBLIC "-//W3C//DTD SVG 1.1//EN"
 "http://www.w3.org/Graphics/SVG/1.1/DTD/svg11.dtd">
<!-- Generated by graphviz version 2.43.0 (0)
 -->
<!-- Title: http::HTTPClientEndpoint Pages: 1 -->
<svg width="1136pt" height="210pt"
 viewBox="0.00 0.00 1136.00 209.50" xmlns="http://www.w3.org/2000/svg" xmlns:xlink="http://www.w3.org/1999/xlink">
<g id="graph0" class="graph" transform="scale(1 1) rotate(0) translate(4 205.5)">
<title>http::HTTPClientEndpoint</title>
<polygon fill="white" stroke="transparent" points="-4,4 -4,-205.5 1132,-205.5 1132,4 -4,4"/>
<!-- Node1 -->
<g id="node1" class="node">
<title>Node1</title>
<g id="a_node1"><a xlink:title=" ">
<polygon fill="#bfbfbf" stroke="black" points="989,-39.5 989,-58.5 1128,-58.5 1128,-39.5 989,-39.5"/>
<text text-anchor="middle" x="1058.5" y="-46.5" font-family="Helvetica,sans-Serif" font-size="10.00">http::HTTPClientEndpoint</text>
</a>
</g>
</g>
<!-- Node2 -->
<g id="node2" class="node">
<title>Node2</title>
<g id="a_node2"><a xlink:href="classhttp_1_1HTTPEndpoint.html" target="_top" xlink:title=" ">
<polygon fill="white" stroke="black" points="828.5,-77.5 828.5,-96.5 938.5,-96.5 938.5,-77.5 828.5,-77.5"/>
<text text-anchor="middle" x="883.5" y="-84.5" font-family="Helvetica,sans-Serif" font-size="10.00">http::HTTPEndpoint</text>
</a>
</g>
</g>
<!-- Node2&#45;&gt;Node1 -->
<g id="edge1" class="edge">
<title>Node2&#45;&gt;Node1</title>
<path fill="none" stroke="midnightblue" d="M938.01,-75.25C962.47,-69.87 991.07,-63.59 1014.16,-58.52"/>
<polygon fill="midnightblue" stroke="midnightblue" points="937.17,-71.85 928.16,-77.41 938.67,-78.68 937.17,-71.85"/>
</g>
<!-- Node3 -->
<g id="node3" class="node">
<title>Node3</title>
<g id="a_node3"><a xlink:href="classccf_1_1TLSEndpoint.html" target="_top" xlink:title=" ">
<polygon fill="white" stroke="black" points="600,-132.5 600,-151.5 696,-151.5 696,-132.5 600,-132.5"/>
<text text-anchor="middle" x="648" y="-139.5" font-family="Helvetica,sans-Serif" font-size="10.00">ccf::TLSEndpoint</text>
</a>
</g>
</g>
<!-- Node3&#45;&gt;Node2 -->
<g id="edge2" class="edge">
<title>Node3&#45;&gt;Node2</title>
<path fill="none" stroke="midnightblue" d="M699.29,-130.15C741.89,-120.12 802.19,-105.92 841.81,-96.59"/>
<polygon fill="midnightblue" stroke="midnightblue" points="698.34,-126.78 689.41,-132.48 699.94,-133.6 698.34,-126.78"/>
</g>
<!-- Node4 -->
<g id="node4" class="node">
<title>Node4</title>
<g id="a_node4"><a xlink:href="classccf_1_1Endpoint.html" target="_top" xlink:title=" ">
<polygon fill="white" stroke="black" points="392,-176.5 392,-195.5 471,-195.5 471,-176.5 392,-176.5"/>
<text text-anchor="middle" x="431.5" y="-183.5" font-family="Helvetica,sans-Serif" font-size="10.00">ccf::Endpoint</text>
</a>
</g>
</g>
<!-- Node4&#45;&gt;Node3 -->
<g id="edge3" class="edge">
<title>Node4&#45;&gt;Node3</title>
<path fill="none" stroke="midnightblue" d="M481.55,-175.94C517.32,-168.6 565.47,-158.72 600.61,-151.52"/>
<polygon fill="midnightblue" stroke="midnightblue" points="480.44,-172.59 471.34,-178.03 481.84,-179.45 480.44,-172.59"/>
</g>
<!-- Node5 -->
<g id="node5" class="node">
<title>Node5</title>
<g id="a_node5"><a xlink:title=" ">
<polygon fill="white" stroke="black" points="141,-171 141,-201 275,-201 275,-171 141,-171"/>
<text text-anchor="start" x="149" y="-189" font-family="Helvetica,sans-Serif" font-size="10.00">std::enable_shared</text>
<text text-anchor="middle" x="208" y="-178" font-family="Helvetica,sans-Serif" font-size="10.00">_from_this&lt; Endpoint &gt;</text>
</a>
</g>
</g>
<!-- Node5&#45;&gt;Node4 -->
<g id="edge4" class="edge">
<title>Node5&#45;&gt;Node4</title>
<path fill="none" stroke="midnightblue" d="M285.58,-186C321.37,-186 362.43,-186 391.68,-186"/>
<polygon fill="midnightblue" stroke="midnightblue" points="285.16,-182.5 275.16,-186 285.16,-189.5 285.16,-182.5"/>
</g>
<!-- Node6 -->
<g id="node6" class="node">
<title>Node6</title>
<g id="a_node6"><a xlink:title=" ">
<polygon fill="white" stroke="black" points="361,-127 361,-157 502,-157 502,-127 361,-127"/>
<text text-anchor="start" x="369" y="-145" font-family="Helvetica,sans-Serif" font-size="10.00">std::shared_ptr&lt; Abstract</text>
<text text-anchor="middle" x="431.5" y="-134" font-family="Helvetica,sans-Serif" font-size="10.00">Writer &gt;</text>
</a>
</g>
</g>
<!-- Node6&#45;&gt;Node3 -->
<g id="edge5" class="edge">
<title>Node6&#45;&gt;Node3</title>
<path fill="none" stroke="#9a32cd" stroke-dasharray="5,2" d="M512.4,-142C541.79,-142 574.11,-142 599.71,-142"/>
<polygon fill="#9a32cd" stroke="#9a32cd" points="512.14,-138.5 502.14,-142 512.14,-145.5 512.14,-138.5"/>
<text text-anchor="middle" x="545.5" y="-145" font-family="Helvetica,sans-Serif" font-size="10.00"> to_host</text>
</g>
<!-- Node7 -->
<g id="node7" class="node">
<title>Node7</title>
<g id="a_node7"><a xlink:href="classhttp_1_1Parser.html" target="_top" xlink:title=" ">
<polygon fill="white" stroke="black" points="612,-77.5 612,-96.5 684,-96.5 684,-77.5 612,-77.5"/>
<text text-anchor="middle" x="648" y="-84.5" font-family="Helvetica,sans-Serif" font-size="10.00">http::Parser</text>
</a>
</g>
</g>
<!-- Node7&#45;&gt;Node2 -->
<g id="edge6" class="edge">
<title>Node7&#45;&gt;Node2</title>
<path fill="none" stroke="#9a32cd" stroke-dasharray="5,2" d="M694.55,-87C732.88,-87 787.75,-87 828.32,-87"/>
<polygon fill="#9a32cd" stroke="#9a32cd" points="694.21,-83.5 684.21,-87 694.21,-90.5 694.21,-83.5"/>
<text text-anchor="middle" x="761.5" y="-90" font-family="Helvetica,sans-Serif" font-size="10.00"> p</text>
</g>
<!-- Node8 -->
<g id="node8" class="node">
<title>Node8</title>
<g id="a_node8"><a xlink:title=" ">
<polygon fill="white" stroke="black" points="369,-88.5 369,-107.5 494,-107.5 494,-88.5 369,-88.5"/>
<text text-anchor="middle" x="431.5" y="-95.5" font-family="Helvetica,sans-Serif" font-size="10.00">std::vector&lt; uint8_t &gt;</text>
</a>
</g>
</g>
<!-- Node8&#45;&gt;Node7 -->
<g id="edge7" class="edge">
<title>Node8&#45;&gt;Node7</title>
<path fill="none" stroke="#9a32cd" stroke-dasharray="5,2" d="M504.27,-94.32C540.43,-92.47 582.64,-90.3 611.73,-88.81"/>
<polygon fill="#9a32cd" stroke="#9a32cd" points="504.06,-90.83 494.25,-94.83 504.42,-97.82 504.06,-90.83"/>
<text text-anchor="middle" x="545.5" y="-96" font-family="Helvetica,sans-Serif" font-size="10.00"> body_buf</text>
</g>
<!-- Node9 -->
<g id="node9" class="node">
<title>Node9</title>
<g id="a_node9"><a xlink:title=" ">
<polygon fill="white" stroke="black" points="360,-39 360,-69 503,-69 503,-39 360,-39"/>
<text text-anchor="start" x="368" y="-57" font-family="Helvetica,sans-Serif" font-size="10.00">std::map&lt; std::string,</text>
<text text-anchor="middle" x="431.5" y="-46" font-family="Helvetica,sans-Serif" font-size="10.00"> std::string, std::less&lt;&gt; &gt;</text>
</a>
</g>
</g>
<!-- Node9&#45;&gt;Node7 -->
<g id="edge8" class="edge">
<title>Node9&#45;&gt;Node7</title>
<path fill="none" stroke="#9a32cd" stroke-dasharray="5,2" d="M513.01,-66.39C547.15,-71.64 585.15,-77.48 611.94,-81.61"/>
<polygon fill="#9a32cd" stroke="#9a32cd" points="513.45,-62.91 503.03,-64.85 512.38,-69.83 513.45,-62.91"/>
<text text-anchor="middle" x="545.5" y="-77" font-family="Helvetica,sans-Serif" font-size="10.00"> headers</text>
</g>
<!-- Node10 -->
<g id="node10" class="node">
<title>Node10</title>
<g id="a_node10"><a xlink:title=" ">
<polygon fill="white" stroke="black" points="175.5,-44.5 175.5,-63.5 240.5,-63.5 240.5,-44.5 175.5,-44.5"/>
<text text-anchor="middle" x="208" y="-51.5" font-family="Helvetica,sans-Serif" font-size="10.00">std::string</text>
</a>
</g>
</g>
<!-- Node10&#45;&gt;Node9 -->
<g id="edge9" class="edge">
<title>Node10&#45;&gt;Node9</title>
<path fill="none" stroke="#9a32cd" stroke-dasharray="5,2" d="M251.08,-54C281.79,-54 324.14,-54 359.98,-54"/>
<polygon fill="#9a32cd" stroke="#9a32cd" points="250.74,-50.5 240.74,-54 250.74,-57.5 250.74,-50.5"/>
<text text-anchor="middle" x="317.5" y="-68" font-family="Helvetica,sans-Serif" font-size="10.00"> elements</text>
<text text-anchor="middle" x="317.5" y="-57" font-family="Helvetica,sans-Serif" font-size="10.00">keys</text>
</g>
<!-- Node11 -->
<g id="node11" class="node">
<title>Node11</title>
<g id="a_node11"><a xlink:title=" ">
<polygon fill="white" stroke="black" points="0,-39 0,-69 104,-69 104,-39 0,-39"/>
<text text-anchor="start" x="8" y="-57" font-family="Helvetica,sans-Serif" font-size="10.00">std::basic_string&lt;</text>
<text text-anchor="middle" x="52" y="-46" font-family="Helvetica,sans-Serif" font-size="10.00"> Char &gt;</text>
</a>
</g>
</g>
<!-- Node11&#45;&gt;Node10 -->
<g id="edge10" class="edge">
<title>Node11&#45;&gt;Node10</title>
<path fill="none" stroke="midnightblue" d="M114.36,-54C135.21,-54 157.65,-54 175.23,-54"/>
<polygon fill="midnightblue" stroke="midnightblue" points="114.28,-50.5 104.28,-54 114.28,-57.5 114.28,-50.5"/>
</g>
<!-- Node12 -->
<g id="node12" class="node">
<title>Node12</title>
<g id="a_node12"><a xlink:title=" ">
<polygon fill="white" stroke="black" points="588,-6 588,-36 708,-36 708,-6 588,-6"/>
<text text-anchor="start" x="596" y="-24" font-family="Helvetica,sans-Serif" font-size="10.00">std::shared_ptr&lt; http</text>
<text text-anchor="middle" x="648" y="-13" font-family="Helvetica,sans-Serif" font-size="10.00">::ErrorReporter &gt;</text>
</a>
</g>
</g>
<!-- Node12&#45;&gt;Node2 -->
<g id="edge11" class="edge">
<title>Node12&#45;&gt;Node2</title>
<path fill="none" stroke="#9a32cd" stroke-dasharray="5,2" d="M711.89,-38.83C742.93,-47.62 780.93,-58.38 815,-68 825.9,-71.08 837.78,-74.42 848.5,-77.44"/>
<polygon fill="#9a32cd" stroke="#9a32cd" points="712.65,-35.41 702.07,-36.05 710.74,-42.14 712.65,-35.41"/>
<text text-anchor="middle" x="761.5" y="-65" font-family="Helvetica,sans-Serif" font-size="10.00"> error_reporter</text>
</g>
<!-- Node13 -->
<g id="node13" class="node">
<title>Node13</title>
<g id="a_node13"><a xlink:href="classhttp_1_1ErrorReporter.html" target="_top" xlink:title=" ">
<polygon fill="white" stroke="black" points="378,-0.5 378,-19.5 485,-19.5 485,-0.5 378,-0.5"/>
<text text-anchor="middle" x="431.5" y="-7.5" font-family="Helvetica,sans-Serif" font-size="10.00">http::ErrorReporter</text>
</a>
</g>
</g>
<!-- Node13&#45;&gt;Node12 -->
<g id="edge12" class="edge">
<title>Node13&#45;&gt;Node12</title>
<path fill="none" stroke="#9a32cd" stroke-dasharray="5,2" d="M495.32,-13.22C524.47,-14.72 558.94,-16.48 587.64,-17.96"/>
<polygon fill="#9a32cd" stroke="#9a32cd" points="495.41,-9.72 485.25,-12.7 495.05,-16.71 495.41,-9.72"/>
<text text-anchor="middle" x="545.5" y="-20" font-family="Helvetica,sans-Serif" font-size="10.00"> ptr</text>
</g>
<!-- Node14 -->
<g id="node14" class="node">
<title>Node14</title>
<g id="a_node14"><a xlink:href="classccf_1_1ClientEndpoint.html" target="_top" xlink:title=" ">
<polygon fill="white" stroke="black" points="830,-39.5 830,-58.5 937,-58.5 937,-39.5 830,-39.5"/>
<text text-anchor="middle" x="883.5" y="-46.5" font-family="Helvetica,sans-Serif" font-size="10.00">ccf::ClientEndpoint</text>
</a>
</g>
</g>
<!-- Node14&#45;&gt;Node1 -->
<g id="edge13" class="edge">
<title>Node14&#45;&gt;Node1</title>
<path fill="none" stroke="midnightblue" d="M947.42,-49C960.84,-49 975.08,-49 988.7,-49"/>
<polygon fill="midnightblue" stroke="midnightblue" points="947.35,-45.5 937.35,-49 947.35,-52.5 947.35,-45.5"/>
</g>
<!-- Node15 -->
<g id="node15" class="node">
<title>Node15</title>
<g id="a_node15"><a xlink:href="classhttp_1_1ResponseProcessor.html" target="_top" xlink:title=" ">
<polygon fill="white" stroke="black" points="815,-1.5 815,-20.5 952,-20.5 952,-1.5 815,-1.5"/>
<text text-anchor="middle" x="883.5" y="-8.5" font-family="Helvetica,sans-Serif" font-size="10.00">http::ResponseProcessor</text>
</a>
</g>
</g>
<!-- Node15&#45;&gt;Node1 -->
<g id="edge14" class="edge">
<title>Node15&#45;&gt;Node1</title>
<path fill="none" stroke="midnightblue" d="M938.01,-22.75C962.47,-28.13 991.07,-34.41 1014.16,-39.48"/>
<polygon fill="midnightblue" stroke="midnightblue" points="938.67,-19.32 928.16,-20.59 937.17,-26.15 938.67,-19.32"/>
</g>
</g>
</svg>
