<?xml version="1.0" encoding="UTF-8" standalone="no"?>
<!DOCTYPE svg PUBLIC "-//W3C//DTD SVG 1.1//EN"
 "http://www.w3.org/Graphics/SVG/1.1/DTD/svg11.dtd">
<!-- Generated by graphviz version 2.43.0 (0)
 -->
<!-- Title: client::HttpRpcTlsClient Pages: 1 -->
<svg width="1214pt" height="359pt"
 viewBox="0.00 0.00 1214.00 358.50" xmlns="http://www.w3.org/2000/svg" xmlns:xlink="http://www.w3.org/1999/xlink">
<g id="graph0" class="graph" transform="scale(1 1) rotate(0) translate(4 354.5)">
<title>client::HttpRpcTlsClient</title>
<polygon fill="white" stroke="transparent" points="-4,4 -4,-354.5 1210,-354.5 1210,4 -4,4"/>
<!-- Node1 -->
<g id="node1" class="node">
<title>Node1</title>
<g id="a_node1"><a xlink:title=" ">
<polygon fill="#bfbfbf" stroke="black" points="1075,-151 1075,-170 1206,-170 1206,-151 1075,-151"/>
<text text-anchor="middle" x="1140.5" y="-158" font-family="Helvetica,sans-Serif" font-size="10.00">client::HttpRpcTlsClient</text>
</a>
</g>
</g>
<!-- Node2 -->
<g id="node2" class="node">
<title>Node2</title>
<g id="a_node2"><a xlink:href="classclient_1_1TlsClient.html" target="_top" xlink:title=" ">
<polygon fill="white" stroke="black" points="874,-151 874,-170 966,-170 966,-151 874,-151"/>
<text text-anchor="middle" x="920" y="-158" font-family="Helvetica,sans-Serif" font-size="10.00">client::TlsClient</text>
</a>
</g>
</g>
<!-- Node2&#45;&gt;Node1 -->
<g id="edge1" class="edge">
<title>Node2&#45;&gt;Node1</title>
<path fill="none" stroke="midnightblue" d="M976.27,-160.5C1006.21,-160.5 1043.36,-160.5 1074.66,-160.5"/>
<polygon fill="midnightblue" stroke="midnightblue" points="976.01,-157 966.01,-160.5 976.01,-164 976.01,-157"/>
</g>
<!-- Node3 -->
<g id="node3" class="node">
<title>Node3</title>
<g id="a_node3"><a xlink:title=" ">
<polygon fill="white" stroke="black" points="182,-243 182,-262 247,-262 247,-243 182,-243"/>
<text text-anchor="middle" x="214.5" y="-250" font-family="Helvetica,sans-Serif" font-size="10.00">std::string</text>
</a>
</g>
</g>
<!-- Node3&#45;&gt;Node1 -->
<g id="edge21" class="edge">
<title>Node3&#45;&gt;Node1</title>
<path fill="none" stroke="#9a32cd" stroke-dasharray="5,2" d="M257.51,-252.5C303.8,-252.5 380.46,-252.5 446.5,-252.5 446.5,-252.5 446.5,-252.5 921,-252.5 1004.97,-252.5 1093.86,-194.08 1126.51,-170.35"/>
<polygon fill="#9a32cd" stroke="#9a32cd" points="257.26,-249 247.26,-252.5 257.26,-256 257.26,-249"/>
<text text-anchor="middle" x="686.5" y="-255.5" font-family="Helvetica,sans-Serif" font-size="10.00"> key_id</text>
</g>
<!-- Node3&#45;&gt;Node2 -->
<g id="edge2" class="edge">
<title>Node3&#45;&gt;Node2</title>
<path fill="none" stroke="#9a32cd" stroke-dasharray="5,2" d="M257.47,-245.66C272.73,-243.27 290.13,-240.64 306,-238.5 509.95,-210.99 562.14,-213.67 766,-185.5 802.39,-180.47 843.47,-173.7 873.9,-168.47"/>
<polygon fill="#9a32cd" stroke="#9a32cd" points="256.62,-242.25 247.29,-247.27 257.71,-249.17 256.62,-242.25"/>
<text text-anchor="middle" x="564.5" y="-225.5" font-family="Helvetica,sans-Serif" font-size="10.00"> host</text>
<text text-anchor="middle" x="564.5" y="-214.5" font-family="Helvetica,sans-Serif" font-size="10.00">port</text>
</g>
<!-- Node19 -->
<g id="node19" class="node">
<title>Node19</title>
<g id="a_node19"><a xlink:title=" ">
<polygon fill="white" stroke="black" points="376,-281.5 376,-311.5 519,-311.5 519,-281.5 376,-281.5"/>
<text text-anchor="start" x="384" y="-299.5" font-family="Helvetica,sans-Serif" font-size="10.00">std::map&lt; std::string,</text>
<text text-anchor="middle" x="447.5" y="-288.5" font-family="Helvetica,sans-Serif" font-size="10.00"> std::string, std::less&lt;&gt; &gt;</text>
</a>
</g>
</g>
<!-- Node3&#45;&gt;Node19 -->
<g id="edge19" class="edge">
<title>Node3&#45;&gt;Node19</title>
<path fill="none" stroke="#9a32cd" stroke-dasharray="5,2" d="M257.34,-260.47C290.35,-266.76 337.12,-275.67 375.9,-283.05"/>
<polygon fill="#9a32cd" stroke="#9a32cd" points="257.61,-256.96 247.14,-258.53 256.3,-263.84 257.61,-256.96"/>
<text text-anchor="middle" x="330.5" y="-291.5" font-family="Helvetica,sans-Serif" font-size="10.00"> elements</text>
<text text-anchor="middle" x="330.5" y="-280.5" font-family="Helvetica,sans-Serif" font-size="10.00">keys</text>
</g>
<!-- Node4 -->
<g id="node4" class="node">
<title>Node4</title>
<g id="a_node4"><a xlink:title=" ">
<polygon fill="white" stroke="black" points="0,-237.5 0,-267.5 104,-267.5 104,-237.5 0,-237.5"/>
<text text-anchor="start" x="8" y="-255.5" font-family="Helvetica,sans-Serif" font-size="10.00">std::basic_string&lt;</text>
<text text-anchor="middle" x="52" y="-244.5" font-family="Helvetica,sans-Serif" font-size="10.00"> Char &gt;</text>
</a>
</g>
</g>
<!-- Node4&#45;&gt;Node3 -->
<g id="edge3" class="edge">
<title>Node4&#45;&gt;Node3</title>
<path fill="none" stroke="midnightblue" d="M114.29,-252.5C137.34,-252.5 162.6,-252.5 181.87,-252.5"/>
<polygon fill="midnightblue" stroke="midnightblue" points="114.22,-249 104.22,-252.5 114.22,-256 114.22,-249"/>
</g>
<!-- Node5 -->
<g id="node5" class="node">
<title>Node5</title>
<g id="a_node5"><a xlink:title=" ">
<polygon fill="white" stroke="black" points="630,-54.5 630,-84.5 743,-84.5 743,-54.5 630,-54.5"/>
<text text-anchor="start" x="638" y="-72.5" font-family="Helvetica,sans-Serif" font-size="10.00">std::shared_ptr&lt; tls</text>
<text text-anchor="middle" x="686.5" y="-61.5" font-family="Helvetica,sans-Serif" font-size="10.00">::CA &gt;</text>
</a>
</g>
</g>
<!-- Node5&#45;&gt;Node2 -->
<g id="edge4" class="edge">
<title>Node5&#45;&gt;Node2</title>
<path fill="none" stroke="#9a32cd" stroke-dasharray="5,2" d="M753.04,-84.57C778,-92.34 805.77,-103.63 828,-119.5 838.28,-126.84 835.36,-134.68 846,-141.5 854.38,-146.87 864.22,-150.73 873.91,-153.49"/>
<polygon fill="#9a32cd" stroke="#9a32cd" points="753.85,-81.15 743.26,-81.65 751.84,-87.86 753.85,-81.15"/>
<text text-anchor="middle" x="806" y="-122.5" font-family="Helvetica,sans-Serif" font-size="10.00"> node_ca</text>
</g>
<!-- Node6 -->
<g id="node6" class="node">
<title>Node6</title>
<g id="a_node6"><a xlink:href="classtls_1_1CA.html" target="_top" xlink:title=" ">
<polygon fill="white" stroke="black" points="423.5,-42 423.5,-61 471.5,-61 471.5,-42 423.5,-42"/>
<text text-anchor="middle" x="447.5" y="-49" font-family="Helvetica,sans-Serif" font-size="10.00">tls::CA</text>
</a>
</g>
</g>
<!-- Node6&#45;&gt;Node5 -->
<g id="edge5" class="edge">
<title>Node6&#45;&gt;Node5</title>
<path fill="none" stroke="#9a32cd" stroke-dasharray="5,2" d="M481.77,-54.03C520.12,-56.94 583.78,-61.77 629.74,-65.26"/>
<polygon fill="#9a32cd" stroke="#9a32cd" points="481.89,-50.53 471.66,-53.26 481.36,-57.51 481.89,-50.53"/>
<text text-anchor="middle" x="564.5" y="-65.5" font-family="Helvetica,sans-Serif" font-size="10.00"> ptr</text>
</g>
<!-- Node7 -->
<g id="node7" class="node">
<title>Node7</title>
<g id="a_node7"><a xlink:title=" ">
<polygon fill="white" stroke="black" points="630,-0.5 630,-30.5 743,-30.5 743,-0.5 630,-0.5"/>
<text text-anchor="start" x="638" y="-18.5" font-family="Helvetica,sans-Serif" font-size="10.00">std::shared_ptr&lt; tls</text>
<text text-anchor="middle" x="686.5" y="-7.5" font-family="Helvetica,sans-Serif" font-size="10.00">::Cert &gt;</text>
</a>
</g>
</g>
<!-- Node7&#45;&gt;Node2 -->
<g id="edge6" class="edge">
<title>Node7&#45;&gt;Node2</title>
<path fill="none" stroke="#9a32cd" stroke-dasharray="5,2" d="M752.73,-31.87C779.86,-41.89 809.33,-57.54 828,-81.5 845.12,-103.46 825.95,-122.18 846,-141.5 853.54,-148.77 863.5,-153.35 873.63,-156.22"/>
<polygon fill="#9a32cd" stroke="#9a32cd" points="753.84,-28.55 743.25,-28.55 751.53,-35.16 753.84,-28.55"/>
<text text-anchor="middle" x="806" y="-84.5" font-family="Helvetica,sans-Serif" font-size="10.00"> cert</text>
</g>
<!-- Node8 -->
<g id="node8" class="node">
<title>Node8</title>
<g id="a_node8"><a xlink:href="classtls_1_1Cert.html" target="_top" xlink:title=" ">
<polygon fill="white" stroke="black" points="420,-4 420,-23 475,-23 475,-4 420,-4"/>
<text text-anchor="middle" x="447.5" y="-11" font-family="Helvetica,sans-Serif" font-size="10.00">tls::Cert</text>
</a>
</g>
</g>
<!-- Node8&#45;&gt;Node7 -->
<g id="edge7" class="edge">
<title>Node8&#45;&gt;Node7</title>
<path fill="none" stroke="#9a32cd" stroke-dasharray="5,2" d="M485.5,-13.81C524.14,-14.14 585.22,-14.65 629.71,-15.03"/>
<polygon fill="#9a32cd" stroke="#9a32cd" points="485.26,-10.31 475.23,-13.73 485.2,-17.31 485.26,-10.31"/>
<text text-anchor="middle" x="564.5" y="-18.5" font-family="Helvetica,sans-Serif" font-size="10.00"> ptr</text>
</g>
<!-- Node9 -->
<g id="node9" class="node">
<title>Node9</title>
<g id="a_node9"><a xlink:href="structcrypto_1_1OpenSSL_1_1Unique__SSL__CTX.html" target="_top" xlink:title=" ">
<polygon fill="white" stroke="black" points="618,-145.5 618,-175.5 755,-175.5 755,-145.5 618,-145.5"/>
<text text-anchor="start" x="626" y="-163.5" font-family="Helvetica,sans-Serif" font-size="10.00">crypto::OpenSSL::Unique</text>
<text text-anchor="middle" x="686.5" y="-152.5" font-family="Helvetica,sans-Serif" font-size="10.00">_SSL_CTX</text>
</a>
</g>
</g>
<!-- Node9&#45;&gt;Node2 -->
<g id="edge8" class="edge">
<title>Node9&#45;&gt;Node2</title>
<path fill="none" stroke="#9a32cd" stroke-dasharray="5,2" d="M765.1,-160.5C801.18,-160.5 842.83,-160.5 873.69,-160.5"/>
<polygon fill="#9a32cd" stroke="#9a32cd" points="765.08,-157 755.08,-160.5 765.08,-164 765.08,-157"/>
<text text-anchor="middle" x="806" y="-163.5" font-family="Helvetica,sans-Serif" font-size="10.00"> ctx</text>
</g>
<!-- Node10 -->
<g id="node10" class="node">
<title>Node10</title>
<g id="a_node10"><a xlink:href="classcrypto_1_1OpenSSL_1_1Unique__SSL__OBJECT.html" target="_top" xlink:title=" ">
<polygon fill="white" stroke="black" points="379,-140 379,-181 516,-181 516,-140 379,-140"/>
<text text-anchor="start" x="387" y="-169" font-family="Helvetica,sans-Serif" font-size="10.00">crypto::OpenSSL::Unique</text>
<text text-anchor="start" x="387" y="-158" font-family="Helvetica,sans-Serif" font-size="10.00">_SSL_OBJECT&lt; SSL_CTX,</text>
<text text-anchor="middle" x="447.5" y="-147" font-family="Helvetica,sans-Serif" font-size="10.00"> nullptr, nullptr &gt;</text>
</a>
</g>
</g>
<!-- Node10&#45;&gt;Node9 -->
<g id="edge9" class="edge">
<title>Node10&#45;&gt;Node9</title>
<path fill="none" stroke="midnightblue" d="M526.37,-160.5C555.91,-160.5 589.29,-160.5 617.81,-160.5"/>
<polygon fill="midnightblue" stroke="midnightblue" points="526.1,-157 516.1,-160.5 526.1,-164 526.1,-157"/>
</g>
<!-- Node11 -->
<g id="node11" class="node">
<title>Node11</title>
<g id="a_node11"><a xlink:title=" ">
<polygon fill="white" stroke="black" points="141,-145.5 141,-175.5 288,-175.5 288,-145.5 141,-145.5"/>
<text text-anchor="start" x="149" y="-163.5" font-family="Helvetica,sans-Serif" font-size="10.00">std::unique_ptr&lt; SSL</text>
<text text-anchor="middle" x="214.5" y="-152.5" font-family="Helvetica,sans-Serif" font-size="10.00">_CTX, void(*)(SSL_CTX *)&gt;</text>
</a>
</g>
</g>
<!-- Node11&#45;&gt;Node10 -->
<g id="edge10" class="edge">
<title>Node11&#45;&gt;Node10</title>
<path fill="none" stroke="#9a32cd" stroke-dasharray="5,2" d="M298.61,-160.5C324.94,-160.5 353.7,-160.5 378.81,-160.5"/>
<polygon fill="#9a32cd" stroke="#9a32cd" points="298.27,-157 288.27,-160.5 298.27,-164 298.27,-157"/>
<text text-anchor="middle" x="330.5" y="-163.5" font-family="Helvetica,sans-Serif" font-size="10.00"> p</text>
</g>
<!-- Node12 -->
<g id="node12" class="node">
<title>Node12</title>
<g id="a_node12"><a xlink:href="structcrypto_1_1OpenSSL_1_1Unique__BIO.html" target="_top" xlink:title=" ">
<polygon fill="white" stroke="black" points="607,-106 607,-125 766,-125 766,-106 607,-106"/>
<text text-anchor="middle" x="686.5" y="-113" font-family="Helvetica,sans-Serif" font-size="10.00">crypto::OpenSSL::Unique_BIO</text>
</a>
</g>
</g>
<!-- Node12&#45;&gt;Node2 -->
<g id="edge11" class="edge">
<title>Node12&#45;&gt;Node2</title>
<path fill="none" stroke="#9a32cd" stroke-dasharray="5,2" d="M746.65,-127C786.26,-134.7 837.59,-144.68 873.9,-151.73"/>
<polygon fill="#9a32cd" stroke="#9a32cd" points="747.08,-123.52 736.6,-125.04 745.74,-130.39 747.08,-123.52"/>
<text text-anchor="middle" x="806" y="-144.5" font-family="Helvetica,sans-Serif" font-size="10.00"> bio</text>
</g>
<!-- Node13 -->
<g id="node13" class="node">
<title>Node13</title>
<g id="a_node13"><a xlink:href="classcrypto_1_1OpenSSL_1_1Unique__SSL__OBJECT.html" target="_top" xlink:title=" ">
<polygon fill="white" stroke="black" points="373,-80 373,-121 522,-121 522,-80 373,-80"/>
<text text-anchor="start" x="381" y="-109" font-family="Helvetica,sans-Serif" font-size="10.00">crypto::OpenSSL::Unique</text>
<text text-anchor="start" x="381" y="-98" font-family="Helvetica,sans-Serif" font-size="10.00">_SSL_OBJECT&lt; BIO, nullptr,</text>
<text text-anchor="middle" x="447.5" y="-87" font-family="Helvetica,sans-Serif" font-size="10.00"> nullptr &gt;</text>
</a>
</g>
</g>
<!-- Node13&#45;&gt;Node12 -->
<g id="edge12" class="edge">
<title>Node13&#45;&gt;Node12</title>
<path fill="none" stroke="midnightblue" d="M532.43,-105.81C556.67,-107.35 583.03,-109.01 606.93,-110.53"/>
<polygon fill="midnightblue" stroke="midnightblue" points="532.39,-102.3 522.19,-105.16 531.95,-109.29 532.39,-102.3"/>
</g>
<!-- Node14 -->
<g id="node14" class="node">
<title>Node14</title>
<g id="a_node14"><a xlink:title=" ">
<polygon fill="white" stroke="black" points="154,-85.5 154,-115.5 275,-115.5 275,-85.5 154,-85.5"/>
<text text-anchor="start" x="162" y="-103.5" font-family="Helvetica,sans-Serif" font-size="10.00">std::unique_ptr&lt; BIO,</text>
<text text-anchor="middle" x="214.5" y="-92.5" font-family="Helvetica,sans-Serif" font-size="10.00"> void(*)(BIO *)&gt;</text>
</a>
</g>
</g>
<!-- Node14&#45;&gt;Node13 -->
<g id="edge13" class="edge">
<title>Node14&#45;&gt;Node13</title>
<path fill="none" stroke="#9a32cd" stroke-dasharray="5,2" d="M285.29,-100.5C312.99,-100.5 344.87,-100.5 372.93,-100.5"/>
<polygon fill="#9a32cd" stroke="#9a32cd" points="285.29,-97 275.29,-100.5 285.29,-104 285.29,-97"/>
<text text-anchor="middle" x="330.5" y="-103.5" font-family="Helvetica,sans-Serif" font-size="10.00"> p</text>
</g>
<!-- Node15 -->
<g id="node15" class="node">
<title>Node15</title>
<g id="a_node15"><a xlink:href="classhttp_1_1ResponseProcessor.html" target="_top" xlink:title=" ">
<polygon fill="white" stroke="black" points="851.5,-113 851.5,-132 988.5,-132 988.5,-113 851.5,-113"/>
<text text-anchor="middle" x="920" y="-120" font-family="Helvetica,sans-Serif" font-size="10.00">http::ResponseProcessor</text>
</a>
</g>
</g>
<!-- Node15&#45;&gt;Node1 -->
<g id="edge14" class="edge">
<title>Node15&#45;&gt;Node1</title>
<path fill="none" stroke="midnightblue" d="M985.84,-133.78C1017.27,-139.24 1054.62,-145.74 1084.62,-150.96"/>
<polygon fill="midnightblue" stroke="midnightblue" points="986.31,-130.31 975.85,-132.04 985.11,-137.2 986.31,-130.31"/>
</g>
<!-- Node16 -->
<g id="node16" class="node">
<title>Node16</title>
<g id="a_node16"><a xlink:href="classhttp_1_1ResponseParser.html" target="_top" xlink:title=" ">
<polygon fill="white" stroke="black" points="860.5,-282 860.5,-301 979.5,-301 979.5,-282 860.5,-282"/>
<text text-anchor="middle" x="920" y="-289" font-family="Helvetica,sans-Serif" font-size="10.00">http::ResponseParser</text>
</a>
</g>
</g>
<!-- Node16&#45;&gt;Node1 -->
<g id="edge15" class="edge">
<title>Node16&#45;&gt;Node1</title>
<path fill="none" stroke="#9a32cd" stroke-dasharray="5,2" d="M989.49,-288.64C1012.25,-285.23 1036.89,-278.71 1057,-266.5 1096.87,-242.3 1124.8,-191.21 1135.11,-170.02"/>
<polygon fill="#9a32cd" stroke="#9a32cd" points="988.99,-285.17 979.53,-289.95 989.9,-292.11 988.99,-285.17"/>
<text text-anchor="middle" x="1034.5" y="-285.5" font-family="Helvetica,sans-Serif" font-size="10.00"> parser</text>
</g>
<!-- Node17 -->
<g id="node17" class="node">
<title>Node17</title>
<g id="a_node17"><a xlink:href="classhttp_1_1Parser.html" target="_top" xlink:title=" ">
<polygon fill="white" stroke="black" points="650.5,-287 650.5,-306 722.5,-306 722.5,-287 650.5,-287"/>
<text text-anchor="middle" x="686.5" y="-294" font-family="Helvetica,sans-Serif" font-size="10.00">http::Parser</text>
</a>
</g>
</g>
<!-- Node17&#45;&gt;Node16 -->
<g id="edge16" class="edge">
<title>Node17&#45;&gt;Node16</title>
<path fill="none" stroke="midnightblue" d="M732.96,-295.52C769.32,-294.73 820.56,-293.63 860.06,-292.77"/>
<polygon fill="midnightblue" stroke="midnightblue" points="732.58,-292.03 722.66,-295.74 732.73,-299.02 732.58,-292.03"/>
</g>
<!-- Node18 -->
<g id="node18" class="node">
<title>Node18</title>
<g id="a_node18"><a xlink:title=" ">
<polygon fill="white" stroke="black" points="385,-331 385,-350 510,-350 510,-331 385,-331"/>
<text text-anchor="middle" x="447.5" y="-338" font-family="Helvetica,sans-Serif" font-size="10.00">std::vector&lt; uint8_t &gt;</text>
</a>
</g>
</g>
<!-- Node18&#45;&gt;Node17 -->
<g id="edge17" class="edge">
<title>Node18&#45;&gt;Node17</title>
<path fill="none" stroke="#9a32cd" stroke-dasharray="5,2" d="M509.79,-329.12C554.43,-320.83 613.31,-309.9 650.29,-303.04"/>
<polygon fill="#9a32cd" stroke="#9a32cd" points="509.12,-325.69 499.93,-330.95 510.4,-332.57 509.12,-325.69"/>
<text text-anchor="middle" x="564.5" y="-324.5" font-family="Helvetica,sans-Serif" font-size="10.00"> body_buf</text>
</g>
<!-- Node19&#45;&gt;Node17 -->
<g id="edge18" class="edge">
<title>Node19&#45;&gt;Node17</title>
<path fill="none" stroke="#9a32cd" stroke-dasharray="5,2" d="M529.33,-296.5C570.55,-296.5 618.56,-296.5 650.35,-296.5"/>
<polygon fill="#9a32cd" stroke="#9a32cd" points="529.29,-293 519.29,-296.5 529.29,-300 529.29,-293"/>
<text text-anchor="middle" x="564.5" y="-299.5" font-family="Helvetica,sans-Serif" font-size="10.00"> headers</text>
</g>
<!-- Node20 -->
<g id="node20" class="node">
<title>Node20</title>
<g id="a_node20"><a xlink:title=" ">
<polygon fill="white" stroke="black" points="846,-75 846,-94 994,-94 994,-75 846,-75"/>
<text text-anchor="middle" x="920" y="-82" font-family="Helvetica,sans-Serif" font-size="10.00">std::shared_ptr&lt; KeyPair &gt;</text>
</a>
</g>
</g>
<!-- Node20&#45;&gt;Node1 -->
<g id="edge20" class="edge">
<title>Node20&#45;&gt;Node1</title>
<path fill="none" stroke="#9a32cd" stroke-dasharray="5,2" d="M969.29,-96.68C977.55,-98.88 986.04,-101.2 994,-103.5 1022.22,-111.65 1029.55,-113.03 1057,-123.5 1078.85,-131.84 1103.22,-143 1119.76,-150.88"/>
<polygon fill="#9a32cd" stroke="#9a32cd" points="969.93,-93.23 959.37,-94.08 968.15,-100 969.93,-93.23"/>
<text text-anchor="middle" x="1034.5" y="-126.5" font-family="Helvetica,sans-Serif" font-size="10.00"> key_pair</text>
</g>
</g>
</svg>
