<?xml version="1.0" encoding="UTF-8" standalone="no"?>
<!DOCTYPE svg PUBLIC "-//W3C//DTD SVG 1.1//EN"
 "http://www.w3.org/Graphics/SVG/1.1/DTD/svg11.dtd">
<!-- Generated by graphviz version 2.43.0 (0)
 -->
<!-- Title: src/ds/cli_helper.h Pages: 1 -->
<!--zoomable 319 -->
<svg id="main" version="1.1" xmlns="http://www.w3.org/2000/svg" xmlns:xlink="http://www.w3.org/1999/xlink" xml:space="preserve" onload="init(evt)">
<style type="text/css"><![CDATA[
.edge:hover path { stroke: red; }
.edge:hover polygon { stroke: red; fill: red; }
]]></style>
<script type="text/javascript"><![CDATA[
var edges = document.getElementsByTagName('g');
if (edges && edges.length) {
  for (var i=0;i<edges.length;i++) {
    if (edges[i].id.substr(0,4)=='edge') {
      edges[i].setAttribute('class','edge');
    }
  }
}
]]></script>
        <defs>
                <circle id="rim" cx="0" cy="0" r="7"/>
                <circle id="rim2" cx="0" cy="0" r="3.5"/>
                <g id="zoomPlus">
                        <use xlink:href="#rim" fill="#404040">
                                <set attributeName="fill" to="#808080" begin="zoomplus.mouseover" end="zoomplus.mouseout"/>
                        </use>
                        <path d="M-4,0h8M0,-4v8" fill="none" stroke="white" stroke-width="1.5" pointer-events="none"/>
                </g>
                <g id="zoomMin">
                        <use xlink:href="#rim" fill="#404040">
                                <set attributeName="fill" to="#808080" begin="zoomminus.mouseover" end="zoomminus.mouseout"/>
                        </use>
                        <path d="M-4,0h8" fill="none" stroke="white" stroke-width="1.5" pointer-events="none"/>
                </g>
                <g id="dirArrow">
                        <path fill="none" stroke="white" stroke-width="1.5" d="M0,-3.0v7 M-2.5,-0.5L0,-3.0L2.5,-0.5"/>
                </g>
               <g id="resetDef">
                       <use xlink:href="#rim2" fill="#404040">
                               <set attributeName="fill" to="#808080" begin="reset.mouseover" end="reset.mouseout"/>
                       </use>
               </g>
        </defs>

<script type="text/javascript">
var viewWidth = 792;
var viewHeight = 319;
var sectionId = 'dynsection-0';
</script>
<script xlink:href="svgpan.js"/>
<svg id="graph" class="graph">
<g id="viewport">
<title>src/ds/cli_helper.h</title>
<polygon fill="white" stroke="transparent" points="-4,4 -4,-315 788.48,-315 788.48,4 -4,4"/>
<!-- Node1 -->
<g id="node1" class="node">
<title>Node1</title>
<g id="a_node1"><a xlink:title=" ">
<polygon fill="#bfbfbf" stroke="black" points="455.48,-291.5 455.48,-310.5 559.48,-310.5 559.48,-291.5 455.48,-291.5"/>
<text text-anchor="middle" x="507.48" y="-298.5" font-family="Helvetica,sans-Serif" font-size="10.00">src/ds/cli_helper.h</text>
</a>
</g>
</g>
<!-- Node2 -->
<g id="node2" class="node">
<title>Node2</title>
<g id="a_node2"><a xlink:href="san_8h.html" target="_top" xlink:title=" ">
<polygon fill="white" stroke="black" points="188.48,-230 188.48,-249 282.48,-249 282.48,-230 188.48,-230"/>
<text text-anchor="middle" x="235.48" y="-237" font-family="Helvetica,sans-Serif" font-size="10.00">ccf/crypto/san.h</text>
</a>
</g>
</g>
<!-- Node1&#45;&gt;Node2 -->
<g id="edge1" class="edge">
<title>Node1&#45;&gt;Node2</title>
<path fill="none" stroke="midnightblue" d="M468.51,-291.48C419.93,-280.85 336.9,-262.68 284.18,-251.15"/>
<polygon fill="midnightblue" stroke="midnightblue" points="284.89,-247.73 274.38,-249.01 283.4,-254.57 284.89,-247.73"/>
</g>
<!-- Node8 -->
<g id="node8" class="node">
<title>Node8</title>
<g id="a_node8"><a xlink:href="nonstd_8h.html" target="_top" xlink:title=" ">
<polygon fill="white" stroke="black" points="412.48,-56.5 412.48,-75.5 502.48,-75.5 502.48,-56.5 412.48,-56.5"/>
<text text-anchor="middle" x="457.48" y="-63.5" font-family="Helvetica,sans-Serif" font-size="10.00">ccf/ds/nonstd.h</text>
</a>
</g>
</g>
<!-- Node1&#45;&gt;Node8 -->
<g id="edge22" class="edge">
<title>Node1&#45;&gt;Node8</title>
<path fill="none" stroke="midnightblue" d="M506.41,-291.27C503.02,-264.29 491.57,-179.95 473.48,-112 471.11,-103.09 467.77,-93.42 464.76,-85.34"/>
<polygon fill="midnightblue" stroke="midnightblue" points="467.96,-83.9 461.1,-75.83 461.43,-86.42 467.96,-83.9"/>
</g>
<!-- Node14 -->
<g id="node14" class="node">
<title>Node14</title>
<g id="a_node14"><a xlink:title=" ">
<polygon fill="white" stroke="#bfbfbf" points="57.98,-56.5 57.98,-75.5 136.98,-75.5 136.98,-56.5 57.98,-56.5"/>
<text text-anchor="middle" x="97.48" y="-63.5" font-family="Helvetica,sans-Serif" font-size="10.00">fmt/format.h</text>
</a>
</g>
</g>
<!-- Node1&#45;&gt;Node14 -->
<g id="edge30" class="edge">
<title>Node1&#45;&gt;Node14</title>
<path fill="none" stroke="midnightblue" d="M455.25,-298.92C373.9,-296.25 221.85,-286.99 179.48,-255 123.59,-212.8 105.18,-124.5 99.65,-85.82"/>
<polygon fill="midnightblue" stroke="midnightblue" points="103.07,-84.99 98.32,-75.52 96.13,-85.88 103.07,-84.99"/>
</g>
<!-- Node17 -->
<g id="node17" class="node">
<title>Node17</title>
<g id="a_node17"><a xlink:href="node__info__network_8h.html" target="_top" xlink:title=" ">
<polygon fill="white" stroke="black" points="329.48,-224.5 329.48,-254.5 449.48,-254.5 449.48,-224.5 329.48,-224.5"/>
<text text-anchor="start" x="337.48" y="-242.5" font-family="Helvetica,sans-Serif" font-size="10.00">ccf/service/node_info</text>
<text text-anchor="middle" x="389.48" y="-231.5" font-family="Helvetica,sans-Serif" font-size="10.00">_network.h</text>
</a>
</g>
</g>
<!-- Node1&#45;&gt;Node17 -->
<g id="edge23" class="edge">
<title>Node1&#45;&gt;Node17</title>
<path fill="none" stroke="midnightblue" d="M490.57,-291.48C473.92,-283.08 447.93,-269.97 426.47,-259.15"/>
<polygon fill="midnightblue" stroke="midnightblue" points="427.79,-255.9 417.29,-254.52 424.64,-262.15 427.79,-255.9"/>
</g>
<!-- Node18 -->
<g id="node18" class="node">
<title>Node18</title>
<g id="a_node18"><a xlink:title=" ">
<polygon fill="white" stroke="#bfbfbf" points="535.98,-230 535.98,-249 630.98,-249 630.98,-230 535.98,-230"/>
<text text-anchor="middle" x="583.48" y="-237" font-family="Helvetica,sans-Serif" font-size="10.00">CLI11/CLI11.hpp</text>
</a>
</g>
</g>
<!-- Node1&#45;&gt;Node18 -->
<g id="edge27" class="edge">
<title>Node1&#45;&gt;Node18</title>
<path fill="none" stroke="midnightblue" d="M518.37,-291.48C530.45,-282.02 550.15,-266.6 564.72,-255.19"/>
<polygon fill="midnightblue" stroke="midnightblue" points="566.89,-257.93 572.61,-249.01 562.58,-252.42 566.89,-257.93"/>
</g>
<!-- Node19 -->
<g id="node19" class="node">
<title>Node19</title>
<g id="a_node19"><a xlink:title=" ">
<polygon fill="white" stroke="#bfbfbf" points="648.98,-230 648.98,-249 709.98,-249 709.98,-230 648.98,-230"/>
<text text-anchor="middle" x="679.48" y="-237" font-family="Helvetica,sans-Serif" font-size="10.00">charconv</text>
</a>
</g>
</g>
<!-- Node1&#45;&gt;Node19 -->
<g id="edge28" class="edge">
<title>Node1&#45;&gt;Node19</title>
<path fill="none" stroke="midnightblue" d="M533.55,-291.43C560.43,-282.54 603.49,-268.13 640.48,-255 642.72,-254.2 645.03,-253.37 647.35,-252.53"/>
<polygon fill="midnightblue" stroke="midnightblue" points="648.66,-255.78 656.84,-249.05 646.24,-249.21 648.66,-255.78"/>
</g>
<!-- Node20 -->
<g id="node20" class="node">
<title>Node20</title>
<g id="a_node20"><a xlink:title=" ">
<polygon fill="white" stroke="#bfbfbf" points="728.48,-230 728.48,-249 784.48,-249 784.48,-230 728.48,-230"/>
<text text-anchor="middle" x="756.48" y="-237" font-family="Helvetica,sans-Serif" font-size="10.00">optional</text>
</a>
</g>
</g>
<!-- Node1&#45;&gt;Node20 -->
<g id="edge29" class="edge">
<title>Node1&#45;&gt;Node20</title>
<path fill="none" stroke="midnightblue" d="M559.48,-291.43C602.77,-283.7 665.78,-271.1 719.48,-255 721.91,-254.27 724.4,-253.45 726.89,-252.59"/>
<polygon fill="midnightblue" stroke="midnightblue" points="728.17,-255.84 736.33,-249.09 725.74,-249.28 728.17,-255.84"/>
</g>
<!-- Node3 -->
<g id="node3" class="node">
<title>Node3</title>
<g id="a_node3"><a xlink:href="json_8h.html" target="_top" xlink:title=" ">
<polygon fill="white" stroke="black" points="196.98,-168.5 196.98,-187.5 273.98,-187.5 273.98,-168.5 196.98,-168.5"/>
<text text-anchor="middle" x="235.48" y="-175.5" font-family="Helvetica,sans-Serif" font-size="10.00">ccf/ds/json.h</text>
</a>
</g>
</g>
<!-- Node2&#45;&gt;Node3 -->
<g id="edge2" class="edge">
<title>Node2&#45;&gt;Node3</title>
<path fill="none" stroke="midnightblue" d="M235.48,-229.98C235.48,-221.58 235.48,-208.48 235.48,-197.66"/>
<polygon fill="midnightblue" stroke="midnightblue" points="238.98,-197.51 235.48,-187.51 231.98,-197.51 238.98,-197.51"/>
</g>
<!-- Node5 -->
<g id="node5" class="node">
<title>Node5</title>
<g id="a_node5"><a xlink:title=" ">
<polygon fill="white" stroke="#bfbfbf" points="84.48,-0.5 84.48,-19.5 128.48,-19.5 128.48,-0.5 84.48,-0.5"/>
<text text-anchor="middle" x="106.48" y="-7.5" font-family="Helvetica,sans-Serif" font-size="10.00">string</text>
</a>
</g>
</g>
<!-- Node2&#45;&gt;Node5 -->
<g id="edge21" class="edge">
<title>Node2&#45;&gt;Node5</title>
<path fill="none" stroke="midnightblue" d="M188.38,-230.94C135.39,-219.65 51.73,-192.78 13.48,-132 -4.51,-103.41 -4.47,-84.62 13.48,-56 26.74,-34.84 53.09,-23.39 74.36,-17.34"/>
<polygon fill="midnightblue" stroke="midnightblue" points="75.5,-20.66 84.31,-14.79 73.76,-13.88 75.5,-20.66"/>
</g>
<!-- Node2&#45;&gt;Node8 -->
<g id="edge19" class="edge">
<title>Node2&#45;&gt;Node8</title>
<path fill="none" stroke="midnightblue" d="M255.35,-229.96C290.13,-214.32 363.04,-178.37 412.48,-132 427.14,-118.25 439.75,-98.96 447.86,-84.97"/>
<polygon fill="midnightblue" stroke="midnightblue" points="451.12,-86.31 452.94,-75.87 445.01,-82.9 451.12,-86.31"/>
</g>
<!-- Node2&#45;&gt;Node14 -->
<g id="edge20" class="edge">
<title>Node2&#45;&gt;Node14</title>
<path fill="none" stroke="midnightblue" d="M226.87,-229.82C217.22,-219.95 201.24,-203.24 188.48,-188 158.53,-152.24 126.38,-107.92 109.47,-84.09"/>
<polygon fill="midnightblue" stroke="midnightblue" points="112.21,-81.9 103.58,-75.75 106.49,-85.93 112.21,-81.9"/>
</g>
<!-- Node4 -->
<g id="node4" class="node">
<title>Node4</title>
<g id="a_node4"><a xlink:href="include_2ccf_2crypto_2base64_8h.html" target="_top" xlink:title=" ">
<polygon fill="white" stroke="black" points="154.48,-56.5 154.48,-75.5 266.48,-75.5 266.48,-56.5 154.48,-56.5"/>
<text text-anchor="middle" x="210.48" y="-63.5" font-family="Helvetica,sans-Serif" font-size="10.00">ccf/crypto/base64.h</text>
</a>
</g>
</g>
<!-- Node3&#45;&gt;Node4 -->
<g id="edge3" class="edge">
<title>Node3&#45;&gt;Node4</title>
<path fill="none" stroke="midnightblue" d="M225.04,-168.24C216.06,-159.97 203.73,-146.66 198.48,-132 192.98,-116.66 197.28,-98.33 202.19,-85.05"/>
<polygon fill="midnightblue" stroke="midnightblue" points="205.5,-86.22 206.09,-75.64 199.03,-83.54 205.5,-86.22"/>
</g>
<!-- Node7 -->
<g id="node7" class="node">
<title>Node7</title>
<g id="a_node7"><a xlink:href="include_2ccf_2ds_2json__schema_8h.html" target="_top" xlink:title=" ">
<polygon fill="white" stroke="black" points="281.98,-112.5 281.98,-131.5 402.98,-131.5 402.98,-112.5 281.98,-112.5"/>
<text text-anchor="middle" x="342.48" y="-119.5" font-family="Helvetica,sans-Serif" font-size="10.00">ccf/ds/json_schema.h</text>
</a>
</g>
</g>
<!-- Node3&#45;&gt;Node7 -->
<g id="edge6" class="edge">
<title>Node3&#45;&gt;Node7</title>
<path fill="none" stroke="midnightblue" d="M252.67,-168.32C269.83,-159.66 296.42,-146.24 316.23,-136.25"/>
<polygon fill="midnightblue" stroke="midnightblue" points="317.98,-139.28 325.33,-131.65 314.83,-133.04 317.98,-139.28"/>
</g>
<!-- Node3&#45;&gt;Node14 -->
<g id="edge17" class="edge">
<title>Node3&#45;&gt;Node14</title>
<path fill="none" stroke="midnightblue" d="M224.65,-168.37C201.17,-149.65 145.34,-105.15 116.09,-81.83"/>
<polygon fill="midnightblue" stroke="midnightblue" points="118.26,-79.09 108.26,-75.59 113.9,-84.56 118.26,-79.09"/>
</g>
<!-- Node16 -->
<g id="node16" class="node">
<title>Node16</title>
<g id="a_node16"><a xlink:title=" ">
<polygon fill="white" stroke="#bfbfbf" points="207.48,-112.5 207.48,-131.5 263.48,-131.5 263.48,-112.5 207.48,-112.5"/>
<text text-anchor="middle" x="235.48" y="-119.5" font-family="Helvetica,sans-Serif" font-size="10.00">sstream</text>
</a>
</g>
</g>
<!-- Node3&#45;&gt;Node16 -->
<g id="edge18" class="edge">
<title>Node3&#45;&gt;Node16</title>
<path fill="none" stroke="midnightblue" d="M235.48,-168.08C235.48,-161.01 235.48,-150.86 235.48,-141.99"/>
<polygon fill="midnightblue" stroke="midnightblue" points="238.98,-141.75 235.48,-131.75 231.98,-141.75 238.98,-141.75"/>
</g>
<!-- Node4&#45;&gt;Node5 -->
<g id="edge4" class="edge">
<title>Node4&#45;&gt;Node5</title>
<path fill="none" stroke="midnightblue" d="M193.77,-56.32C177.17,-47.7 151.48,-34.36 132.26,-24.39"/>
<polygon fill="midnightblue" stroke="midnightblue" points="133.63,-21.16 123.15,-19.65 130.41,-27.37 133.63,-21.16"/>
</g>
<!-- Node6 -->
<g id="node6" class="node">
<title>Node6</title>
<g id="a_node6"><a xlink:title=" ">
<polygon fill="white" stroke="#bfbfbf" points="205.98,-0.5 205.98,-19.5 252.98,-19.5 252.98,-0.5 205.98,-0.5"/>
<text text-anchor="middle" x="229.48" y="-7.5" font-family="Helvetica,sans-Serif" font-size="10.00">vector</text>
</a>
</g>
</g>
<!-- Node4&#45;&gt;Node6 -->
<g id="edge5" class="edge">
<title>Node4&#45;&gt;Node6</title>
<path fill="none" stroke="midnightblue" d="M213.62,-56.08C216.16,-48.85 219.84,-38.41 223.01,-29.4"/>
<polygon fill="midnightblue" stroke="midnightblue" points="226.38,-30.35 226.4,-19.75 219.78,-28.02 226.38,-30.35"/>
</g>
<!-- Node7&#45;&gt;Node8 -->
<g id="edge7" class="edge">
<title>Node7&#45;&gt;Node8</title>
<path fill="none" stroke="midnightblue" d="M360.7,-112.44C379.37,-103.68 408.64,-89.94 430.1,-79.86"/>
<polygon fill="midnightblue" stroke="midnightblue" points="431.78,-82.93 439.34,-75.52 428.8,-76.6 431.78,-82.93"/>
</g>
<!-- Node7&#45;&gt;Node14 -->
<g id="edge15" class="edge">
<title>Node7&#45;&gt;Node14</title>
<path fill="none" stroke="midnightblue" d="M303.66,-112.44C260.92,-103.02 192.15,-87.87 145.91,-77.68"/>
<polygon fill="midnightblue" stroke="midnightblue" points="146.64,-74.25 136.12,-75.52 145.13,-81.09 146.64,-74.25"/>
</g>
<!-- Node15 -->
<g id="node15" class="node">
<title>Node15</title>
<g id="a_node15"><a xlink:title=" ">
<polygon fill="white" stroke="#bfbfbf" points="284.48,-56.5 284.48,-75.5 394.48,-75.5 394.48,-56.5 284.48,-56.5"/>
<text text-anchor="middle" x="339.48" y="-63.5" font-family="Helvetica,sans-Serif" font-size="10.00">nlohmann/json.hpp</text>
</a>
</g>
</g>
<!-- Node7&#45;&gt;Node15 -->
<g id="edge16" class="edge">
<title>Node7&#45;&gt;Node15</title>
<path fill="none" stroke="midnightblue" d="M341.98,-112.08C341.59,-105.01 341.03,-94.86 340.53,-85.99"/>
<polygon fill="midnightblue" stroke="midnightblue" points="344.01,-85.54 339.97,-75.75 337.03,-85.93 344.01,-85.54"/>
</g>
<!-- Node8&#45;&gt;Node5 -->
<g id="edge11" class="edge">
<title>Node8&#45;&gt;Node5</title>
<path fill="none" stroke="midnightblue" d="M412.41,-57.44C409.39,-56.95 406.39,-56.46 403.48,-56 307.15,-40.68 193.05,-23.72 138.56,-15.7"/>
<polygon fill="midnightblue" stroke="midnightblue" points="138.88,-12.21 128.48,-14.22 137.86,-19.14 138.88,-12.21"/>
</g>
<!-- Node8&#45;&gt;Node6 -->
<g id="edge14" class="edge">
<title>Node8&#45;&gt;Node6</title>
<path fill="none" stroke="midnightblue" d="M421.35,-56.44C377.85,-46.14 305.37,-28.97 263.05,-18.95"/>
<polygon fill="midnightblue" stroke="midnightblue" points="263.76,-15.52 253.23,-16.62 262.15,-22.33 263.76,-15.52"/>
</g>
<!-- Node9 -->
<g id="node9" class="node">
<title>Node9</title>
<g id="a_node9"><a xlink:title=" ">
<polygon fill="white" stroke="#bfbfbf" points="290.48,-0.5 290.48,-19.5 354.48,-19.5 354.48,-0.5 290.48,-0.5"/>
<text text-anchor="middle" x="322.48" y="-7.5" font-family="Helvetica,sans-Serif" font-size="10.00">algorithm</text>
</a>
</g>
</g>
<!-- Node8&#45;&gt;Node9 -->
<g id="edge8" class="edge">
<title>Node8&#45;&gt;Node9</title>
<path fill="none" stroke="midnightblue" d="M436.09,-56.44C413.77,-47.52 378.58,-33.44 353.27,-23.32"/>
<polygon fill="midnightblue" stroke="midnightblue" points="354.35,-19.98 343.77,-19.52 351.76,-26.48 354.35,-19.98"/>
</g>
<!-- Node10 -->
<g id="node10" class="node">
<title>Node10</title>
<g id="a_node10"><a xlink:title=" ">
<polygon fill="white" stroke="#bfbfbf" points="372.48,-0.5 372.48,-19.5 414.48,-19.5 414.48,-0.5 372.48,-0.5"/>
<text text-anchor="middle" x="393.48" y="-7.5" font-family="Helvetica,sans-Serif" font-size="10.00">array</text>
</a>
</g>
</g>
<!-- Node8&#45;&gt;Node10 -->
<g id="edge9" class="edge">
<title>Node8&#45;&gt;Node10</title>
<path fill="none" stroke="midnightblue" d="M447.2,-56.32C437.64,-48.26 423.2,-36.08 411.69,-26.37"/>
<polygon fill="midnightblue" stroke="midnightblue" points="413.85,-23.61 403.95,-19.83 409.33,-28.96 413.85,-23.61"/>
</g>
<!-- Node11 -->
<g id="node11" class="node">
<title>Node11</title>
<g id="a_node11"><a xlink:title=" ">
<polygon fill="white" stroke="#bfbfbf" points="432.98,-0.5 432.98,-19.5 481.98,-19.5 481.98,-0.5 432.98,-0.5"/>
<text text-anchor="middle" x="457.48" y="-7.5" font-family="Helvetica,sans-Serif" font-size="10.00">cctype</text>
</a>
</g>
</g>
<!-- Node8&#45;&gt;Node11 -->
<g id="edge10" class="edge">
<title>Node8&#45;&gt;Node11</title>
<path fill="none" stroke="midnightblue" d="M457.48,-56.08C457.48,-49.01 457.48,-38.86 457.48,-29.99"/>
<polygon fill="midnightblue" stroke="midnightblue" points="460.98,-29.75 457.48,-19.75 453.98,-29.75 460.98,-29.75"/>
</g>
<!-- Node12 -->
<g id="node12" class="node">
<title>Node12</title>
<g id="a_node12"><a xlink:title=" ">
<polygon fill="white" stroke="#bfbfbf" points="499.98,-0.5 499.98,-19.5 572.98,-19.5 572.98,-0.5 499.98,-0.5"/>
<text text-anchor="middle" x="536.48" y="-7.5" font-family="Helvetica,sans-Serif" font-size="10.00">string_view</text>
</a>
</g>
</g>
<!-- Node8&#45;&gt;Node12 -->
<g id="edge12" class="edge">
<title>Node8&#45;&gt;Node12</title>
<path fill="none" stroke="midnightblue" d="M470.17,-56.32C482.38,-47.98 501.06,-35.21 515.48,-25.35"/>
<polygon fill="midnightblue" stroke="midnightblue" points="517.54,-28.19 523.82,-19.65 513.59,-22.41 517.54,-28.19"/>
</g>
<!-- Node13 -->
<g id="node13" class="node">
<title>Node13</title>
<g id="a_node13"><a xlink:title=" ">
<polygon fill="white" stroke="#bfbfbf" points="590.98,-0.5 590.98,-19.5 659.98,-19.5 659.98,-0.5 590.98,-0.5"/>
<text text-anchor="middle" x="625.48" y="-7.5" font-family="Helvetica,sans-Serif" font-size="10.00">type_traits</text>
</a>
</g>
</g>
<!-- Node8&#45;&gt;Node13 -->
<g id="edge13" class="edge">
<title>Node8&#45;&gt;Node13</title>
<path fill="none" stroke="midnightblue" d="M484.1,-56.44C512.48,-47.32 557.62,-32.81 589.23,-22.65"/>
<polygon fill="midnightblue" stroke="midnightblue" points="590.53,-25.91 598.98,-19.52 588.39,-19.24 590.53,-25.91"/>
</g>
<!-- Node17&#45;&gt;Node3 -->
<g id="edge24" class="edge">
<title>Node17&#45;&gt;Node3</title>
<path fill="none" stroke="midnightblue" d="M352.98,-224.4C326.91,-214.33 292.19,-200.91 267.25,-191.28"/>
<polygon fill="midnightblue" stroke="midnightblue" points="268.48,-188 257.89,-187.66 265.95,-194.53 268.48,-188"/>
</g>
<!-- Node17&#45;&gt;Node5 -->
<g id="edge26" class="edge">
<title>Node17&#45;&gt;Node5</title>
<path fill="none" stroke="midnightblue" d="M329.06,-230.32C287.86,-223.09 232.92,-210.14 188.48,-188 117.47,-152.62 83.72,-147.57 49.48,-76 39.8,-55.78 60.82,-37.03 80.01,-24.92"/>
<polygon fill="midnightblue" stroke="midnightblue" points="82.03,-27.78 88.86,-19.68 78.47,-21.76 82.03,-27.78"/>
</g>
<!-- Node17&#45;&gt;Node8 -->
<g id="edge25" class="edge">
<title>Node17&#45;&gt;Node8</title>
<path fill="none" stroke="midnightblue" d="M411.81,-224.47C423.92,-215.58 437.92,-202.96 445.48,-188 462.08,-155.14 461.63,-110.91 459.66,-86.04"/>
<polygon fill="midnightblue" stroke="midnightblue" points="463.12,-85.42 458.67,-75.8 456.15,-86.09 463.12,-85.42"/>
</g>
</g>
</svg>
        <g id="navigator" transform="translate(0 0)" fill="#404254">
                <rect fill="#f2f5e9" fill-opacity="0.5" stroke="#606060" stroke-width=".5" x="0" y="0" width="60" height="60"/>
                <use id="zoomplus" xlink:href="#zoomPlus" x="17" y="9" onmousedown="handleZoom(evt,'in')"/>
                <use id="zoomminus" xlink:href="#zoomMin" x="42" y="9" onmousedown="handleZoom(evt,'out')"/>
                <use id="reset" xlink:href="#resetDef" x="30" y="36" onmousedown="handleReset()"/>
                <g id="arrowUp" xlink:href="#dirArrow" transform="translate(30 24)" onmousedown="handlePan(0,-1)">
                  <use xlink:href="#rim" fill="#404040">
                        <set attributeName="fill" to="#808080" begin="arrowUp.mouseover" end="arrowUp.mouseout"/>
                  </use>
                  <path fill="none" stroke="white" stroke-width="1.5" d="M0,-3.0v7 M-2.5,-0.5L0,-3.0L2.5,-0.5"/>
                </g>
                <g id="arrowRight" xlink:href="#dirArrow" transform="rotate(90) translate(36 -43)" onmousedown="handlePan(1,0)">
                  <use xlink:href="#rim" fill="#404040">
                        <set attributeName="fill" to="#808080" begin="arrowRight.mouseover" end="arrowRight.mouseout"/>
                  </use>
                  <path fill="none" stroke="white" stroke-width="1.5" d="M0,-3.0v7 M-2.5,-0.5L0,-3.0L2.5,-0.5"/>
                </g>
                <g id="arrowDown" xlink:href="#dirArrow" transform="rotate(180) translate(-30 -48)" onmousedown="handlePan(0,1)">
                  <use xlink:href="#rim" fill="#404040">
                        <set attributeName="fill" to="#808080" begin="arrowDown.mouseover" end="arrowDown.mouseout"/>
                  </use>
                  <path fill="none" stroke="white" stroke-width="1.5" d="M0,-3.0v7 M-2.5,-0.5L0,-3.0L2.5,-0.5"/>
                </g>
                <g id="arrowLeft" xlink:href="#dirArrow" transform="rotate(270) translate(-36 17)" onmousedown="handlePan(-1,0)">
                  <use xlink:href="#rim" fill="#404040">
                        <set attributeName="fill" to="#808080" begin="arrowLeft.mouseover" end="arrowLeft.mouseout"/>
                  </use>
                  <path fill="none" stroke="white" stroke-width="1.5" d="M0,-3.0v7 M-2.5,-0.5L0,-3.0L2.5,-0.5"/>
                </g>
        </g>
        <svg viewBox="0 0 15 15" width="100%" height="30px" preserveAspectRatio="xMaxYMin meet">
         <g id="arrow_out" transform="scale(0.3 0.3)">
          <a xlink:href="cli__helper_8h__incl_org.svg" target="_base">
           <rect id="button" ry="5" rx="5" y="6" x="6" height="38" width="38"
                fill="#f2f5e9" fill-opacity="0.5" stroke="#606060" stroke-width="1.0"/>
           <path id="arrow"
             d="M 11.500037,31.436501 C 11.940474,20.09759 22.043105,11.32322 32.158766,21.979434 L 37.068811,17.246167 C 37.068811,17.246167 37.088388,32 37.088388,32 L 22.160133,31.978069 C 22.160133,31.978069 26.997745,27.140456 26.997745,27.140456 C 18.528582,18.264221 13.291696,25.230495 11.500037,31.436501 z"
             style="fill:#404040;"/>
          </a>
         </g>
        </svg>
</svg>
