<?xml version="1.0" encoding="UTF-8" standalone="no"?>
<!DOCTYPE svg PUBLIC "-//W3C//DTD SVG 1.1//EN"
 "http://www.w3.org/Graphics/SVG/1.1/DTD/svg11.dtd">
<!-- Generated by graphviz version 2.43.0 (0)
 -->
<!-- Title: Graphical Class Hierarchy Pages: 1 -->
<svg width="563pt" height="321pt"
 viewBox="0.00 0.00 563.00 320.50" xmlns="http://www.w3.org/2000/svg" xmlns:xlink="http://www.w3.org/1999/xlink">
<g id="graph0" class="graph" transform="scale(1 1) rotate(0) translate(4 316.5)">
<title>Graphical Class Hierarchy</title>
<polygon fill="white" stroke="transparent" points="-4,4 -4,-316.5 559,-316.5 559,4 -4,4"/>
<!-- Node0 -->
<g id="node1" class="node">
<title>Node0</title>
<g id="a_node1"><a xlink:title=" ">
<polygon fill="white" stroke="#bfbfbf" points="0,-205.5 0,-224.5 86,-224.5 86,-205.5 0,-205.5"/>
<text text-anchor="middle" x="43" y="-212.5" font-family="Helvetica,sans-Serif" font-size="10.00">std::exception</text>
</a>
</g>
</g>
<!-- Node1 -->
<g id="node2" class="node">
<title>Node1</title>
<g id="a_node2"><a xlink:href="classccf_1_1NodeToNode_1_1DroppedMessageException.html" target="_top" xlink:title=" ">
<polygon fill="white" stroke="black" points="122,-282 122,-312 267,-312 267,-282 122,-282"/>
<text text-anchor="start" x="130" y="-300" font-family="Helvetica,sans-Serif" font-size="10.00">ccf::NodeToNode::Dropped</text>
<text text-anchor="middle" x="194.5" y="-289" font-family="Helvetica,sans-Serif" font-size="10.00">MessageException</text>
</a>
</g>
</g>
<!-- Node0&#45;&gt;Node1 -->
<g id="edge1" class="edge">
<title>Node0&#45;&gt;Node1</title>
<path fill="none" stroke="midnightblue" d="M62.99,-231.36C78.17,-243.8 100.4,-260.65 122,-272 128.98,-275.67 136.62,-278.99 144.22,-281.93"/>
<polygon fill="midnightblue" stroke="midnightblue" points="64.85,-228.35 54.93,-224.62 60.36,-233.72 64.85,-228.35"/>
</g>
<!-- Node2 -->
<g id="node3" class="node">
<title>Node2</title>
<g id="a_node3"><a xlink:href="structccf_1_1RpcException.html" target="_top" xlink:title=" ">
<polygon fill="white" stroke="black" points="143.5,-243.5 143.5,-262.5 245.5,-262.5 245.5,-243.5 143.5,-243.5"/>
<text text-anchor="middle" x="194.5" y="-250.5" font-family="Helvetica,sans-Serif" font-size="10.00">ccf::RpcException</text>
</a>
</g>
</g>
<!-- Node0&#45;&gt;Node2 -->
<g id="edge2" class="edge">
<title>Node0&#45;&gt;Node2</title>
<path fill="none" stroke="midnightblue" d="M91.65,-227.11C112.47,-232.4 136.54,-238.52 156.05,-243.48"/>
<polygon fill="midnightblue" stroke="midnightblue" points="92.28,-223.66 81.73,-224.59 90.55,-230.44 92.28,-223.66"/>
</g>
<!-- Node3 -->
<g id="node4" class="node">
<title>Node3</title>
<g id="a_node4"><a xlink:href="classccf_1_1ccf__logic__error.html" target="_top" xlink:title=" ">
<polygon fill="white" stroke="black" points="141,-205.5 141,-224.5 248,-224.5 248,-205.5 141,-205.5"/>
<text text-anchor="middle" x="194.5" y="-212.5" font-family="Helvetica,sans-Serif" font-size="10.00">ccf::ccf_logic_error</text>
</a>
</g>
</g>
<!-- Node0&#45;&gt;Node3 -->
<g id="edge3" class="edge">
<title>Node0&#45;&gt;Node3</title>
<path fill="none" stroke="midnightblue" d="M96.3,-215C110.73,-215 126.39,-215 140.85,-215"/>
<polygon fill="midnightblue" stroke="midnightblue" points="96.04,-211.5 86.04,-215 96.04,-218.5 96.04,-211.5"/>
</g>
<!-- Node7 -->
<g id="node8" class="node">
<title>Node7</title>
<g id="a_node8"><a xlink:href="classkv_1_1KvSerialiserException.html" target="_top" xlink:title=" ">
<polygon fill="white" stroke="black" points="124.5,-167.5 124.5,-186.5 264.5,-186.5 264.5,-167.5 124.5,-167.5"/>
<text text-anchor="middle" x="194.5" y="-174.5" font-family="Helvetica,sans-Serif" font-size="10.00">kv::KvSerialiserException</text>
</a>
</g>
</g>
<!-- Node0&#45;&gt;Node7 -->
<g id="edge7" class="edge">
<title>Node0&#45;&gt;Node7</title>
<path fill="none" stroke="midnightblue" d="M91.65,-202.89C112.47,-197.6 136.54,-191.48 156.05,-186.52"/>
<polygon fill="midnightblue" stroke="midnightblue" points="90.55,-199.56 81.73,-205.41 92.28,-206.34 90.55,-199.56"/>
</g>
<!-- Node8 -->
<g id="node9" class="node">
<title>Node8</title>
<g id="a_node9"><a xlink:title=" ">
<polygon fill="white" stroke="#bfbfbf" points="150,-88.5 150,-107.5 239,-107.5 239,-88.5 150,-88.5"/>
<text text-anchor="middle" x="194.5" y="-95.5" font-family="Helvetica,sans-Serif" font-size="10.00">std::logic_error</text>
</a>
</g>
</g>
<!-- Node0&#45;&gt;Node8 -->
<g id="edge8" class="edge">
<title>Node0&#45;&gt;Node8</title>
<path fill="none" stroke="midnightblue" d="M64.31,-199.11C95.77,-174.49 155.32,-127.88 181.1,-107.71"/>
<polygon fill="midnightblue" stroke="midnightblue" points="61.95,-196.51 56.23,-205.43 66.27,-202.02 61.95,-196.51"/>
</g>
<!-- Node4 -->
<g id="node5" class="node">
<title>Node4</title>
<g id="a_node5"><a xlink:href="classccf_1_1ccf__oe__attester__init__error.html" target="_top" xlink:title=" ">
<polygon fill="white" stroke="black" points="312.5,-274 312.5,-304 423.5,-304 423.5,-274 312.5,-274"/>
<text text-anchor="start" x="320.5" y="-292" font-family="Helvetica,sans-Serif" font-size="10.00">ccf::ccf_oe_attester</text>
<text text-anchor="middle" x="368" y="-281" font-family="Helvetica,sans-Serif" font-size="10.00">_init_error</text>
</a>
</g>
</g>
<!-- Node3&#45;&gt;Node4 -->
<g id="edge4" class="edge">
<title>Node3&#45;&gt;Node4</title>
<path fill="none" stroke="midnightblue" d="M253.35,-227.92C258.07,-229.7 262.68,-231.72 267,-234 285.68,-243.85 284.83,-254.24 303,-265 308.62,-268.33 314.77,-271.33 320.98,-274"/>
<polygon fill="midnightblue" stroke="midnightblue" points="254.15,-224.49 243.56,-224.56 251.88,-231.11 254.15,-224.49"/>
</g>
<!-- Node5 -->
<g id="node6" class="node">
<title>Node5</title>
<g id="a_node6"><a xlink:href="classccf_1_1ccf__oe__verifier__init__error.html" target="_top" xlink:title=" ">
<polygon fill="white" stroke="black" points="314.5,-225 314.5,-255 421.5,-255 421.5,-225 314.5,-225"/>
<text text-anchor="start" x="322.5" y="-243" font-family="Helvetica,sans-Serif" font-size="10.00">ccf::ccf_oe_verifier</text>
<text text-anchor="middle" x="368" y="-232" font-family="Helvetica,sans-Serif" font-size="10.00">_init_error</text>
</a>
</g>
</g>
<!-- Node3&#45;&gt;Node5 -->
<g id="edge5" class="edge">
<title>Node3&#45;&gt;Node5</title>
<path fill="none" stroke="midnightblue" d="M258.38,-224.17C276.76,-226.85 296.65,-229.74 314.32,-232.32"/>
<polygon fill="midnightblue" stroke="midnightblue" points="258.76,-220.68 248.36,-222.7 257.75,-227.61 258.76,-220.68"/>
</g>
<!-- Node6 -->
<g id="node7" class="node">
<title>Node6</title>
<g id="a_node7"><a xlink:href="classccf_1_1ccf__openssl__rdrand__init__error.html" target="_top" xlink:title=" ">
<polygon fill="white" stroke="black" points="303,-176 303,-206 433,-206 433,-176 303,-176"/>
<text text-anchor="start" x="311" y="-194" font-family="Helvetica,sans-Serif" font-size="10.00">ccf::ccf_openssl_rdrand</text>
<text text-anchor="middle" x="368" y="-183" font-family="Helvetica,sans-Serif" font-size="10.00">_init_error</text>
</a>
</g>
</g>
<!-- Node3&#45;&gt;Node6 -->
<g id="edge6" class="edge">
<title>Node3&#45;&gt;Node6</title>
<path fill="none" stroke="midnightblue" d="M258.66,-206.16C273.07,-204.14 288.4,-202 302.85,-199.98"/>
<polygon fill="midnightblue" stroke="midnightblue" points="257.77,-202.75 248.36,-207.6 258.74,-209.68 257.77,-202.75"/>
</g>
<!-- Node9 -->
<g id="node10" class="node">
<title>Node9</title>
<g id="a_node10"><a xlink:href="classmessaging_1_1already__handled.html" target="_top" xlink:title=" ">
<polygon fill="white" stroke="black" points="311.5,-127 311.5,-157 424.5,-157 424.5,-127 311.5,-127"/>
<text text-anchor="start" x="319.5" y="-145" font-family="Helvetica,sans-Serif" font-size="10.00">messaging::already</text>
<text text-anchor="middle" x="368" y="-134" font-family="Helvetica,sans-Serif" font-size="10.00">_handled</text>
</a>
</g>
</g>
<!-- Node8&#45;&gt;Node9 -->
<g id="edge9" class="edge">
<title>Node8&#45;&gt;Node9</title>
<path fill="none" stroke="midnightblue" d="M242.49,-110.06C263.76,-115.51 289.06,-122 311.28,-127.7"/>
<polygon fill="midnightblue" stroke="midnightblue" points="243.27,-106.64 232.71,-107.55 241.53,-113.42 243.27,-106.64"/>
</g>
<!-- Node10 -->
<g id="node11" class="node">
<title>Node10</title>
<g id="a_node11"><a xlink:href="classmessaging_1_1no__handler.html" target="_top" xlink:title=" ">
<polygon fill="white" stroke="black" points="303,-88.5 303,-107.5 433,-107.5 433,-88.5 303,-88.5"/>
<text text-anchor="middle" x="368" y="-95.5" font-family="Helvetica,sans-Serif" font-size="10.00">messaging::no_handler</text>
</a>
</g>
</g>
<!-- Node8&#45;&gt;Node10 -->
<g id="edge10" class="edge">
<title>Node8&#45;&gt;Node10</title>
<path fill="none" stroke="midnightblue" d="M249.51,-98C266.47,-98 285.37,-98 302.96,-98"/>
<polygon fill="midnightblue" stroke="midnightblue" points="249.22,-94.5 239.22,-98 249.22,-101.5 249.22,-94.5"/>
</g>
<!-- Node11 -->
<g id="node12" class="node">
<title>Node11</title>
<g id="a_node12"><a xlink:href="classringbuffer_1_1message__error.html" target="_top" xlink:title=" ">
<polygon fill="white" stroke="black" points="311,-39 311,-69 425,-69 425,-39 311,-39"/>
<text text-anchor="start" x="319" y="-57" font-family="Helvetica,sans-Serif" font-size="10.00">ringbuffer::message</text>
<text text-anchor="middle" x="368" y="-46" font-family="Helvetica,sans-Serif" font-size="10.00">_error</text>
</a>
</g>
</g>
<!-- Node8&#45;&gt;Node11 -->
<g id="edge11" class="edge">
<title>Node8&#45;&gt;Node11</title>
<path fill="none" stroke="midnightblue" d="M242.44,-85.96C263.62,-80.52 288.79,-74.07 310.95,-68.38"/>
<polygon fill="midnightblue" stroke="midnightblue" points="241.53,-82.58 232.71,-88.45 243.27,-89.36 241.53,-82.58"/>
</g>
<!-- Node12 -->
<g id="node13" class="node">
<title>Node12</title>
<g id="a_node13"><a xlink:title=" ">
<polygon fill="white" stroke="#bfbfbf" points="306.5,-0.5 306.5,-19.5 429.5,-19.5 429.5,-0.5 306.5,-0.5"/>
<text text-anchor="middle" x="368" y="-7.5" font-family="Helvetica,sans-Serif" font-size="10.00">std::invalid_argument</text>
</a>
</g>
</g>
<!-- Node8&#45;&gt;Node12 -->
<g id="edge12" class="edge">
<title>Node8&#45;&gt;Node12</title>
<path fill="none" stroke="midnightblue" d="M215.86,-82.44C236.76,-67.07 270.72,-43.79 303,-29 311.01,-25.33 319.9,-22.17 328.45,-19.53"/>
<polygon fill="midnightblue" stroke="midnightblue" points="213.66,-79.71 207.74,-88.49 217.85,-85.32 213.66,-79.71"/>
</g>
<!-- Node13 -->
<g id="node14" class="node">
<title>Node13</title>
<g id="a_node14"><a xlink:href="classJsonParseError.html" target="_top" xlink:title=" ">
<polygon fill="white" stroke="black" points="469,-0.5 469,-19.5 555,-19.5 555,-0.5 469,-0.5"/>
<text text-anchor="middle" x="512" y="-7.5" font-family="Helvetica,sans-Serif" font-size="10.00">JsonParseError</text>
</a>
</g>
</g>
<!-- Node12&#45;&gt;Node13 -->
<g id="edge13" class="edge">
<title>Node12&#45;&gt;Node13</title>
<path fill="none" stroke="midnightblue" d="M439.84,-10C449.67,-10 459.5,-10 468.59,-10"/>
<polygon fill="midnightblue" stroke="midnightblue" points="439.63,-6.5 429.63,-10 439.63,-13.5 439.63,-6.5"/>
</g>
</g>
</svg>
