<?xml version="1.0" encoding="UTF-8" standalone="no"?>
<!DOCTYPE svg PUBLIC "-//W3C//DTD SVG 1.1//EN"
 "http://www.w3.org/Graphics/SVG/1.1/DTD/svg11.dtd">
<!-- Generated by graphviz version 2.43.0 (0)
 -->
<!-- Title: samples/apps/logging/logging_schema.h Pages: 1 -->
<!--zoomable 453 -->
<svg id="main" version="1.1" xmlns="http://www.w3.org/2000/svg" xmlns:xlink="http://www.w3.org/1999/xlink" xml:space="preserve" onload="init(evt)">
<style type="text/css"><![CDATA[
.edge:hover path { stroke: red; }
.edge:hover polygon { stroke: red; fill: red; }
]]></style>
<script type="text/javascript"><![CDATA[
var edges = document.getElementsByTagName('g');
if (edges && edges.length) {
  for (var i=0;i<edges.length;i++) {
    if (edges[i].id.substr(0,4)=='edge') {
      edges[i].setAttribute('class','edge');
    }
  }
}
]]></script>
        <defs>
                <circle id="rim" cx="0" cy="0" r="7"/>
                <circle id="rim2" cx="0" cy="0" r="3.5"/>
                <g id="zoomPlus">
                        <use xlink:href="#rim" fill="#404040">
                                <set attributeName="fill" to="#808080" begin="zoomplus.mouseover" end="zoomplus.mouseout"/>
                        </use>
                        <path d="M-4,0h8M0,-4v8" fill="none" stroke="white" stroke-width="1.5" pointer-events="none"/>
                </g>
                <g id="zoomMin">
                        <use xlink:href="#rim" fill="#404040">
                                <set attributeName="fill" to="#808080" begin="zoomminus.mouseover" end="zoomminus.mouseout"/>
                        </use>
                        <path d="M-4,0h8" fill="none" stroke="white" stroke-width="1.5" pointer-events="none"/>
                </g>
                <g id="dirArrow">
                        <path fill="none" stroke="white" stroke-width="1.5" d="M0,-3.0v7 M-2.5,-0.5L0,-3.0L2.5,-0.5"/>
                </g>
               <g id="resetDef">
                       <use xlink:href="#rim2" fill="#404040">
                               <set attributeName="fill" to="#808080" begin="reset.mouseover" end="reset.mouseout"/>
                       </use>
               </g>
        </defs>

<script type="text/javascript">
var viewWidth = 1260;
var viewHeight = 453;
var sectionId = 'dynsection-0';
</script>
<script xlink:href="svgpan.js"/>
<svg id="graph" class="graph">
<g id="viewport">
<title>samples/apps/logging/logging_schema.h</title>
<polygon fill="white" stroke="transparent" points="-4,4 -4,-449 1255.8,-449 1255.8,4 -4,4"/>
<!-- Node1 -->
<g id="node1" class="node">
<title>Node1</title>
<g id="a_node1"><a xlink:title=" ">
<polygon fill="#bfbfbf" stroke="black" points="405.34,-414.5 405.34,-444.5 528.34,-444.5 528.34,-414.5 405.34,-414.5"/>
<text text-anchor="start" x="413.34" y="-432.5" font-family="Helvetica,sans-Serif" font-size="10.00">samples/apps/logging</text>
<text text-anchor="middle" x="466.84" y="-421.5" font-family="Helvetica,sans-Serif" font-size="10.00">/logging_schema.h</text>
</a>
</g>
</g>
<!-- Node2 -->
<g id="node2" class="node">
<title>Node2</title>
<g id="a_node2"><a xlink:href="json_8h.html" target="_top" xlink:title=" ">
<polygon fill="white" stroke="black" points="433.34,-174 433.34,-193 510.34,-193 510.34,-174 433.34,-174"/>
<text text-anchor="middle" x="471.84" y="-181" font-family="Helvetica,sans-Serif" font-size="10.00">ccf/ds/json.h</text>
</a>
</g>
</g>
<!-- Node1&#45;&gt;Node2 -->
<g id="edge1" class="edge">
<title>Node1&#45;&gt;Node2</title>
<path fill="none" stroke="midnightblue" d="M461.74,-414.13C458.47,-404.14 454.53,-390.44 452.84,-378 444.13,-313.99 459.06,-237.55 467.16,-203.03"/>
<polygon fill="midnightblue" stroke="midnightblue" points="470.63,-203.56 469.59,-193.01 463.83,-201.9 470.63,-203.56"/>
</g>
<!-- Node16 -->
<g id="node16" class="node">
<title>Node16</title>
<g id="a_node16"><a xlink:href="include_2ccf_2receipt_8h.html" target="_top" xlink:title=" ">
<polygon fill="white" stroke="black" points="462.34,-358.5 462.34,-377.5 539.34,-377.5 539.34,-358.5 462.34,-358.5"/>
<text text-anchor="middle" x="500.84" y="-365.5" font-family="Helvetica,sans-Serif" font-size="10.00">ccf/receipt.h</text>
</a>
</g>
</g>
<!-- Node1&#45;&gt;Node16 -->
<g id="edge18" class="edge">
<title>Node1&#45;&gt;Node16</title>
<path fill="none" stroke="midnightblue" d="M474.9,-414.4C479.69,-406.02 485.8,-395.33 490.89,-386.42"/>
<polygon fill="midnightblue" stroke="midnightblue" points="493.97,-388.08 495.9,-377.66 487.89,-384.6 493.97,-388.08"/>
</g>
<!-- Node3 -->
<g id="node3" class="node">
<title>Node3</title>
<g id="a_node3"><a xlink:href="include_2ccf_2crypto_2base64_8h.html" target="_top" xlink:title=" ">
<polygon fill="white" stroke="black" points="626.84,-56.5 626.84,-75.5 738.84,-75.5 738.84,-56.5 626.84,-56.5"/>
<text text-anchor="middle" x="682.84" y="-63.5" font-family="Helvetica,sans-Serif" font-size="10.00">ccf/crypto/base64.h</text>
</a>
</g>
</g>
<!-- Node2&#45;&gt;Node3 -->
<g id="edge2" class="edge">
<title>Node2&#45;&gt;Node3</title>
<path fill="none" stroke="midnightblue" d="M500.87,-173.99C508.62,-171.87 517.02,-169.72 524.84,-168 572.15,-157.59 708.54,-168.97 739.84,-132 755.03,-114.06 730.3,-93.74 708.81,-80.67"/>
<polygon fill="midnightblue" stroke="midnightblue" points="710.33,-77.51 699.92,-75.54 706.83,-83.57 710.33,-77.51"/>
</g>
<!-- Node6 -->
<g id="node6" class="node">
<title>Node6</title>
<g id="a_node6"><a xlink:href="include_2ccf_2ds_2json__schema_8h.html" target="_top" xlink:title=" ">
<polygon fill="white" stroke="black" points="610.34,-112.5 610.34,-131.5 731.34,-131.5 731.34,-112.5 610.34,-112.5"/>
<text text-anchor="middle" x="670.84" y="-119.5" font-family="Helvetica,sans-Serif" font-size="10.00">ccf/ds/json_schema.h</text>
</a>
</g>
</g>
<!-- Node2&#45;&gt;Node6 -->
<g id="edge5" class="edge">
<title>Node2&#45;&gt;Node6</title>
<path fill="none" stroke="midnightblue" d="M500.35,-173.98C535.08,-163.59 593.88,-146.01 632.53,-134.45"/>
<polygon fill="midnightblue" stroke="midnightblue" points="633.81,-137.73 642.38,-131.51 631.8,-131.02 633.81,-137.73"/>
</g>
<!-- Node13 -->
<g id="node13" class="node">
<title>Node13</title>
<g id="a_node13"><a xlink:title=" ">
<polygon fill="white" stroke="#bfbfbf" points="530.34,-56.5 530.34,-75.5 609.34,-75.5 609.34,-56.5 530.34,-56.5"/>
<text text-anchor="middle" x="569.84" y="-63.5" font-family="Helvetica,sans-Serif" font-size="10.00">fmt/format.h</text>
</a>
</g>
</g>
<!-- Node2&#45;&gt;Node13 -->
<g id="edge16" class="edge">
<title>Node2&#45;&gt;Node13</title>
<path fill="none" stroke="midnightblue" d="M479.21,-173.82C495.45,-154.67 534.59,-108.54 555.73,-83.63"/>
<polygon fill="midnightblue" stroke="midnightblue" points="558.59,-85.67 562.39,-75.78 553.25,-81.14 558.59,-85.67"/>
</g>
<!-- Node15 -->
<g id="node15" class="node">
<title>Node15</title>
<g id="a_node15"><a xlink:title=" ">
<polygon fill="white" stroke="#bfbfbf" points="421.84,-112.5 421.84,-131.5 477.84,-131.5 477.84,-112.5 421.84,-112.5"/>
<text text-anchor="middle" x="449.84" y="-119.5" font-family="Helvetica,sans-Serif" font-size="10.00">sstream</text>
</a>
</g>
</g>
<!-- Node2&#45;&gt;Node15 -->
<g id="edge17" class="edge">
<title>Node2&#45;&gt;Node15</title>
<path fill="none" stroke="midnightblue" d="M468.69,-173.98C465.52,-165.4 460.54,-151.93 456.49,-140.98"/>
<polygon fill="midnightblue" stroke="midnightblue" points="459.74,-139.67 452.99,-131.51 453.17,-142.1 459.74,-139.67"/>
</g>
<!-- Node4 -->
<g id="node4" class="node">
<title>Node4</title>
<g id="a_node4"><a xlink:title=" ">
<polygon fill="white" stroke="#bfbfbf" points="872.84,-0.5 872.84,-19.5 916.84,-19.5 916.84,-0.5 872.84,-0.5"/>
<text text-anchor="middle" x="894.84" y="-7.5" font-family="Helvetica,sans-Serif" font-size="10.00">string</text>
</a>
</g>
</g>
<!-- Node3&#45;&gt;Node4 -->
<g id="edge3" class="edge">
<title>Node3&#45;&gt;Node4</title>
<path fill="none" stroke="midnightblue" d="M716.43,-56.44C756.63,-46.21 823.42,-29.19 862.88,-19.14"/>
<polygon fill="midnightblue" stroke="midnightblue" points="863.94,-22.48 872.76,-16.62 862.21,-15.7 863.94,-22.48"/>
</g>
<!-- Node5 -->
<g id="node5" class="node">
<title>Node5</title>
<g id="a_node5"><a xlink:title=" ">
<polygon fill="white" stroke="#bfbfbf" points="645.34,-0.5 645.34,-19.5 692.34,-19.5 692.34,-0.5 645.34,-0.5"/>
<text text-anchor="middle" x="668.84" y="-7.5" font-family="Helvetica,sans-Serif" font-size="10.00">vector</text>
</a>
</g>
</g>
<!-- Node3&#45;&gt;Node5 -->
<g id="edge4" class="edge">
<title>Node3&#45;&gt;Node5</title>
<path fill="none" stroke="midnightblue" d="M680.53,-56.08C678.68,-48.93 676.01,-38.64 673.69,-29.69"/>
<polygon fill="midnightblue" stroke="midnightblue" points="677.01,-28.55 671.11,-19.75 670.23,-30.31 677.01,-28.55"/>
</g>
<!-- Node7 -->
<g id="node7" class="node">
<title>Node7</title>
<g id="a_node7"><a xlink:href="nonstd_8h.html" target="_top" xlink:title=" ">
<polygon fill="white" stroke="black" points="383.84,-56.5 383.84,-75.5 473.84,-75.5 473.84,-56.5 383.84,-56.5"/>
<text text-anchor="middle" x="428.84" y="-63.5" font-family="Helvetica,sans-Serif" font-size="10.00">ccf/ds/nonstd.h</text>
</a>
</g>
</g>
<!-- Node6&#45;&gt;Node7 -->
<g id="edge6" class="edge">
<title>Node6&#45;&gt;Node7</title>
<path fill="none" stroke="midnightblue" d="M632.5,-112.44C590.37,-103.04 522.64,-87.93 476.97,-77.74"/>
<polygon fill="midnightblue" stroke="midnightblue" points="477.53,-74.28 467.01,-75.52 476.01,-81.11 477.53,-74.28"/>
</g>
<!-- Node6&#45;&gt;Node13 -->
<g id="edge14" class="edge">
<title>Node6&#45;&gt;Node13</title>
<path fill="none" stroke="midnightblue" d="M654.62,-112.32C638.49,-103.7 613.54,-90.36 594.88,-80.39"/>
<polygon fill="midnightblue" stroke="midnightblue" points="596.5,-77.28 586.03,-75.65 593.2,-83.46 596.5,-77.28"/>
</g>
<!-- Node14 -->
<g id="node14" class="node">
<title>Node14</title>
<g id="a_node14"><a xlink:title=" ">
<polygon fill="white" stroke="#bfbfbf" points="756.84,-56.5 756.84,-75.5 866.84,-75.5 866.84,-56.5 756.84,-56.5"/>
<text text-anchor="middle" x="811.84" y="-63.5" font-family="Helvetica,sans-Serif" font-size="10.00">nlohmann/json.hpp</text>
</a>
</g>
</g>
<!-- Node6&#45;&gt;Node14 -->
<g id="edge15" class="edge">
<title>Node6&#45;&gt;Node14</title>
<path fill="none" stroke="midnightblue" d="M693.18,-112.44C716.6,-103.48 753.58,-89.31 780.03,-79.18"/>
<polygon fill="midnightblue" stroke="midnightblue" points="781.52,-82.36 789.61,-75.52 779.01,-75.82 781.52,-82.36"/>
</g>
<!-- Node7&#45;&gt;Node4 -->
<g id="edge10" class="edge">
<title>Node7&#45;&gt;Node4</title>
<path fill="none" stroke="midnightblue" d="M473.95,-59.77C567.51,-48.93 780.75,-24.22 862.3,-14.77"/>
<polygon fill="midnightblue" stroke="midnightblue" points="862.94,-18.22 872.47,-13.59 862.13,-11.27 862.94,-18.22"/>
</g>
<!-- Node7&#45;&gt;Node5 -->
<g id="edge13" class="edge">
<title>Node7&#45;&gt;Node5</title>
<path fill="none" stroke="midnightblue" d="M466.87,-56.44C513.25,-46.01 590.91,-28.53 635.2,-18.57"/>
<polygon fill="midnightblue" stroke="midnightblue" points="636.19,-21.93 645.18,-16.32 634.65,-15.11 636.19,-21.93"/>
</g>
<!-- Node8 -->
<g id="node8" class="node">
<title>Node8</title>
<g id="a_node8"><a xlink:title=" ">
<polygon fill="white" stroke="#bfbfbf" points="394.84,-0.5 394.84,-19.5 458.84,-19.5 458.84,-0.5 394.84,-0.5"/>
<text text-anchor="middle" x="426.84" y="-7.5" font-family="Helvetica,sans-Serif" font-size="10.00">algorithm</text>
</a>
</g>
</g>
<!-- Node7&#45;&gt;Node8 -->
<g id="edge7" class="edge">
<title>Node7&#45;&gt;Node8</title>
<path fill="none" stroke="midnightblue" d="M428.51,-56.08C428.25,-49.01 427.87,-38.86 427.55,-29.99"/>
<polygon fill="midnightblue" stroke="midnightblue" points="431.03,-29.61 427.17,-19.75 424.04,-29.87 431.03,-29.61"/>
</g>
<!-- Node9 -->
<g id="node9" class="node">
<title>Node9</title>
<g id="a_node9"><a xlink:title=" ">
<polygon fill="white" stroke="#bfbfbf" points="334.84,-0.5 334.84,-19.5 376.84,-19.5 376.84,-0.5 334.84,-0.5"/>
<text text-anchor="middle" x="355.84" y="-7.5" font-family="Helvetica,sans-Serif" font-size="10.00">array</text>
</a>
</g>
</g>
<!-- Node7&#45;&gt;Node9 -->
<g id="edge8" class="edge">
<title>Node7&#45;&gt;Node9</title>
<path fill="none" stroke="midnightblue" d="M417.11,-56.32C406.01,-48.11 389.1,-35.6 375.86,-25.81"/>
<polygon fill="midnightblue" stroke="midnightblue" points="377.91,-22.97 367.78,-19.83 373.74,-28.59 377.91,-22.97"/>
</g>
<!-- Node10 -->
<g id="node10" class="node">
<title>Node10</title>
<g id="a_node10"><a xlink:title=" ">
<polygon fill="white" stroke="#bfbfbf" points="477.34,-0.5 477.34,-19.5 526.34,-19.5 526.34,-0.5 477.34,-0.5"/>
<text text-anchor="middle" x="501.84" y="-7.5" font-family="Helvetica,sans-Serif" font-size="10.00">cctype</text>
</a>
</g>
</g>
<!-- Node7&#45;&gt;Node10 -->
<g id="edge9" class="edge">
<title>Node7&#45;&gt;Node10</title>
<path fill="none" stroke="midnightblue" d="M440.57,-56.32C451.68,-48.11 468.58,-35.6 481.83,-25.81"/>
<polygon fill="midnightblue" stroke="midnightblue" points="483.94,-28.59 489.9,-19.83 479.78,-22.97 483.94,-28.59"/>
</g>
<!-- Node11 -->
<g id="node11" class="node">
<title>Node11</title>
<g id="a_node11"><a xlink:title=" ">
<polygon fill="white" stroke="#bfbfbf" points="100.34,-0.5 100.34,-19.5 173.34,-19.5 173.34,-0.5 100.34,-0.5"/>
<text text-anchor="middle" x="136.84" y="-7.5" font-family="Helvetica,sans-Serif" font-size="10.00">string_view</text>
</a>
</g>
</g>
<!-- Node7&#45;&gt;Node11 -->
<g id="edge11" class="edge">
<title>Node7&#45;&gt;Node11</title>
<path fill="none" stroke="midnightblue" d="M383.54,-56.62C329.21,-46.57 238.62,-29.82 183.64,-19.65"/>
<polygon fill="midnightblue" stroke="midnightblue" points="183.94,-16.15 173.47,-17.77 182.67,-23.03 183.94,-16.15"/>
</g>
<!-- Node12 -->
<g id="node12" class="node">
<title>Node12</title>
<g id="a_node12"><a xlink:title=" ">
<polygon fill="white" stroke="#bfbfbf" points="544.34,-0.5 544.34,-19.5 613.34,-19.5 613.34,-0.5 544.34,-0.5"/>
<text text-anchor="middle" x="578.84" y="-7.5" font-family="Helvetica,sans-Serif" font-size="10.00">type_traits</text>
</a>
</g>
</g>
<!-- Node7&#45;&gt;Node12 -->
<g id="edge12" class="edge">
<title>Node7&#45;&gt;Node12</title>
<path fill="none" stroke="midnightblue" d="M452.61,-56.44C477.74,-47.4 517.55,-33.06 545.74,-22.92"/>
<polygon fill="midnightblue" stroke="midnightblue" points="546.96,-26.2 555.19,-19.52 544.59,-19.61 546.96,-26.2"/>
</g>
<!-- Node16&#45;&gt;Node2 -->
<g id="edge34" class="edge">
<title>Node16&#45;&gt;Node2</title>
<path fill="none" stroke="midnightblue" d="M498.72,-358.42C496.53,-349.39 493.14,-334.76 490.84,-322 483.26,-279.85 477.05,-229.96 473.96,-203.39"/>
<polygon fill="midnightblue" stroke="midnightblue" points="477.41,-202.76 472.8,-193.23 470.46,-203.56 477.41,-202.76"/>
</g>
<!-- Node16&#45;&gt;Node4 -->
<g id="edge58" class="edge">
<title>Node16&#45;&gt;Node4</title>
<path fill="none" stroke="midnightblue" d="M539.59,-365.17C693.17,-357.4 1250.84,-324.21 1250.84,-251.5 1250.84,-251.5 1250.84,-251.5 1250.84,-121 1250.84,-90.9 1254.68,-75.61 1231.84,-56 1186.6,-17.15 1002.83,-11.59 927.39,-10.98"/>
<polygon fill="midnightblue" stroke="midnightblue" points="927.1,-7.48 917.08,-10.92 927.06,-14.48 927.1,-7.48"/>
</g>
<!-- Node17 -->
<g id="node17" class="node">
<title>Node17</title>
<g id="a_node17"><a xlink:href="claims__digest_8h.html" target="_top" xlink:title=" ">
<polygon fill="white" stroke="black" points="295.84,-302.5 295.84,-321.5 405.84,-321.5 405.84,-302.5 295.84,-302.5"/>
<text text-anchor="middle" x="350.84" y="-309.5" font-family="Helvetica,sans-Serif" font-size="10.00">ccf/claims_digest.h</text>
</a>
</g>
</g>
<!-- Node16&#45;&gt;Node17 -->
<g id="edge19" class="edge">
<title>Node16&#45;&gt;Node17</title>
<path fill="none" stroke="midnightblue" d="M477.07,-358.44C451.95,-349.4 412.13,-335.06 383.94,-324.92"/>
<polygon fill="midnightblue" stroke="midnightblue" points="385.09,-321.61 374.5,-321.52 382.72,-328.2 385.09,-321.61"/>
</g>
<!-- Node18 -->
<g id="node18" class="node">
<title>Node18</title>
<g id="a_node18"><a xlink:href="sha256__hash_8h.html" target="_top" xlink:title=" ">
<polygon fill="white" stroke="black" points="265.84,-241 265.84,-260 405.84,-260 405.84,-241 265.84,-241"/>
<text text-anchor="middle" x="335.84" y="-248" font-family="Helvetica,sans-Serif" font-size="10.00">ccf/crypto/sha256_hash.h</text>
</a>
</g>
</g>
<!-- Node16&#45;&gt;Node18 -->
<g id="edge33" class="edge">
<title>Node16&#45;&gt;Node18</title>
<path fill="none" stroke="midnightblue" d="M462.08,-364.55C406.51,-360.13 308.49,-348.68 286.84,-322 271.79,-303.45 294.79,-280.49 314.1,-265.92"/>
<polygon fill="midnightblue" stroke="midnightblue" points="316.21,-268.71 322.29,-260.04 312.13,-263.02 316.21,-268.71"/>
</g>
<!-- Node20 -->
<g id="node20" class="node">
<title>Node20</title>
<g id="a_node20"><a xlink:href="pem_8h.html" target="_top" xlink:title=" ">
<polygon fill="white" stroke="black" points="149.84,-241 149.84,-260 247.84,-260 247.84,-241 149.84,-241"/>
<text text-anchor="middle" x="198.84" y="-248" font-family="Helvetica,sans-Serif" font-size="10.00">ccf/crypto/pem.h</text>
</a>
</g>
</g>
<!-- Node16&#45;&gt;Node20 -->
<g id="edge25" class="edge">
<title>Node16&#45;&gt;Node20</title>
<path fill="none" stroke="midnightblue" d="M461.97,-365.19C416.04,-361.71 338.36,-351.57 278.84,-322 252.02,-308.67 227.15,-284.03 212.47,-267.7"/>
<polygon fill="midnightblue" stroke="midnightblue" points="214.98,-265.25 205.77,-260.02 209.71,-269.86 214.98,-265.25"/>
</g>
<!-- Node24 -->
<g id="node24" class="node">
<title>Node24</title>
<g id="a_node24"><a xlink:href="openapi_8h.html" target="_top" xlink:title=" ">
<polygon fill="white" stroke="black" points="778.84,-241 778.84,-260 874.84,-260 874.84,-241 778.84,-241"/>
<text text-anchor="middle" x="826.84" y="-248" font-family="Helvetica,sans-Serif" font-size="10.00">ccf/ds/openapi.h</text>
</a>
</g>
</g>
<!-- Node16&#45;&gt;Node24 -->
<g id="edge35" class="edge">
<title>Node16&#45;&gt;Node24</title>
<path fill="none" stroke="midnightblue" d="M519.32,-358.41C538.34,-349.5 568.81,-335.07 594.84,-322 611.9,-313.43 615.05,-308.89 632.84,-302 678.67,-284.25 732.97,-270.72 772.45,-262.15"/>
<polygon fill="midnightblue" stroke="midnightblue" points="773.35,-265.53 782.4,-260.02 771.89,-258.69 773.35,-265.53"/>
</g>
<!-- Node29 -->
<g id="node29" class="node">
<title>Node29</title>
<g id="a_node29"><a xlink:href="entity__id_8h.html" target="_top" xlink:title=" ">
<polygon fill="white" stroke="black" points="499.84,-302.5 499.84,-321.5 585.84,-321.5 585.84,-302.5 499.84,-302.5"/>
<text text-anchor="middle" x="542.84" y="-309.5" font-family="Helvetica,sans-Serif" font-size="10.00">ccf/entity_id.h</text>
</a>
</g>
</g>
<!-- Node16&#45;&gt;Node29 -->
<g id="edge44" class="edge">
<title>Node16&#45;&gt;Node29</title>
<path fill="none" stroke="midnightblue" d="M507.78,-358.08C513.77,-350.38 522.59,-339.03 529.89,-329.65"/>
<polygon fill="midnightblue" stroke="midnightblue" points="532.66,-331.79 536.04,-321.75 527.13,-327.5 532.66,-331.79"/>
</g>
<!-- Node37 -->
<g id="node37" class="node">
<title>Node37</title>
<g id="a_node37"><a xlink:title=" ">
<polygon fill="white" stroke="#bfbfbf" points="641.84,-302.5 641.84,-321.5 697.84,-321.5 697.84,-302.5 641.84,-302.5"/>
<text text-anchor="middle" x="669.84" y="-309.5" font-family="Helvetica,sans-Serif" font-size="10.00">optional</text>
</a>
</g>
</g>
<!-- Node16&#45;&gt;Node37 -->
<g id="edge57" class="edge">
<title>Node16&#45;&gt;Node37</title>
<path fill="none" stroke="midnightblue" d="M527.62,-358.44C556.18,-349.32 601.58,-334.81 633.38,-324.65"/>
<polygon fill="midnightblue" stroke="midnightblue" points="634.73,-327.89 643.19,-321.52 632.6,-321.23 634.73,-327.89"/>
</g>
<!-- Node17&#45;&gt;Node18 -->
<g id="edge20" class="edge">
<title>Node17&#45;&gt;Node18</title>
<path fill="none" stroke="midnightblue" d="M348.69,-302.48C346.55,-293.99 343.2,-280.7 340.46,-269.82"/>
<polygon fill="midnightblue" stroke="midnightblue" points="343.83,-268.85 337.99,-260.01 337.04,-270.56 343.83,-268.85"/>
</g>
<!-- Node18&#45;&gt;Node2 -->
<g id="edge21" class="edge">
<title>Node18&#45;&gt;Node2</title>
<path fill="none" stroke="midnightblue" d="M353.9,-240.87C377.07,-229.8 417.47,-210.49 444.44,-197.6"/>
<polygon fill="midnightblue" stroke="midnightblue" points="446.19,-200.64 453.71,-193.17 443.18,-194.32 446.19,-200.64"/>
</g>
<!-- Node18&#45;&gt;Node9 -->
<g id="edge22" class="edge">
<title>Node18&#45;&gt;Node9</title>
<path fill="none" stroke="midnightblue" d="M336.58,-240.73C339.49,-206.03 350.23,-77.89 354.28,-29.59"/>
<polygon fill="midnightblue" stroke="midnightblue" points="357.77,-29.86 355.12,-19.6 350.8,-29.27 357.77,-29.86"/>
</g>
<!-- Node18&#45;&gt;Node13 -->
<g id="edge24" class="edge">
<title>Node18&#45;&gt;Node13</title>
<path fill="none" stroke="midnightblue" d="M342.23,-240.79C349.35,-230.9 361.04,-214.18 369.84,-199 391.49,-161.69 379.73,-139.64 412.84,-112 429.21,-98.34 480.54,-85.2 520.1,-76.68"/>
<polygon fill="midnightblue" stroke="midnightblue" points="521.07,-80.05 530.13,-74.56 519.63,-73.2 521.07,-80.05"/>
</g>
<!-- Node19 -->
<g id="node19" class="node">
<title>Node19</title>
<g id="a_node19"><a xlink:title=" ">
<polygon fill="white" stroke="#bfbfbf" points="287.84,-174 287.84,-193 327.84,-193 327.84,-174 287.84,-174"/>
<text text-anchor="middle" x="307.84" y="-181" font-family="Helvetica,sans-Serif" font-size="10.00">span</text>
</a>
</g>
</g>
<!-- Node18&#45;&gt;Node19 -->
<g id="edge23" class="edge">
<title>Node18&#45;&gt;Node19</title>
<path fill="none" stroke="midnightblue" d="M332.07,-240.73C327.87,-230.99 320.97,-214.98 315.61,-202.53"/>
<polygon fill="midnightblue" stroke="midnightblue" points="318.73,-200.93 311.56,-193.13 312.3,-203.7 318.73,-200.93"/>
</g>
<!-- Node20&#45;&gt;Node2 -->
<g id="edge26" class="edge">
<title>Node20&#45;&gt;Node2</title>
<path fill="none" stroke="midnightblue" d="M232.56,-240.98C240.52,-239 248.97,-236.91 256.84,-235 314.75,-220.96 381.57,-205.36 425.16,-195.26"/>
<polygon fill="midnightblue" stroke="midnightblue" points="425.95,-198.67 434.9,-193.01 424.37,-191.85 425.95,-198.67"/>
</g>
<!-- Node20&#45;&gt;Node5 -->
<g id="edge32" class="edge">
<title>Node20&#45;&gt;Node5</title>
<path fill="none" stroke="midnightblue" d="M205.56,-240.96C218.43,-225.02 248.02,-190.35 278.84,-168 359.36,-109.61 392.46,-117.52 482.84,-76 500.19,-68.03 503.19,-63.25 520.84,-56 559.06,-40.3 604.8,-27.21 635.22,-19.28"/>
<polygon fill="midnightblue" stroke="midnightblue" points="636.48,-22.56 645.3,-16.69 634.74,-15.78 636.48,-22.56"/>
</g>
<!-- Node20&#45;&gt;Node11 -->
<g id="edge31" class="edge">
<title>Node20&#45;&gt;Node11</title>
<path fill="none" stroke="midnightblue" d="M149.59,-242.92C100.28,-235.21 29.41,-220.66 12.84,-199 -34.68,-136.85 67.85,-56.99 114.89,-25.09"/>
<polygon fill="midnightblue" stroke="midnightblue" points="116.85,-27.98 123.24,-19.53 112.98,-22.16 116.85,-27.98"/>
</g>
<!-- Node20&#45;&gt;Node19 -->
<g id="edge30" class="edge">
<title>Node20&#45;&gt;Node19</title>
<path fill="none" stroke="midnightblue" d="M213.54,-240.73C231.77,-229.87 263.04,-211.22 284.54,-198.39"/>
<polygon fill="midnightblue" stroke="midnightblue" points="286.58,-201.26 293.38,-193.13 282.99,-195.24 286.58,-201.26"/>
</g>
<!-- Node21 -->
<g id="node21" class="node">
<title>Node21</title>
<g id="a_node21"><a xlink:title=" ">
<polygon fill="white" stroke="#bfbfbf" points="97.84,-174 97.84,-193 147.84,-193 147.84,-174 97.84,-174"/>
<text text-anchor="middle" x="122.84" y="-181" font-family="Helvetica,sans-Serif" font-size="10.00">cstring</text>
</a>
</g>
</g>
<!-- Node20&#45;&gt;Node21 -->
<g id="edge27" class="edge">
<title>Node20&#45;&gt;Node21</title>
<path fill="none" stroke="midnightblue" d="M188.59,-240.73C176.4,-230.31 155.83,-212.71 140.93,-199.97"/>
<polygon fill="midnightblue" stroke="midnightblue" points="142.8,-196.97 132.93,-193.13 138.25,-202.29 142.8,-196.97"/>
</g>
<!-- Node22 -->
<g id="node22" class="node">
<title>Node22</title>
<g id="a_node22"><a xlink:title=" ">
<polygon fill="white" stroke="#bfbfbf" points="166.34,-174 166.34,-193 231.34,-193 231.34,-174 166.34,-174"/>
<text text-anchor="middle" x="198.84" y="-181" font-family="Helvetica,sans-Serif" font-size="10.00">exception</text>
</a>
</g>
</g>
<!-- Node20&#45;&gt;Node22 -->
<g id="edge28" class="edge">
<title>Node20&#45;&gt;Node22</title>
<path fill="none" stroke="midnightblue" d="M198.84,-240.73C198.84,-231.18 198.84,-215.62 198.84,-203.28"/>
<polygon fill="midnightblue" stroke="midnightblue" points="202.34,-203.13 198.84,-193.13 195.34,-203.13 202.34,-203.13"/>
</g>
<!-- Node23 -->
<g id="node23" class="node">
<title>Node23</title>
<g id="a_node23"><a xlink:title=" ">
<polygon fill="white" stroke="#bfbfbf" points="21.84,-174 21.84,-193 79.84,-193 79.84,-174 21.84,-174"/>
<text text-anchor="middle" x="50.84" y="-181" font-family="Helvetica,sans-Serif" font-size="10.00">memory</text>
</a>
</g>
</g>
<!-- Node20&#45;&gt;Node23 -->
<g id="edge29" class="edge">
<title>Node20&#45;&gt;Node23</title>
<path fill="none" stroke="midnightblue" d="M179.19,-240.87C153.76,-229.7 109.24,-210.15 79.9,-197.26"/>
<polygon fill="midnightblue" stroke="midnightblue" points="81.14,-193.98 70.58,-193.17 78.33,-200.39 81.14,-193.98"/>
</g>
<!-- Node24&#45;&gt;Node2 -->
<g id="edge36" class="edge">
<title>Node24&#45;&gt;Node2</title>
<path fill="none" stroke="midnightblue" d="M780.07,-240.94C712.73,-228.61 589.08,-205.97 520.64,-193.43"/>
<polygon fill="midnightblue" stroke="midnightblue" points="521.01,-189.95 510.55,-191.59 519.75,-196.83 521.01,-189.95"/>
</g>
<!-- Node24&#45;&gt;Node4 -->
<g id="edge43" class="edge">
<title>Node24&#45;&gt;Node4</title>
<path fill="none" stroke="midnightblue" d="M875,-250.25C964.16,-250.48 1149.58,-245.25 1189.84,-199 1246.47,-133.95 1210.27,-130.07 1079.84,-56 1031.11,-28.32 965.77,-17.57 927.21,-13.46"/>
<polygon fill="midnightblue" stroke="midnightblue" points="927.37,-9.96 917.08,-12.47 926.69,-16.93 927.37,-9.96"/>
</g>
<!-- Node24&#45;&gt;Node7 -->
<g id="edge37" class="edge">
<title>Node24&#45;&gt;Node7</title>
<path fill="none" stroke="midnightblue" d="M788.65,-240.92C753.77,-232.43 701.19,-217.96 657.84,-199 588.29,-168.57 576.8,-149.6 510.84,-112 491.86,-101.18 470.17,-89.3 453.87,-80.46"/>
<polygon fill="midnightblue" stroke="midnightblue" points="455.42,-77.32 444.95,-75.64 452.09,-83.48 455.42,-77.32"/>
</g>
<!-- Node24&#45;&gt;Node14 -->
<g id="edge41" class="edge">
<title>Node24&#45;&gt;Node14</title>
<path fill="none" stroke="midnightblue" d="M778.66,-248.02C742.8,-244.08 696.03,-232.32 671.84,-199 626.62,-136.7 748.2,-138.36 756.84,-132 774.81,-118.77 790.71,-98.55 800.73,-84.17"/>
<polygon fill="midnightblue" stroke="midnightblue" points="803.75,-85.96 806.44,-75.71 797.95,-82.05 803.75,-85.96"/>
</g>
<!-- Node25 -->
<g id="node25" class="node">
<title>Node25</title>
<g id="a_node25"><a xlink:href="http__consts_8h.html" target="_top" xlink:title=" ">
<polygon fill="white" stroke="black" points="867.34,-174 867.34,-193 966.34,-193 966.34,-174 867.34,-174"/>
<text text-anchor="middle" x="916.84" y="-181" font-family="Helvetica,sans-Serif" font-size="10.00">ccf/http_consts.h</text>
</a>
</g>
</g>
<!-- Node24&#45;&gt;Node25 -->
<g id="edge38" class="edge">
<title>Node24&#45;&gt;Node25</title>
<path fill="none" stroke="midnightblue" d="M838.98,-240.73C853.69,-230.11 878.7,-212.05 896.4,-199.26"/>
<polygon fill="midnightblue" stroke="midnightblue" points="898.84,-201.82 904.9,-193.13 894.74,-196.14 898.84,-201.82"/>
</g>
<!-- Node26 -->
<g id="node26" class="node">
<title>Node26</title>
<g id="a_node26"><a xlink:href="http__status_8h.html" target="_top" xlink:title=" ">
<polygon fill="white" stroke="black" points="984.84,-174 984.84,-193 1082.84,-193 1082.84,-174 984.84,-174"/>
<text text-anchor="middle" x="1033.84" y="-181" font-family="Helvetica,sans-Serif" font-size="10.00">ccf/http_status.h</text>
</a>
</g>
</g>
<!-- Node24&#45;&gt;Node26 -->
<g id="edge39" class="edge">
<title>Node24&#45;&gt;Node26</title>
<path fill="none" stroke="midnightblue" d="M854.33,-240.87C891.01,-229.35 956.07,-208.92 996.97,-196.08"/>
<polygon fill="midnightblue" stroke="midnightblue" points="998.08,-199.4 1006.57,-193.06 995.98,-192.72 998.08,-199.4"/>
</g>
<!-- Node27 -->
<g id="node27" class="node">
<title>Node27</title>
<g id="a_node27"><a xlink:title=" ">
<polygon fill="white" stroke="#bfbfbf" points="1100.84,-174 1100.84,-193 1180.84,-193 1180.84,-174 1100.84,-174"/>
<text text-anchor="middle" x="1140.84" y="-181" font-family="Helvetica,sans-Serif" font-size="10.00">llhttp/llhttp.h</text>
</a>
</g>
</g>
<!-- Node24&#45;&gt;Node27 -->
<g id="edge40" class="edge">
<title>Node24&#45;&gt;Node27</title>
<path fill="none" stroke="midnightblue" d="M875.02,-241.8C928.37,-232.93 1016.74,-217.22 1091.84,-199 1095.76,-198.05 1099.82,-196.98 1103.86,-195.87"/>
<polygon fill="midnightblue" stroke="midnightblue" points="1105.11,-199.15 1113.76,-193.04 1103.18,-192.42 1105.11,-199.15"/>
</g>
<!-- Node28 -->
<g id="node28" class="node">
<title>Node28</title>
<g id="a_node28"><a xlink:title=" ">
<polygon fill="white" stroke="#bfbfbf" points="804.84,-174 804.84,-193 848.84,-193 848.84,-174 804.84,-174"/>
<text text-anchor="middle" x="826.84" y="-181" font-family="Helvetica,sans-Serif" font-size="10.00">regex</text>
</a>
</g>
</g>
<!-- Node24&#45;&gt;Node28 -->
<g id="edge42" class="edge">
<title>Node24&#45;&gt;Node28</title>
<path fill="none" stroke="midnightblue" d="M826.84,-240.73C826.84,-231.18 826.84,-215.62 826.84,-203.28"/>
<polygon fill="midnightblue" stroke="midnightblue" points="830.34,-203.13 826.84,-193.13 823.34,-203.13 830.34,-203.13"/>
</g>
<!-- Node29&#45;&gt;Node2 -->
<g id="edge45" class="edge">
<title>Node29&#45;&gt;Node2</title>
<path fill="none" stroke="midnightblue" d="M537.96,-302.31C526.41,-281.72 497.21,-229.69 481.76,-202.18"/>
<polygon fill="midnightblue" stroke="midnightblue" points="484.7,-200.26 476.76,-193.26 478.6,-203.69 484.7,-200.26"/>
</g>
<!-- Node29&#45;&gt;Node4 -->
<g id="edge56" class="edge">
<title>Node29&#45;&gt;Node4</title>
<path fill="none" stroke="midnightblue" d="M543.67,-302.13C545.49,-286.95 551.01,-255.64 566.84,-235 660.85,-112.45 775.44,-193.36 875.84,-76 886.94,-63.03 891.56,-43.86 893.48,-29.7"/>
<polygon fill="midnightblue" stroke="midnightblue" points="896.98,-29.94 894.52,-19.63 890.01,-29.22 896.98,-29.94"/>
</g>
<!-- Node30 -->
<g id="node30" class="node">
<title>Node30</title>
<g id="a_node30"><a xlink:href="blit__serialiser_8h.html" target="_top" xlink:title=" ">
<polygon fill="white" stroke="black" points="576.34,-235.5 576.34,-265.5 675.34,-265.5 675.34,-235.5 576.34,-235.5"/>
<text text-anchor="start" x="584.34" y="-253.5" font-family="Helvetica,sans-Serif" font-size="10.00">ccf/kv/serialisers</text>
<text text-anchor="middle" x="625.84" y="-242.5" font-family="Helvetica,sans-Serif" font-size="10.00">/blit_serialiser.h</text>
</a>
</g>
</g>
<!-- Node29&#45;&gt;Node30 -->
<g id="edge46" class="edge">
<title>Node29&#45;&gt;Node30</title>
<path fill="none" stroke="midnightblue" d="M554.73,-302.48C565.98,-294.42 583.26,-282.02 597.98,-271.47"/>
<polygon fill="midnightblue" stroke="midnightblue" points="600.19,-274.19 606.28,-265.52 596.11,-268.5 600.19,-274.19"/>
</g>
<!-- Node30&#45;&gt;Node7 -->
<g id="edge47" class="edge">
<title>Node30&#45;&gt;Node7</title>
<path fill="none" stroke="midnightblue" d="M612.56,-235.27C588.41,-209.67 535.33,-154.52 486.84,-112 474.62,-101.29 460.19,-90.08 448.78,-81.53"/>
<polygon fill="midnightblue" stroke="midnightblue" points="450.84,-78.71 440.73,-75.57 446.68,-84.33 450.84,-78.71"/>
</g>
<!-- Node31 -->
<g id="node31" class="node">
<title>Node31</title>
<g id="a_node31"><a xlink:href="serialised__entry_8h.html" target="_top" xlink:title=" ">
<polygon fill="white" stroke="black" points="681.34,-168.5 681.34,-198.5 786.34,-198.5 786.34,-168.5 681.34,-168.5"/>
<text text-anchor="start" x="689.34" y="-186.5" font-family="Helvetica,sans-Serif" font-size="10.00">ccf/kv/serialisers</text>
<text text-anchor="middle" x="733.84" y="-175.5" font-family="Helvetica,sans-Serif" font-size="10.00">/serialised_entry.h</text>
</a>
</g>
</g>
<!-- Node30&#45;&gt;Node31 -->
<g id="edge48" class="edge">
<title>Node30&#45;&gt;Node31</title>
<path fill="none" stroke="midnightblue" d="M649.28,-235.4C664.56,-226.2 684.72,-214.07 701.52,-203.95"/>
<polygon fill="midnightblue" stroke="midnightblue" points="703.69,-206.73 710.45,-198.58 700.08,-200.73 703.69,-206.73"/>
</g>
<!-- Node32 -->
<g id="node32" class="node">
<title>Node32</title>
<g id="a_node32"><a xlink:href="byte__vector_8h.html" target="_top" xlink:title=" ">
<polygon fill="white" stroke="black" points="905.84,-112.5 905.84,-131.5 1005.84,-131.5 1005.84,-112.5 905.84,-112.5"/>
<text text-anchor="middle" x="955.84" y="-119.5" font-family="Helvetica,sans-Serif" font-size="10.00">ccf/byte_vector.h</text>
</a>
</g>
</g>
<!-- Node31&#45;&gt;Node32 -->
<g id="edge49" class="edge">
<title>Node31&#45;&gt;Node32</title>
<path fill="none" stroke="midnightblue" d="M786.17,-168.47C825.31,-157.99 878.1,-143.84 914.34,-134.12"/>
<polygon fill="midnightblue" stroke="midnightblue" points="915.35,-137.48 924.1,-131.51 913.54,-130.71 915.35,-137.48"/>
</g>
<!-- Node32&#45;&gt;Node13 -->
<g id="edge54" class="edge">
<title>Node32&#45;&gt;Node13</title>
<path fill="none" stroke="midnightblue" d="M905.61,-115.16C841.49,-107.51 726.9,-93.22 619.41,-76.19"/>
<polygon fill="midnightblue" stroke="midnightblue" points="619.79,-72.7 609.37,-74.58 618.69,-79.61 619.79,-72.7"/>
</g>
<!-- Node33 -->
<g id="node33" class="node">
<title>Node33</title>
<g id="a_node33"><a xlink:href="siphash_8h.html" target="_top" xlink:title=" ">
<polygon fill="white" stroke="black" points="1127.34,-56.5 1127.34,-75.5 1222.34,-75.5 1222.34,-56.5 1127.34,-56.5"/>
<text text-anchor="middle" x="1174.84" y="-63.5" font-family="Helvetica,sans-Serif" font-size="10.00">ccf/ds/siphash.h</text>
</a>
</g>
</g>
<!-- Node32&#45;&gt;Node33 -->
<g id="edge50" class="edge">
<title>Node32&#45;&gt;Node33</title>
<path fill="none" stroke="midnightblue" d="M990.54,-112.44C1028.43,-103.1 1089.19,-88.12 1130.5,-77.93"/>
<polygon fill="midnightblue" stroke="midnightblue" points="1131.43,-81.31 1140.3,-75.52 1129.76,-74.51 1131.43,-81.31"/>
</g>
<!-- Node36 -->
<g id="node36" class="node">
<title>Node36</title>
<g id="a_node36"><a xlink:title=" ">
<polygon fill="white" stroke="#bfbfbf" points="922.34,-56.5 922.34,-75.5 1071.34,-75.5 1071.34,-56.5 922.34,-56.5"/>
<text text-anchor="middle" x="996.84" y="-63.5" font-family="Helvetica,sans-Serif" font-size="10.00">small_vector/SmallVector.h</text>
</a>
</g>
</g>
<!-- Node32&#45;&gt;Node36 -->
<g id="edge55" class="edge">
<title>Node32&#45;&gt;Node36</title>
<path fill="none" stroke="midnightblue" d="M962.61,-112.08C968.4,-104.46 976.9,-93.26 983.98,-83.94"/>
<polygon fill="midnightblue" stroke="midnightblue" points="986.94,-85.83 990.2,-75.75 981.36,-81.6 986.94,-85.83"/>
</g>
<!-- Node33&#45;&gt;Node5 -->
<g id="edge53" class="edge">
<title>Node33&#45;&gt;Node5</title>
<path fill="none" stroke="midnightblue" d="M1127.24,-59.92C1025.8,-49.09 790.48,-23.98 702.68,-14.61"/>
<polygon fill="midnightblue" stroke="midnightblue" points="702.8,-11.1 692.48,-13.52 702.05,-18.06 702.8,-11.1"/>
</g>
<!-- Node34 -->
<g id="node34" class="node">
<title>Node34</title>
<g id="a_node34"><a xlink:title=" ">
<polygon fill="white" stroke="#bfbfbf" points="1183.34,-0.5 1183.34,-19.5 1236.34,-19.5 1236.34,-0.5 1183.34,-0.5"/>
<text text-anchor="middle" x="1209.84" y="-7.5" font-family="Helvetica,sans-Serif" font-size="10.00">cstddef</text>
</a>
</g>
</g>
<!-- Node33&#45;&gt;Node34 -->
<g id="edge51" class="edge">
<title>Node33&#45;&gt;Node34</title>
<path fill="none" stroke="midnightblue" d="M1180.62,-56.08C1185.51,-48.53 1192.67,-37.49 1198.67,-28.23"/>
<polygon fill="midnightblue" stroke="midnightblue" points="1201.67,-30.05 1204.17,-19.75 1195.79,-26.24 1201.67,-30.05"/>
</g>
<!-- Node35 -->
<g id="node35" class="node">
<title>Node35</title>
<g id="a_node35"><a xlink:title=" ">
<polygon fill="white" stroke="#bfbfbf" points="1114.84,-0.5 1114.84,-19.5 1164.84,-19.5 1164.84,-0.5 1114.84,-0.5"/>
<text text-anchor="middle" x="1139.84" y="-7.5" font-family="Helvetica,sans-Serif" font-size="10.00">cstdint</text>
</a>
</g>
</g>
<!-- Node33&#45;&gt;Node35 -->
<g id="edge52" class="edge">
<title>Node33&#45;&gt;Node35</title>
<path fill="none" stroke="midnightblue" d="M1169.06,-56.08C1164.17,-48.53 1157.02,-37.49 1151.01,-28.23"/>
<polygon fill="midnightblue" stroke="midnightblue" points="1153.89,-26.24 1145.51,-19.75 1148.02,-30.05 1153.89,-26.24"/>
</g>
</g>
</svg>
        <g id="navigator" transform="translate(0 0)" fill="#404254">
                <rect fill="#f2f5e9" fill-opacity="0.5" stroke="#606060" stroke-width=".5" x="0" y="0" width="60" height="60"/>
                <use id="zoomplus" xlink:href="#zoomPlus" x="17" y="9" onmousedown="handleZoom(evt,'in')"/>
                <use id="zoomminus" xlink:href="#zoomMin" x="42" y="9" onmousedown="handleZoom(evt,'out')"/>
                <use id="reset" xlink:href="#resetDef" x="30" y="36" onmousedown="handleReset()"/>
                <g id="arrowUp" xlink:href="#dirArrow" transform="translate(30 24)" onmousedown="handlePan(0,-1)">
                  <use xlink:href="#rim" fill="#404040">
                        <set attributeName="fill" to="#808080" begin="arrowUp.mouseover" end="arrowUp.mouseout"/>
                  </use>
                  <path fill="none" stroke="white" stroke-width="1.5" d="M0,-3.0v7 M-2.5,-0.5L0,-3.0L2.5,-0.5"/>
                </g>
                <g id="arrowRight" xlink:href="#dirArrow" transform="rotate(90) translate(36 -43)" onmousedown="handlePan(1,0)">
                  <use xlink:href="#rim" fill="#404040">
                        <set attributeName="fill" to="#808080" begin="arrowRight.mouseover" end="arrowRight.mouseout"/>
                  </use>
                  <path fill="none" stroke="white" stroke-width="1.5" d="M0,-3.0v7 M-2.5,-0.5L0,-3.0L2.5,-0.5"/>
                </g>
                <g id="arrowDown" xlink:href="#dirArrow" transform="rotate(180) translate(-30 -48)" onmousedown="handlePan(0,1)">
                  <use xlink:href="#rim" fill="#404040">
                        <set attributeName="fill" to="#808080" begin="arrowDown.mouseover" end="arrowDown.mouseout"/>
                  </use>
                  <path fill="none" stroke="white" stroke-width="1.5" d="M0,-3.0v7 M-2.5,-0.5L0,-3.0L2.5,-0.5"/>
                </g>
                <g id="arrowLeft" xlink:href="#dirArrow" transform="rotate(270) translate(-36 17)" onmousedown="handlePan(-1,0)">
                  <use xlink:href="#rim" fill="#404040">
                        <set attributeName="fill" to="#808080" begin="arrowLeft.mouseover" end="arrowLeft.mouseout"/>
                  </use>
                  <path fill="none" stroke="white" stroke-width="1.5" d="M0,-3.0v7 M-2.5,-0.5L0,-3.0L2.5,-0.5"/>
                </g>
        </g>
        <svg viewBox="0 0 15 15" width="100%" height="30px" preserveAspectRatio="xMaxYMin meet">
         <g id="arrow_out" transform="scale(0.3 0.3)">
          <a xlink:href="logging__schema_8h__incl_org.svg" target="_base">
           <rect id="button" ry="5" rx="5" y="6" x="6" height="38" width="38"
                fill="#f2f5e9" fill-opacity="0.5" stroke="#606060" stroke-width="1.0"/>
           <path id="arrow"
             d="M 11.500037,31.436501 C 11.940474,20.09759 22.043105,11.32322 32.158766,21.979434 L 37.068811,17.246167 C 37.068811,17.246167 37.088388,32 37.088388,32 L 22.160133,31.978069 C 22.160133,31.978069 26.997745,27.140456 26.997745,27.140456 C 18.528582,18.264221 13.291696,25.230495 11.500037,31.436501 z"
             style="fill:#404040;"/>
          </a>
         </g>
        </svg>
</svg>
