<?xml version="1.0" encoding="UTF-8" standalone="no"?>
<!DOCTYPE svg PUBLIC "-//W3C//DTD SVG 1.1//EN"
 "http://www.w3.org/Graphics/SVG/1.1/DTD/svg11.dtd">
<!-- Generated by graphviz version 2.43.0 (0)
 -->
<!-- Title: include/ccf/service/node_info_network.h Pages: 1 -->
<svg width="613pt" height="263pt"
 viewBox="0.00 0.00 612.52 263.00" xmlns="http://www.w3.org/2000/svg" xmlns:xlink="http://www.w3.org/1999/xlink">
<g id="graph0" class="graph" transform="scale(1 1) rotate(0) translate(4 259)">
<title>include/ccf/service/node_info_network.h</title>
<polygon fill="white" stroke="transparent" points="-4,4 -4,-259 608.52,-259 608.52,4 -4,4"/>
<!-- Node1 -->
<g id="node1" class="node">
<title>Node1</title>
<g id="a_node1"><a xlink:title=" ">
<polygon fill="#bfbfbf" stroke="black" points="338.5,-224.5 338.5,-254.5 460.5,-254.5 460.5,-224.5 338.5,-224.5"/>
<text text-anchor="start" x="346.5" y="-242.5" font-family="Helvetica,sans-Serif" font-size="10.00">include/ccf/service</text>
<text text-anchor="middle" x="399.5" y="-231.5" font-family="Helvetica,sans-Serif" font-size="10.00">/node_info_network.h</text>
</a>
</g>
</g>
<!-- Node2 -->
<g id="node2" class="node">
<title>Node2</title>
<g id="a_node2"><a xlink:href="json_8h.html" target="_top" xlink:title=" ">
<polygon fill="white" stroke="black" points="361,-168.5 361,-187.5 438,-187.5 438,-168.5 361,-168.5"/>
<text text-anchor="middle" x="399.5" y="-175.5" font-family="Helvetica,sans-Serif" font-size="10.00">ccf/ds/json.h</text>
</a>
</g>
</g>
<!-- Node1&#45;&gt;Node2 -->
<g id="edge1" class="edge">
<title>Node1&#45;&gt;Node2</title>
<path fill="none" stroke="midnightblue" d="M399.5,-224.4C399.5,-216.47 399.5,-206.46 399.5,-197.86"/>
<polygon fill="midnightblue" stroke="midnightblue" points="403,-197.66 399.5,-187.66 396,-197.66 403,-197.66"/>
</g>
<!-- Node4 -->
<g id="node4" class="node">
<title>Node4</title>
<g id="a_node4"><a xlink:title=" ">
<polygon fill="white" stroke="#bfbfbf" points="514.5,-0.5 514.5,-19.5 558.5,-19.5 558.5,-0.5 514.5,-0.5"/>
<text text-anchor="middle" x="536.5" y="-7.5" font-family="Helvetica,sans-Serif" font-size="10.00">string</text>
</a>
</g>
</g>
<!-- Node1&#45;&gt;Node4 -->
<g id="edge19" class="edge">
<title>Node1&#45;&gt;Node4</title>
<path fill="none" stroke="midnightblue" d="M431.12,-224.33C478.47,-201.12 566.02,-150.08 601.5,-76 611.81,-54.46 587.87,-35.9 566.19,-24.19"/>
<polygon fill="midnightblue" stroke="midnightblue" points="567.64,-21 557.14,-19.6 564.47,-27.24 567.64,-21"/>
</g>
<!-- Node7 -->
<g id="node7" class="node">
<title>Node7</title>
<g id="a_node7"><a xlink:href="nonstd_8h.html" target="_top" xlink:title=" ">
<polygon fill="white" stroke="black" points="147.5,-56.5 147.5,-75.5 237.5,-75.5 237.5,-56.5 147.5,-56.5"/>
<text text-anchor="middle" x="192.5" y="-63.5" font-family="Helvetica,sans-Serif" font-size="10.00">ccf/ds/nonstd.h</text>
</a>
</g>
</g>
<!-- Node1&#45;&gt;Node7 -->
<g id="edge18" class="edge">
<title>Node1&#45;&gt;Node7</title>
<path fill="none" stroke="midnightblue" d="M354.93,-224.35C312.09,-208.51 248.53,-178.75 211.5,-132 200.9,-118.62 196.21,-99.51 194.14,-85.47"/>
<polygon fill="midnightblue" stroke="midnightblue" points="197.61,-85.03 192.98,-75.51 190.66,-85.85 197.61,-85.03"/>
</g>
<!-- Node3 -->
<g id="node3" class="node">
<title>Node3</title>
<g id="a_node3"><a xlink:href="include_2ccf_2crypto_2base64_8h.html" target="_top" xlink:title=" ">
<polygon fill="white" stroke="black" points="480.5,-56.5 480.5,-75.5 592.5,-75.5 592.5,-56.5 480.5,-56.5"/>
<text text-anchor="middle" x="536.5" y="-63.5" font-family="Helvetica,sans-Serif" font-size="10.00">ccf/crypto/base64.h</text>
</a>
</g>
</g>
<!-- Node2&#45;&gt;Node3 -->
<g id="edge2" class="edge">
<title>Node2&#45;&gt;Node3</title>
<path fill="none" stroke="midnightblue" d="M410.25,-168.37C433.46,-149.73 488.51,-105.53 517.65,-82.13"/>
<polygon fill="midnightblue" stroke="midnightblue" points="520.19,-84.58 525.8,-75.59 515.81,-79.12 520.19,-84.58"/>
</g>
<!-- Node6 -->
<g id="node6" class="node">
<title>Node6</title>
<g id="a_node6"><a xlink:href="include_2ccf_2ds_2json__schema_8h.html" target="_top" xlink:title=" ">
<polygon fill="white" stroke="black" points="295,-112.5 295,-131.5 416,-131.5 416,-112.5 295,-112.5"/>
<text text-anchor="middle" x="355.5" y="-119.5" font-family="Helvetica,sans-Serif" font-size="10.00">ccf/ds/json_schema.h</text>
</a>
</g>
</g>
<!-- Node2&#45;&gt;Node6 -->
<g id="edge5" class="edge">
<title>Node2&#45;&gt;Node6</title>
<path fill="none" stroke="midnightblue" d="M392.23,-168.08C385.96,-160.38 376.71,-149.03 369.07,-139.65"/>
<polygon fill="midnightblue" stroke="midnightblue" points="371.66,-137.29 362.63,-131.75 366.23,-141.71 371.66,-137.29"/>
</g>
<!-- Node13 -->
<g id="node13" class="node">
<title>Node13</title>
<g id="a_node13"><a xlink:title=" ">
<polygon fill="white" stroke="#bfbfbf" points="384,-56.5 384,-75.5 463,-75.5 463,-56.5 384,-56.5"/>
<text text-anchor="middle" x="423.5" y="-63.5" font-family="Helvetica,sans-Serif" font-size="10.00">fmt/format.h</text>
</a>
</g>
</g>
<!-- Node2&#45;&gt;Node13 -->
<g id="edge16" class="edge">
<title>Node2&#45;&gt;Node13</title>
<path fill="none" stroke="midnightblue" d="M406.39,-168.32C412.77,-159.68 421.81,-145.77 425.5,-132 429.57,-116.82 428.62,-98.93 426.91,-85.76"/>
<polygon fill="midnightblue" stroke="midnightblue" points="430.32,-84.93 425.32,-75.59 423.41,-86.02 430.32,-84.93"/>
</g>
<!-- Node15 -->
<g id="node15" class="node">
<title>Node15</title>
<g id="a_node15"><a xlink:title=" ">
<polygon fill="white" stroke="#bfbfbf" points="220.5,-112.5 220.5,-131.5 276.5,-131.5 276.5,-112.5 220.5,-112.5"/>
<text text-anchor="middle" x="248.5" y="-119.5" font-family="Helvetica,sans-Serif" font-size="10.00">sstream</text>
</a>
</g>
</g>
<!-- Node2&#45;&gt;Node15 -->
<g id="edge17" class="edge">
<title>Node2&#45;&gt;Node15</title>
<path fill="none" stroke="midnightblue" d="M375.57,-168.44C350.28,-159.4 310.2,-145.06 281.82,-134.92"/>
<polygon fill="midnightblue" stroke="midnightblue" points="282.91,-131.59 272.31,-131.52 280.55,-138.18 282.91,-131.59"/>
</g>
<!-- Node3&#45;&gt;Node4 -->
<g id="edge3" class="edge">
<title>Node3&#45;&gt;Node4</title>
<path fill="none" stroke="midnightblue" d="M536.5,-56.08C536.5,-49.01 536.5,-38.86 536.5,-29.99"/>
<polygon fill="midnightblue" stroke="midnightblue" points="540,-29.75 536.5,-19.75 533,-29.75 540,-29.75"/>
</g>
<!-- Node5 -->
<g id="node5" class="node">
<title>Node5</title>
<g id="a_node5"><a xlink:title=" ">
<polygon fill="white" stroke="#bfbfbf" points="419,-0.5 419,-19.5 466,-19.5 466,-0.5 419,-0.5"/>
<text text-anchor="middle" x="442.5" y="-7.5" font-family="Helvetica,sans-Serif" font-size="10.00">vector</text>
</a>
</g>
</g>
<!-- Node3&#45;&gt;Node5 -->
<g id="edge4" class="edge">
<title>Node3&#45;&gt;Node5</title>
<path fill="none" stroke="midnightblue" d="M521.4,-56.32C506.6,-47.82 483.81,-34.73 466.52,-24.8"/>
<polygon fill="midnightblue" stroke="midnightblue" points="467.98,-21.6 457.57,-19.65 464.49,-27.67 467.98,-21.6"/>
</g>
<!-- Node6&#45;&gt;Node7 -->
<g id="edge6" class="edge">
<title>Node6&#45;&gt;Node7</title>
<path fill="none" stroke="midnightblue" d="M329.67,-112.44C302.25,-103.36 258.72,-88.94 228.07,-78.78"/>
<polygon fill="midnightblue" stroke="midnightblue" points="228.8,-75.34 218.21,-75.52 226.6,-81.98 228.8,-75.34"/>
</g>
<!-- Node6&#45;&gt;Node13 -->
<g id="edge14" class="edge">
<title>Node6&#45;&gt;Node13</title>
<path fill="none" stroke="midnightblue" d="M366.43,-112.32C376.67,-104.18 392.22,-91.84 404.5,-82.09"/>
<polygon fill="midnightblue" stroke="midnightblue" points="406.72,-84.79 412.38,-75.83 402.37,-79.31 406.72,-84.79"/>
</g>
<!-- Node14 -->
<g id="node14" class="node">
<title>Node14</title>
<g id="a_node14"><a xlink:title=" ">
<polygon fill="white" stroke="#bfbfbf" points="255.5,-56.5 255.5,-75.5 365.5,-75.5 365.5,-56.5 255.5,-56.5"/>
<text text-anchor="middle" x="310.5" y="-63.5" font-family="Helvetica,sans-Serif" font-size="10.00">nlohmann/json.hpp</text>
</a>
</g>
</g>
<!-- Node6&#45;&gt;Node14 -->
<g id="edge15" class="edge">
<title>Node6&#45;&gt;Node14</title>
<path fill="none" stroke="midnightblue" d="M348.07,-112.08C341.65,-104.38 332.19,-93.03 324.38,-83.65"/>
<polygon fill="midnightblue" stroke="midnightblue" points="326.88,-81.19 317.79,-75.75 321.51,-85.67 326.88,-81.19"/>
</g>
<!-- Node7&#45;&gt;Node4 -->
<g id="edge10" class="edge">
<title>Node7&#45;&gt;Node4</title>
<path fill="none" stroke="midnightblue" d="M237.58,-57.45C240.59,-56.95 243.59,-56.47 246.5,-56 340.11,-40.94 450.87,-23.99 504.38,-15.86"/>
<polygon fill="midnightblue" stroke="midnightblue" points="504.93,-19.32 514.29,-14.36 503.88,-12.4 504.93,-19.32"/>
</g>
<!-- Node7&#45;&gt;Node5 -->
<g id="edge13" class="edge">
<title>Node7&#45;&gt;Node5</title>
<path fill="none" stroke="midnightblue" d="M232.11,-56.44C280.91,-45.9 362.95,-28.18 408.84,-18.27"/>
<polygon fill="midnightblue" stroke="midnightblue" points="409.83,-21.64 418.87,-16.1 408.36,-14.79 409.83,-21.64"/>
</g>
<!-- Node8 -->
<g id="node8" class="node">
<title>Node8</title>
<g id="a_node8"><a xlink:title=" ">
<polygon fill="white" stroke="#bfbfbf" points="245.5,-0.5 245.5,-19.5 309.5,-19.5 309.5,-0.5 245.5,-0.5"/>
<text text-anchor="middle" x="277.5" y="-7.5" font-family="Helvetica,sans-Serif" font-size="10.00">algorithm</text>
</a>
</g>
</g>
<!-- Node7&#45;&gt;Node8 -->
<g id="edge7" class="edge">
<title>Node7&#45;&gt;Node8</title>
<path fill="none" stroke="midnightblue" d="M206.16,-56.32C219.42,-47.9 239.77,-34.97 255.35,-25.07"/>
<polygon fill="midnightblue" stroke="midnightblue" points="257.31,-27.97 263.88,-19.65 253.56,-22.06 257.31,-27.97"/>
</g>
<!-- Node9 -->
<g id="node9" class="node">
<title>Node9</title>
<g id="a_node9"><a xlink:title=" ">
<polygon fill="white" stroke="#bfbfbf" points="327.5,-0.5 327.5,-19.5 369.5,-19.5 369.5,-0.5 327.5,-0.5"/>
<text text-anchor="middle" x="348.5" y="-7.5" font-family="Helvetica,sans-Serif" font-size="10.00">array</text>
</a>
</g>
</g>
<!-- Node7&#45;&gt;Node9 -->
<g id="edge8" class="edge">
<title>Node7&#45;&gt;Node9</title>
<path fill="none" stroke="midnightblue" d="M217.22,-56.44C244.42,-47.03 288.2,-31.87 317.63,-21.68"/>
<polygon fill="midnightblue" stroke="midnightblue" points="319.09,-24.88 327.4,-18.3 316.8,-18.27 319.09,-24.88"/>
</g>
<!-- Node10 -->
<g id="node10" class="node">
<title>Node10</title>
<g id="a_node10"><a xlink:title=" ">
<polygon fill="white" stroke="#bfbfbf" points="0,-0.5 0,-19.5 49,-19.5 49,-0.5 0,-0.5"/>
<text text-anchor="middle" x="24.5" y="-7.5" font-family="Helvetica,sans-Serif" font-size="10.00">cctype</text>
</a>
</g>
</g>
<!-- Node7&#45;&gt;Node10 -->
<g id="edge9" class="edge">
<title>Node7&#45;&gt;Node10</title>
<path fill="none" stroke="midnightblue" d="M165.88,-56.44C136.91,-47.13 90.5,-32.21 58.81,-22.03"/>
<polygon fill="midnightblue" stroke="midnightblue" points="59.67,-18.63 49.08,-18.9 57.53,-25.29 59.67,-18.63"/>
</g>
<!-- Node11 -->
<g id="node11" class="node">
<title>Node11</title>
<g id="a_node11"><a xlink:title=" ">
<polygon fill="white" stroke="#bfbfbf" points="67,-0.5 67,-19.5 140,-19.5 140,-0.5 67,-0.5"/>
<text text-anchor="middle" x="103.5" y="-7.5" font-family="Helvetica,sans-Serif" font-size="10.00">string_view</text>
</a>
</g>
</g>
<!-- Node7&#45;&gt;Node11 -->
<g id="edge11" class="edge">
<title>Node7&#45;&gt;Node11</title>
<path fill="none" stroke="midnightblue" d="M178.2,-56.32C164.32,-47.9 143.01,-34.97 126.7,-25.07"/>
<polygon fill="midnightblue" stroke="midnightblue" points="128.13,-21.85 117.76,-19.65 124.5,-27.83 128.13,-21.85"/>
</g>
<!-- Node12 -->
<g id="node12" class="node">
<title>Node12</title>
<g id="a_node12"><a xlink:title=" ">
<polygon fill="white" stroke="#bfbfbf" points="158,-0.5 158,-19.5 227,-19.5 227,-0.5 158,-0.5"/>
<text text-anchor="middle" x="192.5" y="-7.5" font-family="Helvetica,sans-Serif" font-size="10.00">type_traits</text>
</a>
</g>
</g>
<!-- Node7&#45;&gt;Node12 -->
<g id="edge12" class="edge">
<title>Node7&#45;&gt;Node12</title>
<path fill="none" stroke="midnightblue" d="M192.5,-56.08C192.5,-49.01 192.5,-38.86 192.5,-29.99"/>
<polygon fill="midnightblue" stroke="midnightblue" points="196,-29.75 192.5,-19.75 189,-29.75 196,-29.75"/>
</g>
</g>
</svg>
