<?xml version="1.0" encoding="UTF-8" standalone="no"?>
<!DOCTYPE svg PUBLIC "-//W3C//DTD SVG 1.1//EN"
 "http://www.w3.org/Graphics/SVG/1.1/DTD/svg11.dtd">
<!-- Generated by graphviz version 2.43.0 (0)
 -->
<!-- Title: include/ccf/service/node_info.h Pages: 1 -->
<!--zoomable 330 -->
<svg id="main" version="1.1" xmlns="http://www.w3.org/2000/svg" xmlns:xlink="http://www.w3.org/1999/xlink" xml:space="preserve" onload="init(evt)">
<style type="text/css"><![CDATA[
.edge:hover path { stroke: red; }
.edge:hover polygon { stroke: red; fill: red; }
]]></style>
<script type="text/javascript"><![CDATA[
var edges = document.getElementsByTagName('g');
if (edges && edges.length) {
  for (var i=0;i<edges.length;i++) {
    if (edges[i].id.substr(0,4)=='edge') {
      edges[i].setAttribute('class','edge');
    }
  }
}
]]></script>
        <defs>
                <circle id="rim" cx="0" cy="0" r="7"/>
                <circle id="rim2" cx="0" cy="0" r="3.5"/>
                <g id="zoomPlus">
                        <use xlink:href="#rim" fill="#404040">
                                <set attributeName="fill" to="#808080" begin="zoomplus.mouseover" end="zoomplus.mouseout"/>
                        </use>
                        <path d="M-4,0h8M0,-4v8" fill="none" stroke="white" stroke-width="1.5" pointer-events="none"/>
                </g>
                <g id="zoomMin">
                        <use xlink:href="#rim" fill="#404040">
                                <set attributeName="fill" to="#808080" begin="zoomminus.mouseover" end="zoomminus.mouseout"/>
                        </use>
                        <path d="M-4,0h8" fill="none" stroke="white" stroke-width="1.5" pointer-events="none"/>
                </g>
                <g id="dirArrow">
                        <path fill="none" stroke="white" stroke-width="1.5" d="M0,-3.0v7 M-2.5,-0.5L0,-3.0L2.5,-0.5"/>
                </g>
               <g id="resetDef">
                       <use xlink:href="#rim2" fill="#404040">
                               <set attributeName="fill" to="#808080" begin="reset.mouseover" end="reset.mouseout"/>
                       </use>
               </g>
        </defs>

<script type="text/javascript">
var viewWidth = 866;
var viewHeight = 330;
var sectionId = 'dynsection-0';
</script>
<script xlink:href="svgpan.js"/>
<svg id="graph" class="graph">
<g id="viewport">
<title>include/ccf/service/node_info.h</title>
<polygon fill="white" stroke="transparent" points="-4,4 -4,-326 861.82,-326 861.82,4 -4,4"/>
<!-- Node1 -->
<g id="node1" class="node">
<title>Node1</title>
<g id="a_node1"><a xlink:title=" ">
<polygon fill="#bfbfbf" stroke="black" points="431.5,-291.5 431.5,-321.5 538.5,-321.5 538.5,-291.5 431.5,-291.5"/>
<text text-anchor="start" x="439.5" y="-309.5" font-family="Helvetica,sans-Serif" font-size="10.00">include/ccf/service</text>
<text text-anchor="middle" x="485" y="-298.5" font-family="Helvetica,sans-Serif" font-size="10.00">/node_info.h</text>
</a>
</g>
</g>
<!-- Node2 -->
<g id="node2" class="node">
<title>Node2</title>
<g id="a_node2"><a xlink:href="pem_8h.html" target="_top" xlink:title=" ">
<polygon fill="white" stroke="black" points="159,-230 159,-249 257,-249 257,-230 159,-230"/>
<text text-anchor="middle" x="208" y="-237" font-family="Helvetica,sans-Serif" font-size="10.00">ccf/crypto/pem.h</text>
</a>
</g>
</g>
<!-- Node1&#45;&gt;Node2 -->
<g id="edge1" class="edge">
<title>Node1&#45;&gt;Node2</title>
<path fill="none" stroke="midnightblue" d="M431.26,-292.89C379.85,-280.83 303.13,-262.82 254.34,-251.37"/>
<polygon fill="midnightblue" stroke="midnightblue" points="254.91,-247.91 244.37,-249.03 253.31,-254.73 254.91,-247.91"/>
</g>
<!-- Node3 -->
<g id="node3" class="node">
<title>Node3</title>
<g id="a_node3"><a xlink:href="json_8h.html" target="_top" xlink:title=" ">
<polygon fill="white" stroke="black" points="493.5,-168.5 493.5,-187.5 570.5,-187.5 570.5,-168.5 493.5,-168.5"/>
<text text-anchor="middle" x="532" y="-175.5" font-family="Helvetica,sans-Serif" font-size="10.00">ccf/ds/json.h</text>
</a>
</g>
</g>
<!-- Node1&#45;&gt;Node3 -->
<g id="edge25" class="edge">
<title>Node1&#45;&gt;Node3</title>
<path fill="none" stroke="midnightblue" d="M508.47,-291.32C520.63,-282.54 534.3,-270.07 541,-255 549.16,-236.65 544.55,-213.48 539.4,-197.58"/>
<polygon fill="midnightblue" stroke="midnightblue" points="542.59,-196.09 535.9,-187.87 536,-198.47 542.59,-196.09"/>
</g>
<!-- Node14 -->
<g id="node14" class="node">
<title>Node14</title>
<g id="a_node14"><a xlink:title=" ">
<polygon fill="white" stroke="#bfbfbf" points="400.5,-56.5 400.5,-75.5 479.5,-75.5 479.5,-56.5 400.5,-56.5"/>
<text text-anchor="middle" x="440" y="-63.5" font-family="Helvetica,sans-Serif" font-size="10.00">fmt/format.h</text>
</a>
</g>
</g>
<!-- Node1&#45;&gt;Node14 -->
<g id="edge34" class="edge">
<title>Node1&#45;&gt;Node14</title>
<path fill="none" stroke="midnightblue" d="M461.53,-291.32C449.37,-282.54 435.7,-270.07 429,-255 403.46,-197.58 422.47,-120.41 433.53,-85.51"/>
<polygon fill="midnightblue" stroke="midnightblue" points="436.95,-86.34 436.78,-75.74 430.3,-84.13 436.95,-86.34"/>
</g>
<!-- Node21 -->
<g id="node21" class="node">
<title>Node21</title>
<g id="a_node21"><a xlink:href="version_8h.html" target="_top" xlink:title=" ">
<polygon fill="white" stroke="black" points="438,-230 438,-249 532,-249 532,-230 438,-230"/>
<text text-anchor="middle" x="485" y="-237" font-family="Helvetica,sans-Serif" font-size="10.00">ccf/kv/version.h</text>
</a>
</g>
</g>
<!-- Node1&#45;&gt;Node21 -->
<g id="edge26" class="edge">
<title>Node1&#45;&gt;Node21</title>
<path fill="none" stroke="midnightblue" d="M485,-291.4C485,-282.06 485,-269.71 485,-259.52"/>
<polygon fill="midnightblue" stroke="midnightblue" points="488.5,-259.19 485,-249.19 481.5,-259.19 488.5,-259.19"/>
</g>
<!-- Node22 -->
<g id="node22" class="node">
<title>Node22</title>
<g id="a_node22"><a xlink:href="quote__info_8h.html" target="_top" xlink:title=" ">
<polygon fill="white" stroke="black" points="286.5,-230 286.5,-249 381.5,-249 381.5,-230 286.5,-230"/>
<text text-anchor="middle" x="334" y="-237" font-family="Helvetica,sans-Serif" font-size="10.00">ccf/quote_info.h</text>
</a>
</g>
</g>
<!-- Node1&#45;&gt;Node22 -->
<g id="edge27" class="edge">
<title>Node1&#45;&gt;Node22</title>
<path fill="none" stroke="midnightblue" d="M452.24,-291.4C425.74,-279.99 388.78,-264.08 363.27,-253.1"/>
<polygon fill="midnightblue" stroke="midnightblue" points="364.33,-249.75 353.76,-249.01 361.56,-256.18 364.33,-249.75"/>
</g>
<!-- Node23 -->
<g id="node23" class="node">
<title>Node23</title>
<g id="a_node23"><a xlink:href="node__info__network_8h.html" target="_top" xlink:title=" ">
<polygon fill="white" stroke="black" points="588,-224.5 588,-254.5 708,-254.5 708,-224.5 588,-224.5"/>
<text text-anchor="start" x="596" y="-242.5" font-family="Helvetica,sans-Serif" font-size="10.00">ccf/service/node_info</text>
<text text-anchor="middle" x="648" y="-231.5" font-family="Helvetica,sans-Serif" font-size="10.00">_network.h</text>
</a>
</g>
</g>
<!-- Node1&#45;&gt;Node23 -->
<g id="edge30" class="edge">
<title>Node1&#45;&gt;Node23</title>
<path fill="none" stroke="midnightblue" d="M520.37,-291.4C544.72,-281.69 577.26,-268.71 603.39,-258.29"/>
<polygon fill="midnightblue" stroke="midnightblue" points="604.71,-261.53 612.7,-254.58 602.12,-255.03 604.71,-261.53"/>
</g>
<!-- Node24 -->
<g id="node24" class="node">
<title>Node24</title>
<g id="a_node24"><a xlink:title=" ">
<polygon fill="white" stroke="#bfbfbf" points="726,-230 726,-249 782,-249 782,-230 726,-230"/>
<text text-anchor="middle" x="754" y="-237" font-family="Helvetica,sans-Serif" font-size="10.00">optional</text>
</a>
</g>
</g>
<!-- Node1&#45;&gt;Node24 -->
<g id="edge35" class="edge">
<title>Node1&#45;&gt;Node24</title>
<path fill="none" stroke="midnightblue" d="M538.6,-296.34C586.02,-287.65 656.83,-273.21 717,-255 719.43,-254.27 721.92,-253.44 724.41,-252.57"/>
<polygon fill="midnightblue" stroke="midnightblue" points="725.69,-255.83 733.85,-249.07 723.26,-249.27 725.69,-255.83"/>
</g>
<!-- Node2&#45;&gt;Node3 -->
<g id="edge2" class="edge">
<title>Node2&#45;&gt;Node3</title>
<path fill="none" stroke="midnightblue" d="M247.36,-230C257.04,-227.97 267.39,-225.86 277,-224 348.64,-210.15 431.95,-195.78 483.33,-187.11"/>
<polygon fill="midnightblue" stroke="midnightblue" points="484.2,-190.51 493.48,-185.4 483.04,-183.61 484.2,-190.51"/>
</g>
<!-- Node6 -->
<g id="node6" class="node">
<title>Node6</title>
<g id="a_node6"><a xlink:title=" ">
<polygon fill="white" stroke="#bfbfbf" points="396.5,-0.5 396.5,-19.5 443.5,-19.5 443.5,-0.5 396.5,-0.5"/>
<text text-anchor="middle" x="420" y="-7.5" font-family="Helvetica,sans-Serif" font-size="10.00">vector</text>
</a>
</g>
</g>
<!-- Node2&#45;&gt;Node6 -->
<g id="edge24" class="edge">
<title>Node2&#45;&gt;Node6</title>
<path fill="none" stroke="midnightblue" d="M238.6,-229.93C261.7,-222.15 292.9,-208.7 314,-188 360.82,-142.06 343.23,-110.31 380,-56 386.94,-45.74 396.03,-35.34 403.79,-27.12"/>
<polygon fill="midnightblue" stroke="midnightblue" points="406.52,-29.34 410.97,-19.72 401.5,-24.46 406.52,-29.34"/>
</g>
<!-- Node12 -->
<g id="node12" class="node">
<title>Node12</title>
<g id="a_node12"><a xlink:title=" ">
<polygon fill="white" stroke="#bfbfbf" points="183.5,-0.5 183.5,-19.5 256.5,-19.5 256.5,-0.5 183.5,-0.5"/>
<text text-anchor="middle" x="220" y="-7.5" font-family="Helvetica,sans-Serif" font-size="10.00">string_view</text>
</a>
</g>
</g>
<!-- Node2&#45;&gt;Node12 -->
<g id="edge23" class="edge">
<title>Node2&#45;&gt;Node12</title>
<path fill="none" stroke="midnightblue" d="M196.58,-229.93C185.59,-220.9 169.69,-205.56 163,-188 159.84,-179.69 161.46,-176.75 163,-168 172.26,-115.35 197.75,-57.11 211.28,-28.63"/>
<polygon fill="midnightblue" stroke="midnightblue" points="214.47,-30.08 215.68,-19.56 208.17,-27.03 214.47,-30.08"/>
</g>
<!-- Node17 -->
<g id="node17" class="node">
<title>Node17</title>
<g id="a_node17"><a xlink:title=" ">
<polygon fill="white" stroke="#bfbfbf" points="172,-168.5 172,-187.5 222,-187.5 222,-168.5 172,-168.5"/>
<text text-anchor="middle" x="197" y="-175.5" font-family="Helvetica,sans-Serif" font-size="10.00">cstring</text>
</a>
</g>
</g>
<!-- Node2&#45;&gt;Node17 -->
<g id="edge19" class="edge">
<title>Node2&#45;&gt;Node17</title>
<path fill="none" stroke="midnightblue" d="M206.42,-229.98C204.87,-221.58 202.45,-208.48 200.45,-197.66"/>
<polygon fill="midnightblue" stroke="midnightblue" points="203.83,-196.71 198.57,-187.51 196.95,-197.98 203.83,-196.71"/>
</g>
<!-- Node18 -->
<g id="node18" class="node">
<title>Node18</title>
<g id="a_node18"><a xlink:title=" ">
<polygon fill="white" stroke="#bfbfbf" points="240.5,-168.5 240.5,-187.5 305.5,-187.5 305.5,-168.5 240.5,-168.5"/>
<text text-anchor="middle" x="273" y="-175.5" font-family="Helvetica,sans-Serif" font-size="10.00">exception</text>
</a>
</g>
</g>
<!-- Node2&#45;&gt;Node18 -->
<g id="edge20" class="edge">
<title>Node2&#45;&gt;Node18</title>
<path fill="none" stroke="midnightblue" d="M217.31,-229.98C227.45,-220.7 243.86,-205.67 256.25,-194.33"/>
<polygon fill="midnightblue" stroke="midnightblue" points="258.69,-196.84 263.7,-187.51 253.96,-191.68 258.69,-196.84"/>
</g>
<!-- Node19 -->
<g id="node19" class="node">
<title>Node19</title>
<g id="a_node19"><a xlink:title=" ">
<polygon fill="white" stroke="#bfbfbf" points="0,-168.5 0,-187.5 58,-187.5 58,-168.5 0,-168.5"/>
<text text-anchor="middle" x="29" y="-175.5" font-family="Helvetica,sans-Serif" font-size="10.00">memory</text>
</a>
</g>
</g>
<!-- Node2&#45;&gt;Node19 -->
<g id="edge21" class="edge">
<title>Node2&#45;&gt;Node19</title>
<path fill="none" stroke="midnightblue" d="M182.35,-229.98C151.38,-219.68 99.13,-202.31 64.35,-190.75"/>
<polygon fill="midnightblue" stroke="midnightblue" points="65.19,-187.34 54.6,-187.51 62.98,-193.98 65.19,-187.34"/>
</g>
<!-- Node20 -->
<g id="node20" class="node">
<title>Node20</title>
<g id="a_node20"><a xlink:title=" ">
<polygon fill="white" stroke="#bfbfbf" points="76,-168.5 76,-187.5 116,-187.5 116,-168.5 76,-168.5"/>
<text text-anchor="middle" x="96" y="-175.5" font-family="Helvetica,sans-Serif" font-size="10.00">span</text>
</a>
</g>
</g>
<!-- Node2&#45;&gt;Node20 -->
<g id="edge22" class="edge">
<title>Node2&#45;&gt;Node20</title>
<path fill="none" stroke="midnightblue" d="M191.95,-229.98C173.41,-220.12 142.66,-203.79 120.98,-192.27"/>
<polygon fill="midnightblue" stroke="midnightblue" points="122.49,-189.11 112.02,-187.51 119.21,-195.29 122.49,-189.11"/>
</g>
<!-- Node4 -->
<g id="node4" class="node">
<title>Node4</title>
<g id="a_node4"><a xlink:href="include_2ccf_2crypto_2base64_8h.html" target="_top" xlink:title=" ">
<polygon fill="white" stroke="black" points="734,-56.5 734,-75.5 846,-75.5 846,-56.5 734,-56.5"/>
<text text-anchor="middle" x="790" y="-63.5" font-family="Helvetica,sans-Serif" font-size="10.00">ccf/crypto/base64.h</text>
</a>
</g>
</g>
<!-- Node3&#45;&gt;Node4 -->
<g id="edge3" class="edge">
<title>Node3&#45;&gt;Node4</title>
<path fill="none" stroke="midnightblue" d="M568.76,-168.43C599.25,-160.71 643.37,-148.11 680,-132 712.69,-117.62 747.77,-95.62 769.3,-81.27"/>
<polygon fill="midnightblue" stroke="midnightblue" points="771.32,-84.13 777.66,-75.63 767.41,-78.32 771.32,-84.13"/>
</g>
<!-- Node7 -->
<g id="node7" class="node">
<title>Node7</title>
<g id="a_node7"><a xlink:href="include_2ccf_2ds_2json__schema_8h.html" target="_top" xlink:title=" ">
<polygon fill="white" stroke="black" points="550.5,-112.5 550.5,-131.5 671.5,-131.5 671.5,-112.5 550.5,-112.5"/>
<text text-anchor="middle" x="611" y="-119.5" font-family="Helvetica,sans-Serif" font-size="10.00">ccf/ds/json_schema.h</text>
</a>
</g>
</g>
<!-- Node3&#45;&gt;Node7 -->
<g id="edge6" class="edge">
<title>Node3&#45;&gt;Node7</title>
<path fill="none" stroke="midnightblue" d="M544.69,-168.32C556.9,-159.98 575.58,-147.21 590,-137.35"/>
<polygon fill="midnightblue" stroke="midnightblue" points="592.06,-140.19 598.34,-131.65 588.11,-134.41 592.06,-140.19"/>
</g>
<!-- Node3&#45;&gt;Node14 -->
<g id="edge17" class="edge">
<title>Node3&#45;&gt;Node14</title>
<path fill="none" stroke="midnightblue" d="M514.45,-168.48C500.03,-160.71 479.94,-148.02 467,-132 455.97,-118.35 448.82,-99.56 444.67,-85.69"/>
<polygon fill="midnightblue" stroke="midnightblue" points="447.98,-84.54 441.96,-75.82 441.23,-86.39 447.98,-84.54"/>
</g>
<!-- Node16 -->
<g id="node16" class="node">
<title>Node16</title>
<g id="a_node16"><a xlink:title=" ">
<polygon fill="white" stroke="#bfbfbf" points="476,-112.5 476,-131.5 532,-131.5 532,-112.5 476,-112.5"/>
<text text-anchor="middle" x="504" y="-119.5" font-family="Helvetica,sans-Serif" font-size="10.00">sstream</text>
</a>
</g>
</g>
<!-- Node3&#45;&gt;Node16 -->
<g id="edge18" class="edge">
<title>Node3&#45;&gt;Node16</title>
<path fill="none" stroke="midnightblue" d="M527.38,-168.08C523.54,-160.69 517.98,-149.95 513.24,-140.81"/>
<polygon fill="midnightblue" stroke="midnightblue" points="516.25,-139.02 508.54,-131.75 510.03,-142.24 516.25,-139.02"/>
</g>
<!-- Node5 -->
<g id="node5" class="node">
<title>Node5</title>
<g id="a_node5"><a xlink:title=" ">
<polygon fill="white" stroke="#bfbfbf" points="806,-0.5 806,-19.5 850,-19.5 850,-0.5 806,-0.5"/>
<text text-anchor="middle" x="828" y="-7.5" font-family="Helvetica,sans-Serif" font-size="10.00">string</text>
</a>
</g>
</g>
<!-- Node4&#45;&gt;Node5 -->
<g id="edge4" class="edge">
<title>Node4&#45;&gt;Node5</title>
<path fill="none" stroke="midnightblue" d="M796.27,-56.08C801.64,-48.46 809.52,-37.26 816.08,-27.94"/>
<polygon fill="midnightblue" stroke="midnightblue" points="818.95,-29.94 821.84,-19.75 813.22,-25.91 818.95,-29.94"/>
</g>
<!-- Node4&#45;&gt;Node6 -->
<g id="edge5" class="edge">
<title>Node4&#45;&gt;Node6</title>
<path fill="none" stroke="midnightblue" d="M733.8,-56.8C655.86,-45.42 517.37,-25.21 453.71,-15.92"/>
<polygon fill="midnightblue" stroke="midnightblue" points="454.2,-12.45 443.8,-14.47 453.19,-19.38 454.2,-12.45"/>
</g>
<!-- Node8 -->
<g id="node8" class="node">
<title>Node8</title>
<g id="a_node8"><a xlink:href="nonstd_8h.html" target="_top" xlink:title=" ">
<polygon fill="white" stroke="black" points="626,-56.5 626,-75.5 716,-75.5 716,-56.5 626,-56.5"/>
<text text-anchor="middle" x="671" y="-63.5" font-family="Helvetica,sans-Serif" font-size="10.00">ccf/ds/nonstd.h</text>
</a>
</g>
</g>
<!-- Node7&#45;&gt;Node8 -->
<g id="edge7" class="edge">
<title>Node7&#45;&gt;Node8</title>
<path fill="none" stroke="midnightblue" d="M620.64,-112.32C629.51,-104.34 642.87,-92.31 653.61,-82.65"/>
<polygon fill="midnightblue" stroke="midnightblue" points="656.09,-85.13 661.18,-75.83 651.41,-79.92 656.09,-85.13"/>
</g>
<!-- Node7&#45;&gt;Node14 -->
<g id="edge15" class="edge">
<title>Node7&#45;&gt;Node14</title>
<path fill="none" stroke="midnightblue" d="M583.9,-112.44C555.01,-103.32 509.08,-88.81 476.89,-78.65"/>
<polygon fill="midnightblue" stroke="midnightblue" points="477.56,-75.19 466.97,-75.52 475.45,-81.87 477.56,-75.19"/>
</g>
<!-- Node15 -->
<g id="node15" class="node">
<title>Node15</title>
<g id="a_node15"><a xlink:title=" ">
<polygon fill="white" stroke="#bfbfbf" points="498,-56.5 498,-75.5 608,-75.5 608,-56.5 498,-56.5"/>
<text text-anchor="middle" x="553" y="-63.5" font-family="Helvetica,sans-Serif" font-size="10.00">nlohmann/json.hpp</text>
</a>
</g>
</g>
<!-- Node7&#45;&gt;Node15 -->
<g id="edge16" class="edge">
<title>Node7&#45;&gt;Node15</title>
<path fill="none" stroke="midnightblue" d="M601.68,-112.32C593.11,-104.34 580.19,-92.31 569.81,-82.65"/>
<polygon fill="midnightblue" stroke="midnightblue" points="572.19,-80.09 562.49,-75.83 567.42,-85.21 572.19,-80.09"/>
</g>
<!-- Node8&#45;&gt;Node5 -->
<g id="edge11" class="edge">
<title>Node8&#45;&gt;Node5</title>
<path fill="none" stroke="midnightblue" d="M695.88,-56.44C723.07,-47.09 766.69,-32.09 796.31,-21.9"/>
<polygon fill="midnightblue" stroke="midnightblue" points="797.46,-25.21 805.78,-18.64 795.18,-18.59 797.46,-25.21"/>
</g>
<!-- Node8&#45;&gt;Node6 -->
<g id="edge14" class="edge">
<title>Node8&#45;&gt;Node6</title>
<path fill="none" stroke="midnightblue" d="M631.23,-56.44C582.14,-45.88 499.52,-28.11 453.51,-18.21"/>
<polygon fill="midnightblue" stroke="midnightblue" points="454.24,-14.79 443.72,-16.1 452.76,-21.63 454.24,-14.79"/>
</g>
<!-- Node9 -->
<g id="node9" class="node">
<title>Node9</title>
<g id="a_node9"><a xlink:title=" ">
<polygon fill="white" stroke="#bfbfbf" points="724,-0.5 724,-19.5 788,-19.5 788,-0.5 724,-0.5"/>
<text text-anchor="middle" x="756" y="-7.5" font-family="Helvetica,sans-Serif" font-size="10.00">algorithm</text>
</a>
</g>
</g>
<!-- Node8&#45;&gt;Node9 -->
<g id="edge8" class="edge">
<title>Node8&#45;&gt;Node9</title>
<path fill="none" stroke="midnightblue" d="M684.66,-56.32C697.92,-47.9 718.27,-34.97 733.85,-25.07"/>
<polygon fill="midnightblue" stroke="midnightblue" points="735.81,-27.97 742.38,-19.65 732.06,-22.06 735.81,-27.97"/>
</g>
<!-- Node10 -->
<g id="node10" class="node">
<title>Node10</title>
<g id="a_node10"><a xlink:title=" ">
<polygon fill="white" stroke="#bfbfbf" points="509,-0.5 509,-19.5 551,-19.5 551,-0.5 509,-0.5"/>
<text text-anchor="middle" x="530" y="-7.5" font-family="Helvetica,sans-Serif" font-size="10.00">array</text>
</a>
</g>
</g>
<!-- Node8&#45;&gt;Node10 -->
<g id="edge9" class="edge">
<title>Node8&#45;&gt;Node10</title>
<path fill="none" stroke="midnightblue" d="M648.66,-56.44C624.97,-47.37 587.39,-32.98 560.88,-22.83"/>
<polygon fill="midnightblue" stroke="midnightblue" points="561.9,-19.47 551.31,-19.16 559.4,-26.01 561.9,-19.47"/>
</g>
<!-- Node11 -->
<g id="node11" class="node">
<title>Node11</title>
<g id="a_node11"><a xlink:title=" ">
<polygon fill="white" stroke="#bfbfbf" points="569.5,-0.5 569.5,-19.5 618.5,-19.5 618.5,-0.5 569.5,-0.5"/>
<text text-anchor="middle" x="594" y="-7.5" font-family="Helvetica,sans-Serif" font-size="10.00">cctype</text>
</a>
</g>
</g>
<!-- Node8&#45;&gt;Node11 -->
<g id="edge10" class="edge">
<title>Node8&#45;&gt;Node11</title>
<path fill="none" stroke="midnightblue" d="M658.63,-56.32C646.84,-48.06 628.87,-35.45 614.86,-25.63"/>
<polygon fill="midnightblue" stroke="midnightblue" points="616.54,-22.53 606.34,-19.65 612.52,-28.26 616.54,-22.53"/>
</g>
<!-- Node8&#45;&gt;Node12 -->
<g id="edge12" class="edge">
<title>Node8&#45;&gt;Node12</title>
<path fill="none" stroke="midnightblue" d="M625.95,-57.31C622.92,-56.85 619.92,-56.41 617,-56 490.7,-38.33 341.05,-22.83 266.73,-15.5"/>
<polygon fill="midnightblue" stroke="midnightblue" points="267.05,-12.01 256.75,-14.52 266.36,-18.98 267.05,-12.01"/>
</g>
<!-- Node13 -->
<g id="node13" class="node">
<title>Node13</title>
<g id="a_node13"><a xlink:title=" ">
<polygon fill="white" stroke="#bfbfbf" points="636.5,-0.5 636.5,-19.5 705.5,-19.5 705.5,-0.5 636.5,-0.5"/>
<text text-anchor="middle" x="671" y="-7.5" font-family="Helvetica,sans-Serif" font-size="10.00">type_traits</text>
</a>
</g>
</g>
<!-- Node8&#45;&gt;Node13 -->
<g id="edge13" class="edge">
<title>Node8&#45;&gt;Node13</title>
<path fill="none" stroke="midnightblue" d="M671,-56.08C671,-49.01 671,-38.86 671,-29.99"/>
<polygon fill="midnightblue" stroke="midnightblue" points="674.5,-29.75 671,-19.75 667.5,-29.75 674.5,-29.75"/>
</g>
<!-- Node22&#45;&gt;Node3 -->
<g id="edge28" class="edge">
<title>Node22&#45;&gt;Node3</title>
<path fill="none" stroke="midnightblue" d="M362.37,-229.98C396.92,-219.59 455.42,-202.01 493.88,-190.45"/>
<polygon fill="midnightblue" stroke="midnightblue" points="495.11,-193.74 503.68,-187.51 493.1,-187.04 495.11,-193.74"/>
</g>
<!-- Node22&#45;&gt;Node6 -->
<g id="edge29" class="edge">
<title>Node22&#45;&gt;Node6</title>
<path fill="none" stroke="midnightblue" d="M336.38,-229.8C345.11,-198.07 375.67,-88.77 391,-56 395.58,-46.21 401.98,-36.04 407.6,-27.84"/>
<polygon fill="midnightblue" stroke="midnightblue" points="410.55,-29.74 413.48,-19.56 404.84,-25.68 410.55,-29.74"/>
</g>
<!-- Node23&#45;&gt;Node3 -->
<g id="edge31" class="edge">
<title>Node23&#45;&gt;Node3</title>
<path fill="none" stroke="midnightblue" d="M620.51,-224.4C601.57,-214.68 576.56,-201.86 557.96,-192.31"/>
<polygon fill="midnightblue" stroke="midnightblue" points="559.37,-189.11 548.88,-187.66 556.18,-195.34 559.37,-189.11"/>
</g>
<!-- Node23&#45;&gt;Node5 -->
<g id="edge33" class="edge">
<title>Node23&#45;&gt;Node5</title>
<path fill="none" stroke="midnightblue" d="M680.77,-224.36C729.35,-201.36 818.63,-150.78 855,-76 862.89,-59.77 852.7,-40.64 842.65,-27.35"/>
<polygon fill="midnightblue" stroke="midnightblue" points="845.31,-25.07 836.27,-19.55 839.9,-29.51 845.31,-25.07"/>
</g>
<!-- Node23&#45;&gt;Node8 -->
<g id="edge32" class="edge">
<title>Node23&#45;&gt;Node8</title>
<path fill="none" stroke="midnightblue" d="M654.97,-224.33C665.58,-201.2 684.13,-153.71 680,-112 679.13,-103.17 677.31,-93.51 675.53,-85.4"/>
<polygon fill="midnightblue" stroke="midnightblue" points="678.92,-84.49 673.23,-75.55 672.1,-86.08 678.92,-84.49"/>
</g>
</g>
</svg>
        <g id="navigator" transform="translate(0 0)" fill="#404254">
                <rect fill="#f2f5e9" fill-opacity="0.5" stroke="#606060" stroke-width=".5" x="0" y="0" width="60" height="60"/>
                <use id="zoomplus" xlink:href="#zoomPlus" x="17" y="9" onmousedown="handleZoom(evt,'in')"/>
                <use id="zoomminus" xlink:href="#zoomMin" x="42" y="9" onmousedown="handleZoom(evt,'out')"/>
                <use id="reset" xlink:href="#resetDef" x="30" y="36" onmousedown="handleReset()"/>
                <g id="arrowUp" xlink:href="#dirArrow" transform="translate(30 24)" onmousedown="handlePan(0,-1)">
                  <use xlink:href="#rim" fill="#404040">
                        <set attributeName="fill" to="#808080" begin="arrowUp.mouseover" end="arrowUp.mouseout"/>
                  </use>
                  <path fill="none" stroke="white" stroke-width="1.5" d="M0,-3.0v7 M-2.5,-0.5L0,-3.0L2.5,-0.5"/>
                </g>
                <g id="arrowRight" xlink:href="#dirArrow" transform="rotate(90) translate(36 -43)" onmousedown="handlePan(1,0)">
                  <use xlink:href="#rim" fill="#404040">
                        <set attributeName="fill" to="#808080" begin="arrowRight.mouseover" end="arrowRight.mouseout"/>
                  </use>
                  <path fill="none" stroke="white" stroke-width="1.5" d="M0,-3.0v7 M-2.5,-0.5L0,-3.0L2.5,-0.5"/>
                </g>
                <g id="arrowDown" xlink:href="#dirArrow" transform="rotate(180) translate(-30 -48)" onmousedown="handlePan(0,1)">
                  <use xlink:href="#rim" fill="#404040">
                        <set attributeName="fill" to="#808080" begin="arrowDown.mouseover" end="arrowDown.mouseout"/>
                  </use>
                  <path fill="none" stroke="white" stroke-width="1.5" d="M0,-3.0v7 M-2.5,-0.5L0,-3.0L2.5,-0.5"/>
                </g>
                <g id="arrowLeft" xlink:href="#dirArrow" transform="rotate(270) translate(-36 17)" onmousedown="handlePan(-1,0)">
                  <use xlink:href="#rim" fill="#404040">
                        <set attributeName="fill" to="#808080" begin="arrowLeft.mouseover" end="arrowLeft.mouseout"/>
                  </use>
                  <path fill="none" stroke="white" stroke-width="1.5" d="M0,-3.0v7 M-2.5,-0.5L0,-3.0L2.5,-0.5"/>
                </g>
        </g>
        <svg viewBox="0 0 15 15" width="100%" height="30px" preserveAspectRatio="xMaxYMin meet">
         <g id="arrow_out" transform="scale(0.3 0.3)">
          <a xlink:href="node__info_8h__incl_org.svg" target="_base">
           <rect id="button" ry="5" rx="5" y="6" x="6" height="38" width="38"
                fill="#f2f5e9" fill-opacity="0.5" stroke="#606060" stroke-width="1.0"/>
           <path id="arrow"
             d="M 11.500037,31.436501 C 11.940474,20.09759 22.043105,11.32322 32.158766,21.979434 L 37.068811,17.246167 C 37.068811,17.246167 37.088388,32 37.088388,32 L 22.160133,31.978069 C 22.160133,31.978069 26.997745,27.140456 26.997745,27.140456 C 18.528582,18.264221 13.291696,25.230495 11.500037,31.436501 z"
             style="fill:#404040;"/>
          </a>
         </g>
        </svg>
</svg>
