<?xml version="1.0" encoding="UTF-8" standalone="no"?>
<!DOCTYPE svg PUBLIC "-//W3C//DTD SVG 1.1//EN"
 "http://www.w3.org/Graphics/SVG/1.1/DTD/svg11.dtd">
<!-- Generated by graphviz version 2.43.0 (0)
 -->
<!-- Title: ccf::CreateNetworkNodeToNode::In Pages: 1 -->
<!--zoomable 276 -->
<svg id="main" version="1.1" xmlns="http://www.w3.org/2000/svg" xmlns:xlink="http://www.w3.org/1999/xlink" xml:space="preserve" onload="init(evt)">
<style type="text/css"><![CDATA[
.edge:hover path { stroke: red; }
.edge:hover polygon { stroke: red; fill: red; }
]]></style>
<script type="text/javascript"><![CDATA[
var edges = document.getElementsByTagName('g');
if (edges && edges.length) {
  for (var i=0;i<edges.length;i++) {
    if (edges[i].id.substr(0,4)=='edge') {
      edges[i].setAttribute('class','edge');
    }
  }
}
]]></script>
        <defs>
                <circle id="rim" cx="0" cy="0" r="7"/>
                <circle id="rim2" cx="0" cy="0" r="3.5"/>
                <g id="zoomPlus">
                        <use xlink:href="#rim" fill="#404040">
                                <set attributeName="fill" to="#808080" begin="zoomplus.mouseover" end="zoomplus.mouseout"/>
                        </use>
                        <path d="M-4,0h8M0,-4v8" fill="none" stroke="white" stroke-width="1.5" pointer-events="none"/>
                </g>
                <g id="zoomMin">
                        <use xlink:href="#rim" fill="#404040">
                                <set attributeName="fill" to="#808080" begin="zoomminus.mouseover" end="zoomminus.mouseout"/>
                        </use>
                        <path d="M-4,0h8" fill="none" stroke="white" stroke-width="1.5" pointer-events="none"/>
                </g>
                <g id="dirArrow">
                        <path fill="none" stroke="white" stroke-width="1.5" d="M0,-3.0v7 M-2.5,-0.5L0,-3.0L2.5,-0.5"/>
                </g>
               <g id="resetDef">
                       <use xlink:href="#rim2" fill="#404040">
                               <set attributeName="fill" to="#808080" begin="reset.mouseover" end="reset.mouseout"/>
                       </use>
               </g>
        </defs>

<script type="text/javascript">
var viewWidth = 1541;
var viewHeight = 276;
var sectionId = 'dynsection-0';
</script>
<script xlink:href="svgpan.js"/>
<svg id="graph" class="graph">
<g id="viewport">
<title>ccf::CreateNetworkNodeToNode::In</title>
<polygon fill="white" stroke="transparent" points="-4,4 -4,-271.5 1537,-271.5 1537,4 -4,4"/>
<!-- Node1 -->
<g id="node1" class="node">
<title>Node1</title>
<g id="a_node1"><a xlink:title=" ">
<polygon fill="#bfbfbf" stroke="black" points="1387,-113.5 1387,-143.5 1533,-143.5 1533,-113.5 1387,-113.5"/>
<text text-anchor="start" x="1395" y="-131.5" font-family="Helvetica,sans-Serif" font-size="10.00">ccf::CreateNetworkNodeTo</text>
<text text-anchor="middle" x="1460" y="-120.5" font-family="Helvetica,sans-Serif" font-size="10.00">Node::In</text>
</a>
</g>
</g>
<!-- Node2 -->
<g id="node2" class="node">
<title>Node2</title>
<g id="a_node2"><a xlink:href="structccf_1_1EntityId.html" target="_top" xlink:title=" ">
<polygon fill="white" stroke="black" points="1043,-244 1043,-263 1222,-263 1222,-244 1043,-244"/>
<text text-anchor="middle" x="1132.5" y="-251" font-family="Helvetica,sans-Serif" font-size="10.00">ccf::EntityId&lt; NodeIdFormatter &gt;</text>
</a>
</g>
</g>
<!-- Node2&#45;&gt;Node1 -->
<g id="edge1" class="edge">
<title>Node2&#45;&gt;Node1</title>
<path fill="none" stroke="#9a32cd" stroke-dasharray="5,2" d="M1232.31,-257.43C1276.24,-255.43 1327.32,-247.72 1369,-226.5 1406.46,-207.42 1436.15,-165.94 1450.18,-143.55"/>
<polygon fill="#9a32cd" stroke="#9a32cd" points="1232.05,-253.93 1222.19,-257.8 1232.31,-260.93 1232.05,-253.93"/>
<text text-anchor="middle" x="1304.5" y="-259.5" font-family="Helvetica,sans-Serif" font-size="10.00"> node_id</text>
</g>
<!-- Node3 -->
<g id="node3" class="node">
<title>Node3</title>
<g id="a_node3"><a xlink:href="classcrypto_1_1Pem.html" target="_top" xlink:title=" ">
<polygon fill="white" stroke="black" points="1095,-157 1095,-176 1170,-176 1170,-157 1095,-157"/>
<text text-anchor="middle" x="1132.5" y="-164" font-family="Helvetica,sans-Serif" font-size="10.00">crypto::Pem</text>
</a>
</g>
</g>
<!-- Node3&#45;&gt;Node1 -->
<g id="edge2" class="edge">
<title>Node3&#45;&gt;Node1</title>
<path fill="none" stroke="#9a32cd" stroke-dasharray="5,2" d="M1180.28,-162.47C1227.87,-158.19 1303.68,-150.9 1369,-142.5 1374.8,-141.75 1380.81,-140.93 1386.84,-140.07"/>
<polygon fill="#9a32cd" stroke="#9a32cd" points="1179.93,-158.98 1170.28,-163.36 1180.55,-165.95 1179.93,-158.98"/>
<text text-anchor="start" x="1240" y="-214.5" font-family="Helvetica,sans-Serif" font-size="10.00"> certificate_signing</text>
<text text-anchor="middle" x="1304.5" y="-203.5" font-family="Helvetica,sans-Serif" font-size="10.00">_request</text>
<text text-anchor="middle" x="1304.5" y="-192.5" font-family="Helvetica,sans-Serif" font-size="10.00">node_endorsed_certificate</text>
<text text-anchor="middle" x="1304.5" y="-181.5" font-family="Helvetica,sans-Serif" font-size="10.00">public_encryption_key</text>
<text text-anchor="middle" x="1304.5" y="-170.5" font-family="Helvetica,sans-Serif" font-size="10.00">public_key</text>
<text text-anchor="middle" x="1304.5" y="-159.5" font-family="Helvetica,sans-Serif" font-size="10.00">service_cert</text>
</g>
<!-- Node4 -->
<g id="node4" class="node">
<title>Node4</title>
<g id="a_node4"><a xlink:href="structccf_1_1QuoteInfo.html" target="_top" xlink:title=" ">
<polygon fill="white" stroke="black" points="1090.5,-119 1090.5,-138 1174.5,-138 1174.5,-119 1090.5,-119"/>
<text text-anchor="middle" x="1132.5" y="-126" font-family="Helvetica,sans-Serif" font-size="10.00">ccf::QuoteInfo</text>
</a>
</g>
</g>
<!-- Node4&#45;&gt;Node1 -->
<g id="edge3" class="edge">
<title>Node4&#45;&gt;Node1</title>
<path fill="none" stroke="#9a32cd" stroke-dasharray="5,2" d="M1184.83,-128.5C1239.25,-128.5 1325.63,-128.5 1386.88,-128.5"/>
<polygon fill="#9a32cd" stroke="#9a32cd" points="1184.72,-125 1174.72,-128.5 1184.72,-132 1184.72,-125"/>
<text text-anchor="middle" x="1304.5" y="-131.5" font-family="Helvetica,sans-Serif" font-size="10.00"> quote_info</text>
</g>
<!-- Node5 -->
<g id="node5" class="node">
<title>Node5</title>
<g id="a_node5"><a xlink:title=" ">
<polygon fill="white" stroke="black" points="802,-130 802,-149 927,-149 927,-130 802,-130"/>
<text text-anchor="middle" x="864.5" y="-137" font-family="Helvetica,sans-Serif" font-size="10.00">std::vector&lt; uint8_t &gt;</text>
</a>
</g>
</g>
<!-- Node5&#45;&gt;Node4 -->
<g id="edge4" class="edge">
<title>Node5&#45;&gt;Node4</title>
<path fill="none" stroke="#9a32cd" stroke-dasharray="5,2" d="M937.43,-136.53C986.49,-134.5 1049.69,-131.88 1090.41,-130.2"/>
<polygon fill="#9a32cd" stroke="#9a32cd" points="937.04,-133.04 927.19,-136.95 937.33,-140.03 937.04,-133.04"/>
<text text-anchor="middle" x="988.5" y="-149.5" font-family="Helvetica,sans-Serif" font-size="10.00"> endorsements</text>
<text text-anchor="middle" x="988.5" y="-138.5" font-family="Helvetica,sans-Serif" font-size="10.00">quote</text>
</g>
<!-- Node6 -->
<g id="node6" class="node">
<title>Node6</title>
<g id="a_node6"><a xlink:href="structccf_1_1CodeDigest.html" target="_top" xlink:title=" ">
<polygon fill="white" stroke="black" points="1086.5,-81 1086.5,-100 1178.5,-100 1178.5,-81 1086.5,-81"/>
<text text-anchor="middle" x="1132.5" y="-88" font-family="Helvetica,sans-Serif" font-size="10.00">ccf::CodeDigest</text>
</a>
</g>
</g>
<!-- Node6&#45;&gt;Node1 -->
<g id="edge5" class="edge">
<title>Node6&#45;&gt;Node1</title>
<path fill="none" stroke="#9a32cd" stroke-dasharray="5,2" d="M1188.89,-94.84C1236.69,-98.84 1307.53,-105.39 1369,-113.5 1374.81,-114.27 1380.82,-115.13 1386.85,-116.03"/>
<polygon fill="#9a32cd" stroke="#9a32cd" points="1189.01,-91.34 1178.75,-94 1188.43,-98.32 1189.01,-91.34"/>
<text text-anchor="middle" x="1304.5" y="-116.5" font-family="Helvetica,sans-Serif" font-size="10.00"> code_digest</text>
</g>
<!-- Node7 -->
<g id="node7" class="node">
<title>Node7</title>
<g id="a_node7"><a xlink:title=" ">
<polygon fill="white" stroke="black" points="806,-70 806,-111 923,-111 923,-70 806,-70"/>
<text text-anchor="start" x="814" y="-99" font-family="Helvetica,sans-Serif" font-size="10.00">std::array&lt; uint8_t,</text>
<text text-anchor="start" x="814" y="-88" font-family="Helvetica,sans-Serif" font-size="10.00"> crypto::Sha256Hash</text>
<text text-anchor="middle" x="864.5" y="-77" font-family="Helvetica,sans-Serif" font-size="10.00">::SIZE &gt;</text>
</a>
</g>
</g>
<!-- Node7&#45;&gt;Node6 -->
<g id="edge6" class="edge">
<title>Node7&#45;&gt;Node6</title>
<path fill="none" stroke="#9a32cd" stroke-dasharray="5,2" d="M933.52,-90.5C981.45,-90.5 1044.32,-90.5 1086.23,-90.5"/>
<polygon fill="#9a32cd" stroke="#9a32cd" points="933.22,-87 923.22,-90.5 933.22,-94 933.22,-87"/>
<text text-anchor="middle" x="988.5" y="-93.5" font-family="Helvetica,sans-Serif" font-size="10.00"> data</text>
</g>
<!-- Node8 -->
<g id="node8" class="node">
<title>Node8</title>
<g id="a_node8"><a xlink:href="structccf_1_1NodeInfoNetwork.html" target="_top" xlink:title=" ">
<polygon fill="white" stroke="black" points="1071.5,-40 1071.5,-59 1193.5,-59 1193.5,-40 1071.5,-40"/>
<text text-anchor="middle" x="1132.5" y="-47" font-family="Helvetica,sans-Serif" font-size="10.00">ccf::NodeInfoNetwork</text>
</a>
</g>
</g>
<!-- Node8&#45;&gt;Node1 -->
<g id="edge7" class="edge">
<title>Node8&#45;&gt;Node1</title>
<path fill="none" stroke="#9a32cd" stroke-dasharray="5,2" d="M1203.89,-53.75C1251.39,-58.04 1315.01,-66.59 1369,-83.5 1392.17,-90.76 1416.71,-103.4 1434.31,-113.44"/>
<polygon fill="#9a32cd" stroke="#9a32cd" points="1203.97,-50.24 1193.71,-52.87 1203.37,-57.22 1203.97,-50.24"/>
<text text-anchor="middle" x="1304.5" y="-86.5" font-family="Helvetica,sans-Serif" font-size="10.00"> node_info_network</text>
</g>
<!-- Node9 -->
<g id="node9" class="node">
<title>Node9</title>
<g id="a_node9"><a xlink:href="structccf_1_1NodeInfoNetwork__v2.html" target="_top" xlink:title=" ">
<polygon fill="white" stroke="black" points="795,-32 795,-51 934,-51 934,-32 795,-32"/>
<text text-anchor="middle" x="864.5" y="-39" font-family="Helvetica,sans-Serif" font-size="10.00">ccf::NodeInfoNetwork_v2</text>
</a>
</g>
</g>
<!-- Node9&#45;&gt;Node8 -->
<g id="edge8" class="edge">
<title>Node9&#45;&gt;Node8</title>
<path fill="none" stroke="midnightblue" d="M944.16,-43.87C984.86,-45.09 1033.75,-46.56 1071.38,-47.69"/>
<polygon fill="midnightblue" stroke="midnightblue" points="944.1,-40.36 934,-43.56 943.89,-47.36 944.1,-40.36"/>
</g>
<!-- Node10 -->
<g id="node10" class="node">
<title>Node10</title>
<g id="a_node10"><a xlink:href="structccf_1_1NodeInfoNetwork__v2_1_1NetInterface.html" target="_top" xlink:title=" ">
<polygon fill="white" stroke="black" points="333,-38.5 333,-68.5 455,-68.5 455,-38.5 333,-38.5"/>
<text text-anchor="start" x="341" y="-56.5" font-family="Helvetica,sans-Serif" font-size="10.00">ccf::NodeInfoNetwork</text>
<text text-anchor="middle" x="394" y="-45.5" font-family="Helvetica,sans-Serif" font-size="10.00">_v2::NetInterface</text>
</a>
</g>
</g>
<!-- Node10&#45;&gt;Node9 -->
<g id="edge9" class="edge">
<title>Node10&#45;&gt;Node9</title>
<path fill="none" stroke="#9a32cd" stroke-dasharray="5,2" d="M465.18,-53.79C483.66,-53.79 503.58,-53.72 522,-53.5 635.36,-52.17 663.76,-52.76 777,-47.5 782.71,-47.23 788.64,-46.92 794.58,-46.57"/>
<polygon fill="#9a32cd" stroke="#9a32cd" points="465.08,-50.3 455.08,-53.79 465.08,-57.3 465.08,-50.3"/>
<text text-anchor="middle" x="613" y="-56.5" font-family="Helvetica,sans-Serif" font-size="10.00"> node_to_node_interface</text>
</g>
<!-- Node13 -->
<g id="node13" class="node">
<title>Node13</title>
<g id="a_node13"><a xlink:title=" ">
<polygon fill="white" stroke="black" points="540,-0.5 540,-30.5 686,-30.5 686,-0.5 540,-0.5"/>
<text text-anchor="start" x="548" y="-18.5" font-family="Helvetica,sans-Serif" font-size="10.00">std::map&lt; RpcInterfaceID,</text>
<text text-anchor="middle" x="613" y="-7.5" font-family="Helvetica,sans-Serif" font-size="10.00"> NetInterface &gt;</text>
</a>
</g>
</g>
<!-- Node10&#45;&gt;Node13 -->
<g id="edge14" class="edge">
<title>Node10&#45;&gt;Node13</title>
<path fill="none" stroke="#9a32cd" stroke-dasharray="5,2" d="M465.19,-41.21C489.06,-37.03 515.75,-32.35 539.77,-28.15"/>
<polygon fill="#9a32cd" stroke="#9a32cd" points="464.4,-37.79 455.16,-42.97 465.61,-44.69 464.4,-37.79"/>
<text text-anchor="middle" x="497.5" y="-42.5" font-family="Helvetica,sans-Serif" font-size="10.00"> elements</text>
</g>
<!-- Node11 -->
<g id="node11" class="node">
<title>Node11</title>
<g id="a_node11"><a xlink:title=" ">
<polygon fill="white" stroke="black" points="141,-15 141,-34 206,-34 206,-15 141,-15"/>
<text text-anchor="middle" x="173.5" y="-22" font-family="Helvetica,sans-Serif" font-size="10.00">std::string</text>
</a>
</g>
</g>
<!-- Node11&#45;&gt;Node10 -->
<g id="edge10" class="edge">
<title>Node11&#45;&gt;Node10</title>
<path fill="none" stroke="#9a32cd" stroke-dasharray="5,2" d="M216.47,-30.07C249.43,-34.45 295.77,-40.6 332.7,-45.5"/>
<polygon fill="#9a32cd" stroke="#9a32cd" points="216.65,-26.56 206.27,-28.72 215.72,-33.5 216.65,-26.56"/>
<text text-anchor="middle" x="269.5" y="-56.5" font-family="Helvetica,sans-Serif" font-size="10.00"> bind_address</text>
<text text-anchor="middle" x="269.5" y="-45.5" font-family="Helvetica,sans-Serif" font-size="10.00">published_address</text>
</g>
<!-- Node11&#45;&gt;Node13 -->
<g id="edge13" class="edge">
<title>Node11&#45;&gt;Node13</title>
<path fill="none" stroke="#9a32cd" stroke-dasharray="5,2" d="M216.37,-22.23C248.31,-20.6 293.42,-18.52 333,-17.5 403.21,-15.7 483.4,-15.3 539.73,-15.29"/>
<polygon fill="#9a32cd" stroke="#9a32cd" points="215.87,-18.75 206.06,-22.76 216.23,-25.74 215.87,-18.75"/>
<text text-anchor="middle" x="394" y="-20.5" font-family="Helvetica,sans-Serif" font-size="10.00"> keys</text>
</g>
<!-- Node12 -->
<g id="node12" class="node">
<title>Node12</title>
<g id="a_node12"><a xlink:title=" ">
<polygon fill="white" stroke="black" points="0,-9.5 0,-39.5 104,-39.5 104,-9.5 0,-9.5"/>
<text text-anchor="start" x="8" y="-27.5" font-family="Helvetica,sans-Serif" font-size="10.00">std::basic_string&lt;</text>
<text text-anchor="middle" x="52" y="-16.5" font-family="Helvetica,sans-Serif" font-size="10.00"> Char &gt;</text>
</a>
</g>
</g>
<!-- Node12&#45;&gt;Node11 -->
<g id="edge11" class="edge">
<title>Node12&#45;&gt;Node11</title>
<path fill="none" stroke="midnightblue" d="M114.1,-24.5C123.41,-24.5 132.68,-24.5 141,-24.5"/>
<polygon fill="midnightblue" stroke="midnightblue" points="114.03,-21 104.03,-24.5 114.03,-28 114.03,-21"/>
</g>
<!-- Node13&#45;&gt;Node9 -->
<g id="edge12" class="edge">
<title>Node13&#45;&gt;Node9</title>
<path fill="none" stroke="#9a32cd" stroke-dasharray="5,2" d="M696.37,-24.08C728.31,-27.41 764.44,-31.18 794.93,-34.35"/>
<polygon fill="#9a32cd" stroke="#9a32cd" points="696.47,-20.58 686.17,-23.02 695.75,-27.54 696.47,-20.58"/>
<text text-anchor="middle" x="740.5" y="-35.5" font-family="Helvetica,sans-Serif" font-size="10.00"> rpc_interfaces</text>
</g>
</g>
</svg>
        <g id="navigator" transform="translate(0 0)" fill="#404254">
                <rect fill="#f2f5e9" fill-opacity="0.5" stroke="#606060" stroke-width=".5" x="0" y="0" width="60" height="60"/>
                <use id="zoomplus" xlink:href="#zoomPlus" x="17" y="9" onmousedown="handleZoom(evt,'in')"/>
                <use id="zoomminus" xlink:href="#zoomMin" x="42" y="9" onmousedown="handleZoom(evt,'out')"/>
                <use id="reset" xlink:href="#resetDef" x="30" y="36" onmousedown="handleReset()"/>
                <g id="arrowUp" xlink:href="#dirArrow" transform="translate(30 24)" onmousedown="handlePan(0,-1)">
                  <use xlink:href="#rim" fill="#404040">
                        <set attributeName="fill" to="#808080" begin="arrowUp.mouseover" end="arrowUp.mouseout"/>
                  </use>
                  <path fill="none" stroke="white" stroke-width="1.5" d="M0,-3.0v7 M-2.5,-0.5L0,-3.0L2.5,-0.5"/>
                </g>
                <g id="arrowRight" xlink:href="#dirArrow" transform="rotate(90) translate(36 -43)" onmousedown="handlePan(1,0)">
                  <use xlink:href="#rim" fill="#404040">
                        <set attributeName="fill" to="#808080" begin="arrowRight.mouseover" end="arrowRight.mouseout"/>
                  </use>
                  <path fill="none" stroke="white" stroke-width="1.5" d="M0,-3.0v7 M-2.5,-0.5L0,-3.0L2.5,-0.5"/>
                </g>
                <g id="arrowDown" xlink:href="#dirArrow" transform="rotate(180) translate(-30 -48)" onmousedown="handlePan(0,1)">
                  <use xlink:href="#rim" fill="#404040">
                        <set attributeName="fill" to="#808080" begin="arrowDown.mouseover" end="arrowDown.mouseout"/>
                  </use>
                  <path fill="none" stroke="white" stroke-width="1.5" d="M0,-3.0v7 M-2.5,-0.5L0,-3.0L2.5,-0.5"/>
                </g>
                <g id="arrowLeft" xlink:href="#dirArrow" transform="rotate(270) translate(-36 17)" onmousedown="handlePan(-1,0)">
                  <use xlink:href="#rim" fill="#404040">
                        <set attributeName="fill" to="#808080" begin="arrowLeft.mouseover" end="arrowLeft.mouseout"/>
                  </use>
                  <path fill="none" stroke="white" stroke-width="1.5" d="M0,-3.0v7 M-2.5,-0.5L0,-3.0L2.5,-0.5"/>
                </g>
        </g>
        <svg viewBox="0 0 15 15" width="100%" height="30px" preserveAspectRatio="xMaxYMin meet">
         <g id="arrow_out" transform="scale(0.3 0.3)">
          <a xlink:href="structccf_1_1CreateNetworkNodeToNode_1_1In__coll__graph_org.svg" target="_base">
           <rect id="button" ry="5" rx="5" y="6" x="6" height="38" width="38"
                fill="#f2f5e9" fill-opacity="0.5" stroke="#606060" stroke-width="1.0"/>
           <path id="arrow"
             d="M 11.500037,31.436501 C 11.940474,20.09759 22.043105,11.32322 32.158766,21.979434 L 37.068811,17.246167 C 37.068811,17.246167 37.088388,32 37.088388,32 L 22.160133,31.978069 C 22.160133,31.978069 26.997745,27.140456 26.997745,27.140456 C 18.528582,18.264221 13.291696,25.230495 11.500037,31.436501 z"
             style="fill:#404040;"/>
          </a>
         </g>
        </svg>
</svg>
