<?xml version="1.0" encoding="UTF-8" standalone="no"?>
<!DOCTYPE svg PUBLIC "-//W3C//DTD SVG 1.1//EN"
 "http://www.w3.org/Graphics/SVG/1.1/DTD/svg11.dtd">
<!-- Generated by graphviz version 2.43.0 (0)
 -->
<!-- Title: src/ds/unit_strings.h Pages: 1 -->
<svg width="1150pt" height="710pt"
 viewBox="0.00 0.00 1150.27 710.00" xmlns="http://www.w3.org/2000/svg" xmlns:xlink="http://www.w3.org/1999/xlink">
<g id="graph0" class="graph" transform="scale(1 1) rotate(0) translate(4 706)">
<title>src/ds/unit_strings.h</title>
<polygon fill="white" stroke="transparent" points="-4,4 -4,-706 1146.27,-706 1146.27,4 -4,4"/>
<!-- Node1 -->
<g id="node1" class="node">
<title>Node1</title>
<g id="a_node1"><a xlink:title=" ">
<polygon fill="#bfbfbf" stroke="black" points="740.77,-682.5 740.77,-701.5 854.77,-701.5 854.77,-682.5 740.77,-682.5"/>
<text text-anchor="middle" x="797.77" y="-689.5" font-family="Helvetica,sans-Serif" font-size="10.00">src/ds/unit_strings.h</text>
</a>
</g>
</g>
<!-- Node2 -->
<g id="node2" class="node">
<title>Node2</title>
<g id="a_node2"><a xlink:href="common_2configuration_8h.html" target="_top" xlink:title=" ">
<polygon fill="white" stroke="black" points="678.77,-559.5 678.77,-578.5 830.77,-578.5 830.77,-559.5 678.77,-559.5"/>
<text text-anchor="middle" x="754.77" y="-566.5" font-family="Helvetica,sans-Serif" font-size="10.00">src/common/configuration.h</text>
</a>
</g>
</g>
<!-- Node1&#45;&gt;Node2 -->
<g id="edge1" class="edge">
<title>Node1&#45;&gt;Node2</title>
<path fill="none" stroke="midnightblue" d="M794.06,-672.43C790.66,-656.82 785.06,-634.08 777.77,-615 772.76,-601.89 765.03,-587.59 759.93,-578.71"/>
<polygon fill="midnightblue" stroke="midnightblue" points="790.66,-673.3 796.13,-682.38 797.52,-671.87 790.66,-673.3"/>
</g>
<!-- Node3 -->
<g id="node3" class="node">
<title>Node3</title>
<g id="a_node3"><a xlink:href="host_2configuration_8h.html" target="_top" xlink:title=" ">
<polygon fill="white" stroke="black" points="825.27,-498 825.27,-517 956.27,-517 956.27,-498 825.27,-498"/>
<text text-anchor="middle" x="890.77" y="-505" font-family="Helvetica,sans-Serif" font-size="10.00">src/host/configuration.h</text>
</a>
</g>
</g>
<!-- Node1&#45;&gt;Node3 -->
<g id="edge50" class="edge">
<title>Node1&#45;&gt;Node3</title>
<path fill="none" stroke="midnightblue" d="M806.83,-673.21C826.39,-634.83 871.94,-545.45 886.33,-517.21"/>
<polygon fill="midnightblue" stroke="midnightblue" points="803.68,-671.7 802.25,-682.2 809.91,-674.88 803.68,-671.7"/>
</g>
<!-- Node19 -->
<g id="node19" class="node">
<title>Node19</title>
<g id="a_node19"><a xlink:href="consensus__types_8h.html" target="_top" xlink:title=" ">
<polygon fill="white" stroke="black" points="630.27,-615.5 630.27,-645.5 769.27,-645.5 769.27,-615.5 630.27,-615.5"/>
<text text-anchor="start" x="638.27" y="-633.5" font-family="Helvetica,sans-Serif" font-size="10.00">src/consensus/consensus</text>
<text text-anchor="middle" x="699.77" y="-622.5" font-family="Helvetica,sans-Serif" font-size="10.00">_types.h</text>
</a>
</g>
</g>
<!-- Node1&#45;&gt;Node19 -->
<g id="edge27" class="edge">
<title>Node1&#45;&gt;Node19</title>
<path fill="none" stroke="midnightblue" d="M775.17,-677.28C759.48,-667.75 738.66,-655.11 722.87,-645.52"/>
<polygon fill="midnightblue" stroke="midnightblue" points="773.36,-680.28 783.73,-682.48 777,-674.29 773.36,-680.28"/>
</g>
<!-- Node2&#45;&gt;Node3 -->
<g id="edge2" class="edge">
<title>Node2&#45;&gt;Node3</title>
<path fill="none" stroke="midnightblue" d="M783.74,-555.33C810.14,-543.78 848.41,-527.03 871.32,-517.01"/>
<polygon fill="midnightblue" stroke="midnightblue" points="782.01,-552.26 774.25,-559.48 784.82,-558.67 782.01,-552.26"/>
</g>
<!-- Node5 -->
<g id="node5" class="node">
<title>Node5</title>
<g id="a_node5"><a xlink:href="node__call__types_8h.html" target="_top" xlink:title=" ">
<polygon fill="white" stroke="black" points="682.27,-492.5 682.27,-522.5 807.27,-522.5 807.27,-492.5 682.27,-492.5"/>
<text text-anchor="start" x="690.27" y="-510.5" font-family="Helvetica,sans-Serif" font-size="10.00">src/node/rpc/node_call</text>
<text text-anchor="middle" x="744.77" y="-499.5" font-family="Helvetica,sans-Serif" font-size="10.00">_types.h</text>
</a>
</g>
</g>
<!-- Node2&#45;&gt;Node5 -->
<g id="edge4" class="edge">
<title>Node2&#45;&gt;Node5</title>
<path fill="none" stroke="midnightblue" d="M751.66,-549.53C750.2,-540.81 748.48,-530.59 747.13,-522.52"/>
<polygon fill="midnightblue" stroke="midnightblue" points="748.23,-550.19 753.34,-559.48 755.13,-549.03 748.23,-550.19"/>
</g>
<!-- Node4 -->
<g id="node4" class="node">
<title>Node4</title>
<g id="a_node4"><a xlink:href="host_2main_8cpp.html" target="_top" xlink:title=" ">
<polygon fill="white" stroke="black" points="1039.27,-364 1039.27,-383 1142.27,-383 1142.27,-364 1039.27,-364"/>
<text text-anchor="middle" x="1090.77" y="-371" font-family="Helvetica,sans-Serif" font-size="10.00">src/host/main.cpp</text>
</a>
</g>
</g>
<!-- Node3&#45;&gt;Node4 -->
<g id="edge3" class="edge">
<title>Node3&#45;&gt;Node4</title>
<path fill="none" stroke="midnightblue" d="M951.73,-495.48C980.37,-487.99 1013.66,-475.73 1038.77,-456 1064.24,-435.99 1080.86,-399.83 1087.5,-383.24"/>
<polygon fill="midnightblue" stroke="midnightblue" points="950.68,-492.13 941.81,-497.93 952.36,-498.93 950.68,-492.13"/>
</g>
<!-- Node6 -->
<g id="node6" class="node">
<title>Node6</title>
<g id="a_node6"><a xlink:href="call__types_8h.html" target="_top" xlink:title=" ">
<polygon fill="white" stroke="black" points="676.27,-431 676.27,-450 813.27,-450 813.27,-431 676.27,-431"/>
<text text-anchor="middle" x="744.77" y="-438" font-family="Helvetica,sans-Serif" font-size="10.00">src/node/rpc/call_types.h</text>
</a>
</g>
</g>
<!-- Node5&#45;&gt;Node6 -->
<g id="edge5" class="edge">
<title>Node5&#45;&gt;Node6</title>
<path fill="none" stroke="midnightblue" d="M744.77,-482.25C744.77,-471.02 744.77,-458.38 744.77,-450.19"/>
<polygon fill="midnightblue" stroke="midnightblue" points="741.27,-482.4 744.77,-492.4 748.27,-482.4 741.27,-482.4"/>
</g>
<!-- Node7 -->
<g id="node7" class="node">
<title>Node7</title>
<g id="a_node7"><a xlink:href="nobuiltins_8cpp.html" target="_top" xlink:title=" ">
<polygon fill="white" stroke="black" points="981.27,-291.5 981.27,-321.5 1116.27,-321.5 1116.27,-291.5 981.27,-291.5"/>
<text text-anchor="start" x="989.27" y="-309.5" font-family="Helvetica,sans-Serif" font-size="10.00">samples/apps/nobuiltins</text>
<text text-anchor="middle" x="1048.77" y="-298.5" font-family="Helvetica,sans-Serif" font-size="10.00">/nobuiltins.cpp</text>
</a>
</g>
</g>
<!-- Node6&#45;&gt;Node7 -->
<g id="edge6" class="edge">
<title>Node6&#45;&gt;Node7</title>
<path fill="none" stroke="midnightblue" d="M809.11,-429.28C865.52,-419.57 942.63,-404.21 969.77,-389 999.85,-372.14 1025.72,-340.25 1039.08,-321.75"/>
<polygon fill="midnightblue" stroke="midnightblue" points="808.46,-425.84 799.19,-430.97 809.63,-432.74 808.46,-425.84"/>
</g>
<!-- Node8 -->
<g id="node8" class="node">
<title>Node8</title>
<g id="a_node8"><a xlink:href="common__endpoint__registry_8cpp.html" target="_top" xlink:title=" ">
<polygon fill="white" stroke="black" points="658.77,-291.5 658.77,-321.5 786.77,-321.5 786.77,-291.5 658.77,-291.5"/>
<text text-anchor="start" x="666.77" y="-309.5" font-family="Helvetica,sans-Serif" font-size="10.00">src/endpoints/common</text>
<text text-anchor="middle" x="722.77" y="-298.5" font-family="Helvetica,sans-Serif" font-size="10.00">_endpoint_registry.cpp</text>
</a>
</g>
</g>
<!-- Node6&#45;&gt;Node8 -->
<g id="edge7" class="edge">
<title>Node6&#45;&gt;Node8</title>
<path fill="none" stroke="midnightblue" d="M717.19,-425.9C703.22,-417.4 687.6,-405 679.77,-389 673.71,-376.62 675.01,-370.93 679.77,-358 685.02,-343.74 696.29,-330.76 705.97,-321.53"/>
<polygon fill="midnightblue" stroke="midnightblue" points="715.61,-429.03 726.03,-430.93 719.07,-422.94 715.61,-429.03"/>
</g>
<!-- Node9 -->
<g id="node9" class="node">
<title>Node9</title>
<g id="a_node9"><a xlink:href="wrap_8cpp.html" target="_top" xlink:title=" ">
<polygon fill="white" stroke="black" points="689.27,-364 689.27,-383 778.27,-383 778.27,-364 689.27,-364"/>
<text text-anchor="middle" x="733.77" y="-371" font-family="Helvetica,sans-Serif" font-size="10.00">src/js/wrap.cpp</text>
</a>
</g>
</g>
<!-- Node6&#45;&gt;Node9 -->
<g id="edge8" class="edge">
<title>Node6&#45;&gt;Node9</title>
<path fill="none" stroke="midnightblue" d="M741.56,-420.54C739.47,-408.17 736.84,-392.62 735.23,-383.13"/>
<polygon fill="midnightblue" stroke="midnightblue" points="738.17,-421.46 743.29,-430.73 745.07,-420.29 738.17,-421.46"/>
</g>
<!-- Node10 -->
<g id="node10" class="node">
<title>Node10</title>
<g id="a_node10"><a xlink:href="resharing_8h.html" target="_top" xlink:title=" ">
<polygon fill="white" stroke="black" points="348.77,-297 348.77,-316 464.77,-316 464.77,-297 348.77,-297"/>
<text text-anchor="middle" x="406.77" y="-304" font-family="Helvetica,sans-Serif" font-size="10.00">src/node/resharing.h</text>
</a>
</g>
</g>
<!-- Node6&#45;&gt;Node10 -->
<g id="edge9" class="edge">
<title>Node6&#45;&gt;Node10</title>
<path fill="none" stroke="midnightblue" d="M723.87,-425.09C696.95,-407.12 648.22,-376.5 602.77,-358 574.37,-346.44 493.62,-327.18 445.08,-316.08"/>
<polygon fill="midnightblue" stroke="midnightblue" points="722.19,-428.18 732.43,-430.88 726.11,-422.38 722.19,-428.18"/>
</g>
<!-- Node15 -->
<g id="node15" class="node">
<title>Node15</title>
<g id="a_node15"><a xlink:href="member__frontend_8h.html" target="_top" xlink:title=" ">
<polygon fill="white" stroke="black" points="842.77,-291.5 842.77,-321.5 962.77,-321.5 962.77,-291.5 842.77,-291.5"/>
<text text-anchor="start" x="850.77" y="-309.5" font-family="Helvetica,sans-Serif" font-size="10.00">src/node/rpc/member</text>
<text text-anchor="middle" x="902.77" y="-298.5" font-family="Helvetica,sans-Serif" font-size="10.00">_frontend.h</text>
</a>
</g>
</g>
<!-- Node6&#45;&gt;Node15 -->
<g id="edge15" class="edge">
<title>Node6&#45;&gt;Node15</title>
<path fill="none" stroke="midnightblue" d="M823.38,-430.63C875.61,-422.93 937.47,-409.7 953.77,-389 971.22,-366.83 943.4,-338.42 922.48,-321.66"/>
<polygon fill="midnightblue" stroke="midnightblue" points="822.82,-427.17 813.42,-432.05 823.81,-434.1 822.82,-427.17"/>
</g>
<!-- Node16 -->
<g id="node16" class="node">
<title>Node16</title>
<g id="a_node16"><a xlink:href="serialization_8h.html" target="_top" xlink:title=" ">
<polygon fill="white" stroke="black" points="796.77,-364 796.77,-383 944.77,-383 944.77,-364 796.77,-364"/>
<text text-anchor="middle" x="870.77" y="-371" font-family="Helvetica,sans-Serif" font-size="10.00">src/node/rpc/serialization.h</text>
</a>
</g>
</g>
<!-- Node6&#45;&gt;Node16 -->
<g id="edge17" class="edge">
<title>Node6&#45;&gt;Node16</title>
<path fill="none" stroke="midnightblue" d="M770.41,-426.27C795.36,-413.4 832.56,-394.21 853.97,-383.17"/>
<polygon fill="midnightblue" stroke="midnightblue" points="768.78,-423.17 761.5,-430.87 771.99,-429.39 768.78,-423.17"/>
</g>
<!-- Node11 -->
<g id="node11" class="node">
<title>Node11</title>
<g id="a_node11"><a xlink:href="node__state_8h.html" target="_top" xlink:title=" ">
<polygon fill="white" stroke="black" points="499.77,-168.5 499.77,-187.5 623.77,-187.5 623.77,-168.5 499.77,-168.5"/>
<text text-anchor="middle" x="561.77" y="-175.5" font-family="Helvetica,sans-Serif" font-size="10.00">src/node/node_state.h</text>
</a>
</g>
</g>
<!-- Node10&#45;&gt;Node11 -->
<g id="edge10" class="edge">
<title>Node10&#45;&gt;Node11</title>
<path fill="none" stroke="midnightblue" d="M421.35,-289.2C437.24,-271.94 463.87,-244.41 489.77,-224 507.95,-209.68 530.91,-196 545.95,-187.56"/>
<polygon fill="midnightblue" stroke="midnightblue" points="418.6,-287.02 414.47,-296.78 423.78,-291.73 418.6,-287.02"/>
</g>
<!-- Node12 -->
<g id="node12" class="node">
<title>Node12</title>
<g id="a_node12"><a xlink:href="enclave_2enclave_8h.html" target="_top" xlink:title=" ">
<polygon fill="white" stroke="black" points="734.77,-56.5 734.77,-75.5 856.77,-75.5 856.77,-56.5 734.77,-56.5"/>
<text text-anchor="middle" x="795.77" y="-63.5" font-family="Helvetica,sans-Serif" font-size="10.00">src/enclave/enclave.h</text>
</a>
</g>
</g>
<!-- Node11&#45;&gt;Node12 -->
<g id="edge11" class="edge">
<title>Node11&#45;&gt;Node12</title>
<path fill="none" stroke="midnightblue" d="M597.97,-165.12C622.11,-156.79 654.33,-144.87 681.77,-132 719.52,-114.3 761.55,-88.69 782.45,-75.52"/>
<polygon fill="midnightblue" stroke="midnightblue" points="596.82,-161.81 588.49,-168.35 599.08,-168.44 596.82,-161.81"/>
</g>
<!-- Node14 -->
<g id="node14" class="node">
<title>Node14</title>
<g id="a_node14"><a xlink:href="gov__effects_8h.html" target="_top" xlink:title=" ">
<polygon fill="white" stroke="black" points="528.77,-112.5 528.77,-131.5 672.77,-131.5 672.77,-112.5 528.77,-112.5"/>
<text text-anchor="middle" x="600.77" y="-119.5" font-family="Helvetica,sans-Serif" font-size="10.00">src/node/rpc/gov_effects.h</text>
</a>
</g>
</g>
<!-- Node11&#45;&gt;Node14 -->
<g id="edge13" class="edge">
<title>Node11&#45;&gt;Node14</title>
<path fill="none" stroke="midnightblue" d="M574.15,-159.86C580.9,-150.5 588.98,-139.33 594.45,-131.75"/>
<polygon fill="midnightblue" stroke="midnightblue" points="571.23,-157.93 568.21,-168.08 576.9,-162.03 571.23,-157.93"/>
</g>
<!-- Node13 -->
<g id="node13" class="node">
<title>Node13</title>
<g id="a_node13"><a xlink:href="enclave_2main_8cpp.html" target="_top" xlink:title=" ">
<polygon fill="white" stroke="black" points="735.77,-0.5 735.77,-19.5 855.77,-19.5 855.77,-0.5 735.77,-0.5"/>
<text text-anchor="middle" x="795.77" y="-7.5" font-family="Helvetica,sans-Serif" font-size="10.00">src/enclave/main.cpp</text>
</a>
</g>
</g>
<!-- Node12&#45;&gt;Node13 -->
<g id="edge12" class="edge">
<title>Node12&#45;&gt;Node13</title>
<path fill="none" stroke="midnightblue" d="M795.77,-45.8C795.77,-36.91 795.77,-26.78 795.77,-19.75"/>
<polygon fill="midnightblue" stroke="midnightblue" points="792.27,-46.08 795.77,-56.08 799.27,-46.08 792.27,-46.08"/>
</g>
<!-- Node14&#45;&gt;Node12 -->
<g id="edge14" class="edge">
<title>Node14&#45;&gt;Node12</title>
<path fill="none" stroke="midnightblue" d="M641.58,-109.7C678.38,-99.51 731.7,-84.74 765.02,-75.52"/>
<polygon fill="midnightblue" stroke="midnightblue" points="640.37,-106.4 631.67,-112.44 642.24,-113.15 640.37,-106.4"/>
</g>
<!-- Node15&#45;&gt;Node12 -->
<g id="edge16" class="edge">
<title>Node15&#45;&gt;Node12</title>
<path fill="none" stroke="midnightblue" d="M904.17,-281.29C905.23,-242.23 902.23,-164.4 866.77,-112 855.16,-94.84 834.58,-82.87 818.56,-75.61"/>
<polygon fill="midnightblue" stroke="midnightblue" points="900.67,-281.31 903.78,-291.44 907.66,-281.58 900.67,-281.31"/>
</g>
<!-- Node16&#45;&gt;Node7 -->
<g id="edge18" class="edge">
<title>Node16&#45;&gt;Node7</title>
<path fill="none" stroke="midnightblue" d="M904.05,-360.35C934.22,-349.33 978.68,-333.09 1010.35,-321.53"/>
<polygon fill="midnightblue" stroke="midnightblue" points="902.6,-357.15 894.41,-363.87 905,-363.73 902.6,-357.15"/>
</g>
<!-- Node16&#45;&gt;Node8 -->
<g id="edge19" class="edge">
<title>Node16&#45;&gt;Node8</title>
<path fill="none" stroke="midnightblue" d="M841.78,-359.77C816.73,-348.77 780.58,-332.89 754.71,-321.53"/>
<polygon fill="midnightblue" stroke="midnightblue" points="840.55,-363.05 851.12,-363.87 843.37,-356.64 840.55,-363.05"/>
</g>
<!-- Node16&#45;&gt;Node10 -->
<g id="edge21" class="edge">
<title>Node16&#45;&gt;Node10</title>
<path fill="none" stroke="midnightblue" d="M814.04,-362.26C804.94,-360.75 795.6,-359.27 786.77,-358 648.16,-338.08 611.92,-344.84 473.77,-322 463.79,-320.35 453.05,-318.2 443.16,-316.06"/>
<polygon fill="midnightblue" stroke="midnightblue" points="813.75,-365.76 824.19,-363.98 814.92,-358.86 813.75,-365.76"/>
</g>
<!-- Node16&#45;&gt;Node11 -->
<g id="edge20" class="edge">
<title>Node16&#45;&gt;Node11</title>
<path fill="none" stroke="midnightblue" d="M858.37,-355.59C844.63,-337.75 821.05,-309.69 795.77,-291 727.32,-240.39 632.4,-203.46 587.4,-187.6"/>
<polygon fill="midnightblue" stroke="midnightblue" points="855.8,-358 864.62,-363.88 861.4,-353.79 855.8,-358"/>
</g>
<!-- Node16&#45;&gt;Node15 -->
<g id="edge22" class="edge">
<title>Node16&#45;&gt;Node15</title>
<path fill="none" stroke="midnightblue" d="M879.53,-354.71C884.66,-344.29 891.05,-331.3 895.83,-321.59"/>
<polygon fill="midnightblue" stroke="midnightblue" points="876.36,-353.22 875.08,-363.73 882.64,-356.31 876.36,-353.22"/>
</g>
<!-- Node17 -->
<g id="node17" class="node">
<title>Node17</title>
<g id="a_node17"><a xlink:href="node__frontend_8h.html" target="_top" xlink:title=" ">
<polygon fill="white" stroke="black" points="482.77,-297 482.77,-316 640.77,-316 640.77,-297 482.77,-297"/>
<text text-anchor="middle" x="561.77" y="-304" font-family="Helvetica,sans-Serif" font-size="10.00">src/node/rpc/node_frontend.h</text>
</a>
</g>
</g>
<!-- Node16&#45;&gt;Node17 -->
<g id="edge23" class="edge">
<title>Node16&#45;&gt;Node17</title>
<path fill="none" stroke="midnightblue" d="M819.92,-361.8C759.11,-349.01 658.55,-327.86 602.57,-316.08"/>
<polygon fill="midnightblue" stroke="midnightblue" points="819.55,-365.3 830.06,-363.94 820.99,-358.45 819.55,-365.3"/>
</g>
<!-- Node17&#45;&gt;Node12 -->
<g id="edge24" class="edge">
<title>Node17&#45;&gt;Node12</title>
<path fill="none" stroke="midnightblue" d="M584.65,-291.25C599.1,-281.77 617.8,-268.6 632.77,-255 701.2,-192.84 769.13,-103.23 789.57,-75.5"/>
<polygon fill="midnightblue" stroke="midnightblue" points="582.36,-288.56 575.85,-296.91 586.15,-294.44 582.36,-288.56"/>
</g>
<!-- Node18 -->
<g id="node18" class="node">
<title>Node18</title>
<g id="a_node18"><a xlink:href="jwt__key__auto__refresh_8h.html" target="_top" xlink:title=" ">
<polygon fill="white" stroke="black" points="499.27,-224.5 499.27,-254.5 624.27,-254.5 624.27,-224.5 499.27,-224.5"/>
<text text-anchor="start" x="507.27" y="-242.5" font-family="Helvetica,sans-Serif" font-size="10.00">src/node/jwt_key_auto</text>
<text text-anchor="middle" x="561.77" y="-231.5" font-family="Helvetica,sans-Serif" font-size="10.00">_refresh.h</text>
</a>
</g>
</g>
<!-- Node17&#45;&gt;Node18 -->
<g id="edge25" class="edge">
<title>Node17&#45;&gt;Node18</title>
<path fill="none" stroke="midnightblue" d="M561.77,-286.41C561.77,-276.22 561.77,-263.9 561.77,-254.59"/>
<polygon fill="midnightblue" stroke="midnightblue" points="558.27,-286.73 561.77,-296.73 565.27,-286.73 558.27,-286.73"/>
</g>
<!-- Node18&#45;&gt;Node11 -->
<g id="edge26" class="edge">
<title>Node18&#45;&gt;Node11</title>
<path fill="none" stroke="midnightblue" d="M561.77,-214.29C561.77,-204.86 561.77,-194.65 561.77,-187.66"/>
<polygon fill="midnightblue" stroke="midnightblue" points="558.27,-214.4 561.77,-224.4 565.27,-214.4 558.27,-214.4"/>
</g>
<!-- Node19&#45;&gt;Node2 -->
<g id="edge28" class="edge">
<title>Node19&#45;&gt;Node2</title>
<path fill="none" stroke="midnightblue" d="M719.64,-608C729.01,-597.86 739.67,-586.33 746.77,-578.66"/>
<polygon fill="midnightblue" stroke="midnightblue" points="717.02,-605.68 712.8,-615.4 722.16,-610.43 717.02,-605.68"/>
</g>
<!-- Node20 -->
<g id="node20" class="node">
<title>Node20</title>
<g id="a_node20"><a xlink:href="raft__types_8h.html" target="_top" xlink:title=" ">
<polygon fill="white" stroke="black" points="420.77,-492.5 420.77,-522.5 540.77,-522.5 540.77,-492.5 420.77,-492.5"/>
<text text-anchor="start" x="428.77" y="-510.5" font-family="Helvetica,sans-Serif" font-size="10.00">src/consensus/aft/raft</text>
<text text-anchor="middle" x="480.77" y="-499.5" font-family="Helvetica,sans-Serif" font-size="10.00">_types.h</text>
</a>
</g>
</g>
<!-- Node19&#45;&gt;Node20 -->
<g id="edge29" class="edge">
<title>Node19&#45;&gt;Node20</title>
<path fill="none" stroke="midnightblue" d="M665.29,-610.45C621.08,-586.02 545.45,-544.24 506.16,-522.53"/>
<polygon fill="midnightblue" stroke="midnightblue" points="663.77,-613.61 674.22,-615.38 667.16,-607.48 663.77,-613.61"/>
</g>
<!-- Node21 -->
<g id="node21" class="node">
<title>Node21</title>
<g id="a_node21"><a xlink:href="request__message_8h.html" target="_top" xlink:title=" ">
<polygon fill="white" stroke="black" points="509.27,-425.5 509.27,-455.5 634.27,-455.5 634.27,-425.5 509.27,-425.5"/>
<text text-anchor="start" x="517.27" y="-443.5" font-family="Helvetica,sans-Serif" font-size="10.00">src/consensus/aft/impl</text>
<text text-anchor="middle" x="571.77" y="-432.5" font-family="Helvetica,sans-Serif" font-size="10.00">/request_message.h</text>
</a>
</g>
</g>
<!-- Node20&#45;&gt;Node21 -->
<g id="edge30" class="edge">
<title>Node20&#45;&gt;Node21</title>
<path fill="none" stroke="midnightblue" d="M508.84,-486.45C522.84,-476.45 539.43,-464.6 552.06,-455.58"/>
<polygon fill="midnightblue" stroke="midnightblue" points="506.62,-483.74 500.51,-492.4 510.69,-489.43 506.62,-483.74"/>
</g>
<!-- Node22 -->
<g id="node22" class="node">
<title>Node22</title>
<g id="a_node22"><a xlink:href="state_8h.html" target="_top" xlink:title=" ">
<polygon fill="white" stroke="black" points="344.27,-358.5 344.27,-388.5 469.27,-388.5 469.27,-358.5 344.27,-358.5"/>
<text text-anchor="start" x="352.27" y="-376.5" font-family="Helvetica,sans-Serif" font-size="10.00">src/consensus/aft/impl</text>
<text text-anchor="middle" x="406.77" y="-365.5" font-family="Helvetica,sans-Serif" font-size="10.00">/state.h</text>
</a>
</g>
</g>
<!-- Node20&#45;&gt;Node22 -->
<g id="edge31" class="edge">
<title>Node20&#45;&gt;Node22</title>
<path fill="none" stroke="midnightblue" d="M467.86,-483.48C452.5,-456.07 427.34,-411.19 414.63,-388.52"/>
<polygon fill="midnightblue" stroke="midnightblue" points="464.91,-485.36 472.85,-492.37 471.01,-481.94 464.91,-485.36"/>
</g>
<!-- Node23 -->
<g id="node23" class="node">
<title>Node23</title>
<g id="a_node23"><a xlink:href="raft_8h.html" target="_top" xlink:title=" ">
<polygon fill="white" stroke="black" points="201.27,-297 201.27,-316 330.27,-316 330.27,-297 201.27,-297"/>
<text text-anchor="middle" x="265.77" y="-304" font-family="Helvetica,sans-Serif" font-size="10.00">src/consensus/aft/raft.h</text>
</a>
</g>
</g>
<!-- Node20&#45;&gt;Node23 -->
<g id="edge35" class="edge">
<title>Node20&#45;&gt;Node23</title>
<path fill="none" stroke="midnightblue" d="M410.61,-499.09C343.22,-487.84 244.9,-459.6 197.77,-389 190.12,-377.54 191.58,-370.31 197.77,-358 207.75,-338.16 229.61,-324.16 245.87,-316.01"/>
<polygon fill="midnightblue" stroke="midnightblue" points="410.3,-502.59 420.73,-500.7 411.4,-495.68 410.3,-502.59"/>
</g>
<!-- Node24 -->
<g id="node24" class="node">
<title>Node24</title>
<g id="a_node24"><a xlink:href="node__connections_8h.html" target="_top" xlink:title=" ">
<polygon fill="white" stroke="black" points="874.27,-431 874.27,-450 1029.27,-450 1029.27,-431 874.27,-431"/>
<text text-anchor="middle" x="951.77" y="-438" font-family="Helvetica,sans-Serif" font-size="10.00">src/host/node_connections.h</text>
</a>
</g>
</g>
<!-- Node20&#45;&gt;Node24 -->
<g id="edge36" class="edge">
<title>Node20&#45;&gt;Node24</title>
<path fill="none" stroke="midnightblue" d="M550.95,-496.82C642.88,-484.13 802.64,-462.08 890.13,-450.01"/>
<polygon fill="midnightblue" stroke="midnightblue" points="550.33,-493.37 540.9,-498.2 551.28,-500.3 550.33,-493.37"/>
</g>
<!-- Node25 -->
<g id="node25" class="node">
<title>Node25</title>
<g id="a_node25"><a xlink:href="node__client_8h.html" target="_top" xlink:title=" ">
<polygon fill="white" stroke="black" points="23.77,-431 23.77,-450 149.77,-450 149.77,-431 23.77,-431"/>
<text text-anchor="middle" x="86.77" y="-438" font-family="Helvetica,sans-Serif" font-size="10.00">src/node/node_client.h</text>
</a>
</g>
</g>
<!-- Node20&#45;&gt;Node25 -->
<g id="edge38" class="edge">
<title>Node20&#45;&gt;Node25</title>
<path fill="none" stroke="midnightblue" d="M410.71,-495.82C346.62,-485.94 249.21,-470.59 164.77,-456 154.05,-454.15 142.51,-452.06 131.69,-450.05"/>
<polygon fill="midnightblue" stroke="midnightblue" points="410.29,-499.3 420.7,-497.36 411.35,-492.38 410.29,-499.3"/>
</g>
<!-- Node29 -->
<g id="node29" class="node">
<title>Node29</title>
<g id="a_node29"><a xlink:href="resharing__tracker_8h.html" target="_top" xlink:title=" ">
<polygon fill="white" stroke="black" points="487.27,-358.5 487.27,-388.5 594.27,-388.5 594.27,-358.5 487.27,-358.5"/>
<text text-anchor="start" x="495.27" y="-376.5" font-family="Helvetica,sans-Serif" font-size="10.00">src/node/resharing</text>
<text text-anchor="middle" x="540.77" y="-365.5" font-family="Helvetica,sans-Serif" font-size="10.00">_tracker.h</text>
</a>
</g>
</g>
<!-- Node20&#45;&gt;Node29 -->
<g id="edge47" class="edge">
<title>Node20&#45;&gt;Node29</title>
<path fill="none" stroke="midnightblue" d="M483.5,-482.22C486.07,-465.49 490.91,-443.09 499.77,-425 506.43,-411.41 517.35,-398.21 526.25,-388.72"/>
<polygon fill="midnightblue" stroke="midnightblue" points="480.01,-481.92 482.12,-492.3 486.95,-482.87 480.01,-481.92"/>
</g>
<!-- Node22&#45;&gt;Node10 -->
<g id="edge34" class="edge">
<title>Node22&#45;&gt;Node10</title>
<path fill="none" stroke="midnightblue" d="M406.77,-348.25C406.77,-337.02 406.77,-324.38 406.77,-316.19"/>
<polygon fill="midnightblue" stroke="midnightblue" points="403.27,-348.4 406.77,-358.4 410.27,-348.4 403.27,-348.4"/>
</g>
<!-- Node22&#45;&gt;Node23 -->
<g id="edge32" class="edge">
<title>Node22&#45;&gt;Node23</title>
<path fill="none" stroke="midnightblue" d="M366.92,-354.13C339.78,-341.62 305.12,-325.64 284.22,-316.01"/>
<polygon fill="midnightblue" stroke="midnightblue" points="365.63,-357.39 376.17,-358.4 368.56,-351.03 365.63,-357.39"/>
</g>
<!-- Node23&#45;&gt;Node11 -->
<g id="edge33" class="edge">
<title>Node23&#45;&gt;Node11</title>
<path fill="none" stroke="midnightblue" d="M294.65,-292.7C331.33,-276.5 396.6,-247.83 452.77,-224 483.3,-211.05 518.84,-196.47 540.82,-187.51"/>
<polygon fill="midnightblue" stroke="midnightblue" points="292.83,-289.68 285.1,-296.93 295.66,-296.09 292.83,-289.68"/>
</g>
<!-- Node24&#45;&gt;Node4 -->
<g id="edge37" class="edge">
<title>Node24&#45;&gt;Node4</title>
<path fill="none" stroke="midnightblue" d="M979.33,-426.61C1006.86,-413.74 1048.42,-394.31 1072.23,-383.17"/>
<polygon fill="midnightblue" stroke="midnightblue" points="977.8,-423.46 970.23,-430.87 980.77,-429.8 977.8,-423.46"/>
</g>
<!-- Node25&#45;&gt;Node23 -->
<g id="edge42" class="edge">
<title>Node25&#45;&gt;Node23</title>
<path fill="none" stroke="midnightblue" d="M59.66,-425.98C31.31,-410.07 -6.46,-382.68 13.77,-358 37.03,-329.61 134.45,-316.86 201.12,-311.36"/>
<polygon fill="midnightblue" stroke="midnightblue" points="58.35,-429.25 68.81,-430.92 61.67,-423.09 58.35,-429.25"/>
</g>
<!-- Node26 -->
<g id="node26" class="node">
<title>Node26</title>
<g id="a_node26"><a xlink:href="orc__requests_8h.html" target="_top" xlink:title=" ">
<polygon fill="white" stroke="black" points="207.27,-358.5 207.27,-388.5 326.27,-388.5 326.27,-358.5 207.27,-358.5"/>
<text text-anchor="start" x="215.27" y="-376.5" font-family="Helvetica,sans-Serif" font-size="10.00">src/consensus/aft/orc</text>
<text text-anchor="middle" x="266.77" y="-365.5" font-family="Helvetica,sans-Serif" font-size="10.00">_requests.h</text>
</a>
</g>
</g>
<!-- Node25&#45;&gt;Node26 -->
<g id="edge39" class="edge">
<title>Node25&#45;&gt;Node26</title>
<path fill="none" stroke="midnightblue" d="M120.43,-427.35C150.94,-416.33 195.9,-400.09 227.92,-388.53"/>
<polygon fill="midnightblue" stroke="midnightblue" points="118.89,-424.18 110.67,-430.87 121.27,-430.76 118.89,-424.18"/>
</g>
<!-- Node27 -->
<g id="node27" class="node">
<title>Node27</title>
<g id="a_node27"><a xlink:href="http__node__client_8h.html" target="_top" xlink:title=" ">
<polygon fill="white" stroke="black" points="81.77,-224.5 81.77,-254.5 191.77,-254.5 191.77,-224.5 81.77,-224.5"/>
<text text-anchor="start" x="89.77" y="-242.5" font-family="Helvetica,sans-Serif" font-size="10.00">src/node/http_node</text>
<text text-anchor="middle" x="136.77" y="-231.5" font-family="Helvetica,sans-Serif" font-size="10.00">_client.h</text>
</a>
</g>
</g>
<!-- Node25&#45;&gt;Node27 -->
<g id="edge43" class="edge">
<title>Node25&#45;&gt;Node27</title>
<path fill="none" stroke="midnightblue" d="M50.49,-426.85C33.39,-418.84 14.61,-406.61 4.77,-389 -1.95,-376.97 -0.87,-370.57 4.77,-358 26.37,-309.85 78.53,-273.36 110.44,-254.6"/>
<polygon fill="midnightblue" stroke="midnightblue" points="49.19,-430.1 59.76,-430.87 51.98,-423.68 49.19,-430.1"/>
</g>
<!-- Node28 -->
<g id="node28" class="node">
<title>Node28</title>
<g id="a_node28"><a xlink:href="retired__nodes__cleanup_8h.html" target="_top" xlink:title=" ">
<polygon fill="white" stroke="black" points="22.77,-358.5 22.77,-388.5 150.77,-388.5 150.77,-358.5 22.77,-358.5"/>
<text text-anchor="start" x="30.77" y="-376.5" font-family="Helvetica,sans-Serif" font-size="10.00">src/node/retired_nodes</text>
<text text-anchor="middle" x="86.77" y="-365.5" font-family="Helvetica,sans-Serif" font-size="10.00">_cleanup.h</text>
</a>
</g>
</g>
<!-- Node25&#45;&gt;Node28 -->
<g id="edge45" class="edge">
<title>Node25&#45;&gt;Node28</title>
<path fill="none" stroke="midnightblue" d="M86.77,-420.41C86.77,-410.22 86.77,-397.9 86.77,-388.59"/>
<polygon fill="midnightblue" stroke="midnightblue" points="83.27,-420.73 86.77,-430.73 90.27,-420.73 83.27,-420.73"/>
</g>
<!-- Node26&#45;&gt;Node17 -->
<g id="edge41" class="edge">
<title>Node26&#45;&gt;Node17</title>
<path fill="none" stroke="midnightblue" d="M336.33,-357.17C394.53,-344.35 475.45,-326.52 522.84,-316.08"/>
<polygon fill="midnightblue" stroke="midnightblue" points="335.48,-353.78 326.47,-359.35 336.99,-360.61 335.48,-353.78"/>
</g>
<!-- Node26&#45;&gt;Node23 -->
<g id="edge40" class="edge">
<title>Node26&#45;&gt;Node23</title>
<path fill="none" stroke="midnightblue" d="M266.4,-348.25C266.22,-337.02 266.03,-324.38 265.9,-316.19"/>
<polygon fill="midnightblue" stroke="midnightblue" points="262.9,-348.45 266.55,-358.4 269.9,-348.34 262.9,-348.45"/>
</g>
<!-- Node27&#45;&gt;Node11 -->
<g id="edge44" class="edge">
<title>Node27&#45;&gt;Node11</title>
<path fill="none" stroke="midnightblue" d="M202.02,-229.36C283.44,-217.97 421.59,-198.63 500.9,-187.52"/>
<polygon fill="midnightblue" stroke="midnightblue" points="201.31,-225.93 191.89,-230.78 202.28,-232.86 201.31,-225.93"/>
</g>
<!-- Node28&#45;&gt;Node23 -->
<g id="edge46" class="edge">
<title>Node28&#45;&gt;Node23</title>
<path fill="none" stroke="midnightblue" d="M135.11,-354.95C169.88,-342.32 215.24,-325.85 242.34,-316.01"/>
<polygon fill="midnightblue" stroke="midnightblue" points="133.81,-351.69 125.61,-358.4 136.2,-358.27 133.81,-351.69"/>
</g>
<!-- Node29&#45;&gt;Node10 -->
<g id="edge49" class="edge">
<title>Node29&#45;&gt;Node10</title>
<path fill="none" stroke="midnightblue" d="M502.56,-353.97C476.82,-341.48 444.08,-325.6 424.31,-316.01"/>
<polygon fill="midnightblue" stroke="midnightblue" points="501.17,-357.18 511.69,-358.4 504.22,-350.88 501.17,-357.18"/>
</g>
<!-- Node29&#45;&gt;Node23 -->
<g id="edge48" class="edge">
<title>Node29&#45;&gt;Node23</title>
<path fill="none" stroke="midnightblue" d="M477.2,-357.47C422.74,-344.6 346.28,-326.53 301.79,-316.01"/>
<polygon fill="midnightblue" stroke="midnightblue" points="476.56,-360.92 487.09,-359.81 478.17,-354.11 476.56,-360.92"/>
</g>
</g>
</svg>
