<?xml version="1.0" encoding="UTF-8" standalone="no"?>
<!DOCTYPE svg PUBLIC "-//W3C//DTD SVG 1.1//EN"
 "http://www.w3.org/Graphics/SVG/1.1/DTD/svg11.dtd">
<!-- Generated by graphviz version 2.43.0 (0)
 -->
<!-- Title: src/host/before_io.h Pages: 1 -->
<svg width="483pt" height="207pt"
 viewBox="0.00 0.00 482.50 207.00" xmlns="http://www.w3.org/2000/svg" xmlns:xlink="http://www.w3.org/1999/xlink">
<g id="graph0" class="graph" transform="scale(1 1) rotate(0) translate(4 203)">
<title>src/host/before_io.h</title>
<polygon fill="white" stroke="transparent" points="-4,4 -4,-203 478.5,-203 478.5,4 -4,4"/>
<!-- Node1 -->
<g id="node1" class="node">
<title>Node1</title>
<g id="a_node1"><a xlink:title=" ">
<polygon fill="#bfbfbf" stroke="black" points="260,-179.5 260,-198.5 373,-198.5 373,-179.5 260,-179.5"/>
<text text-anchor="middle" x="316.5" y="-186.5" font-family="Helvetica,sans-Serif" font-size="10.00">src/host/before_io.h</text>
</a>
</g>
</g>
<!-- Node2 -->
<g id="node2" class="node">
<title>Node2</title>
<g id="a_node2"><a xlink:href="tcp_8h.html" target="_top" xlink:title=" ">
<polygon fill="white" stroke="black" points="224.5,-123.5 224.5,-142.5 306.5,-142.5 306.5,-123.5 224.5,-123.5"/>
<text text-anchor="middle" x="265.5" y="-130.5" font-family="Helvetica,sans-Serif" font-size="10.00">src/host/tcp.h</text>
</a>
</g>
</g>
<!-- Node1&#45;&gt;Node2 -->
<g id="edge1" class="edge">
<title>Node1&#45;&gt;Node2</title>
<path fill="none" stroke="midnightblue" d="M301.12,-171.72C292.13,-162.2 281.14,-150.56 273.76,-142.75"/>
<polygon fill="midnightblue" stroke="midnightblue" points="298.67,-174.22 308.08,-179.08 303.76,-169.41 298.67,-174.22"/>
</g>
<!-- Node7 -->
<g id="node7" class="node">
<title>Node7</title>
<g id="a_node7"><a xlink:href="udp_8h.html" target="_top" xlink:title=" ">
<polygon fill="white" stroke="black" points="342,-123.5 342,-142.5 427,-142.5 427,-123.5 342,-123.5"/>
<text text-anchor="middle" x="384.5" y="-130.5" font-family="Helvetica,sans-Serif" font-size="10.00">src/host/udp.h</text>
</a>
</g>
</g>
<!-- Node1&#45;&gt;Node7 -->
<g id="edge8" class="edge">
<title>Node1&#45;&gt;Node7</title>
<path fill="none" stroke="midnightblue" d="M335.26,-173.1C347.5,-163.38 363.06,-151.03 373.38,-142.83"/>
<polygon fill="midnightblue" stroke="midnightblue" points="333.08,-170.36 327.43,-179.32 337.43,-175.85 333.08,-170.36"/>
</g>
<!-- Node3 -->
<g id="node3" class="node">
<title>Node3</title>
<g id="a_node3"><a xlink:href="acme__challenge__server_8h.html" target="_top" xlink:title=" ">
<polygon fill="white" stroke="black" points="0,-56.5 0,-86.5 137,-86.5 137,-56.5 0,-56.5"/>
<text text-anchor="start" x="8" y="-74.5" font-family="Helvetica,sans-Serif" font-size="10.00">src/host/acme_challenge</text>
<text text-anchor="middle" x="68.5" y="-63.5" font-family="Helvetica,sans-Serif" font-size="10.00">_server.h</text>
</a>
</g>
</g>
<!-- Node2&#45;&gt;Node3 -->
<g id="edge2" class="edge">
<title>Node2&#45;&gt;Node3</title>
<path fill="none" stroke="midnightblue" d="M227.37,-120.48C195.25,-110.78 149.19,-96.87 114.93,-86.52"/>
<polygon fill="midnightblue" stroke="midnightblue" points="226.69,-123.93 237.27,-123.48 228.71,-117.23 226.69,-123.93"/>
</g>
<!-- Node5 -->
<g id="node5" class="node">
<title>Node5</title>
<g id="a_node5"><a xlink:href="node__connections_8h.html" target="_top" xlink:title=" ">
<polygon fill="white" stroke="black" points="155,-62 155,-81 310,-81 310,-62 155,-62"/>
<text text-anchor="middle" x="232.5" y="-69" font-family="Helvetica,sans-Serif" font-size="10.00">src/host/node_connections.h</text>
</a>
</g>
</g>
<!-- Node2&#45;&gt;Node5 -->
<g id="edge4" class="edge">
<title>Node2&#45;&gt;Node5</title>
<path fill="none" stroke="midnightblue" d="M255.89,-114.67C249.75,-103.61 242.07,-89.75 237.22,-81.01"/>
<polygon fill="midnightblue" stroke="midnightblue" points="252.86,-116.43 260.77,-123.48 258.98,-113.03 252.86,-116.43"/>
</g>
<!-- Node6 -->
<g id="node6" class="node">
<title>Node6</title>
<g id="a_node6"><a xlink:href="rpc__connections_8h.html" target="_top" xlink:title=" ">
<polygon fill="white" stroke="black" points="328.5,-62 328.5,-81 474.5,-81 474.5,-62 328.5,-62"/>
<text text-anchor="middle" x="401.5" y="-69" font-family="Helvetica,sans-Serif" font-size="10.00">src/host/rpc_connections.h</text>
</a>
</g>
</g>
<!-- Node2&#45;&gt;Node6 -->
<g id="edge6" class="edge">
<title>Node2&#45;&gt;Node6</title>
<path fill="none" stroke="midnightblue" d="M294.47,-119.33C320.87,-107.78 359.14,-91.03 382.05,-81.01"/>
<polygon fill="midnightblue" stroke="midnightblue" points="292.74,-116.26 284.99,-123.48 295.55,-122.67 292.74,-116.26"/>
</g>
<!-- Node4 -->
<g id="node4" class="node">
<title>Node4</title>
<g id="a_node4"><a xlink:href="host_2main_8cpp.html" target="_top" xlink:title=" ">
<polygon fill="white" stroke="black" points="181,-0.5 181,-19.5 284,-19.5 284,-0.5 181,-0.5"/>
<text text-anchor="middle" x="232.5" y="-7.5" font-family="Helvetica,sans-Serif" font-size="10.00">src/host/main.cpp</text>
</a>
</g>
</g>
<!-- Node3&#45;&gt;Node4 -->
<g id="edge3" class="edge">
<title>Node3&#45;&gt;Node4</title>
<path fill="none" stroke="midnightblue" d="M116.89,-52.94C147.11,-41.98 184.68,-28.35 208.64,-19.66"/>
<polygon fill="midnightblue" stroke="midnightblue" points="115.57,-49.7 107.37,-56.4 117.96,-56.28 115.57,-49.7"/>
</g>
<!-- Node5&#45;&gt;Node4 -->
<g id="edge5" class="edge">
<title>Node5&#45;&gt;Node4</title>
<path fill="none" stroke="midnightblue" d="M232.5,-51.82C232.5,-41 232.5,-27.9 232.5,-19.51"/>
<polygon fill="midnightblue" stroke="midnightblue" points="229,-51.98 232.5,-61.98 236,-51.98 229,-51.98"/>
</g>
<!-- Node6&#45;&gt;Node4 -->
<g id="edge7" class="edge">
<title>Node6&#45;&gt;Node4</title>
<path fill="none" stroke="midnightblue" d="M367.65,-58.58C334.8,-47.02 285.76,-29.75 256.67,-19.51"/>
<polygon fill="midnightblue" stroke="midnightblue" points="366.69,-61.96 377.29,-61.98 369.02,-55.35 366.69,-61.96"/>
</g>
<!-- Node7&#45;&gt;Node6 -->
<g id="edge9" class="edge">
<title>Node7&#45;&gt;Node6</title>
<path fill="none" stroke="midnightblue" d="M389.74,-113.66C392.85,-102.77 396.65,-89.49 399.07,-81.01"/>
<polygon fill="midnightblue" stroke="midnightblue" points="386.32,-112.9 386.94,-123.48 393.05,-114.82 386.32,-112.9"/>
</g>
</g>
</svg>
