<?xml version="1.0" encoding="UTF-8" standalone="no"?>
<!DOCTYPE svg PUBLIC "-//W3C//DTD SVG 1.1//EN"
 "http://www.w3.org/Graphics/SVG/1.1/DTD/svg11.dtd">
<!-- Generated by graphviz version 2.43.0 (0)
 -->
<!-- Title: src/ds/ccf_exception.h Pages: 1 -->
<!--zoomable 587 -->
<svg id="main" version="1.1" xmlns="http://www.w3.org/2000/svg" xmlns:xlink="http://www.w3.org/1999/xlink" xml:space="preserve" onload="init(evt)">
<style type="text/css"><![CDATA[
.edge:hover path { stroke: red; }
.edge:hover polygon { stroke: red; fill: red; }
]]></style>
<script type="text/javascript"><![CDATA[
var edges = document.getElementsByTagName('g');
if (edges && edges.length) {
  for (var i=0;i<edges.length;i++) {
    if (edges[i].id.substr(0,4)=='edge') {
      edges[i].setAttribute('class','edge');
    }
  }
}
]]></script>
        <defs>
                <circle id="rim" cx="0" cy="0" r="7"/>
                <circle id="rim2" cx="0" cy="0" r="3.5"/>
                <g id="zoomPlus">
                        <use xlink:href="#rim" fill="#404040">
                                <set attributeName="fill" to="#808080" begin="zoomplus.mouseover" end="zoomplus.mouseout"/>
                        </use>
                        <path d="M-4,0h8M0,-4v8" fill="none" stroke="white" stroke-width="1.5" pointer-events="none"/>
                </g>
                <g id="zoomMin">
                        <use xlink:href="#rim" fill="#404040">
                                <set attributeName="fill" to="#808080" begin="zoomminus.mouseover" end="zoomminus.mouseout"/>
                        </use>
                        <path d="M-4,0h8" fill="none" stroke="white" stroke-width="1.5" pointer-events="none"/>
                </g>
                <g id="dirArrow">
                        <path fill="none" stroke="white" stroke-width="1.5" d="M0,-3.0v7 M-2.5,-0.5L0,-3.0L2.5,-0.5"/>
                </g>
               <g id="resetDef">
                       <use xlink:href="#rim2" fill="#404040">
                               <set attributeName="fill" to="#808080" begin="reset.mouseover" end="reset.mouseout"/>
                       </use>
               </g>
        </defs>

<script type="text/javascript">
var viewWidth = 2510;
var viewHeight = 587;
var sectionId = 'dynsection-1';
</script>
<script xlink:href="svgpan.js"/>
<svg id="graph" class="graph">
<g id="viewport">
<title>src/ds/ccf_exception.h</title>
<polygon fill="white" stroke="transparent" points="-4,4 -4,-583 2505.5,-583 2505.5,4 -4,4"/>
<!-- Node1 -->
<g id="node1" class="node">
<title>Node1</title>
<g id="a_node1"><a xlink:title=" ">
<polygon fill="#bfbfbf" stroke="black" points="1315.5,-559.5 1315.5,-578.5 1440.5,-578.5 1440.5,-559.5 1315.5,-559.5"/>
<text text-anchor="middle" x="1378" y="-566.5" font-family="Helvetica,sans-Serif" font-size="10.00">src/ds/ccf_exception.h</text>
</a>
</g>
</g>
<!-- Node2 -->
<g id="node2" class="node">
<title>Node2</title>
<g id="a_node2"><a xlink:href="enclave_2main_8cpp.html" target="_top" xlink:title=" ">
<polygon fill="white" stroke="black" points="755,-0.5 755,-19.5 875,-19.5 875,-0.5 755,-0.5"/>
<text text-anchor="middle" x="815" y="-7.5" font-family="Helvetica,sans-Serif" font-size="10.00">src/enclave/main.cpp</text>
</a>
</g>
</g>
<!-- Node1&#45;&gt;Node2 -->
<g id="edge1" class="edge">
<title>Node1&#45;&gt;Node2</title>
<path fill="none" stroke="midnightblue" d="M1304.99,-565.74C1020.26,-556.46 0,-518.6 0,-452.5 0,-452.5 0,-452.5 0,-121 0,-44.84 566.19,-19.22 754.74,-12.8"/>
<polygon fill="midnightblue" stroke="midnightblue" points="1305.1,-569.25 1315.21,-566.07 1305.33,-562.25 1305.1,-569.25"/>
</g>
<!-- Node3 -->
<g id="node3" class="node">
<title>Node3</title>
<g id="a_node3"><a xlink:href="oe__init_8h.html" target="_top" xlink:title=" ">
<polygon fill="white" stroke="black" points="2384.5,-112.5 2384.5,-131.5 2501.5,-131.5 2501.5,-112.5 2384.5,-112.5"/>
<text text-anchor="middle" x="2443" y="-119.5" font-family="Helvetica,sans-Serif" font-size="10.00">src/enclave/oe_init.h</text>
</a>
</g>
</g>
<!-- Node1&#45;&gt;Node3 -->
<g id="edge2" class="edge">
<title>Node1&#45;&gt;Node3</title>
<path fill="none" stroke="midnightblue" d="M1450.67,-567.76C1690.7,-566.01 2443,-552.54 2443,-452.5 2443,-452.5 2443,-452.5 2443,-249.5 2443,-205.14 2443,-152.02 2443,-131.59"/>
<polygon fill="midnightblue" stroke="midnightblue" points="1450.62,-564.26 1440.64,-567.83 1450.67,-571.26 1450.62,-564.26"/>
</g>
<!-- Node5 -->
<g id="node5" class="node">
<title>Node5</title>
<g id="a_node5"><a xlink:href="store_8h.html" target="_top" xlink:title=" ">
<polygon fill="white" stroke="black" points="1336.5,-503.5 1336.5,-522.5 1419.5,-522.5 1419.5,-503.5 1336.5,-503.5"/>
<text text-anchor="middle" x="1378" y="-510.5" font-family="Helvetica,sans-Serif" font-size="10.00">src/kv/store.h</text>
</a>
</g>
</g>
<!-- Node1&#45;&gt;Node5 -->
<g id="edge5" class="edge">
<title>Node1&#45;&gt;Node5</title>
<path fill="none" stroke="midnightblue" d="M1378,-548.8C1378,-539.91 1378,-529.78 1378,-522.75"/>
<polygon fill="midnightblue" stroke="midnightblue" points="1374.5,-549.08 1378,-559.08 1381.5,-549.08 1374.5,-549.08"/>
</g>
<!-- Node4 -->
<g id="node4" class="node">
<title>Node4</title>
<g id="a_node4"><a xlink:href="enclave_2enclave_8h.html" target="_top" xlink:title=" ">
<polygon fill="white" stroke="black" points="1569,-56.5 1569,-75.5 1691,-75.5 1691,-56.5 1569,-56.5"/>
<text text-anchor="middle" x="1630" y="-63.5" font-family="Helvetica,sans-Serif" font-size="10.00">src/enclave/enclave.h</text>
</a>
</g>
</g>
<!-- Node3&#45;&gt;Node4 -->
<g id="edge3" class="edge">
<title>Node3&#45;&gt;Node4</title>
<path fill="none" stroke="midnightblue" d="M2374.45,-112.42C2372.96,-112.28 2371.47,-112.14 2370,-112 2118.47,-88.87 1817.7,-74.76 1691.01,-69.43"/>
<polygon fill="midnightblue" stroke="midnightblue" points="2374.16,-115.91 2384.46,-113.46 2374.88,-108.95 2374.16,-115.91"/>
</g>
<!-- Node4&#45;&gt;Node2 -->
<g id="edge4" class="edge">
<title>Node4&#45;&gt;Node2</title>
<path fill="none" stroke="midnightblue" d="M1558.64,-60.27C1400.34,-49.78 1022.18,-24.73 875.03,-14.98"/>
<polygon fill="midnightblue" stroke="midnightblue" points="1558.53,-63.77 1568.74,-60.94 1559,-56.79 1558.53,-63.77"/>
</g>
<!-- Node6 -->
<g id="node6" class="node">
<title>Node6</title>
<g id="a_node6"><a xlink:href="indexer_8h.html" target="_top" xlink:title=" ">
<polygon fill="white" stroke="black" points="1406.5,-442 1406.5,-461 1529.5,-461 1529.5,-442 1406.5,-442"/>
<text text-anchor="middle" x="1468" y="-449" font-family="Helvetica,sans-Serif" font-size="10.00">src/indexing/indexer.h</text>
</a>
</g>
</g>
<!-- Node5&#45;&gt;Node6 -->
<g id="edge6" class="edge">
<title>Node5&#45;&gt;Node6</title>
<path fill="none" stroke="midnightblue" d="M1399.28,-497.93C1416.63,-486.46 1440.57,-470.63 1455.13,-461.01"/>
<polygon fill="midnightblue" stroke="midnightblue" points="1397.31,-495.04 1390.89,-503.48 1401.17,-500.88 1397.31,-495.04"/>
</g>
<!-- Node9 -->
<g id="node9" class="node">
<title>Node9</title>
<g id="a_node9"><a xlink:href="visit__each__entry__in__map_8cpp.html" target="_top" xlink:title=" ">
<polygon fill="white" stroke="black" points="1188.5,-436.5 1188.5,-466.5 1349.5,-466.5 1349.5,-436.5 1188.5,-436.5"/>
<text text-anchor="start" x="1196.5" y="-454.5" font-family="Helvetica,sans-Serif" font-size="10.00">src/indexing/strategies</text>
<text text-anchor="middle" x="1269" y="-443.5" font-family="Helvetica,sans-Serif" font-size="10.00">/visit_each_entry_in_map.cpp</text>
</a>
</g>
</g>
<!-- Node5&#45;&gt;Node9 -->
<g id="edge11" class="edge">
<title>Node5&#45;&gt;Node9</title>
<path fill="none" stroke="midnightblue" d="M1353.35,-498.54C1335.85,-488.99 1312.42,-476.2 1294.69,-466.52"/>
<polygon fill="midnightblue" stroke="midnightblue" points="1351.93,-501.76 1362.38,-503.48 1355.28,-495.61 1351.93,-501.76"/>
</g>
<!-- Node10 -->
<g id="node10" class="node">
<title>Node10</title>
<g id="a_node10"><a xlink:href="historical__queries_8h.html" target="_top" xlink:title=" ">
<polygon fill="white" stroke="black" points="243,-302.5 243,-332.5 349,-332.5 349,-302.5 243,-302.5"/>
<text text-anchor="start" x="251" y="-320.5" font-family="Helvetica,sans-Serif" font-size="10.00">src/node/historical</text>
<text text-anchor="middle" x="296" y="-309.5" font-family="Helvetica,sans-Serif" font-size="10.00">_queries.h</text>
</a>
</g>
</g>
<!-- Node5&#45;&gt;Node10 -->
<g id="edge12" class="edge">
<title>Node5&#45;&gt;Node10</title>
<path fill="none" stroke="midnightblue" d="M1326.22,-510.08C1188.89,-504 804.84,-480.52 497,-400 433.07,-383.28 362.33,-351.18 324.16,-332.65"/>
<polygon fill="midnightblue" stroke="midnightblue" points="1326.3,-513.59 1336.44,-510.52 1326.6,-506.6 1326.3,-513.59"/>
</g>
<!-- Node12 -->
<g id="node12" class="node">
<title>Node12</title>
<g id="a_node12"><a xlink:href="history_8h.html" target="_top" xlink:title=" ">
<polygon fill="white" stroke="black" points="1068,-442 1068,-461 1170,-461 1170,-442 1068,-442"/>
<text text-anchor="middle" x="1119" y="-449" font-family="Helvetica,sans-Serif" font-size="10.00">src/node/history.h</text>
</a>
</g>
</g>
<!-- Node5&#45;&gt;Node12 -->
<g id="edge16" class="edge">
<title>Node5&#45;&gt;Node12</title>
<path fill="none" stroke="midnightblue" d="M1330.23,-501.28C1290.11,-492.25 1231.28,-478.92 1180,-467 1171.84,-465.1 1163.06,-463.03 1154.79,-461.07"/>
<polygon fill="midnightblue" stroke="midnightblue" points="1329.49,-504.7 1340.02,-503.48 1331.03,-497.87 1329.49,-504.7"/>
</g>
<!-- Node14 -->
<g id="node14" class="node">
<title>Node14</title>
<g id="a_node14"><a xlink:href="snapshotter_8h.html" target="_top" xlink:title=" ">
<polygon fill="white" stroke="black" points="1336.5,-241 1336.5,-260 1463.5,-260 1463.5,-241 1336.5,-241"/>
<text text-anchor="middle" x="1400" y="-248" font-family="Helvetica,sans-Serif" font-size="10.00">src/node/snapshotter.h</text>
</a>
</g>
</g>
<!-- Node5&#45;&gt;Node14 -->
<g id="edge39" class="edge">
<title>Node5&#45;&gt;Node14</title>
<path fill="none" stroke="midnightblue" d="M1379.59,-493.22C1383.97,-441.27 1396.15,-297.11 1399.27,-260.2"/>
<polygon fill="midnightblue" stroke="midnightblue" points="1376.09,-493.07 1378.73,-503.33 1383.06,-493.66 1376.09,-493.07"/>
</g>
<!-- Node20 -->
<g id="node20" class="node">
<title>Node20</title>
<g id="a_node20"><a xlink:href="frontend_8h.html" target="_top" xlink:title=" ">
<polygon fill="white" stroke="black" points="2128.5,-375 2128.5,-394 2257.5,-394 2257.5,-375 2128.5,-375"/>
<text text-anchor="middle" x="2193" y="-382" font-family="Helvetica,sans-Serif" font-size="10.00">src/node/rpc/frontend.h</text>
</a>
</g>
</g>
<!-- Node5&#45;&gt;Node20 -->
<g id="edge29" class="edge">
<title>Node5&#45;&gt;Node20</title>
<path fill="none" stroke="midnightblue" d="M1429.71,-506.67C1501.2,-499.09 1634.19,-484.17 1747,-467 1896.21,-444.29 2072.12,-409.88 2151.02,-394.03"/>
<polygon fill="midnightblue" stroke="midnightblue" points="1429.19,-503.21 1419.61,-507.74 1429.93,-510.17 1429.19,-503.21"/>
</g>
<!-- Node25 -->
<g id="node25" class="node">
<title>Node25</title>
<g id="a_node25"><a xlink:href="network__tables_8h.html" target="_top" xlink:title=" ">
<polygon fill="white" stroke="black" points="1626,-436.5 1626,-466.5 1738,-466.5 1738,-436.5 1626,-436.5"/>
<text text-anchor="start" x="1634" y="-454.5" font-family="Helvetica,sans-Serif" font-size="10.00">src/service/network</text>
<text text-anchor="middle" x="1682" y="-443.5" font-family="Helvetica,sans-Serif" font-size="10.00">_tables.h</text>
</a>
</g>
</g>
<!-- Node5&#45;&gt;Node25 -->
<g id="edge40" class="edge">
<title>Node5&#45;&gt;Node25</title>
<path fill="none" stroke="midnightblue" d="M1429.77,-501.87C1484.28,-491.2 1569.82,-474.46 1625.91,-463.48"/>
<polygon fill="midnightblue" stroke="midnightblue" points="1428.77,-498.5 1419.63,-503.85 1430.12,-505.37 1428.77,-498.5"/>
</g>
<!-- Node7 -->
<g id="node7" class="node">
<title>Node7</title>
<g id="a_node7"><a xlink:href="node__state_8h.html" target="_top" xlink:title=" ">
<polygon fill="white" stroke="black" points="1568,-174 1568,-193 1692,-193 1692,-174 1568,-174"/>
<text text-anchor="middle" x="1630" y="-181" font-family="Helvetica,sans-Serif" font-size="10.00">src/node/node_state.h</text>
</a>
</g>
</g>
<!-- Node6&#45;&gt;Node7 -->
<g id="edge7" class="edge">
<title>Node6&#45;&gt;Node7</title>
<path fill="none" stroke="midnightblue" d="M1453.29,-433.81C1440.62,-417.31 1425.73,-391.37 1435,-369 1471.56,-280.73 1574.61,-215.52 1614.22,-193.04"/>
<polygon fill="midnightblue" stroke="midnightblue" points="1450.88,-436.4 1459.93,-441.92 1456.3,-431.96 1450.88,-436.4"/>
</g>
<!-- Node7&#45;&gt;Node4 -->
<g id="edge8" class="edge">
<title>Node7&#45;&gt;Node4</title>
<path fill="none" stroke="midnightblue" d="M1664.24,-170.08C1692.5,-157.73 1725.74,-137.05 1711,-112 1700.23,-93.7 1679.03,-82.31 1661.02,-75.56"/>
<polygon fill="midnightblue" stroke="midnightblue" points="1662.82,-166.88 1654.93,-173.94 1665.5,-173.34 1662.82,-166.88"/>
</g>
<!-- Node8 -->
<g id="node8" class="node">
<title>Node8</title>
<g id="a_node8"><a xlink:href="gov__effects_8h.html" target="_top" xlink:title=" ">
<polygon fill="white" stroke="black" points="1558,-112.5 1558,-131.5 1702,-131.5 1702,-112.5 1558,-112.5"/>
<text text-anchor="middle" x="1630" y="-119.5" font-family="Helvetica,sans-Serif" font-size="10.00">src/node/rpc/gov_effects.h</text>
</a>
</g>
</g>
<!-- Node7&#45;&gt;Node8 -->
<g id="edge9" class="edge">
<title>Node7&#45;&gt;Node8</title>
<path fill="none" stroke="midnightblue" d="M1630,-163.82C1630,-153 1630,-139.9 1630,-131.51"/>
<polygon fill="midnightblue" stroke="midnightblue" points="1626.5,-163.98 1630,-173.98 1633.5,-163.98 1626.5,-163.98"/>
</g>
<!-- Node8&#45;&gt;Node4 -->
<g id="edge10" class="edge">
<title>Node8&#45;&gt;Node4</title>
<path fill="none" stroke="midnightblue" d="M1630,-101.8C1630,-92.91 1630,-82.78 1630,-75.75"/>
<polygon fill="midnightblue" stroke="midnightblue" points="1626.5,-102.08 1630,-112.08 1633.5,-102.08 1626.5,-102.08"/>
</g>
<!-- Node10&#45;&gt;Node4 -->
<g id="edge13" class="edge">
<title>Node10&#45;&gt;Node4</title>
<path fill="none" stroke="midnightblue" d="M232.99,-305.17C180.55,-292.97 118.81,-270.4 148,-235 330.3,-13.86 496.55,-147 781,-112 1074.54,-75.88 1428.7,-68.73 1568.75,-67.33"/>
<polygon fill="midnightblue" stroke="midnightblue" points="232.47,-308.64 242.99,-307.4 233.99,-301.81 232.47,-308.64"/>
</g>
<!-- Node11 -->
<g id="node11" class="node">
<title>Node11</title>
<g id="a_node11"><a xlink:href="historical__transaction__fetcher_8h.html" target="_top" xlink:title=" ">
<polygon fill="white" stroke="black" points="28.5,-168.5 28.5,-198.5 153.5,-198.5 153.5,-168.5 28.5,-168.5"/>
<text text-anchor="start" x="36.5" y="-186.5" font-family="Helvetica,sans-Serif" font-size="10.00">src/indexing/historical</text>
<text text-anchor="middle" x="91" y="-175.5" font-family="Helvetica,sans-Serif" font-size="10.00">_transaction_fetcher.h</text>
</a>
</g>
</g>
<!-- Node10&#45;&gt;Node11 -->
<g id="edge14" class="edge">
<title>Node10&#45;&gt;Node11</title>
<path fill="none" stroke="midnightblue" d="M232.69,-313.89C193.95,-309.01 146.03,-296.59 115,-266 96.72,-247.98 92.2,-216.81 91.18,-198.68"/>
<polygon fill="midnightblue" stroke="midnightblue" points="232.51,-317.39 242.84,-315.02 233.29,-310.43 232.51,-317.39"/>
</g>
<!-- Node11&#45;&gt;Node4 -->
<g id="edge15" class="edge">
<title>Node11&#45;&gt;Node4</title>
<path fill="none" stroke="midnightblue" d="M107.96,-160.02C122,-143.38 143.55,-121.94 168,-112 233.76,-85.27 1300.23,-70.9 1568.92,-67.69"/>
<polygon fill="midnightblue" stroke="midnightblue" points="104.91,-158.23 101.33,-168.2 110.35,-162.64 104.91,-158.23"/>
</g>
<!-- Node12&#45;&gt;Node7 -->
<g id="edge18" class="edge">
<title>Node12&#45;&gt;Node7</title>
<path fill="none" stroke="midnightblue" d="M1122.96,-431.82C1130.48,-400.69 1149.74,-338.06 1189,-302 1222.87,-270.9 1245.55,-287.87 1286,-266 1306.41,-254.97 1306.64,-244.05 1328,-235 1406.44,-201.77 1505.01,-190.35 1567.78,-186.46"/>
<polygon fill="midnightblue" stroke="midnightblue" points="1119.5,-431.23 1120.7,-441.76 1126.33,-432.78 1119.5,-431.23"/>
</g>
<!-- Node12&#45;&gt;Node10 -->
<g id="edge17" class="edge">
<title>Node12&#45;&gt;Node10</title>
<path fill="none" stroke="midnightblue" d="M1057.67,-446.33C967.31,-439.65 793.32,-424.72 647,-400 539.51,-381.84 415.73,-350.64 347.64,-332.57"/>
<polygon fill="midnightblue" stroke="midnightblue" points="1057.51,-449.83 1067.73,-447.07 1058.02,-442.85 1057.51,-449.83"/>
</g>
<!-- Node13 -->
<g id="node13" class="node">
<title>Node13</title>
<g id="a_node13"><a xlink:href="snapshot__serdes_8h.html" target="_top" xlink:title=" ">
<polygon fill="white" stroke="black" points="1198,-308 1198,-327 1350,-327 1350,-308 1198,-308"/>
<text text-anchor="middle" x="1274" y="-315" font-family="Helvetica,sans-Serif" font-size="10.00">src/node/snapshot_serdes.h</text>
</a>
</g>
</g>
<!-- Node12&#45;&gt;Node13 -->
<g id="edge19" class="edge">
<title>Node12&#45;&gt;Node13</title>
<path fill="none" stroke="midnightblue" d="M1138.97,-435.6C1151.99,-425.74 1169.24,-412.39 1184,-400 1214.52,-374.39 1249.03,-342.17 1265,-327.06"/>
<polygon fill="midnightblue" stroke="midnightblue" points="1136.6,-433.01 1130.71,-441.82 1140.81,-438.6 1136.6,-433.01"/>
</g>
<!-- Node15 -->
<g id="node15" class="node">
<title>Node15</title>
<g id="a_node15"><a xlink:href="tx__receipt__impl_8h.html" target="_top" xlink:title=" ">
<polygon fill="white" stroke="black" points="656,-369.5 656,-399.5 766,-399.5 766,-369.5 656,-369.5"/>
<text text-anchor="start" x="664" y="-387.5" font-family="Helvetica,sans-Serif" font-size="10.00">src/node/tx_receipt</text>
<text text-anchor="middle" x="711" y="-376.5" font-family="Helvetica,sans-Serif" font-size="10.00">_impl.h</text>
</a>
</g>
</g>
<!-- Node12&#45;&gt;Node15 -->
<g id="edge22" class="edge">
<title>Node12&#45;&gt;Node15</title>
<path fill="none" stroke="midnightblue" d="M1057.44,-440.69C978.35,-428.09 842.22,-406.4 766.28,-394.31"/>
<polygon fill="midnightblue" stroke="midnightblue" points="1057.31,-444.22 1067.74,-442.33 1058.41,-437.3 1057.31,-444.22"/>
</g>
<!-- Node13&#45;&gt;Node14 -->
<g id="edge20" class="edge">
<title>Node13&#45;&gt;Node14</title>
<path fill="none" stroke="midnightblue" d="M1299.64,-303.27C1324.59,-290.4 1361.8,-271.21 1383.2,-260.17"/>
<polygon fill="midnightblue" stroke="midnightblue" points="1298.01,-300.17 1290.73,-307.87 1301.22,-306.39 1298.01,-300.17"/>
</g>
<!-- Node14&#45;&gt;Node7 -->
<g id="edge21" class="edge">
<title>Node14&#45;&gt;Node7</title>
<path fill="none" stroke="midnightblue" d="M1440.37,-238.09C1485.87,-225.23 1558.81,-204.62 1599.7,-193.06"/>
<polygon fill="midnightblue" stroke="midnightblue" points="1439.21,-234.78 1430.54,-240.87 1441.12,-241.52 1439.21,-234.78"/>
</g>
<!-- Node15&#45;&gt;Node10 -->
<g id="edge26" class="edge">
<title>Node15&#45;&gt;Node10</title>
<path fill="none" stroke="midnightblue" d="M645.78,-375.8C574.91,-367.05 458.49,-351.55 359,-333 355.8,-332.4 352.52,-331.76 349.21,-331.08"/>
<polygon fill="midnightblue" stroke="midnightblue" points="645.54,-379.3 655.89,-377.04 646.39,-372.35 645.54,-379.3"/>
</g>
<!-- Node15&#45;&gt;Node13 -->
<g id="edge28" class="edge">
<title>Node15&#45;&gt;Node13</title>
<path fill="none" stroke="midnightblue" d="M776.21,-375.97C881.77,-363.78 1089.4,-339.81 1200.22,-327.02"/>
<polygon fill="midnightblue" stroke="midnightblue" points="775.54,-372.53 766.01,-377.15 776.34,-379.48 775.54,-372.53"/>
</g>
<!-- Node16 -->
<g id="node16" class="node">
<title>Node16</title>
<g id="a_node16"><a xlink:href="src_2apps_2js__v8_2tmpl_2receipt_8h.html" target="_top" xlink:title=" ">
<polygon fill="white" stroke="black" points="367.5,-302.5 367.5,-332.5 478.5,-332.5 478.5,-302.5 367.5,-302.5"/>
<text text-anchor="start" x="375.5" y="-320.5" font-family="Helvetica,sans-Serif" font-size="10.00">src/apps/js_v8/tmpl</text>
<text text-anchor="middle" x="423" y="-309.5" font-family="Helvetica,sans-Serif" font-size="10.00">/receipt.h</text>
</a>
</g>
</g>
<!-- Node15&#45;&gt;Node16 -->
<g id="edge23" class="edge">
<title>Node15&#45;&gt;Node16</title>
<path fill="none" stroke="midnightblue" d="M646.02,-368.83C595.74,-357.49 526.84,-341.94 478.98,-331.14"/>
<polygon fill="midnightblue" stroke="midnightblue" points="645.29,-372.26 655.81,-371.04 646.83,-365.43 645.29,-372.26"/>
</g>
<!-- Node19 -->
<g id="node19" class="node">
<title>Node19</title>
<g id="a_node19"><a xlink:href="historical__queries__adapter_8cpp.html" target="_top" xlink:title=" ">
<polygon fill="white" stroke="black" points="651,-302.5 651,-332.5 771,-332.5 771,-302.5 651,-302.5"/>
<text text-anchor="start" x="659" y="-320.5" font-family="Helvetica,sans-Serif" font-size="10.00">src/node/historical</text>
<text text-anchor="middle" x="711" y="-309.5" font-family="Helvetica,sans-Serif" font-size="10.00">_queries_adapter.cpp</text>
</a>
</g>
</g>
<!-- Node15&#45;&gt;Node19 -->
<g id="edge27" class="edge">
<title>Node15&#45;&gt;Node19</title>
<path fill="none" stroke="midnightblue" d="M711,-359.11C711,-350.15 711,-340.32 711,-332.58"/>
<polygon fill="midnightblue" stroke="midnightblue" points="707.5,-359.4 711,-369.4 714.5,-359.4 707.5,-359.4"/>
</g>
<!-- Node17 -->
<g id="node17" class="node">
<title>Node17</title>
<g id="a_node17"><a xlink:href="historical__state_8cpp.html" target="_top" xlink:title=" ">
<polygon fill="white" stroke="black" points="157.5,-235.5 157.5,-265.5 272.5,-265.5 272.5,-235.5 157.5,-235.5"/>
<text text-anchor="start" x="165.5" y="-253.5" font-family="Helvetica,sans-Serif" font-size="10.00">src/apps/js_v8/tmpl</text>
<text text-anchor="middle" x="215" y="-242.5" font-family="Helvetica,sans-Serif" font-size="10.00">/historical_state.cpp</text>
</a>
</g>
</g>
<!-- Node16&#45;&gt;Node17 -->
<g id="edge24" class="edge">
<title>Node16&#45;&gt;Node17</title>
<path fill="none" stroke="midnightblue" d="M368.42,-299.44C334.7,-288.91 291.96,-275.55 260.15,-265.61"/>
<polygon fill="midnightblue" stroke="midnightblue" points="367.53,-302.83 378.12,-302.48 369.62,-296.15 367.53,-302.83"/>
</g>
<!-- Node18 -->
<g id="node18" class="node">
<title>Node18</title>
<g id="a_node18"><a xlink:href="apps_2js__v8_2tmpl_2receipt_8cpp.html" target="_top" xlink:title=" ">
<polygon fill="white" stroke="black" points="290.5,-235.5 290.5,-265.5 401.5,-265.5 401.5,-235.5 290.5,-235.5"/>
<text text-anchor="start" x="298.5" y="-253.5" font-family="Helvetica,sans-Serif" font-size="10.00">src/apps/js_v8/tmpl</text>
<text text-anchor="middle" x="346" y="-242.5" font-family="Helvetica,sans-Serif" font-size="10.00">/receipt.cpp</text>
</a>
</g>
</g>
<!-- Node16&#45;&gt;Node18 -->
<g id="edge25" class="edge">
<title>Node16&#45;&gt;Node18</title>
<path fill="none" stroke="midnightblue" d="M398.58,-295.88C386.88,-286.01 373.16,-274.43 362.68,-265.58"/>
<polygon fill="midnightblue" stroke="midnightblue" points="396.39,-298.62 406.29,-302.4 400.91,-293.27 396.39,-298.62"/>
</g>
<!-- Node20&#45;&gt;Node7 -->
<g id="edge30" class="edge">
<title>Node20&#45;&gt;Node7</title>
<path fill="none" stroke="midnightblue" d="M2267.86,-378C2335.17,-369.9 2418.8,-350.08 2386,-302 2340,-234.57 2294.48,-253.59 2215,-235 2028.39,-191.35 1800.37,-184.58 1692.4,-184.06"/>
<polygon fill="midnightblue" stroke="midnightblue" points="2267.18,-374.55 2257.64,-379.16 2267.97,-381.51 2267.18,-374.55"/>
</g>
<!-- Node21 -->
<g id="node21" class="node">
<title>Node21</title>
<g id="a_node21"><a xlink:href="member__frontend_8h.html" target="_top" xlink:title=" ">
<polygon fill="white" stroke="black" points="2086,-235.5 2086,-265.5 2206,-265.5 2206,-235.5 2086,-235.5"/>
<text text-anchor="start" x="2094" y="-253.5" font-family="Helvetica,sans-Serif" font-size="10.00">src/node/rpc/member</text>
<text text-anchor="middle" x="2146" y="-242.5" font-family="Helvetica,sans-Serif" font-size="10.00">_frontend.h</text>
</a>
</g>
</g>
<!-- Node20&#45;&gt;Node21 -->
<g id="edge31" class="edge">
<title>Node20&#45;&gt;Node21</title>
<path fill="none" stroke="midnightblue" d="M2188.28,-364.72C2183.89,-348.05 2176.87,-323.11 2169,-302 2164.36,-289.54 2158.03,-275.84 2153.19,-265.86"/>
<polygon fill="midnightblue" stroke="midnightblue" points="2184.99,-365.99 2190.87,-374.8 2191.77,-364.25 2184.99,-365.99"/>
</g>
<!-- Node22 -->
<g id="node22" class="node">
<title>Node22</title>
<g id="a_node22"><a xlink:href="node__frontend_8h.html" target="_top" xlink:title=" ">
<polygon fill="white" stroke="black" points="1969,-308 1969,-327 2127,-327 2127,-308 1969,-308"/>
<text text-anchor="middle" x="2048" y="-315" font-family="Helvetica,sans-Serif" font-size="10.00">src/node/rpc/node_frontend.h</text>
</a>
</g>
</g>
<!-- Node20&#45;&gt;Node22 -->
<g id="edge33" class="edge">
<title>Node20&#45;&gt;Node22</title>
<path fill="none" stroke="midnightblue" d="M2164.25,-370.61C2135.53,-357.74 2092.18,-338.31 2067.33,-327.17"/>
<polygon fill="midnightblue" stroke="midnightblue" points="2163.19,-373.97 2173.75,-374.87 2166.05,-367.58 2163.19,-373.97"/>
</g>
<!-- Node24 -->
<g id="node24" class="node">
<title>Node24</title>
<g id="a_node24"><a xlink:href="user__frontend_8h.html" target="_top" xlink:title=" ">
<polygon fill="white" stroke="black" points="2221.5,-308 2221.5,-327 2376.5,-327 2376.5,-308 2221.5,-308"/>
<text text-anchor="middle" x="2299" y="-315" font-family="Helvetica,sans-Serif" font-size="10.00">src/node/rpc/user_frontend.h</text>
</a>
</g>
</g>
<!-- Node20&#45;&gt;Node24 -->
<g id="edge37" class="edge">
<title>Node20&#45;&gt;Node24</title>
<path fill="none" stroke="midnightblue" d="M2215.92,-369.44C2236.92,-356.57 2267.32,-337.93 2284.93,-327.13"/>
<polygon fill="midnightblue" stroke="midnightblue" points="2213.99,-366.52 2207.3,-374.73 2217.65,-372.49 2213.99,-366.52"/>
</g>
<!-- Node21&#45;&gt;Node4 -->
<g id="edge32" class="edge">
<title>Node21&#45;&gt;Node4</title>
<path fill="none" stroke="midnightblue" d="M2140.47,-225.43C2131.79,-193.62 2111.69,-138.53 2072,-112 2011.16,-71.33 1797.68,-66.23 1691.26,-66.31"/>
<polygon fill="midnightblue" stroke="midnightblue" points="2137.12,-226.43 2142.99,-235.25 2143.9,-224.69 2137.12,-226.43"/>
</g>
<!-- Node22&#45;&gt;Node4 -->
<g id="edge34" class="edge">
<title>Node22&#45;&gt;Node4</title>
<path fill="none" stroke="midnightblue" d="M2050.99,-297.8C2052.79,-279.89 2052.55,-252.99 2039,-235 1954.83,-123.25 1783.22,-85.47 1691.32,-72.97"/>
<polygon fill="midnightblue" stroke="midnightblue" points="2047.5,-297.49 2049.68,-307.86 2054.44,-298.4 2047.5,-297.49"/>
</g>
<!-- Node23 -->
<g id="node23" class="node">
<title>Node23</title>
<g id="a_node23"><a xlink:href="jwt__key__auto__refresh_8h.html" target="_top" xlink:title=" ">
<polygon fill="white" stroke="black" points="1904.5,-235.5 1904.5,-265.5 2029.5,-265.5 2029.5,-235.5 1904.5,-235.5"/>
<text text-anchor="start" x="1912.5" y="-253.5" font-family="Helvetica,sans-Serif" font-size="10.00">src/node/jwt_key_auto</text>
<text text-anchor="middle" x="1967" y="-242.5" font-family="Helvetica,sans-Serif" font-size="10.00">_refresh.h</text>
</a>
</g>
</g>
<!-- Node22&#45;&gt;Node23 -->
<g id="edge35" class="edge">
<title>Node22&#45;&gt;Node23</title>
<path fill="none" stroke="midnightblue" d="M2028.98,-301.24C2015.54,-290.45 1997.66,-276.1 1984.56,-265.59"/>
<polygon fill="midnightblue" stroke="midnightblue" points="2027.09,-304.2 2037.08,-307.73 2031.47,-298.75 2027.09,-304.2"/>
</g>
<!-- Node23&#45;&gt;Node7 -->
<g id="edge36" class="edge">
<title>Node23&#45;&gt;Node7</title>
<path fill="none" stroke="midnightblue" d="M1894.34,-235.49C1827.41,-222.58 1730.25,-203.84 1674.26,-193.04"/>
<polygon fill="midnightblue" stroke="midnightblue" points="1893.92,-238.97 1904.4,-237.43 1895.25,-232.1 1893.92,-238.97"/>
</g>
<!-- Node24&#45;&gt;Node4 -->
<g id="edge38" class="edge">
<title>Node24&#45;&gt;Node4</title>
<path fill="none" stroke="midnightblue" d="M2288.28,-299.27C2261.72,-258.34 2188.38,-155.44 2097,-112 2026.66,-78.56 1800.78,-69.97 1691.01,-67.76"/>
<polygon fill="midnightblue" stroke="midnightblue" points="2285.42,-301.31 2293.75,-307.86 2291.32,-297.55 2285.42,-301.31"/>
</g>
<!-- Node26 -->
<g id="node26" class="node">
<title>Node26</title>
<g id="a_node26"><a xlink:href="kv__module__loader_8cpp.html" target="_top" xlink:title=" ">
<polygon fill="white" stroke="black" points="1610.5,-369.5 1610.5,-399.5 1753.5,-399.5 1753.5,-369.5 1610.5,-369.5"/>
<text text-anchor="start" x="1618.5" y="-387.5" font-family="Helvetica,sans-Serif" font-size="10.00">src/apps/js_v8/kv_module</text>
<text text-anchor="middle" x="1682" y="-376.5" font-family="Helvetica,sans-Serif" font-size="10.00">_loader.cpp</text>
</a>
</g>
</g>
<!-- Node25&#45;&gt;Node26 -->
<g id="edge41" class="edge">
<title>Node25&#45;&gt;Node26</title>
<path fill="none" stroke="midnightblue" d="M1682,-426.11C1682,-417.15 1682,-407.32 1682,-399.58"/>
<polygon fill="midnightblue" stroke="midnightblue" points="1678.5,-426.4 1682,-436.4 1685.5,-426.4 1678.5,-426.4"/>
</g>
<!-- Node27 -->
<g id="node27" class="node">
<title>Node27</title>
<g id="a_node27"><a xlink:href="ccf__acme__client_8h.html" target="_top" xlink:title=" ">
<polygon fill="white" stroke="black" points="1443.5,-375 1443.5,-394 1592.5,-394 1592.5,-375 1443.5,-375"/>
<text text-anchor="middle" x="1518" y="-382" font-family="Helvetica,sans-Serif" font-size="10.00">src/node/ccf_acme_client.h</text>
</a>
</g>
</g>
<!-- Node25&#45;&gt;Node27 -->
<g id="edge42" class="edge">
<title>Node25&#45;&gt;Node27</title>
<path fill="none" stroke="midnightblue" d="M1636.89,-432.62C1605.15,-420.04 1564.09,-403.77 1539.46,-394.01"/>
<polygon fill="midnightblue" stroke="midnightblue" points="1635.83,-435.97 1646.41,-436.4 1638.41,-429.46 1635.83,-435.97"/>
</g>
<!-- Node28 -->
<g id="node28" class="node">
<title>Node28</title>
<g id="a_node28"><a xlink:href="network__state_8h.html" target="_top" xlink:title=" ">
<polygon fill="white" stroke="black" points="1772,-375 1772,-394 1912,-394 1912,-375 1772,-375"/>
<text text-anchor="middle" x="1842" y="-382" font-family="Helvetica,sans-Serif" font-size="10.00">src/node/network_state.h</text>
</a>
</g>
</g>
<!-- Node25&#45;&gt;Node28 -->
<g id="edge44" class="edge">
<title>Node25&#45;&gt;Node28</title>
<path fill="none" stroke="midnightblue" d="M1726.01,-432.62C1756.98,-420.04 1797.04,-403.77 1821.06,-394.01"/>
<polygon fill="midnightblue" stroke="midnightblue" points="1724.66,-429.39 1716.72,-436.4 1727.3,-435.87 1724.66,-429.39"/>
</g>
<!-- Node39 -->
<g id="node39" class="node">
<title>Node39</title>
<g id="a_node39"><a xlink:href="genesis__gen_8h.html" target="_top" xlink:title=" ">
<polygon fill="white" stroke="black" points="1930,-369.5 1930,-399.5 2040,-399.5 2040,-369.5 1930,-369.5"/>
<text text-anchor="start" x="1938" y="-387.5" font-family="Helvetica,sans-Serif" font-size="10.00">src/service/genesis</text>
<text text-anchor="middle" x="1985" y="-376.5" font-family="Helvetica,sans-Serif" font-size="10.00">_gen.h</text>
</a>
</g>
</g>
<!-- Node25&#45;&gt;Node39 -->
<g id="edge70" class="edge">
<title>Node25&#45;&gt;Node39</title>
<path fill="none" stroke="midnightblue" d="M1748.02,-436.82C1796.04,-426.8 1862.6,-412.79 1921,-400 1923.89,-399.37 1926.86,-398.71 1929.85,-398.05"/>
<polygon fill="midnightblue" stroke="midnightblue" points="1747.14,-433.43 1738.07,-438.89 1748.57,-440.28 1747.14,-433.43"/>
</g>
<!-- Node27&#45;&gt;Node7 -->
<g id="edge43" class="edge">
<title>Node27&#45;&gt;Node7</title>
<path fill="none" stroke="midnightblue" d="M1525.46,-365.2C1532.41,-348.52 1543.28,-323.31 1554,-302 1569.38,-271.42 1573.22,-263.63 1592,-235 1601.99,-219.77 1615,-203.06 1622.92,-193.19"/>
<polygon fill="midnightblue" stroke="midnightblue" points="1522.08,-364.22 1521.51,-374.8 1528.55,-366.89 1522.08,-364.22"/>
</g>
<!-- Node28&#45;&gt;Node4 -->
<g id="edge45" class="edge">
<title>Node28&#45;&gt;Node4</title>
<path fill="none" stroke="midnightblue" d="M1786.39,-373.11C1709.84,-358.77 1581.14,-334.49 1579,-333 1544.35,-308.8 1530,-293.76 1530,-251.5 1530,-251.5 1530,-251.5 1530,-182.5 1530,-150.05 1529.01,-137.57 1549,-112 1562.77,-94.38 1585.47,-82.63 1603.34,-75.57"/>
<polygon fill="midnightblue" stroke="midnightblue" points="1785.89,-376.58 1796.36,-374.98 1787.18,-369.7 1785.89,-376.58"/>
</g>
<!-- Node28&#45;&gt;Node7 -->
<g id="edge61" class="edge">
<title>Node28&#45;&gt;Node7</title>
<path fill="none" stroke="midnightblue" d="M1787.12,-373.03C1712.92,-358.82 1589.59,-334.94 1588,-333 1569.81,-310.84 1611.38,-221.96 1625.51,-193.39"/>
<polygon fill="midnightblue" stroke="midnightblue" points="1786.76,-376.53 1797.24,-374.97 1788.08,-369.65 1786.76,-376.53"/>
</g>
<!-- Node28&#45;&gt;Node14 -->
<g id="edge69" class="edge">
<title>Node28&#45;&gt;Node14</title>
<path fill="none" stroke="midnightblue" d="M1786.9,-373.12C1778.89,-371.69 1770.74,-370.27 1763,-369 1653.54,-350.98 1619.08,-374 1516,-333 1471.4,-315.26 1427.44,-277.26 1409.02,-260.16"/>
<polygon fill="midnightblue" stroke="midnightblue" points="1786.47,-376.6 1796.93,-374.93 1787.71,-369.71 1786.47,-376.6"/>
</g>
<!-- Node28&#45;&gt;Node22 -->
<g id="edge62" class="edge">
<title>Node28&#45;&gt;Node22</title>
<path fill="none" stroke="midnightblue" d="M1878.93,-371.85C1919.73,-358.97 1984.47,-338.55 2020.86,-327.06"/>
<polygon fill="midnightblue" stroke="midnightblue" points="1877.84,-368.52 1869.36,-374.87 1879.94,-375.2 1877.84,-368.52"/>
</g>
<!-- Node28&#45;&gt;Node24 -->
<g id="edge63" class="edge">
<title>Node28&#45;&gt;Node24</title>
<path fill="none" stroke="midnightblue" d="M1896.21,-373.19C1904.5,-371.72 1912.97,-370.27 1921,-369 2027.43,-352.13 2151.31,-336.3 2227.44,-327.01"/>
<polygon fill="midnightblue" stroke="midnightblue" points="1895.44,-369.77 1886.22,-374.99 1896.69,-376.66 1895.44,-369.77"/>
</g>
<!-- Node29 -->
<g id="node29" class="node">
<title>Node29</title>
<g id="a_node29"><a xlink:href="wrap_8h.html" target="_top" xlink:title=" ">
<polygon fill="white" stroke="black" points="866,-308 866,-327 944,-327 944,-308 866,-308"/>
<text text-anchor="middle" x="905" y="-315" font-family="Helvetica,sans-Serif" font-size="10.00">src/js/wrap.h</text>
</a>
</g>
</g>
<!-- Node28&#45;&gt;Node29 -->
<g id="edge46" class="edge">
<title>Node28&#45;&gt;Node29</title>
<path fill="none" stroke="midnightblue" d="M1790.87,-373.17C1781.63,-371.57 1772.05,-370.09 1763,-369 1681.15,-359.12 1101.19,-328.66 944.14,-320.52"/>
<polygon fill="midnightblue" stroke="midnightblue" points="1790.27,-376.62 1800.74,-374.94 1791.51,-369.73 1790.27,-376.62"/>
</g>
<!-- Node37 -->
<g id="node37" class="node">
<title>Node37</title>
<g id="a_node37"><a xlink:href="secret__broadcast_8h.html" target="_top" xlink:title=" ">
<polygon fill="white" stroke="black" points="1596.5,-308 1596.5,-327 1749.5,-327 1749.5,-308 1596.5,-308"/>
<text text-anchor="middle" x="1673" y="-315" font-family="Helvetica,sans-Serif" font-size="10.00">src/node/secret_broadcast.h</text>
</a>
</g>
</g>
<!-- Node28&#45;&gt;Node37 -->
<g id="edge64" class="edge">
<title>Node28&#45;&gt;Node37</title>
<path fill="none" stroke="midnightblue" d="M1810.2,-371.27C1776.66,-358.37 1724.68,-338.38 1695.27,-327.06"/>
<polygon fill="midnightblue" stroke="midnightblue" points="1808.97,-374.55 1819.56,-374.87 1811.48,-368.01 1808.97,-374.55"/>
</g>
<!-- Node38 -->
<g id="node38" class="node">
<title>Node38</title>
<g id="a_node38"><a xlink:href="share__manager_8h.html" target="_top" xlink:title=" ">
<polygon fill="white" stroke="black" points="1767.5,-308 1767.5,-327 1912.5,-327 1912.5,-308 1767.5,-308"/>
<text text-anchor="middle" x="1840" y="-315" font-family="Helvetica,sans-Serif" font-size="10.00">src/node/share_manager.h</text>
</a>
</g>
</g>
<!-- Node28&#45;&gt;Node38 -->
<g id="edge66" class="edge">
<title>Node28&#45;&gt;Node38</title>
<path fill="none" stroke="midnightblue" d="M1841.42,-364.54C1841.04,-352.17 1840.56,-336.62 1840.27,-327.13"/>
<polygon fill="midnightblue" stroke="midnightblue" points="1837.92,-364.85 1841.73,-374.73 1844.92,-364.63 1837.92,-364.85"/>
</g>
<!-- Node29&#45;&gt;Node4 -->
<g id="edge48" class="edge">
<title>Node29&#45;&gt;Node4</title>
<path fill="none" stroke="midnightblue" d="M855.79,-310.77C742.56,-297.59 473.2,-266.22 473,-266 463.84,-255.71 465.53,-246.58 473,-235 512.14,-174.32 551.27,-186.73 621,-168 970.61,-74.09 1409.56,-65.88 1568.78,-66.28"/>
<polygon fill="midnightblue" stroke="midnightblue" points="855.58,-314.27 865.92,-311.95 856.39,-307.32 855.58,-314.27"/>
</g>
<!-- Node29&#45;&gt;Node7 -->
<g id="edge59" class="edge">
<title>Node29&#45;&gt;Node7</title>
<path fill="none" stroke="midnightblue" d="M954.32,-316.58C1023.22,-315.1 1151.05,-306.48 1251,-266 1272.84,-257.16 1272.18,-243.89 1294,-235 1384.55,-198.11 1498.7,-187.82 1567.93,-185.15"/>
<polygon fill="midnightblue" stroke="midnightblue" points="954.13,-313.08 944.19,-316.75 954.25,-320.08 954.13,-313.08"/>
</g>
<!-- Node29&#45;&gt;Node21 -->
<g id="edge60" class="edge">
<title>Node29&#45;&gt;Node21</title>
<path fill="none" stroke="midnightblue" d="M954.15,-313.86C1010.76,-310.85 1106.59,-305.85 1189,-302 1566.7,-284.36 1662.36,-299.42 2039,-266 2054.22,-264.65 2070.59,-262.69 2085.84,-260.64"/>
<polygon fill="midnightblue" stroke="midnightblue" points="953.84,-310.37 944.04,-314.4 954.21,-317.36 953.84,-310.37"/>
</g>
<!-- Node30 -->
<g id="node30" class="node">
<title>Node30</title>
<g id="a_node30"><a xlink:href="js__generic__base_8cpp.html" target="_top" xlink:title=" ">
<polygon fill="white" stroke="black" points="1124,-235.5 1124,-265.5 1242,-265.5 1242,-235.5 1124,-235.5"/>
<text text-anchor="start" x="1132" y="-253.5" font-family="Helvetica,sans-Serif" font-size="10.00">src/apps/js_generic</text>
<text text-anchor="middle" x="1183" y="-242.5" font-family="Helvetica,sans-Serif" font-size="10.00">/js_generic_base.cpp</text>
</a>
</g>
</g>
<!-- Node29&#45;&gt;Node30 -->
<g id="edge47" class="edge">
<title>Node29&#45;&gt;Node30</title>
<path fill="none" stroke="midnightblue" d="M951.61,-305.6C998.98,-294.53 1072.5,-277.34 1123.92,-265.31"/>
<polygon fill="midnightblue" stroke="midnightblue" points="950.57,-302.25 941.63,-307.94 952.16,-309.07 950.57,-302.25"/>
</g>
<!-- Node31 -->
<g id="node31" class="node">
<title>Node31</title>
<g id="a_node31"><a xlink:href="js_2consensus_8cpp.html" target="_top" xlink:title=" ">
<polygon fill="white" stroke="black" points="496,-241 496,-260 612,-260 612,-241 496,-241"/>
<text text-anchor="middle" x="554" y="-248" font-family="Helvetica,sans-Serif" font-size="10.00">src/js/consensus.cpp</text>
</a>
</g>
</g>
<!-- Node29&#45;&gt;Node31 -->
<g id="edge49" class="edge">
<title>Node29&#45;&gt;Node31</title>
<path fill="none" stroke="midnightblue" d="M855.74,-308.31C799.02,-298.75 703.1,-282.18 621,-266 611.66,-264.16 601.61,-262.05 592.21,-260.03"/>
<polygon fill="midnightblue" stroke="midnightblue" points="855.42,-311.81 865.87,-310.01 856.59,-304.9 855.42,-311.81"/>
</g>
<!-- Node32 -->
<g id="node32" class="node">
<title>Node32</title>
<g id="a_node32"><a xlink:href="wrap_8cpp.html" target="_top" xlink:title=" ">
<polygon fill="white" stroke="black" points="629.5,-174 629.5,-193 718.5,-193 718.5,-174 629.5,-174"/>
<text text-anchor="middle" x="674" y="-181" font-family="Helvetica,sans-Serif" font-size="10.00">src/js/wrap.cpp</text>
</a>
</g>
</g>
<!-- Node29&#45;&gt;Node32 -->
<g id="edge58" class="edge">
<title>Node29&#45;&gt;Node32</title>
<path fill="none" stroke="midnightblue" d="M855.65,-310.75C745.38,-297.87 488.52,-267.72 487,-266 443.42,-216.84 561.18,-196.13 629.35,-188.45"/>
<polygon fill="midnightblue" stroke="midnightblue" points="855.51,-314.26 865.84,-311.94 856.32,-307.3 855.51,-314.26"/>
</g>
<!-- Node33 -->
<g id="node33" class="node">
<title>Node33</title>
<g id="a_node33"><a xlink:href="conv_8cpp.html" target="_top" xlink:title=" ">
<polygon fill="white" stroke="black" points="630,-241 630,-260 718,-260 718,-241 630,-241"/>
<text text-anchor="middle" x="674" y="-248" font-family="Helvetica,sans-Serif" font-size="10.00">src/js/conv.cpp</text>
</a>
</g>
</g>
<!-- Node29&#45;&gt;Node33 -->
<g id="edge51" class="edge">
<title>Node29&#45;&gt;Node33</title>
<path fill="none" stroke="midnightblue" d="M864.45,-305.09C818.76,-292.23 745.5,-271.62 704.43,-260.06"/>
<polygon fill="midnightblue" stroke="midnightblue" points="863.75,-308.53 874.32,-307.87 865.65,-301.79 863.75,-308.53"/>
</g>
<!-- Node34 -->
<g id="node34" class="node">
<title>Node34</title>
<g id="a_node34"><a xlink:href="js_2crypto_8cpp.html" target="_top" xlink:title=" ">
<polygon fill="white" stroke="black" points="736,-241 736,-260 832,-260 832,-241 736,-241"/>
<text text-anchor="middle" x="784" y="-248" font-family="Helvetica,sans-Serif" font-size="10.00">src/js/crypto.cpp</text>
</a>
</g>
</g>
<!-- Node29&#45;&gt;Node34 -->
<g id="edge53" class="edge">
<title>Node29&#45;&gt;Node34</title>
<path fill="none" stroke="midnightblue" d="M879.79,-302.96C855.8,-290.07 820.44,-271.07 800.06,-260.13"/>
<polygon fill="midnightblue" stroke="midnightblue" points="878.22,-306.08 888.68,-307.73 881.53,-299.92 878.22,-306.08"/>
</g>
<!-- Node35 -->
<g id="node35" class="node">
<title>Node35</title>
<g id="a_node35"><a xlink:href="js_2historical_8cpp.html" target="_top" xlink:title=" ">
<polygon fill="white" stroke="black" points="850,-241 850,-260 960,-260 960,-241 850,-241"/>
<text text-anchor="middle" x="905" y="-248" font-family="Helvetica,sans-Serif" font-size="10.00">src/js/historical.cpp</text>
</a>
</g>
</g>
<!-- Node29&#45;&gt;Node35 -->
<g id="edge55" class="edge">
<title>Node29&#45;&gt;Node35</title>
<path fill="none" stroke="midnightblue" d="M905,-297.54C905,-285.17 905,-269.62 905,-260.13"/>
<polygon fill="midnightblue" stroke="midnightblue" points="901.5,-297.73 905,-307.73 908.5,-297.73 901.5,-297.73"/>
</g>
<!-- Node36 -->
<g id="node36" class="node">
<title>Node36</title>
<g id="a_node36"><a xlink:href="openenclave_8cpp.html" target="_top" xlink:title=" ">
<polygon fill="white" stroke="black" points="978,-241 978,-260 1106,-260 1106,-241 978,-241"/>
<text text-anchor="middle" x="1042" y="-248" font-family="Helvetica,sans-Serif" font-size="10.00">src/js/openenclave.cpp</text>
</a>
</g>
</g>
<!-- Node29&#45;&gt;Node36 -->
<g id="edge57" class="edge">
<title>Node29&#45;&gt;Node36</title>
<path fill="none" stroke="midnightblue" d="M932.52,-303.44C959.65,-290.57 1000.36,-271.26 1023.73,-260.17"/>
<polygon fill="midnightblue" stroke="midnightblue" points="930.73,-300.42 923.19,-307.87 933.73,-306.74 930.73,-300.42"/>
</g>
<!-- Node31&#45;&gt;Node32 -->
<g id="edge50" class="edge">
<title>Node31&#45;&gt;Node32</title>
<path fill="none" stroke="midnightblue" d="M579,-235.96C602.79,-223.07 637.87,-204.07 658.07,-193.13"/>
<polygon fill="midnightblue" stroke="midnightblue" points="577.31,-232.89 570.18,-240.73 580.64,-239.05 577.31,-232.89"/>
</g>
<!-- Node33&#45;&gt;Node32 -->
<g id="edge52" class="edge">
<title>Node33&#45;&gt;Node32</title>
<path fill="none" stroke="midnightblue" d="M674,-230.54C674,-218.17 674,-202.62 674,-193.13"/>
<polygon fill="midnightblue" stroke="midnightblue" points="670.5,-230.73 674,-240.73 677.5,-230.73 670.5,-230.73"/>
</g>
<!-- Node34&#45;&gt;Node32 -->
<g id="edge54" class="edge">
<title>Node34&#45;&gt;Node32</title>
<path fill="none" stroke="midnightblue" d="M760.5,-235.62C738.71,-222.74 706.96,-203.98 688.6,-193.13"/>
<polygon fill="midnightblue" stroke="midnightblue" points="758.78,-238.66 769.16,-240.73 762.34,-232.63 758.78,-238.66"/>
</g>
<!-- Node35&#45;&gt;Node32 -->
<g id="edge56" class="edge">
<title>Node35&#45;&gt;Node32</title>
<path fill="none" stroke="midnightblue" d="M864.45,-238.09C818.76,-225.23 745.5,-204.62 704.43,-193.06"/>
<polygon fill="midnightblue" stroke="midnightblue" points="863.75,-241.53 874.32,-240.87 865.65,-234.79 863.75,-241.53"/>
</g>
<!-- Node37&#45;&gt;Node7 -->
<g id="edge65" class="edge">
<title>Node37&#45;&gt;Node7</title>
<path fill="none" stroke="midnightblue" d="M1667.03,-298.16C1657.6,-269.23 1639.65,-214.13 1632.78,-193.02"/>
<polygon fill="midnightblue" stroke="midnightblue" points="1663.75,-299.41 1670.18,-307.84 1670.41,-297.25 1663.75,-299.41"/>
</g>
<!-- Node38&#45;&gt;Node7 -->
<g id="edge67" class="edge">
<title>Node38&#45;&gt;Node7</title>
<path fill="none" stroke="midnightblue" d="M1817.48,-302.35C1773.82,-274.9 1678.84,-215.2 1643.56,-193.02"/>
<polygon fill="midnightblue" stroke="midnightblue" points="1815.89,-305.48 1826.22,-307.84 1819.62,-299.55 1815.89,-305.48"/>
</g>
<!-- Node38&#45;&gt;Node21 -->
<g id="edge68" class="edge">
<title>Node38&#45;&gt;Node21</title>
<path fill="none" stroke="midnightblue" d="M1890.28,-305.82C1943.87,-294.44 2028.72,-276.41 2085.83,-264.28"/>
<polygon fill="midnightblue" stroke="midnightblue" points="1889.37,-302.43 1880.32,-307.94 1890.83,-309.28 1889.37,-302.43"/>
</g>
<!-- Node39&#45;&gt;Node7 -->
<g id="edge71" class="edge">
<title>Node39&#45;&gt;Node7</title>
<path fill="none" stroke="midnightblue" d="M1971.94,-360.5C1960.7,-342.49 1943.01,-317.9 1922,-302 1842.47,-241.83 1727.93,-207.74 1668.72,-193.12"/>
<polygon fill="midnightblue" stroke="midnightblue" points="1969.05,-362.48 1977.21,-369.24 1975.04,-358.87 1969.05,-362.48"/>
</g>
<!-- Node39&#45;&gt;Node21 -->
<g id="edge72" class="edge">
<title>Node39&#45;&gt;Node21</title>
<path fill="none" stroke="midnightblue" d="M2050.53,-377.48C2081.07,-371.18 2115.18,-358.48 2136,-333 2151.6,-313.9 2150.69,-283.4 2148.45,-265.62"/>
<polygon fill="midnightblue" stroke="midnightblue" points="2049.53,-374.11 2040.34,-379.38 2050.81,-380.99 2049.53,-374.11"/>
</g>
<!-- Node39&#45;&gt;Node22 -->
<g id="edge73" class="edge">
<title>Node39&#45;&gt;Node22</title>
<path fill="none" stroke="midnightblue" d="M2005.84,-362C2017.34,-350.13 2030.99,-336.05 2039.57,-327.19"/>
<polygon fill="midnightblue" stroke="midnightblue" points="2003.12,-359.78 1998.67,-369.4 2008.14,-364.65 2003.12,-359.78"/>
</g>
<!-- Node39&#45;&gt;Node37 -->
<g id="edge74" class="edge">
<title>Node39&#45;&gt;Node37</title>
<path fill="none" stroke="midnightblue" d="M1919.96,-368.8C1842.69,-352.26 1764.05,-336.48 1716.52,-327.06"/>
<polygon fill="midnightblue" stroke="midnightblue" points="1919.35,-372.25 1929.86,-370.93 1920.82,-365.41 1919.35,-372.25"/>
</g>
<!-- Node39&#45;&gt;Node38 -->
<g id="edge75" class="edge">
<title>Node39&#45;&gt;Node38</title>
<path fill="none" stroke="midnightblue" d="M1944.39,-365.3C1916.43,-352.76 1880.56,-336.68 1858.98,-327.01"/>
<polygon fill="midnightblue" stroke="midnightblue" points="1942.98,-368.5 1953.54,-369.4 1945.84,-362.11 1942.98,-368.5"/>
</g>
</g>
</svg>
        <g id="navigator" transform="translate(0 0)" fill="#404254">
                <rect fill="#f2f5e9" fill-opacity="0.5" stroke="#606060" stroke-width=".5" x="0" y="0" width="60" height="60"/>
                <use id="zoomplus" xlink:href="#zoomPlus" x="17" y="9" onmousedown="handleZoom(evt,'in')"/>
                <use id="zoomminus" xlink:href="#zoomMin" x="42" y="9" onmousedown="handleZoom(evt,'out')"/>
                <use id="reset" xlink:href="#resetDef" x="30" y="36" onmousedown="handleReset()"/>
                <g id="arrowUp" xlink:href="#dirArrow" transform="translate(30 24)" onmousedown="handlePan(0,-1)">
                  <use xlink:href="#rim" fill="#404040">
                        <set attributeName="fill" to="#808080" begin="arrowUp.mouseover" end="arrowUp.mouseout"/>
                  </use>
                  <path fill="none" stroke="white" stroke-width="1.5" d="M0,-3.0v7 M-2.5,-0.5L0,-3.0L2.5,-0.5"/>
                </g>
                <g id="arrowRight" xlink:href="#dirArrow" transform="rotate(90) translate(36 -43)" onmousedown="handlePan(1,0)">
                  <use xlink:href="#rim" fill="#404040">
                        <set attributeName="fill" to="#808080" begin="arrowRight.mouseover" end="arrowRight.mouseout"/>
                  </use>
                  <path fill="none" stroke="white" stroke-width="1.5" d="M0,-3.0v7 M-2.5,-0.5L0,-3.0L2.5,-0.5"/>
                </g>
                <g id="arrowDown" xlink:href="#dirArrow" transform="rotate(180) translate(-30 -48)" onmousedown="handlePan(0,1)">
                  <use xlink:href="#rim" fill="#404040">
                        <set attributeName="fill" to="#808080" begin="arrowDown.mouseover" end="arrowDown.mouseout"/>
                  </use>
                  <path fill="none" stroke="white" stroke-width="1.5" d="M0,-3.0v7 M-2.5,-0.5L0,-3.0L2.5,-0.5"/>
                </g>
                <g id="arrowLeft" xlink:href="#dirArrow" transform="rotate(270) translate(-36 17)" onmousedown="handlePan(-1,0)">
                  <use xlink:href="#rim" fill="#404040">
                        <set attributeName="fill" to="#808080" begin="arrowLeft.mouseover" end="arrowLeft.mouseout"/>
                  </use>
                  <path fill="none" stroke="white" stroke-width="1.5" d="M0,-3.0v7 M-2.5,-0.5L0,-3.0L2.5,-0.5"/>
                </g>
        </g>
        <svg viewBox="0 0 15 15" width="100%" height="30px" preserveAspectRatio="xMaxYMin meet">
         <g id="arrow_out" transform="scale(0.3 0.3)">
          <a xlink:href="ccf__exception_8h__dep__incl_org.svg" target="_base">
           <rect id="button" ry="5" rx="5" y="6" x="6" height="38" width="38"
                fill="#f2f5e9" fill-opacity="0.5" stroke="#606060" stroke-width="1.0"/>
           <path id="arrow"
             d="M 11.500037,31.436501 C 11.940474,20.09759 22.043105,11.32322 32.158766,21.979434 L 37.068811,17.246167 C 37.068811,17.246167 37.088388,32 37.088388,32 L 22.160133,31.978069 C 22.160133,31.978069 26.997745,27.140456 26.997745,27.140456 C 18.528582,18.264221 13.291696,25.230495 11.500037,31.436501 z"
             style="fill:#404040;"/>
          </a>
         </g>
        </svg>
</svg>
