<?xml version="1.0" encoding="UTF-8" standalone="no"?>
<!DOCTYPE svg PUBLIC "-//W3C//DTD SVG 1.1//EN"
 "http://www.w3.org/Graphics/SVG/1.1/DTD/svg11.dtd">
<!-- Generated by graphviz version 2.43.0 (0)
 -->
<!-- Title: src/tls/cert.h Pages: 1 -->
<!--zoomable 990 -->
<svg id="main" version="1.1" xmlns="http://www.w3.org/2000/svg" xmlns:xlink="http://www.w3.org/1999/xlink" xml:space="preserve" onload="init(evt)">
<style type="text/css"><![CDATA[
.edge:hover path { stroke: red; }
.edge:hover polygon { stroke: red; fill: red; }
]]></style>
<script type="text/javascript"><![CDATA[
var edges = document.getElementsByTagName('g');
if (edges && edges.length) {
  for (var i=0;i<edges.length;i++) {
    if (edges[i].id.substr(0,4)=='edge') {
      edges[i].setAttribute('class','edge');
    }
  }
}
]]></script>
        <defs>
                <circle id="rim" cx="0" cy="0" r="7"/>
                <circle id="rim2" cx="0" cy="0" r="3.5"/>
                <g id="zoomPlus">
                        <use xlink:href="#rim" fill="#404040">
                                <set attributeName="fill" to="#808080" begin="zoomplus.mouseover" end="zoomplus.mouseout"/>
                        </use>
                        <path d="M-4,0h8M0,-4v8" fill="none" stroke="white" stroke-width="1.5" pointer-events="none"/>
                </g>
                <g id="zoomMin">
                        <use xlink:href="#rim" fill="#404040">
                                <set attributeName="fill" to="#808080" begin="zoomminus.mouseover" end="zoomminus.mouseout"/>
                        </use>
                        <path d="M-4,0h8" fill="none" stroke="white" stroke-width="1.5" pointer-events="none"/>
                </g>
                <g id="dirArrow">
                        <path fill="none" stroke="white" stroke-width="1.5" d="M0,-3.0v7 M-2.5,-0.5L0,-3.0L2.5,-0.5"/>
                </g>
               <g id="resetDef">
                       <use xlink:href="#rim2" fill="#404040">
                               <set attributeName="fill" to="#808080" begin="reset.mouseover" end="reset.mouseout"/>
                       </use>
               </g>
        </defs>

<script type="text/javascript">
var viewWidth = 1401;
var viewHeight = 990;
var sectionId = 'dynsection-1';
</script>
<script xlink:href="svgpan.js"/>
<svg id="graph" class="graph">
<g id="viewport">
<title>src/tls/cert.h</title>
<polygon fill="white" stroke="transparent" points="-4,4 -4,-986 1397.08,-986 1397.08,4 -4,4"/>
<!-- Node1 -->
<g id="node1" class="node">
<title>Node1</title>
<g id="a_node1"><a xlink:title=" ">
<polygon fill="#bfbfbf" stroke="black" points="1009.5,-962.5 1009.5,-981.5 1086.5,-981.5 1086.5,-962.5 1009.5,-962.5"/>
<text text-anchor="middle" x="1048" y="-969.5" font-family="Helvetica,sans-Serif" font-size="10.00">src/tls/cert.h</text>
</a>
</g>
</g>
<!-- Node2 -->
<g id="node2" class="node">
<title>Node2</title>
<g id="a_node2"><a xlink:href="tls__client_8h.html" target="_top" xlink:title=" ">
<polygon fill="white" stroke="black" points="277,-794.5 277,-813.5 399,-813.5 399,-794.5 277,-794.5"/>
<text text-anchor="middle" x="338" y="-801.5" font-family="Helvetica,sans-Serif" font-size="10.00">src/clients/tls_client.h</text>
</a>
</g>
</g>
<!-- Node1&#45;&gt;Node2 -->
<g id="edge1" class="edge">
<title>Node1&#45;&gt;Node2</title>
<path fill="none" stroke="midnightblue" d="M999.42,-961.35C914.21,-944.23 732.35,-906.88 580,-870 503.26,-851.43 413.69,-826.52 368.06,-813.59"/>
<polygon fill="midnightblue" stroke="midnightblue" points="998.84,-964.8 1009.33,-963.33 1000.21,-957.94 998.84,-964.8"/>
</g>
<!-- Node8 -->
<g id="node8" class="node">
<title>Node8</title>
<g id="a_node8"><a xlink:href="rpc__sessions_8h.html" target="_top" xlink:title=" ">
<polygon fill="white" stroke="black" points="1043,-498 1043,-517 1189,-517 1189,-498 1043,-498"/>
<text text-anchor="middle" x="1116" y="-505" font-family="Helvetica,sans-Serif" font-size="10.00">src/enclave/rpc_sessions.h</text>
</a>
</g>
</g>
<!-- Node1&#45;&gt;Node8 -->
<g id="edge8" class="edge">
<title>Node1&#45;&gt;Node8</title>
<path fill="none" stroke="midnightblue" d="M1089.76,-959.2C1132.91,-944.15 1194,-913.56 1194,-861 1194,-861 1194,-861 1194,-629.5 1194,-580.51 1148.28,-535.61 1126.85,-517.25"/>
<polygon fill="midnightblue" stroke="midnightblue" points="1088.42,-955.95 1080.04,-962.44 1090.63,-962.6 1088.42,-955.95"/>
</g>
<!-- Node22 -->
<g id="node22" class="node">
<title>Node22</title>
<g id="a_node22"><a xlink:href="context_8h.html" target="_top" xlink:title=" ">
<polygon fill="white" stroke="black" points="1000.5,-906.5 1000.5,-925.5 1095.5,-925.5 1095.5,-906.5 1000.5,-906.5"/>
<text text-anchor="middle" x="1048" y="-913.5" font-family="Helvetica,sans-Serif" font-size="10.00">src/tls/context.h</text>
</a>
</g>
</g>
<!-- Node1&#45;&gt;Node22 -->
<g id="edge32" class="edge">
<title>Node1&#45;&gt;Node22</title>
<path fill="none" stroke="midnightblue" d="M1048,-951.8C1048,-942.91 1048,-932.78 1048,-925.75"/>
<polygon fill="midnightblue" stroke="midnightblue" points="1044.5,-952.08 1048,-962.08 1051.5,-952.08 1044.5,-952.08"/>
</g>
<!-- Node3 -->
<g id="node3" class="node">
<title>Node3</title>
<g id="a_node3"><a xlink:href="rpc__tls__client_8h.html" target="_top" xlink:title=" ">
<polygon fill="white" stroke="black" points="173.5,-615.5 173.5,-645.5 274.5,-645.5 274.5,-615.5 173.5,-615.5"/>
<text text-anchor="start" x="181.5" y="-633.5" font-family="Helvetica,sans-Serif" font-size="10.00">src/clients/rpc_tls</text>
<text text-anchor="middle" x="224" y="-622.5" font-family="Helvetica,sans-Serif" font-size="10.00">_client.h</text>
</a>
</g>
</g>
<!-- Node2&#45;&gt;Node3 -->
<g id="edge2" class="edge">
<title>Node2&#45;&gt;Node3</title>
<path fill="none" stroke="midnightblue" d="M323.82,-786.63C307.37,-767.21 279.95,-733.48 260,-702 248.16,-683.31 236.97,-660.24 230.3,-645.7"/>
<polygon fill="midnightblue" stroke="midnightblue" points="321.38,-789.16 330.54,-794.49 326.7,-784.61 321.38,-789.16"/>
</g>
<!-- Node4 -->
<g id="node4" class="node">
<title>Node4</title>
<g id="a_node4"><a xlink:href="perf__client_8h.html" target="_top" xlink:title=" ">
<polygon fill="white" stroke="black" points="118.5,-492.5 118.5,-522.5 229.5,-522.5 229.5,-492.5 118.5,-492.5"/>
<text text-anchor="start" x="126.5" y="-510.5" font-family="Helvetica,sans-Serif" font-size="10.00">src/clients/perf/perf</text>
<text text-anchor="middle" x="174" y="-499.5" font-family="Helvetica,sans-Serif" font-size="10.00">_client.h</text>
</a>
</g>
</g>
<!-- Node3&#45;&gt;Node4 -->
<g id="edge3" class="edge">
<title>Node3&#45;&gt;Node4</title>
<path fill="none" stroke="midnightblue" d="M229.53,-605.44C231.59,-591.36 232.16,-573.56 226,-559 219.73,-544.16 206.73,-531.54 195.3,-522.62"/>
<polygon fill="midnightblue" stroke="midnightblue" points="226.07,-604.89 227.74,-615.35 232.96,-606.14 226.07,-604.89"/>
</g>
<!-- Node7 -->
<g id="node7" class="node">
<title>Node7</title>
<g id="a_node7"><a xlink:href="timing_8h.html" target="_top" xlink:title=" ">
<polygon fill="white" stroke="black" points="85,-559.5 85,-578.5 217,-578.5 217,-559.5 85,-559.5"/>
<text text-anchor="middle" x="151" y="-566.5" font-family="Helvetica,sans-Serif" font-size="10.00">src/clients/perf/timing.h</text>
</a>
</g>
</g>
<!-- Node3&#45;&gt;Node7 -->
<g id="edge6" class="edge">
<title>Node3&#45;&gt;Node7</title>
<path fill="none" stroke="midnightblue" d="M198.72,-608.89C186.02,-598.54 171.31,-586.56 161.62,-578.66"/>
<polygon fill="midnightblue" stroke="midnightblue" points="196.74,-611.79 206.7,-615.4 201.16,-606.37 196.74,-611.79"/>
</g>
<!-- Node5 -->
<g id="node5" class="node">
<title>Node5</title>
<g id="a_node5"><a xlink:href="tpcc__client_8cpp.html" target="_top" xlink:title=" ">
<polygon fill="white" stroke="black" points="0,-425.5 0,-455.5 116,-455.5 116,-425.5 0,-425.5"/>
<text text-anchor="start" x="8" y="-443.5" font-family="Helvetica,sans-Serif" font-size="10.00">src/apps/tpcc/clients</text>
<text text-anchor="middle" x="58" y="-432.5" font-family="Helvetica,sans-Serif" font-size="10.00">/tpcc_client.cpp</text>
</a>
</g>
</g>
<!-- Node4&#45;&gt;Node5 -->
<g id="edge4" class="edge">
<title>Node4&#45;&gt;Node5</title>
<path fill="none" stroke="midnightblue" d="M139.73,-487.3C121.58,-477.12 99.68,-464.85 83.12,-455.58"/>
<polygon fill="midnightblue" stroke="midnightblue" points="138.4,-490.56 148.83,-492.4 141.82,-484.45 138.4,-490.56"/>
</g>
<!-- Node6 -->
<g id="node6" class="node">
<title>Node6</title>
<g id="a_node6"><a xlink:href="scenario__perf__client_8cpp.html" target="_top" xlink:title=" ">
<polygon fill="white" stroke="black" points="134.5,-425.5 134.5,-455.5 267.5,-455.5 267.5,-425.5 134.5,-425.5"/>
<text text-anchor="start" x="142.5" y="-443.5" font-family="Helvetica,sans-Serif" font-size="10.00">src/clients/perf/scenario</text>
<text text-anchor="middle" x="201" y="-432.5" font-family="Helvetica,sans-Serif" font-size="10.00">_perf_client.cpp</text>
</a>
</g>
</g>
<!-- Node4&#45;&gt;Node6 -->
<g id="edge5" class="edge">
<title>Node4&#45;&gt;Node6</title>
<path fill="none" stroke="midnightblue" d="M183.77,-482.99C187.58,-473.8 191.83,-463.58 195.15,-455.58"/>
<polygon fill="midnightblue" stroke="midnightblue" points="180.46,-481.82 179.86,-492.4 186.93,-484.5 180.46,-481.82"/>
</g>
<!-- Node7&#45;&gt;Node4 -->
<g id="edge7" class="edge">
<title>Node7&#45;&gt;Node4</title>
<path fill="none" stroke="midnightblue" d="M157.92,-550.1C161.33,-541.27 165.39,-530.77 168.58,-522.52"/>
<polygon fill="midnightblue" stroke="midnightblue" points="154.64,-548.89 154.3,-559.48 161.17,-551.41 154.64,-548.89"/>
</g>
<!-- Node9 -->
<g id="node9" class="node">
<title>Node9</title>
<g id="a_node9"><a xlink:href="enclave_2enclave_8h.html" target="_top" xlink:title=" ">
<polygon fill="white" stroke="black" points="652,-56.5 652,-75.5 774,-75.5 774,-56.5 652,-56.5"/>
<text text-anchor="middle" x="713" y="-63.5" font-family="Helvetica,sans-Serif" font-size="10.00">src/enclave/enclave.h</text>
</a>
</g>
</g>
<!-- Node8&#45;&gt;Node9 -->
<g id="edge9" class="edge">
<title>Node8&#45;&gt;Node9</title>
<path fill="none" stroke="midnightblue" d="M1091.62,-492.66C1060.08,-473.48 1005.69,-435.83 976,-389 957.3,-359.5 956,-347.93 956,-313 956,-313 956,-313 956,-182.5 956,-102.04 845.99,-77.57 774.01,-70.16"/>
<polygon fill="midnightblue" stroke="midnightblue" points="1089.86,-495.68 1100.24,-497.79 1093.44,-489.67 1089.86,-495.68"/>
</g>
<!-- Node11 -->
<g id="node11" class="node">
<title>Node11</title>
<g id="a_node11"><a xlink:href="ccf__acme__client_8h.html" target="_top" xlink:title=" ">
<polygon fill="white" stroke="black" points="841.5,-431 841.5,-450 990.5,-450 990.5,-431 841.5,-431"/>
<text text-anchor="middle" x="916" y="-438" font-family="Helvetica,sans-Serif" font-size="10.00">src/node/ccf_acme_client.h</text>
</a>
</g>
</g>
<!-- Node8&#45;&gt;Node11 -->
<g id="edge11" class="edge">
<title>Node8&#45;&gt;Node11</title>
<path fill="none" stroke="midnightblue" d="M1079.89,-494.77C1040.27,-481.89 977.6,-461.52 942.35,-450.06"/>
<polygon fill="midnightblue" stroke="midnightblue" points="1078.85,-498.11 1089.44,-497.87 1081.01,-491.45 1078.85,-498.11"/>
</g>
<!-- Node12 -->
<g id="node12" class="node">
<title>Node12</title>
<g id="a_node12"><a xlink:href="node__state_8h.html" target="_top" xlink:title=" ">
<polygon fill="white" stroke="black" points="998,-174 998,-193 1122,-193 1122,-174 998,-174"/>
<text text-anchor="middle" x="1060" y="-181" font-family="Helvetica,sans-Serif" font-size="10.00">src/node/node_state.h</text>
</a>
</g>
</g>
<!-- Node8&#45;&gt;Node12 -->
<g id="edge29" class="edge">
<title>Node8&#45;&gt;Node12</title>
<path fill="none" stroke="midnightblue" d="M1199.49,-501.09C1280.73,-490.75 1392,-460.84 1392,-374.5 1392,-374.5 1392,-374.5 1392,-311 1392,-275.84 1396.31,-258.33 1370,-235 1334.19,-203.26 1201.79,-191.31 1122.06,-186.92"/>
<polygon fill="midnightblue" stroke="midnightblue" points="1198.75,-497.65 1189.24,-502.31 1199.58,-504.6 1198.75,-497.65"/>
</g>
<!-- Node14 -->
<g id="node14" class="node">
<title>Node14</title>
<g id="a_node14"><a xlink:href="node__client_8h.html" target="_top" xlink:title=" ">
<polygon fill="white" stroke="black" points="1069,-431 1069,-450 1195,-450 1195,-431 1069,-431"/>
<text text-anchor="middle" x="1132" y="-438" font-family="Helvetica,sans-Serif" font-size="10.00">src/node/node_client.h</text>
</a>
</g>
</g>
<!-- Node8&#45;&gt;Node14 -->
<g id="edge16" class="edge">
<title>Node8&#45;&gt;Node14</title>
<path fill="none" stroke="midnightblue" d="M1120.57,-487.91C1123.63,-475.49 1127.52,-459.72 1129.88,-450.13"/>
<polygon fill="midnightblue" stroke="midnightblue" points="1117.15,-487.19 1118.16,-497.73 1123.95,-488.86 1117.15,-487.19"/>
</g>
<!-- Node21 -->
<g id="node21" class="node">
<title>Node21</title>
<g id="a_node21"><a xlink:href="resharing_8h.html" target="_top" xlink:title=" ">
<polygon fill="white" stroke="black" points="1245,-241 1245,-260 1361,-260 1361,-241 1245,-241"/>
<text text-anchor="middle" x="1303" y="-248" font-family="Helvetica,sans-Serif" font-size="10.00">src/node/resharing.h</text>
</a>
</g>
</g>
<!-- Node8&#45;&gt;Node21 -->
<g id="edge30" class="edge">
<title>Node8&#45;&gt;Node21</title>
<path fill="none" stroke="midnightblue" d="M1159.39,-494.96C1207.31,-479.62 1282.04,-447.39 1315,-389 1339.26,-346.01 1316.71,-283.17 1306.97,-260.27"/>
<polygon fill="midnightblue" stroke="midnightblue" points="1158.12,-491.69 1149.6,-497.98 1160.19,-498.38 1158.12,-491.69"/>
</g>
<!-- Node10 -->
<g id="node10" class="node">
<title>Node10</title>
<g id="a_node10"><a xlink:href="enclave_2main_8cpp.html" target="_top" xlink:title=" ">
<polygon fill="white" stroke="black" points="653,-0.5 653,-19.5 773,-19.5 773,-0.5 653,-0.5"/>
<text text-anchor="middle" x="713" y="-7.5" font-family="Helvetica,sans-Serif" font-size="10.00">src/enclave/main.cpp</text>
</a>
</g>
</g>
<!-- Node9&#45;&gt;Node10 -->
<g id="edge10" class="edge">
<title>Node9&#45;&gt;Node10</title>
<path fill="none" stroke="midnightblue" d="M713,-45.8C713,-36.91 713,-26.78 713,-19.75"/>
<polygon fill="midnightblue" stroke="midnightblue" points="709.5,-46.08 713,-56.08 716.5,-46.08 709.5,-46.08"/>
</g>
<!-- Node11&#45;&gt;Node12 -->
<g id="edge12" class="edge">
<title>Node11&#45;&gt;Node12</title>
<path fill="none" stroke="midnightblue" d="M920.31,-420.86C924.59,-403.95 931.97,-378.59 942,-358 975.16,-289.87 1032.33,-217.92 1052.61,-193.33"/>
<polygon fill="midnightblue" stroke="midnightblue" points="916.9,-420.07 917.94,-430.62 923.7,-421.72 916.9,-420.07"/>
</g>
<!-- Node12&#45;&gt;Node9 -->
<g id="edge13" class="edge">
<title>Node12&#45;&gt;Node9</title>
<path fill="none" stroke="midnightblue" d="M1091.62,-169.72C1120.71,-156.19 1156.6,-133.79 1137,-112 1113.21,-85.55 886.03,-73.45 774.36,-69.06"/>
<polygon fill="midnightblue" stroke="midnightblue" points="1089.81,-166.7 1082.1,-173.96 1092.66,-173.09 1089.81,-166.7"/>
</g>
<!-- Node13 -->
<g id="node13" class="node">
<title>Node13</title>
<g id="a_node13"><a xlink:href="gov__effects_8h.html" target="_top" xlink:title=" ">
<polygon fill="white" stroke="black" points="984,-112.5 984,-131.5 1128,-131.5 1128,-112.5 984,-112.5"/>
<text text-anchor="middle" x="1056" y="-119.5" font-family="Helvetica,sans-Serif" font-size="10.00">src/node/rpc/gov_effects.h</text>
</a>
</g>
</g>
<!-- Node12&#45;&gt;Node13 -->
<g id="edge14" class="edge">
<title>Node12&#45;&gt;Node13</title>
<path fill="none" stroke="midnightblue" d="M1058.74,-163.82C1058.02,-153 1057.14,-139.9 1056.57,-131.51"/>
<polygon fill="midnightblue" stroke="midnightblue" points="1055.26,-164.23 1059.43,-173.98 1062.25,-163.76 1055.26,-164.23"/>
</g>
<!-- Node13&#45;&gt;Node9 -->
<g id="edge15" class="edge">
<title>Node13&#45;&gt;Node9</title>
<path fill="none" stroke="midnightblue" d="M991.55,-110.85C926.75,-100.65 827.95,-85.1 767.1,-75.52"/>
<polygon fill="midnightblue" stroke="midnightblue" points="991.23,-114.35 1001.65,-112.44 992.32,-107.43 991.23,-114.35"/>
</g>
<!-- Node15 -->
<g id="node15" class="node">
<title>Node15</title>
<g id="a_node15"><a xlink:href="orc__requests_8h.html" target="_top" xlink:title=" ">
<polygon fill="white" stroke="black" points="984.5,-358.5 984.5,-388.5 1103.5,-388.5 1103.5,-358.5 984.5,-358.5"/>
<text text-anchor="start" x="992.5" y="-376.5" font-family="Helvetica,sans-Serif" font-size="10.00">src/consensus/aft/orc</text>
<text text-anchor="middle" x="1044" y="-365.5" font-family="Helvetica,sans-Serif" font-size="10.00">_requests.h</text>
</a>
</g>
</g>
<!-- Node14&#45;&gt;Node15 -->
<g id="edge17" class="edge">
<title>Node14&#45;&gt;Node15</title>
<path fill="none" stroke="midnightblue" d="M1111.75,-424.54C1097.11,-413.73 1077.44,-399.2 1063.07,-388.59"/>
<polygon fill="midnightblue" stroke="midnightblue" points="1110.01,-427.61 1120.13,-430.73 1114.17,-421.98 1110.01,-427.61"/>
</g>
<!-- Node16 -->
<g id="node16" class="node">
<title>Node16</title>
<g id="a_node16"><a xlink:href="raft_8h.html" target="_top" xlink:title=" ">
<polygon fill="white" stroke="black" points="1032.5,-302.5 1032.5,-321.5 1161.5,-321.5 1161.5,-302.5 1032.5,-302.5"/>
<text text-anchor="middle" x="1097" y="-309.5" font-family="Helvetica,sans-Serif" font-size="10.00">src/consensus/aft/raft.h</text>
</a>
</g>
</g>
<!-- Node14&#45;&gt;Node16 -->
<g id="edge24" class="edge">
<title>Node14&#45;&gt;Node16</title>
<path fill="none" stroke="midnightblue" d="M1128.27,-420.81C1124.8,-404.19 1119.25,-379.3 1113,-358 1109.22,-345.11 1103.82,-330.51 1100.36,-321.53"/>
<polygon fill="midnightblue" stroke="midnightblue" points="1124.89,-421.75 1130.32,-430.85 1131.75,-420.35 1124.89,-421.75"/>
</g>
<!-- Node19 -->
<g id="node19" class="node">
<title>Node19</title>
<g id="a_node19"><a xlink:href="http__node__client_8h.html" target="_top" xlink:title=" ">
<polygon fill="white" stroke="black" points="1108,-235.5 1108,-265.5 1218,-265.5 1218,-235.5 1108,-235.5"/>
<text text-anchor="start" x="1116" y="-253.5" font-family="Helvetica,sans-Serif" font-size="10.00">src/node/http_node</text>
<text text-anchor="middle" x="1163" y="-242.5" font-family="Helvetica,sans-Serif" font-size="10.00">_client.h</text>
</a>
</g>
</g>
<!-- Node14&#45;&gt;Node19 -->
<g id="edge25" class="edge">
<title>Node14&#45;&gt;Node19</title>
<path fill="none" stroke="midnightblue" d="M1205.6,-436.11C1239.11,-430.43 1275.93,-417.48 1297,-389 1333.87,-339.16 1246.43,-289.16 1195.85,-265.54"/>
<polygon fill="midnightblue" stroke="midnightblue" points="1204.69,-432.71 1195.32,-437.65 1205.73,-439.63 1204.69,-432.71"/>
</g>
<!-- Node20 -->
<g id="node20" class="node">
<title>Node20</title>
<g id="a_node20"><a xlink:href="retired__nodes__cleanup_8h.html" target="_top" xlink:title=" ">
<polygon fill="white" stroke="black" points="1160,-358.5 1160,-388.5 1288,-388.5 1288,-358.5 1160,-358.5"/>
<text text-anchor="start" x="1168" y="-376.5" font-family="Helvetica,sans-Serif" font-size="10.00">src/node/retired_nodes</text>
<text text-anchor="middle" x="1224" y="-365.5" font-family="Helvetica,sans-Serif" font-size="10.00">_cleanup.h</text>
</a>
</g>
</g>
<!-- Node14&#45;&gt;Node20 -->
<g id="edge27" class="edge">
<title>Node14&#45;&gt;Node20</title>
<path fill="none" stroke="midnightblue" d="M1152.74,-424.85C1168.09,-414 1188.89,-399.3 1204.06,-388.59"/>
<polygon fill="midnightblue" stroke="midnightblue" points="1150.56,-422.1 1144.41,-430.73 1154.59,-427.82 1150.56,-422.1"/>
</g>
<!-- Node15&#45;&gt;Node16 -->
<g id="edge18" class="edge">
<title>Node15&#45;&gt;Node16</title>
<path fill="none" stroke="midnightblue" d="M1063.42,-350.7C1072.38,-340.64 1082.52,-329.26 1089.29,-321.66"/>
<polygon fill="midnightblue" stroke="midnightblue" points="1060.6,-348.6 1056.56,-358.4 1065.83,-353.26 1060.6,-348.6"/>
</g>
<!-- Node17 -->
<g id="node17" class="node">
<title>Node17</title>
<g id="a_node17"><a xlink:href="node__frontend_8h.html" target="_top" xlink:title=" ">
<polygon fill="white" stroke="black" points="694,-302.5 694,-321.5 852,-321.5 852,-302.5 694,-302.5"/>
<text text-anchor="middle" x="773" y="-309.5" font-family="Helvetica,sans-Serif" font-size="10.00">src/node/rpc/node_frontend.h</text>
</a>
</g>
</g>
<!-- Node15&#45;&gt;Node17 -->
<g id="edge20" class="edge">
<title>Node15&#45;&gt;Node17</title>
<path fill="none" stroke="midnightblue" d="M974.42,-357.22C922.71,-345.87 854.06,-330.8 811.74,-321.51"/>
<polygon fill="midnightblue" stroke="midnightblue" points="973.67,-360.64 984.19,-359.37 975.18,-353.81 973.67,-360.64"/>
</g>
<!-- Node16&#45;&gt;Node12 -->
<g id="edge19" class="edge">
<title>Node16&#45;&gt;Node12</title>
<path fill="none" stroke="midnightblue" d="M1091.64,-292.67C1083.55,-265.03 1068.55,-213.72 1062.56,-193.26"/>
<polygon fill="midnightblue" stroke="midnightblue" points="1088.29,-293.69 1094.46,-302.31 1095.01,-291.72 1088.29,-293.69"/>
</g>
<!-- Node17&#45;&gt;Node9 -->
<g id="edge21" class="edge">
<title>Node17&#45;&gt;Node9</title>
<path fill="none" stroke="midnightblue" d="M765.36,-292.66C762.18,-284.58 758.63,-274.91 756,-266 734.69,-193.79 719.07,-103.98 714.43,-75.85"/>
<polygon fill="midnightblue" stroke="midnightblue" points="762.22,-294.21 769.22,-302.17 768.71,-291.59 762.22,-294.21"/>
</g>
<!-- Node18 -->
<g id="node18" class="node">
<title>Node18</title>
<g id="a_node18"><a xlink:href="jwt__key__auto__refresh_8h.html" target="_top" xlink:title=" ">
<polygon fill="white" stroke="black" points="764.5,-235.5 764.5,-265.5 889.5,-265.5 889.5,-235.5 764.5,-235.5"/>
<text text-anchor="start" x="772.5" y="-253.5" font-family="Helvetica,sans-Serif" font-size="10.00">src/node/jwt_key_auto</text>
<text text-anchor="middle" x="827" y="-242.5" font-family="Helvetica,sans-Serif" font-size="10.00">_refresh.h</text>
</a>
</g>
</g>
<!-- Node17&#45;&gt;Node18 -->
<g id="edge22" class="edge">
<title>Node17&#45;&gt;Node18</title>
<path fill="none" stroke="midnightblue" d="M787.69,-294.81C796.01,-285.65 806.3,-274.3 814.27,-265.52"/>
<polygon fill="midnightblue" stroke="midnightblue" points="784.87,-292.72 780.74,-302.48 790.05,-297.42 784.87,-292.72"/>
</g>
<!-- Node18&#45;&gt;Node12 -->
<g id="edge23" class="edge">
<title>Node18&#45;&gt;Node12</title>
<path fill="none" stroke="midnightblue" d="M887.04,-232.75C932.61,-220.04 993.38,-203.09 1029.43,-193.03"/>
<polygon fill="midnightblue" stroke="midnightblue" points="885.96,-229.42 877.27,-235.48 887.84,-236.16 885.96,-229.42"/>
</g>
<!-- Node19&#45;&gt;Node12 -->
<g id="edge26" class="edge">
<title>Node19&#45;&gt;Node12</title>
<path fill="none" stroke="midnightblue" d="M1132.06,-229.97C1112.53,-217.65 1088.28,-202.35 1073.48,-193.01"/>
<polygon fill="midnightblue" stroke="midnightblue" points="1130.33,-233.02 1140.65,-235.4 1134.06,-227.1 1130.33,-233.02"/>
</g>
<!-- Node20&#45;&gt;Node16 -->
<g id="edge28" class="edge">
<title>Node20&#45;&gt;Node16</title>
<path fill="none" stroke="midnightblue" d="M1184.69,-354.08C1161.62,-343.28 1133.55,-330.12 1115.48,-321.66"/>
<polygon fill="midnightblue" stroke="midnightblue" points="1183.36,-357.33 1193.9,-358.4 1186.33,-350.99 1183.36,-357.33"/>
</g>
<!-- Node21&#45;&gt;Node12 -->
<g id="edge31" class="edge">
<title>Node21&#45;&gt;Node12</title>
<path fill="none" stroke="midnightblue" d="M1261.22,-238.32C1213.23,-225.49 1135.56,-204.71 1092.09,-193.08"/>
<polygon fill="midnightblue" stroke="midnightblue" points="1260.42,-241.73 1270.98,-240.94 1262.23,-234.97 1260.42,-241.73"/>
</g>
<!-- Node22&#45;&gt;Node8 -->
<g id="edge33" class="edge">
<title>Node22&#45;&gt;Node8</title>
<path fill="none" stroke="midnightblue" d="M1075.75,-901.84C1107.75,-884.51 1156,-850.79 1156,-805 1156,-805 1156,-805 1156,-629.5 1156,-585.47 1131.83,-536.78 1121.07,-517.28"/>
<polygon fill="midnightblue" stroke="midnightblue" points="1074.07,-898.77 1066.81,-906.49 1077.3,-904.98 1074.07,-898.77"/>
</g>
<!-- Node23 -->
<g id="node23" class="node">
<title>Node23</title>
<g id="a_node23"><a xlink:href="tls__endpoint_8h.html" target="_top" xlink:title=" ">
<polygon fill="white" stroke="black" points="589,-850.5 589,-869.5 733,-869.5 733,-850.5 589,-850.5"/>
<text text-anchor="middle" x="661" y="-857.5" font-family="Helvetica,sans-Serif" font-size="10.00">src/enclave/tls_endpoint.h</text>
</a>
</g>
</g>
<!-- Node22&#45;&gt;Node23 -->
<g id="edge34" class="edge">
<title>Node22&#45;&gt;Node23</title>
<path fill="none" stroke="midnightblue" d="M989.9,-906.89C917.84,-896.84 795.53,-879.77 722.1,-869.53"/>
<polygon fill="midnightblue" stroke="midnightblue" points="989.77,-910.41 1000.16,-908.32 990.74,-903.48 989.77,-910.41"/>
</g>
<!-- Node39 -->
<g id="node39" class="node">
<title>Node39</title>
<g id="a_node39"><a xlink:href="client_8h.html" target="_top" xlink:title=" ">
<polygon fill="white" stroke="black" points="969.5,-559.5 969.5,-578.5 1054.5,-578.5 1054.5,-559.5 969.5,-559.5"/>
<text text-anchor="middle" x="1012" y="-566.5" font-family="Helvetica,sans-Serif" font-size="10.00">src/tls/client.h</text>
</a>
</g>
</g>
<!-- Node22&#45;&gt;Node39 -->
<g id="edge65" class="edge">
<title>Node22&#45;&gt;Node39</title>
<path fill="none" stroke="midnightblue" d="M1038.41,-897.4C1027.74,-876.15 1012,-839.02 1012,-805 1012,-805 1012,-805 1012,-691 1012,-648.78 1012,-598.26 1012,-578.51"/>
<polygon fill="midnightblue" stroke="midnightblue" points="1035.41,-899.23 1043.14,-906.47 1041.62,-895.99 1035.41,-899.23"/>
</g>
<!-- Node40 -->
<g id="node40" class="node">
<title>Node40</title>
<g id="a_node40"><a xlink:href="server_8h.html" target="_top" xlink:title=" ">
<polygon fill="white" stroke="black" points="1040,-738.5 1040,-757.5 1128,-757.5 1128,-738.5 1040,-738.5"/>
<text text-anchor="middle" x="1084" y="-745.5" font-family="Helvetica,sans-Serif" font-size="10.00">src/tls/server.h</text>
</a>
</g>
</g>
<!-- Node22&#45;&gt;Node40 -->
<g id="edge68" class="edge">
<title>Node22&#45;&gt;Node40</title>
<path fill="none" stroke="midnightblue" d="M1052.14,-895.93C1059.94,-859.92 1076.58,-783.23 1082.14,-757.57"/>
<polygon fill="midnightblue" stroke="midnightblue" points="1048.63,-895.56 1049.94,-906.08 1055.48,-897.04 1048.63,-895.56"/>
</g>
<!-- Node24 -->
<g id="node24" class="node">
<title>Node24</title>
<g id="a_node24"><a xlink:href="http__parser_8h.html" target="_top" xlink:title=" ">
<polygon fill="white" stroke="black" points="517,-738.5 517,-757.5 637,-757.5 637,-738.5 517,-738.5"/>
<text text-anchor="middle" x="577" y="-745.5" font-family="Helvetica,sans-Serif" font-size="10.00">src/http/http_parser.h</text>
</a>
</g>
</g>
<!-- Node23&#45;&gt;Node24 -->
<g id="edge35" class="edge">
<title>Node23&#45;&gt;Node24</title>
<path fill="none" stroke="midnightblue" d="M633.05,-845.38C620.1,-837.77 605.5,-827.17 596,-814 583.48,-796.65 579.16,-771.11 577.71,-757.8"/>
<polygon fill="midnightblue" stroke="midnightblue" points="631.66,-848.6 642.1,-850.37 635.04,-842.47 631.66,-848.6"/>
</g>
<!-- Node38 -->
<g id="node38" class="node">
<title>Node38</title>
<g id="a_node38"><a xlink:href="http__proc_8h.html" target="_top" xlink:title=" ">
<polygon fill="white" stroke="black" points="605.5,-794.5 605.5,-813.5 716.5,-813.5 716.5,-794.5 605.5,-794.5"/>
<text text-anchor="middle" x="661" y="-801.5" font-family="Helvetica,sans-Serif" font-size="10.00">src/http/http_proc.h</text>
</a>
</g>
</g>
<!-- Node23&#45;&gt;Node38 -->
<g id="edge63" class="edge">
<title>Node23&#45;&gt;Node38</title>
<path fill="none" stroke="midnightblue" d="M661,-839.8C661,-830.91 661,-820.78 661,-813.75"/>
<polygon fill="midnightblue" stroke="midnightblue" points="657.5,-840.08 661,-850.08 664.5,-840.08 657.5,-840.08"/>
</g>
<!-- Node24&#45;&gt;Node3 -->
<g id="edge36" class="edge">
<title>Node24&#45;&gt;Node3</title>
<path fill="none" stroke="midnightblue" d="M506.69,-741.35C433.87,-734.56 325.67,-721.58 289,-702 264.04,-688.67 243.56,-661.95 232.63,-645.51"/>
<polygon fill="midnightblue" stroke="midnightblue" points="506.45,-744.84 516.73,-742.27 507.09,-737.87 506.45,-744.84"/>
</g>
<!-- Node25 -->
<g id="node25" class="node">
<title>Node25</title>
<g id="a_node25"><a xlink:href="acme__challenge__server_8h.html" target="_top" xlink:title=" ">
<polygon fill="white" stroke="black" points="282.5,-492.5 282.5,-522.5 419.5,-522.5 419.5,-492.5 282.5,-492.5"/>
<text text-anchor="start" x="290.5" y="-510.5" font-family="Helvetica,sans-Serif" font-size="10.00">src/host/acme_challenge</text>
<text text-anchor="middle" x="351" y="-499.5" font-family="Helvetica,sans-Serif" font-size="10.00">_server.h</text>
</a>
</g>
</g>
<!-- Node24&#45;&gt;Node25 -->
<g id="edge37" class="edge">
<title>Node24&#45;&gt;Node25</title>
<path fill="none" stroke="midnightblue" d="M506.67,-739.87C449.4,-732.85 374.22,-720.47 350,-702 294.83,-659.94 329.32,-559.83 344.71,-522.69"/>
<polygon fill="midnightblue" stroke="midnightblue" points="506.43,-743.37 516.77,-741.08 507.26,-736.42 506.43,-743.37"/>
</g>
<!-- Node27 -->
<g id="node27" class="node">
<title>Node27</title>
<g id="a_node27"><a xlink:href="http__endpoint_8h.html" target="_top" xlink:title=" ">
<polygon fill="white" stroke="black" points="768.5,-559.5 768.5,-578.5 901.5,-578.5 901.5,-559.5 768.5,-559.5"/>
<text text-anchor="middle" x="835" y="-566.5" font-family="Helvetica,sans-Serif" font-size="10.00">src/http/http_endpoint.h</text>
</a>
</g>
</g>
<!-- Node24&#45;&gt;Node27 -->
<g id="edge39" class="edge">
<title>Node24&#45;&gt;Node27</title>
<path fill="none" stroke="midnightblue" d="M647.3,-745.03C717.46,-738.87 821.96,-717.34 873,-646 889.05,-623.56 861.38,-593.35 845.29,-578.7"/>
<polygon fill="midnightblue" stroke="midnightblue" points="646.9,-741.55 637.2,-745.84 647.45,-748.53 646.9,-741.55"/>
</g>
<!-- Node28 -->
<g id="node28" class="node">
<title>Node28</title>
<g id="a_node28"><a xlink:href="http__jwt_8h.html" target="_top" xlink:title=" ">
<polygon fill="white" stroke="black" points="483.5,-682.5 483.5,-701.5 588.5,-701.5 588.5,-682.5 483.5,-682.5"/>
<text text-anchor="middle" x="536" y="-689.5" font-family="Helvetica,sans-Serif" font-size="10.00">src/http/http_jwt.h</text>
</a>
</g>
</g>
<!-- Node24&#45;&gt;Node28 -->
<g id="edge42" class="edge">
<title>Node24&#45;&gt;Node28</title>
<path fill="none" stroke="midnightblue" d="M563.98,-729.86C556.88,-720.5 548.4,-709.33 542.64,-701.75"/>
<polygon fill="midnightblue" stroke="midnightblue" points="561.39,-732.24 570.23,-738.08 566.97,-728 561.39,-732.24"/>
</g>
<!-- Node33 -->
<g id="node33" class="node">
<title>Node33</title>
<g id="a_node33"><a xlink:href="http__rpc__context_8h.html" target="_top" xlink:title=" ">
<polygon fill="white" stroke="black" points="543.5,-621 543.5,-640 690.5,-640 690.5,-621 543.5,-621"/>
<text text-anchor="middle" x="617" y="-628" font-family="Helvetica,sans-Serif" font-size="10.00">src/http/http_rpc_context.h</text>
</a>
</g>
</g>
<!-- Node24&#45;&gt;Node33 -->
<g id="edge51" class="edge">
<title>Node24&#45;&gt;Node33</title>
<path fill="none" stroke="midnightblue" d="M585.72,-728.96C589.47,-720.83 593.73,-711.04 597,-702 604.88,-680.23 611.67,-653.78 614.93,-640.31"/>
<polygon fill="midnightblue" stroke="midnightblue" points="582.47,-727.65 581.36,-738.19 588.8,-730.64 582.47,-727.65"/>
</g>
<!-- Node35 -->
<g id="node35" class="node">
<title>Node35</title>
<g id="a_node35"><a xlink:href="http__sig_8h.html" target="_top" xlink:title=" ">
<polygon fill="white" stroke="black" points="359,-682.5 359,-701.5 463,-701.5 463,-682.5 359,-682.5"/>
<text text-anchor="middle" x="411" y="-689.5" font-family="Helvetica,sans-Serif" font-size="10.00">src/http/http_sig.h</text>
</a>
</g>
</g>
<!-- Node24&#45;&gt;Node35 -->
<g id="edge57" class="edge">
<title>Node24&#45;&gt;Node35</title>
<path fill="none" stroke="midnightblue" d="M541.05,-735.3C509.77,-725.13 465.18,-710.62 437.18,-701.52"/>
<polygon fill="midnightblue" stroke="midnightblue" points="540.1,-738.68 550.7,-738.44 542.27,-732.02 540.1,-738.68"/>
</g>
<!-- Node37 -->
<g id="node37" class="node">
<title>Node37</title>
<g id="a_node37"><a xlink:href="acme__client_8h.html" target="_top" xlink:title=" ">
<polygon fill="white" stroke="black" points="854.5,-682.5 854.5,-701.5 983.5,-701.5 983.5,-682.5 854.5,-682.5"/>
<text text-anchor="middle" x="919" y="-689.5" font-family="Helvetica,sans-Serif" font-size="10.00">src/node/acme_client.h</text>
</a>
</g>
</g>
<!-- Node24&#45;&gt;Node37 -->
<g id="edge61" class="edge">
<title>Node24&#45;&gt;Node37</title>
<path fill="none" stroke="midnightblue" d="M641.26,-736.85C705.88,-726.65 804.38,-711.1 865.06,-701.52"/>
<polygon fill="midnightblue" stroke="midnightblue" points="640.52,-733.43 631.19,-738.44 641.61,-740.34 640.52,-733.43"/>
</g>
<!-- Node26 -->
<g id="node26" class="node">
<title>Node26</title>
<g id="a_node26"><a xlink:href="host_2main_8cpp.html" target="_top" xlink:title=" ">
<polygon fill="white" stroke="black" points="299.5,-431 299.5,-450 402.5,-450 402.5,-431 299.5,-431"/>
<text text-anchor="middle" x="351" y="-438" font-family="Helvetica,sans-Serif" font-size="10.00">src/host/main.cpp</text>
</a>
</g>
</g>
<!-- Node25&#45;&gt;Node26 -->
<g id="edge38" class="edge">
<title>Node25&#45;&gt;Node26</title>
<path fill="none" stroke="midnightblue" d="M351,-482.25C351,-471.02 351,-458.38 351,-450.19"/>
<polygon fill="midnightblue" stroke="midnightblue" points="347.5,-482.4 351,-492.4 354.5,-482.4 347.5,-482.4"/>
</g>
<!-- Node27&#45;&gt;Node8 -->
<g id="edge40" class="edge">
<title>Node27&#45;&gt;Node8</title>
<path fill="none" stroke="midnightblue" d="M885.05,-557.4C939.53,-545.87 1025.56,-527.65 1075.81,-517.01"/>
<polygon fill="midnightblue" stroke="midnightblue" points="884.32,-553.98 875.26,-559.48 885.77,-560.83 884.32,-553.98"/>
</g>
<!-- Node27&#45;&gt;Node25 -->
<g id="edge41" class="edge">
<title>Node27&#45;&gt;Node25</title>
<path fill="none" stroke="midnightblue" d="M758.53,-558.6C665.26,-547.13 509.03,-527.93 419.52,-516.92"/>
<polygon fill="midnightblue" stroke="midnightblue" points="758.11,-562.07 768.46,-559.82 758.97,-555.13 758.11,-562.07"/>
</g>
<!-- Node29 -->
<g id="node29" class="node">
<title>Node29</title>
<g id="a_node29"><a xlink:href="jwt__auth_8cpp.html" target="_top" xlink:title=" ">
<polygon fill="white" stroke="black" points="708.5,-615.5 708.5,-645.5 863.5,-645.5 863.5,-615.5 708.5,-615.5"/>
<text text-anchor="start" x="716.5" y="-633.5" font-family="Helvetica,sans-Serif" font-size="10.00">src/endpoints/authentication</text>
<text text-anchor="middle" x="786" y="-622.5" font-family="Helvetica,sans-Serif" font-size="10.00">/jwt_auth.cpp</text>
</a>
</g>
</g>
<!-- Node28&#45;&gt;Node29 -->
<g id="edge43" class="edge">
<title>Node28&#45;&gt;Node29</title>
<path fill="none" stroke="midnightblue" d="M581.77,-680.11C622.61,-670.39 682.66,-656.1 727.08,-645.52"/>
<polygon fill="midnightblue" stroke="midnightblue" points="580.74,-676.75 571.82,-682.48 582.36,-683.56 580.74,-676.75"/>
</g>
<!-- Node30 -->
<g id="node30" class="node">
<title>Node30</title>
<g id="a_node30"><a xlink:href="frontend_8h.html" target="_top" xlink:title=" ">
<polygon fill="white" stroke="black" points="525.5,-364 525.5,-383 654.5,-383 654.5,-364 525.5,-364"/>
<text text-anchor="middle" x="590" y="-371" font-family="Helvetica,sans-Serif" font-size="10.00">src/node/rpc/frontend.h</text>
</a>
</g>
</g>
<!-- Node28&#45;&gt;Node30 -->
<g id="edge44" class="edge">
<title>Node28&#45;&gt;Node30</title>
<path fill="none" stroke="midnightblue" d="M534.01,-671.76C532.77,-656.36 531.79,-634.23 534,-615 534.09,-614.24 578.05,-425.73 588.01,-383.03"/>
<polygon fill="midnightblue" stroke="midnightblue" points="530.55,-672.44 534.96,-682.07 537.52,-671.79 530.55,-672.44"/>
</g>
<!-- Node30&#45;&gt;Node12 -->
<g id="edge45" class="edge">
<title>Node30&#45;&gt;Node12</title>
<path fill="none" stroke="midnightblue" d="M600.7,-355.07C620.42,-324.68 665.7,-262.61 722,-235 769.35,-211.78 913.89,-196.46 997.84,-189.26"/>
<polygon fill="midnightblue" stroke="midnightblue" points="597.6,-353.42 595.21,-363.74 603.52,-357.16 597.6,-353.42"/>
</g>
<!-- Node30&#45;&gt;Node17 -->
<g id="edge48" class="edge">
<title>Node30&#45;&gt;Node17</title>
<path fill="none" stroke="midnightblue" d="M625.74,-360.88C661.31,-349.32 715.05,-331.84 746.83,-321.51"/>
<polygon fill="midnightblue" stroke="midnightblue" points="624.65,-357.55 616.22,-363.98 626.81,-364.21 624.65,-357.55"/>
</g>
<!-- Node31 -->
<g id="node31" class="node">
<title>Node31</title>
<g id="a_node31"><a xlink:href="member__frontend_8h.html" target="_top" xlink:title=" ">
<polygon fill="white" stroke="black" points="565,-168.5 565,-198.5 685,-198.5 685,-168.5 565,-168.5"/>
<text text-anchor="start" x="573" y="-186.5" font-family="Helvetica,sans-Serif" font-size="10.00">src/node/rpc/member</text>
<text text-anchor="middle" x="625" y="-175.5" font-family="Helvetica,sans-Serif" font-size="10.00">_frontend.h</text>
</a>
</g>
</g>
<!-- Node30&#45;&gt;Node31 -->
<g id="edge46" class="edge">
<title>Node30&#45;&gt;Node31</title>
<path fill="none" stroke="midnightblue" d="M593.04,-353.64C597.37,-327.1 605.71,-277.26 614,-235 616.42,-222.67 619.48,-208.73 621.76,-198.62"/>
<polygon fill="midnightblue" stroke="midnightblue" points="589.54,-353.36 591.39,-363.79 596.45,-354.48 589.54,-353.36"/>
</g>
<!-- Node32 -->
<g id="node32" class="node">
<title>Node32</title>
<g id="a_node32"><a xlink:href="user__frontend_8h.html" target="_top" xlink:title=" ">
<polygon fill="white" stroke="black" points="491.5,-112.5 491.5,-131.5 646.5,-131.5 646.5,-112.5 491.5,-112.5"/>
<text text-anchor="middle" x="569" y="-119.5" font-family="Helvetica,sans-Serif" font-size="10.00">src/node/rpc/user_frontend.h</text>
</a>
</g>
</g>
<!-- Node30&#45;&gt;Node32 -->
<g id="edge49" class="edge">
<title>Node30&#45;&gt;Node32</title>
<path fill="none" stroke="midnightblue" d="M583.25,-354.46C570.77,-318.87 546.22,-237.11 556,-168 557.82,-155.12 562.45,-140.76 565.66,-131.8"/>
<polygon fill="midnightblue" stroke="midnightblue" points="579.99,-355.74 586.68,-363.95 586.57,-353.36 579.99,-355.74"/>
</g>
<!-- Node31&#45;&gt;Node9 -->
<g id="edge47" class="edge">
<title>Node31&#45;&gt;Node9</title>
<path fill="none" stroke="midnightblue" d="M641.95,-160.26C661.54,-134.54 692.85,-93.45 706.39,-75.67"/>
<polygon fill="midnightblue" stroke="midnightblue" points="639.07,-158.26 635.79,-168.34 644.64,-162.5 639.07,-158.26"/>
</g>
<!-- Node32&#45;&gt;Node9 -->
<g id="edge50" class="edge">
<title>Node32&#45;&gt;Node9</title>
<path fill="none" stroke="midnightblue" d="M601.25,-108.91C628.32,-98.75 666.32,-84.51 690.29,-75.52"/>
<polygon fill="midnightblue" stroke="midnightblue" points="599.95,-105.66 591.82,-112.44 602.41,-112.21 599.95,-105.66"/>
</g>
<!-- Node33&#45;&gt;Node18 -->
<g id="edge53" class="edge">
<title>Node33&#45;&gt;Node18</title>
<path fill="none" stroke="midnightblue" d="M635.58,-614.42C684.2,-573.58 814.66,-454.95 861,-322 868.07,-301.73 853.46,-279.62 841.24,-265.67"/>
<polygon fill="midnightblue" stroke="midnightblue" points="633.2,-611.84 627.74,-620.92 637.67,-617.23 633.2,-611.84"/>
</g>
<!-- Node33&#45;&gt;Node27 -->
<g id="edge52" class="edge">
<title>Node33&#45;&gt;Node27</title>
<path fill="none" stroke="midnightblue" d="M657.95,-618.32C700.3,-606.76 765.48,-588.97 803.82,-578.51"/>
<polygon fill="midnightblue" stroke="midnightblue" points="656.96,-614.97 648.23,-620.98 658.8,-621.72 656.96,-614.97"/>
</g>
<!-- Node34 -->
<g id="node34" class="node">
<title>Node34</title>
<g id="a_node34"><a xlink:href="forwarder_8h.html" target="_top" xlink:title=" ">
<polygon fill="white" stroke="black" points="428,-431 428,-450 562,-450 562,-431 428,-431"/>
<text text-anchor="middle" x="495" y="-438" font-family="Helvetica,sans-Serif" font-size="10.00">src/node/rpc/forwarder.h</text>
</a>
</g>
</g>
<!-- Node33&#45;&gt;Node34 -->
<g id="edge54" class="edge">
<title>Node33&#45;&gt;Node34</title>
<path fill="none" stroke="midnightblue" d="M605.81,-612.26C580.46,-573.19 519.38,-479.06 500.59,-450.12"/>
<polygon fill="midnightblue" stroke="midnightblue" points="603.06,-614.45 611.44,-620.93 608.93,-610.64 603.06,-614.45"/>
</g>
<!-- Node34&#45;&gt;Node9 -->
<g id="edge55" class="edge">
<title>Node34&#45;&gt;Node9</title>
<path fill="none" stroke="midnightblue" d="M487.43,-421.47C477.97,-397.25 463,-352.66 463,-313 463,-313 463,-313 463,-182.5 463,-150.05 458.26,-134.12 482,-112 506.18,-89.48 592.02,-77.45 651.95,-71.65"/>
<polygon fill="midnightblue" stroke="midnightblue" points="484.21,-422.84 491.2,-430.8 490.7,-420.21 484.21,-422.84"/>
</g>
<!-- Node34&#45;&gt;Node30 -->
<g id="edge56" class="edge">
<title>Node34&#45;&gt;Node30</title>
<path fill="none" stroke="midnightblue" d="M516.31,-424.92C535.09,-412.07 561.82,-393.78 577.39,-383.13"/>
<polygon fill="midnightblue" stroke="midnightblue" points="514.09,-422.2 507.81,-430.73 518.04,-427.98 514.09,-422.2"/>
</g>
<!-- Node35&#45;&gt;Node3 -->
<g id="edge58" class="edge">
<title>Node35&#45;&gt;Node3</title>
<path fill="none" stroke="midnightblue" d="M374.41,-679.36C343.94,-669.66 300.45,-655.83 268.07,-645.52"/>
<polygon fill="midnightblue" stroke="midnightblue" points="373.62,-682.78 384.21,-682.48 375.74,-676.11 373.62,-682.78"/>
</g>
<!-- Node35&#45;&gt;Node33 -->
<g id="edge60" class="edge">
<title>Node35&#45;&gt;Node33</title>
<path fill="none" stroke="midnightblue" d="M450.21,-679.68C490.23,-668.11 551.46,-650.43 587.54,-640.01"/>
<polygon fill="midnightblue" stroke="midnightblue" points="449.15,-676.34 440.51,-682.48 451.09,-683.06 449.15,-676.34"/>
</g>
<!-- Node36 -->
<g id="node36" class="node">
<title>Node36</title>
<g id="a_node36"><a xlink:href="sig__auth_8cpp.html" target="_top" xlink:title=" ">
<polygon fill="white" stroke="black" points="331.5,-615.5 331.5,-645.5 486.5,-645.5 486.5,-615.5 331.5,-615.5"/>
<text text-anchor="start" x="339.5" y="-633.5" font-family="Helvetica,sans-Serif" font-size="10.00">src/endpoints/authentication</text>
<text text-anchor="middle" x="409" y="-622.5" font-family="Helvetica,sans-Serif" font-size="10.00">/sig_auth.cpp</text>
</a>
</g>
</g>
<!-- Node35&#45;&gt;Node36 -->
<g id="edge59" class="edge">
<title>Node35&#45;&gt;Node36</title>
<path fill="none" stroke="midnightblue" d="M410.37,-672.23C410.08,-663.59 409.74,-653.5 409.47,-645.52"/>
<polygon fill="midnightblue" stroke="midnightblue" points="406.88,-672.6 410.71,-682.48 413.88,-672.36 406.88,-672.6"/>
</g>
<!-- Node37&#45;&gt;Node11 -->
<g id="edge62" class="edge">
<title>Node37&#45;&gt;Node11</title>
<path fill="none" stroke="midnightblue" d="M918.78,-672.34C918.17,-622.14 916.53,-485.6 916.1,-450.05"/>
<polygon fill="midnightblue" stroke="midnightblue" points="915.28,-672.45 918.9,-682.41 922.28,-672.37 915.28,-672.45"/>
</g>
<!-- Node38&#45;&gt;Node24 -->
<g id="edge64" class="edge">
<title>Node38&#45;&gt;Node24</title>
<path fill="none" stroke="midnightblue" d="M639.07,-788.9C623.66,-779 603.55,-766.07 590.46,-757.65"/>
<polygon fill="midnightblue" stroke="midnightblue" points="637.2,-791.86 647.5,-794.32 640.98,-785.97 637.2,-791.86"/>
</g>
<!-- Node39&#45;&gt;Node8 -->
<g id="edge66" class="edge">
<title>Node39&#45;&gt;Node8</title>
<path fill="none" stroke="midnightblue" d="M1035.77,-554.4C1055.88,-542.9 1084.07,-526.77 1101.13,-517.01"/>
<polygon fill="midnightblue" stroke="midnightblue" points="1033.84,-551.47 1026.9,-559.48 1037.32,-557.55 1033.84,-551.47"/>
</g>
<!-- Node39&#45;&gt;Node12 -->
<g id="edge67" class="edge">
<title>Node39&#45;&gt;Node12</title>
<path fill="none" stroke="midnightblue" d="M970.04,-556.61C869.19,-526.81 625.81,-439.24 685,-302 689.3,-292.04 746.28,-239.82 756,-235 833.4,-196.6 934.13,-186.55 997.95,-184.37"/>
<polygon fill="midnightblue" stroke="midnightblue" points="969.33,-560.04 979.9,-559.47 971.28,-553.32 969.33,-560.04"/>
</g>
<!-- Node40&#45;&gt;Node8 -->
<g id="edge69" class="edge">
<title>Node40&#45;&gt;Node8</title>
<path fill="none" stroke="midnightblue" d="M1086.53,-728.17C1093.04,-679.6 1110.23,-551.49 1114.85,-517.1"/>
<polygon fill="midnightblue" stroke="midnightblue" points="1083.04,-727.85 1085.18,-738.23 1089.98,-728.78 1083.04,-727.85"/>
</g>
</g>
</svg>
        <g id="navigator" transform="translate(0 0)" fill="#404254">
                <rect fill="#f2f5e9" fill-opacity="0.5" stroke="#606060" stroke-width=".5" x="0" y="0" width="60" height="60"/>
                <use id="zoomplus" xlink:href="#zoomPlus" x="17" y="9" onmousedown="handleZoom(evt,'in')"/>
                <use id="zoomminus" xlink:href="#zoomMin" x="42" y="9" onmousedown="handleZoom(evt,'out')"/>
                <use id="reset" xlink:href="#resetDef" x="30" y="36" onmousedown="handleReset()"/>
                <g id="arrowUp" xlink:href="#dirArrow" transform="translate(30 24)" onmousedown="handlePan(0,-1)">
                  <use xlink:href="#rim" fill="#404040">
                        <set attributeName="fill" to="#808080" begin="arrowUp.mouseover" end="arrowUp.mouseout"/>
                  </use>
                  <path fill="none" stroke="white" stroke-width="1.5" d="M0,-3.0v7 M-2.5,-0.5L0,-3.0L2.5,-0.5"/>
                </g>
                <g id="arrowRight" xlink:href="#dirArrow" transform="rotate(90) translate(36 -43)" onmousedown="handlePan(1,0)">
                  <use xlink:href="#rim" fill="#404040">
                        <set attributeName="fill" to="#808080" begin="arrowRight.mouseover" end="arrowRight.mouseout"/>
                  </use>
                  <path fill="none" stroke="white" stroke-width="1.5" d="M0,-3.0v7 M-2.5,-0.5L0,-3.0L2.5,-0.5"/>
                </g>
                <g id="arrowDown" xlink:href="#dirArrow" transform="rotate(180) translate(-30 -48)" onmousedown="handlePan(0,1)">
                  <use xlink:href="#rim" fill="#404040">
                        <set attributeName="fill" to="#808080" begin="arrowDown.mouseover" end="arrowDown.mouseout"/>
                  </use>
                  <path fill="none" stroke="white" stroke-width="1.5" d="M0,-3.0v7 M-2.5,-0.5L0,-3.0L2.5,-0.5"/>
                </g>
                <g id="arrowLeft" xlink:href="#dirArrow" transform="rotate(270) translate(-36 17)" onmousedown="handlePan(-1,0)">
                  <use xlink:href="#rim" fill="#404040">
                        <set attributeName="fill" to="#808080" begin="arrowLeft.mouseover" end="arrowLeft.mouseout"/>
                  </use>
                  <path fill="none" stroke="white" stroke-width="1.5" d="M0,-3.0v7 M-2.5,-0.5L0,-3.0L2.5,-0.5"/>
                </g>
        </g>
        <svg viewBox="0 0 15 15" width="100%" height="30px" preserveAspectRatio="xMaxYMin meet">
         <g id="arrow_out" transform="scale(0.3 0.3)">
          <a xlink:href="cert_8h__dep__incl_org.svg" target="_base">
           <rect id="button" ry="5" rx="5" y="6" x="6" height="38" width="38"
                fill="#f2f5e9" fill-opacity="0.5" stroke="#606060" stroke-width="1.0"/>
           <path id="arrow"
             d="M 11.500037,31.436501 C 11.940474,20.09759 22.043105,11.32322 32.158766,21.979434 L 37.068811,17.246167 C 37.068811,17.246167 37.088388,32 37.088388,32 L 22.160133,31.978069 C 22.160133,31.978069 26.997745,27.140456 26.997745,27.140456 C 18.528582,18.264221 13.291696,25.230495 11.500037,31.436501 z"
             style="fill:#404040;"/>
          </a>
         </g>
        </svg>
</svg>
