<?xml version="1.0" encoding="UTF-8" standalone="no"?>
<!DOCTYPE svg PUBLIC "-//W3C//DTD SVG 1.1//EN"
 "http://www.w3.org/Graphics/SVG/1.1/DTD/svg11.dtd">
<!-- Generated by graphviz version 2.43.0 (0)
 -->
<!-- Title: http::HTTPEndpoint Pages: 1 -->
<svg width="933pt" height="210pt"
 viewBox="0.00 0.00 933.00 209.50" xmlns="http://www.w3.org/2000/svg" xmlns:xlink="http://www.w3.org/1999/xlink">
<g id="graph0" class="graph" transform="scale(1 1) rotate(0) translate(4 205.5)">
<title>http::HTTPEndpoint</title>
<polygon fill="white" stroke="transparent" points="-4,4 -4,-205.5 929,-205.5 929,4 -4,4"/>
<!-- Node1 -->
<g id="node1" class="node">
<title>Node1</title>
<g id="a_node1"><a xlink:title=" ">
<polygon fill="#bfbfbf" stroke="black" points="815,-77.5 815,-96.5 925,-96.5 925,-77.5 815,-77.5"/>
<text text-anchor="middle" x="870" y="-84.5" font-family="Helvetica,sans-Serif" font-size="10.00">http::HTTPEndpoint</text>
</a>
</g>
</g>
<!-- Node2 -->
<g id="node2" class="node">
<title>Node2</title>
<g id="a_node2"><a xlink:href="classccf_1_1TLSEndpoint.html" target="_top" xlink:title=" ">
<polygon fill="white" stroke="black" points="600,-132.5 600,-151.5 696,-151.5 696,-132.5 600,-132.5"/>
<text text-anchor="middle" x="648" y="-139.5" font-family="Helvetica,sans-Serif" font-size="10.00">ccf::TLSEndpoint</text>
</a>
</g>
</g>
<!-- Node2&#45;&gt;Node1 -->
<g id="edge1" class="edge">
<title>Node2&#45;&gt;Node1</title>
<path fill="none" stroke="midnightblue" d="M697.15,-129.96C737.27,-119.93 793.66,-105.83 830.75,-96.56"/>
<polygon fill="midnightblue" stroke="midnightblue" points="696.17,-126.6 687.32,-132.42 697.87,-133.39 696.17,-126.6"/>
</g>
<!-- Node3 -->
<g id="node3" class="node">
<title>Node3</title>
<g id="a_node3"><a xlink:href="classccf_1_1Endpoint.html" target="_top" xlink:title=" ">
<polygon fill="white" stroke="black" points="392,-176.5 392,-195.5 471,-195.5 471,-176.5 392,-176.5"/>
<text text-anchor="middle" x="431.5" y="-183.5" font-family="Helvetica,sans-Serif" font-size="10.00">ccf::Endpoint</text>
</a>
</g>
</g>
<!-- Node3&#45;&gt;Node2 -->
<g id="edge2" class="edge">
<title>Node3&#45;&gt;Node2</title>
<path fill="none" stroke="midnightblue" d="M481.55,-175.94C517.32,-168.6 565.47,-158.72 600.61,-151.52"/>
<polygon fill="midnightblue" stroke="midnightblue" points="480.44,-172.59 471.34,-178.03 481.84,-179.45 480.44,-172.59"/>
</g>
<!-- Node4 -->
<g id="node4" class="node">
<title>Node4</title>
<g id="a_node4"><a xlink:title=" ">
<polygon fill="white" stroke="black" points="141,-171 141,-201 275,-201 275,-171 141,-171"/>
<text text-anchor="start" x="149" y="-189" font-family="Helvetica,sans-Serif" font-size="10.00">std::enable_shared</text>
<text text-anchor="middle" x="208" y="-178" font-family="Helvetica,sans-Serif" font-size="10.00">_from_this&lt; Endpoint &gt;</text>
</a>
</g>
</g>
<!-- Node4&#45;&gt;Node3 -->
<g id="edge3" class="edge">
<title>Node4&#45;&gt;Node3</title>
<path fill="none" stroke="midnightblue" d="M285.58,-186C321.37,-186 362.43,-186 391.68,-186"/>
<polygon fill="midnightblue" stroke="midnightblue" points="285.16,-182.5 275.16,-186 285.16,-189.5 285.16,-182.5"/>
</g>
<!-- Node5 -->
<g id="node5" class="node">
<title>Node5</title>
<g id="a_node5"><a xlink:title=" ">
<polygon fill="white" stroke="black" points="361,-127 361,-157 502,-157 502,-127 361,-127"/>
<text text-anchor="start" x="369" y="-145" font-family="Helvetica,sans-Serif" font-size="10.00">std::shared_ptr&lt; Abstract</text>
<text text-anchor="middle" x="431.5" y="-134" font-family="Helvetica,sans-Serif" font-size="10.00">Writer &gt;</text>
</a>
</g>
</g>
<!-- Node5&#45;&gt;Node2 -->
<g id="edge4" class="edge">
<title>Node5&#45;&gt;Node2</title>
<path fill="none" stroke="#9a32cd" stroke-dasharray="5,2" d="M512.4,-142C541.79,-142 574.11,-142 599.71,-142"/>
<polygon fill="#9a32cd" stroke="#9a32cd" points="512.14,-138.5 502.14,-142 512.14,-145.5 512.14,-138.5"/>
<text text-anchor="middle" x="545.5" y="-145" font-family="Helvetica,sans-Serif" font-size="10.00"> to_host</text>
</g>
<!-- Node6 -->
<g id="node6" class="node">
<title>Node6</title>
<g id="a_node6"><a xlink:href="classhttp_1_1Parser.html" target="_top" xlink:title=" ">
<polygon fill="white" stroke="black" points="612,-77.5 612,-96.5 684,-96.5 684,-77.5 612,-77.5"/>
<text text-anchor="middle" x="648" y="-84.5" font-family="Helvetica,sans-Serif" font-size="10.00">http::Parser</text>
</a>
</g>
</g>
<!-- Node6&#45;&gt;Node1 -->
<g id="edge5" class="edge">
<title>Node6&#45;&gt;Node1</title>
<path fill="none" stroke="#9a32cd" stroke-dasharray="5,2" d="M694.74,-87C729.68,-87 777.95,-87 814.83,-87"/>
<polygon fill="#9a32cd" stroke="#9a32cd" points="694.35,-83.5 684.35,-87 694.35,-90.5 694.35,-83.5"/>
<text text-anchor="middle" x="761.5" y="-90" font-family="Helvetica,sans-Serif" font-size="10.00"> p</text>
</g>
<!-- Node7 -->
<g id="node7" class="node">
<title>Node7</title>
<g id="a_node7"><a xlink:title=" ">
<polygon fill="white" stroke="black" points="369,-88.5 369,-107.5 494,-107.5 494,-88.5 369,-88.5"/>
<text text-anchor="middle" x="431.5" y="-95.5" font-family="Helvetica,sans-Serif" font-size="10.00">std::vector&lt; uint8_t &gt;</text>
</a>
</g>
</g>
<!-- Node7&#45;&gt;Node6 -->
<g id="edge6" class="edge">
<title>Node7&#45;&gt;Node6</title>
<path fill="none" stroke="#9a32cd" stroke-dasharray="5,2" d="M504.27,-94.32C540.43,-92.47 582.64,-90.3 611.73,-88.81"/>
<polygon fill="#9a32cd" stroke="#9a32cd" points="504.06,-90.83 494.25,-94.83 504.42,-97.82 504.06,-90.83"/>
<text text-anchor="middle" x="545.5" y="-96" font-family="Helvetica,sans-Serif" font-size="10.00"> body_buf</text>
</g>
<!-- Node8 -->
<g id="node8" class="node">
<title>Node8</title>
<g id="a_node8"><a xlink:title=" ">
<polygon fill="white" stroke="black" points="360,-39 360,-69 503,-69 503,-39 360,-39"/>
<text text-anchor="start" x="368" y="-57" font-family="Helvetica,sans-Serif" font-size="10.00">std::map&lt; std::string,</text>
<text text-anchor="middle" x="431.5" y="-46" font-family="Helvetica,sans-Serif" font-size="10.00"> std::string, std::less&lt;&gt; &gt;</text>
</a>
</g>
</g>
<!-- Node8&#45;&gt;Node6 -->
<g id="edge7" class="edge">
<title>Node8&#45;&gt;Node6</title>
<path fill="none" stroke="#9a32cd" stroke-dasharray="5,2" d="M513.01,-66.39C547.15,-71.64 585.15,-77.48 611.94,-81.61"/>
<polygon fill="#9a32cd" stroke="#9a32cd" points="513.45,-62.91 503.03,-64.85 512.38,-69.83 513.45,-62.91"/>
<text text-anchor="middle" x="545.5" y="-77" font-family="Helvetica,sans-Serif" font-size="10.00"> headers</text>
</g>
<!-- Node9 -->
<g id="node9" class="node">
<title>Node9</title>
<g id="a_node9"><a xlink:title=" ">
<polygon fill="white" stroke="black" points="175.5,-44.5 175.5,-63.5 240.5,-63.5 240.5,-44.5 175.5,-44.5"/>
<text text-anchor="middle" x="208" y="-51.5" font-family="Helvetica,sans-Serif" font-size="10.00">std::string</text>
</a>
</g>
</g>
<!-- Node9&#45;&gt;Node8 -->
<g id="edge8" class="edge">
<title>Node9&#45;&gt;Node8</title>
<path fill="none" stroke="#9a32cd" stroke-dasharray="5,2" d="M251.08,-54C281.79,-54 324.14,-54 359.98,-54"/>
<polygon fill="#9a32cd" stroke="#9a32cd" points="250.74,-50.5 240.74,-54 250.74,-57.5 250.74,-50.5"/>
<text text-anchor="middle" x="317.5" y="-68" font-family="Helvetica,sans-Serif" font-size="10.00"> elements</text>
<text text-anchor="middle" x="317.5" y="-57" font-family="Helvetica,sans-Serif" font-size="10.00">keys</text>
</g>
<!-- Node10 -->
<g id="node10" class="node">
<title>Node10</title>
<g id="a_node10"><a xlink:title=" ">
<polygon fill="white" stroke="black" points="0,-39 0,-69 104,-69 104,-39 0,-39"/>
<text text-anchor="start" x="8" y="-57" font-family="Helvetica,sans-Serif" font-size="10.00">std::basic_string&lt;</text>
<text text-anchor="middle" x="52" y="-46" font-family="Helvetica,sans-Serif" font-size="10.00"> Char &gt;</text>
</a>
</g>
</g>
<!-- Node10&#45;&gt;Node9 -->
<g id="edge9" class="edge">
<title>Node10&#45;&gt;Node9</title>
<path fill="none" stroke="midnightblue" d="M114.36,-54C135.21,-54 157.65,-54 175.23,-54"/>
<polygon fill="midnightblue" stroke="midnightblue" points="114.28,-50.5 104.28,-54 114.28,-57.5 114.28,-50.5"/>
</g>
<!-- Node11 -->
<g id="node11" class="node">
<title>Node11</title>
<g id="a_node11"><a xlink:title=" ">
<polygon fill="white" stroke="black" points="588,-6 588,-36 708,-36 708,-6 588,-6"/>
<text text-anchor="start" x="596" y="-24" font-family="Helvetica,sans-Serif" font-size="10.00">std::shared_ptr&lt; http</text>
<text text-anchor="middle" x="648" y="-13" font-family="Helvetica,sans-Serif" font-size="10.00">::ErrorReporter &gt;</text>
</a>
</g>
</g>
<!-- Node11&#45;&gt;Node1 -->
<g id="edge10" class="edge">
<title>Node11&#45;&gt;Node1</title>
<path fill="none" stroke="#9a32cd" stroke-dasharray="5,2" d="M708.89,-38.97C750.24,-51.37 803.59,-67.38 837.06,-77.42"/>
<polygon fill="#9a32cd" stroke="#9a32cd" points="709.78,-35.58 699.2,-36.06 707.77,-42.28 709.78,-35.58"/>
<text text-anchor="middle" x="761.5" y="-66" font-family="Helvetica,sans-Serif" font-size="10.00"> error_reporter</text>
</g>
<!-- Node12 -->
<g id="node12" class="node">
<title>Node12</title>
<g id="a_node12"><a xlink:href="classhttp_1_1ErrorReporter.html" target="_top" xlink:title=" ">
<polygon fill="white" stroke="black" points="378,-0.5 378,-19.5 485,-19.5 485,-0.5 378,-0.5"/>
<text text-anchor="middle" x="431.5" y="-7.5" font-family="Helvetica,sans-Serif" font-size="10.00">http::ErrorReporter</text>
</a>
</g>
</g>
<!-- Node12&#45;&gt;Node11 -->
<g id="edge11" class="edge">
<title>Node12&#45;&gt;Node11</title>
<path fill="none" stroke="#9a32cd" stroke-dasharray="5,2" d="M495.32,-13.22C524.47,-14.72 558.94,-16.48 587.64,-17.96"/>
<polygon fill="#9a32cd" stroke="#9a32cd" points="495.41,-9.72 485.25,-12.7 495.05,-16.71 495.41,-9.72"/>
<text text-anchor="middle" x="545.5" y="-20" font-family="Helvetica,sans-Serif" font-size="10.00"> ptr</text>
</g>
</g>
</svg>
