<?xml version="1.0" encoding="UTF-8" standalone="no"?>
<!DOCTYPE svg PUBLIC "-//W3C//DTD SVG 1.1//EN"
 "http://www.w3.org/Graphics/SVG/1.1/DTD/svg11.dtd">
<!-- Generated by graphviz version 2.43.0 (0)
 -->
<!-- Title: ACMEChallengeServer Pages: 1 -->
<svg width="785pt" height="284pt"
 viewBox="0.00 0.00 785.00 283.50" xmlns="http://www.w3.org/2000/svg" xmlns:xlink="http://www.w3.org/1999/xlink">
<g id="graph0" class="graph" transform="scale(1 1) rotate(0) translate(4 279.5)">
<title>ACMEChallengeServer</title>
<polygon fill="white" stroke="transparent" points="-4,4 -4,-279.5 781,-279.5 781,4 -4,4"/>
<!-- Node1 -->
<g id="node1" class="node">
<title>Node1</title>
<g id="a_node1"><a xlink:title=" ">
<polygon fill="#bfbfbf" stroke="black" points="652,-131 652,-150 777,-150 777,-131 652,-131"/>
<text text-anchor="middle" x="714.5" y="-138" font-family="Helvetica,sans-Serif" font-size="10.00">ACMEChallengeServer</text>
</a>
</g>
</g>
<!-- Node2 -->
<g id="node2" class="node">
<title>Node2</title>
<g id="a_node2"><a xlink:href="classACMEConnectionTracker.html" target="_top" xlink:title=" ">
<polygon fill="white" stroke="black" points="376.5,-256 376.5,-275 510.5,-275 510.5,-256 376.5,-256"/>
<text text-anchor="middle" x="443.5" y="-263" font-family="Helvetica,sans-Serif" font-size="10.00">ACMEConnectionTracker</text>
</a>
</g>
</g>
<!-- Node2&#45;&gt;Node1 -->
<g id="edge1" class="edge">
<title>Node2&#45;&gt;Node1</title>
<path fill="none" stroke="midnightblue" d="M520.85,-262.29C557.05,-258.04 599.76,-248.86 634,-229.5 668.99,-209.71 696.6,-168.8 707.93,-150.15"/>
<polygon fill="midnightblue" stroke="midnightblue" points="520.39,-258.82 510.82,-263.37 521.14,-265.78 520.39,-258.82"/>
</g>
<!-- Node3 -->
<g id="node3" class="node">
<title>Node3</title>
<g id="a_node3"><a xlink:title=" ">
<polygon fill="white" stroke="black" points="182,-187 182,-206 247,-206 247,-187 182,-187"/>
<text text-anchor="middle" x="214.5" y="-194" font-family="Helvetica,sans-Serif" font-size="10.00">std::string</text>
</a>
</g>
</g>
<!-- Node3&#45;&gt;Node1 -->
<g id="edge2" class="edge">
<title>Node3&#45;&gt;Node1</title>
<path fill="none" stroke="#9a32cd" stroke-dasharray="5,2" d="M257.5,-199.3C272.76,-200.19 290.15,-201.06 306,-201.5 452.41,-205.54 492.21,-206.22 634,-169.5 653.63,-164.42 675.2,-156.39 690.91,-150.06"/>
<polygon fill="#9a32cd" stroke="#9a32cd" points="257.51,-195.8 247.31,-198.69 257.08,-202.79 257.51,-195.8"/>
<text text-anchor="middle" x="443.5" y="-216.5" font-family="Helvetica,sans-Serif" font-size="10.00"> host</text>
<text text-anchor="middle" x="443.5" y="-205.5" font-family="Helvetica,sans-Serif" font-size="10.00">port</text>
</g>
<!-- Node8 -->
<g id="node8" class="node">
<title>Node8</title>
<g id="a_node8"><a xlink:title=" ">
<polygon fill="white" stroke="black" points="382.5,-148.5 382.5,-178.5 504.5,-178.5 504.5,-148.5 382.5,-148.5"/>
<text text-anchor="start" x="390.5" y="-166.5" font-family="Helvetica,sans-Serif" font-size="10.00">std::map&lt; std::string,</text>
<text text-anchor="middle" x="443.5" y="-155.5" font-family="Helvetica,sans-Serif" font-size="10.00"> std::string &gt;</text>
</a>
</g>
</g>
<!-- Node3&#45;&gt;Node8 -->
<g id="edge8" class="edge">
<title>Node3&#45;&gt;Node8</title>
<path fill="none" stroke="#9a32cd" stroke-dasharray="5,2" d="M257.41,-188C272.67,-185.08 290.08,-181.93 306,-179.5 330.89,-175.71 358.44,-172.33 382.24,-169.66"/>
<polygon fill="#9a32cd" stroke="#9a32cd" points="256.39,-184.64 247.24,-189.98 257.72,-191.51 256.39,-184.64"/>
<text text-anchor="middle" x="330.5" y="-193.5" font-family="Helvetica,sans-Serif" font-size="10.00"> elements</text>
<text text-anchor="middle" x="330.5" y="-182.5" font-family="Helvetica,sans-Serif" font-size="10.00">keys</text>
</g>
<!-- Node4 -->
<g id="node4" class="node">
<title>Node4</title>
<g id="a_node4"><a xlink:title=" ">
<polygon fill="white" stroke="black" points="0,-181.5 0,-211.5 104,-211.5 104,-181.5 0,-181.5"/>
<text text-anchor="start" x="8" y="-199.5" font-family="Helvetica,sans-Serif" font-size="10.00">std::basic_string&lt;</text>
<text text-anchor="middle" x="52" y="-188.5" font-family="Helvetica,sans-Serif" font-size="10.00"> Char &gt;</text>
</a>
</g>
</g>
<!-- Node4&#45;&gt;Node3 -->
<g id="edge3" class="edge">
<title>Node4&#45;&gt;Node3</title>
<path fill="none" stroke="midnightblue" d="M114.29,-196.5C137.34,-196.5 162.6,-196.5 181.87,-196.5"/>
<polygon fill="midnightblue" stroke="midnightblue" points="114.22,-193 104.22,-196.5 114.22,-200 114.22,-193"/>
</g>
<!-- Node5 -->
<g id="node5" class="node">
<title>Node5</title>
<g id="a_node5"><a xlink:title=" ">
<polygon fill="white" stroke="black" points="386.5,-88 386.5,-129 500.5,-129 500.5,-88 386.5,-88"/>
<text text-anchor="start" x="394.5" y="-117" font-family="Helvetica,sans-Serif" font-size="10.00">std::unordered_map</text>
<text text-anchor="start" x="394.5" y="-106" font-family="Helvetica,sans-Serif" font-size="10.00">&lt; size_t, asynchost</text>
<text text-anchor="middle" x="443.5" y="-95" font-family="Helvetica,sans-Serif" font-size="10.00">::proxy_ptr &gt;</text>
</a>
</g>
</g>
<!-- Node5&#45;&gt;Node1 -->
<g id="edge4" class="edge">
<title>Node5&#45;&gt;Node1</title>
<path fill="none" stroke="#9a32cd" stroke-dasharray="5,2" d="M510.68,-116.37C553.8,-121.5 609.69,-128.15 651.88,-133.17"/>
<polygon fill="#9a32cd" stroke="#9a32cd" points="510.91,-112.88 500.56,-115.17 510.08,-119.83 510.91,-112.88"/>
<text text-anchor="middle" x="583" y="-132.5" font-family="Helvetica,sans-Serif" font-size="10.00"> sockets</text>
</g>
<!-- Node6 -->
<g id="node6" class="node">
<title>Node6</title>
<g id="a_node6"><a xlink:href="classasynchost_1_1proxy__ptr.html" target="_top" xlink:title=" ">
<polygon fill="white" stroke="black" points="141,-99 141,-118 288,-118 288,-99 141,-99"/>
<text text-anchor="middle" x="214.5" y="-106" font-family="Helvetica,sans-Serif" font-size="10.00">asynchost::proxy_ptr&lt; T &gt;</text>
</a>
</g>
</g>
<!-- Node6&#45;&gt;Node5 -->
<g id="edge5" class="edge">
<title>Node6&#45;&gt;Node5</title>
<path fill="none" stroke="#9a32cd" stroke-dasharray="5,2" d="M298.46,-108.5C327.69,-108.5 359.84,-108.5 386.33,-108.5"/>
<polygon fill="#9a32cd" stroke="#9a32cd" points="298.26,-105 288.26,-108.5 298.26,-112 298.26,-105"/>
<text text-anchor="middle" x="330.5" y="-111.5" font-family="Helvetica,sans-Serif" font-size="10.00"> elements</text>
</g>
<!-- Node7 -->
<g id="node7" class="node">
<title>Node7</title>
<g id="a_node7"><a xlink:title=" ">
<polygon fill="white" stroke="black" points="409,-50 409,-69 478,-69 478,-50 409,-50"/>
<text text-anchor="middle" x="443.5" y="-57" font-family="Helvetica,sans-Serif" font-size="10.00">std::mutex</text>
</a>
</g>
</g>
<!-- Node7&#45;&gt;Node1 -->
<g id="edge6" class="edge">
<title>Node7&#45;&gt;Node1</title>
<path fill="none" stroke="#9a32cd" stroke-dasharray="5,2" d="M488.19,-67.39C527.04,-74.99 585.09,-87.79 634,-104.5 655.51,-111.85 679.1,-122.94 694.96,-130.87"/>
<polygon fill="#9a32cd" stroke="#9a32cd" points="488.74,-63.93 478.25,-65.48 487.41,-70.81 488.74,-63.93"/>
<text text-anchor="middle" x="583" y="-107.5" font-family="Helvetica,sans-Serif" font-size="10.00"> lock</text>
</g>
<!-- Node8&#45;&gt;Node1 -->
<g id="edge7" class="edge">
<title>Node8&#45;&gt;Node1</title>
<path fill="none" stroke="#9a32cd" stroke-dasharray="5,2" d="M514.53,-157.51C557.06,-153.88 610.86,-149.28 651.78,-145.78"/>
<polygon fill="#9a32cd" stroke="#9a32cd" points="514.2,-154.03 504.53,-158.37 514.8,-161 514.2,-154.03"/>
<text text-anchor="middle" x="583" y="-157.5" font-family="Helvetica,sans-Serif" font-size="10.00"> prepared_responses</text>
</g>
<!-- Node9 -->
<g id="node9" class="node">
<title>Node9</title>
<g id="a_node9"><a xlink:title=" ">
<polygon fill="white" stroke="black" points="373,-0.5 373,-30.5 514,-30.5 514,-0.5 373,-0.5"/>
<text text-anchor="start" x="381" y="-18.5" font-family="Helvetica,sans-Serif" font-size="10.00">std::shared_ptr&lt; Abstract</text>
<text text-anchor="middle" x="443.5" y="-7.5" font-family="Helvetica,sans-Serif" font-size="10.00">Writer &gt;</text>
</a>
</g>
</g>
<!-- Node9&#45;&gt;Node1 -->
<g id="edge9" class="edge">
<title>Node9&#45;&gt;Node1</title>
<path fill="none" stroke="#9a32cd" stroke-dasharray="5,2" d="M524.66,-25.65C559.82,-32.5 600.6,-43.84 634,-62.5 665.9,-80.32 694.03,-114.34 706.57,-130.93"/>
<polygon fill="#9a32cd" stroke="#9a32cd" points="524.89,-22.13 514.42,-23.75 523.62,-29.02 524.89,-22.13"/>
<text text-anchor="middle" x="583" y="-65.5" font-family="Helvetica,sans-Serif" font-size="10.00"> to_enclave</text>
</g>
</g>
</svg>
