<?xml version="1.0" encoding="UTF-8" standalone="no"?>
<!DOCTYPE svg PUBLIC "-//W3C//DTD SVG 1.1//EN"
 "http://www.w3.org/Graphics/SVG/1.1/DTD/svg11.dtd">
<!-- Generated by graphviz version 2.43.0 (0)
 -->
<!-- Title: client::PerfBase&lt; TOptions &gt; Pages: 1 -->
<!--zoomable 446 -->
<svg id="main" version="1.1" xmlns="http://www.w3.org/2000/svg" xmlns:xlink="http://www.w3.org/1999/xlink" xml:space="preserve" onload="init(evt)">
<style type="text/css"><![CDATA[
.edge:hover path { stroke: red; }
.edge:hover polygon { stroke: red; fill: red; }
]]></style>
<script type="text/javascript"><![CDATA[
var edges = document.getElementsByTagName('g');
if (edges && edges.length) {
  for (var i=0;i<edges.length;i++) {
    if (edges[i].id.substr(0,4)=='edge') {
      edges[i].setAttribute('class','edge');
    }
  }
}
]]></script>
        <defs>
                <circle id="rim" cx="0" cy="0" r="7"/>
                <circle id="rim2" cx="0" cy="0" r="3.5"/>
                <g id="zoomPlus">
                        <use xlink:href="#rim" fill="#404040">
                                <set attributeName="fill" to="#808080" begin="zoomplus.mouseover" end="zoomplus.mouseout"/>
                        </use>
                        <path d="M-4,0h8M0,-4v8" fill="none" stroke="white" stroke-width="1.5" pointer-events="none"/>
                </g>
                <g id="zoomMin">
                        <use xlink:href="#rim" fill="#404040">
                                <set attributeName="fill" to="#808080" begin="zoomminus.mouseover" end="zoomminus.mouseout"/>
                        </use>
                        <path d="M-4,0h8" fill="none" stroke="white" stroke-width="1.5" pointer-events="none"/>
                </g>
                <g id="dirArrow">
                        <path fill="none" stroke="white" stroke-width="1.5" d="M0,-3.0v7 M-2.5,-0.5L0,-3.0L2.5,-0.5"/>
                </g>
               <g id="resetDef">
                       <use xlink:href="#rim2" fill="#404040">
                               <set attributeName="fill" to="#808080" begin="reset.mouseover" end="reset.mouseout"/>
                       </use>
               </g>
        </defs>

<script type="text/javascript">
var viewWidth = 1826;
var viewHeight = 446;
var sectionId = 'dynsection-0';
</script>
<script xlink:href="svgpan.js"/>
<svg id="graph" class="graph">
<g id="viewport">
<title>client::PerfBase&lt; TOptions &gt;</title>
<polygon fill="white" stroke="transparent" points="-4,4 -4,-442 1822,-442 1822,4 -4,4"/>
<!-- Node1 -->
<g id="node1" class="node">
<title>Node1</title>
<g id="a_node1"><a xlink:title=" ">
<polygon fill="#bfbfbf" stroke="black" points="1659,-274.5 1659,-293.5 1818,-293.5 1818,-274.5 1659,-274.5"/>
<text text-anchor="middle" x="1738.5" y="-281.5" font-family="Helvetica,sans-Serif" font-size="10.00">client::PerfBase&lt; TOptions &gt;</text>
</a>
</g>
</g>
<!-- Node2 -->
<g id="node2" class="node">
<title>Node2</title>
<g id="a_node2"><a xlink:title=" ">
<polygon fill="white" stroke="black" points="1393.5,-291 1393.5,-321 1521.5,-321 1521.5,-291 1393.5,-291"/>
<text text-anchor="start" x="1401.5" y="-309" font-family="Helvetica,sans-Serif" font-size="10.00">std::shared_ptr&lt; client</text>
<text text-anchor="middle" x="1457.5" y="-298" font-family="Helvetica,sans-Serif" font-size="10.00">::HttpRpcTlsClient &gt;</text>
</a>
</g>
</g>
<!-- Node2&#45;&gt;Node1 -->
<g id="edge1" class="edge">
<title>Node2&#45;&gt;Node1</title>
<path fill="none" stroke="#9a32cd" stroke-dasharray="5,2" d="M1532.06,-300.2C1571.14,-297.12 1619.18,-293.33 1658.99,-290.19"/>
<polygon fill="#9a32cd" stroke="#9a32cd" points="1531.5,-296.73 1521.81,-301.01 1532.05,-303.71 1531.5,-296.73"/>
<text text-anchor="middle" x="1591" y="-301" font-family="Helvetica,sans-Serif" font-size="10.00"> rpc_connection</text>
</g>
<!-- Node3 -->
<g id="node3" class="node">
<title>Node3</title>
<g id="a_node3"><a xlink:href="classclient_1_1HttpRpcTlsClient.html" target="_top" xlink:title=" ">
<polygon fill="white" stroke="black" points="1079,-284.5 1079,-303.5 1210,-303.5 1210,-284.5 1079,-284.5"/>
<text text-anchor="middle" x="1144.5" y="-291.5" font-family="Helvetica,sans-Serif" font-size="10.00">client::HttpRpcTlsClient</text>
</a>
</g>
</g>
<!-- Node3&#45;&gt;Node2 -->
<g id="edge2" class="edge">
<title>Node3&#45;&gt;Node2</title>
<path fill="none" stroke="#9a32cd" stroke-dasharray="5,2" d="M1220.32,-296.89C1273.2,-298.93 1343.3,-301.63 1393.36,-303.56"/>
<polygon fill="#9a32cd" stroke="#9a32cd" points="1220.44,-293.39 1210.32,-296.5 1220.17,-300.38 1220.44,-293.39"/>
<text text-anchor="middle" x="1301" y="-305" font-family="Helvetica,sans-Serif" font-size="10.00"> ptr</text>
</g>
<!-- Node4 -->
<g id="node4" class="node">
<title>Node4</title>
<g id="a_node4"><a xlink:href="classclient_1_1TlsClient.html" target="_top" xlink:title=" ">
<polygon fill="white" stroke="black" points="874,-164.5 874,-183.5 966,-183.5 966,-164.5 874,-164.5"/>
<text text-anchor="middle" x="920" y="-171.5" font-family="Helvetica,sans-Serif" font-size="10.00">client::TlsClient</text>
</a>
</g>
</g>
<!-- Node4&#45;&gt;Node3 -->
<g id="edge3" class="edge">
<title>Node4&#45;&gt;Node3</title>
<path fill="none" stroke="midnightblue" d="M947.91,-188.51C993.95,-213.34 1086.61,-263.32 1125.58,-284.34"/>
<polygon fill="midnightblue" stroke="midnightblue" points="949.29,-185.28 938.83,-183.62 945.97,-191.44 949.29,-185.28"/>
</g>
<!-- Node5 -->
<g id="node5" class="node">
<title>Node5</title>
<g id="a_node5"><a xlink:title=" ">
<polygon fill="white" stroke="black" points="182,-287.5 182,-306.5 247,-306.5 247,-287.5 182,-287.5"/>
<text text-anchor="middle" x="214.5" y="-294.5" font-family="Helvetica,sans-Serif" font-size="10.00">std::string</text>
</a>
</g>
</g>
<!-- Node5&#45;&gt;Node3 -->
<g id="edge23" class="edge">
<title>Node5&#45;&gt;Node3</title>
<path fill="none" stroke="#9a32cd" stroke-dasharray="5,2" d="M257.1,-290.64C303.26,-284.14 380.02,-275 446.5,-275 446.5,-275 446.5,-275 921,-275 974.31,-275 1034.54,-280.48 1078.88,-285.56"/>
<polygon fill="#9a32cd" stroke="#9a32cd" points="256.57,-287.18 247.17,-292.06 257.57,-294.11 256.57,-287.18"/>
<text text-anchor="middle" x="686.5" y="-278" font-family="Helvetica,sans-Serif" font-size="10.00"> key_id</text>
</g>
<!-- Node5&#45;&gt;Node4 -->
<g id="edge4" class="edge">
<title>Node5&#45;&gt;Node4</title>
<path fill="none" stroke="#9a32cd" stroke-dasharray="5,2" d="M228.54,-279.06C252.8,-247.36 308.33,-182.29 373,-156 408.3,-141.65 752.58,-147.91 766,-149 802.48,-151.96 843.38,-158.83 873.71,-164.62"/>
<polygon fill="#9a32cd" stroke="#9a32cd" points="225.49,-277.31 222.29,-287.41 231.09,-281.5 225.49,-277.31"/>
<text text-anchor="middle" x="564.5" y="-161" font-family="Helvetica,sans-Serif" font-size="10.00"> host</text>
<text text-anchor="middle" x="564.5" y="-150" font-family="Helvetica,sans-Serif" font-size="10.00">port</text>
</g>
<!-- Node21 -->
<g id="node21" class="node">
<title>Node21</title>
<g id="a_node21"><a xlink:title=" ">
<polygon fill="white" stroke="black" points="376,-304 376,-334 519,-334 519,-304 376,-304"/>
<text text-anchor="start" x="384" y="-322" font-family="Helvetica,sans-Serif" font-size="10.00">std::map&lt; std::string,</text>
<text text-anchor="middle" x="447.5" y="-311" font-family="Helvetica,sans-Serif" font-size="10.00"> std::string, std::less&lt;&gt; &gt;</text>
</a>
</g>
</g>
<!-- Node5&#45;&gt;Node21 -->
<g id="edge21" class="edge">
<title>Node5&#45;&gt;Node21</title>
<path fill="none" stroke="#9a32cd" stroke-dasharray="5,2" d="M257.34,-300.98C290.35,-304.13 337.12,-308.58 375.9,-312.28"/>
<polygon fill="#9a32cd" stroke="#9a32cd" points="257.42,-297.48 247.14,-300.01 256.76,-304.45 257.42,-297.48"/>
<text text-anchor="middle" x="330.5" y="-323" font-family="Helvetica,sans-Serif" font-size="10.00"> elements</text>
<text text-anchor="middle" x="330.5" y="-312" font-family="Helvetica,sans-Serif" font-size="10.00">keys</text>
</g>
<!-- Node24 -->
<g id="node24" class="node">
<title>Node24</title>
<g id="a_node24"><a xlink:href="structclient_1_1PerfBase_1_1PreparedTx.html" target="_top" xlink:title=" ">
<polygon fill="white" stroke="black" points="846,-380 846,-410 994,-410 994,-380 846,-380"/>
<text text-anchor="start" x="854" y="-398" font-family="Helvetica,sans-Serif" font-size="10.00">client::PerfBase&lt; TOptions</text>
<text text-anchor="middle" x="920" y="-387" font-family="Helvetica,sans-Serif" font-size="10.00"> &gt;::PreparedTx</text>
</a>
</g>
</g>
<!-- Node5&#45;&gt;Node24 -->
<g id="edge28" class="edge">
<title>Node5&#45;&gt;Node24</title>
<path fill="none" stroke="#9a32cd" stroke-dasharray="5,2" d="M234.63,-313.06C262.84,-335.69 318.2,-376.18 373,-394 535.04,-446.69 738.71,-425.88 845.66,-408.81"/>
<polygon fill="#9a32cd" stroke="#9a32cd" points="236.74,-310.26 226.78,-306.65 232.32,-315.69 236.74,-310.26"/>
<text text-anchor="middle" x="564.5" y="-430" font-family="Helvetica,sans-Serif" font-size="10.00"> method</text>
</g>
<!-- Node6 -->
<g id="node6" class="node">
<title>Node6</title>
<g id="a_node6"><a xlink:title=" ">
<polygon fill="white" stroke="black" points="0,-282 0,-312 104,-312 104,-282 0,-282"/>
<text text-anchor="start" x="8" y="-300" font-family="Helvetica,sans-Serif" font-size="10.00">std::basic_string&lt;</text>
<text text-anchor="middle" x="52" y="-289" font-family="Helvetica,sans-Serif" font-size="10.00"> Char &gt;</text>
</a>
</g>
</g>
<!-- Node6&#45;&gt;Node5 -->
<g id="edge5" class="edge">
<title>Node6&#45;&gt;Node5</title>
<path fill="none" stroke="midnightblue" d="M114.29,-297C137.34,-297 162.6,-297 181.87,-297"/>
<polygon fill="midnightblue" stroke="midnightblue" points="114.22,-293.5 104.22,-297 114.22,-300.5 114.22,-293.5"/>
</g>
<!-- Node7 -->
<g id="node7" class="node">
<title>Node7</title>
<g id="a_node7"><a xlink:title=" ">
<polygon fill="white" stroke="black" points="630,-208 630,-238 743,-238 743,-208 630,-208"/>
<text text-anchor="start" x="638" y="-226" font-family="Helvetica,sans-Serif" font-size="10.00">std::shared_ptr&lt; tls</text>
<text text-anchor="middle" x="686.5" y="-215" font-family="Helvetica,sans-Serif" font-size="10.00">::CA &gt;</text>
</a>
</g>
</g>
<!-- Node7&#45;&gt;Node4 -->
<g id="edge6" class="edge">
<title>Node7&#45;&gt;Node4</title>
<path fill="none" stroke="#9a32cd" stroke-dasharray="5,2" d="M753.34,-209.06C791.87,-200.91 839.53,-190.82 873.83,-183.56"/>
<polygon fill="#9a32cd" stroke="#9a32cd" points="752.3,-205.71 743.24,-211.2 753.75,-212.55 752.3,-205.71"/>
<text text-anchor="middle" x="806" y="-205" font-family="Helvetica,sans-Serif" font-size="10.00"> node_ca</text>
</g>
<!-- Node8 -->
<g id="node8" class="node">
<title>Node8</title>
<g id="a_node8"><a xlink:href="classtls_1_1CA.html" target="_top" xlink:title=" ">
<polygon fill="white" stroke="black" points="423.5,-213.5 423.5,-232.5 471.5,-232.5 471.5,-213.5 423.5,-213.5"/>
<text text-anchor="middle" x="447.5" y="-220.5" font-family="Helvetica,sans-Serif" font-size="10.00">tls::CA</text>
</a>
</g>
</g>
<!-- Node8&#45;&gt;Node7 -->
<g id="edge7" class="edge">
<title>Node8&#45;&gt;Node7</title>
<path fill="none" stroke="#9a32cd" stroke-dasharray="5,2" d="M481.77,-223C520.12,-223 583.78,-223 629.74,-223"/>
<polygon fill="#9a32cd" stroke="#9a32cd" points="481.66,-219.5 471.66,-223 481.66,-226.5 481.66,-219.5"/>
<text text-anchor="middle" x="564.5" y="-226" font-family="Helvetica,sans-Serif" font-size="10.00"> ptr</text>
</g>
<!-- Node9 -->
<g id="node9" class="node">
<title>Node9</title>
<g id="a_node9"><a xlink:title=" ">
<polygon fill="white" stroke="black" points="630,-159 630,-189 743,-189 743,-159 630,-159"/>
<text text-anchor="start" x="638" y="-177" font-family="Helvetica,sans-Serif" font-size="10.00">std::shared_ptr&lt; tls</text>
<text text-anchor="middle" x="686.5" y="-166" font-family="Helvetica,sans-Serif" font-size="10.00">::Cert &gt;</text>
</a>
</g>
</g>
<!-- Node9&#45;&gt;Node4 -->
<g id="edge8" class="edge">
<title>Node9&#45;&gt;Node4</title>
<path fill="none" stroke="#9a32cd" stroke-dasharray="5,2" d="M753.34,-174C791.87,-174 839.53,-174 873.83,-174"/>
<polygon fill="#9a32cd" stroke="#9a32cd" points="753.24,-170.5 743.24,-174 753.24,-177.5 753.24,-170.5"/>
<text text-anchor="middle" x="806" y="-177" font-family="Helvetica,sans-Serif" font-size="10.00"> cert</text>
</g>
<!-- Node10 -->
<g id="node10" class="node">
<title>Node10</title>
<g id="a_node10"><a xlink:href="classtls_1_1Cert.html" target="_top" xlink:title=" ">
<polygon fill="white" stroke="black" points="420,-165.5 420,-184.5 475,-184.5 475,-165.5 420,-165.5"/>
<text text-anchor="middle" x="447.5" y="-172.5" font-family="Helvetica,sans-Serif" font-size="10.00">tls::Cert</text>
</a>
</g>
</g>
<!-- Node10&#45;&gt;Node9 -->
<g id="edge9" class="edge">
<title>Node10&#45;&gt;Node9</title>
<path fill="none" stroke="#9a32cd" stroke-dasharray="5,2" d="M485.5,-174.84C524.14,-174.68 585.22,-174.42 629.71,-174.24"/>
<polygon fill="#9a32cd" stroke="#9a32cd" points="485.21,-171.34 475.23,-174.89 485.24,-178.34 485.21,-171.34"/>
<text text-anchor="middle" x="564.5" y="-178" font-family="Helvetica,sans-Serif" font-size="10.00"> ptr</text>
</g>
<!-- Node11 -->
<g id="node11" class="node">
<title>Node11</title>
<g id="a_node11"><a xlink:href="structcrypto_1_1OpenSSL_1_1Unique__SSL__CTX.html" target="_top" xlink:title=" ">
<polygon fill="white" stroke="black" points="618,-69 618,-99 755,-99 755,-69 618,-69"/>
<text text-anchor="start" x="626" y="-87" font-family="Helvetica,sans-Serif" font-size="10.00">crypto::OpenSSL::Unique</text>
<text text-anchor="middle" x="686.5" y="-76" font-family="Helvetica,sans-Serif" font-size="10.00">_SSL_CTX</text>
</a>
</g>
</g>
<!-- Node11&#45;&gt;Node4 -->
<g id="edge10" class="edge">
<title>Node11&#45;&gt;Node4</title>
<path fill="none" stroke="#9a32cd" stroke-dasharray="5,2" d="M765.38,-81.15C787.63,-83.93 810.55,-90.69 828,-105 846.26,-119.98 828.56,-139.08 846,-155 853.74,-162.06 863.77,-166.57 873.9,-169.42"/>
<polygon fill="#9a32cd" stroke="#9a32cd" points="765.52,-77.64 755.22,-80.13 764.82,-84.61 765.52,-77.64"/>
<text text-anchor="middle" x="806" y="-108" font-family="Helvetica,sans-Serif" font-size="10.00"> ctx</text>
</g>
<!-- Node12 -->
<g id="node12" class="node">
<title>Node12</title>
<g id="a_node12"><a xlink:href="classcrypto_1_1OpenSSL_1_1Unique__SSL__OBJECT.html" target="_top" xlink:title=" ">
<polygon fill="white" stroke="black" points="379,-60.5 379,-101.5 516,-101.5 516,-60.5 379,-60.5"/>
<text text-anchor="start" x="387" y="-89.5" font-family="Helvetica,sans-Serif" font-size="10.00">crypto::OpenSSL::Unique</text>
<text text-anchor="start" x="387" y="-78.5" font-family="Helvetica,sans-Serif" font-size="10.00">_SSL_OBJECT&lt; SSL_CTX,</text>
<text text-anchor="middle" x="447.5" y="-67.5" font-family="Helvetica,sans-Serif" font-size="10.00"> nullptr, nullptr &gt;</text>
</a>
</g>
</g>
<!-- Node12&#45;&gt;Node11 -->
<g id="edge11" class="edge">
<title>Node12&#45;&gt;Node11</title>
<path fill="none" stroke="midnightblue" d="M526.37,-81.99C555.91,-82.36 589.29,-82.78 617.81,-83.14"/>
<polygon fill="midnightblue" stroke="midnightblue" points="526.14,-78.48 516.1,-81.86 526.05,-85.48 526.14,-78.48"/>
</g>
<!-- Node13 -->
<g id="node13" class="node">
<title>Node13</title>
<g id="a_node13"><a xlink:title=" ">
<polygon fill="white" stroke="black" points="141,-66 141,-96 288,-96 288,-66 141,-66"/>
<text text-anchor="start" x="149" y="-84" font-family="Helvetica,sans-Serif" font-size="10.00">std::unique_ptr&lt; SSL</text>
<text text-anchor="middle" x="214.5" y="-73" font-family="Helvetica,sans-Serif" font-size="10.00">_CTX, void(*)(SSL_CTX *)&gt;</text>
</a>
</g>
</g>
<!-- Node13&#45;&gt;Node12 -->
<g id="edge12" class="edge">
<title>Node13&#45;&gt;Node12</title>
<path fill="none" stroke="#9a32cd" stroke-dasharray="5,2" d="M298.61,-81C324.94,-81 353.7,-81 378.81,-81"/>
<polygon fill="#9a32cd" stroke="#9a32cd" points="298.27,-77.5 288.27,-81 298.27,-84.5 298.27,-77.5"/>
<text text-anchor="middle" x="330.5" y="-84" font-family="Helvetica,sans-Serif" font-size="10.00"> p</text>
</g>
<!-- Node14 -->
<g id="node14" class="node">
<title>Node14</title>
<g id="a_node14"><a xlink:href="structcrypto_1_1OpenSSL_1_1Unique__BIO.html" target="_top" xlink:title=" ">
<polygon fill="white" stroke="black" points="607,-23.5 607,-42.5 766,-42.5 766,-23.5 607,-23.5"/>
<text text-anchor="middle" x="686.5" y="-30.5" font-family="Helvetica,sans-Serif" font-size="10.00">crypto::OpenSSL::Unique_BIO</text>
</a>
</g>
</g>
<!-- Node14&#45;&gt;Node4 -->
<g id="edge13" class="edge">
<title>Node14&#45;&gt;Node4</title>
<path fill="none" stroke="#9a32cd" stroke-dasharray="5,2" d="M776.01,-41.48C795.36,-47.22 814.17,-56.41 828,-71 854.27,-98.7 819.6,-127.42 846,-155 853.43,-162.76 863.58,-167.49 873.96,-170.35"/>
<polygon fill="#9a32cd" stroke="#9a32cd" points="776.74,-38.06 766.18,-38.86 774.94,-44.82 776.74,-38.06"/>
<text text-anchor="middle" x="806" y="-74" font-family="Helvetica,sans-Serif" font-size="10.00"> bio</text>
</g>
<!-- Node15 -->
<g id="node15" class="node">
<title>Node15</title>
<g id="a_node15"><a xlink:href="classcrypto_1_1OpenSSL_1_1Unique__SSL__OBJECT.html" target="_top" xlink:title=" ">
<polygon fill="white" stroke="black" points="373,-0.5 373,-41.5 522,-41.5 522,-0.5 373,-0.5"/>
<text text-anchor="start" x="381" y="-29.5" font-family="Helvetica,sans-Serif" font-size="10.00">crypto::OpenSSL::Unique</text>
<text text-anchor="start" x="381" y="-18.5" font-family="Helvetica,sans-Serif" font-size="10.00">_SSL_OBJECT&lt; BIO, nullptr,</text>
<text text-anchor="middle" x="447.5" y="-7.5" font-family="Helvetica,sans-Serif" font-size="10.00"> nullptr &gt;</text>
</a>
</g>
</g>
<!-- Node15&#45;&gt;Node14 -->
<g id="edge14" class="edge">
<title>Node15&#45;&gt;Node14</title>
<path fill="none" stroke="midnightblue" d="M532.43,-25.25C556.67,-26.48 583.03,-27.81 606.93,-29.02"/>
<polygon fill="midnightblue" stroke="midnightblue" points="532.35,-21.74 522.19,-24.73 532,-28.73 532.35,-21.74"/>
</g>
<!-- Node16 -->
<g id="node16" class="node">
<title>Node16</title>
<g id="a_node16"><a xlink:title=" ">
<polygon fill="white" stroke="black" points="154,-6 154,-36 275,-36 275,-6 154,-6"/>
<text text-anchor="start" x="162" y="-24" font-family="Helvetica,sans-Serif" font-size="10.00">std::unique_ptr&lt; BIO,</text>
<text text-anchor="middle" x="214.5" y="-13" font-family="Helvetica,sans-Serif" font-size="10.00"> void(*)(BIO *)&gt;</text>
</a>
</g>
</g>
<!-- Node16&#45;&gt;Node15 -->
<g id="edge15" class="edge">
<title>Node16&#45;&gt;Node15</title>
<path fill="none" stroke="#9a32cd" stroke-dasharray="5,2" d="M285.29,-21C312.99,-21 344.87,-21 372.93,-21"/>
<polygon fill="#9a32cd" stroke="#9a32cd" points="285.29,-17.5 275.29,-21 285.29,-24.5 285.29,-17.5"/>
<text text-anchor="middle" x="330.5" y="-24" font-family="Helvetica,sans-Serif" font-size="10.00"> p</text>
</g>
<!-- Node17 -->
<g id="node17" class="node">
<title>Node17</title>
<g id="a_node17"><a xlink:href="classhttp_1_1ResponseProcessor.html" target="_top" xlink:title=" ">
<polygon fill="white" stroke="black" points="851.5,-126.5 851.5,-145.5 988.5,-145.5 988.5,-126.5 851.5,-126.5"/>
<text text-anchor="middle" x="920" y="-133.5" font-family="Helvetica,sans-Serif" font-size="10.00">http::ResponseProcessor</text>
</a>
</g>
</g>
<!-- Node17&#45;&gt;Node3 -->
<g id="edge16" class="edge">
<title>Node17&#45;&gt;Node3</title>
<path fill="none" stroke="midnightblue" d="M980.84,-148.92C985.4,-150.7 989.84,-152.72 994,-155 1058.01,-190.12 1115.81,-258.72 1135.94,-284.18"/>
<polygon fill="midnightblue" stroke="midnightblue" points="981.95,-145.6 971.35,-145.59 979.62,-152.21 981.95,-145.6"/>
</g>
<!-- Node18 -->
<g id="node18" class="node">
<title>Node18</title>
<g id="a_node18"><a xlink:href="classhttp_1_1ResponseParser.html" target="_top" xlink:title=" ">
<polygon fill="white" stroke="black" points="860.5,-341.5 860.5,-360.5 979.5,-360.5 979.5,-341.5 860.5,-341.5"/>
<text text-anchor="middle" x="920" y="-348.5" font-family="Helvetica,sans-Serif" font-size="10.00">http::ResponseParser</text>
</a>
</g>
</g>
<!-- Node18&#45;&gt;Node3 -->
<g id="edge17" class="edge">
<title>Node18&#45;&gt;Node3</title>
<path fill="none" stroke="#9a32cd" stroke-dasharray="5,2" d="M978.71,-339.41C1004.08,-334.01 1034.15,-327.19 1061,-320 1079.28,-315.11 1099.55,-308.73 1115.42,-303.52"/>
<polygon fill="#9a32cd" stroke="#9a32cd" points="977.94,-335.99 968.88,-341.48 979.38,-342.84 977.94,-335.99"/>
<text text-anchor="middle" x="1036.5" y="-334" font-family="Helvetica,sans-Serif" font-size="10.00"> parser</text>
</g>
<!-- Node19 -->
<g id="node19" class="node">
<title>Node19</title>
<g id="a_node19"><a xlink:href="classhttp_1_1Parser.html" target="_top" xlink:title=" ">
<polygon fill="white" stroke="black" points="650.5,-333.5 650.5,-352.5 722.5,-352.5 722.5,-333.5 650.5,-333.5"/>
<text text-anchor="middle" x="686.5" y="-340.5" font-family="Helvetica,sans-Serif" font-size="10.00">http::Parser</text>
</a>
</g>
</g>
<!-- Node19&#45;&gt;Node18 -->
<g id="edge18" class="edge">
<title>Node19&#45;&gt;Node18</title>
<path fill="none" stroke="midnightblue" d="M732.96,-344.57C769.32,-345.83 820.56,-347.6 860.06,-348.96"/>
<polygon fill="midnightblue" stroke="midnightblue" points="732.77,-341.06 722.66,-344.22 732.53,-348.06 732.77,-341.06"/>
</g>
<!-- Node20 -->
<g id="node20" class="node">
<title>Node20</title>
<g id="a_node20"><a xlink:title=" ">
<polygon fill="white" stroke="black" points="385,-365.5 385,-384.5 510,-384.5 510,-365.5 385,-365.5"/>
<text text-anchor="middle" x="447.5" y="-372.5" font-family="Helvetica,sans-Serif" font-size="10.00">std::vector&lt; uint8_t &gt;</text>
</a>
</g>
</g>
<!-- Node20&#45;&gt;Node19 -->
<g id="edge19" class="edge">
<title>Node20&#45;&gt;Node19</title>
<path fill="none" stroke="#9a32cd" stroke-dasharray="5,2" d="M520.29,-365.31C563.31,-359.5 616.1,-352.37 650.25,-347.76"/>
<polygon fill="#9a32cd" stroke="#9a32cd" points="519.59,-361.87 510.15,-366.68 520.53,-368.81 519.59,-361.87"/>
<text text-anchor="middle" x="564.5" y="-364" font-family="Helvetica,sans-Serif" font-size="10.00"> body_buf</text>
</g>
<!-- Node25 -->
<g id="node25" class="node">
<title>Node25</title>
<g id="a_node25"><a xlink:href="structclient_1_1HttpRpcTlsClient_1_1PreparedRpc.html" target="_top" xlink:title=" ">
<polygon fill="white" stroke="black" points="621,-372 621,-402 752,-402 752,-372 621,-372"/>
<text text-anchor="start" x="629" y="-390" font-family="Helvetica,sans-Serif" font-size="10.00">client::HttpRpcTlsClient</text>
<text text-anchor="middle" x="686.5" y="-379" font-family="Helvetica,sans-Serif" font-size="10.00">::PreparedRpc</text>
</a>
</g>
</g>
<!-- Node20&#45;&gt;Node25 -->
<g id="edge27" class="edge">
<title>Node20&#45;&gt;Node25</title>
<path fill="none" stroke="#9a32cd" stroke-dasharray="5,2" d="M520.33,-378.64C552.33,-380.26 589.73,-382.15 620.85,-383.73"/>
<polygon fill="#9a32cd" stroke="#9a32cd" points="520.31,-375.13 510.15,-378.12 519.96,-382.12 520.31,-375.13"/>
<text text-anchor="middle" x="564.5" y="-385" font-family="Helvetica,sans-Serif" font-size="10.00"> encoded</text>
</g>
<!-- Node21&#45;&gt;Node19 -->
<g id="edge20" class="edge">
<title>Node21&#45;&gt;Node19</title>
<path fill="none" stroke="#9a32cd" stroke-dasharray="5,2" d="M529.22,-316.44C548.84,-316.68 569.72,-317.66 589,-320 610.89,-322.65 635.01,-328.4 653.66,-333.49"/>
<polygon fill="#9a32cd" stroke="#9a32cd" points="529.12,-312.94 519.09,-316.38 529.07,-319.94 529.12,-312.94"/>
<text text-anchor="middle" x="564.5" y="-323" font-family="Helvetica,sans-Serif" font-size="10.00"> headers</text>
</g>
<!-- Node22 -->
<g id="node22" class="node">
<title>Node22</title>
<g id="a_node22"><a xlink:title=" ">
<polygon fill="white" stroke="black" points="846,-303.5 846,-322.5 994,-322.5 994,-303.5 846,-303.5"/>
<text text-anchor="middle" x="920" y="-310.5" font-family="Helvetica,sans-Serif" font-size="10.00">std::shared_ptr&lt; KeyPair &gt;</text>
</a>
</g>
</g>
<!-- Node22&#45;&gt;Node3 -->
<g id="edge22" class="edge">
<title>Node22&#45;&gt;Node3</title>
<path fill="none" stroke="#9a32cd" stroke-dasharray="5,2" d="M1004.24,-305.89C1028.93,-303.78 1055.59,-301.51 1078.91,-299.52"/>
<polygon fill="#9a32cd" stroke="#9a32cd" points="1003.83,-302.41 994.16,-306.75 1004.42,-309.39 1003.83,-302.41"/>
<text text-anchor="middle" x="1036.5" y="-308" font-family="Helvetica,sans-Serif" font-size="10.00"> key_pair</text>
</g>
<!-- Node23 -->
<g id="node23" class="node">
<title>Node23</title>
<g id="a_node23"><a xlink:title=" ">
<polygon fill="white" stroke="black" points="1228,-371.5 1228,-390.5 1374,-390.5 1374,-371.5 1228,-371.5"/>
<text text-anchor="middle" x="1301" y="-378.5" font-family="Helvetica,sans-Serif" font-size="10.00">std::vector&lt; PreparedTx &gt;</text>
</a>
</g>
</g>
<!-- Node23&#45;&gt;Node1 -->
<g id="edge24" class="edge">
<title>Node23&#45;&gt;Node1</title>
<path fill="none" stroke="#9a32cd" stroke-dasharray="5,2" d="M1368.08,-369.64C1436.7,-357.41 1546.97,-336.5 1641,-313 1663.74,-307.32 1689.12,-299.64 1708.13,-293.61"/>
<polygon fill="#9a32cd" stroke="#9a32cd" points="1367.08,-366.27 1357.85,-371.46 1368.31,-373.16 1367.08,-366.27"/>
<text text-anchor="middle" x="1457.5" y="-368" font-family="Helvetica,sans-Serif" font-size="10.00"> prepared_txs</text>
</g>
<!-- Node24&#45;&gt;Node23 -->
<g id="edge25" class="edge">
<title>Node24&#45;&gt;Node23</title>
<path fill="none" stroke="#9a32cd" stroke-dasharray="5,2" d="M1004.16,-391.93C1071.03,-389.46 1164.02,-386.02 1227.79,-383.67"/>
<polygon fill="#9a32cd" stroke="#9a32cd" points="1003.94,-388.43 994.08,-392.3 1004.2,-395.43 1003.94,-388.43"/>
<text text-anchor="middle" x="1036.5" y="-394" font-family="Helvetica,sans-Serif" font-size="10.00"> elements</text>
</g>
<!-- Node25&#45;&gt;Node24 -->
<g id="edge26" class="edge">
<title>Node25&#45;&gt;Node24</title>
<path fill="none" stroke="#9a32cd" stroke-dasharray="5,2" d="M762.35,-389.59C789.05,-390.51 819.08,-391.55 845.65,-392.47"/>
<polygon fill="#9a32cd" stroke="#9a32cd" points="762.41,-386.09 752.29,-389.24 762.17,-393.08 762.41,-386.09"/>
<text text-anchor="middle" x="806" y="-394" font-family="Helvetica,sans-Serif" font-size="10.00"> rpc</text>
</g>
<!-- Node26 -->
<g id="node26" class="node">
<title>Node26</title>
<g id="a_node26"><a xlink:href="classtiming_1_1ResponseTimes.html" target="_top" xlink:title=" ">
<polygon fill="white" stroke="black" points="1392,-252.5 1392,-271.5 1523,-271.5 1523,-252.5 1392,-252.5"/>
<text text-anchor="middle" x="1457.5" y="-259.5" font-family="Helvetica,sans-Serif" font-size="10.00">timing::ResponseTimes</text>
</a>
</g>
</g>
<!-- Node26&#45;&gt;Node1 -->
<g id="edge29" class="edge">
<title>Node26&#45;&gt;Node1</title>
<path fill="none" stroke="#9a32cd" stroke-dasharray="5,2" d="M1533.16,-267.62C1566.21,-270.14 1605.55,-273.17 1641,-276 1646.78,-276.46 1652.76,-276.94 1658.77,-277.43"/>
<polygon fill="#9a32cd" stroke="#9a32cd" points="1533.36,-264.13 1523.12,-266.86 1532.83,-271.11 1533.36,-264.13"/>
<text text-anchor="middle" x="1591" y="-279" font-family="Helvetica,sans-Serif" font-size="10.00"> response_times</text>
</g>
<!-- Node27 -->
<g id="node27" class="node">
<title>Node27</title>
<g id="a_node27"><a xlink:href="structccf_1_1TxID.html" target="_top" xlink:title=" ">
<polygon fill="white" stroke="black" points="1428,-214.5 1428,-233.5 1487,-233.5 1487,-214.5 1428,-214.5"/>
<text text-anchor="middle" x="1457.5" y="-221.5" font-family="Helvetica,sans-Serif" font-size="10.00">ccf::TxID</text>
</a>
</g>
</g>
<!-- Node27&#45;&gt;Node1 -->
<g id="edge30" class="edge">
<title>Node27&#45;&gt;Node1</title>
<path fill="none" stroke="#9a32cd" stroke-dasharray="5,2" d="M1497.61,-228.45C1534.8,-233.1 1592.15,-241.34 1641,-253 1665.31,-258.8 1692.34,-267.7 1711.59,-274.48"/>
<polygon fill="#9a32cd" stroke="#9a32cd" points="1497.57,-224.92 1487.22,-227.18 1496.72,-231.87 1497.57,-224.92"/>
<text text-anchor="middle" x="1591" y="-256" font-family="Helvetica,sans-Serif" font-size="10.00"> last_response_tx_id</text>
</g>
</g>
</svg>
        <g id="navigator" transform="translate(0 0)" fill="#404254">
                <rect fill="#f2f5e9" fill-opacity="0.5" stroke="#606060" stroke-width=".5" x="0" y="0" width="60" height="60"/>
                <use id="zoomplus" xlink:href="#zoomPlus" x="17" y="9" onmousedown="handleZoom(evt,'in')"/>
                <use id="zoomminus" xlink:href="#zoomMin" x="42" y="9" onmousedown="handleZoom(evt,'out')"/>
                <use id="reset" xlink:href="#resetDef" x="30" y="36" onmousedown="handleReset()"/>
                <g id="arrowUp" xlink:href="#dirArrow" transform="translate(30 24)" onmousedown="handlePan(0,-1)">
                  <use xlink:href="#rim" fill="#404040">
                        <set attributeName="fill" to="#808080" begin="arrowUp.mouseover" end="arrowUp.mouseout"/>
                  </use>
                  <path fill="none" stroke="white" stroke-width="1.5" d="M0,-3.0v7 M-2.5,-0.5L0,-3.0L2.5,-0.5"/>
                </g>
                <g id="arrowRight" xlink:href="#dirArrow" transform="rotate(90) translate(36 -43)" onmousedown="handlePan(1,0)">
                  <use xlink:href="#rim" fill="#404040">
                        <set attributeName="fill" to="#808080" begin="arrowRight.mouseover" end="arrowRight.mouseout"/>
                  </use>
                  <path fill="none" stroke="white" stroke-width="1.5" d="M0,-3.0v7 M-2.5,-0.5L0,-3.0L2.5,-0.5"/>
                </g>
                <g id="arrowDown" xlink:href="#dirArrow" transform="rotate(180) translate(-30 -48)" onmousedown="handlePan(0,1)">
                  <use xlink:href="#rim" fill="#404040">
                        <set attributeName="fill" to="#808080" begin="arrowDown.mouseover" end="arrowDown.mouseout"/>
                  </use>
                  <path fill="none" stroke="white" stroke-width="1.5" d="M0,-3.0v7 M-2.5,-0.5L0,-3.0L2.5,-0.5"/>
                </g>
                <g id="arrowLeft" xlink:href="#dirArrow" transform="rotate(270) translate(-36 17)" onmousedown="handlePan(-1,0)">
                  <use xlink:href="#rim" fill="#404040">
                        <set attributeName="fill" to="#808080" begin="arrowLeft.mouseover" end="arrowLeft.mouseout"/>
                  </use>
                  <path fill="none" stroke="white" stroke-width="1.5" d="M0,-3.0v7 M-2.5,-0.5L0,-3.0L2.5,-0.5"/>
                </g>
        </g>
        <svg viewBox="0 0 15 15" width="100%" height="30px" preserveAspectRatio="xMaxYMin meet">
         <g id="arrow_out" transform="scale(0.3 0.3)">
          <a xlink:href="classclient_1_1PerfBase__coll__graph_org.svg" target="_base">
           <rect id="button" ry="5" rx="5" y="6" x="6" height="38" width="38"
                fill="#f2f5e9" fill-opacity="0.5" stroke="#606060" stroke-width="1.0"/>
           <path id="arrow"
             d="M 11.500037,31.436501 C 11.940474,20.09759 22.043105,11.32322 32.158766,21.979434 L 37.068811,17.246167 C 37.068811,17.246167 37.088388,32 37.088388,32 L 22.160133,31.978069 C 22.160133,31.978069 26.997745,27.140456 26.997745,27.140456 C 18.528582,18.264221 13.291696,25.230495 11.500037,31.436501 z"
             style="fill:#404040;"/>
          </a>
         </g>
        </svg>
</svg>
