<?xml version="1.0" encoding="UTF-8" standalone="no"?>
<!DOCTYPE svg PUBLIC "-//W3C//DTD SVG 1.1//EN"
 "http://www.w3.org/Graphics/SVG/1.1/DTD/svg11.dtd">
<!-- Generated by graphviz version 2.43.0 (0)
 -->
<!-- Title: src/tls/client.h Pages: 1 -->
<svg width="677pt" height="565pt"
 viewBox="0.00 0.00 677.00 565.00" xmlns="http://www.w3.org/2000/svg" xmlns:xlink="http://www.w3.org/1999/xlink">
<g id="graph0" class="graph" transform="scale(1 1) rotate(0) translate(4 561)">
<title>src/tls/client.h</title>
<polygon fill="white" stroke="transparent" points="-4,4 -4,-561 673,-561 673,4 -4,4"/>
<!-- Node1 -->
<g id="node1" class="node">
<title>Node1</title>
<g id="a_node1"><a xlink:title=" ">
<polygon fill="#bfbfbf" stroke="black" points="202.5,-537.5 202.5,-556.5 287.5,-556.5 287.5,-537.5 202.5,-537.5"/>
<text text-anchor="middle" x="245" y="-544.5" font-family="Helvetica,sans-Serif" font-size="10.00">src/tls/client.h</text>
</a>
</g>
</g>
<!-- Node2 -->
<g id="node2" class="node">
<title>Node2</title>
<g id="a_node2"><a xlink:href="rpc__sessions_8h.html" target="_top" xlink:title=" ">
<polygon fill="white" stroke="black" points="460,-481.5 460,-500.5 606,-500.5 606,-481.5 460,-481.5"/>
<text text-anchor="middle" x="533" y="-488.5" font-family="Helvetica,sans-Serif" font-size="10.00">src/enclave/rpc_sessions.h</text>
</a>
</g>
</g>
<!-- Node1&#45;&gt;Node2 -->
<g id="edge1" class="edge">
<title>Node1&#45;&gt;Node2</title>
<path fill="none" stroke="midnightblue" d="M297.94,-536.07C352.33,-525.88 436.11,-510.17 487.58,-500.52"/>
<polygon fill="midnightblue" stroke="midnightblue" points="296.99,-532.69 287.81,-537.97 298.28,-539.57 296.99,-532.69"/>
</g>
<!-- Node6 -->
<g id="node6" class="node">
<title>Node6</title>
<g id="a_node6"><a xlink:href="node__state_8h.html" target="_top" xlink:title=" ">
<polygon fill="white" stroke="black" points="327,-168.5 327,-187.5 451,-187.5 451,-168.5 327,-168.5"/>
<text text-anchor="middle" x="389" y="-175.5" font-family="Helvetica,sans-Serif" font-size="10.00">src/node/node_state.h</text>
</a>
</g>
</g>
<!-- Node1&#45;&gt;Node6 -->
<g id="edge25" class="edge">
<title>Node1&#45;&gt;Node6</title>
<path fill="none" stroke="midnightblue" d="M192.06,-544.8C120.03,-540.03 0,-519.55 0,-436 0,-436 0,-436 0,-305.5 0,-247.12 49.53,-247.41 103,-224 175.52,-192.25 267.06,-182.53 326.77,-179.76"/>
<polygon fill="midnightblue" stroke="midnightblue" points="192.14,-548.31 202.32,-545.39 192.54,-541.32 192.14,-548.31"/>
</g>
<!-- Node3 -->
<g id="node3" class="node">
<title>Node3</title>
<g id="a_node3"><a xlink:href="enclave_2enclave_8h.html" target="_top" xlink:title=" ">
<polygon fill="white" stroke="black" points="328,-56.5 328,-75.5 450,-75.5 450,-56.5 328,-56.5"/>
<text text-anchor="middle" x="389" y="-63.5" font-family="Helvetica,sans-Serif" font-size="10.00">src/enclave/enclave.h</text>
</a>
</g>
</g>
<!-- Node2&#45;&gt;Node3 -->
<g id="edge2" class="edge">
<title>Node2&#45;&gt;Node3</title>
<path fill="none" stroke="midnightblue" d="M568.09,-477.75C608.38,-461.17 669,-427.44 669,-374.5 669,-374.5 669,-374.5 669,-177 669,-127.64 516.38,-91.21 436.5,-75.52"/>
<polygon fill="midnightblue" stroke="midnightblue" points="566.6,-474.57 558.58,-481.5 569.17,-481.09 566.6,-474.57"/>
</g>
<!-- Node5 -->
<g id="node5" class="node">
<title>Node5</title>
<g id="a_node5"><a xlink:href="ccf__acme__client_8h.html" target="_top" xlink:title=" ">
<polygon fill="white" stroke="black" points="454.5,-230 454.5,-249 603.5,-249 603.5,-230 454.5,-230"/>
<text text-anchor="middle" x="529" y="-237" font-family="Helvetica,sans-Serif" font-size="10.00">src/node/ccf_acme_client.h</text>
</a>
</g>
</g>
<!-- Node2&#45;&gt;Node5 -->
<g id="edge4" class="edge">
<title>Node2&#45;&gt;Node5</title>
<path fill="none" stroke="midnightblue" d="M544.76,-472.77C549.56,-464.71 554.56,-454.75 557,-445 575.6,-370.6 543.54,-277.69 532.52,-249.2"/>
<polygon fill="midnightblue" stroke="midnightblue" points="541.79,-470.92 539.37,-481.23 547.69,-474.68 541.79,-470.92"/>
</g>
<!-- Node2&#45;&gt;Node6 -->
<g id="edge22" class="edge">
<title>Node2&#45;&gt;Node6</title>
<path fill="none" stroke="midnightblue" d="M557.1,-475.88C586.12,-456.85 631,-420.06 631,-374.5 631,-374.5 631,-374.5 631,-305.5 631,-268.31 638.69,-249.9 612,-224 589.47,-202.13 508.9,-190.07 451.08,-184.07"/>
<polygon fill="midnightblue" stroke="midnightblue" points="554.9,-473.13 548.31,-481.42 558.64,-479.05 554.9,-473.13"/>
</g>
<!-- Node8 -->
<g id="node8" class="node">
<title>Node8</title>
<g id="a_node8"><a xlink:href="node__client_8h.html" target="_top" xlink:title=" ">
<polygon fill="white" stroke="black" points="288,-425.5 288,-444.5 414,-444.5 414,-425.5 288,-425.5"/>
<text text-anchor="middle" x="351" y="-432.5" font-family="Helvetica,sans-Serif" font-size="10.00">src/node/node_client.h</text>
</a>
</g>
</g>
<!-- Node2&#45;&gt;Node8 -->
<g id="edge9" class="edge">
<title>Node2&#45;&gt;Node8</title>
<path fill="none" stroke="midnightblue" d="M494.47,-478.57C460.14,-468.38 410.67,-453.7 379.7,-444.52"/>
<polygon fill="midnightblue" stroke="midnightblue" points="493.58,-481.95 504.16,-481.44 495.57,-475.24 493.58,-481.95"/>
</g>
<!-- Node15 -->
<g id="node15" class="node">
<title>Node15</title>
<g id="a_node15"><a xlink:href="resharing_8h.html" target="_top" xlink:title=" ">
<polygon fill="white" stroke="black" points="432,-425.5 432,-444.5 548,-444.5 548,-425.5 432,-425.5"/>
<text text-anchor="middle" x="490" y="-432.5" font-family="Helvetica,sans-Serif" font-size="10.00">src/node/resharing.h</text>
</a>
</g>
</g>
<!-- Node2&#45;&gt;Node15 -->
<g id="edge23" class="edge">
<title>Node2&#45;&gt;Node15</title>
<path fill="none" stroke="midnightblue" d="M519.58,-473.14C512.09,-463.74 503.06,-452.4 496.97,-444.75"/>
<polygon fill="midnightblue" stroke="midnightblue" points="516.93,-475.44 525.9,-481.08 522.41,-471.08 516.93,-475.44"/>
</g>
<!-- Node4 -->
<g id="node4" class="node">
<title>Node4</title>
<g id="a_node4"><a xlink:href="enclave_2main_8cpp.html" target="_top" xlink:title=" ">
<polygon fill="white" stroke="black" points="329,-0.5 329,-19.5 449,-19.5 449,-0.5 329,-0.5"/>
<text text-anchor="middle" x="389" y="-7.5" font-family="Helvetica,sans-Serif" font-size="10.00">src/enclave/main.cpp</text>
</a>
</g>
</g>
<!-- Node3&#45;&gt;Node4 -->
<g id="edge3" class="edge">
<title>Node3&#45;&gt;Node4</title>
<path fill="none" stroke="midnightblue" d="M389,-45.8C389,-36.91 389,-26.78 389,-19.75"/>
<polygon fill="midnightblue" stroke="midnightblue" points="385.5,-46.08 389,-56.08 392.5,-46.08 385.5,-46.08"/>
</g>
<!-- Node5&#45;&gt;Node6 -->
<g id="edge5" class="edge">
<title>Node5&#45;&gt;Node6</title>
<path fill="none" stroke="midnightblue" d="M499.54,-225.98C472.35,-214.42 432.71,-197.58 409.02,-187.51"/>
<polygon fill="midnightblue" stroke="midnightblue" points="498.37,-229.28 508.94,-229.98 501.11,-222.84 498.37,-229.28"/>
</g>
<!-- Node6&#45;&gt;Node3 -->
<g id="edge6" class="edge">
<title>Node6&#45;&gt;Node3</title>
<path fill="none" stroke="midnightblue" d="M403.98,-160.47C410.22,-152.48 416.77,-142.38 420,-132 426.61,-110.75 409.04,-87.63 397.72,-75.51"/>
<polygon fill="midnightblue" stroke="midnightblue" points="401.21,-158.32 397.48,-168.23 406.58,-162.81 401.21,-158.32"/>
</g>
<!-- Node7 -->
<g id="node7" class="node">
<title>Node7</title>
<g id="a_node7"><a xlink:href="gov__effects_8h.html" target="_top" xlink:title=" ">
<polygon fill="white" stroke="black" points="267,-112.5 267,-131.5 411,-131.5 411,-112.5 267,-112.5"/>
<text text-anchor="middle" x="339" y="-119.5" font-family="Helvetica,sans-Serif" font-size="10.00">src/node/rpc/gov_effects.h</text>
</a>
</g>
</g>
<!-- Node6&#45;&gt;Node7 -->
<g id="edge7" class="edge">
<title>Node6&#45;&gt;Node7</title>
<path fill="none" stroke="midnightblue" d="M373.92,-160.72C365.11,-151.2 354.33,-139.56 347.1,-131.75"/>
<polygon fill="midnightblue" stroke="midnightblue" points="371.38,-163.12 380.74,-168.08 376.52,-158.37 371.38,-163.12"/>
</g>
<!-- Node7&#45;&gt;Node3 -->
<g id="edge8" class="edge">
<title>Node7&#45;&gt;Node3</title>
<path fill="none" stroke="midnightblue" d="M354.08,-104.72C362.89,-95.2 373.67,-83.56 380.9,-75.75"/>
<polygon fill="midnightblue" stroke="midnightblue" points="351.48,-102.37 347.26,-112.08 356.62,-107.12 351.48,-102.37"/>
</g>
<!-- Node9 -->
<g id="node9" class="node">
<title>Node9</title>
<g id="a_node9"><a xlink:href="orc__requests_8h.html" target="_top" xlink:title=" ">
<polygon fill="white" stroke="black" points="67.5,-358.5 67.5,-388.5 186.5,-388.5 186.5,-358.5 67.5,-358.5"/>
<text text-anchor="start" x="75.5" y="-376.5" font-family="Helvetica,sans-Serif" font-size="10.00">src/consensus/aft/orc</text>
<text text-anchor="middle" x="127" y="-365.5" font-family="Helvetica,sans-Serif" font-size="10.00">_requests.h</text>
</a>
</g>
</g>
<!-- Node8&#45;&gt;Node9 -->
<g id="edge10" class="edge">
<title>Node8&#45;&gt;Node9</title>
<path fill="none" stroke="midnightblue" d="M309.06,-422.86C272.48,-413.14 219.26,-399.01 179.79,-388.52"/>
<polygon fill="midnightblue" stroke="midnightblue" points="308.34,-426.29 318.91,-425.48 310.14,-419.53 308.34,-426.29"/>
</g>
<!-- Node10 -->
<g id="node10" class="node">
<title>Node10</title>
<g id="a_node10"><a xlink:href="raft_8h.html" target="_top" xlink:title=" ">
<polygon fill="white" stroke="black" points="204.5,-297 204.5,-316 333.5,-316 333.5,-297 204.5,-297"/>
<text text-anchor="middle" x="269" y="-304" font-family="Helvetica,sans-Serif" font-size="10.00">src/consensus/aft/raft.h</text>
</a>
</g>
</g>
<!-- Node8&#45;&gt;Node10 -->
<g id="edge17" class="edge">
<title>Node8&#45;&gt;Node10</title>
<path fill="none" stroke="midnightblue" d="M352.92,-414.9C353.62,-398.63 352.36,-375.22 342,-358 330.08,-338.19 307.07,-324.26 290.05,-316.12"/>
<polygon fill="midnightblue" stroke="midnightblue" points="349.4,-415.06 352.16,-425.29 356.38,-415.57 349.4,-415.06"/>
</g>
<!-- Node13 -->
<g id="node13" class="node">
<title>Node13</title>
<g id="a_node13"><a xlink:href="http__node__client_8h.html" target="_top" xlink:title=" ">
<polygon fill="white" stroke="black" points="352,-291.5 352,-321.5 462,-321.5 462,-291.5 352,-291.5"/>
<text text-anchor="start" x="360" y="-309.5" font-family="Helvetica,sans-Serif" font-size="10.00">src/node/http_node</text>
<text text-anchor="middle" x="407" y="-298.5" font-family="Helvetica,sans-Serif" font-size="10.00">_client.h</text>
</a>
</g>
</g>
<!-- Node8&#45;&gt;Node13 -->
<g id="edge18" class="edge">
<title>Node8&#45;&gt;Node13</title>
<path fill="none" stroke="midnightblue" d="M361.09,-416.23C365.57,-408.05 370.78,-398.15 375,-389 385.69,-365.81 396.13,-337.96 402.05,-321.55"/>
<polygon fill="midnightblue" stroke="midnightblue" points="357.91,-414.75 356.09,-425.19 364.02,-418.16 357.91,-414.75"/>
</g>
<!-- Node14 -->
<g id="node14" class="node">
<title>Node14</title>
<g id="a_node14"><a xlink:href="retired__nodes__cleanup_8h.html" target="_top" xlink:title=" ">
<polygon fill="white" stroke="black" points="205,-358.5 205,-388.5 333,-388.5 333,-358.5 205,-358.5"/>
<text text-anchor="start" x="213" y="-376.5" font-family="Helvetica,sans-Serif" font-size="10.00">src/node/retired_nodes</text>
<text text-anchor="middle" x="269" y="-365.5" font-family="Helvetica,sans-Serif" font-size="10.00">_cleanup.h</text>
</a>
</g>
</g>
<!-- Node8&#45;&gt;Node14 -->
<g id="edge20" class="edge">
<title>Node8&#45;&gt;Node14</title>
<path fill="none" stroke="midnightblue" d="M330.97,-419.47C317.99,-410.05 301.17,-397.84 288.33,-388.52"/>
<polygon fill="midnightblue" stroke="midnightblue" points="329.1,-422.43 339.25,-425.48 333.21,-416.77 329.1,-422.43"/>
</g>
<!-- Node9&#45;&gt;Node10 -->
<g id="edge11" class="edge">
<title>Node9&#45;&gt;Node10</title>
<path fill="none" stroke="midnightblue" d="M167.13,-354.13C194.46,-341.62 229.37,-325.64 250.42,-316.01"/>
<polygon fill="midnightblue" stroke="midnightblue" points="165.45,-351.05 157.81,-358.4 168.36,-357.42 165.45,-351.05"/>
</g>
<!-- Node11 -->
<g id="node11" class="node">
<title>Node11</title>
<g id="a_node11"><a xlink:href="node__frontend_8h.html" target="_top" xlink:title=" ">
<polygon fill="white" stroke="black" points="28,-297 28,-316 186,-316 186,-297 28,-297"/>
<text text-anchor="middle" x="107" y="-304" font-family="Helvetica,sans-Serif" font-size="10.00">src/node/rpc/node_frontend.h</text>
</a>
</g>
</g>
<!-- Node9&#45;&gt;Node11 -->
<g id="edge13" class="edge">
<title>Node9&#45;&gt;Node11</title>
<path fill="none" stroke="midnightblue" d="M119.65,-348.6C116.16,-337.28 112.22,-324.46 109.68,-316.19"/>
<polygon fill="midnightblue" stroke="midnightblue" points="116.37,-349.87 122.66,-358.4 123.06,-347.81 116.37,-349.87"/>
</g>
<!-- Node10&#45;&gt;Node6 -->
<g id="edge12" class="edge">
<title>Node10&#45;&gt;Node6</title>
<path fill="none" stroke="midnightblue" d="M284.34,-289.33C310,-262.28 360.77,-208.76 380.69,-187.76"/>
<polygon fill="midnightblue" stroke="midnightblue" points="281.59,-287.14 277.25,-296.81 286.67,-291.96 281.59,-287.14"/>
</g>
<!-- Node11&#45;&gt;Node3 -->
<g id="edge14" class="edge">
<title>Node11&#45;&gt;Node3</title>
<path fill="none" stroke="midnightblue" d="M101.03,-286.87C96.62,-269.59 92.95,-243.66 103,-224 150.18,-131.7 276.05,-91.14 344,-75.5"/>
<polygon fill="midnightblue" stroke="midnightblue" points="97.76,-288.18 103.9,-296.82 104.49,-286.24 97.76,-288.18"/>
</g>
<!-- Node12 -->
<g id="node12" class="node">
<title>Node12</title>
<g id="a_node12"><a xlink:href="jwt__key__auto__refresh_8h.html" target="_top" xlink:title=" ">
<polygon fill="white" stroke="black" points="112.5,-224.5 112.5,-254.5 237.5,-254.5 237.5,-224.5 112.5,-224.5"/>
<text text-anchor="start" x="120.5" y="-242.5" font-family="Helvetica,sans-Serif" font-size="10.00">src/node/jwt_key_auto</text>
<text text-anchor="middle" x="175" y="-231.5" font-family="Helvetica,sans-Serif" font-size="10.00">_refresh.h</text>
</a>
</g>
</g>
<!-- Node11&#45;&gt;Node12 -->
<g id="edge15" class="edge">
<title>Node11&#45;&gt;Node12</title>
<path fill="none" stroke="midnightblue" d="M123.62,-289.62C134.82,-278.91 149.47,-264.9 160.26,-254.59"/>
<polygon fill="midnightblue" stroke="midnightblue" points="120.98,-287.29 116.17,-296.73 125.82,-292.35 120.98,-287.29"/>
</g>
<!-- Node12&#45;&gt;Node6 -->
<g id="edge16" class="edge">
<title>Node12&#45;&gt;Node6</title>
<path fill="none" stroke="midnightblue" d="M235.13,-221.78C275.27,-210.62 326.38,-196.41 358.41,-187.51"/>
<polygon fill="midnightblue" stroke="midnightblue" points="234.14,-218.42 225.44,-224.47 236.02,-225.17 234.14,-218.42"/>
</g>
<!-- Node13&#45;&gt;Node6 -->
<g id="edge19" class="edge">
<title>Node13&#45;&gt;Node6</title>
<path fill="none" stroke="midnightblue" d="M403.59,-281.51C399.53,-253.02 392.98,-206.94 390.25,-187.79"/>
<polygon fill="midnightblue" stroke="midnightblue" points="400.13,-282.07 405,-291.48 407.06,-281.09 400.13,-282.07"/>
</g>
<!-- Node14&#45;&gt;Node10 -->
<g id="edge21" class="edge">
<title>Node14&#45;&gt;Node10</title>
<path fill="none" stroke="midnightblue" d="M269,-348.25C269,-337.02 269,-324.38 269,-316.19"/>
<polygon fill="midnightblue" stroke="midnightblue" points="265.5,-348.4 269,-358.4 272.5,-348.4 265.5,-348.4"/>
</g>
<!-- Node15&#45;&gt;Node6 -->
<g id="edge24" class="edge">
<title>Node15&#45;&gt;Node6</title>
<path fill="none" stroke="midnightblue" d="M490.41,-415.23C490.4,-387.16 487.9,-333.08 471,-291 470.4,-289.52 414.56,-213.68 395.38,-187.66"/>
<polygon fill="midnightblue" stroke="midnightblue" points="486.91,-415.21 490.31,-425.24 493.91,-415.28 486.91,-415.21"/>
</g>
</g>
</svg>
