<?xml version="1.0" encoding="UTF-8" standalone="no"?>
<!DOCTYPE svg PUBLIC "-//W3C//DTD SVG 1.1//EN"
 "http://www.w3.org/Graphics/SVG/1.1/DTD/svg11.dtd">
<!-- Generated by graphviz version 2.43.0 (0)
 -->
<!-- Title: src/enclave/client_endpoint.h Pages: 1 -->
<!--zoomable 632 -->
<svg id="main" version="1.1" xmlns="http://www.w3.org/2000/svg" xmlns:xlink="http://www.w3.org/1999/xlink" xml:space="preserve" onload="init(evt)">
<style type="text/css"><![CDATA[
.edge:hover path { stroke: red; }
.edge:hover polygon { stroke: red; fill: red; }
]]></style>
<script type="text/javascript"><![CDATA[
var edges = document.getElementsByTagName('g');
if (edges && edges.length) {
  for (var i=0;i<edges.length;i++) {
    if (edges[i].id.substr(0,4)=='edge') {
      edges[i].setAttribute('class','edge');
    }
  }
}
]]></script>
        <defs>
                <circle id="rim" cx="0" cy="0" r="7"/>
                <circle id="rim2" cx="0" cy="0" r="3.5"/>
                <g id="zoomPlus">
                        <use xlink:href="#rim" fill="#404040">
                                <set attributeName="fill" to="#808080" begin="zoomplus.mouseover" end="zoomplus.mouseout"/>
                        </use>
                        <path d="M-4,0h8M0,-4v8" fill="none" stroke="white" stroke-width="1.5" pointer-events="none"/>
                </g>
                <g id="zoomMin">
                        <use xlink:href="#rim" fill="#404040">
                                <set attributeName="fill" to="#808080" begin="zoomminus.mouseover" end="zoomminus.mouseout"/>
                        </use>
                        <path d="M-4,0h8" fill="none" stroke="white" stroke-width="1.5" pointer-events="none"/>
                </g>
                <g id="dirArrow">
                        <path fill="none" stroke="white" stroke-width="1.5" d="M0,-3.0v7 M-2.5,-0.5L0,-3.0L2.5,-0.5"/>
                </g>
               <g id="resetDef">
                       <use xlink:href="#rim2" fill="#404040">
                               <set attributeName="fill" to="#808080" begin="reset.mouseover" end="reset.mouseout"/>
                       </use>
               </g>
        </defs>

<script type="text/javascript">
var viewWidth = 758;
var viewHeight = 632;
var sectionId = 'dynsection-1';
</script>
<script xlink:href="svgpan.js"/>
<svg id="graph" class="graph">
<g id="viewport">
<title>src/enclave/client_endpoint.h</title>
<polygon fill="white" stroke="transparent" points="-4,4 -4,-628 753.5,-628 753.5,4 -4,4"/>
<!-- Node1 -->
<g id="node1" class="node">
<title>Node1</title>
<g id="a_node1"><a xlink:title=" ">
<polygon fill="#bfbfbf" stroke="black" points="288,-593.5 288,-623.5 390,-623.5 390,-593.5 288,-593.5"/>
<text text-anchor="start" x="296" y="-611.5" font-family="Helvetica,sans-Serif" font-size="10.00">src/enclave/client</text>
<text text-anchor="middle" x="339" y="-600.5" font-family="Helvetica,sans-Serif" font-size="10.00">_endpoint.h</text>
</a>
</g>
</g>
<!-- Node2 -->
<g id="node2" class="node">
<title>Node2</title>
<g id="a_node2"><a xlink:href="http__endpoint_8h.html" target="_top" xlink:title=" ">
<polygon fill="white" stroke="black" points="272.5,-537.5 272.5,-556.5 405.5,-556.5 405.5,-537.5 272.5,-537.5"/>
<text text-anchor="middle" x="339" y="-544.5" font-family="Helvetica,sans-Serif" font-size="10.00">src/http/http_endpoint.h</text>
</a>
</g>
</g>
<!-- Node1&#45;&gt;Node2 -->
<g id="edge1" class="edge">
<title>Node1&#45;&gt;Node2</title>
<path fill="none" stroke="midnightblue" d="M339,-583.29C339,-573.86 339,-563.65 339,-556.66"/>
<polygon fill="midnightblue" stroke="midnightblue" points="335.5,-583.4 339,-593.4 342.5,-583.4 335.5,-583.4"/>
</g>
<!-- Node3 -->
<g id="node3" class="node">
<title>Node3</title>
<g id="a_node3"><a xlink:href="rpc__sessions_8h.html" target="_top" xlink:title=" ">
<polygon fill="white" stroke="black" points="186,-476 186,-495 332,-495 332,-476 186,-476"/>
<text text-anchor="middle" x="259" y="-483" font-family="Helvetica,sans-Serif" font-size="10.00">src/enclave/rpc_sessions.h</text>
</a>
</g>
</g>
<!-- Node2&#45;&gt;Node3 -->
<g id="edge2" class="edge">
<title>Node2&#45;&gt;Node3</title>
<path fill="none" stroke="midnightblue" d="M319.23,-531.29C303.88,-519.88 283.14,-504.46 270.44,-495.01"/>
<polygon fill="midnightblue" stroke="midnightblue" points="317.43,-534.32 327.54,-537.48 321.6,-528.7 317.43,-534.32"/>
</g>
<!-- Node17 -->
<g id="node17" class="node">
<title>Node17</title>
<g id="a_node17"><a xlink:href="acme__challenge__server_8h.html" target="_top" xlink:title=" ">
<polygon fill="white" stroke="black" points="483.5,-470.5 483.5,-500.5 620.5,-500.5 620.5,-470.5 483.5,-470.5"/>
<text text-anchor="start" x="491.5" y="-488.5" font-family="Helvetica,sans-Serif" font-size="10.00">src/host/acme_challenge</text>
<text text-anchor="middle" x="552" y="-477.5" font-family="Helvetica,sans-Serif" font-size="10.00">_server.h</text>
</a>
</g>
</g>
<!-- Node2&#45;&gt;Node17 -->
<g id="edge26" class="edge">
<title>Node2&#45;&gt;Node17</title>
<path fill="none" stroke="midnightblue" d="M379.33,-534.73C414.09,-525.02 464.43,-510.96 501.8,-500.52"/>
<polygon fill="midnightblue" stroke="midnightblue" points="378.21,-531.41 369.52,-537.48 380.09,-538.16 378.21,-531.41"/>
</g>
<!-- Node4 -->
<g id="node4" class="node">
<title>Node4</title>
<g id="a_node4"><a xlink:href="enclave_2enclave_8h.html" target="_top" xlink:title=" ">
<polygon fill="white" stroke="black" points="397,-56.5 397,-75.5 519,-75.5 519,-56.5 397,-56.5"/>
<text text-anchor="middle" x="458" y="-63.5" font-family="Helvetica,sans-Serif" font-size="10.00">src/enclave/enclave.h</text>
</a>
</g>
</g>
<!-- Node3&#45;&gt;Node4 -->
<g id="edge3" class="edge">
<title>Node3&#45;&gt;Node4</title>
<path fill="none" stroke="midnightblue" d="M335.23,-474.48C440.62,-458.45 618,-422.68 618,-363.5 618,-363.5 618,-363.5 618,-177 618,-118.35 544.08,-88.61 496.73,-75.57"/>
<polygon fill="midnightblue" stroke="midnightblue" points="334.64,-471.03 325.26,-475.97 335.67,-477.95 334.64,-471.03"/>
</g>
<!-- Node6 -->
<g id="node6" class="node">
<title>Node6</title>
<g id="a_node6"><a xlink:href="ccf__acme__client_8h.html" target="_top" xlink:title=" ">
<polygon fill="white" stroke="black" points="65.5,-230 65.5,-249 214.5,-249 214.5,-230 65.5,-230"/>
<text text-anchor="middle" x="140" y="-237" font-family="Helvetica,sans-Serif" font-size="10.00">src/node/ccf_acme_client.h</text>
</a>
</g>
</g>
<!-- Node3&#45;&gt;Node6 -->
<g id="edge5" class="edge">
<title>Node3&#45;&gt;Node6</title>
<path fill="none" stroke="midnightblue" d="M250.38,-466.83C226.72,-418.31 161.37,-284.31 144.18,-249.08"/>
<polygon fill="midnightblue" stroke="midnightblue" points="247.24,-468.36 254.76,-475.82 253.53,-465.29 247.24,-468.36"/>
</g>
<!-- Node7 -->
<g id="node7" class="node">
<title>Node7</title>
<g id="a_node7"><a xlink:href="node__state_8h.html" target="_top" xlink:title=" ">
<polygon fill="white" stroke="black" points="229,-168.5 229,-187.5 353,-187.5 353,-168.5 229,-168.5"/>
<text text-anchor="middle" x="291" y="-175.5" font-family="Helvetica,sans-Serif" font-size="10.00">src/node/node_state.h</text>
</a>
</g>
</g>
<!-- Node3&#45;&gt;Node7 -->
<g id="edge23" class="edge">
<title>Node3&#45;&gt;Node7</title>
<path fill="none" stroke="midnightblue" d="M175.78,-479.56C100.04,-470.01 0,-442.47 0,-363.5 0,-363.5 0,-363.5 0,-300 0,-201.65 143.47,-181.76 228.93,-178.63"/>
<polygon fill="midnightblue" stroke="midnightblue" points="175.48,-483.05 185.82,-480.74 176.3,-476.09 175.48,-483.05"/>
</g>
<!-- Node9 -->
<g id="node9" class="node">
<title>Node9</title>
<g id="a_node9"><a xlink:href="node__client_8h.html" target="_top" xlink:title=" ">
<polygon fill="white" stroke="black" points="282,-414.5 282,-433.5 408,-433.5 408,-414.5 282,-414.5"/>
<text text-anchor="middle" x="345" y="-421.5" font-family="Helvetica,sans-Serif" font-size="10.00">src/node/node_client.h</text>
</a>
</g>
</g>
<!-- Node3&#45;&gt;Node9 -->
<g id="edge10" class="edge">
<title>Node3&#45;&gt;Node9</title>
<path fill="none" stroke="midnightblue" d="M279.8,-470.11C296.34,-458.67 318.92,-443.05 332.7,-433.51"/>
<polygon fill="midnightblue" stroke="midnightblue" points="277.55,-467.41 271.32,-475.98 281.54,-473.16 277.55,-467.41"/>
</g>
<!-- Node16 -->
<g id="node16" class="node">
<title>Node16</title>
<g id="a_node16"><a xlink:href="resharing_8h.html" target="_top" xlink:title=" ">
<polygon fill="white" stroke="black" points="37,-291.5 37,-310.5 153,-310.5 153,-291.5 37,-291.5"/>
<text text-anchor="middle" x="95" y="-298.5" font-family="Helvetica,sans-Serif" font-size="10.00">src/node/resharing.h</text>
</a>
</g>
</g>
<!-- Node3&#45;&gt;Node16 -->
<g id="edge24" class="edge">
<title>Node3&#45;&gt;Node16</title>
<path fill="none" stroke="midnightblue" d="M228.17,-471.48C210.23,-462.8 188.06,-450.03 172,-434 133.31,-395.4 107.03,-333.45 98.24,-310.72"/>
<polygon fill="midnightblue" stroke="midnightblue" points="227.1,-474.84 237.64,-475.89 230.05,-468.5 227.1,-474.84"/>
</g>
<!-- Node5 -->
<g id="node5" class="node">
<title>Node5</title>
<g id="a_node5"><a xlink:href="enclave_2main_8cpp.html" target="_top" xlink:title=" ">
<polygon fill="white" stroke="black" points="398,-0.5 398,-19.5 518,-19.5 518,-0.5 398,-0.5"/>
<text text-anchor="middle" x="458" y="-7.5" font-family="Helvetica,sans-Serif" font-size="10.00">src/enclave/main.cpp</text>
</a>
</g>
</g>
<!-- Node4&#45;&gt;Node5 -->
<g id="edge4" class="edge">
<title>Node4&#45;&gt;Node5</title>
<path fill="none" stroke="midnightblue" d="M458,-45.8C458,-36.91 458,-26.78 458,-19.75"/>
<polygon fill="midnightblue" stroke="midnightblue" points="454.5,-46.08 458,-56.08 461.5,-46.08 454.5,-46.08"/>
</g>
<!-- Node6&#45;&gt;Node7 -->
<g id="edge6" class="edge">
<title>Node6&#45;&gt;Node7</title>
<path fill="none" stroke="midnightblue" d="M171.01,-226.28C200.35,-214.72 243.63,-197.66 269.41,-187.51"/>
<polygon fill="midnightblue" stroke="midnightblue" points="169.66,-223.05 161.63,-229.98 172.22,-229.57 169.66,-223.05"/>
</g>
<!-- Node7&#45;&gt;Node4 -->
<g id="edge7" class="edge">
<title>Node7&#45;&gt;Node4</title>
<path fill="none" stroke="midnightblue" d="M297,-158.62C302.62,-144.09 312.37,-124.27 327,-112 349.57,-93.07 380.54,-81.95 406.69,-75.5"/>
<polygon fill="midnightblue" stroke="midnightblue" points="293.69,-157.49 293.63,-168.09 300.28,-159.84 293.69,-157.49"/>
</g>
<!-- Node8 -->
<g id="node8" class="node">
<title>Node8</title>
<g id="a_node8"><a xlink:href="gov__effects_8h.html" target="_top" xlink:title=" ">
<polygon fill="white" stroke="black" points="336,-112.5 336,-131.5 480,-131.5 480,-112.5 336,-112.5"/>
<text text-anchor="middle" x="408" y="-119.5" font-family="Helvetica,sans-Serif" font-size="10.00">src/node/rpc/gov_effects.h</text>
</a>
</g>
</g>
<!-- Node7&#45;&gt;Node8 -->
<g id="edge8" class="edge">
<title>Node7&#45;&gt;Node8</title>
<path fill="none" stroke="midnightblue" d="M318.66,-164.23C340.55,-154.13 370.5,-140.31 389.55,-131.52"/>
<polygon fill="midnightblue" stroke="midnightblue" points="317.15,-161.08 309.54,-168.44 320.09,-167.43 317.15,-161.08"/>
</g>
<!-- Node8&#45;&gt;Node4 -->
<g id="edge9" class="edge">
<title>Node8&#45;&gt;Node4</title>
<path fill="none" stroke="midnightblue" d="M423.08,-104.72C431.89,-95.2 442.67,-83.56 449.9,-75.75"/>
<polygon fill="midnightblue" stroke="midnightblue" points="420.48,-102.37 416.26,-112.08 425.62,-107.12 420.48,-102.37"/>
</g>
<!-- Node10 -->
<g id="node10" class="node">
<title>Node10</title>
<g id="a_node10"><a xlink:href="orc__requests_8h.html" target="_top" xlink:title=" ">
<polygon fill="white" stroke="black" points="285.5,-347.5 285.5,-377.5 404.5,-377.5 404.5,-347.5 285.5,-347.5"/>
<text text-anchor="start" x="293.5" y="-365.5" font-family="Helvetica,sans-Serif" font-size="10.00">src/consensus/aft/orc</text>
<text text-anchor="middle" x="345" y="-354.5" font-family="Helvetica,sans-Serif" font-size="10.00">_requests.h</text>
</a>
</g>
</g>
<!-- Node9&#45;&gt;Node10 -->
<g id="edge11" class="edge">
<title>Node9&#45;&gt;Node10</title>
<path fill="none" stroke="midnightblue" d="M345,-404.23C345,-395.59 345,-385.5 345,-377.52"/>
<polygon fill="midnightblue" stroke="midnightblue" points="341.5,-404.48 345,-414.48 348.5,-404.48 341.5,-404.48"/>
</g>
<!-- Node11 -->
<g id="node11" class="node">
<title>Node11</title>
<g id="a_node11"><a xlink:href="raft_8h.html" target="_top" xlink:title=" ">
<polygon fill="white" stroke="black" points="460.5,-291.5 460.5,-310.5 589.5,-310.5 589.5,-291.5 460.5,-291.5"/>
<text text-anchor="middle" x="525" y="-298.5" font-family="Helvetica,sans-Serif" font-size="10.00">src/consensus/aft/raft.h</text>
</a>
</g>
</g>
<!-- Node9&#45;&gt;Node11 -->
<g id="edge18" class="edge">
<title>Node9&#45;&gt;Node11</title>
<path fill="none" stroke="midnightblue" d="M418.23,-417.4C473.31,-411.49 542.23,-399.87 560,-378 577.22,-356.8 550.27,-325.75 534.74,-310.75"/>
<polygon fill="midnightblue" stroke="midnightblue" points="417.71,-413.94 408.12,-418.44 418.43,-420.9 417.71,-413.94"/>
</g>
<!-- Node14 -->
<g id="node14" class="node">
<title>Node14</title>
<g id="a_node14"><a xlink:href="http__node__client_8h.html" target="_top" xlink:title=" ">
<polygon fill="white" stroke="black" points="233,-224.5 233,-254.5 343,-254.5 343,-224.5 233,-224.5"/>
<text text-anchor="start" x="241" y="-242.5" font-family="Helvetica,sans-Serif" font-size="10.00">src/node/http_node</text>
<text text-anchor="middle" x="288" y="-231.5" font-family="Helvetica,sans-Serif" font-size="10.00">_client.h</text>
</a>
</g>
</g>
<!-- Node9&#45;&gt;Node14 -->
<g id="edge19" class="edge">
<title>Node9&#45;&gt;Node14</title>
<path fill="none" stroke="midnightblue" d="M312.04,-409.95C298.35,-402.72 283.86,-392.25 276,-378 253.9,-337.92 271.46,-281.11 281.8,-254.84"/>
<polygon fill="midnightblue" stroke="midnightblue" points="310.77,-413.23 321.29,-414.45 313.83,-406.93 310.77,-413.23"/>
</g>
<!-- Node15 -->
<g id="node15" class="node">
<title>Node15</title>
<g id="a_node15"><a xlink:href="retired__nodes__cleanup_8h.html" target="_top" xlink:title=" ">
<polygon fill="white" stroke="black" points="423,-347.5 423,-377.5 551,-377.5 551,-347.5 423,-347.5"/>
<text text-anchor="start" x="431" y="-365.5" font-family="Helvetica,sans-Serif" font-size="10.00">src/node/retired_nodes</text>
<text text-anchor="middle" x="487" y="-354.5" font-family="Helvetica,sans-Serif" font-size="10.00">_cleanup.h</text>
</a>
</g>
</g>
<!-- Node9&#45;&gt;Node15 -->
<g id="edge21" class="edge">
<title>Node9&#45;&gt;Node15</title>
<path fill="none" stroke="midnightblue" d="M374.62,-410.59C397.64,-400.94 429.59,-387.56 453.53,-377.52"/>
<polygon fill="midnightblue" stroke="midnightblue" points="373.22,-407.38 365.35,-414.48 375.92,-413.84 373.22,-407.38"/>
</g>
<!-- Node10&#45;&gt;Node11 -->
<g id="edge12" class="edge">
<title>Node10&#45;&gt;Node11</title>
<path fill="none" stroke="midnightblue" d="M397.28,-344.22C430.7,-333.17 472.58,-319.33 499.07,-310.57"/>
<polygon fill="midnightblue" stroke="midnightblue" points="396.05,-340.94 387.66,-347.4 398.25,-347.58 396.05,-340.94"/>
</g>
<!-- Node12 -->
<g id="node12" class="node">
<title>Node12</title>
<g id="a_node12"><a xlink:href="node__frontend_8h.html" target="_top" xlink:title=" ">
<polygon fill="white" stroke="black" points="284,-291.5 284,-310.5 442,-310.5 442,-291.5 284,-291.5"/>
<text text-anchor="middle" x="363" y="-298.5" font-family="Helvetica,sans-Serif" font-size="10.00">src/node/rpc/node_frontend.h</text>
</a>
</g>
</g>
<!-- Node10&#45;&gt;Node12 -->
<g id="edge14" class="edge">
<title>Node10&#45;&gt;Node12</title>
<path fill="none" stroke="midnightblue" d="M352.23,-337.59C355.11,-328.08 358.24,-317.73 360.38,-310.66"/>
<polygon fill="midnightblue" stroke="midnightblue" points="348.81,-336.81 349.27,-347.4 355.51,-338.84 348.81,-336.81"/>
</g>
<!-- Node11&#45;&gt;Node7 -->
<g id="edge13" class="edge">
<title>Node11&#45;&gt;Node7</title>
<path fill="none" stroke="midnightblue" d="M522.91,-281.35C519.94,-263.94 512.85,-238.52 496,-224 474.81,-205.75 405.33,-193.2 353.09,-186.09"/>
<polygon fill="midnightblue" stroke="midnightblue" points="519.47,-282.03 524.32,-291.44 526.4,-281.05 519.47,-282.03"/>
</g>
<!-- Node12&#45;&gt;Node4 -->
<g id="edge15" class="edge">
<title>Node12&#45;&gt;Node4</title>
<path fill="none" stroke="midnightblue" d="M447.87,-288.33C466.65,-281.62 484.39,-271.18 496,-255 508.67,-237.34 524.66,-215.16 489,-112 484.1,-97.83 473.44,-84.01 466,-75.51"/>
<polygon fill="midnightblue" stroke="midnightblue" points="446.72,-285.02 438.28,-291.42 448.87,-291.68 446.72,-285.02"/>
</g>
<!-- Node13 -->
<g id="node13" class="node">
<title>Node13</title>
<g id="a_node13"><a xlink:href="jwt__key__auto__refresh_8h.html" target="_top" xlink:title=" ">
<polygon fill="white" stroke="black" points="361.5,-224.5 361.5,-254.5 486.5,-254.5 486.5,-224.5 361.5,-224.5"/>
<text text-anchor="start" x="369.5" y="-242.5" font-family="Helvetica,sans-Serif" font-size="10.00">src/node/jwt_key_auto</text>
<text text-anchor="middle" x="424" y="-231.5" font-family="Helvetica,sans-Serif" font-size="10.00">_refresh.h</text>
</a>
</g>
</g>
<!-- Node12&#45;&gt;Node13 -->
<g id="edge16" class="edge">
<title>Node12&#45;&gt;Node13</title>
<path fill="none" stroke="midnightblue" d="M379.03,-284.37C388.51,-275.11 400.44,-263.48 409.62,-254.52"/>
<polygon fill="midnightblue" stroke="midnightblue" points="376.45,-281.99 371.74,-291.48 381.34,-287 376.45,-281.99"/>
</g>
<!-- Node13&#45;&gt;Node7 -->
<g id="edge17" class="edge">
<title>Node13&#45;&gt;Node7</title>
<path fill="none" stroke="midnightblue" d="M383.16,-220.23C358.94,-209.39 329.36,-196.16 310.35,-187.66"/>
<polygon fill="midnightblue" stroke="midnightblue" points="381.92,-223.51 392.48,-224.4 384.78,-217.12 381.92,-223.51"/>
</g>
<!-- Node14&#45;&gt;Node7 -->
<g id="edge20" class="edge">
<title>Node14&#45;&gt;Node7</title>
<path fill="none" stroke="midnightblue" d="M289.22,-214.29C289.7,-204.86 290.21,-194.65 290.56,-187.66"/>
<polygon fill="midnightblue" stroke="midnightblue" points="285.72,-214.24 288.71,-224.4 292.71,-214.59 285.72,-214.24"/>
</g>
<!-- Node15&#45;&gt;Node11 -->
<g id="edge22" class="edge">
<title>Node15&#45;&gt;Node11</title>
<path fill="none" stroke="midnightblue" d="M501.5,-338.8C507.78,-328.96 514.76,-318.03 519.47,-310.66"/>
<polygon fill="midnightblue" stroke="midnightblue" points="498.44,-337.09 496.01,-347.4 504.34,-340.86 498.44,-337.09"/>
</g>
<!-- Node16&#45;&gt;Node7 -->
<g id="edge25" class="edge">
<title>Node16&#45;&gt;Node7</title>
<path fill="none" stroke="midnightblue" d="M76.76,-284.14C60.27,-267.89 40.73,-242.47 56,-224 77.54,-197.95 166.67,-186.83 228.75,-182.19"/>
<polygon fill="midnightblue" stroke="midnightblue" points="74.75,-287.05 84.45,-291.31 79.52,-281.93 74.75,-287.05"/>
</g>
<!-- Node18 -->
<g id="node18" class="node">
<title>Node18</title>
<g id="a_node18"><a xlink:href="host_2main_8cpp.html" target="_top" xlink:title=" ">
<polygon fill="white" stroke="black" points="646.5,-414.5 646.5,-433.5 749.5,-433.5 749.5,-414.5 646.5,-414.5"/>
<text text-anchor="middle" x="698" y="-421.5" font-family="Helvetica,sans-Serif" font-size="10.00">src/host/main.cpp</text>
</a>
</g>
</g>
<!-- Node17&#45;&gt;Node18 -->
<g id="edge27" class="edge">
<title>Node17&#45;&gt;Node18</title>
<path fill="none" stroke="midnightblue" d="M596.13,-466.52C622.85,-455.63 655.71,-442.23 676.76,-433.66"/>
<polygon fill="midnightblue" stroke="midnightblue" points="594.54,-463.38 586.6,-470.4 597.18,-469.87 594.54,-463.38"/>
</g>
</g>
</svg>
        <g id="navigator" transform="translate(0 0)" fill="#404254">
                <rect fill="#f2f5e9" fill-opacity="0.5" stroke="#606060" stroke-width=".5" x="0" y="0" width="60" height="60"/>
                <use id="zoomplus" xlink:href="#zoomPlus" x="17" y="9" onmousedown="handleZoom(evt,'in')"/>
                <use id="zoomminus" xlink:href="#zoomMin" x="42" y="9" onmousedown="handleZoom(evt,'out')"/>
                <use id="reset" xlink:href="#resetDef" x="30" y="36" onmousedown="handleReset()"/>
                <g id="arrowUp" xlink:href="#dirArrow" transform="translate(30 24)" onmousedown="handlePan(0,-1)">
                  <use xlink:href="#rim" fill="#404040">
                        <set attributeName="fill" to="#808080" begin="arrowUp.mouseover" end="arrowUp.mouseout"/>
                  </use>
                  <path fill="none" stroke="white" stroke-width="1.5" d="M0,-3.0v7 M-2.5,-0.5L0,-3.0L2.5,-0.5"/>
                </g>
                <g id="arrowRight" xlink:href="#dirArrow" transform="rotate(90) translate(36 -43)" onmousedown="handlePan(1,0)">
                  <use xlink:href="#rim" fill="#404040">
                        <set attributeName="fill" to="#808080" begin="arrowRight.mouseover" end="arrowRight.mouseout"/>
                  </use>
                  <path fill="none" stroke="white" stroke-width="1.5" d="M0,-3.0v7 M-2.5,-0.5L0,-3.0L2.5,-0.5"/>
                </g>
                <g id="arrowDown" xlink:href="#dirArrow" transform="rotate(180) translate(-30 -48)" onmousedown="handlePan(0,1)">
                  <use xlink:href="#rim" fill="#404040">
                        <set attributeName="fill" to="#808080" begin="arrowDown.mouseover" end="arrowDown.mouseout"/>
                  </use>
                  <path fill="none" stroke="white" stroke-width="1.5" d="M0,-3.0v7 M-2.5,-0.5L0,-3.0L2.5,-0.5"/>
                </g>
                <g id="arrowLeft" xlink:href="#dirArrow" transform="rotate(270) translate(-36 17)" onmousedown="handlePan(-1,0)">
                  <use xlink:href="#rim" fill="#404040">
                        <set attributeName="fill" to="#808080" begin="arrowLeft.mouseover" end="arrowLeft.mouseout"/>
                  </use>
                  <path fill="none" stroke="white" stroke-width="1.5" d="M0,-3.0v7 M-2.5,-0.5L0,-3.0L2.5,-0.5"/>
                </g>
        </g>
        <svg viewBox="0 0 15 15" width="100%" height="30px" preserveAspectRatio="xMaxYMin meet">
         <g id="arrow_out" transform="scale(0.3 0.3)">
          <a xlink:href="client__endpoint_8h__dep__incl_org.svg" target="_base">
           <rect id="button" ry="5" rx="5" y="6" x="6" height="38" width="38"
                fill="#f2f5e9" fill-opacity="0.5" stroke="#606060" stroke-width="1.0"/>
           <path id="arrow"
             d="M 11.500037,31.436501 C 11.940474,20.09759 22.043105,11.32322 32.158766,21.979434 L 37.068811,17.246167 C 37.068811,17.246167 37.088388,32 37.088388,32 L 22.160133,31.978069 C 22.160133,31.978069 26.997745,27.140456 26.997745,27.140456 C 18.528582,18.264221 13.291696,25.230495 11.500037,31.436501 z"
             style="fill:#404040;"/>
          </a>
         </g>
        </svg>
</svg>
