<?xml version="1.0" encoding="UTF-8" standalone="no"?>
<!DOCTYPE svg PUBLIC "-//W3C//DTD SVG 1.1//EN"
 "http://www.w3.org/Graphics/SVG/1.1/DTD/svg11.dtd">
<!-- Generated by graphviz version 2.43.0 (0)
 -->
<!-- Title: include/ccf/service/tables/code_id.h Pages: 1 -->
<svg width="2284pt" height="620pt"
 viewBox="0.00 0.00 2283.50 620.00" xmlns="http://www.w3.org/2000/svg" xmlns:xlink="http://www.w3.org/1999/xlink">
<g id="graph0" class="graph" transform="scale(1 1) rotate(0) translate(4 616)">
<title>include/ccf/service/tables/code_id.h</title>
<polygon fill="white" stroke="transparent" points="-4,4 -4,-616 2279.5,-616 2279.5,4 -4,4"/>
<!-- Node1 -->
<g id="node1" class="node">
<title>Node1</title>
<g id="a_node1"><a xlink:title=" ">
<polygon fill="#bfbfbf" stroke="black" points="724.5,-581.5 724.5,-611.5 831.5,-611.5 831.5,-581.5 724.5,-581.5"/>
<text text-anchor="start" x="732.5" y="-599.5" font-family="Helvetica,sans-Serif" font-size="10.00">include/ccf/service</text>
<text text-anchor="middle" x="778" y="-588.5" font-family="Helvetica,sans-Serif" font-size="10.00">/tables/code_id.h</text>
</a>
</g>
</g>
<!-- Node2 -->
<g id="node2" class="node">
<title>Node2</title>
<g id="a_node2"><a xlink:href="common__endpoint__registry_8cpp.html" target="_top" xlink:title=" ">
<polygon fill="white" stroke="black" points="615,-313.5 615,-343.5 743,-343.5 743,-313.5 615,-313.5"/>
<text text-anchor="start" x="623" y="-331.5" font-family="Helvetica,sans-Serif" font-size="10.00">src/endpoints/common</text>
<text text-anchor="middle" x="679" y="-320.5" font-family="Helvetica,sans-Serif" font-size="10.00">_endpoint_registry.cpp</text>
</a>
</g>
</g>
<!-- Node1&#45;&gt;Node2 -->
<g id="edge1" class="edge">
<title>Node1&#45;&gt;Node2</title>
<path fill="none" stroke="midnightblue" d="M762.44,-573.03C756.87,-564.47 750.79,-554.49 746,-545 709.98,-473.65 688.82,-379.17 681.71,-343.73"/>
<polygon fill="midnightblue" stroke="midnightblue" points="759.53,-574.97 767.99,-581.35 765.35,-571.09 759.53,-574.97"/>
</g>
<!-- Node3 -->
<g id="node3" class="node">
<title>Node3</title>
<g id="a_node3"><a xlink:href="call__types_8h.html" target="_top" xlink:title=" ">
<polygon fill="white" stroke="black" points="728.5,-453 728.5,-472 865.5,-472 865.5,-453 728.5,-453"/>
<text text-anchor="middle" x="797" y="-460" font-family="Helvetica,sans-Serif" font-size="10.00">src/node/rpc/call_types.h</text>
</a>
</g>
</g>
<!-- Node1&#45;&gt;Node3 -->
<g id="edge2" class="edge">
<title>Node1&#45;&gt;Node3</title>
<path fill="none" stroke="midnightblue" d="M762.86,-572.57C753.94,-556.1 745.71,-533.46 753,-514 759.53,-496.58 775.08,-481.21 785.83,-472.13"/>
<polygon fill="midnightblue" stroke="midnightblue" points="760,-574.62 768.08,-581.48 766.05,-571.09 760,-574.62"/>
</g>
<!-- Node12 -->
<g id="node12" class="node">
<title>Node12</title>
<g id="a_node12"><a xlink:href="serialization_8h.html" target="_top" xlink:title=" ">
<polygon fill="white" stroke="black" points="877,-386 877,-405 1025,-405 1025,-386 877,-386"/>
<text text-anchor="middle" x="951" y="-393" font-family="Helvetica,sans-Serif" font-size="10.00">src/node/rpc/serialization.h</text>
</a>
</g>
</g>
<!-- Node1&#45;&gt;Node12 -->
<g id="edge58" class="edge">
<title>Node1&#45;&gt;Node12</title>
<path fill="none" stroke="midnightblue" d="M841.23,-579.2C860.87,-571.53 881.22,-560.54 896,-545 935.8,-503.17 947.31,-430.04 950.17,-405.11"/>
<polygon fill="midnightblue" stroke="midnightblue" points="839.86,-575.97 831.67,-582.7 842.27,-582.55 839.86,-575.97"/>
</g>
<!-- Node15 -->
<g id="node15" class="node">
<title>Node15</title>
<g id="a_node15"><a xlink:href="node__call__types_8h.html" target="_top" xlink:title=" ">
<polygon fill="white" stroke="black" points="761.5,-514.5 761.5,-544.5 886.5,-544.5 886.5,-514.5 761.5,-514.5"/>
<text text-anchor="start" x="769.5" y="-532.5" font-family="Helvetica,sans-Serif" font-size="10.00">src/node/rpc/node_call</text>
<text text-anchor="middle" x="824" y="-521.5" font-family="Helvetica,sans-Serif" font-size="10.00">_types.h</text>
</a>
</g>
</g>
<!-- Node1&#45;&gt;Node15 -->
<g id="edge24" class="edge">
<title>Node1&#45;&gt;Node15</title>
<path fill="none" stroke="midnightblue" d="M793.81,-573.16C800.52,-563.68 808.13,-552.92 814.04,-544.58"/>
<polygon fill="midnightblue" stroke="midnightblue" points="790.9,-571.21 787.98,-581.4 796.62,-575.26 790.9,-571.21"/>
</g>
<!-- Node16 -->
<g id="node16" class="node">
<title>Node16</title>
<g id="a_node16"><a xlink:href="node__interface_8h.html" target="_top" xlink:title=" ">
<polygon fill="white" stroke="black" points="467.5,-386 467.5,-405 628.5,-405 628.5,-386 467.5,-386"/>
<text text-anchor="middle" x="548" y="-393" font-family="Helvetica,sans-Serif" font-size="10.00">src/node/rpc/node_interface.h</text>
</a>
</g>
</g>
<!-- Node1&#45;&gt;Node16 -->
<g id="edge26" class="edge">
<title>Node1&#45;&gt;Node16</title>
<path fill="none" stroke="midnightblue" d="M714.45,-580.96C690.27,-573.18 663.61,-561.66 643,-545 593.02,-504.6 561.11,-430.55 551.26,-405.25"/>
<polygon fill="midnightblue" stroke="midnightblue" points="713.7,-584.39 724.28,-583.97 715.74,-577.69 713.7,-584.39"/>
</g>
<!-- Node29 -->
<g id="node29" class="node">
<title>Node29</title>
<g id="a_node29"><a xlink:href="node__operation__interface_8h.html" target="_top" xlink:title=" ">
<polygon fill="white" stroke="black" points="396.5,-447.5 396.5,-477.5 551.5,-477.5 551.5,-447.5 396.5,-447.5"/>
<text text-anchor="start" x="404.5" y="-465.5" font-family="Helvetica,sans-Serif" font-size="10.00">src/node/rpc/node_operation</text>
<text text-anchor="middle" x="474" y="-454.5" font-family="Helvetica,sans-Serif" font-size="10.00">_interface.h</text>
</a>
</g>
</g>
<!-- Node1&#45;&gt;Node29 -->
<g id="edge54" class="edge">
<title>Node1&#45;&gt;Node29</title>
<path fill="none" stroke="midnightblue" d="M714.34,-584.76C676.2,-576.85 627.42,-564.11 587,-545 548.95,-527.01 510.42,-495.82 489.64,-477.69"/>
<polygon fill="midnightblue" stroke="midnightblue" points="713.81,-588.22 724.3,-586.76 715.19,-581.36 713.81,-588.22"/>
</g>
<!-- Node30 -->
<g id="node30" class="node">
<title>Node30</title>
<g id="a_node30"><a xlink:href="genesis__gen_8h.html" target="_top" xlink:title=" ">
<polygon fill="white" stroke="black" points="1503,-380.5 1503,-410.5 1613,-410.5 1613,-380.5 1503,-380.5"/>
<text text-anchor="start" x="1511" y="-398.5" font-family="Helvetica,sans-Serif" font-size="10.00">src/service/genesis</text>
<text text-anchor="middle" x="1558" y="-387.5" font-family="Helvetica,sans-Serif" font-size="10.00">_gen.h</text>
</a>
</g>
</g>
<!-- Node1&#45;&gt;Node30 -->
<g id="edge59" class="edge">
<title>Node1&#45;&gt;Node30</title>
<path fill="none" stroke="midnightblue" d="M841.55,-579.29C990.96,-541.17 1362.45,-446.39 1502.97,-410.54"/>
<polygon fill="midnightblue" stroke="midnightblue" points="840.44,-575.96 831.61,-581.82 842.17,-582.74 840.44,-575.96"/>
</g>
<!-- Node33 -->
<g id="node33" class="node">
<title>Node33</title>
<g id="a_node33"><a xlink:href="network__tables_8h.html" target="_top" xlink:title=" ">
<polygon fill="white" stroke="black" points="1674,-447.5 1674,-477.5 1786,-477.5 1786,-447.5 1674,-447.5"/>
<text text-anchor="start" x="1682" y="-465.5" font-family="Helvetica,sans-Serif" font-size="10.00">src/service/network</text>
<text text-anchor="middle" x="1730" y="-454.5" font-family="Helvetica,sans-Serif" font-size="10.00">_tables.h</text>
</a>
</g>
</g>
<!-- Node1&#45;&gt;Node33 -->
<g id="edge68" class="edge">
<title>Node1&#45;&gt;Node33</title>
<path fill="none" stroke="midnightblue" d="M841.61,-590.77C937.39,-583.28 1124.26,-567.21 1282,-545 1423.69,-525.05 1588.97,-492.57 1673.66,-475.25"/>
<polygon fill="midnightblue" stroke="midnightblue" points="841.2,-587.29 831.51,-591.56 841.75,-594.27 841.2,-587.29"/>
</g>
<!-- Node3&#45;&gt;Node2 -->
<g id="edge4" class="edge">
<title>Node3&#45;&gt;Node2</title>
<path fill="none" stroke="midnightblue" d="M782.54,-445.32C759.27,-419.3 713.91,-368.55 691.77,-343.78"/>
<polygon fill="midnightblue" stroke="midnightblue" points="779.98,-447.72 789.26,-452.84 785.2,-443.05 779.98,-447.72"/>
</g>
<!-- Node4 -->
<g id="node4" class="node">
<title>Node4</title>
<g id="a_node4"><a xlink:href="nobuiltins_8cpp.html" target="_top" xlink:title=" ">
<polygon fill="white" stroke="black" points="799.5,-313.5 799.5,-343.5 934.5,-343.5 934.5,-313.5 799.5,-313.5"/>
<text text-anchor="start" x="807.5" y="-331.5" font-family="Helvetica,sans-Serif" font-size="10.00">samples/apps/nobuiltins</text>
<text text-anchor="middle" x="867" y="-320.5" font-family="Helvetica,sans-Serif" font-size="10.00">/nobuiltins.cpp</text>
</a>
</g>
</g>
<!-- Node3&#45;&gt;Node4 -->
<g id="edge3" class="edge">
<title>Node3&#45;&gt;Node4</title>
<path fill="none" stroke="midnightblue" d="M806.31,-443.95C820.31,-417.55 846.52,-368.12 859.43,-343.78"/>
<polygon fill="midnightblue" stroke="midnightblue" points="803.19,-442.36 801.59,-452.84 809.37,-445.64 803.19,-442.36"/>
</g>
<!-- Node5 -->
<g id="node5" class="node">
<title>Node5</title>
<g id="a_node5"><a xlink:href="wrap_8cpp.html" target="_top" xlink:title=" ">
<polygon fill="white" stroke="black" points="743.5,-185 743.5,-204 832.5,-204 832.5,-185 743.5,-185"/>
<text text-anchor="middle" x="788" y="-192" font-family="Helvetica,sans-Serif" font-size="10.00">src/js/wrap.cpp</text>
</a>
</g>
</g>
<!-- Node3&#45;&gt;Node5 -->
<g id="edge5" class="edge">
<title>Node3&#45;&gt;Node5</title>
<path fill="none" stroke="midnightblue" d="M797.36,-442.5C796.84,-410.37 790.71,-345.62 752,-313 651.18,-228.03 377.22,-346.13 463,-246 498.57,-204.48 662.78,-196.82 743.28,-195.59"/>
<polygon fill="midnightblue" stroke="midnightblue" points="793.86,-442.74 797.35,-452.74 800.86,-442.75 793.86,-442.74"/>
</g>
<!-- Node6 -->
<g id="node6" class="node">
<title>Node6</title>
<g id="a_node6"><a xlink:href="resharing_8h.html" target="_top" xlink:title=" ">
<polygon fill="white" stroke="black" points="1414,-319 1414,-338 1530,-338 1530,-319 1414,-319"/>
<text text-anchor="middle" x="1472" y="-326" font-family="Helvetica,sans-Serif" font-size="10.00">src/node/resharing.h</text>
</a>
</g>
</g>
<!-- Node3&#45;&gt;Node6 -->
<g id="edge6" class="edge">
<title>Node3&#45;&gt;Node6</title>
<path fill="none" stroke="midnightblue" d="M853.18,-451.07C960.54,-431.06 1202.21,-385.53 1405,-344 1414.21,-342.11 1424.12,-340.01 1433.41,-338"/>
<polygon fill="midnightblue" stroke="midnightblue" points="852.4,-447.66 843.21,-452.93 853.69,-454.54 852.4,-447.66"/>
</g>
<!-- Node11 -->
<g id="node11" class="node">
<title>Node11</title>
<g id="a_node11"><a xlink:href="member__frontend_8h.html" target="_top" xlink:title=" ">
<polygon fill="white" stroke="black" points="472,-246.5 472,-276.5 592,-276.5 592,-246.5 472,-246.5"/>
<text text-anchor="start" x="480" y="-264.5" font-family="Helvetica,sans-Serif" font-size="10.00">src/node/rpc/member</text>
<text text-anchor="middle" x="532" y="-253.5" font-family="Helvetica,sans-Serif" font-size="10.00">_frontend.h</text>
</a>
</g>
</g>
<!-- Node3&#45;&gt;Node11 -->
<g id="edge12" class="edge">
<title>Node3&#45;&gt;Node11</title>
<path fill="none" stroke="midnightblue" d="M770.6,-448.33C732.26,-428.55 659.86,-388.69 606,-344 580.85,-323.13 556.28,-293.78 542.74,-276.59"/>
<polygon fill="midnightblue" stroke="midnightblue" points="769.09,-451.49 779.59,-452.92 772.27,-445.26 769.09,-451.49"/>
</g>
<!-- Node3&#45;&gt;Node12 -->
<g id="edge14" class="edge">
<title>Node3&#45;&gt;Node12</title>
<path fill="none" stroke="midnightblue" d="M826.74,-448.95C857.23,-436.08 903.84,-416.4 930.47,-405.17"/>
<polygon fill="midnightblue" stroke="midnightblue" points="825.3,-445.76 817.45,-452.87 828.02,-452.2 825.3,-445.76"/>
</g>
<!-- Node7 -->
<g id="node7" class="node">
<title>Node7</title>
<g id="a_node7"><a xlink:href="node__state_8h.html" target="_top" xlink:title=" ">
<polygon fill="white" stroke="black" points="1691,-185 1691,-204 1815,-204 1815,-185 1691,-185"/>
<text text-anchor="middle" x="1753" y="-192" font-family="Helvetica,sans-Serif" font-size="10.00">src/node/node_state.h</text>
</a>
</g>
</g>
<!-- Node6&#45;&gt;Node7 -->
<g id="edge7" class="edge">
<title>Node6&#45;&gt;Node7</title>
<path fill="none" stroke="midnightblue" d="M1524.26,-316.9C1589,-303.62 1691.75,-281.99 1699,-277 1726.13,-258.35 1743.15,-221.16 1749.81,-204.24"/>
<polygon fill="midnightblue" stroke="midnightblue" points="1523.31,-313.52 1514.21,-318.96 1524.71,-320.38 1523.31,-313.52"/>
</g>
<!-- Node8 -->
<g id="node8" class="node">
<title>Node8</title>
<g id="a_node8"><a xlink:href="enclave_2enclave_8h.html" target="_top" xlink:title=" ">
<polygon fill="white" stroke="black" points="1225,-56.5 1225,-75.5 1347,-75.5 1347,-56.5 1225,-56.5"/>
<text text-anchor="middle" x="1286" y="-63.5" font-family="Helvetica,sans-Serif" font-size="10.00">src/enclave/enclave.h</text>
</a>
</g>
</g>
<!-- Node7&#45;&gt;Node8 -->
<g id="edge8" class="edge">
<title>Node7&#45;&gt;Node8</title>
<path fill="none" stroke="midnightblue" d="M1752.62,-174.82C1751.15,-155.86 1745.71,-127.19 1727,-112 1698.13,-88.57 1461.54,-74.87 1347.3,-69.56"/>
<polygon fill="midnightblue" stroke="midnightblue" points="1749.13,-175.11 1753.1,-184.93 1756.12,-174.78 1749.13,-175.11"/>
</g>
<!-- Node10 -->
<g id="node10" class="node">
<title>Node10</title>
<g id="a_node10"><a xlink:href="gov__effects_8h.html" target="_top" xlink:title=" ">
<polygon fill="white" stroke="black" points="1574,-118 1574,-137 1718,-137 1718,-118 1574,-118"/>
<text text-anchor="middle" x="1646" y="-125" font-family="Helvetica,sans-Serif" font-size="10.00">src/node/rpc/gov_effects.h</text>
</a>
</g>
</g>
<!-- Node7&#45;&gt;Node10 -->
<g id="edge10" class="edge">
<title>Node7&#45;&gt;Node10</title>
<path fill="none" stroke="midnightblue" d="M1729.86,-179.44C1708.67,-166.57 1677.98,-147.93 1660.2,-137.13"/>
<polygon fill="midnightblue" stroke="midnightblue" points="1728.21,-182.53 1738.57,-184.73 1731.84,-176.55 1728.21,-182.53"/>
</g>
<!-- Node9 -->
<g id="node9" class="node">
<title>Node9</title>
<g id="a_node9"><a xlink:href="enclave_2main_8cpp.html" target="_top" xlink:title=" ">
<polygon fill="white" stroke="black" points="1226,-0.5 1226,-19.5 1346,-19.5 1346,-0.5 1226,-0.5"/>
<text text-anchor="middle" x="1286" y="-7.5" font-family="Helvetica,sans-Serif" font-size="10.00">src/enclave/main.cpp</text>
</a>
</g>
</g>
<!-- Node8&#45;&gt;Node9 -->
<g id="edge9" class="edge">
<title>Node8&#45;&gt;Node9</title>
<path fill="none" stroke="midnightblue" d="M1286,-45.8C1286,-36.91 1286,-26.78 1286,-19.75"/>
<polygon fill="midnightblue" stroke="midnightblue" points="1282.5,-46.08 1286,-56.08 1289.5,-46.08 1282.5,-46.08"/>
</g>
<!-- Node10&#45;&gt;Node8 -->
<g id="edge11" class="edge">
<title>Node10&#45;&gt;Node8</title>
<path fill="none" stroke="midnightblue" d="M1584.47,-116.33C1514.84,-104.82 1402.67,-86.28 1337.48,-75.51"/>
<polygon fill="midnightblue" stroke="midnightblue" points="1583.98,-119.8 1594.42,-117.98 1585.13,-112.89 1583.98,-119.8"/>
</g>
<!-- Node11&#45;&gt;Node8 -->
<g id="edge13" class="edge">
<title>Node11&#45;&gt;Node8</title>
<path fill="none" stroke="midnightblue" d="M571.2,-242.28C611.54,-224.13 676.57,-196.51 735,-179 910.09,-126.53 1123.84,-90.9 1226.01,-75.54"/>
<polygon fill="midnightblue" stroke="midnightblue" points="569.66,-239.14 561.99,-246.46 572.55,-245.52 569.66,-239.14"/>
</g>
<!-- Node12&#45;&gt;Node2 -->
<g id="edge16" class="edge">
<title>Node12&#45;&gt;Node2</title>
<path fill="none" stroke="midnightblue" d="M905.17,-383.55C859.13,-372.55 788.01,-355.55 737.83,-343.56"/>
<polygon fill="midnightblue" stroke="midnightblue" points="904.62,-387.02 915.16,-385.94 906.25,-380.21 904.62,-387.02"/>
</g>
<!-- Node12&#45;&gt;Node4 -->
<g id="edge15" class="edge">
<title>Node12&#45;&gt;Node4</title>
<path fill="none" stroke="midnightblue" d="M931.67,-379.54C917.69,-368.73 898.92,-354.2 885.21,-343.59"/>
<polygon fill="midnightblue" stroke="midnightblue" points="929.62,-382.38 939.67,-385.73 933.9,-376.85 929.62,-382.38"/>
</g>
<!-- Node12&#45;&gt;Node6 -->
<g id="edge18" class="edge">
<title>Node12&#45;&gt;Node6</title>
<path fill="none" stroke="midnightblue" d="M1035.27,-387.73C1126.68,-379.77 1276.75,-364.95 1405,-344 1415.1,-342.35 1425.98,-340.17 1435.97,-338.01"/>
<polygon fill="midnightblue" stroke="midnightblue" points="1034.9,-384.24 1025.24,-388.59 1035.5,-391.22 1034.9,-384.24"/>
</g>
<!-- Node12&#45;&gt;Node7 -->
<g id="edge17" class="edge">
<title>Node12&#45;&gt;Node7</title>
<path fill="none" stroke="midnightblue" d="M1017.5,-384.21C1062.11,-376.12 1121.69,-363.02 1172,-344 1198.97,-333.8 1201.64,-322.11 1229,-313 1334.26,-277.95 1368.71,-305.22 1476,-277 1512.88,-267.3 1519.69,-257.64 1556,-246 1610.13,-228.64 1674.09,-213.14 1714.11,-204.03"/>
<polygon fill="midnightblue" stroke="midnightblue" points="1016.88,-380.76 1007.64,-385.96 1018.1,-387.65 1016.88,-380.76"/>
</g>
<!-- Node12&#45;&gt;Node11 -->
<g id="edge19" class="edge">
<title>Node12&#45;&gt;Node11</title>
<path fill="none" stroke="midnightblue" d="M955.41,-376.04C958.65,-357.49 960.06,-329.36 944,-313 890.32,-258.3 676.71,-288.9 601,-277 598.1,-276.54 595.13,-276.05 592.14,-275.52"/>
<polygon fill="midnightblue" stroke="midnightblue" points="951.97,-375.43 953.36,-385.93 958.82,-376.85 951.97,-375.43"/>
</g>
<!-- Node13 -->
<g id="node13" class="node">
<title>Node13</title>
<g id="a_node13"><a xlink:href="node__frontend_8h.html" target="_top" xlink:title=" ">
<polygon fill="white" stroke="black" points="1238,-319 1238,-338 1396,-338 1396,-319 1238,-319"/>
<text text-anchor="middle" x="1317" y="-326" font-family="Helvetica,sans-Serif" font-size="10.00">src/node/rpc/node_frontend.h</text>
</a>
</g>
</g>
<!-- Node12&#45;&gt;Node13 -->
<g id="edge20" class="edge">
<title>Node12&#45;&gt;Node13</title>
<path fill="none" stroke="midnightblue" d="M1009.47,-384.12C1081.41,-371.34 1202.18,-349.89 1268.96,-338.03"/>
<polygon fill="midnightblue" stroke="midnightblue" points="1008.46,-380.74 999.22,-385.94 1009.68,-387.63 1008.46,-380.74"/>
</g>
<!-- Node13&#45;&gt;Node8 -->
<g id="edge21" class="edge">
<title>Node13&#45;&gt;Node8</title>
<path fill="none" stroke="midnightblue" d="M1383.32,-316C1405.43,-308.67 1427.78,-296.66 1441,-277 1448.69,-265.57 1445.81,-258.91 1441,-246 1411.42,-166.65 1329.08,-99.1 1298.04,-75.74"/>
<polygon fill="midnightblue" stroke="midnightblue" points="1382.11,-312.71 1373.55,-318.96 1384.13,-319.41 1382.11,-312.71"/>
</g>
<!-- Node14 -->
<g id="node14" class="node">
<title>Node14</title>
<g id="a_node14"><a xlink:href="jwt__key__auto__refresh_8h.html" target="_top" xlink:title=" ">
<polygon fill="white" stroke="black" points="1564.5,-246.5 1564.5,-276.5 1689.5,-276.5 1689.5,-246.5 1564.5,-246.5"/>
<text text-anchor="start" x="1572.5" y="-264.5" font-family="Helvetica,sans-Serif" font-size="10.00">src/node/jwt_key_auto</text>
<text text-anchor="middle" x="1627" y="-253.5" font-family="Helvetica,sans-Serif" font-size="10.00">_refresh.h</text>
</a>
</g>
</g>
<!-- Node13&#45;&gt;Node14 -->
<g id="edge22" class="edge">
<title>Node13&#45;&gt;Node14</title>
<path fill="none" stroke="midnightblue" d="M1367.84,-316.84C1421.59,-305.57 1506.46,-287.77 1564.32,-275.64"/>
<polygon fill="midnightblue" stroke="midnightblue" points="1366.91,-313.46 1357.85,-318.94 1368.35,-320.31 1366.91,-313.46"/>
</g>
<!-- Node14&#45;&gt;Node7 -->
<g id="edge23" class="edge">
<title>Node14&#45;&gt;Node7</title>
<path fill="none" stroke="midnightblue" d="M1663.24,-241.8C1687.4,-229.34 1718,-213.56 1736.51,-204.01"/>
<polygon fill="midnightblue" stroke="midnightblue" points="1661.62,-238.7 1654.34,-246.4 1664.83,-244.92 1661.62,-238.7"/>
</g>
<!-- Node15&#45;&gt;Node3 -->
<g id="edge25" class="edge">
<title>Node15&#45;&gt;Node3</title>
<path fill="none" stroke="midnightblue" d="M814.21,-504.94C809.48,-493.54 804.08,-480.55 800.61,-472.19"/>
<polygon fill="midnightblue" stroke="midnightblue" points="811.07,-506.5 818.14,-514.4 817.54,-503.82 811.07,-506.5"/>
</g>
<!-- Node16&#45;&gt;Node5 -->
<g id="edge27" class="edge">
<title>Node16&#45;&gt;Node5</title>
<path fill="none" stroke="midnightblue" d="M522.97,-380.93C477.16,-354.43 388.17,-294.14 430,-246 470.09,-199.86 656.37,-194.7 743.21,-194.87"/>
<polygon fill="midnightblue" stroke="midnightblue" points="521.35,-384.03 531.77,-385.92 524.8,-377.94 521.35,-384.03"/>
</g>
<!-- Node16&#45;&gt;Node11 -->
<g id="edge47" class="edge">
<title>Node16&#45;&gt;Node11</title>
<path fill="none" stroke="midnightblue" d="M545.74,-375.89C542.51,-349.24 536.64,-300.8 533.73,-276.78"/>
<polygon fill="midnightblue" stroke="midnightblue" points="542.27,-376.33 546.95,-385.84 549.22,-375.49 542.27,-376.33"/>
</g>
<!-- Node16&#45;&gt;Node13 -->
<g id="edge51" class="edge">
<title>Node16&#45;&gt;Node13</title>
<path fill="none" stroke="midnightblue" d="M638.82,-387.69C760.33,-378.46 982.49,-361.14 1172,-344 1193.29,-342.07 1216.32,-339.84 1237.63,-337.71"/>
<polygon fill="midnightblue" stroke="midnightblue" points="638.52,-384.2 628.82,-388.45 639.05,-391.18 638.52,-384.2"/>
</g>
<!-- Node17 -->
<g id="node17" class="node">
<title>Node17</title>
<g id="a_node17"><a xlink:href="wrap_8h.html" target="_top" xlink:title=" ">
<polygon fill="white" stroke="black" points="1085,-319 1085,-338 1163,-338 1163,-319 1085,-319"/>
<text text-anchor="middle" x="1124" y="-326" font-family="Helvetica,sans-Serif" font-size="10.00">src/js/wrap.h</text>
</a>
</g>
</g>
<!-- Node16&#45;&gt;Node17 -->
<g id="edge28" class="edge">
<title>Node16&#45;&gt;Node17</title>
<path fill="none" stroke="midnightblue" d="M633.65,-384.83C760.35,-370.54 992.65,-344.32 1084.82,-333.92"/>
<polygon fill="midnightblue" stroke="midnightblue" points="633.14,-381.37 623.6,-385.97 633.93,-388.33 633.14,-381.37"/>
</g>
<!-- Node24 -->
<g id="node24" class="node">
<title>Node24</title>
<g id="a_node24"><a xlink:href="historical__queries_8h.html" target="_top" xlink:title=" ">
<polygon fill="white" stroke="black" points="139,-179.5 139,-209.5 245,-209.5 245,-179.5 139,-179.5"/>
<text text-anchor="start" x="147" y="-197.5" font-family="Helvetica,sans-Serif" font-size="10.00">src/node/historical</text>
<text text-anchor="middle" x="192" y="-186.5" font-family="Helvetica,sans-Serif" font-size="10.00">_queries.h</text>
</a>
</g>
</g>
<!-- Node16&#45;&gt;Node24 -->
<g id="edge43" class="edge">
<title>Node16&#45;&gt;Node24</title>
<path fill="none" stroke="midnightblue" d="M456.78,-389.49C378.45,-383.42 273.24,-370.52 241,-344 199.49,-309.85 192.88,-239.69 192.01,-209.66"/>
<polygon fill="midnightblue" stroke="midnightblue" points="456.92,-393.01 467.16,-390.26 457.44,-386.03 456.92,-393.01"/>
</g>
<!-- Node26 -->
<g id="node26" class="node">
<title>Node26</title>
<g id="a_node26"><a xlink:href="network__identity__subsystem_8h.html" target="_top" xlink:title=" ">
<polygon fill="white" stroke="black" points="250.5,-313.5 250.5,-343.5 377.5,-343.5 377.5,-313.5 250.5,-313.5"/>
<text text-anchor="start" x="258.5" y="-331.5" font-family="Helvetica,sans-Serif" font-size="10.00">src/node/rpc/network</text>
<text text-anchor="middle" x="314" y="-320.5" font-family="Helvetica,sans-Serif" font-size="10.00">_identity_subsystem.h</text>
</a>
</g>
</g>
<!-- Node16&#45;&gt;Node26 -->
<g id="edge48" class="edge">
<title>Node16&#45;&gt;Node26</title>
<path fill="none" stroke="midnightblue" d="M507.06,-383.13C467.39,-372.11 407.13,-355.37 364.5,-343.53"/>
<polygon fill="midnightblue" stroke="midnightblue" points="506.35,-386.56 516.93,-385.87 508.23,-379.82 506.35,-386.56"/>
</g>
<!-- Node28 -->
<g id="node28" class="node">
<title>Node28</title>
<g id="a_node28"><a xlink:href="node__operation_8h.html" target="_top" xlink:title=" ">
<polygon fill="white" stroke="black" points="0,-319 0,-338 164,-338 164,-319 0,-319"/>
<text text-anchor="middle" x="82" y="-326" font-family="Helvetica,sans-Serif" font-size="10.00">src/node/rpc/node_operation.h</text>
</a>
</g>
</g>
<!-- Node16&#45;&gt;Node28 -->
<g id="edge52" class="edge">
<title>Node16&#45;&gt;Node28</title>
<path fill="none" stroke="midnightblue" d="M473.21,-384.61C398.44,-374.65 280.2,-358.69 178,-344 164.9,-342.12 150.81,-340.03 137.57,-338.03"/>
<polygon fill="midnightblue" stroke="midnightblue" points="473.09,-388.12 483.46,-385.97 474.01,-381.19 473.09,-388.12"/>
</g>
<!-- Node17&#45;&gt;Node5 -->
<g id="edge40" class="edge">
<title>Node17&#45;&gt;Node5</title>
<path fill="none" stroke="midnightblue" d="M1161.42,-315.64C1201.14,-301.17 1254.9,-275.03 1229,-246 1202.9,-216.74 939.63,-202.09 832.74,-197.31"/>
<polygon fill="midnightblue" stroke="midnightblue" points="1160.2,-312.36 1151.93,-318.97 1162.52,-318.96 1160.2,-312.36"/>
</g>
<!-- Node17&#45;&gt;Node7 -->
<g id="edge41" class="edge">
<title>Node17&#45;&gt;Node7</title>
<path fill="none" stroke="midnightblue" d="M1173.08,-317.25C1180.74,-315.76 1188.58,-314.29 1196,-313 1304.43,-294.13 1339.01,-318.36 1441,-277 1462.83,-268.15 1462.35,-255.29 1484,-246 1551.25,-217.16 1634.94,-204.74 1690.95,-199.43"/>
<polygon fill="midnightblue" stroke="midnightblue" points="1172.29,-313.84 1163.17,-319.22 1173.66,-320.71 1172.29,-313.84"/>
</g>
<!-- Node17&#45;&gt;Node8 -->
<g id="edge30" class="edge">
<title>Node17&#45;&gt;Node8</title>
<path fill="none" stroke="midnightblue" d="M1157.75,-315.41C1191.77,-302.92 1240.07,-284.28 1246,-277 1296.85,-214.54 1290.23,-107.08 1287.04,-75.79"/>
<polygon fill="midnightblue" stroke="midnightblue" points="1156.35,-312.19 1148.15,-318.91 1158.75,-318.77 1156.35,-312.19"/>
</g>
<!-- Node17&#45;&gt;Node11 -->
<g id="edge42" class="edge">
<title>Node17&#45;&gt;Node11</title>
<path fill="none" stroke="midnightblue" d="M1074.63,-318.94C1061.16,-316.8 1046.54,-314.64 1033,-313 841.73,-289.83 791.64,-304.86 601,-277 598.09,-276.58 595.12,-276.1 592.13,-275.59"/>
<polygon fill="midnightblue" stroke="midnightblue" points="1074.24,-322.43 1084.67,-320.57 1075.36,-315.52 1074.24,-322.43"/>
</g>
<!-- Node18 -->
<g id="node18" class="node">
<title>Node18</title>
<g id="a_node18"><a xlink:href="js__generic__base_8cpp.html" target="_top" xlink:title=" ">
<polygon fill="white" stroke="black" points="1314,-246.5 1314,-276.5 1432,-276.5 1432,-246.5 1314,-246.5"/>
<text text-anchor="start" x="1322" y="-264.5" font-family="Helvetica,sans-Serif" font-size="10.00">src/apps/js_generic</text>
<text text-anchor="middle" x="1373" y="-253.5" font-family="Helvetica,sans-Serif" font-size="10.00">/js_generic_base.cpp</text>
</a>
</g>
</g>
<!-- Node17&#45;&gt;Node18 -->
<g id="edge29" class="edge">
<title>Node17&#45;&gt;Node18</title>
<path fill="none" stroke="midnightblue" d="M1166.49,-316.41C1208.65,-305.4 1273.4,-288.5 1319.14,-276.56"/>
<polygon fill="midnightblue" stroke="midnightblue" points="1165.6,-313.02 1156.81,-318.94 1167.37,-319.8 1165.6,-313.02"/>
</g>
<!-- Node19 -->
<g id="node19" class="node">
<title>Node19</title>
<g id="a_node19"><a xlink:href="js_2consensus_8cpp.html" target="_top" xlink:title=" ">
<polygon fill="white" stroke="black" points="610,-252 610,-271 726,-271 726,-252 610,-252"/>
<text text-anchor="middle" x="668" y="-259" font-family="Helvetica,sans-Serif" font-size="10.00">src/js/consensus.cpp</text>
</a>
</g>
</g>
<!-- Node17&#45;&gt;Node19 -->
<g id="edge31" class="edge">
<title>Node17&#45;&gt;Node19</title>
<path fill="none" stroke="midnightblue" d="M1074.59,-319.28C1061.11,-317.13 1046.51,-314.89 1033,-313 900.88,-294.5 866.56,-299.13 735,-277 725.02,-275.32 714.29,-273.16 704.39,-271.02"/>
<polygon fill="midnightblue" stroke="midnightblue" points="1074.2,-322.76 1084.63,-320.89 1075.31,-315.85 1074.2,-322.76"/>
</g>
<!-- Node20 -->
<g id="node20" class="node">
<title>Node20</title>
<g id="a_node20"><a xlink:href="conv_8cpp.html" target="_top" xlink:title=" ">
<polygon fill="white" stroke="black" points="744,-252 744,-271 832,-271 832,-252 744,-252"/>
<text text-anchor="middle" x="788" y="-259" font-family="Helvetica,sans-Serif" font-size="10.00">src/js/conv.cpp</text>
</a>
</g>
</g>
<!-- Node17&#45;&gt;Node20 -->
<g id="edge33" class="edge">
<title>Node17&#45;&gt;Node20</title>
<path fill="none" stroke="midnightblue" d="M1074.76,-319.27C1005.97,-307.67 884.65,-286.84 841,-277 833.28,-275.26 824.99,-273.12 817.32,-271.03"/>
<polygon fill="midnightblue" stroke="midnightblue" points="1074.48,-322.77 1084.92,-320.98 1075.64,-315.87 1074.48,-322.77"/>
</g>
<!-- Node21 -->
<g id="node21" class="node">
<title>Node21</title>
<g id="a_node21"><a xlink:href="js_2crypto_8cpp.html" target="_top" xlink:title=" ">
<polygon fill="white" stroke="black" points="850,-252 850,-271 946,-271 946,-252 850,-252"/>
<text text-anchor="middle" x="898" y="-259" font-family="Helvetica,sans-Serif" font-size="10.00">src/js/crypto.cpp</text>
</a>
</g>
</g>
<!-- Node17&#45;&gt;Node21 -->
<g id="edge35" class="edge">
<title>Node17&#45;&gt;Node21</title>
<path fill="none" stroke="midnightblue" d="M1084.33,-316.09C1039.62,-303.23 967.95,-282.62 927.78,-271.06"/>
<polygon fill="midnightblue" stroke="midnightblue" points="1083.41,-319.47 1093.99,-318.87 1085.35,-312.74 1083.41,-319.47"/>
</g>
<!-- Node22 -->
<g id="node22" class="node">
<title>Node22</title>
<g id="a_node22"><a xlink:href="js_2historical_8cpp.html" target="_top" xlink:title=" ">
<polygon fill="white" stroke="black" points="964,-252 964,-271 1074,-271 1074,-252 964,-252"/>
<text text-anchor="middle" x="1019" y="-259" font-family="Helvetica,sans-Serif" font-size="10.00">src/js/historical.cpp</text>
</a>
</g>
</g>
<!-- Node17&#45;&gt;Node22 -->
<g id="edge37" class="edge">
<title>Node17&#45;&gt;Node22</title>
<path fill="none" stroke="midnightblue" d="M1101.29,-313.44C1080.5,-300.57 1050.38,-281.93 1032.94,-271.13"/>
<polygon fill="midnightblue" stroke="midnightblue" points="1099.49,-316.45 1109.84,-318.73 1103.18,-310.49 1099.49,-316.45"/>
</g>
<!-- Node23 -->
<g id="node23" class="node">
<title>Node23</title>
<g id="a_node23"><a xlink:href="openenclave_8cpp.html" target="_top" xlink:title=" ">
<polygon fill="white" stroke="black" points="1092,-252 1092,-271 1220,-271 1220,-252 1092,-252"/>
<text text-anchor="middle" x="1156" y="-259" font-family="Helvetica,sans-Serif" font-size="10.00">src/js/openenclave.cpp</text>
</a>
</g>
</g>
<!-- Node17&#45;&gt;Node23 -->
<g id="edge39" class="edge">
<title>Node17&#45;&gt;Node23</title>
<path fill="none" stroke="midnightblue" d="M1132.78,-309.66C1138.95,-297.13 1146.94,-280.91 1151.75,-271.13"/>
<polygon fill="midnightblue" stroke="midnightblue" points="1129.59,-308.22 1128.32,-318.73 1135.87,-311.31 1129.59,-308.22"/>
</g>
<!-- Node19&#45;&gt;Node5 -->
<g id="edge32" class="edge">
<title>Node19&#45;&gt;Node5</title>
<path fill="none" stroke="midnightblue" d="M693,-246.96C716.79,-234.07 751.87,-215.07 772.07,-204.13"/>
<polygon fill="midnightblue" stroke="midnightblue" points="691.31,-243.89 684.18,-251.73 694.64,-250.05 691.31,-243.89"/>
</g>
<!-- Node20&#45;&gt;Node5 -->
<g id="edge34" class="edge">
<title>Node20&#45;&gt;Node5</title>
<path fill="none" stroke="midnightblue" d="M788,-241.54C788,-229.17 788,-213.62 788,-204.13"/>
<polygon fill="midnightblue" stroke="midnightblue" points="784.5,-241.73 788,-251.73 791.5,-241.73 784.5,-241.73"/>
</g>
<!-- Node21&#45;&gt;Node5 -->
<g id="edge36" class="edge">
<title>Node21&#45;&gt;Node5</title>
<path fill="none" stroke="midnightblue" d="M874.5,-246.62C852.71,-233.74 820.96,-214.98 802.6,-204.13"/>
<polygon fill="midnightblue" stroke="midnightblue" points="872.78,-249.66 883.16,-251.73 876.34,-243.63 872.78,-249.66"/>
</g>
<!-- Node22&#45;&gt;Node5 -->
<g id="edge38" class="edge">
<title>Node22&#45;&gt;Node5</title>
<path fill="none" stroke="midnightblue" d="M978.45,-249.09C932.76,-236.23 859.5,-215.62 818.43,-204.06"/>
<polygon fill="midnightblue" stroke="midnightblue" points="977.75,-252.53 988.32,-251.87 979.65,-245.79 977.75,-252.53"/>
</g>
<!-- Node24&#45;&gt;Node8 -->
<g id="edge44" class="edge">
<title>Node24&#45;&gt;Node8</title>
<path fill="none" stroke="midnightblue" d="M163.91,-173.1C143.13,-155.63 121.26,-130.45 139,-112 176.88,-72.61 992.12,-67.68 1224.61,-67.08"/>
<polygon fill="midnightblue" stroke="midnightblue" points="161.75,-175.86 171.74,-179.39 166.13,-170.4 161.75,-175.86"/>
</g>
<!-- Node25 -->
<g id="node25" class="node">
<title>Node25</title>
<g id="a_node25"><a xlink:href="historical__transaction__fetcher_8h.html" target="_top" xlink:title=" ">
<polygon fill="white" stroke="black" points="148.5,-112.5 148.5,-142.5 273.5,-142.5 273.5,-112.5 148.5,-112.5"/>
<text text-anchor="start" x="156.5" y="-130.5" font-family="Helvetica,sans-Serif" font-size="10.00">src/indexing/historical</text>
<text text-anchor="middle" x="211" y="-119.5" font-family="Helvetica,sans-Serif" font-size="10.00">_transaction_fetcher.h</text>
</a>
</g>
</g>
<!-- Node24&#45;&gt;Node25 -->
<g id="edge45" class="edge">
<title>Node24&#45;&gt;Node25</title>
<path fill="none" stroke="midnightblue" d="M198.96,-169.7C201.62,-160.59 204.57,-150.49 206.89,-142.58"/>
<polygon fill="midnightblue" stroke="midnightblue" points="195.57,-168.82 196.12,-179.4 202.29,-170.78 195.57,-168.82"/>
</g>
<!-- Node25&#45;&gt;Node8 -->
<g id="edge46" class="edge">
<title>Node25&#45;&gt;Node8</title>
<path fill="none" stroke="midnightblue" d="M283.53,-112.55C285.03,-112.36 286.52,-112.17 288,-112 640.96,-71.02 1068.17,-66.81 1224.72,-66.76"/>
<polygon fill="midnightblue" stroke="midnightblue" points="282.91,-109.1 273.5,-113.97 283.89,-116.03 282.91,-109.1"/>
</g>
<!-- Node26&#45;&gt;Node8 -->
<g id="edge49" class="edge">
<title>Node26&#45;&gt;Node8</title>
<path fill="none" stroke="midnightblue" d="M280.42,-307.6C256.77,-291.07 232.1,-266.95 249,-246 426.04,-26.61 590.69,-156.96 869,-112 994.8,-91.68 1143.47,-78.11 1224.96,-71.56"/>
<polygon fill="midnightblue" stroke="midnightblue" points="278.75,-310.69 289.01,-313.33 282.63,-304.87 278.75,-310.69"/>
</g>
<!-- Node27 -->
<g id="node27" class="node">
<title>Node27</title>
<g id="a_node27"><a xlink:href="historical__queries__adapter_8cpp.html" target="_top" xlink:title=" ">
<polygon fill="white" stroke="black" points="258,-246.5 258,-276.5 378,-276.5 378,-246.5 258,-246.5"/>
<text text-anchor="start" x="266" y="-264.5" font-family="Helvetica,sans-Serif" font-size="10.00">src/node/historical</text>
<text text-anchor="middle" x="318" y="-253.5" font-family="Helvetica,sans-Serif" font-size="10.00">_queries_adapter.cpp</text>
</a>
</g>
</g>
<!-- Node26&#45;&gt;Node27 -->
<g id="edge50" class="edge">
<title>Node26&#45;&gt;Node27</title>
<path fill="none" stroke="midnightblue" d="M315.48,-303.4C316.04,-294.37 316.65,-284.41 317.13,-276.58"/>
<polygon fill="midnightblue" stroke="midnightblue" points="311.99,-303.2 314.87,-313.4 318.98,-303.63 311.99,-303.2"/>
</g>
<!-- Node28&#45;&gt;Node8 -->
<g id="edge53" class="edge">
<title>Node28&#45;&gt;Node8</title>
<path fill="none" stroke="midnightblue" d="M79.38,-308.53C74.66,-265.68 70.12,-161.34 129,-112 171.27,-76.58 991.65,-68.82 1224.72,-67.32"/>
<polygon fill="midnightblue" stroke="midnightblue" points="75.93,-309.18 80.63,-318.67 82.88,-308.32 75.93,-309.18"/>
</g>
<!-- Node29&#45;&gt;Node11 -->
<g id="edge55" class="edge">
<title>Node29&#45;&gt;Node11</title>
<path fill="none" stroke="midnightblue" d="M463.56,-438.1C457.65,-421.67 452.44,-399.27 458,-380 469.97,-338.54 501.38,-297.61 519.19,-276.74"/>
<polygon fill="midnightblue" stroke="midnightblue" points="460.33,-439.45 467.25,-447.48 466.85,-436.89 460.33,-439.45"/>
</g>
<!-- Node29&#45;&gt;Node16 -->
<g id="edge56" class="edge">
<title>Node29&#45;&gt;Node16</title>
<path fill="none" stroke="midnightblue" d="M497.71,-440.67C511.37,-428.67 527.83,-414.22 538.1,-405.19"/>
<polygon fill="midnightblue" stroke="midnightblue" points="495.26,-438.17 490.06,-447.4 499.88,-443.43 495.26,-438.17"/>
</g>
<!-- Node29&#45;&gt;Node28 -->
<g id="edge57" class="edge">
<title>Node29&#45;&gt;Node28</title>
<path fill="none" stroke="midnightblue" d="M422.74,-444.24C337.88,-415.67 171.28,-359.56 107.59,-338.12"/>
<polygon fill="midnightblue" stroke="midnightblue" points="421.83,-447.62 432.42,-447.5 424.06,-440.99 421.83,-447.62"/>
</g>
<!-- Node30&#45;&gt;Node7 -->
<g id="edge60" class="edge">
<title>Node30&#45;&gt;Node7</title>
<path fill="none" stroke="midnightblue" d="M1557.58,-370.15C1558.62,-352 1563.06,-327.89 1578,-313 1626.26,-264.91 1677.13,-323.41 1727,-277 1748.09,-257.37 1752.15,-220.69 1752.87,-204.07"/>
<polygon fill="midnightblue" stroke="midnightblue" points="1554.08,-370.19 1557.31,-380.28 1561.08,-370.38 1554.08,-370.19"/>
</g>
<!-- Node30&#45;&gt;Node11 -->
<g id="edge61" class="edge">
<title>Node30&#45;&gt;Node11</title>
<path fill="none" stroke="midnightblue" d="M1492.88,-391.11C1399.79,-385.48 1223.61,-371.96 1076,-344 1025.25,-334.39 1014.77,-322.47 964,-313 804.62,-283.27 761.23,-301.71 601,-277 598.1,-276.55 595.13,-276.06 592.14,-275.54"/>
<polygon fill="midnightblue" stroke="midnightblue" points="1492.81,-394.61 1503,-391.71 1493.22,-387.62 1492.81,-394.61"/>
</g>
<!-- Node30&#45;&gt;Node13 -->
<g id="edge62" class="edge">
<title>Node30&#45;&gt;Node13</title>
<path fill="none" stroke="midnightblue" d="M1496.19,-377.83C1449.03,-365.11 1385.99,-348.11 1348.62,-338.03"/>
<polygon fill="midnightblue" stroke="midnightblue" points="1495.44,-381.25 1506,-380.48 1497.26,-374.49 1495.44,-381.25"/>
</g>
<!-- Node31 -->
<g id="node31" class="node">
<title>Node31</title>
<g id="a_node31"><a xlink:href="secret__broadcast_8h.html" target="_top" xlink:title=" ">
<polygon fill="white" stroke="black" points="1749.5,-319 1749.5,-338 1902.5,-338 1902.5,-319 1749.5,-319"/>
<text text-anchor="middle" x="1826" y="-326" font-family="Helvetica,sans-Serif" font-size="10.00">src/node/secret_broadcast.h</text>
</a>
</g>
</g>
<!-- Node30&#45;&gt;Node31 -->
<g id="edge63" class="edge">
<title>Node30&#45;&gt;Node31</title>
<path fill="none" stroke="midnightblue" d="M1623.16,-378.7C1675.99,-365.88 1748.41,-348.32 1790.9,-338.01"/>
<polygon fill="midnightblue" stroke="midnightblue" points="1622.1,-375.35 1613.2,-381.11 1623.75,-382.16 1622.1,-375.35"/>
</g>
<!-- Node32 -->
<g id="node32" class="node">
<title>Node32</title>
<g id="a_node32"><a xlink:href="share__manager_8h.html" target="_top" xlink:title=" ">
<polygon fill="white" stroke="black" points="1586.5,-319 1586.5,-338 1731.5,-338 1731.5,-319 1586.5,-319"/>
<text text-anchor="middle" x="1659" y="-326" font-family="Helvetica,sans-Serif" font-size="10.00">src/node/share_manager.h</text>
</a>
</g>
</g>
<!-- Node30&#45;&gt;Node32 -->
<g id="edge65" class="edge">
<title>Node30&#45;&gt;Node32</title>
<path fill="none" stroke="midnightblue" d="M1588.34,-374.97C1607.49,-362.65 1631.27,-347.35 1645.78,-338.01"/>
<polygon fill="midnightblue" stroke="midnightblue" points="1586.43,-372.04 1579.92,-380.4 1590.22,-377.93 1586.43,-372.04"/>
</g>
<!-- Node31&#45;&gt;Node7 -->
<g id="edge64" class="edge">
<title>Node31&#45;&gt;Node7</title>
<path fill="none" stroke="midnightblue" d="M1825.02,-308.33C1823.41,-291.03 1819.17,-265.38 1808,-246 1797.78,-228.25 1779.22,-213.18 1766.51,-204.23"/>
<polygon fill="midnightblue" stroke="midnightblue" points="1821.57,-309.07 1825.77,-318.8 1828.55,-308.58 1821.57,-309.07"/>
</g>
<!-- Node32&#45;&gt;Node7 -->
<g id="edge66" class="edge">
<title>Node32&#45;&gt;Node7</title>
<path fill="none" stroke="midnightblue" d="M1714.51,-315.83C1735.6,-308.4 1757.53,-296.37 1770,-277 1784.94,-253.79 1768.12,-219.84 1758.62,-204.1"/>
<polygon fill="midnightblue" stroke="midnightblue" points="1713.36,-312.52 1704.91,-318.93 1715.51,-319.19 1713.36,-312.52"/>
</g>
<!-- Node32&#45;&gt;Node11 -->
<g id="edge67" class="edge">
<title>Node32&#45;&gt;Node11</title>
<path fill="none" stroke="midnightblue" d="M1586.39,-317.76C1570.78,-315.93 1554.36,-314.22 1539,-313 1123.12,-279.95 1015.06,-328.08 601,-277 598.08,-276.64 595.11,-276.22 592.11,-275.76"/>
<polygon fill="midnightblue" stroke="midnightblue" points="1586.16,-321.25 1596.51,-318.97 1586.99,-314.3 1586.16,-321.25"/>
</g>
<!-- Node33&#45;&gt;Node30 -->
<g id="edge83" class="edge">
<title>Node33&#45;&gt;Node30</title>
<path fill="none" stroke="midnightblue" d="M1683.21,-443.82C1655.57,-433.37 1621.04,-420.32 1595.25,-410.58"/>
<polygon fill="midnightblue" stroke="midnightblue" points="1682.09,-447.13 1692.68,-447.4 1684.56,-440.59 1682.09,-447.13"/>
</g>
<!-- Node34 -->
<g id="node34" class="node">
<title>Node34</title>
<g id="a_node34"><a xlink:href="kv__module__loader_8cpp.html" target="_top" xlink:title=" ">
<polygon fill="white" stroke="black" points="1818.5,-380.5 1818.5,-410.5 1961.5,-410.5 1961.5,-380.5 1818.5,-380.5"/>
<text text-anchor="start" x="1826.5" y="-398.5" font-family="Helvetica,sans-Serif" font-size="10.00">src/apps/js_v8/kv_module</text>
<text text-anchor="middle" x="1890" y="-387.5" font-family="Helvetica,sans-Serif" font-size="10.00">_loader.cpp</text>
</a>
</g>
</g>
<!-- Node33&#45;&gt;Node34 -->
<g id="edge69" class="edge">
<title>Node33&#45;&gt;Node34</title>
<path fill="none" stroke="midnightblue" d="M1774.2,-443.54C1799.8,-433.14 1831.57,-420.24 1855.35,-410.58"/>
<polygon fill="midnightblue" stroke="midnightblue" points="1772.66,-440.39 1764.72,-447.4 1775.3,-446.87 1772.66,-440.39"/>
</g>
<!-- Node35 -->
<g id="node35" class="node">
<title>Node35</title>
<g id="a_node35"><a xlink:href="ccf__acme__client_8h.html" target="_top" xlink:title=" ">
<polygon fill="white" stroke="black" points="1979.5,-386 1979.5,-405 2128.5,-405 2128.5,-386 1979.5,-386"/>
<text text-anchor="middle" x="2054" y="-393" font-family="Helvetica,sans-Serif" font-size="10.00">src/node/ccf_acme_client.h</text>
</a>
</g>
</g>
<!-- Node33&#45;&gt;Node35 -->
<g id="edge70" class="edge">
<title>Node33&#45;&gt;Node35</title>
<path fill="none" stroke="midnightblue" d="M1796.13,-448.23C1860.58,-435.3 1956.66,-416.03 2011.52,-405.02"/>
<polygon fill="midnightblue" stroke="midnightblue" points="1795.18,-444.85 1786.07,-450.25 1796.56,-451.72 1795.18,-444.85"/>
</g>
<!-- Node36 -->
<g id="node36" class="node">
<title>Node36</title>
<g id="a_node36"><a xlink:href="network__state_8h.html" target="_top" xlink:title=" ">
<polygon fill="white" stroke="black" points="1660,-386 1660,-405 1800,-405 1800,-386 1660,-386"/>
<text text-anchor="middle" x="1730" y="-393" font-family="Helvetica,sans-Serif" font-size="10.00">src/node/network_state.h</text>
</a>
</g>
</g>
<!-- Node33&#45;&gt;Node36 -->
<g id="edge72" class="edge">
<title>Node33&#45;&gt;Node36</title>
<path fill="none" stroke="midnightblue" d="M1730,-437.25C1730,-426.02 1730,-413.38 1730,-405.19"/>
<polygon fill="midnightblue" stroke="midnightblue" points="1726.5,-437.4 1730,-447.4 1733.5,-437.4 1726.5,-437.4"/>
</g>
<!-- Node35&#45;&gt;Node7 -->
<g id="edge71" class="edge">
<title>Node35&#45;&gt;Node7</title>
<path fill="none" stroke="midnightblue" d="M2057.9,-375.64C2063.19,-344.24 2068.5,-281.22 2035,-246 2005.6,-215.1 1889.03,-202.94 1815.28,-198.27"/>
<polygon fill="midnightblue" stroke="midnightblue" points="2054.42,-375.2 2056.02,-385.67 2061.3,-376.48 2054.42,-375.2"/>
</g>
<!-- Node36&#45;&gt;Node7 -->
<g id="edge75" class="edge">
<title>Node36&#45;&gt;Node7</title>
<path fill="none" stroke="midnightblue" d="M1780.41,-383.78C1831.4,-372.43 1903.86,-354.71 1912,-344 1920.34,-333.03 1918.01,-325.4 1912,-313 1884.06,-255.4 1812.44,-219.37 1775.62,-204.04"/>
<polygon fill="midnightblue" stroke="midnightblue" points="1779.53,-380.39 1770.52,-385.96 1781.04,-387.23 1779.53,-380.39"/>
</g>
<!-- Node36&#45;&gt;Node8 -->
<g id="edge73" class="edge">
<title>Node36&#45;&gt;Node8</title>
<path fill="none" stroke="midnightblue" d="M1786.52,-384.1C1851.2,-371.94 1950.28,-352.4 1966,-344 2012.98,-318.9 2063.55,-290.97 2035,-246 1959.98,-127.83 1884.97,-149.08 1750,-112 1609.52,-73.41 1437.2,-66.84 1347.26,-66.34"/>
<polygon fill="midnightblue" stroke="midnightblue" points="1785.64,-380.71 1776.45,-385.99 1786.93,-387.59 1785.64,-380.71"/>
</g>
<!-- Node36&#45;&gt;Node13 -->
<g id="edge76" class="edge">
<title>Node36&#45;&gt;Node13</title>
<path fill="none" stroke="midnightblue" d="M1663.98,-384.42C1598.3,-374.35 1494.65,-358.35 1405,-344 1393.07,-342.09 1380.25,-340 1368.17,-338.01"/>
<polygon fill="midnightblue" stroke="midnightblue" points="1663.78,-387.93 1674.19,-385.99 1664.84,-381.01 1663.78,-387.93"/>
</g>
<!-- Node36&#45;&gt;Node17 -->
<g id="edge74" class="edge">
<title>Node36&#45;&gt;Node17</title>
<path fill="none" stroke="midnightblue" d="M1660.04,-384.67C1647.39,-383.02 1634.31,-381.39 1622,-380 1447.71,-360.33 1403.25,-364 1229,-344 1207.24,-341.5 1183.03,-338.19 1163.34,-335.37"/>
<polygon fill="midnightblue" stroke="midnightblue" points="1659.7,-388.16 1670.07,-386 1660.62,-381.22 1659.7,-388.16"/>
</g>
<!-- Node36&#45;&gt;Node31 -->
<g id="edge79" class="edge">
<title>Node36&#45;&gt;Node31</title>
<path fill="none" stroke="midnightblue" d="M1751.28,-380.09C1770.27,-367.24 1797.45,-348.83 1813.26,-338.13"/>
<polygon fill="midnightblue" stroke="midnightblue" points="1749.27,-377.23 1742.95,-385.73 1753.19,-383.03 1749.27,-377.23"/>
</g>
<!-- Node36&#45;&gt;Node32 -->
<g id="edge80" class="edge">
<title>Node36&#45;&gt;Node32</title>
<path fill="none" stroke="midnightblue" d="M1712.91,-378.86C1698.95,-366.08 1679.74,-348.49 1668.42,-338.13"/>
<polygon fill="midnightblue" stroke="midnightblue" points="1710.69,-381.56 1720.42,-385.73 1715.41,-376.4 1710.69,-381.56"/>
</g>
<!-- Node37 -->
<g id="node37" class="node">
<title>Node37</title>
<g id="a_node37"><a xlink:href="user__frontend_8h.html" target="_top" xlink:title=" ">
<polygon fill="white" stroke="black" points="2120.5,-118 2120.5,-137 2275.5,-137 2275.5,-118 2120.5,-118"/>
<text text-anchor="middle" x="2198" y="-125" font-family="Helvetica,sans-Serif" font-size="10.00">src/node/rpc/user_frontend.h</text>
</a>
</g>
</g>
<!-- Node36&#45;&gt;Node37 -->
<g id="edge77" class="edge">
<title>Node36&#45;&gt;Node37</title>
<path fill="none" stroke="midnightblue" d="M1786.43,-384.15C1794.34,-382.73 1802.37,-381.32 1810,-380 1907.64,-363.16 1940.46,-386.41 2030,-344 2124.32,-299.32 2180.6,-172.28 2194.56,-137.44"/>
<polygon fill="midnightblue" stroke="midnightblue" points="1785.73,-380.72 1776.51,-385.93 1786.97,-387.61 1785.73,-380.72"/>
</g>
<!-- Node38 -->
<g id="node38" class="node">
<title>Node38</title>
<g id="a_node38"><a xlink:href="snapshotter_8h.html" target="_top" xlink:title=" ">
<polygon fill="white" stroke="black" points="1898.5,-252 1898.5,-271 2025.5,-271 2025.5,-252 1898.5,-252"/>
<text text-anchor="middle" x="1962" y="-259" font-family="Helvetica,sans-Serif" font-size="10.00">src/node/snapshotter.h</text>
</a>
</g>
</g>
<!-- Node36&#45;&gt;Node38 -->
<g id="edge81" class="edge">
<title>Node36&#45;&gt;Node38</title>
<path fill="none" stroke="midnightblue" d="M1788.3,-384.13C1848.13,-372.97 1933.98,-355.3 1945,-344 1964.48,-324.03 1964.25,-287.85 1962.96,-271.25"/>
<polygon fill="midnightblue" stroke="midnightblue" points="1787.4,-380.74 1778.2,-386 1788.67,-387.62 1787.4,-380.74"/>
</g>
<!-- Node37&#45;&gt;Node8 -->
<g id="edge78" class="edge">
<title>Node37&#45;&gt;Node8</title>
<path fill="none" stroke="midnightblue" d="M2139.78,-116.41C2128.6,-114.73 2116.96,-113.16 2106,-112 1823.32,-82.05 1483.58,-71.45 1347.12,-68.23"/>
<polygon fill="midnightblue" stroke="midnightblue" points="2139.48,-119.91 2149.9,-117.98 2140.55,-112.99 2139.48,-119.91"/>
</g>
<!-- Node38&#45;&gt;Node7 -->
<g id="edge82" class="edge">
<title>Node38&#45;&gt;Node7</title>
<path fill="none" stroke="midnightblue" d="M1924.53,-248.85C1883.13,-235.97 1817.45,-215.55 1780.54,-204.06"/>
<polygon fill="midnightblue" stroke="midnightblue" points="1923.66,-252.24 1934.25,-251.87 1925.74,-245.56 1923.66,-252.24"/>
</g>
</g>
</svg>
