<?xml version="1.0" encoding="UTF-8" standalone="no"?>
<!DOCTYPE svg PUBLIC "-//W3C//DTD SVG 1.1//EN"
 "http://www.w3.org/Graphics/SVG/1.1/DTD/svg11.dtd">
<!-- Generated by graphviz version 2.43.0 (0)
 -->
<!-- Title: src/service/tables/config.h Pages: 1 -->
<!--zoomable 654 -->
<svg id="main" version="1.1" xmlns="http://www.w3.org/2000/svg" xmlns:xlink="http://www.w3.org/1999/xlink" xml:space="preserve" onload="init(evt)">
<style type="text/css"><![CDATA[
.edge:hover path { stroke: red; }
.edge:hover polygon { stroke: red; fill: red; }
]]></style>
<script type="text/javascript"><![CDATA[
var edges = document.getElementsByTagName('g');
if (edges && edges.length) {
  for (var i=0;i<edges.length;i++) {
    if (edges[i].id.substr(0,4)=='edge') {
      edges[i].setAttribute('class','edge');
    }
  }
}
]]></script>
        <defs>
                <circle id="rim" cx="0" cy="0" r="7"/>
                <circle id="rim2" cx="0" cy="0" r="3.5"/>
                <g id="zoomPlus">
                        <use xlink:href="#rim" fill="#404040">
                                <set attributeName="fill" to="#808080" begin="zoomplus.mouseover" end="zoomplus.mouseout"/>
                        </use>
                        <path d="M-4,0h8M0,-4v8" fill="none" stroke="white" stroke-width="1.5" pointer-events="none"/>
                </g>
                <g id="zoomMin">
                        <use xlink:href="#rim" fill="#404040">
                                <set attributeName="fill" to="#808080" begin="zoomminus.mouseover" end="zoomminus.mouseout"/>
                        </use>
                        <path d="M-4,0h8" fill="none" stroke="white" stroke-width="1.5" pointer-events="none"/>
                </g>
                <g id="dirArrow">
                        <path fill="none" stroke="white" stroke-width="1.5" d="M0,-3.0v7 M-2.5,-0.5L0,-3.0L2.5,-0.5"/>
                </g>
               <g id="resetDef">
                       <use xlink:href="#rim2" fill="#404040">
                               <set attributeName="fill" to="#808080" begin="reset.mouseover" end="reset.mouseout"/>
                       </use>
               </g>
        </defs>

<script type="text/javascript">
var viewWidth = 2376;
var viewHeight = 654;
var sectionId = 'dynsection-1';
</script>
<script xlink:href="svgpan.js"/>
<svg id="graph" class="graph">
<g id="viewport">
<title>src/service/tables/config.h</title>
<polygon fill="white" stroke="transparent" points="-4,4 -4,-650 2371.67,-650 2371.67,4 -4,4"/>
<!-- Node1 -->
<g id="node1" class="node">
<title>Node1</title>
<g id="a_node1"><a xlink:title=" ">
<polygon fill="#bfbfbf" stroke="black" points="734.48,-615.5 734.48,-645.5 836.48,-645.5 836.48,-615.5 734.48,-615.5"/>
<text text-anchor="start" x="742.48" y="-633.5" font-family="Helvetica,sans-Serif" font-size="10.00">src/service/tables</text>
<text text-anchor="middle" x="785.48" y="-622.5" font-family="Helvetica,sans-Serif" font-size="10.00">/config.h</text>
</a>
</g>
</g>
<!-- Node2 -->
<g id="node2" class="node">
<title>Node2</title>
<g id="a_node2"><a xlink:href="common_2configuration_8h.html" target="_top" xlink:title=" ">
<polygon fill="white" stroke="black" points="437.48,-559.5 437.48,-578.5 589.48,-578.5 589.48,-559.5 437.48,-559.5"/>
<text text-anchor="middle" x="513.48" y="-566.5" font-family="Helvetica,sans-Serif" font-size="10.00">src/common/configuration.h</text>
</a>
</g>
</g>
<!-- Node1&#45;&gt;Node2 -->
<g id="edge1" class="edge">
<title>Node1&#45;&gt;Node2</title>
<path fill="none" stroke="midnightblue" d="M724.43,-616.15C671.82,-604.64 597.46,-588.37 552.52,-578.54"/>
<polygon fill="midnightblue" stroke="midnightblue" points="723.8,-619.59 734.32,-618.31 725.3,-612.75 723.8,-619.59"/>
</g>
<!-- Node5 -->
<g id="node5" class="node">
<title>Node5</title>
<g id="a_node5"><a xlink:href="node__call__types_8h.html" target="_top" xlink:title=" ">
<polygon fill="white" stroke="black" points="450.98,-492.5 450.98,-522.5 575.98,-522.5 575.98,-492.5 450.98,-492.5"/>
<text text-anchor="start" x="458.98" y="-510.5" font-family="Helvetica,sans-Serif" font-size="10.00">src/node/rpc/node_call</text>
<text text-anchor="middle" x="513.48" y="-499.5" font-family="Helvetica,sans-Serif" font-size="10.00">_types.h</text>
</a>
</g>
</g>
<!-- Node1&#45;&gt;Node5 -->
<g id="edge29" class="edge">
<title>Node1&#45;&gt;Node5</title>
<path fill="none" stroke="midnightblue" d="M744.36,-611.21C689.71,-586.9 594.33,-544.47 545.01,-522.53"/>
<polygon fill="midnightblue" stroke="midnightblue" points="743.18,-614.52 753.74,-615.38 746.03,-608.12 743.18,-614.52"/>
</g>
<!-- Node19 -->
<g id="node19" class="node">
<title>Node19</title>
<g id="a_node19"><a xlink:href="src_2node_2hooks_8h.html" target="_top" xlink:title=" ">
<polygon fill="white" stroke="black" points="1107.98,-559.5 1107.98,-578.5 1206.98,-578.5 1206.98,-559.5 1107.98,-559.5"/>
<text text-anchor="middle" x="1157.48" y="-566.5" font-family="Helvetica,sans-Serif" font-size="10.00">src/node/hooks.h</text>
</a>
</g>
</g>
<!-- Node1&#45;&gt;Node19 -->
<g id="edge27" class="edge">
<title>Node1&#45;&gt;Node19</title>
<path fill="none" stroke="midnightblue" d="M846.79,-619.69C919.83,-608.01 1040.4,-588.73 1107.86,-577.94"/>
<polygon fill="midnightblue" stroke="midnightblue" points="846.13,-616.25 836.81,-621.29 847.24,-623.17 846.13,-616.25"/>
</g>
<!-- Node20 -->
<g id="node20" class="node">
<title>Node20</title>
<g id="a_node20"><a xlink:href="network__tables_8h.html" target="_top" xlink:title=" ">
<polygon fill="white" stroke="black" points="841.48,-425.5 841.48,-455.5 953.48,-455.5 953.48,-425.5 841.48,-425.5"/>
<text text-anchor="start" x="849.48" y="-443.5" font-family="Helvetica,sans-Serif" font-size="10.00">src/service/network</text>
<text text-anchor="middle" x="897.48" y="-432.5" font-family="Helvetica,sans-Serif" font-size="10.00">_tables.h</text>
</a>
</g>
</g>
<!-- Node1&#45;&gt;Node20 -->
<g id="edge30" class="edge">
<title>Node1&#45;&gt;Node20</title>
<path fill="none" stroke="midnightblue" d="M799.04,-606.73C822.49,-567.38 869.91,-487.78 889.11,-455.54"/>
<polygon fill="midnightblue" stroke="midnightblue" points="796.01,-604.99 793.9,-615.37 802.02,-608.57 796.01,-604.99"/>
</g>
<!-- Node3 -->
<g id="node3" class="node">
<title>Node3</title>
<g id="a_node3"><a xlink:href="host_2configuration_8h.html" target="_top" xlink:title=" ">
<polygon fill="white" stroke="black" points="264.98,-498 264.98,-517 395.98,-517 395.98,-498 264.98,-498"/>
<text text-anchor="middle" x="330.48" y="-505" font-family="Helvetica,sans-Serif" font-size="10.00">src/host/configuration.h</text>
</a>
</g>
</g>
<!-- Node2&#45;&gt;Node3 -->
<g id="edge2" class="edge">
<title>Node2&#45;&gt;Node3</title>
<path fill="none" stroke="midnightblue" d="M477.74,-556.38C442.17,-544.82 388.42,-527.34 356.65,-517.01"/>
<polygon fill="midnightblue" stroke="midnightblue" points="476.67,-559.71 487.26,-559.48 478.83,-553.05 476.67,-559.71"/>
</g>
<!-- Node2&#45;&gt;Node5 -->
<g id="edge4" class="edge">
<title>Node2&#45;&gt;Node5</title>
<path fill="none" stroke="midnightblue" d="M513.48,-549.23C513.48,-540.59 513.48,-530.5 513.48,-522.52"/>
<polygon fill="midnightblue" stroke="midnightblue" points="509.98,-549.48 513.48,-559.48 516.98,-549.48 509.98,-549.48"/>
</g>
<!-- Node4 -->
<g id="node4" class="node">
<title>Node4</title>
<g id="a_node4"><a xlink:href="host_2main_8cpp.html" target="_top" xlink:title=" ">
<polygon fill="white" stroke="black" points="208.98,-431 208.98,-450 311.98,-450 311.98,-431 208.98,-431"/>
<text text-anchor="middle" x="260.48" y="-438" font-family="Helvetica,sans-Serif" font-size="10.00">src/host/main.cpp</text>
</a>
</g>
</g>
<!-- Node3&#45;&gt;Node4 -->
<g id="edge3" class="edge">
<title>Node3&#45;&gt;Node4</title>
<path fill="none" stroke="midnightblue" d="M313.63,-490.86C299.87,-478.08 280.93,-460.49 269.77,-450.13"/>
<polygon fill="midnightblue" stroke="midnightblue" points="311.33,-493.49 321.04,-497.73 316.09,-488.36 311.33,-493.49"/>
</g>
<!-- Node6 -->
<g id="node6" class="node">
<title>Node6</title>
<g id="a_node6"><a xlink:href="call__types_8h.html" target="_top" xlink:title=" ">
<polygon fill="white" stroke="black" points="329.98,-431 329.98,-450 466.98,-450 466.98,-431 329.98,-431"/>
<text text-anchor="middle" x="398.48" y="-438" font-family="Helvetica,sans-Serif" font-size="10.00">src/node/rpc/call_types.h</text>
</a>
</g>
</g>
<!-- Node5&#45;&gt;Node6 -->
<g id="edge5" class="edge">
<title>Node5&#45;&gt;Node6</title>
<path fill="none" stroke="midnightblue" d="M479.81,-487.47C457.86,-475.06 430.27,-459.47 413.53,-450.01"/>
<polygon fill="midnightblue" stroke="midnightblue" points="478.1,-490.52 488.52,-492.4 481.54,-484.43 478.1,-490.52"/>
</g>
<!-- Node7 -->
<g id="node7" class="node">
<title>Node7</title>
<g id="a_node7"><a xlink:href="nobuiltins_8cpp.html" target="_top" xlink:title=" ">
<polygon fill="white" stroke="black" points="15.98,-291.5 15.98,-321.5 150.98,-321.5 150.98,-291.5 15.98,-291.5"/>
<text text-anchor="start" x="23.98" y="-309.5" font-family="Helvetica,sans-Serif" font-size="10.00">samples/apps/nobuiltins</text>
<text text-anchor="middle" x="83.48" y="-298.5" font-family="Helvetica,sans-Serif" font-size="10.00">/nobuiltins.cpp</text>
</a>
</g>
</g>
<!-- Node6&#45;&gt;Node7 -->
<g id="edge6" class="edge">
<title>Node6&#45;&gt;Node7</title>
<path fill="none" stroke="midnightblue" d="M357.31,-428.14C325.48,-418.89 280.56,-404.8 242.48,-389 193.34,-368.61 138.68,-338.96 107.95,-321.61"/>
<polygon fill="midnightblue" stroke="midnightblue" points="356.59,-431.57 367.16,-430.97 358.52,-424.85 356.59,-431.57"/>
</g>
<!-- Node8 -->
<g id="node8" class="node">
<title>Node8</title>
<g id="a_node8"><a xlink:href="common__endpoint__registry_8cpp.html" target="_top" xlink:title=" ">
<polygon fill="white" stroke="black" points="169.48,-291.5 169.48,-321.5 297.48,-321.5 297.48,-291.5 169.48,-291.5"/>
<text text-anchor="start" x="177.48" y="-309.5" font-family="Helvetica,sans-Serif" font-size="10.00">src/endpoints/common</text>
<text text-anchor="middle" x="233.48" y="-298.5" font-family="Helvetica,sans-Serif" font-size="10.00">_endpoint_registry.cpp</text>
</a>
</g>
</g>
<!-- Node6&#45;&gt;Node8 -->
<g id="edge7" class="edge">
<title>Node6&#45;&gt;Node8</title>
<path fill="none" stroke="midnightblue" d="M337.78,-428.22C312.37,-420.81 284.22,-408.68 264.48,-389 245.82,-370.4 238.21,-339.44 235.24,-321.5"/>
<polygon fill="midnightblue" stroke="midnightblue" points="337.16,-431.68 347.73,-430.94 339,-424.93 337.16,-431.68"/>
</g>
<!-- Node9 -->
<g id="node9" class="node">
<title>Node9</title>
<g id="a_node9"><a xlink:href="wrap_8cpp.html" target="_top" xlink:title=" ">
<polygon fill="white" stroke="black" points="1880.98,-168.5 1880.98,-187.5 1969.98,-187.5 1969.98,-168.5 1880.98,-168.5"/>
<text text-anchor="middle" x="1925.48" y="-175.5" font-family="Helvetica,sans-Serif" font-size="10.00">src/js/wrap.cpp</text>
</a>
</g>
</g>
<!-- Node6&#45;&gt;Node9 -->
<g id="edge8" class="edge">
<title>Node6&#45;&gt;Node9</title>
<path fill="none" stroke="midnightblue" d="M477.12,-436.79C655.28,-430.26 1078.96,-412.46 1139.48,-389 1160.12,-381 1158.79,-368.13 1178.48,-358 1230.27,-331.37 1254.36,-351.66 1304.48,-322 1357.22,-290.79 1345.98,-250 1401.48,-224 1486.02,-184.39 1769.87,-179.35 1880.66,-178.92"/>
<polygon fill="midnightblue" stroke="midnightblue" points="476.89,-433.29 467.02,-437.15 477.14,-440.29 476.89,-433.29"/>
</g>
<!-- Node10 -->
<g id="node10" class="node">
<title>Node10</title>
<g id="a_node10"><a xlink:href="resharing_8h.html" target="_top" xlink:title=" ">
<polygon fill="white" stroke="black" points="391.48,-297 391.48,-316 507.48,-316 507.48,-297 391.48,-297"/>
<text text-anchor="middle" x="449.48" y="-304" font-family="Helvetica,sans-Serif" font-size="10.00">src/node/resharing.h</text>
</a>
</g>
</g>
<!-- Node6&#45;&gt;Node10 -->
<g id="edge9" class="edge">
<title>Node6&#45;&gt;Node10</title>
<path fill="none" stroke="midnightblue" d="M411.21,-422.6C417.8,-413.14 425.49,-400.9 430.48,-389 441.04,-363.81 446.33,-331.66 448.4,-316.36"/>
<polygon fill="midnightblue" stroke="midnightblue" points="408.38,-420.55 405.36,-430.7 414.05,-424.65 408.38,-420.55"/>
</g>
<!-- Node15 -->
<g id="node15" class="node">
<title>Node15</title>
<g id="a_node15"><a xlink:href="member__frontend_8h.html" target="_top" xlink:title=" ">
<polygon fill="white" stroke="black" points="475.48,-224.5 475.48,-254.5 595.48,-254.5 595.48,-224.5 475.48,-224.5"/>
<text text-anchor="start" x="483.48" y="-242.5" font-family="Helvetica,sans-Serif" font-size="10.00">src/node/rpc/member</text>
<text text-anchor="middle" x="535.48" y="-231.5" font-family="Helvetica,sans-Serif" font-size="10.00">_frontend.h</text>
</a>
</g>
</g>
<!-- Node6&#45;&gt;Node15 -->
<g id="edge15" class="edge">
<title>Node6&#45;&gt;Node15</title>
<path fill="none" stroke="midnightblue" d="M341.67,-429.05C296.45,-420.14 231.78,-406.08 176.48,-389 98.88,-365.04 52.18,-389.13 6.48,-322 -1.28,-310.61 -2.79,-301.19 6.48,-291 37.51,-256.87 342.93,-245.24 475.07,-241.79"/>
<polygon fill="midnightblue" stroke="midnightblue" points="341.1,-432.51 351.59,-430.98 342.44,-425.64 341.1,-432.51"/>
</g>
<!-- Node16 -->
<g id="node16" class="node">
<title>Node16</title>
<g id="a_node16"><a xlink:href="serialization_8h.html" target="_top" xlink:title=" ">
<polygon fill="white" stroke="black" points="273.48,-364 273.48,-383 421.48,-383 421.48,-364 273.48,-364"/>
<text text-anchor="middle" x="347.48" y="-371" font-family="Helvetica,sans-Serif" font-size="10.00">src/node/rpc/serialization.h</text>
</a>
</g>
</g>
<!-- Node6&#45;&gt;Node16 -->
<g id="edge17" class="edge">
<title>Node6&#45;&gt;Node16</title>
<path fill="none" stroke="midnightblue" d="M385.35,-422.77C375.41,-410.1 362.15,-393.2 354.25,-383.13"/>
<polygon fill="midnightblue" stroke="midnightblue" points="382.67,-425.03 391.6,-430.73 388.18,-420.71 382.67,-425.03"/>
</g>
<!-- Node11 -->
<g id="node11" class="node">
<title>Node11</title>
<g id="a_node11"><a xlink:href="node__state_8h.html" target="_top" xlink:title=" ">
<polygon fill="white" stroke="black" points="925.48,-168.5 925.48,-187.5 1049.48,-187.5 1049.48,-168.5 925.48,-168.5"/>
<text text-anchor="middle" x="987.48" y="-175.5" font-family="Helvetica,sans-Serif" font-size="10.00">src/node/node_state.h</text>
</a>
</g>
</g>
<!-- Node10&#45;&gt;Node11 -->
<g id="edge10" class="edge">
<title>Node10&#45;&gt;Node11</title>
<path fill="none" stroke="midnightblue" d="M487.4,-293.99C518.94,-284.21 564.91,-269.49 604.48,-255 638.73,-242.45 645.28,-233.6 680.48,-224 763.63,-201.31 862.76,-189.4 925.42,-183.67"/>
<polygon fill="midnightblue" stroke="midnightblue" points="486.21,-290.69 477.69,-296.98 488.28,-297.38 486.21,-290.69"/>
</g>
<!-- Node12 -->
<g id="node12" class="node">
<title>Node12</title>
<g id="a_node12"><a xlink:href="enclave_2enclave_8h.html" target="_top" xlink:title=" ">
<polygon fill="white" stroke="black" points="1026.48,-56.5 1026.48,-75.5 1148.48,-75.5 1148.48,-56.5 1026.48,-56.5"/>
<text text-anchor="middle" x="1087.48" y="-63.5" font-family="Helvetica,sans-Serif" font-size="10.00">src/enclave/enclave.h</text>
</a>
</g>
</g>
<!-- Node11&#45;&gt;Node12 -->
<g id="edge11" class="edge">
<title>Node11&#45;&gt;Node12</title>
<path fill="none" stroke="midnightblue" d="M1023.23,-164.41C1039.13,-157.17 1056.84,-146.57 1068.48,-132 1081.98,-115.1 1085.89,-88.91 1087.02,-75.52"/>
<polygon fill="midnightblue" stroke="midnightblue" points="1021.47,-161.36 1013.64,-168.49 1024.21,-167.8 1021.47,-161.36"/>
</g>
<!-- Node14 -->
<g id="node14" class="node">
<title>Node14</title>
<g id="a_node14"><a xlink:href="gov__effects_8h.html" target="_top" xlink:title=" ">
<polygon fill="white" stroke="black" points="915.48,-112.5 915.48,-131.5 1059.48,-131.5 1059.48,-112.5 915.48,-112.5"/>
<text text-anchor="middle" x="987.48" y="-119.5" font-family="Helvetica,sans-Serif" font-size="10.00">src/node/rpc/gov_effects.h</text>
</a>
</g>
</g>
<!-- Node11&#45;&gt;Node14 -->
<g id="edge13" class="edge">
<title>Node11&#45;&gt;Node14</title>
<path fill="none" stroke="midnightblue" d="M987.48,-157.8C987.48,-148.91 987.48,-138.78 987.48,-131.75"/>
<polygon fill="midnightblue" stroke="midnightblue" points="983.98,-158.08 987.48,-168.08 990.98,-158.08 983.98,-158.08"/>
</g>
<!-- Node13 -->
<g id="node13" class="node">
<title>Node13</title>
<g id="a_node13"><a xlink:href="enclave_2main_8cpp.html" target="_top" xlink:title=" ">
<polygon fill="white" stroke="black" points="1027.48,-0.5 1027.48,-19.5 1147.48,-19.5 1147.48,-0.5 1027.48,-0.5"/>
<text text-anchor="middle" x="1087.48" y="-7.5" font-family="Helvetica,sans-Serif" font-size="10.00">src/enclave/main.cpp</text>
</a>
</g>
</g>
<!-- Node12&#45;&gt;Node13 -->
<g id="edge12" class="edge">
<title>Node12&#45;&gt;Node13</title>
<path fill="none" stroke="midnightblue" d="M1087.48,-45.8C1087.48,-36.91 1087.48,-26.78 1087.48,-19.75"/>
<polygon fill="midnightblue" stroke="midnightblue" points="1083.98,-46.08 1087.48,-56.08 1090.98,-46.08 1083.98,-46.08"/>
</g>
<!-- Node14&#45;&gt;Node12 -->
<g id="edge14" class="edge">
<title>Node14&#45;&gt;Node12</title>
<path fill="none" stroke="midnightblue" d="M1012.57,-107.45C1031.03,-97.48 1055.57,-84.23 1071.45,-75.65"/>
<polygon fill="midnightblue" stroke="midnightblue" points="1010.68,-104.49 1003.54,-112.32 1014.01,-110.65 1010.68,-104.49"/>
</g>
<!-- Node15&#45;&gt;Node12 -->
<g id="edge16" class="edge">
<title>Node15&#45;&gt;Node12</title>
<path fill="none" stroke="midnightblue" d="M542.12,-214.51C551.7,-184.91 572.44,-135.62 609.48,-112 643.87,-90.07 905.15,-75.37 1026.23,-69.66"/>
<polygon fill="midnightblue" stroke="midnightblue" points="538.77,-213.5 539.19,-224.08 545.47,-215.55 538.77,-213.5"/>
</g>
<!-- Node16&#45;&gt;Node7 -->
<g id="edge18" class="edge">
<title>Node16&#45;&gt;Node7</title>
<path fill="none" stroke="midnightblue" d="M302.71,-361.48C258.02,-350.47 189.18,-333.52 140.58,-321.56"/>
<polygon fill="midnightblue" stroke="midnightblue" points="302.15,-364.94 312.69,-363.94 303.82,-358.15 302.15,-364.94"/>
</g>
<!-- Node16&#45;&gt;Node8 -->
<g id="edge19" class="edge">
<title>Node16&#45;&gt;Node8</title>
<path fill="none" stroke="midnightblue" d="M323.37,-358.75C304.21,-347.83 277.5,-332.6 258.19,-321.59"/>
<polygon fill="midnightblue" stroke="midnightblue" points="321.68,-361.82 332.1,-363.73 325.15,-355.74 321.68,-361.82"/>
</g>
<!-- Node16&#45;&gt;Node10 -->
<g id="edge21" class="edge">
<title>Node16&#45;&gt;Node10</title>
<path fill="none" stroke="midnightblue" d="M369.81,-358.27C390,-345.4 419.07,-326.88 435.94,-316.13"/>
<polygon fill="midnightblue" stroke="midnightblue" points="367.79,-355.41 361.23,-363.73 371.55,-361.31 367.79,-355.41"/>
</g>
<!-- Node16&#45;&gt;Node11 -->
<g id="edge20" class="edge">
<title>Node16&#45;&gt;Node11</title>
<path fill="none" stroke="midnightblue" d="M345.67,-353.69C344.92,-336.1 346.31,-309.77 358.48,-291 389.19,-243.59 412.87,-241.81 466.48,-224 550.05,-196.24 806.16,-184.71 925.31,-180.75"/>
<polygon fill="midnightblue" stroke="midnightblue" points="342.19,-354.1 346.38,-363.83 349.17,-353.61 342.19,-354.1"/>
</g>
<!-- Node16&#45;&gt;Node15 -->
<g id="edge22" class="edge">
<title>Node16&#45;&gt;Node15</title>
<path fill="none" stroke="midnightblue" d="M350.84,-353.94C355.12,-335.52 364.25,-307.71 382.48,-291 407.94,-267.66 444.45,-255.08 475.41,-248.32"/>
<polygon fill="midnightblue" stroke="midnightblue" points="347.41,-353.27 348.81,-363.77 354.26,-354.69 347.41,-353.27"/>
</g>
<!-- Node17 -->
<g id="node17" class="node">
<title>Node17</title>
<g id="a_node17"><a xlink:href="node__frontend_8h.html" target="_top" xlink:title=" ">
<polygon fill="white" stroke="black" points="563.48,-297 563.48,-316 721.48,-316 721.48,-297 563.48,-297"/>
<text text-anchor="middle" x="642.48" y="-304" font-family="Helvetica,sans-Serif" font-size="10.00">src/node/rpc/node_frontend.h</text>
</a>
</g>
</g>
<!-- Node16&#45;&gt;Node17 -->
<g id="edge23" class="edge">
<title>Node16&#45;&gt;Node17</title>
<path fill="none" stroke="midnightblue" d="M396.39,-361.72C454.47,-348.92 550.2,-327.83 603.52,-316.08"/>
<polygon fill="midnightblue" stroke="midnightblue" points="395.36,-358.37 386.35,-363.94 396.87,-365.2 395.36,-358.37"/>
</g>
<!-- Node17&#45;&gt;Node12 -->
<g id="edge24" class="edge">
<title>Node17&#45;&gt;Node12</title>
<path fill="none" stroke="midnightblue" d="M647.24,-286.91C652.68,-268.9 663.14,-241.76 680.48,-224 775.72,-126.46 938.24,-88.47 1026.35,-74.51"/>
<polygon fill="midnightblue" stroke="midnightblue" points="643.8,-286.21 644.49,-296.79 650.55,-288.09 643.8,-286.21"/>
</g>
<!-- Node18 -->
<g id="node18" class="node">
<title>Node18</title>
<g id="a_node18"><a xlink:href="jwt__key__auto__refresh_8h.html" target="_top" xlink:title=" ">
<polygon fill="white" stroke="black" points="689.98,-224.5 689.98,-254.5 814.98,-254.5 814.98,-224.5 689.98,-224.5"/>
<text text-anchor="start" x="697.98" y="-242.5" font-family="Helvetica,sans-Serif" font-size="10.00">src/node/jwt_key_auto</text>
<text text-anchor="middle" x="752.48" y="-231.5" font-family="Helvetica,sans-Serif" font-size="10.00">_refresh.h</text>
</a>
</g>
</g>
<!-- Node17&#45;&gt;Node18 -->
<g id="edge25" class="edge">
<title>Node17&#45;&gt;Node18</title>
<path fill="none" stroke="midnightblue" d="M665.99,-291.6C684.47,-280.69 710.08,-265.55 728.63,-254.59"/>
<polygon fill="midnightblue" stroke="midnightblue" points="664.14,-288.63 657.31,-296.73 667.7,-294.66 664.14,-288.63"/>
</g>
<!-- Node18&#45;&gt;Node11 -->
<g id="edge26" class="edge">
<title>Node18&#45;&gt;Node11</title>
<path fill="none" stroke="midnightblue" d="M817.67,-221.99C861.88,-210.8 918.49,-196.47 953.88,-187.51"/>
<polygon fill="midnightblue" stroke="midnightblue" points="816.71,-218.63 807.87,-224.47 818.42,-225.41 816.71,-218.63"/>
</g>
<!-- Node19&#45;&gt;Node11 -->
<g id="edge28" class="edge">
<title>Node19&#45;&gt;Node11</title>
<path fill="none" stroke="midnightblue" d="M1184.74,-554.85C1240.87,-525.69 1362.25,-450.79 1339.48,-358 1322.01,-286.85 1307.66,-259.32 1243.48,-224 1183.19,-190.82 1103.88,-181.2 1049.61,-178.85"/>
<polygon fill="midnightblue" stroke="midnightblue" points="1183.03,-551.8 1175.7,-559.45 1186.2,-558.04 1183.03,-551.8"/>
</g>
<!-- Node21 -->
<g id="node21" class="node">
<title>Node21</title>
<g id="a_node21"><a xlink:href="kv__module__loader_8cpp.html" target="_top" xlink:title=" ">
<polygon fill="white" stroke="black" points="1186.98,-358.5 1186.98,-388.5 1329.98,-388.5 1329.98,-358.5 1186.98,-358.5"/>
<text text-anchor="start" x="1194.98" y="-376.5" font-family="Helvetica,sans-Serif" font-size="10.00">src/apps/js_v8/kv_module</text>
<text text-anchor="middle" x="1258.48" y="-365.5" font-family="Helvetica,sans-Serif" font-size="10.00">_loader.cpp</text>
</a>
</g>
</g>
<!-- Node20&#45;&gt;Node21 -->
<g id="edge31" class="edge">
<title>Node20&#45;&gt;Node21</title>
<path fill="none" stroke="midnightblue" d="M963.35,-427.64C1026.54,-416.26 1121.7,-399.13 1186.78,-387.41"/>
<polygon fill="midnightblue" stroke="midnightblue" points="962.71,-424.2 953.49,-429.42 963.95,-431.09 962.71,-424.2"/>
</g>
<!-- Node22 -->
<g id="node22" class="node">
<title>Node22</title>
<g id="a_node22"><a xlink:href="ccf__acme__client_8h.html" target="_top" xlink:title=" ">
<polygon fill="white" stroke="black" points="822.98,-364 822.98,-383 971.98,-383 971.98,-364 822.98,-364"/>
<text text-anchor="middle" x="897.48" y="-371" font-family="Helvetica,sans-Serif" font-size="10.00">src/node/ccf_acme_client.h</text>
</a>
</g>
</g>
<!-- Node20&#45;&gt;Node22 -->
<g id="edge32" class="edge">
<title>Node20&#45;&gt;Node22</title>
<path fill="none" stroke="midnightblue" d="M897.48,-415.25C897.48,-404.02 897.48,-391.38 897.48,-383.19"/>
<polygon fill="midnightblue" stroke="midnightblue" points="893.98,-415.4 897.48,-425.4 900.98,-415.4 893.98,-415.4"/>
</g>
<!-- Node23 -->
<g id="node23" class="node">
<title>Node23</title>
<g id="a_node23"><a xlink:href="network__state_8h.html" target="_top" xlink:title=" ">
<polygon fill="white" stroke="black" points="990.48,-364 990.48,-383 1130.48,-383 1130.48,-364 990.48,-364"/>
<text text-anchor="middle" x="1060.48" y="-371" font-family="Helvetica,sans-Serif" font-size="10.00">src/node/network_state.h</text>
</a>
</g>
</g>
<!-- Node20&#45;&gt;Node23 -->
<g id="edge34" class="edge">
<title>Node20&#45;&gt;Node23</title>
<path fill="none" stroke="midnightblue" d="M942.31,-421.62C973.86,-409.04 1014.67,-392.77 1039.14,-383.01"/>
<polygon fill="midnightblue" stroke="midnightblue" points="940.84,-418.44 932.85,-425.4 943.43,-424.94 940.84,-418.44"/>
</g>
<!-- Node35 -->
<g id="node35" class="node">
<title>Node35</title>
<g id="a_node35"><a xlink:href="genesis__gen_8h.html" target="_top" xlink:title=" ">
<polygon fill="white" stroke="black" points="694.48,-358.5 694.48,-388.5 804.48,-388.5 804.48,-358.5 694.48,-358.5"/>
<text text-anchor="start" x="702.48" y="-376.5" font-family="Helvetica,sans-Serif" font-size="10.00">src/service/genesis</text>
<text text-anchor="middle" x="749.48" y="-365.5" font-family="Helvetica,sans-Serif" font-size="10.00">_gen.h</text>
</a>
</g>
</g>
<!-- Node20&#45;&gt;Node35 -->
<g id="edge62" class="edge">
<title>Node20&#45;&gt;Node35</title>
<path fill="none" stroke="midnightblue" d="M855.97,-421.27C832.39,-410.92 803.33,-398.15 781.53,-388.58"/>
<polygon fill="midnightblue" stroke="midnightblue" points="854.8,-424.58 865.36,-425.4 857.62,-418.17 854.8,-424.58"/>
</g>
<!-- Node22&#45;&gt;Node11 -->
<g id="edge33" class="edge">
<title>Node22&#45;&gt;Node11</title>
<path fill="none" stroke="midnightblue" d="M910.56,-355.8C917.64,-346.26 926.2,-333.86 932.48,-322 958.1,-273.57 978.1,-210.48 984.94,-187.69"/>
<polygon fill="midnightblue" stroke="midnightblue" points="907.62,-353.89 904.34,-363.97 913.19,-358.13 907.62,-353.89"/>
</g>
<!-- Node23&#45;&gt;Node11 -->
<g id="edge51" class="edge">
<title>Node23&#45;&gt;Node11</title>
<path fill="none" stroke="midnightblue" d="M1115.68,-362.01C1181.11,-349.31 1282.04,-328.78 1287.48,-322 1296.1,-311.25 1295.3,-302.34 1287.48,-291 1234.23,-213.76 1120.83,-189.68 1049.71,-182.24"/>
<polygon fill="midnightblue" stroke="midnightblue" points="1114.66,-358.64 1105.51,-363.97 1115.99,-365.51 1114.66,-358.64"/>
</g>
<!-- Node23&#45;&gt;Node12 -->
<g id="edge35" class="edge">
<title>Node23&#45;&gt;Node12</title>
<path fill="none" stroke="midnightblue" d="M1131.88,-362.76C1147.23,-360.94 1163.37,-359.22 1178.48,-358 1584.13,-325.15 1692,-388.73 2093.48,-322 2218.39,-301.24 2366.48,-367.12 2366.48,-240.5 2366.48,-240.5 2366.48,-240.5 2366.48,-177 2366.48,-146.9 2371.24,-130.48 2347.48,-112 2299.72,-74.85 1394.38,-68.3 1148.6,-67.21"/>
<polygon fill="midnightblue" stroke="midnightblue" points="1131.43,-359.29 1121.93,-363.97 1132.28,-366.24 1131.43,-359.29"/>
</g>
<!-- Node23&#45;&gt;Node17 -->
<g id="edge52" class="edge">
<title>Node23&#45;&gt;Node17</title>
<path fill="none" stroke="midnightblue" d="M1005.38,-362.14C997.37,-360.71 989.22,-359.29 981.48,-358 884.63,-341.9 771.79,-325.58 703.82,-316"/>
<polygon fill="midnightblue" stroke="midnightblue" points="1004.94,-365.62 1015.4,-363.96 1006.19,-358.73 1004.94,-365.62"/>
</g>
<!-- Node24 -->
<g id="node24" class="node">
<title>Node24</title>
<g id="a_node24"><a xlink:href="wrap_8h.html" target="_top" xlink:title=" ">
<polygon fill="white" stroke="black" points="1711.48,-297 1711.48,-316 1789.48,-316 1789.48,-297 1711.48,-297"/>
<text text-anchor="middle" x="1750.48" y="-304" font-family="Helvetica,sans-Serif" font-size="10.00">src/js/wrap.h</text>
</a>
</g>
</g>
<!-- Node23&#45;&gt;Node24 -->
<g id="edge36" class="edge">
<title>Node23&#45;&gt;Node24</title>
<path fill="none" stroke="midnightblue" d="M1136.61,-362.76C1150.53,-361.09 1164.93,-359.43 1178.48,-358 1378.49,-336.89 1618.51,-317.69 1711.25,-310.5"/>
<polygon fill="midnightblue" stroke="midnightblue" points="1136.09,-359.29 1126.59,-363.97 1136.93,-366.24 1136.09,-359.29"/>
</g>
<!-- Node31 -->
<g id="node31" class="node">
<title>Node31</title>
<g id="a_node31"><a xlink:href="user__frontend_8h.html" target="_top" xlink:title=" ">
<polygon fill="white" stroke="black" points="2182.98,-112.5 2182.98,-131.5 2337.98,-131.5 2337.98,-112.5 2182.98,-112.5"/>
<text text-anchor="middle" x="2260.48" y="-119.5" font-family="Helvetica,sans-Serif" font-size="10.00">src/node/rpc/user_frontend.h</text>
</a>
</g>
</g>
<!-- Node23&#45;&gt;Node31 -->
<g id="edge53" class="edge">
<title>Node23&#45;&gt;Node31</title>
<path fill="none" stroke="midnightblue" d="M1133.61,-362.77C1148.44,-361.01 1163.95,-359.31 1178.48,-358 1406.03,-337.43 2020.64,-394.65 2201.48,-255 2242.8,-223.09 2255.92,-155.89 2259.39,-131.82"/>
<polygon fill="midnightblue" stroke="midnightblue" points="1132.98,-359.32 1123.47,-364 1133.82,-366.27 1132.98,-359.32"/>
</g>
<!-- Node32 -->
<g id="node32" class="node">
<title>Node32</title>
<g id="a_node32"><a xlink:href="secret__broadcast_8h.html" target="_top" xlink:title=" ">
<polygon fill="white" stroke="black" points="979.98,-297 979.98,-316 1132.98,-316 1132.98,-297 979.98,-297"/>
<text text-anchor="middle" x="1056.48" y="-304" font-family="Helvetica,sans-Serif" font-size="10.00">src/node/secret_broadcast.h</text>
</a>
</g>
</g>
<!-- Node23&#45;&gt;Node32 -->
<g id="edge55" class="edge">
<title>Node23&#45;&gt;Node32</title>
<path fill="none" stroke="midnightblue" d="M1059.31,-353.54C1058.55,-341.17 1057.59,-325.62 1057.01,-316.13"/>
<polygon fill="midnightblue" stroke="midnightblue" points="1055.83,-353.97 1059.94,-363.73 1062.82,-353.54 1055.83,-353.97"/>
</g>
<!-- Node33 -->
<g id="node33" class="node">
<title>Node33</title>
<g id="a_node33"><a xlink:href="share__manager_8h.html" target="_top" xlink:title=" ">
<polygon fill="white" stroke="black" points="777.98,-297 777.98,-316 922.98,-316 922.98,-297 777.98,-297"/>
<text text-anchor="middle" x="850.48" y="-304" font-family="Helvetica,sans-Serif" font-size="10.00">src/node/share_manager.h</text>
</a>
</g>
</g>
<!-- Node23&#45;&gt;Node33 -->
<g id="edge57" class="edge">
<title>Node23&#45;&gt;Node33</title>
<path fill="none" stroke="midnightblue" d="M1022.83,-360.85C981.23,-347.97 915.24,-327.55 878.14,-316.06"/>
<polygon fill="midnightblue" stroke="midnightblue" points="1022,-364.26 1032.59,-363.87 1024.07,-357.57 1022,-364.26"/>
</g>
<!-- Node34 -->
<g id="node34" class="node">
<title>Node34</title>
<g id="a_node34"><a xlink:href="snapshotter_8h.html" target="_top" xlink:title=" ">
<polygon fill="white" stroke="black" points="1150.98,-297 1150.98,-316 1277.98,-316 1277.98,-297 1150.98,-297"/>
<text text-anchor="middle" x="1214.48" y="-304" font-family="Helvetica,sans-Serif" font-size="10.00">src/node/snapshotter.h</text>
</a>
</g>
</g>
<!-- Node23&#45;&gt;Node34 -->
<g id="edge60" class="edge">
<title>Node23&#45;&gt;Node34</title>
<path fill="none" stroke="midnightblue" d="M1090.22,-359.95C1120.71,-347.08 1167.32,-327.4 1193.94,-316.17"/>
<polygon fill="midnightblue" stroke="midnightblue" points="1088.78,-356.76 1080.93,-363.87 1091.5,-363.2 1088.78,-356.76"/>
</g>
<!-- Node24&#45;&gt;Node9 -->
<g id="edge48" class="edge">
<title>Node24&#45;&gt;Node9</title>
<path fill="none" stroke="midnightblue" d="M1799.67,-303.11C1904.34,-297.53 2141.55,-282.01 2165.48,-255 2221.84,-191.36 2054.02,-180.55 1970.13,-179.03"/>
<polygon fill="midnightblue" stroke="midnightblue" points="1799.47,-299.62 1789.67,-303.64 1799.84,-306.61 1799.47,-299.62"/>
</g>
<!-- Node24&#45;&gt;Node11 -->
<g id="edge49" class="edge">
<title>Node24&#45;&gt;Node11</title>
<path fill="none" stroke="midnightblue" d="M1701.42,-301.85C1633.26,-296.01 1506.44,-282.32 1401.48,-255 1364.17,-245.29 1357.83,-233.53 1320.48,-224 1227.78,-200.34 1117.18,-188.52 1049.67,-183.09"/>
<polygon fill="midnightblue" stroke="midnightblue" points="1701.19,-305.35 1711.45,-302.69 1701.77,-298.37 1701.19,-305.35"/>
</g>
<!-- Node24&#45;&gt;Node12 -->
<g id="edge38" class="edge">
<title>Node24&#45;&gt;Node12</title>
<path fill="none" stroke="midnightblue" d="M1799.6,-303.4C1907.83,-298.26 2159.22,-283.37 2184.48,-255 2193.64,-244.71 2192.84,-234.95 2184.48,-224 2120.85,-140.66 1370.09,-85.41 1148.61,-70.84"/>
<polygon fill="midnightblue" stroke="midnightblue" points="1799.42,-299.9 1789.59,-303.86 1799.74,-306.89 1799.42,-299.9"/>
</g>
<!-- Node24&#45;&gt;Node15 -->
<g id="edge50" class="edge">
<title>Node24&#45;&gt;Node15</title>
<path fill="none" stroke="midnightblue" d="M1700.65,-304.08C1547.95,-299.52 1073.06,-283.87 680.48,-255 652.6,-252.95 621.77,-249.97 595.73,-247.24"/>
<polygon fill="midnightblue" stroke="midnightblue" points="1700.98,-307.59 1711.08,-304.39 1701.19,-300.59 1700.98,-307.59"/>
</g>
<!-- Node25 -->
<g id="node25" class="node">
<title>Node25</title>
<g id="a_node25"><a xlink:href="js__generic__base_8cpp.html" target="_top" xlink:title=" ">
<polygon fill="white" stroke="black" points="1410.48,-224.5 1410.48,-254.5 1528.48,-254.5 1528.48,-224.5 1410.48,-224.5"/>
<text text-anchor="start" x="1418.48" y="-242.5" font-family="Helvetica,sans-Serif" font-size="10.00">src/apps/js_generic</text>
<text text-anchor="middle" x="1469.48" y="-231.5" font-family="Helvetica,sans-Serif" font-size="10.00">/js_generic_base.cpp</text>
</a>
</g>
</g>
<!-- Node24&#45;&gt;Node25 -->
<g id="edge37" class="edge">
<title>Node24&#45;&gt;Node25</title>
<path fill="none" stroke="midnightblue" d="M1703.63,-294.66C1655.6,-283.55 1580.76,-266.24 1528.66,-254.19"/>
<polygon fill="midnightblue" stroke="midnightblue" points="1702.92,-298.09 1713.45,-296.94 1704.5,-291.27 1702.92,-298.09"/>
</g>
<!-- Node26 -->
<g id="node26" class="node">
<title>Node26</title>
<g id="a_node26"><a xlink:href="js_2consensus_8cpp.html" target="_top" xlink:title=" ">
<polygon fill="white" stroke="black" points="1692.48,-230 1692.48,-249 1808.48,-249 1808.48,-230 1692.48,-230"/>
<text text-anchor="middle" x="1750.48" y="-237" font-family="Helvetica,sans-Serif" font-size="10.00">src/js/consensus.cpp</text>
</a>
</g>
</g>
<!-- Node24&#45;&gt;Node26 -->
<g id="edge39" class="edge">
<title>Node24&#45;&gt;Node26</title>
<path fill="none" stroke="midnightblue" d="M1750.48,-286.54C1750.48,-274.17 1750.48,-258.62 1750.48,-249.13"/>
<polygon fill="midnightblue" stroke="midnightblue" points="1746.98,-286.73 1750.48,-296.73 1753.98,-286.73 1746.98,-286.73"/>
</g>
<!-- Node27 -->
<g id="node27" class="node">
<title>Node27</title>
<g id="a_node27"><a xlink:href="conv_8cpp.html" target="_top" xlink:title=" ">
<polygon fill="white" stroke="black" points="1826.48,-230 1826.48,-249 1914.48,-249 1914.48,-230 1826.48,-230"/>
<text text-anchor="middle" x="1870.48" y="-237" font-family="Helvetica,sans-Serif" font-size="10.00">src/js/conv.cpp</text>
</a>
</g>
</g>
<!-- Node24&#45;&gt;Node27 -->
<g id="edge41" class="edge">
<title>Node24&#45;&gt;Node27</title>
<path fill="none" stroke="midnightblue" d="M1775.48,-291.96C1799.27,-279.07 1834.34,-260.07 1854.55,-249.13"/>
<polygon fill="midnightblue" stroke="midnightblue" points="1773.79,-288.89 1766.66,-296.73 1777.12,-295.05 1773.79,-288.89"/>
</g>
<!-- Node28 -->
<g id="node28" class="node">
<title>Node28</title>
<g id="a_node28"><a xlink:href="js_2crypto_8cpp.html" target="_top" xlink:title=" ">
<polygon fill="white" stroke="black" points="1932.48,-230 1932.48,-249 2028.48,-249 2028.48,-230 1932.48,-230"/>
<text text-anchor="middle" x="1980.48" y="-237" font-family="Helvetica,sans-Serif" font-size="10.00">src/js/crypto.cpp</text>
</a>
</g>
</g>
<!-- Node24&#45;&gt;Node28 -->
<g id="edge43" class="edge">
<title>Node24&#45;&gt;Node28</title>
<path fill="none" stroke="midnightblue" d="M1790.85,-294.09C1836.35,-281.23 1909.29,-260.62 1950.18,-249.06"/>
<polygon fill="midnightblue" stroke="midnightblue" points="1789.69,-290.78 1781.02,-296.87 1791.59,-297.52 1789.69,-290.78"/>
</g>
<!-- Node29 -->
<g id="node29" class="node">
<title>Node29</title>
<g id="a_node29"><a xlink:href="js_2historical_8cpp.html" target="_top" xlink:title=" ">
<polygon fill="white" stroke="black" points="2046.48,-230 2046.48,-249 2156.48,-249 2156.48,-230 2046.48,-230"/>
<text text-anchor="middle" x="2101.48" y="-237" font-family="Helvetica,sans-Serif" font-size="10.00">src/js/historical.cpp</text>
</a>
</g>
</g>
<!-- Node24&#45;&gt;Node29 -->
<g id="edge45" class="edge">
<title>Node24&#45;&gt;Node29</title>
<path fill="none" stroke="midnightblue" d="M1799.8,-297.57C1857.09,-288.19 1954.37,-271.72 2037.48,-255 2046.52,-253.18 2056.25,-251.06 2065.33,-249.01"/>
<polygon fill="midnightblue" stroke="midnightblue" points="1798.89,-294.17 1789.58,-299.24 1800.02,-301.08 1798.89,-294.17"/>
</g>
<!-- Node30 -->
<g id="node30" class="node">
<title>Node30</title>
<g id="a_node30"><a xlink:href="openenclave_8cpp.html" target="_top" xlink:title=" ">
<polygon fill="white" stroke="black" points="1546.48,-230 1546.48,-249 1674.48,-249 1674.48,-230 1546.48,-230"/>
<text text-anchor="middle" x="1610.48" y="-237" font-family="Helvetica,sans-Serif" font-size="10.00">src/js/openenclave.cpp</text>
</a>
</g>
</g>
<!-- Node24&#45;&gt;Node30 -->
<g id="edge47" class="edge">
<title>Node24&#45;&gt;Node30</title>
<path fill="none" stroke="midnightblue" d="M1722.72,-292.61C1694.99,-279.74 1653.14,-260.31 1629.15,-249.17"/>
<polygon fill="midnightblue" stroke="midnightblue" points="1721.34,-295.83 1731.89,-296.87 1724.29,-289.48 1721.34,-295.83"/>
</g>
<!-- Node26&#45;&gt;Node9 -->
<g id="edge40" class="edge">
<title>Node26&#45;&gt;Node9</title>
<path fill="none" stroke="midnightblue" d="M1785.09,-226.73C1819.11,-215.17 1870.19,-197.8 1900.45,-187.51"/>
<polygon fill="midnightblue" stroke="midnightblue" points="1783.89,-223.44 1775.55,-229.98 1786.15,-230.07 1783.89,-223.44"/>
</g>
<!-- Node27&#45;&gt;Node9 -->
<g id="edge42" class="edge">
<title>Node27&#45;&gt;Node9</title>
<path fill="none" stroke="midnightblue" d="M1885.27,-222.5C1895.68,-211.24 1909.2,-196.6 1917.61,-187.51"/>
<polygon fill="midnightblue" stroke="midnightblue" points="1882.58,-220.26 1878.36,-229.98 1887.72,-225.01 1882.58,-220.26"/>
</g>
<!-- Node28&#45;&gt;Node9 -->
<g id="edge44" class="edge">
<title>Node28&#45;&gt;Node9</title>
<path fill="none" stroke="midnightblue" d="M1965.69,-222.5C1955.28,-211.24 1941.75,-196.6 1933.34,-187.51"/>
<polygon fill="midnightblue" stroke="midnightblue" points="1963.24,-225.01 1972.6,-229.98 1968.38,-220.26 1963.24,-225.01"/>
</g>
<!-- Node29&#45;&gt;Node9 -->
<g id="edge46" class="edge">
<title>Node29&#45;&gt;Node9</title>
<path fill="none" stroke="midnightblue" d="M2066.67,-226.73C2032.46,-215.17 1981.08,-197.8 1950.65,-187.51"/>
<polygon fill="midnightblue" stroke="midnightblue" points="2065.67,-230.09 2076.26,-229.98 2067.91,-223.46 2065.67,-230.09"/>
</g>
<!-- Node31&#45;&gt;Node12 -->
<g id="edge54" class="edge">
<title>Node31&#45;&gt;Node12</title>
<path fill="none" stroke="midnightblue" d="M2172.42,-112.28C2171.1,-112.19 2169.78,-112.09 2168.48,-112 1780.6,-84.98 1313.21,-72.23 1148.5,-68.34"/>
<polygon fill="midnightblue" stroke="midnightblue" points="2172.46,-115.8 2182.7,-113.08 2173.01,-108.82 2172.46,-115.8"/>
</g>
<!-- Node32&#45;&gt;Node11 -->
<g id="edge56" class="edge">
<title>Node32&#45;&gt;Node11</title>
<path fill="none" stroke="midnightblue" d="M1046.88,-287.9C1031.9,-260.44 1003.51,-208.4 992.25,-187.76"/>
<polygon fill="midnightblue" stroke="midnightblue" points="1043.87,-289.7 1051.73,-296.81 1050.02,-286.35 1043.87,-289.7"/>
</g>
<!-- Node33&#45;&gt;Node11 -->
<g id="edge58" class="edge">
<title>Node33&#45;&gt;Node11</title>
<path fill="none" stroke="midnightblue" d="M867.21,-289.64C884.65,-273.15 912.85,-246.62 937.48,-224 951.41,-211.2 967.73,-196.58 977.84,-187.57"/>
<polygon fill="midnightblue" stroke="midnightblue" points="864.42,-287.46 859.57,-296.87 869.23,-292.54 864.42,-287.46"/>
</g>
<!-- Node33&#45;&gt;Node15 -->
<g id="edge59" class="edge">
<title>Node33&#45;&gt;Node15</title>
<path fill="none" stroke="midnightblue" d="M798.97,-294.87C743.27,-283.38 654.57,-265.07 595.68,-252.92"/>
<polygon fill="midnightblue" stroke="midnightblue" points="798.47,-298.34 808.97,-296.94 799.89,-291.49 798.47,-298.34"/>
</g>
<!-- Node34&#45;&gt;Node11 -->
<g id="edge61" class="edge">
<title>Node34&#45;&gt;Node11</title>
<path fill="none" stroke="midnightblue" d="M1189.98,-291.85C1143.03,-265.68 1041.57,-209.15 1002.89,-187.59"/>
<polygon fill="midnightblue" stroke="midnightblue" points="1188.44,-294.99 1198.87,-296.81 1191.84,-288.88 1188.44,-294.99"/>
</g>
<!-- Node35&#45;&gt;Node11 -->
<g id="edge63" class="edge">
<title>Node35&#45;&gt;Node11</title>
<path fill="none" stroke="midnightblue" d="M749.85,-348.24C751.29,-330.69 755.73,-307.3 768.48,-291 782.12,-273.55 917.53,-210.8 968.34,-187.66"/>
<polygon fill="midnightblue" stroke="midnightblue" points="746.35,-348.12 749.3,-358.29 753.34,-348.5 746.35,-348.12"/>
</g>
<!-- Node35&#45;&gt;Node15 -->
<g id="edge64" class="edge">
<title>Node35&#45;&gt;Node15</title>
<path fill="none" stroke="midnightblue" d="M684.11,-362.98C634.75,-354.47 572.53,-340.5 554.48,-322 536.82,-303.91 534.39,-272.76 534.64,-254.66"/>
<polygon fill="midnightblue" stroke="midnightblue" points="683.67,-366.45 694.11,-364.66 684.83,-359.55 683.67,-366.45"/>
</g>
<!-- Node35&#45;&gt;Node17 -->
<g id="edge65" class="edge">
<title>Node35&#45;&gt;Node17</title>
<path fill="none" stroke="midnightblue" d="M717.61,-353.14C697.27,-340.79 671.92,-325.39 656.48,-316.01"/>
<polygon fill="midnightblue" stroke="midnightblue" points="715.9,-356.2 726.26,-358.4 719.53,-350.21 715.9,-356.2"/>
</g>
<!-- Node35&#45;&gt;Node32 -->
<g id="edge66" class="edge">
<title>Node35&#45;&gt;Node32</title>
<path fill="none" stroke="midnightblue" d="M814.61,-357.99C891.18,-341.5 968.16,-325.59 1014.47,-316.08"/>
<polygon fill="midnightblue" stroke="midnightblue" points="813.82,-354.58 804.78,-360.11 815.3,-361.42 813.82,-354.58"/>
</g>
<!-- Node35&#45;&gt;Node33 -->
<g id="edge67" class="edge">
<title>Node35&#45;&gt;Node33</title>
<path fill="none" stroke="midnightblue" d="M779.82,-352.97C798.97,-340.65 822.75,-325.35 837.26,-316.01"/>
<polygon fill="midnightblue" stroke="midnightblue" points="777.91,-350.04 771.39,-358.4 781.7,-355.93 777.91,-350.04"/>
</g>
</g>
</svg>
        <g id="navigator" transform="translate(0 0)" fill="#404254">
                <rect fill="#f2f5e9" fill-opacity="0.5" stroke="#606060" stroke-width=".5" x="0" y="0" width="60" height="60"/>
                <use id="zoomplus" xlink:href="#zoomPlus" x="17" y="9" onmousedown="handleZoom(evt,'in')"/>
                <use id="zoomminus" xlink:href="#zoomMin" x="42" y="9" onmousedown="handleZoom(evt,'out')"/>
                <use id="reset" xlink:href="#resetDef" x="30" y="36" onmousedown="handleReset()"/>
                <g id="arrowUp" xlink:href="#dirArrow" transform="translate(30 24)" onmousedown="handlePan(0,-1)">
                  <use xlink:href="#rim" fill="#404040">
                        <set attributeName="fill" to="#808080" begin="arrowUp.mouseover" end="arrowUp.mouseout"/>
                  </use>
                  <path fill="none" stroke="white" stroke-width="1.5" d="M0,-3.0v7 M-2.5,-0.5L0,-3.0L2.5,-0.5"/>
                </g>
                <g id="arrowRight" xlink:href="#dirArrow" transform="rotate(90) translate(36 -43)" onmousedown="handlePan(1,0)">
                  <use xlink:href="#rim" fill="#404040">
                        <set attributeName="fill" to="#808080" begin="arrowRight.mouseover" end="arrowRight.mouseout"/>
                  </use>
                  <path fill="none" stroke="white" stroke-width="1.5" d="M0,-3.0v7 M-2.5,-0.5L0,-3.0L2.5,-0.5"/>
                </g>
                <g id="arrowDown" xlink:href="#dirArrow" transform="rotate(180) translate(-30 -48)" onmousedown="handlePan(0,1)">
                  <use xlink:href="#rim" fill="#404040">
                        <set attributeName="fill" to="#808080" begin="arrowDown.mouseover" end="arrowDown.mouseout"/>
                  </use>
                  <path fill="none" stroke="white" stroke-width="1.5" d="M0,-3.0v7 M-2.5,-0.5L0,-3.0L2.5,-0.5"/>
                </g>
                <g id="arrowLeft" xlink:href="#dirArrow" transform="rotate(270) translate(-36 17)" onmousedown="handlePan(-1,0)">
                  <use xlink:href="#rim" fill="#404040">
                        <set attributeName="fill" to="#808080" begin="arrowLeft.mouseover" end="arrowLeft.mouseout"/>
                  </use>
                  <path fill="none" stroke="white" stroke-width="1.5" d="M0,-3.0v7 M-2.5,-0.5L0,-3.0L2.5,-0.5"/>
                </g>
        </g>
        <svg viewBox="0 0 15 15" width="100%" height="30px" preserveAspectRatio="xMaxYMin meet">
         <g id="arrow_out" transform="scale(0.3 0.3)">
          <a xlink:href="config_8h__dep__incl_org.svg" target="_base">
           <rect id="button" ry="5" rx="5" y="6" x="6" height="38" width="38"
                fill="#f2f5e9" fill-opacity="0.5" stroke="#606060" stroke-width="1.0"/>
           <path id="arrow"
             d="M 11.500037,31.436501 C 11.940474,20.09759 22.043105,11.32322 32.158766,21.979434 L 37.068811,17.246167 C 37.068811,17.246167 37.088388,32 37.088388,32 L 22.160133,31.978069 C 22.160133,31.978069 26.997745,27.140456 26.997745,27.140456 C 18.528582,18.264221 13.291696,25.230495 11.500037,31.436501 z"
             style="fill:#404040;"/>
          </a>
         </g>
        </svg>
</svg>
