<?xml version="1.0" encoding="UTF-8" standalone="no"?>
<!DOCTYPE svg PUBLIC "-//W3C//DTD SVG 1.1//EN"
 "http://www.w3.org/Graphics/SVG/1.1/DTD/svg11.dtd">
<!-- Generated by graphviz version 2.43.0 (0)
 -->
<!-- Title: src/tls/context.h Pages: 1 -->
<!--zoomable 934 -->
<svg id="main" version="1.1" xmlns="http://www.w3.org/2000/svg" xmlns:xlink="http://www.w3.org/1999/xlink" xml:space="preserve" onload="init(evt)">
<style type="text/css"><![CDATA[
.edge:hover path { stroke: red; }
.edge:hover polygon { stroke: red; fill: red; }
]]></style>
<script type="text/javascript"><![CDATA[
var edges = document.getElementsByTagName('g');
if (edges && edges.length) {
  for (var i=0;i<edges.length;i++) {
    if (edges[i].id.substr(0,4)=='edge') {
      edges[i].setAttribute('class','edge');
    }
  }
}
]]></script>
        <defs>
                <circle id="rim" cx="0" cy="0" r="7"/>
                <circle id="rim2" cx="0" cy="0" r="3.5"/>
                <g id="zoomPlus">
                        <use xlink:href="#rim" fill="#404040">
                                <set attributeName="fill" to="#808080" begin="zoomplus.mouseover" end="zoomplus.mouseout"/>
                        </use>
                        <path d="M-4,0h8M0,-4v8" fill="none" stroke="white" stroke-width="1.5" pointer-events="none"/>
                </g>
                <g id="zoomMin">
                        <use xlink:href="#rim" fill="#404040">
                                <set attributeName="fill" to="#808080" begin="zoomminus.mouseover" end="zoomminus.mouseout"/>
                        </use>
                        <path d="M-4,0h8" fill="none" stroke="white" stroke-width="1.5" pointer-events="none"/>
                </g>
                <g id="dirArrow">
                        <path fill="none" stroke="white" stroke-width="1.5" d="M0,-3.0v7 M-2.5,-0.5L0,-3.0L2.5,-0.5"/>
                </g>
               <g id="resetDef">
                       <use xlink:href="#rim2" fill="#404040">
                               <set attributeName="fill" to="#808080" begin="reset.mouseover" end="reset.mouseout"/>
                       </use>
               </g>
        </defs>

<script type="text/javascript">
var viewWidth = 1339;
var viewHeight = 934;
var sectionId = 'dynsection-1';
</script>
<script xlink:href="svgpan.js"/>
<svg id="graph" class="graph">
<g id="viewport">
<title>src/tls/context.h</title>
<polygon fill="white" stroke="transparent" points="-4,4 -4,-930 1334.5,-930 1334.5,4 -4,4"/>
<!-- Node1 -->
<g id="node1" class="node">
<title>Node1</title>
<g id="a_node1"><a xlink:title=" ">
<polygon fill="#bfbfbf" stroke="black" points="1055,-906.5 1055,-925.5 1150,-925.5 1150,-906.5 1055,-906.5"/>
<text text-anchor="middle" x="1102.5" y="-913.5" font-family="Helvetica,sans-Serif" font-size="10.00">src/tls/context.h</text>
</a>
</g>
</g>
<!-- Node2 -->
<g id="node2" class="node">
<title>Node2</title>
<g id="a_node2"><a xlink:href="rpc__sessions_8h.html" target="_top" xlink:title=" ">
<polygon fill="white" stroke="black" points="1077.5,-498 1077.5,-517 1223.5,-517 1223.5,-498 1077.5,-498"/>
<text text-anchor="middle" x="1150.5" y="-505" font-family="Helvetica,sans-Serif" font-size="10.00">src/enclave/rpc_sessions.h</text>
</a>
</g>
</g>
<!-- Node1&#45;&gt;Node2 -->
<g id="edge1" class="edge">
<title>Node1&#45;&gt;Node2</title>
<path fill="none" stroke="midnightblue" d="M1130.25,-901.84C1162.25,-884.51 1210.5,-850.79 1210.5,-805 1210.5,-805 1210.5,-805 1210.5,-629.5 1210.5,-583.07 1174.61,-536.08 1158.34,-517.17"/>
<polygon fill="midnightblue" stroke="midnightblue" points="1128.57,-898.77 1121.31,-906.49 1131.8,-904.98 1128.57,-898.77"/>
</g>
<!-- Node16 -->
<g id="node16" class="node">
<title>Node16</title>
<g id="a_node16"><a xlink:href="tls__endpoint_8h.html" target="_top" xlink:title=" ">
<polygon fill="white" stroke="black" points="695.5,-850.5 695.5,-869.5 839.5,-869.5 839.5,-850.5 695.5,-850.5"/>
<text text-anchor="middle" x="767.5" y="-857.5" font-family="Helvetica,sans-Serif" font-size="10.00">src/enclave/tls_endpoint.h</text>
</a>
</g>
</g>
<!-- Node1&#45;&gt;Node16 -->
<g id="edge25" class="edge">
<title>Node1&#45;&gt;Node16</title>
<path fill="none" stroke="midnightblue" d="M1044.69,-905.68C981.64,-895.52 881.59,-879.39 820.5,-869.54"/>
<polygon fill="midnightblue" stroke="midnightblue" points="1044.43,-909.18 1054.86,-907.32 1045.54,-902.27 1044.43,-909.18"/>
</g>
<!-- Node37 -->
<g id="node37" class="node">
<title>Node37</title>
<g id="a_node37"><a xlink:href="client_8h.html" target="_top" xlink:title=" ">
<polygon fill="white" stroke="black" points="1024,-559.5 1024,-578.5 1109,-578.5 1109,-559.5 1024,-559.5"/>
<text text-anchor="middle" x="1066.5" y="-566.5" font-family="Helvetica,sans-Serif" font-size="10.00">src/tls/client.h</text>
</a>
</g>
</g>
<!-- Node1&#45;&gt;Node37 -->
<g id="edge61" class="edge">
<title>Node1&#45;&gt;Node37</title>
<path fill="none" stroke="midnightblue" d="M1092.91,-897.4C1082.24,-876.15 1066.5,-839.02 1066.5,-805 1066.5,-805 1066.5,-805 1066.5,-691 1066.5,-648.78 1066.5,-598.26 1066.5,-578.51"/>
<polygon fill="midnightblue" stroke="midnightblue" points="1089.91,-899.23 1097.64,-906.47 1096.12,-895.99 1089.91,-899.23"/>
</g>
<!-- Node38 -->
<g id="node38" class="node">
<title>Node38</title>
<g id="a_node38"><a xlink:href="server_8h.html" target="_top" xlink:title=" ">
<polygon fill="white" stroke="black" points="1094.5,-794.5 1094.5,-813.5 1182.5,-813.5 1182.5,-794.5 1094.5,-794.5"/>
<text text-anchor="middle" x="1138.5" y="-801.5" font-family="Helvetica,sans-Serif" font-size="10.00">src/tls/server.h</text>
</a>
</g>
</g>
<!-- Node1&#45;&gt;Node38 -->
<g id="edge64" class="edge">
<title>Node1&#45;&gt;Node38</title>
<path fill="none" stroke="midnightblue" d="M1108.5,-896.67C1116.37,-872.62 1129.86,-831.39 1135.69,-813.59"/>
<polygon fill="midnightblue" stroke="midnightblue" points="1105.11,-895.78 1105.32,-906.37 1111.76,-897.95 1105.11,-895.78"/>
</g>
<!-- Node3 -->
<g id="node3" class="node">
<title>Node3</title>
<g id="a_node3"><a xlink:href="enclave_2enclave_8h.html" target="_top" xlink:title=" ">
<polygon fill="white" stroke="black" points="505.5,-56.5 505.5,-75.5 627.5,-75.5 627.5,-56.5 505.5,-56.5"/>
<text text-anchor="middle" x="566.5" y="-63.5" font-family="Helvetica,sans-Serif" font-size="10.00">src/enclave/enclave.h</text>
</a>
</g>
</g>
<!-- Node2&#45;&gt;Node3 -->
<g id="edge2" class="edge">
<title>Node2&#45;&gt;Node3</title>
<path fill="none" stroke="midnightblue" d="M1194.79,-495.08C1248.09,-478.35 1330.5,-441.63 1330.5,-374.5 1330.5,-374.5 1330.5,-374.5 1330.5,-182.5 1330.5,-111.57 809.02,-79.01 627.73,-69.83"/>
<polygon fill="midnightblue" stroke="midnightblue" points="1193.77,-491.73 1185.21,-497.97 1195.79,-498.43 1193.77,-491.73"/>
</g>
<!-- Node5 -->
<g id="node5" class="node">
<title>Node5</title>
<g id="a_node5"><a xlink:href="ccf__acme__client_8h.html" target="_top" xlink:title=" ">
<polygon fill="white" stroke="black" points="899,-431 899,-450 1048,-450 1048,-431 899,-431"/>
<text text-anchor="middle" x="973.5" y="-438" font-family="Helvetica,sans-Serif" font-size="10.00">src/node/ccf_acme_client.h</text>
</a>
</g>
</g>
<!-- Node2&#45;&gt;Node5 -->
<g id="edge4" class="edge">
<title>Node2&#45;&gt;Node5</title>
<path fill="none" stroke="midnightblue" d="M1117.2,-494.27C1082.07,-481.37 1027.62,-461.38 996.82,-450.06"/>
<polygon fill="midnightblue" stroke="midnightblue" points="1116.4,-497.71 1127,-497.87 1118.82,-491.14 1116.4,-497.71"/>
</g>
<!-- Node6 -->
<g id="node6" class="node">
<title>Node6</title>
<g id="a_node6"><a xlink:href="node__state_8h.html" target="_top" xlink:title=" ">
<polygon fill="white" stroke="black" points="775.5,-174 775.5,-193 899.5,-193 899.5,-174 775.5,-174"/>
<text text-anchor="middle" x="837.5" y="-181" font-family="Helvetica,sans-Serif" font-size="10.00">src/node/node_state.h</text>
</a>
</g>
</g>
<!-- Node2&#45;&gt;Node6 -->
<g id="edge22" class="edge">
<title>Node2&#45;&gt;Node6</title>
<path fill="none" stroke="midnightblue" d="M1181.93,-493.93C1223.75,-474.88 1292.5,-434.46 1292.5,-374.5 1292.5,-374.5 1292.5,-374.5 1292.5,-311 1292.5,-274.52 1290.52,-257.11 1261.5,-235 1206.07,-192.77 1003.39,-185.33 899.62,-184.36"/>
<polygon fill="midnightblue" stroke="midnightblue" points="1180.43,-490.76 1172.69,-497.99 1183.25,-497.17 1180.43,-490.76"/>
</g>
<!-- Node8 -->
<g id="node8" class="node">
<title>Node8</title>
<g id="a_node8"><a xlink:href="node__client_8h.html" target="_top" xlink:title=" ">
<polygon fill="white" stroke="black" points="1087.5,-431 1087.5,-450 1213.5,-450 1213.5,-431 1087.5,-431"/>
<text text-anchor="middle" x="1150.5" y="-438" font-family="Helvetica,sans-Serif" font-size="10.00">src/node/node_client.h</text>
</a>
</g>
</g>
<!-- Node2&#45;&gt;Node8 -->
<g id="edge9" class="edge">
<title>Node2&#45;&gt;Node8</title>
<path fill="none" stroke="midnightblue" d="M1150.5,-487.54C1150.5,-475.17 1150.5,-459.62 1150.5,-450.13"/>
<polygon fill="midnightblue" stroke="midnightblue" points="1147,-487.73 1150.5,-497.73 1154,-487.73 1147,-487.73"/>
</g>
<!-- Node15 -->
<g id="node15" class="node">
<title>Node15</title>
<g id="a_node15"><a xlink:href="resharing_8h.html" target="_top" xlink:title=" ">
<polygon fill="white" stroke="black" points="1136.5,-241 1136.5,-260 1252.5,-260 1252.5,-241 1136.5,-241"/>
<text text-anchor="middle" x="1194.5" y="-248" font-family="Helvetica,sans-Serif" font-size="10.00">src/node/resharing.h</text>
</a>
</g>
</g>
<!-- Node2&#45;&gt;Node15 -->
<g id="edge23" class="edge">
<title>Node2&#45;&gt;Node15</title>
<path fill="none" stroke="midnightblue" d="M1181.45,-493.34C1196.77,-485.05 1213.81,-472.71 1222.5,-456 1258.05,-387.65 1214.14,-289.86 1199.16,-260.3"/>
<polygon fill="midnightblue" stroke="midnightblue" points="1179.58,-490.36 1172.22,-497.99 1182.72,-496.62 1179.58,-490.36"/>
</g>
<!-- Node4 -->
<g id="node4" class="node">
<title>Node4</title>
<g id="a_node4"><a xlink:href="enclave_2main_8cpp.html" target="_top" xlink:title=" ">
<polygon fill="white" stroke="black" points="506.5,-0.5 506.5,-19.5 626.5,-19.5 626.5,-0.5 506.5,-0.5"/>
<text text-anchor="middle" x="566.5" y="-7.5" font-family="Helvetica,sans-Serif" font-size="10.00">src/enclave/main.cpp</text>
</a>
</g>
</g>
<!-- Node3&#45;&gt;Node4 -->
<g id="edge3" class="edge">
<title>Node3&#45;&gt;Node4</title>
<path fill="none" stroke="midnightblue" d="M566.5,-45.8C566.5,-36.91 566.5,-26.78 566.5,-19.75"/>
<polygon fill="midnightblue" stroke="midnightblue" points="563,-46.08 566.5,-56.08 570,-46.08 563,-46.08"/>
</g>
<!-- Node5&#45;&gt;Node6 -->
<g id="edge5" class="edge">
<title>Node5&#45;&gt;Node6</title>
<path fill="none" stroke="midnightblue" d="M931.24,-427.38C911.39,-419.57 889.14,-407.35 875.5,-389 828.96,-326.41 833.9,-223.85 836.58,-193.33"/>
<polygon fill="midnightblue" stroke="midnightblue" points="930.15,-430.71 940.75,-430.88 932.57,-424.14 930.15,-430.71"/>
</g>
<!-- Node6&#45;&gt;Node3 -->
<g id="edge6" class="edge">
<title>Node6&#45;&gt;Node3</title>
<path fill="none" stroke="midnightblue" d="M801.98,-170.64C773.87,-160.98 733.78,-146.6 699.5,-132 656.47,-113.67 607.4,-88.55 582.63,-75.56"/>
<polygon fill="midnightblue" stroke="midnightblue" points="801.16,-174.06 811.76,-173.97 803.42,-167.43 801.16,-174.06"/>
</g>
<!-- Node7 -->
<g id="node7" class="node">
<title>Node7</title>
<g id="a_node7"><a xlink:href="gov__effects_8h.html" target="_top" xlink:title=" ">
<polygon fill="white" stroke="black" points="708.5,-112.5 708.5,-131.5 852.5,-131.5 852.5,-112.5 708.5,-112.5"/>
<text text-anchor="middle" x="780.5" y="-119.5" font-family="Helvetica,sans-Serif" font-size="10.00">src/node/rpc/gov_effects.h</text>
</a>
</g>
</g>
<!-- Node6&#45;&gt;Node7 -->
<g id="edge7" class="edge">
<title>Node6&#45;&gt;Node7</title>
<path fill="none" stroke="midnightblue" d="M822.17,-166.5C811.38,-155.24 797.36,-140.6 788.65,-131.51"/>
<polygon fill="midnightblue" stroke="midnightblue" points="819.89,-169.18 829.33,-173.98 824.94,-164.33 819.89,-169.18"/>
</g>
<!-- Node7&#45;&gt;Node3 -->
<g id="edge8" class="edge">
<title>Node7&#45;&gt;Node3</title>
<path fill="none" stroke="midnightblue" d="M736.74,-109.96C696.33,-99.76 637.13,-84.82 600.25,-75.52"/>
<polygon fill="midnightblue" stroke="midnightblue" points="736.04,-113.39 746.59,-112.44 737.75,-106.6 736.04,-113.39"/>
</g>
<!-- Node9 -->
<g id="node9" class="node">
<title>Node9</title>
<g id="a_node9"><a xlink:href="orc__requests_8h.html" target="_top" xlink:title=" ">
<polygon fill="white" stroke="black" points="885,-358.5 885,-388.5 1004,-388.5 1004,-358.5 885,-358.5"/>
<text text-anchor="start" x="893" y="-376.5" font-family="Helvetica,sans-Serif" font-size="10.00">src/consensus/aft/orc</text>
<text text-anchor="middle" x="944.5" y="-365.5" font-family="Helvetica,sans-Serif" font-size="10.00">_requests.h</text>
</a>
</g>
</g>
<!-- Node8&#45;&gt;Node9 -->
<g id="edge10" class="edge">
<title>Node8&#45;&gt;Node9</title>
<path fill="none" stroke="midnightblue" d="M1113.34,-427.77C1078.41,-416.75 1026.09,-400.24 988.96,-388.53"/>
<polygon fill="midnightblue" stroke="midnightblue" points="1112.56,-431.2 1123.14,-430.87 1114.66,-424.52 1112.56,-431.2"/>
</g>
<!-- Node10 -->
<g id="node10" class="node">
<title>Node10</title>
<g id="a_node10"><a xlink:href="raft_8h.html" target="_top" xlink:title=" ">
<polygon fill="white" stroke="black" points="954,-302.5 954,-321.5 1083,-321.5 1083,-302.5 954,-302.5"/>
<text text-anchor="middle" x="1018.5" y="-309.5" font-family="Helvetica,sans-Serif" font-size="10.00">src/consensus/aft/raft.h</text>
</a>
</g>
</g>
<!-- Node8&#45;&gt;Node10 -->
<g id="edge17" class="edge">
<title>Node8&#45;&gt;Node10</title>
<path fill="none" stroke="midnightblue" d="M1158.95,-421.64C1166.02,-403.8 1172.98,-376.45 1159.5,-358 1141.92,-333.93 1111.32,-322.44 1083.11,-317.06"/>
<polygon fill="midnightblue" stroke="midnightblue" points="1155.7,-420.34 1154.93,-430.9 1162.12,-423.12 1155.7,-420.34"/>
</g>
<!-- Node13 -->
<g id="node13" class="node">
<title>Node13</title>
<g id="a_node13"><a xlink:href="http__node__client_8h.html" target="_top" xlink:title=" ">
<polygon fill="white" stroke="black" points="984.5,-235.5 984.5,-265.5 1094.5,-265.5 1094.5,-235.5 984.5,-235.5"/>
<text text-anchor="start" x="992.5" y="-253.5" font-family="Helvetica,sans-Serif" font-size="10.00">src/node/http_node</text>
<text text-anchor="middle" x="1039.5" y="-242.5" font-family="Helvetica,sans-Serif" font-size="10.00">_client.h</text>
</a>
</g>
</g>
<!-- Node8&#45;&gt;Node13 -->
<g id="edge18" class="edge">
<title>Node8&#45;&gt;Node13</title>
<path fill="none" stroke="midnightblue" d="M1163.42,-422.28C1174.39,-405.39 1186.85,-379.16 1176.5,-358 1154.72,-313.48 1104.36,-282.2 1071.15,-265.53"/>
<polygon fill="midnightblue" stroke="midnightblue" points="1160.46,-420.4 1157.63,-430.61 1166.21,-424.4 1160.46,-420.4"/>
</g>
<!-- Node14 -->
<g id="node14" class="node">
<title>Node14</title>
<g id="a_node14"><a xlink:href="retired__nodes__cleanup_8h.html" target="_top" xlink:title=" ">
<polygon fill="white" stroke="black" points="1022.5,-358.5 1022.5,-388.5 1150.5,-388.5 1150.5,-358.5 1022.5,-358.5"/>
<text text-anchor="start" x="1030.5" y="-376.5" font-family="Helvetica,sans-Serif" font-size="10.00">src/node/retired_nodes</text>
<text text-anchor="middle" x="1086.5" y="-365.5" font-family="Helvetica,sans-Serif" font-size="10.00">_cleanup.h</text>
</a>
</g>
</g>
<!-- Node8&#45;&gt;Node14 -->
<g id="edge20" class="edge">
<title>Node8&#45;&gt;Node14</title>
<path fill="none" stroke="midnightblue" d="M1134.55,-423.3C1124.05,-412.63 1110.43,-398.8 1100.37,-388.59"/>
<polygon fill="midnightblue" stroke="midnightblue" points="1132.36,-426.06 1141.87,-430.73 1137.35,-421.15 1132.36,-426.06"/>
</g>
<!-- Node9&#45;&gt;Node10 -->
<g id="edge11" class="edge">
<title>Node9&#45;&gt;Node10</title>
<path fill="none" stroke="midnightblue" d="M970.13,-351.89C983,-341.54 997.91,-329.56 1007.73,-321.66"/>
<polygon fill="midnightblue" stroke="midnightblue" points="967.64,-349.41 962.04,-358.4 972.02,-354.86 967.64,-349.41"/>
</g>
<!-- Node11 -->
<g id="node11" class="node">
<title>Node11</title>
<g id="a_node11"><a xlink:href="node__frontend_8h.html" target="_top" xlink:title=" ">
<polygon fill="white" stroke="black" points="594.5,-302.5 594.5,-321.5 752.5,-321.5 752.5,-302.5 594.5,-302.5"/>
<text text-anchor="middle" x="673.5" y="-309.5" font-family="Helvetica,sans-Serif" font-size="10.00">src/node/rpc/node_frontend.h</text>
</a>
</g>
</g>
<!-- Node9&#45;&gt;Node11 -->
<g id="edge13" class="edge">
<title>Node9&#45;&gt;Node11</title>
<path fill="none" stroke="midnightblue" d="M874.92,-357.22C823.21,-345.87 754.56,-330.8 712.24,-321.51"/>
<polygon fill="midnightblue" stroke="midnightblue" points="874.17,-360.64 884.69,-359.37 875.68,-353.81 874.17,-360.64"/>
</g>
<!-- Node10&#45;&gt;Node6 -->
<g id="edge12" class="edge">
<title>Node10&#45;&gt;Node6</title>
<path fill="none" stroke="midnightblue" d="M997.81,-296.54C959.98,-270.1 880.73,-214.71 850.03,-193.26"/>
<polygon fill="midnightblue" stroke="midnightblue" points="995.86,-299.45 1006.06,-302.31 999.87,-293.71 995.86,-299.45"/>
</g>
<!-- Node11&#45;&gt;Node3 -->
<g id="edge14" class="edge">
<title>Node11&#45;&gt;Node3</title>
<path fill="none" stroke="midnightblue" d="M665.62,-293.02C644.23,-244.25 585.68,-110.74 570.26,-75.58"/>
<polygon fill="midnightblue" stroke="midnightblue" points="662.47,-294.56 669.69,-302.32 668.88,-291.75 662.47,-294.56"/>
</g>
<!-- Node12 -->
<g id="node12" class="node">
<title>Node12</title>
<g id="a_node12"><a xlink:href="jwt__key__auto__refresh_8h.html" target="_top" xlink:title=" ">
<polygon fill="white" stroke="black" points="665,-235.5 665,-265.5 790,-265.5 790,-235.5 665,-235.5"/>
<text text-anchor="start" x="673" y="-253.5" font-family="Helvetica,sans-Serif" font-size="10.00">src/node/jwt_key_auto</text>
<text text-anchor="middle" x="727.5" y="-242.5" font-family="Helvetica,sans-Serif" font-size="10.00">_refresh.h</text>
</a>
</g>
</g>
<!-- Node11&#45;&gt;Node12 -->
<g id="edge15" class="edge">
<title>Node11&#45;&gt;Node12</title>
<path fill="none" stroke="midnightblue" d="M688.19,-294.81C696.51,-285.65 706.8,-274.3 714.77,-265.52"/>
<polygon fill="midnightblue" stroke="midnightblue" points="685.37,-292.72 681.24,-302.48 690.55,-297.42 685.37,-292.72"/>
</g>
<!-- Node12&#45;&gt;Node6 -->
<g id="edge16" class="edge">
<title>Node12&#45;&gt;Node6</title>
<path fill="none" stroke="midnightblue" d="M759.98,-230.31C780.93,-217.93 807.16,-202.43 823.1,-193.01"/>
<polygon fill="midnightblue" stroke="midnightblue" points="758.2,-227.3 751.37,-235.4 761.76,-233.32 758.2,-227.3"/>
</g>
<!-- Node13&#45;&gt;Node6 -->
<g id="edge19" class="edge">
<title>Node13&#45;&gt;Node6</title>
<path fill="none" stroke="midnightblue" d="M985.95,-232.27C946.59,-219.6 894.79,-202.93 863.94,-193.01"/>
<polygon fill="midnightblue" stroke="midnightblue" points="985.08,-235.66 995.67,-235.4 987.22,-229 985.08,-235.66"/>
</g>
<!-- Node14&#45;&gt;Node10 -->
<g id="edge21" class="edge">
<title>Node14&#45;&gt;Node10</title>
<path fill="none" stroke="midnightblue" d="M1062.61,-351.6C1050.86,-341.32 1037.34,-329.48 1028.39,-321.66"/>
<polygon fill="midnightblue" stroke="midnightblue" points="1060.55,-354.45 1070.38,-358.4 1065.16,-349.18 1060.55,-354.45"/>
</g>
<!-- Node15&#45;&gt;Node6 -->
<g id="edge24" class="edge">
<title>Node15&#45;&gt;Node6</title>
<path fill="none" stroke="midnightblue" d="M1137.47,-239.12C1067.3,-226.34 949.5,-204.89 884.36,-193.03"/>
<polygon fill="midnightblue" stroke="midnightblue" points="1137,-242.59 1147.46,-240.94 1138.25,-235.7 1137,-242.59"/>
</g>
<!-- Node17 -->
<g id="node17" class="node">
<title>Node17</title>
<g id="a_node17"><a xlink:href="http__parser_8h.html" target="_top" xlink:title=" ">
<polygon fill="white" stroke="black" points="623.5,-738.5 623.5,-757.5 743.5,-757.5 743.5,-738.5 623.5,-738.5"/>
<text text-anchor="middle" x="683.5" y="-745.5" font-family="Helvetica,sans-Serif" font-size="10.00">src/http/http_parser.h</text>
</a>
</g>
</g>
<!-- Node16&#45;&gt;Node17 -->
<g id="edge26" class="edge">
<title>Node16&#45;&gt;Node17</title>
<path fill="none" stroke="midnightblue" d="M765.01,-839.94C762.44,-826.13 757.37,-807.58 747.5,-794 735.69,-777.74 716.14,-765.24 701.75,-757.59"/>
<polygon fill="midnightblue" stroke="midnightblue" points="761.61,-840.87 766.62,-850.2 768.53,-839.78 761.61,-840.87"/>
</g>
<!-- Node36 -->
<g id="node36" class="node">
<title>Node36</title>
<g id="a_node36"><a xlink:href="http__proc_8h.html" target="_top" xlink:title=" ">
<polygon fill="white" stroke="black" points="628,-794.5 628,-813.5 739,-813.5 739,-794.5 628,-794.5"/>
<text text-anchor="middle" x="683.5" y="-801.5" font-family="Helvetica,sans-Serif" font-size="10.00">src/http/http_proc.h</text>
</a>
</g>
</g>
<!-- Node16&#45;&gt;Node36 -->
<g id="edge59" class="edge">
<title>Node16&#45;&gt;Node36</title>
<path fill="none" stroke="midnightblue" d="M745.57,-844.9C730.16,-835 710.05,-822.07 696.96,-813.65"/>
<polygon fill="midnightblue" stroke="midnightblue" points="743.7,-847.86 754,-850.32 747.48,-841.97 743.7,-847.86"/>
</g>
<!-- Node18 -->
<g id="node18" class="node">
<title>Node18</title>
<g id="a_node18"><a xlink:href="rpc__tls__client_8h.html" target="_top" xlink:title=" ">
<polygon fill="white" stroke="black" points="366,-615.5 366,-645.5 467,-645.5 467,-615.5 366,-615.5"/>
<text text-anchor="start" x="374" y="-633.5" font-family="Helvetica,sans-Serif" font-size="10.00">src/clients/rpc_tls</text>
<text text-anchor="middle" x="416.5" y="-622.5" font-family="Helvetica,sans-Serif" font-size="10.00">_client.h</text>
</a>
</g>
</g>
<!-- Node17&#45;&gt;Node18 -->
<g id="edge27" class="edge">
<title>Node17&#45;&gt;Node18</title>
<path fill="none" stroke="midnightblue" d="M613.2,-739.97C574.84,-733.91 527.56,-722.69 489.5,-702 463.49,-687.86 440.18,-661.92 427.23,-645.75"/>
<polygon fill="midnightblue" stroke="midnightblue" points="612.84,-743.46 623.25,-741.47 613.88,-736.53 612.84,-743.46"/>
</g>
<!-- Node23 -->
<g id="node23" class="node">
<title>Node23</title>
<g id="a_node23"><a xlink:href="acme__challenge__server_8h.html" target="_top" xlink:title=" ">
<polygon fill="white" stroke="black" points="480,-492.5 480,-522.5 617,-522.5 617,-492.5 480,-492.5"/>
<text text-anchor="start" x="488" y="-510.5" font-family="Helvetica,sans-Serif" font-size="10.00">src/host/acme_challenge</text>
<text text-anchor="middle" x="548.5" y="-499.5" font-family="Helvetica,sans-Serif" font-size="10.00">_server.h</text>
</a>
</g>
</g>
<!-- Node17&#45;&gt;Node23 -->
<g id="edge33" class="edge">
<title>Node17&#45;&gt;Node23</title>
<path fill="none" stroke="midnightblue" d="M638.82,-735.38C597.85,-721.83 540.83,-694.79 522.5,-646 506.26,-602.79 528.45,-547.98 540.97,-522.59"/>
<polygon fill="midnightblue" stroke="midnightblue" points="638.01,-738.79 648.6,-738.46 640.12,-732.12 638.01,-738.79"/>
</g>
<!-- Node25 -->
<g id="node25" class="node">
<title>Node25</title>
<g id="a_node25"><a xlink:href="http__endpoint_8h.html" target="_top" xlink:title=" ">
<polygon fill="white" stroke="black" points="810,-559.5 810,-578.5 943,-578.5 943,-559.5 810,-559.5"/>
<text text-anchor="middle" x="876.5" y="-566.5" font-family="Helvetica,sans-Serif" font-size="10.00">src/http/http_endpoint.h</text>
</a>
</g>
</g>
<!-- Node17&#45;&gt;Node25 -->
<g id="edge35" class="edge">
<title>Node17&#45;&gt;Node25</title>
<path fill="none" stroke="midnightblue" d="M723.11,-735.16C764.02,-720.83 826.52,-692.62 860.5,-646 875.43,-625.52 877.06,-594.13 876.87,-578.9"/>
<polygon fill="midnightblue" stroke="midnightblue" points="721.82,-731.91 713.47,-738.43 724.06,-738.54 721.82,-731.91"/>
</g>
<!-- Node26 -->
<g id="node26" class="node">
<title>Node26</title>
<g id="a_node26"><a xlink:href="http__jwt_8h.html" target="_top" xlink:title=" ">
<polygon fill="white" stroke="black" points="131,-682.5 131,-701.5 236,-701.5 236,-682.5 131,-682.5"/>
<text text-anchor="middle" x="183.5" y="-689.5" font-family="Helvetica,sans-Serif" font-size="10.00">src/http/http_jwt.h</text>
</a>
</g>
</g>
<!-- Node17&#45;&gt;Node26 -->
<g id="edge38" class="edge">
<title>Node17&#45;&gt;Node26</title>
<path fill="none" stroke="midnightblue" d="M613.03,-739.39C511.54,-728.43 326.48,-708.44 236.06,-698.68"/>
<polygon fill="midnightblue" stroke="midnightblue" points="612.87,-742.89 623.19,-740.49 613.62,-735.93 612.87,-742.89"/>
</g>
<!-- Node31 -->
<g id="node31" class="node">
<title>Node31</title>
<g id="a_node31"><a xlink:href="http__rpc__context_8h.html" target="_top" xlink:title=" ">
<polygon fill="white" stroke="black" points="705,-621 705,-640 852,-640 852,-621 705,-621"/>
<text text-anchor="middle" x="778.5" y="-628" font-family="Helvetica,sans-Serif" font-size="10.00">src/http/http_rpc_context.h</text>
</a>
</g>
</g>
<!-- Node17&#45;&gt;Node31 -->
<g id="edge47" class="edge">
<title>Node17&#45;&gt;Node31</title>
<path fill="none" stroke="midnightblue" d="M697.07,-730.5C717.5,-705.66 755.45,-659.52 771.28,-640.28"/>
<polygon fill="midnightblue" stroke="midnightblue" points="694.29,-728.37 690.64,-738.32 699.7,-732.82 694.29,-728.37"/>
</g>
<!-- Node33 -->
<g id="node33" class="node">
<title>Node33</title>
<g id="a_node33"><a xlink:href="http__sig_8h.html" target="_top" xlink:title=" ">
<polygon fill="white" stroke="black" points="580.5,-682.5 580.5,-701.5 684.5,-701.5 684.5,-682.5 580.5,-682.5"/>
<text text-anchor="middle" x="632.5" y="-689.5" font-family="Helvetica,sans-Serif" font-size="10.00">src/http/http_sig.h</text>
</a>
</g>
</g>
<!-- Node17&#45;&gt;Node33 -->
<g id="edge53" class="edge">
<title>Node17&#45;&gt;Node33</title>
<path fill="none" stroke="midnightblue" d="M668.12,-730.72C659.13,-721.2 648.14,-709.56 640.76,-701.75"/>
<polygon fill="midnightblue" stroke="midnightblue" points="665.67,-733.22 675.08,-738.08 670.76,-728.41 665.67,-733.22"/>
</g>
<!-- Node35 -->
<g id="node35" class="node">
<title>Node35</title>
<g id="a_node35"><a xlink:href="acme__client_8h.html" target="_top" xlink:title=" ">
<polygon fill="white" stroke="black" points="909,-682.5 909,-701.5 1038,-701.5 1038,-682.5 909,-682.5"/>
<text text-anchor="middle" x="973.5" y="-689.5" font-family="Helvetica,sans-Serif" font-size="10.00">src/node/acme_client.h</text>
</a>
</g>
</g>
<!-- Node17&#45;&gt;Node35 -->
<g id="edge57" class="edge">
<title>Node17&#45;&gt;Node35</title>
<path fill="none" stroke="midnightblue" d="M739.35,-736.6C794.15,-726.4 876.73,-711.02 927.76,-701.52"/>
<polygon fill="midnightblue" stroke="midnightblue" points="738.64,-733.17 729.45,-738.44 739.92,-740.05 738.64,-733.17"/>
</g>
<!-- Node19 -->
<g id="node19" class="node">
<title>Node19</title>
<g id="a_node19"><a xlink:href="perf__client_8h.html" target="_top" xlink:title=" ">
<polygon fill="white" stroke="black" points="304,-492.5 304,-522.5 415,-522.5 415,-492.5 304,-492.5"/>
<text text-anchor="start" x="312" y="-510.5" font-family="Helvetica,sans-Serif" font-size="10.00">src/clients/perf/perf</text>
<text text-anchor="middle" x="359.5" y="-499.5" font-family="Helvetica,sans-Serif" font-size="10.00">_client.h</text>
</a>
</g>
</g>
<!-- Node18&#45;&gt;Node19 -->
<g id="edge28" class="edge">
<title>Node18&#45;&gt;Node19</title>
<path fill="none" stroke="midnightblue" d="M368.55,-610.79C355.12,-603.07 342.12,-592.65 334.5,-579 324.24,-560.63 336.98,-537.28 347.71,-522.61"/>
<polygon fill="midnightblue" stroke="midnightblue" points="366.91,-613.88 377.38,-615.48 370.19,-607.7 366.91,-613.88"/>
</g>
<!-- Node22 -->
<g id="node22" class="node">
<title>Node22</title>
<g id="a_node22"><a xlink:href="timing_8h.html" target="_top" xlink:title=" ">
<polygon fill="white" stroke="black" points="343.5,-559.5 343.5,-578.5 475.5,-578.5 475.5,-559.5 343.5,-559.5"/>
<text text-anchor="middle" x="409.5" y="-566.5" font-family="Helvetica,sans-Serif" font-size="10.00">src/clients/perf/timing.h</text>
</a>
</g>
</g>
<!-- Node18&#45;&gt;Node22 -->
<g id="edge31" class="edge">
<title>Node18&#45;&gt;Node22</title>
<path fill="none" stroke="midnightblue" d="M413.65,-605.29C412.54,-595.86 411.34,-585.65 410.52,-578.66"/>
<polygon fill="midnightblue" stroke="midnightblue" points="410.2,-605.88 414.84,-615.4 417.15,-605.06 410.2,-605.88"/>
</g>
<!-- Node20 -->
<g id="node20" class="node">
<title>Node20</title>
<g id="a_node20"><a xlink:href="tpcc__client_8cpp.html" target="_top" xlink:title=" ">
<polygon fill="white" stroke="black" points="211.5,-425.5 211.5,-455.5 327.5,-455.5 327.5,-425.5 211.5,-425.5"/>
<text text-anchor="start" x="219.5" y="-443.5" font-family="Helvetica,sans-Serif" font-size="10.00">src/apps/tpcc/clients</text>
<text text-anchor="middle" x="269.5" y="-432.5" font-family="Helvetica,sans-Serif" font-size="10.00">/tpcc_client.cpp</text>
</a>
</g>
</g>
<!-- Node19&#45;&gt;Node20 -->
<g id="edge29" class="edge">
<title>Node19&#45;&gt;Node20</title>
<path fill="none" stroke="midnightblue" d="M331.74,-486.45C317.89,-476.45 301.48,-464.6 288.99,-455.58"/>
<polygon fill="midnightblue" stroke="midnightblue" points="329.82,-489.38 339.97,-492.4 333.91,-483.7 329.82,-489.38"/>
</g>
<!-- Node21 -->
<g id="node21" class="node">
<title>Node21</title>
<g id="a_node21"><a xlink:href="scenario__perf__client_8cpp.html" target="_top" xlink:title=" ">
<polygon fill="white" stroke="black" points="346,-425.5 346,-455.5 479,-455.5 479,-425.5 346,-425.5"/>
<text text-anchor="start" x="354" y="-443.5" font-family="Helvetica,sans-Serif" font-size="10.00">src/clients/perf/scenario</text>
<text text-anchor="middle" x="412.5" y="-432.5" font-family="Helvetica,sans-Serif" font-size="10.00">_perf_client.cpp</text>
</a>
</g>
</g>
<!-- Node19&#45;&gt;Node21 -->
<g id="edge30" class="edge">
<title>Node19&#45;&gt;Node21</title>
<path fill="none" stroke="midnightblue" d="M377.48,-484.45C385.27,-474.9 394.15,-464 401.02,-455.58"/>
<polygon fill="midnightblue" stroke="midnightblue" points="374.61,-482.43 371,-492.4 380.03,-486.86 374.61,-482.43"/>
</g>
<!-- Node22&#45;&gt;Node19 -->
<g id="edge32" class="edge">
<title>Node22&#45;&gt;Node19</title>
<path fill="none" stroke="midnightblue" d="M395.9,-551.81C388.2,-542.65 378.66,-531.3 371.28,-522.52"/>
<polygon fill="midnightblue" stroke="midnightblue" points="393.22,-554.07 402.34,-559.48 398.58,-549.57 393.22,-554.07"/>
</g>
<!-- Node24 -->
<g id="node24" class="node">
<title>Node24</title>
<g id="a_node24"><a xlink:href="host_2main_8cpp.html" target="_top" xlink:title=" ">
<polygon fill="white" stroke="black" points="497,-431 497,-450 600,-450 600,-431 497,-431"/>
<text text-anchor="middle" x="548.5" y="-438" font-family="Helvetica,sans-Serif" font-size="10.00">src/host/main.cpp</text>
</a>
</g>
</g>
<!-- Node23&#45;&gt;Node24 -->
<g id="edge34" class="edge">
<title>Node23&#45;&gt;Node24</title>
<path fill="none" stroke="midnightblue" d="M548.5,-482.25C548.5,-471.02 548.5,-458.38 548.5,-450.19"/>
<polygon fill="midnightblue" stroke="midnightblue" points="545,-482.4 548.5,-492.4 552,-482.4 545,-482.4"/>
</g>
<!-- Node25&#45;&gt;Node2 -->
<g id="edge36" class="edge">
<title>Node25&#45;&gt;Node2</title>
<path fill="none" stroke="midnightblue" d="M925.63,-557.33C978.77,-545.79 1062.42,-527.63 1111.32,-517.01"/>
<polygon fill="midnightblue" stroke="midnightblue" points="924.79,-553.93 915.76,-559.48 926.27,-560.77 924.79,-553.93"/>
</g>
<!-- Node25&#45;&gt;Node23 -->
<g id="edge37" class="edge">
<title>Node25&#45;&gt;Node23</title>
<path fill="none" stroke="midnightblue" d="M819.36,-557.63C763.08,-547.42 677.06,-531.82 617.12,-520.95"/>
<polygon fill="midnightblue" stroke="midnightblue" points="819.04,-561.13 829.51,-559.48 820.29,-554.25 819.04,-561.13"/>
</g>
<!-- Node27 -->
<g id="node27" class="node">
<title>Node27</title>
<g id="a_node27"><a xlink:href="jwt__auth_8cpp.html" target="_top" xlink:title=" ">
<polygon fill="white" stroke="black" points="0,-615.5 0,-645.5 155,-645.5 155,-615.5 0,-615.5"/>
<text text-anchor="start" x="8" y="-633.5" font-family="Helvetica,sans-Serif" font-size="10.00">src/endpoints/authentication</text>
<text text-anchor="middle" x="77.5" y="-622.5" font-family="Helvetica,sans-Serif" font-size="10.00">/jwt_auth.cpp</text>
</a>
</g>
</g>
<!-- Node26&#45;&gt;Node27 -->
<g id="edge39" class="edge">
<title>Node26&#45;&gt;Node27</title>
<path fill="none" stroke="midnightblue" d="M159.52,-677.54C142.51,-667.99 119.72,-655.2 102.48,-645.52"/>
<polygon fill="midnightblue" stroke="midnightblue" points="157.88,-680.63 168.31,-682.48 161.31,-674.53 157.88,-680.63"/>
</g>
<!-- Node28 -->
<g id="node28" class="node">
<title>Node28</title>
<g id="a_node28"><a xlink:href="frontend_8h.html" target="_top" xlink:title=" ">
<polygon fill="white" stroke="black" points="371,-364 371,-383 500,-383 500,-364 371,-364"/>
<text text-anchor="middle" x="435.5" y="-371" font-family="Helvetica,sans-Serif" font-size="10.00">src/node/rpc/frontend.h</text>
</a>
</g>
</g>
<!-- Node26&#45;&gt;Node28 -->
<g id="edge40" class="edge">
<title>Node26&#45;&gt;Node28</title>
<path fill="none" stroke="midnightblue" d="M183.5,-672.44C183.5,-648.69 183.5,-606.29 183.5,-570 183.5,-570 183.5,-570 183.5,-506.5 183.5,-469.31 176,-451.09 202.5,-425 225.99,-401.88 310.42,-387.98 370.88,-380.78"/>
<polygon fill="midnightblue" stroke="midnightblue" points="180,-672.49 183.5,-682.49 187,-672.49 180,-672.49"/>
</g>
<!-- Node28&#45;&gt;Node6 -->
<g id="edge41" class="edge">
<title>Node28&#45;&gt;Node6</title>
<path fill="none" stroke="midnightblue" d="M455.18,-357.44C492.39,-329.61 576.45,-269.79 655.5,-235 700.67,-215.12 755.63,-201.16 793.26,-193.03"/>
<polygon fill="midnightblue" stroke="midnightblue" points="452.63,-354.97 446.76,-363.79 456.85,-360.56 452.63,-354.97"/>
</g>
<!-- Node28&#45;&gt;Node11 -->
<g id="edge44" class="edge">
<title>Node28&#45;&gt;Node11</title>
<path fill="none" stroke="midnightblue" d="M479.34,-361.54C525.54,-349.99 597.34,-332.04 639.46,-321.51"/>
<polygon fill="midnightblue" stroke="midnightblue" points="478.45,-358.15 469.6,-363.98 480.15,-364.95 478.45,-358.15"/>
</g>
<!-- Node29 -->
<g id="node29" class="node">
<title>Node29</title>
<g id="a_node29"><a xlink:href="member__frontend_8h.html" target="_top" xlink:title=" ">
<polygon fill="white" stroke="black" points="380.5,-168.5 380.5,-198.5 500.5,-198.5 500.5,-168.5 380.5,-168.5"/>
<text text-anchor="start" x="388.5" y="-186.5" font-family="Helvetica,sans-Serif" font-size="10.00">src/node/rpc/member</text>
<text text-anchor="middle" x="440.5" y="-175.5" font-family="Helvetica,sans-Serif" font-size="10.00">_frontend.h</text>
</a>
</g>
</g>
<!-- Node28&#45;&gt;Node29 -->
<g id="edge42" class="edge">
<title>Node28&#45;&gt;Node29</title>
<path fill="none" stroke="midnightblue" d="M436,-353.88C436.99,-316.33 439.23,-232.24 440.12,-198.7"/>
<polygon fill="midnightblue" stroke="midnightblue" points="432.5,-353.84 435.73,-363.93 439.49,-354.03 432.5,-353.84"/>
</g>
<!-- Node30 -->
<g id="node30" class="node">
<title>Node30</title>
<g id="a_node30"><a xlink:href="user__frontend_8h.html" target="_top" xlink:title=" ">
<polygon fill="white" stroke="black" points="283,-112.5 283,-131.5 438,-131.5 438,-112.5 283,-112.5"/>
<text text-anchor="middle" x="360.5" y="-119.5" font-family="Helvetica,sans-Serif" font-size="10.00">src/node/rpc/user_frontend.h</text>
</a>
</g>
</g>
<!-- Node28&#45;&gt;Node30 -->
<g id="edge45" class="edge">
<title>Node28&#45;&gt;Node30</title>
<path fill="none" stroke="midnightblue" d="M427.27,-354.14C413.6,-322.92 386.27,-257.18 371.5,-199 365.4,-174.96 362.36,-145.74 361.15,-131.55"/>
<polygon fill="midnightblue" stroke="midnightblue" points="424.24,-355.95 431.49,-363.68 430.64,-353.12 424.24,-355.95"/>
</g>
<!-- Node29&#45;&gt;Node3 -->
<g id="edge43" class="edge">
<title>Node29&#45;&gt;Node3</title>
<path fill="none" stroke="midnightblue" d="M462.58,-160.93C477.16,-146.83 496.77,-128.1 514.5,-112 528.64,-99.16 545.42,-84.79 556.01,-75.82"/>
<polygon fill="midnightblue" stroke="midnightblue" points="459.79,-158.77 455.05,-168.25 464.66,-163.79 459.79,-158.77"/>
</g>
<!-- Node30&#45;&gt;Node3 -->
<g id="edge46" class="edge">
<title>Node30&#45;&gt;Node3</title>
<path fill="none" stroke="midnightblue" d="M403.12,-109.83C442.01,-99.63 498.66,-84.78 534.01,-75.52"/>
<polygon fill="midnightblue" stroke="midnightblue" points="401.93,-106.52 393.14,-112.44 403.7,-113.29 401.93,-106.52"/>
</g>
<!-- Node31&#45;&gt;Node12 -->
<g id="edge49" class="edge">
<title>Node31&#45;&gt;Node12</title>
<path fill="none" stroke="midnightblue" d="M779,-610.94C779.59,-587.2 780.5,-544.79 780.5,-508.5 780.5,-508.5 780.5,-508.5 780.5,-372.5 780.5,-340.05 774.97,-331.53 761.5,-302 755.54,-288.92 746.31,-275.49 738.98,-265.77"/>
<polygon fill="midnightblue" stroke="midnightblue" points="775.5,-610.91 778.74,-620.99 782.49,-611.09 775.5,-610.91"/>
</g>
<!-- Node31&#45;&gt;Node25 -->
<g id="edge48" class="edge">
<title>Node31&#45;&gt;Node25</title>
<path fill="none" stroke="midnightblue" d="M801.16,-615.74C820.09,-604.25 846.49,-588.22 862.49,-578.51"/>
<polygon fill="midnightblue" stroke="midnightblue" points="799.27,-612.79 792.54,-620.98 802.91,-618.78 799.27,-612.79"/>
</g>
<!-- Node32 -->
<g id="node32" class="node">
<title>Node32</title>
<g id="a_node32"><a xlink:href="forwarder_8h.html" target="_top" xlink:title=" ">
<polygon fill="white" stroke="black" points="618.5,-431 618.5,-450 752.5,-450 752.5,-431 618.5,-431"/>
<text text-anchor="middle" x="685.5" y="-438" font-family="Helvetica,sans-Serif" font-size="10.00">src/node/rpc/forwarder.h</text>
</a>
</g>
</g>
<!-- Node31&#45;&gt;Node32 -->
<g id="edge50" class="edge">
<title>Node31&#45;&gt;Node32</title>
<path fill="none" stroke="midnightblue" d="M769.72,-611.76C750.25,-572.4 704.02,-478.94 689.76,-450.12"/>
<polygon fill="midnightblue" stroke="midnightblue" points="766.69,-613.52 774.26,-620.93 772.97,-610.42 766.69,-613.52"/>
</g>
<!-- Node32&#45;&gt;Node3 -->
<g id="edge51" class="edge">
<title>Node32&#45;&gt;Node3</title>
<path fill="none" stroke="midnightblue" d="M647.21,-427.52C600.74,-410.31 528.5,-373.78 528.5,-313 528.5,-313 528.5,-313 528.5,-182.5 528.5,-140.7 551.23,-94.47 561.53,-75.66"/>
<polygon fill="midnightblue" stroke="midnightblue" points="646.11,-430.84 656.7,-430.9 648.46,-424.25 646.11,-430.84"/>
</g>
<!-- Node32&#45;&gt;Node28 -->
<g id="edge52" class="edge">
<title>Node32&#45;&gt;Node28</title>
<path fill="none" stroke="midnightblue" d="M642.82,-428.4C593.48,-415.58 513.33,-394.74 468.51,-383.08"/>
<polygon fill="midnightblue" stroke="midnightblue" points="642,-431.81 652.56,-430.94 643.76,-425.03 642,-431.81"/>
</g>
<!-- Node33&#45;&gt;Node18 -->
<g id="edge54" class="edge">
<title>Node33&#45;&gt;Node18</title>
<path fill="none" stroke="midnightblue" d="M591.6,-679.73C556.35,-670.02 505.3,-655.96 467.41,-645.52"/>
<polygon fill="midnightblue" stroke="midnightblue" points="590.98,-683.19 601.55,-682.48 592.84,-676.44 590.98,-683.19"/>
</g>
<!-- Node33&#45;&gt;Node31 -->
<g id="edge56" class="edge">
<title>Node33&#45;&gt;Node31</title>
<path fill="none" stroke="midnightblue" d="M662.85,-678.63C691.21,-667.07 732.81,-650.12 757.62,-640.01"/>
<polygon fill="midnightblue" stroke="midnightblue" points="661.36,-675.46 653.42,-682.48 664,-681.94 661.36,-675.46"/>
</g>
<!-- Node34 -->
<g id="node34" class="node">
<title>Node34</title>
<g id="a_node34"><a xlink:href="sig__auth_8cpp.html" target="_top" xlink:title=" ">
<polygon fill="white" stroke="black" points="532,-615.5 532,-645.5 687,-645.5 687,-615.5 532,-615.5"/>
<text text-anchor="start" x="540" y="-633.5" font-family="Helvetica,sans-Serif" font-size="10.00">src/endpoints/authentication</text>
<text text-anchor="middle" x="609.5" y="-622.5" font-family="Helvetica,sans-Serif" font-size="10.00">/sig_auth.cpp</text>
</a>
</g>
</g>
<!-- Node33&#45;&gt;Node34 -->
<g id="edge55" class="edge">
<title>Node33&#45;&gt;Node34</title>
<path fill="none" stroke="midnightblue" d="M625.58,-673.1C622.17,-664.27 618.11,-653.77 614.92,-645.52"/>
<polygon fill="midnightblue" stroke="midnightblue" points="622.33,-674.41 629.2,-682.48 628.86,-671.89 622.33,-674.41"/>
</g>
<!-- Node35&#45;&gt;Node5 -->
<g id="edge58" class="edge">
<title>Node35&#45;&gt;Node5</title>
<path fill="none" stroke="midnightblue" d="M973.5,-672.34C973.5,-622.14 973.5,-485.6 973.5,-450.05"/>
<polygon fill="midnightblue" stroke="midnightblue" points="970,-672.41 973.5,-682.41 977,-672.41 970,-672.41"/>
</g>
<!-- Node36&#45;&gt;Node17 -->
<g id="edge60" class="edge">
<title>Node36&#45;&gt;Node17</title>
<path fill="none" stroke="midnightblue" d="M683.5,-783.8C683.5,-774.91 683.5,-764.78 683.5,-757.75"/>
<polygon fill="midnightblue" stroke="midnightblue" points="680,-784.08 683.5,-794.08 687,-784.08 680,-784.08"/>
</g>
<!-- Node37&#45;&gt;Node2 -->
<g id="edge62" class="edge">
<title>Node37&#45;&gt;Node2</title>
<path fill="none" stroke="midnightblue" d="M1086.81,-553.61C1102.97,-542.17 1125.02,-526.55 1138.49,-517.01"/>
<polygon fill="midnightblue" stroke="midnightblue" points="1084.67,-550.84 1078.54,-559.48 1088.72,-556.55 1084.67,-550.84"/>
</g>
<!-- Node37&#45;&gt;Node6 -->
<g id="edge63" class="edge">
<title>Node37&#45;&gt;Node6</title>
<path fill="none" stroke="midnightblue" d="M1013.5,-564.13C940.65,-555.59 818.5,-528.34 818.5,-441.5 818.5,-441.5 818.5,-441.5 818.5,-311 818.5,-266.14 830.33,-213.31 835.32,-193.02"/>
<polygon fill="midnightblue" stroke="midnightblue" points="1013.55,-567.65 1023.87,-565.26 1014.3,-560.7 1013.55,-567.65"/>
</g>
<!-- Node38&#45;&gt;Node2 -->
<g id="edge65" class="edge">
<title>Node38&#45;&gt;Node2</title>
<path fill="none" stroke="midnightblue" d="M1140.14,-784.27C1141.92,-762.39 1144.5,-725.1 1144.5,-693 1144.5,-693 1144.5,-693 1144.5,-629.5 1144.5,-587.22 1148.2,-536.74 1149.79,-517"/>
<polygon fill="midnightblue" stroke="midnightblue" points="1136.64,-784.19 1139.28,-794.45 1143.61,-784.78 1136.64,-784.19"/>
</g>
</g>
</svg>
        <g id="navigator" transform="translate(0 0)" fill="#404254">
                <rect fill="#f2f5e9" fill-opacity="0.5" stroke="#606060" stroke-width=".5" x="0" y="0" width="60" height="60"/>
                <use id="zoomplus" xlink:href="#zoomPlus" x="17" y="9" onmousedown="handleZoom(evt,'in')"/>
                <use id="zoomminus" xlink:href="#zoomMin" x="42" y="9" onmousedown="handleZoom(evt,'out')"/>
                <use id="reset" xlink:href="#resetDef" x="30" y="36" onmousedown="handleReset()"/>
                <g id="arrowUp" xlink:href="#dirArrow" transform="translate(30 24)" onmousedown="handlePan(0,-1)">
                  <use xlink:href="#rim" fill="#404040">
                        <set attributeName="fill" to="#808080" begin="arrowUp.mouseover" end="arrowUp.mouseout"/>
                  </use>
                  <path fill="none" stroke="white" stroke-width="1.5" d="M0,-3.0v7 M-2.5,-0.5L0,-3.0L2.5,-0.5"/>
                </g>
                <g id="arrowRight" xlink:href="#dirArrow" transform="rotate(90) translate(36 -43)" onmousedown="handlePan(1,0)">
                  <use xlink:href="#rim" fill="#404040">
                        <set attributeName="fill" to="#808080" begin="arrowRight.mouseover" end="arrowRight.mouseout"/>
                  </use>
                  <path fill="none" stroke="white" stroke-width="1.5" d="M0,-3.0v7 M-2.5,-0.5L0,-3.0L2.5,-0.5"/>
                </g>
                <g id="arrowDown" xlink:href="#dirArrow" transform="rotate(180) translate(-30 -48)" onmousedown="handlePan(0,1)">
                  <use xlink:href="#rim" fill="#404040">
                        <set attributeName="fill" to="#808080" begin="arrowDown.mouseover" end="arrowDown.mouseout"/>
                  </use>
                  <path fill="none" stroke="white" stroke-width="1.5" d="M0,-3.0v7 M-2.5,-0.5L0,-3.0L2.5,-0.5"/>
                </g>
                <g id="arrowLeft" xlink:href="#dirArrow" transform="rotate(270) translate(-36 17)" onmousedown="handlePan(-1,0)">
                  <use xlink:href="#rim" fill="#404040">
                        <set attributeName="fill" to="#808080" begin="arrowLeft.mouseover" end="arrowLeft.mouseout"/>
                  </use>
                  <path fill="none" stroke="white" stroke-width="1.5" d="M0,-3.0v7 M-2.5,-0.5L0,-3.0L2.5,-0.5"/>
                </g>
        </g>
        <svg viewBox="0 0 15 15" width="100%" height="30px" preserveAspectRatio="xMaxYMin meet">
         <g id="arrow_out" transform="scale(0.3 0.3)">
          <a xlink:href="context_8h__dep__incl_org.svg" target="_base">
           <rect id="button" ry="5" rx="5" y="6" x="6" height="38" width="38"
                fill="#f2f5e9" fill-opacity="0.5" stroke="#606060" stroke-width="1.0"/>
           <path id="arrow"
             d="M 11.500037,31.436501 C 11.940474,20.09759 22.043105,11.32322 32.158766,21.979434 L 37.068811,17.246167 C 37.068811,17.246167 37.088388,32 37.088388,32 L 22.160133,31.978069 C 22.160133,31.978069 26.997745,27.140456 26.997745,27.140456 C 18.528582,18.264221 13.291696,25.230495 11.500037,31.436501 z"
             style="fill:#404040;"/>
          </a>
         </g>
        </svg>
</svg>
