<?xml version="1.0" encoding="UTF-8" standalone="no"?>
<!DOCTYPE svg PUBLIC "-//W3C//DTD SVG 1.1//EN"
 "http://www.w3.org/Graphics/SVG/1.1/DTD/svg11.dtd">
<!-- Generated by graphviz version 2.43.0 (0)
 -->
<!-- Title: src/http/http_rpc_context.h Pages: 1 -->
<!--zoomable 632 -->
<svg id="main" version="1.1" xmlns="http://www.w3.org/2000/svg" xmlns:xlink="http://www.w3.org/1999/xlink" xml:space="preserve" onload="init(evt)">
<style type="text/css"><![CDATA[
.edge:hover path { stroke: red; }
.edge:hover polygon { stroke: red; fill: red; }
]]></style>
<script type="text/javascript"><![CDATA[
var edges = document.getElementsByTagName('g');
if (edges && edges.length) {
  for (var i=0;i<edges.length;i++) {
    if (edges[i].id.substr(0,4)=='edge') {
      edges[i].setAttribute('class','edge');
    }
  }
}
]]></script>
        <defs>
                <circle id="rim" cx="0" cy="0" r="7"/>
                <circle id="rim2" cx="0" cy="0" r="3.5"/>
                <g id="zoomPlus">
                        <use xlink:href="#rim" fill="#404040">
                                <set attributeName="fill" to="#808080" begin="zoomplus.mouseover" end="zoomplus.mouseout"/>
                        </use>
                        <path d="M-4,0h8M0,-4v8" fill="none" stroke="white" stroke-width="1.5" pointer-events="none"/>
                </g>
                <g id="zoomMin">
                        <use xlink:href="#rim" fill="#404040">
                                <set attributeName="fill" to="#808080" begin="zoomminus.mouseover" end="zoomminus.mouseout"/>
                        </use>
                        <path d="M-4,0h8" fill="none" stroke="white" stroke-width="1.5" pointer-events="none"/>
                </g>
                <g id="dirArrow">
                        <path fill="none" stroke="white" stroke-width="1.5" d="M0,-3.0v7 M-2.5,-0.5L0,-3.0L2.5,-0.5"/>
                </g>
               <g id="resetDef">
                       <use xlink:href="#rim2" fill="#404040">
                               <set attributeName="fill" to="#808080" begin="reset.mouseover" end="reset.mouseout"/>
                       </use>
               </g>
        </defs>

<script type="text/javascript">
var viewWidth = 946;
var viewHeight = 632;
var sectionId = 'dynsection-1';
</script>
<script xlink:href="svgpan.js"/>
<svg id="graph" class="graph">
<g id="viewport">
<title>src/http/http_rpc_context.h</title>
<polygon fill="white" stroke="transparent" points="-4,4 -4,-628 942.19,-628 942.19,4 -4,4"/>
<!-- Node1 -->
<g id="node1" class="node">
<title>Node1</title>
<g id="a_node1"><a xlink:title=" ">
<polygon fill="#bfbfbf" stroke="black" points="299.5,-604.5 299.5,-623.5 446.5,-623.5 446.5,-604.5 299.5,-604.5"/>
<text text-anchor="middle" x="373" y="-611.5" font-family="Helvetica,sans-Serif" font-size="10.00">src/http/http_rpc_context.h</text>
</a>
</g>
</g>
<!-- Node2 -->
<g id="node2" class="node">
<title>Node2</title>
<g id="a_node2"><a xlink:href="http__endpoint_8h.html" target="_top" xlink:title=" ">
<polygon fill="white" stroke="black" points="209.5,-548.5 209.5,-567.5 342.5,-567.5 342.5,-548.5 209.5,-548.5"/>
<text text-anchor="middle" x="276" y="-555.5" font-family="Helvetica,sans-Serif" font-size="10.00">src/http/http_endpoint.h</text>
</a>
</g>
</g>
<!-- Node1&#45;&gt;Node2 -->
<g id="edge1" class="edge">
<title>Node1&#45;&gt;Node2</title>
<path fill="none" stroke="midnightblue" d="M348.66,-599.45C330.76,-589.48 306.95,-576.23 291.55,-567.65"/>
<polygon fill="midnightblue" stroke="midnightblue" points="346.98,-602.52 357.42,-604.32 350.38,-596.4 346.98,-602.52"/>
</g>
<!-- Node13 -->
<g id="node13" class="node">
<title>Node13</title>
<g id="a_node13"><a xlink:href="jwt__key__auto__refresh_8h.html" target="_top" xlink:title=" ">
<polygon fill="white" stroke="black" points="533.5,-235.5 533.5,-265.5 658.5,-265.5 658.5,-235.5 533.5,-235.5"/>
<text text-anchor="start" x="541.5" y="-253.5" font-family="Helvetica,sans-Serif" font-size="10.00">src/node/jwt_key_auto</text>
<text text-anchor="middle" x="596" y="-242.5" font-family="Helvetica,sans-Serif" font-size="10.00">_refresh.h</text>
</a>
</g>
</g>
<!-- Node1&#45;&gt;Node13 -->
<g id="edge28" class="edge">
<title>Node1&#45;&gt;Node13</title>
<path fill="none" stroke="midnightblue" d="M373,-594.29C373,-571.45 373,-531.64 373,-497.5 373,-497.5 373,-497.5 373,-372.5 373,-299.16 467.33,-270.04 533.29,-258.64"/>
<polygon fill="midnightblue" stroke="midnightblue" points="369.5,-594.31 373,-604.31 376.5,-594.31 369.5,-594.31"/>
</g>
<!-- Node19 -->
<g id="node19" class="node">
<title>Node19</title>
<g id="a_node19"><a xlink:href="forwarder_8h.html" target="_top" xlink:title=" ">
<polygon fill="white" stroke="black" points="758,-425.5 758,-444.5 892,-444.5 892,-425.5 758,-425.5"/>
<text text-anchor="middle" x="825" y="-432.5" font-family="Helvetica,sans-Serif" font-size="10.00">src/node/rpc/forwarder.h</text>
</a>
</g>
</g>
<!-- Node1&#45;&gt;Node19 -->
<g id="edge29" class="edge">
<title>Node1&#45;&gt;Node19</title>
<path fill="none" stroke="midnightblue" d="M404.29,-600.75C490.44,-567.01 729.55,-473.38 803.15,-444.55"/>
<polygon fill="midnightblue" stroke="midnightblue" points="402.84,-597.56 394.8,-604.46 405.39,-604.08 402.84,-597.56"/>
</g>
<!-- Node3 -->
<g id="node3" class="node">
<title>Node3</title>
<g id="a_node3"><a xlink:href="rpc__sessions_8h.html" target="_top" xlink:title=" ">
<polygon fill="white" stroke="black" points="43,-487 43,-506 189,-506 189,-487 43,-487"/>
<text text-anchor="middle" x="116" y="-494" font-family="Helvetica,sans-Serif" font-size="10.00">src/enclave/rpc_sessions.h</text>
</a>
</g>
</g>
<!-- Node2&#45;&gt;Node3 -->
<g id="edge2" class="edge">
<title>Node2&#45;&gt;Node3</title>
<path fill="none" stroke="midnightblue" d="M243.55,-544.93C212.45,-533.37 166.31,-516.21 138.88,-506.01"/>
<polygon fill="midnightblue" stroke="midnightblue" points="242.48,-548.27 253.08,-548.48 244.92,-541.71 242.48,-548.27"/>
</g>
<!-- Node17 -->
<g id="node17" class="node">
<title>Node17</title>
<g id="a_node17"><a xlink:href="acme__challenge__server_8h.html" target="_top" xlink:title=" ">
<polygon fill="white" stroke="black" points="207.5,-481.5 207.5,-511.5 344.5,-511.5 344.5,-481.5 207.5,-481.5"/>
<text text-anchor="start" x="215.5" y="-499.5" font-family="Helvetica,sans-Serif" font-size="10.00">src/host/acme_challenge</text>
<text text-anchor="middle" x="276" y="-488.5" font-family="Helvetica,sans-Serif" font-size="10.00">_server.h</text>
</a>
</g>
</g>
<!-- Node2&#45;&gt;Node17 -->
<g id="edge26" class="edge">
<title>Node2&#45;&gt;Node17</title>
<path fill="none" stroke="midnightblue" d="M276,-538.23C276,-529.59 276,-519.5 276,-511.52"/>
<polygon fill="midnightblue" stroke="midnightblue" points="272.5,-538.48 276,-548.48 279.5,-538.48 272.5,-538.48"/>
</g>
<!-- Node4 -->
<g id="node4" class="node">
<title>Node4</title>
<g id="a_node4"><a xlink:href="enclave_2enclave_8h.html" target="_top" xlink:title=" ">
<polygon fill="white" stroke="black" points="626,-56.5 626,-75.5 748,-75.5 748,-56.5 626,-56.5"/>
<text text-anchor="middle" x="687" y="-63.5" font-family="Helvetica,sans-Serif" font-size="10.00">src/enclave/enclave.h</text>
</a>
</g>
</g>
<!-- Node3&#45;&gt;Node4 -->
<g id="edge3" class="edge">
<title>Node3&#45;&gt;Node4</title>
<path fill="none" stroke="midnightblue" d="M88.53,-482.13C54.23,-463.29 0,-425.44 0,-374.5 0,-374.5 0,-374.5 0,-182.5 0,-119.34 457.35,-82.36 625.73,-70.88"/>
<polygon fill="midnightblue" stroke="midnightblue" points="87.14,-485.36 97.62,-486.94 90.42,-479.17 87.14,-485.36"/>
</g>
<!-- Node6 -->
<g id="node6" class="node">
<title>Node6</title>
<g id="a_node6"><a xlink:href="ccf__acme__client_8h.html" target="_top" xlink:title=" ">
<polygon fill="white" stroke="black" points="199.5,-241 199.5,-260 348.5,-260 348.5,-241 199.5,-241"/>
<text text-anchor="middle" x="274" y="-248" font-family="Helvetica,sans-Serif" font-size="10.00">src/node/ccf_acme_client.h</text>
</a>
</g>
</g>
<!-- Node3&#45;&gt;Node6 -->
<g id="edge5" class="edge">
<title>Node3&#45;&gt;Node6</title>
<path fill="none" stroke="midnightblue" d="M141.62,-481.54C156.13,-472.62 173.77,-459.93 186,-445 236.28,-383.62 264.18,-288.86 271.82,-260.08"/>
<polygon fill="midnightblue" stroke="midnightblue" points="139.46,-478.75 132.62,-486.85 143.01,-484.78 139.46,-478.75"/>
</g>
<!-- Node7 -->
<g id="node7" class="node">
<title>Node7</title>
<g id="a_node7"><a xlink:href="node__state_8h.html" target="_top" xlink:title=" ">
<polygon fill="white" stroke="black" points="425,-174 425,-193 549,-193 549,-174 425,-174"/>
<text text-anchor="middle" x="487" y="-181" font-family="Helvetica,sans-Serif" font-size="10.00">src/node/node_state.h</text>
</a>
</g>
</g>
<!-- Node3&#45;&gt;Node7 -->
<g id="edge23" class="edge">
<title>Node3&#45;&gt;Node7</title>
<path fill="none" stroke="midnightblue" d="M129.55,-478.62C146.12,-456.21 172,-414.78 172,-374.5 172,-374.5 172,-374.5 172,-311 172,-276.18 165.46,-258.67 191,-235 224.17,-204.26 348.34,-191.99 424.92,-187.28"/>
<polygon fill="midnightblue" stroke="midnightblue" points="126.63,-476.67 123.32,-486.74 132.18,-480.93 126.63,-476.67"/>
</g>
<!-- Node9 -->
<g id="node9" class="node">
<title>Node9</title>
<g id="a_node9"><a xlink:href="node__client_8h.html" target="_top" xlink:title=" ">
<polygon fill="white" stroke="black" points="401,-425.5 401,-444.5 527,-444.5 527,-425.5 401,-425.5"/>
<text text-anchor="middle" x="464" y="-432.5" font-family="Helvetica,sans-Serif" font-size="10.00">src/node/node_client.h</text>
</a>
</g>
</g>
<!-- Node3&#45;&gt;Node9 -->
<g id="edge10" class="edge">
<title>Node3&#45;&gt;Node9</title>
<path fill="none" stroke="midnightblue" d="M174.61,-485.23C182.8,-483.8 191.11,-482.36 199,-481 273.5,-468.17 359.83,-453.56 413.19,-444.56"/>
<polygon fill="midnightblue" stroke="midnightblue" points="173.96,-481.79 164.71,-486.95 175.16,-488.68 173.96,-481.79"/>
</g>
<!-- Node16 -->
<g id="node16" class="node">
<title>Node16</title>
<g id="a_node16"><a xlink:href="resharing_8h.html" target="_top" xlink:title=" ">
<polygon fill="white" stroke="black" points="28,-241 28,-260 144,-260 144,-241 28,-241"/>
<text text-anchor="middle" x="86" y="-248" font-family="Helvetica,sans-Serif" font-size="10.00">src/node/resharing.h</text>
</a>
</g>
</g>
<!-- Node3&#45;&gt;Node16 -->
<g id="edge24" class="edge">
<title>Node3&#45;&gt;Node16</title>
<path fill="none" stroke="midnightblue" d="M113.68,-476.59C107.59,-427.07 91.35,-295.02 87.05,-260.08"/>
<polygon fill="midnightblue" stroke="midnightblue" points="110.24,-477.32 114.93,-486.82 117.19,-476.46 110.24,-477.32"/>
</g>
<!-- Node5 -->
<g id="node5" class="node">
<title>Node5</title>
<g id="a_node5"><a xlink:href="enclave_2main_8cpp.html" target="_top" xlink:title=" ">
<polygon fill="white" stroke="black" points="627,-0.5 627,-19.5 747,-19.5 747,-0.5 627,-0.5"/>
<text text-anchor="middle" x="687" y="-7.5" font-family="Helvetica,sans-Serif" font-size="10.00">src/enclave/main.cpp</text>
</a>
</g>
</g>
<!-- Node4&#45;&gt;Node5 -->
<g id="edge4" class="edge">
<title>Node4&#45;&gt;Node5</title>
<path fill="none" stroke="midnightblue" d="M687,-45.8C687,-36.91 687,-26.78 687,-19.75"/>
<polygon fill="midnightblue" stroke="midnightblue" points="683.5,-46.08 687,-56.08 690.5,-46.08 683.5,-46.08"/>
</g>
<!-- Node6&#45;&gt;Node7 -->
<g id="edge6" class="edge">
<title>Node6&#45;&gt;Node7</title>
<path fill="none" stroke="midnightblue" d="M311.92,-237.93C354.09,-225.06 421.23,-204.57 458.94,-193.06"/>
<polygon fill="midnightblue" stroke="midnightblue" points="310.83,-234.6 302.28,-240.87 312.87,-241.3 310.83,-234.6"/>
</g>
<!-- Node7&#45;&gt;Node4 -->
<g id="edge7" class="edge">
<title>Node7&#45;&gt;Node4</title>
<path fill="none" stroke="midnightblue" d="M487.06,-163.5C488.16,-147.6 492.31,-125.43 506,-112 522.99,-95.34 580.15,-82.97 625.74,-75.46"/>
<polygon fill="midnightblue" stroke="midnightblue" points="483.56,-163.64 486.71,-173.75 490.55,-163.88 483.56,-163.64"/>
</g>
<!-- Node8 -->
<g id="node8" class="node">
<title>Node8</title>
<g id="a_node8"><a xlink:href="gov__effects_8h.html" target="_top" xlink:title=" ">
<polygon fill="white" stroke="black" points="515,-112.5 515,-131.5 659,-131.5 659,-112.5 515,-112.5"/>
<text text-anchor="middle" x="587" y="-119.5" font-family="Helvetica,sans-Serif" font-size="10.00">src/node/rpc/gov_effects.h</text>
</a>
</g>
</g>
<!-- Node7&#45;&gt;Node8 -->
<g id="edge8" class="edge">
<title>Node7&#45;&gt;Node8</title>
<path fill="none" stroke="midnightblue" d="M510.12,-168.74C529.44,-157.25 556.37,-141.22 572.7,-131.51"/>
<polygon fill="midnightblue" stroke="midnightblue" points="508.13,-165.85 501.33,-173.98 511.71,-171.87 508.13,-165.85"/>
</g>
<!-- Node8&#45;&gt;Node4 -->
<g id="edge9" class="edge">
<title>Node8&#45;&gt;Node4</title>
<path fill="none" stroke="midnightblue" d="M612.09,-107.45C630.55,-97.48 655.1,-84.23 670.97,-75.65"/>
<polygon fill="midnightblue" stroke="midnightblue" points="610.2,-104.49 603.07,-112.32 613.53,-110.65 610.2,-104.49"/>
</g>
<!-- Node10 -->
<g id="node10" class="node">
<title>Node10</title>
<g id="a_node10"><a xlink:href="orc__requests_8h.html" target="_top" xlink:title=" ">
<polygon fill="white" stroke="black" points="623.5,-358.5 623.5,-388.5 742.5,-388.5 742.5,-358.5 623.5,-358.5"/>
<text text-anchor="start" x="631.5" y="-376.5" font-family="Helvetica,sans-Serif" font-size="10.00">src/consensus/aft/orc</text>
<text text-anchor="middle" x="683" y="-365.5" font-family="Helvetica,sans-Serif" font-size="10.00">_requests.h</text>
</a>
</g>
</g>
<!-- Node9&#45;&gt;Node10 -->
<g id="edge11" class="edge">
<title>Node9&#45;&gt;Node10</title>
<path fill="none" stroke="midnightblue" d="M505.47,-422.73C541.21,-413.02 592.97,-398.96 631.39,-388.52"/>
<polygon fill="midnightblue" stroke="midnightblue" points="504.11,-419.48 495.38,-425.48 505.95,-426.23 504.11,-419.48"/>
</g>
<!-- Node11 -->
<g id="node11" class="node">
<title>Node11</title>
<g id="a_node11"><a xlink:href="raft_8h.html" target="_top" xlink:title=" ">
<polygon fill="white" stroke="black" points="446.5,-302.5 446.5,-321.5 575.5,-321.5 575.5,-302.5 446.5,-302.5"/>
<text text-anchor="middle" x="511" y="-309.5" font-family="Helvetica,sans-Serif" font-size="10.00">src/consensus/aft/raft.h</text>
</a>
</g>
</g>
<!-- Node9&#45;&gt;Node11 -->
<g id="edge18" class="edge">
<title>Node9&#45;&gt;Node11</title>
<path fill="none" stroke="midnightblue" d="M461.44,-414.95C460.12,-399.06 460.16,-376.16 468,-358 474.51,-342.92 488.45,-329.88 498.7,-321.78"/>
<polygon fill="midnightblue" stroke="midnightblue" points="457.98,-415.56 462.55,-425.12 464.94,-414.8 457.98,-415.56"/>
</g>
<!-- Node14 -->
<g id="node14" class="node">
<title>Node14</title>
<g id="a_node14"><a xlink:href="http__node__client_8h.html" target="_top" xlink:title=" ">
<polygon fill="white" stroke="black" points="367,-235.5 367,-265.5 477,-265.5 477,-235.5 367,-235.5"/>
<text text-anchor="start" x="375" y="-253.5" font-family="Helvetica,sans-Serif" font-size="10.00">src/node/http_node</text>
<text text-anchor="middle" x="422" y="-242.5" font-family="Helvetica,sans-Serif" font-size="10.00">_client.h</text>
</a>
</g>
</g>
<!-- Node9&#45;&gt;Node14 -->
<g id="edge19" class="edge">
<title>Node9&#45;&gt;Node14</title>
<path fill="none" stroke="midnightblue" d="M459.68,-415.53C454.5,-393.33 445.56,-354.95 438,-322 433.51,-302.43 428.38,-279.78 425.17,-265.55"/>
<polygon fill="midnightblue" stroke="midnightblue" points="456.28,-416.35 461.96,-425.29 463.1,-414.76 456.28,-416.35"/>
</g>
<!-- Node15 -->
<g id="node15" class="node">
<title>Node15</title>
<g id="a_node15"><a xlink:href="retired__nodes__cleanup_8h.html" target="_top" xlink:title=" ">
<polygon fill="white" stroke="black" points="477,-358.5 477,-388.5 605,-388.5 605,-358.5 477,-358.5"/>
<text text-anchor="start" x="485" y="-376.5" font-family="Helvetica,sans-Serif" font-size="10.00">src/node/retired_nodes</text>
<text text-anchor="middle" x="541" y="-365.5" font-family="Helvetica,sans-Serif" font-size="10.00">_cleanup.h</text>
</a>
</g>
</g>
<!-- Node9&#45;&gt;Node15 -->
<g id="edge21" class="edge">
<title>Node9&#45;&gt;Node15</title>
<path fill="none" stroke="midnightblue" d="M483.16,-419.2C495.3,-409.81 510.91,-397.75 522.85,-388.52"/>
<polygon fill="midnightblue" stroke="midnightblue" points="480.81,-416.59 475.03,-425.48 485.09,-422.13 480.81,-416.59"/>
</g>
<!-- Node10&#45;&gt;Node11 -->
<g id="edge12" class="edge">
<title>Node10&#45;&gt;Node11</title>
<path fill="none" stroke="midnightblue" d="M632.63,-355.08C600.77,-344.05 560.99,-330.29 535.78,-321.57"/>
<polygon fill="midnightblue" stroke="midnightblue" points="631.64,-358.44 642.24,-358.4 633.93,-351.82 631.64,-358.44"/>
</g>
<!-- Node12 -->
<g id="node12" class="node">
<title>Node12</title>
<g id="a_node12"><a xlink:href="node__frontend_8h.html" target="_top" xlink:title=" ">
<polygon fill="white" stroke="black" points="601,-302.5 601,-321.5 759,-321.5 759,-302.5 601,-302.5"/>
<text text-anchor="middle" x="680" y="-309.5" font-family="Helvetica,sans-Serif" font-size="10.00">src/node/rpc/node_frontend.h</text>
</a>
</g>
</g>
<!-- Node10&#45;&gt;Node12 -->
<g id="edge14" class="edge">
<title>Node10&#45;&gt;Node12</title>
<path fill="none" stroke="midnightblue" d="M681.78,-348.29C681.3,-338.86 680.79,-328.65 680.44,-321.66"/>
<polygon fill="midnightblue" stroke="midnightblue" points="678.29,-348.59 682.29,-358.4 685.28,-348.24 678.29,-348.59"/>
</g>
<!-- Node11&#45;&gt;Node7 -->
<g id="edge13" class="edge">
<title>Node11&#45;&gt;Node7</title>
<path fill="none" stroke="midnightblue" d="M507.45,-292.31C502.19,-264.58 492.53,-213.63 488.66,-193.26"/>
<polygon fill="midnightblue" stroke="midnightblue" points="504.05,-293.13 509.35,-302.31 510.92,-291.83 504.05,-293.13"/>
</g>
<!-- Node12&#45;&gt;Node4 -->
<g id="edge15" class="edge">
<title>Node12&#45;&gt;Node4</title>
<path fill="none" stroke="midnightblue" d="M680.54,-292.09C681.96,-242.57 685.75,-110.52 686.75,-75.58"/>
<polygon fill="midnightblue" stroke="midnightblue" points="677.04,-292.22 680.25,-302.32 684.03,-292.42 677.04,-292.22"/>
</g>
<!-- Node12&#45;&gt;Node13 -->
<g id="edge16" class="edge">
<title>Node12&#45;&gt;Node13</title>
<path fill="none" stroke="midnightblue" d="M659.48,-296.47C646.18,-287.05 628.95,-274.84 615.8,-265.52"/>
<polygon fill="midnightblue" stroke="midnightblue" points="657.78,-299.55 667.96,-302.48 661.83,-293.84 657.78,-299.55"/>
</g>
<!-- Node13&#45;&gt;Node7 -->
<g id="edge17" class="edge">
<title>Node13&#45;&gt;Node7</title>
<path fill="none" stroke="midnightblue" d="M563.54,-230.14C542.82,-217.79 517,-202.39 501.27,-193.01"/>
<polygon fill="midnightblue" stroke="midnightblue" points="561.97,-233.28 572.35,-235.4 565.55,-227.27 561.97,-233.28"/>
</g>
<!-- Node14&#45;&gt;Node7 -->
<g id="edge20" class="edge">
<title>Node14&#45;&gt;Node7</title>
<path fill="none" stroke="midnightblue" d="M443.5,-228C455.37,-216.13 469.45,-202.05 478.31,-193.19"/>
<polygon fill="midnightblue" stroke="midnightblue" points="440.7,-225.85 436.1,-235.4 445.65,-230.8 440.7,-225.85"/>
</g>
<!-- Node15&#45;&gt;Node11 -->
<g id="edge22" class="edge">
<title>Node15&#45;&gt;Node11</title>
<path fill="none" stroke="midnightblue" d="M529.25,-349.2C524.37,-339.52 519.01,-328.88 515.37,-321.66"/>
<polygon fill="midnightblue" stroke="midnightblue" points="526.26,-351.05 533.89,-358.4 532.51,-347.89 526.26,-351.05"/>
</g>
<!-- Node16&#45;&gt;Node7 -->
<g id="edge25" class="edge">
<title>Node16&#45;&gt;Node7</title>
<path fill="none" stroke="midnightblue" d="M136.91,-238.94C143.99,-237.56 151.17,-236.21 158,-235 251.17,-218.48 359.76,-202.43 425.92,-193.01"/>
<polygon fill="midnightblue" stroke="midnightblue" points="135.81,-235.59 126.68,-240.96 137.17,-242.46 135.81,-235.59"/>
</g>
<!-- Node18 -->
<g id="node18" class="node">
<title>Node18</title>
<g id="a_node18"><a xlink:href="host_2main_8cpp.html" target="_top" xlink:title=" ">
<polygon fill="white" stroke="black" points="545.5,-425.5 545.5,-444.5 648.5,-444.5 648.5,-425.5 545.5,-425.5"/>
<text text-anchor="middle" x="597" y="-432.5" font-family="Helvetica,sans-Serif" font-size="10.00">src/host/main.cpp</text>
</a>
</g>
</g>
<!-- Node17&#45;&gt;Node18 -->
<g id="edge27" class="edge">
<title>Node17&#45;&gt;Node18</title>
<path fill="none" stroke="midnightblue" d="M354.93,-480.87C416.51,-469.45 499.91,-454 551.01,-444.53"/>
<polygon fill="midnightblue" stroke="midnightblue" points="354.06,-477.47 344.86,-482.74 355.33,-484.35 354.06,-477.47"/>
</g>
<!-- Node19&#45;&gt;Node4 -->
<g id="edge30" class="edge">
<title>Node19&#45;&gt;Node4</title>
<path fill="none" stroke="midnightblue" d="M854.6,-420.9C869.36,-413.24 886.64,-402.43 899,-389 924.58,-361.22 937,-350.76 937,-313 937,-313 937,-313 937,-182.5 937,-150.05 941.74,-134.12 918,-112 893.82,-89.48 807.98,-77.45 748.05,-71.65"/>
<polygon fill="midnightblue" stroke="midnightblue" points="852.77,-417.9 845.35,-425.47 855.87,-424.18 852.77,-417.9"/>
</g>
<!-- Node20 -->
<g id="node20" class="node">
<title>Node20</title>
<g id="a_node20"><a xlink:href="frontend_8h.html" target="_top" xlink:title=" ">
<polygon fill="white" stroke="black" points="760.5,-364 760.5,-383 889.5,-383 889.5,-364 760.5,-364"/>
<text text-anchor="middle" x="825" y="-371" font-family="Helvetica,sans-Serif" font-size="10.00">src/node/rpc/frontend.h</text>
</a>
</g>
</g>
<!-- Node19&#45;&gt;Node20 -->
<g id="edge31" class="edge">
<title>Node19&#45;&gt;Node20</title>
<path fill="none" stroke="midnightblue" d="M825,-415.32C825,-404.5 825,-391.4 825,-383.01"/>
<polygon fill="midnightblue" stroke="midnightblue" points="821.5,-415.48 825,-425.48 828.5,-415.48 821.5,-415.48"/>
</g>
<!-- Node20&#45;&gt;Node7 -->
<g id="edge32" class="edge">
<title>Node20&#45;&gt;Node7</title>
<path fill="none" stroke="midnightblue" d="M813.59,-355.64C802.89,-340.55 785.89,-318.36 768,-302 728.52,-265.9 716.6,-257.36 668,-235 623.99,-214.75 570.13,-201 532.66,-193.02"/>
<polygon fill="midnightblue" stroke="midnightblue" points="810.82,-357.78 819.39,-364 816.57,-353.79 810.82,-357.78"/>
</g>
<!-- Node20&#45;&gt;Node12 -->
<g id="edge35" class="edge">
<title>Node20&#45;&gt;Node12</title>
<path fill="none" stroke="midnightblue" d="M794.86,-360.13C766.69,-348.57 725.38,-331.62 700.74,-321.51"/>
<polygon fill="midnightblue" stroke="midnightblue" points="793.64,-363.42 804.23,-363.98 796.3,-356.94 793.64,-363.42"/>
</g>
<!-- Node21 -->
<g id="node21" class="node">
<title>Node21</title>
<g id="a_node21"><a xlink:href="member__frontend_8h.html" target="_top" xlink:title=" ">
<polygon fill="white" stroke="black" points="715,-168.5 715,-198.5 835,-198.5 835,-168.5 715,-168.5"/>
<text text-anchor="start" x="723" y="-186.5" font-family="Helvetica,sans-Serif" font-size="10.00">src/node/rpc/member</text>
<text text-anchor="middle" x="775" y="-175.5" font-family="Helvetica,sans-Serif" font-size="10.00">_frontend.h</text>
</a>
</g>
</g>
<!-- Node20&#45;&gt;Node21 -->
<g id="edge33" class="edge">
<title>Node20&#45;&gt;Node21</title>
<path fill="none" stroke="midnightblue" d="M823.52,-353.63C821.01,-326.72 814.78,-276.02 801,-235 796.67,-222.1 789.45,-208.43 783.72,-198.57"/>
<polygon fill="midnightblue" stroke="midnightblue" points="820.06,-354.25 824.41,-363.91 827.04,-353.65 820.06,-354.25"/>
</g>
<!-- Node22 -->
<g id="node22" class="node">
<title>Node22</title>
<g id="a_node22"><a xlink:href="user__frontend_8h.html" target="_top" xlink:title=" ">
<polygon fill="white" stroke="black" points="753.5,-112.5 753.5,-131.5 908.5,-131.5 908.5,-112.5 753.5,-112.5"/>
<text text-anchor="middle" x="831" y="-119.5" font-family="Helvetica,sans-Serif" font-size="10.00">src/node/rpc/user_frontend.h</text>
</a>
</g>
</g>
<!-- Node20&#45;&gt;Node22 -->
<g id="edge36" class="edge">
<title>Node20&#45;&gt;Node22</title>
<path fill="none" stroke="midnightblue" d="M829.62,-353.88C837.93,-317.85 853.65,-236.17 844,-168 842.18,-155.12 837.55,-140.76 834.34,-131.8"/>
<polygon fill="midnightblue" stroke="midnightblue" points="826.15,-353.35 827.23,-363.89 832.96,-354.98 826.15,-353.35"/>
</g>
<!-- Node21&#45;&gt;Node4 -->
<g id="edge34" class="edge">
<title>Node21&#45;&gt;Node4</title>
<path fill="none" stroke="midnightblue" d="M758.05,-160.26C738.46,-134.54 707.15,-93.45 693.61,-75.67"/>
<polygon fill="midnightblue" stroke="midnightblue" points="755.36,-162.5 764.21,-168.34 760.93,-158.26 755.36,-162.5"/>
</g>
<!-- Node22&#45;&gt;Node4 -->
<g id="edge37" class="edge">
<title>Node22&#45;&gt;Node4</title>
<path fill="none" stroke="midnightblue" d="M798.75,-108.91C771.68,-98.75 733.68,-84.51 709.71,-75.52"/>
<polygon fill="midnightblue" stroke="midnightblue" points="797.59,-112.21 808.18,-112.44 800.05,-105.66 797.59,-112.21"/>
</g>
</g>
</svg>
        <g id="navigator" transform="translate(0 0)" fill="#404254">
                <rect fill="#f2f5e9" fill-opacity="0.5" stroke="#606060" stroke-width=".5" x="0" y="0" width="60" height="60"/>
                <use id="zoomplus" xlink:href="#zoomPlus" x="17" y="9" onmousedown="handleZoom(evt,'in')"/>
                <use id="zoomminus" xlink:href="#zoomMin" x="42" y="9" onmousedown="handleZoom(evt,'out')"/>
                <use id="reset" xlink:href="#resetDef" x="30" y="36" onmousedown="handleReset()"/>
                <g id="arrowUp" xlink:href="#dirArrow" transform="translate(30 24)" onmousedown="handlePan(0,-1)">
                  <use xlink:href="#rim" fill="#404040">
                        <set attributeName="fill" to="#808080" begin="arrowUp.mouseover" end="arrowUp.mouseout"/>
                  </use>
                  <path fill="none" stroke="white" stroke-width="1.5" d="M0,-3.0v7 M-2.5,-0.5L0,-3.0L2.5,-0.5"/>
                </g>
                <g id="arrowRight" xlink:href="#dirArrow" transform="rotate(90) translate(36 -43)" onmousedown="handlePan(1,0)">
                  <use xlink:href="#rim" fill="#404040">
                        <set attributeName="fill" to="#808080" begin="arrowRight.mouseover" end="arrowRight.mouseout"/>
                  </use>
                  <path fill="none" stroke="white" stroke-width="1.5" d="M0,-3.0v7 M-2.5,-0.5L0,-3.0L2.5,-0.5"/>
                </g>
                <g id="arrowDown" xlink:href="#dirArrow" transform="rotate(180) translate(-30 -48)" onmousedown="handlePan(0,1)">
                  <use xlink:href="#rim" fill="#404040">
                        <set attributeName="fill" to="#808080" begin="arrowDown.mouseover" end="arrowDown.mouseout"/>
                  </use>
                  <path fill="none" stroke="white" stroke-width="1.5" d="M0,-3.0v7 M-2.5,-0.5L0,-3.0L2.5,-0.5"/>
                </g>
                <g id="arrowLeft" xlink:href="#dirArrow" transform="rotate(270) translate(-36 17)" onmousedown="handlePan(-1,0)">
                  <use xlink:href="#rim" fill="#404040">
                        <set attributeName="fill" to="#808080" begin="arrowLeft.mouseover" end="arrowLeft.mouseout"/>
                  </use>
                  <path fill="none" stroke="white" stroke-width="1.5" d="M0,-3.0v7 M-2.5,-0.5L0,-3.0L2.5,-0.5"/>
                </g>
        </g>
        <svg viewBox="0 0 15 15" width="100%" height="30px" preserveAspectRatio="xMaxYMin meet">
         <g id="arrow_out" transform="scale(0.3 0.3)">
          <a xlink:href="http__rpc__context_8h__dep__incl_org.svg" target="_base">
           <rect id="button" ry="5" rx="5" y="6" x="6" height="38" width="38"
                fill="#f2f5e9" fill-opacity="0.5" stroke="#606060" stroke-width="1.0"/>
           <path id="arrow"
             d="M 11.500037,31.436501 C 11.940474,20.09759 22.043105,11.32322 32.158766,21.979434 L 37.068811,17.246167 C 37.068811,17.246167 37.088388,32 37.088388,32 L 22.160133,31.978069 C 22.160133,31.978069 26.997745,27.140456 26.997745,27.140456 C 18.528582,18.264221 13.291696,25.230495 11.500037,31.436501 z"
             style="fill:#404040;"/>
          </a>
         </g>
        </svg>
</svg>
