<?xml version="1.0" encoding="UTF-8" standalone="no"?>
<!DOCTYPE svg PUBLIC "-//W3C//DTD SVG 1.1//EN"
 "http://www.w3.org/Graphics/SVG/1.1/DTD/svg11.dtd">
<!-- Generated by graphviz version 2.43.0 (0)
 -->
<!-- Title: src/http/http_parser.h Pages: 1 -->
<!--zoomable 766 -->
<svg id="main" version="1.1" xmlns="http://www.w3.org/2000/svg" xmlns:xlink="http://www.w3.org/1999/xlink" xml:space="preserve" onload="init(evt)">
<style type="text/css"><![CDATA[
.edge:hover path { stroke: red; }
.edge:hover polygon { stroke: red; fill: red; }
]]></style>
<script type="text/javascript"><![CDATA[
var edges = document.getElementsByTagName('g');
if (edges && edges.length) {
  for (var i=0;i<edges.length;i++) {
    if (edges[i].id.substr(0,4)=='edge') {
      edges[i].setAttribute('class','edge');
    }
  }
}
]]></script>
        <defs>
                <circle id="rim" cx="0" cy="0" r="7"/>
                <circle id="rim2" cx="0" cy="0" r="3.5"/>
                <g id="zoomPlus">
                        <use xlink:href="#rim" fill="#404040">
                                <set attributeName="fill" to="#808080" begin="zoomplus.mouseover" end="zoomplus.mouseout"/>
                        </use>
                        <path d="M-4,0h8M0,-4v8" fill="none" stroke="white" stroke-width="1.5" pointer-events="none"/>
                </g>
                <g id="zoomMin">
                        <use xlink:href="#rim" fill="#404040">
                                <set attributeName="fill" to="#808080" begin="zoomminus.mouseover" end="zoomminus.mouseout"/>
                        </use>
                        <path d="M-4,0h8" fill="none" stroke="white" stroke-width="1.5" pointer-events="none"/>
                </g>
                <g id="dirArrow">
                        <path fill="none" stroke="white" stroke-width="1.5" d="M0,-3.0v7 M-2.5,-0.5L0,-3.0L2.5,-0.5"/>
                </g>
               <g id="resetDef">
                       <use xlink:href="#rim2" fill="#404040">
                               <set attributeName="fill" to="#808080" begin="reset.mouseover" end="reset.mouseout"/>
                       </use>
               </g>
        </defs>

<script type="text/javascript">
var viewWidth = 1408;
var viewHeight = 766;
var sectionId = 'dynsection-1';
</script>
<script xlink:href="svgpan.js"/>
<svg id="graph" class="graph">
<g id="viewport">
<title>src/http/http_parser.h</title>
<polygon fill="white" stroke="transparent" points="-4,4 -4,-762 1404,-762 1404,4 -4,4"/>
<!-- Node1 -->
<g id="node1" class="node">
<title>Node1</title>
<g id="a_node1"><a xlink:title=" ">
<polygon fill="#bfbfbf" stroke="black" points="604.5,-738.5 604.5,-757.5 724.5,-757.5 724.5,-738.5 604.5,-738.5"/>
<text text-anchor="middle" x="664.5" y="-745.5" font-family="Helvetica,sans-Serif" font-size="10.00">src/http/http_parser.h</text>
</a>
</g>
</g>
<!-- Node2 -->
<g id="node2" class="node">
<title>Node2</title>
<g id="a_node2"><a xlink:href="rpc__tls__client_8h.html" target="_top" xlink:title=" ">
<polygon fill="white" stroke="black" points="332,-615.5 332,-645.5 433,-645.5 433,-615.5 332,-615.5"/>
<text text-anchor="start" x="340" y="-633.5" font-family="Helvetica,sans-Serif" font-size="10.00">src/clients/rpc_tls</text>
<text text-anchor="middle" x="382.5" y="-622.5" font-family="Helvetica,sans-Serif" font-size="10.00">_client.h</text>
</a>
</g>
</g>
<!-- Node1&#45;&gt;Node2 -->
<g id="edge1" class="edge">
<title>Node1&#45;&gt;Node2</title>
<path fill="none" stroke="midnightblue" d="M594.18,-743.17C549.99,-738.22 493.11,-727.07 448.5,-702 423.8,-688.12 402.95,-661.84 391.63,-645.58"/>
<polygon fill="midnightblue" stroke="midnightblue" points="593.95,-746.66 604.26,-744.21 594.67,-739.7 593.95,-746.66"/>
</g>
<!-- Node7 -->
<g id="node7" class="node">
<title>Node7</title>
<g id="a_node7"><a xlink:href="acme__challenge__server_8h.html" target="_top" xlink:title=" ">
<polygon fill="white" stroke="black" points="330,-492.5 330,-522.5 467,-522.5 467,-492.5 330,-492.5"/>
<text text-anchor="start" x="338" y="-510.5" font-family="Helvetica,sans-Serif" font-size="10.00">src/host/acme_challenge</text>
<text text-anchor="middle" x="398.5" y="-499.5" font-family="Helvetica,sans-Serif" font-size="10.00">_server.h</text>
</a>
</g>
</g>
<!-- Node1&#45;&gt;Node7 -->
<g id="edge7" class="edge">
<title>Node1&#45;&gt;Node7</title>
<path fill="none" stroke="midnightblue" d="M637.84,-733.72C622.48,-725.51 603.16,-714.23 587.5,-702 512.55,-643.47 437.92,-556.46 409.99,-522.65"/>
<polygon fill="midnightblue" stroke="midnightblue" points="636.35,-736.89 646.83,-738.41 639.59,-730.68 636.35,-736.89"/>
</g>
<!-- Node9 -->
<g id="node9" class="node">
<title>Node9</title>
<g id="a_node9"><a xlink:href="http__endpoint_8h.html" target="_top" xlink:title=" ">
<polygon fill="white" stroke="black" points="492,-559.5 492,-578.5 625,-578.5 625,-559.5 492,-559.5"/>
<text text-anchor="middle" x="558.5" y="-566.5" font-family="Helvetica,sans-Serif" font-size="10.00">src/http/http_endpoint.h</text>
</a>
</g>
</g>
<!-- Node1&#45;&gt;Node9 -->
<g id="edge9" class="edge">
<title>Node1&#45;&gt;Node9</title>
<path fill="none" stroke="midnightblue" d="M639.94,-732.97C627.78,-725.08 613.58,-714.35 603.5,-702 571.95,-663.37 562.04,-601.44 559.37,-578.72"/>
<polygon fill="midnightblue" stroke="midnightblue" points="638.4,-736.13 648.74,-738.42 642.09,-730.18 638.4,-736.13"/>
</g>
<!-- Node24 -->
<g id="node24" class="node">
<title>Node24</title>
<g id="a_node24"><a xlink:href="http__jwt_8h.html" target="_top" xlink:title=" ">
<polygon fill="white" stroke="black" points="1164,-682.5 1164,-701.5 1269,-701.5 1269,-682.5 1164,-682.5"/>
<text text-anchor="middle" x="1216.5" y="-689.5" font-family="Helvetica,sans-Serif" font-size="10.00">src/http/http_jwt.h</text>
</a>
</g>
</g>
<!-- Node1&#45;&gt;Node24 -->
<g id="edge35" class="edge">
<title>Node1&#45;&gt;Node24</title>
<path fill="none" stroke="midnightblue" d="M734.82,-740.12C846.98,-729.15 1063.9,-707.93 1163.8,-698.16"/>
<polygon fill="midnightblue" stroke="midnightblue" points="734.24,-736.66 724.62,-741.12 734.92,-743.63 734.24,-736.66"/>
</g>
<!-- Node29 -->
<g id="node29" class="node">
<title>Node29</title>
<g id="a_node29"><a xlink:href="http__rpc__context_8h.html" target="_top" xlink:title=" ">
<polygon fill="white" stroke="black" points="799,-621 799,-640 946,-640 946,-621 799,-621"/>
<text text-anchor="middle" x="872.5" y="-628" font-family="Helvetica,sans-Serif" font-size="10.00">src/http/http_rpc_context.h</text>
</a>
</g>
</g>
<!-- Node1&#45;&gt;Node29 -->
<g id="edge44" class="edge">
<title>Node1&#45;&gt;Node29</title>
<path fill="none" stroke="midnightblue" d="M704.86,-735.41C728.83,-727.67 759.37,-716.29 784.5,-702 816.15,-684 848.26,-654.94 863.46,-640.39"/>
<polygon fill="midnightblue" stroke="midnightblue" points="703.51,-732.16 695.02,-738.5 705.6,-738.84 703.51,-732.16"/>
</g>
<!-- Node31 -->
<g id="node31" class="node">
<title>Node31</title>
<g id="a_node31"><a xlink:href="http__sig_8h.html" target="_top" xlink:title=" ">
<polygon fill="white" stroke="black" points="612.5,-682.5 612.5,-701.5 716.5,-701.5 716.5,-682.5 612.5,-682.5"/>
<text text-anchor="middle" x="664.5" y="-689.5" font-family="Helvetica,sans-Serif" font-size="10.00">src/http/http_sig.h</text>
</a>
</g>
</g>
<!-- Node1&#45;&gt;Node31 -->
<g id="edge50" class="edge">
<title>Node1&#45;&gt;Node31</title>
<path fill="none" stroke="midnightblue" d="M664.5,-727.8C664.5,-718.91 664.5,-708.78 664.5,-701.75"/>
<polygon fill="midnightblue" stroke="midnightblue" points="661,-728.08 664.5,-738.08 668,-728.08 661,-728.08"/>
</g>
<!-- Node33 -->
<g id="node33" class="node">
<title>Node33</title>
<g id="a_node33"><a xlink:href="acme__client_8h.html" target="_top" xlink:title=" ">
<polygon fill="white" stroke="black" points="712,-559.5 712,-578.5 841,-578.5 841,-559.5 712,-559.5"/>
<text text-anchor="middle" x="776.5" y="-566.5" font-family="Helvetica,sans-Serif" font-size="10.00">src/node/acme_client.h</text>
</a>
</g>
</g>
<!-- Node1&#45;&gt;Node33 -->
<g id="edge54" class="edge">
<title>Node1&#45;&gt;Node33</title>
<path fill="none" stroke="midnightblue" d="M689.06,-732.97C701.22,-725.08 715.42,-714.35 725.5,-702 757.52,-662.81 771.03,-601.22 775.09,-578.65"/>
<polygon fill="midnightblue" stroke="midnightblue" points="686.91,-730.18 680.26,-738.42 690.6,-736.13 686.91,-730.18"/>
</g>
<!-- Node3 -->
<g id="node3" class="node">
<title>Node3</title>
<g id="a_node3"><a xlink:href="perf__client_8h.html" target="_top" xlink:title=" ">
<polygon fill="white" stroke="black" points="165,-492.5 165,-522.5 276,-522.5 276,-492.5 165,-492.5"/>
<text text-anchor="start" x="173" y="-510.5" font-family="Helvetica,sans-Serif" font-size="10.00">src/clients/perf/perf</text>
<text text-anchor="middle" x="220.5" y="-499.5" font-family="Helvetica,sans-Serif" font-size="10.00">_client.h</text>
</a>
</g>
</g>
<!-- Node2&#45;&gt;Node3 -->
<g id="edge2" class="edge">
<title>Node2&#45;&gt;Node3</title>
<path fill="none" stroke="midnightblue" d="M365.41,-607.25C353.19,-592.33 335.74,-572.95 317.5,-559 298.2,-544.24 273.95,-531.61 254.52,-522.68"/>
<polygon fill="midnightblue" stroke="midnightblue" points="362.99,-609.82 371.97,-615.43 368.45,-605.44 362.99,-609.82"/>
</g>
<!-- Node6 -->
<g id="node6" class="node">
<title>Node6</title>
<g id="a_node6"><a xlink:href="timing_8h.html" target="_top" xlink:title=" ">
<polygon fill="white" stroke="black" points="176.5,-559.5 176.5,-578.5 308.5,-578.5 308.5,-559.5 176.5,-559.5"/>
<text text-anchor="middle" x="242.5" y="-566.5" font-family="Helvetica,sans-Serif" font-size="10.00">src/clients/perf/timing.h</text>
</a>
</g>
</g>
<!-- Node2&#45;&gt;Node6 -->
<g id="edge5" class="edge">
<title>Node2&#45;&gt;Node6</title>
<path fill="none" stroke="midnightblue" d="M339.85,-611.37C314.29,-600.51 282.96,-587.2 262.87,-578.66"/>
<polygon fill="midnightblue" stroke="midnightblue" points="338.75,-614.71 349.32,-615.4 341.49,-608.27 338.75,-614.71"/>
</g>
<!-- Node4 -->
<g id="node4" class="node">
<title>Node4</title>
<g id="a_node4"><a xlink:href="tpcc__client_8cpp.html" target="_top" xlink:title=" ">
<polygon fill="white" stroke="black" points="151.5,-425.5 151.5,-455.5 267.5,-455.5 267.5,-425.5 151.5,-425.5"/>
<text text-anchor="start" x="159.5" y="-443.5" font-family="Helvetica,sans-Serif" font-size="10.00">src/apps/tpcc/clients</text>
<text text-anchor="middle" x="209.5" y="-432.5" font-family="Helvetica,sans-Serif" font-size="10.00">/tpcc_client.cpp</text>
</a>
</g>
</g>
<!-- Node3&#45;&gt;Node4 -->
<g id="edge3" class="edge">
<title>Node3&#45;&gt;Node4</title>
<path fill="none" stroke="midnightblue" d="M216.42,-482.4C214.89,-473.37 213.21,-463.41 211.88,-455.58"/>
<polygon fill="midnightblue" stroke="midnightblue" points="212.99,-483.12 218.11,-492.4 219.9,-481.95 212.99,-483.12"/>
</g>
<!-- Node5 -->
<g id="node5" class="node">
<title>Node5</title>
<g id="a_node5"><a xlink:href="scenario__perf__client_8cpp.html" target="_top" xlink:title=" ">
<polygon fill="white" stroke="black" points="0,-425.5 0,-455.5 133,-455.5 133,-425.5 0,-425.5"/>
<text text-anchor="start" x="8" y="-443.5" font-family="Helvetica,sans-Serif" font-size="10.00">src/clients/perf/scenario</text>
<text text-anchor="middle" x="66.5" y="-432.5" font-family="Helvetica,sans-Serif" font-size="10.00">_perf_client.cpp</text>
</a>
</g>
</g>
<!-- Node3&#45;&gt;Node5 -->
<g id="edge4" class="edge">
<title>Node3&#45;&gt;Node5</title>
<path fill="none" stroke="midnightblue" d="M177.63,-488.41C153.05,-478.03 122.64,-465.2 99.85,-455.58"/>
<polygon fill="midnightblue" stroke="midnightblue" points="176.51,-491.73 187.08,-492.4 179.23,-485.28 176.51,-491.73"/>
</g>
<!-- Node6&#45;&gt;Node3 -->
<g id="edge6" class="edge">
<title>Node6&#45;&gt;Node3</title>
<path fill="none" stroke="midnightblue" d="M235.78,-549.82C232.53,-541.04 228.7,-530.68 225.68,-522.52"/>
<polygon fill="midnightblue" stroke="midnightblue" points="232.6,-551.31 239.35,-559.48 239.16,-548.88 232.6,-551.31"/>
</g>
<!-- Node8 -->
<g id="node8" class="node">
<title>Node8</title>
<g id="a_node8"><a xlink:href="host_2main_8cpp.html" target="_top" xlink:title=" ">
<polygon fill="white" stroke="black" points="286,-431 286,-450 389,-450 389,-431 286,-431"/>
<text text-anchor="middle" x="337.5" y="-438" font-family="Helvetica,sans-Serif" font-size="10.00">src/host/main.cpp</text>
</a>
</g>
</g>
<!-- Node7&#45;&gt;Node8 -->
<g id="edge8" class="edge">
<title>Node7&#45;&gt;Node8</title>
<path fill="none" stroke="midnightblue" d="M378.32,-485C367.19,-473.13 353.97,-459.05 345.66,-450.19"/>
<polygon fill="midnightblue" stroke="midnightblue" points="375.87,-487.5 385.26,-492.4 380.97,-482.71 375.87,-487.5"/>
</g>
<!-- Node9&#45;&gt;Node7 -->
<g id="edge34" class="edge">
<title>Node9&#45;&gt;Node7</title>
<path fill="none" stroke="midnightblue" d="M526.17,-555.98C500.15,-546.3 463.55,-532.69 436.21,-522.52"/>
<polygon fill="midnightblue" stroke="midnightblue" points="524.98,-559.27 535.58,-559.48 527.42,-552.71 524.98,-559.27"/>
</g>
<!-- Node10 -->
<g id="node10" class="node">
<title>Node10</title>
<g id="a_node10"><a xlink:href="rpc__sessions_8h.html" target="_top" xlink:title=" ">
<polygon fill="white" stroke="black" points="485.5,-498 485.5,-517 631.5,-517 631.5,-498 485.5,-498"/>
<text text-anchor="middle" x="558.5" y="-505" font-family="Helvetica,sans-Serif" font-size="10.00">src/enclave/rpc_sessions.h</text>
</a>
</g>
</g>
<!-- Node9&#45;&gt;Node10 -->
<g id="edge10" class="edge">
<title>Node9&#45;&gt;Node10</title>
<path fill="none" stroke="midnightblue" d="M558.5,-549.32C558.5,-538.5 558.5,-525.4 558.5,-517.01"/>
<polygon fill="midnightblue" stroke="midnightblue" points="555,-549.48 558.5,-559.48 562,-549.48 555,-549.48"/>
</g>
<!-- Node11 -->
<g id="node11" class="node">
<title>Node11</title>
<g id="a_node11"><a xlink:href="enclave_2enclave_8h.html" target="_top" xlink:title=" ">
<polygon fill="white" stroke="black" points="986.5,-56.5 986.5,-75.5 1108.5,-75.5 1108.5,-56.5 986.5,-56.5"/>
<text text-anchor="middle" x="1047.5" y="-63.5" font-family="Helvetica,sans-Serif" font-size="10.00">src/enclave/enclave.h</text>
</a>
</g>
</g>
<!-- Node10&#45;&gt;Node11 -->
<g id="edge11" class="edge">
<title>Node10&#45;&gt;Node11</title>
<path fill="none" stroke="midnightblue" d="M523.83,-494.08C504.06,-485.68 479.84,-472.99 462.5,-456 432.95,-427.04 417.5,-415.88 417.5,-374.5 417.5,-374.5 417.5,-374.5 417.5,-182.5 417.5,-125.06 827.92,-85.1 986.23,-71.82"/>
<polygon fill="midnightblue" stroke="midnightblue" points="522.55,-497.34 533.13,-497.86 525.19,-490.85 522.55,-497.34"/>
</g>
<!-- Node13 -->
<g id="node13" class="node">
<title>Node13</title>
<g id="a_node13"><a xlink:href="ccf__acme__client_8h.html" target="_top" xlink:title=" ">
<polygon fill="white" stroke="black" points="705,-431 705,-450 854,-450 854,-431 705,-431"/>
<text text-anchor="middle" x="779.5" y="-438" font-family="Helvetica,sans-Serif" font-size="10.00">src/node/ccf_acme_client.h</text>
</a>
</g>
</g>
<!-- Node10&#45;&gt;Node13 -->
<g id="edge13" class="edge">
<title>Node10&#45;&gt;Node13</title>
<path fill="none" stroke="midnightblue" d="M597.57,-495.01C641.31,-482.15 711.18,-461.59 750.38,-450.06"/>
<polygon fill="midnightblue" stroke="midnightblue" points="596.45,-491.69 587.85,-497.87 598.43,-498.4 596.45,-491.69"/>
</g>
<!-- Node14 -->
<g id="node14" class="node">
<title>Node14</title>
<g id="a_node14"><a xlink:href="node__state_8h.html" target="_top" xlink:title=" ">
<polygon fill="white" stroke="black" points="803.5,-174 803.5,-193 927.5,-193 927.5,-174 803.5,-174"/>
<text text-anchor="middle" x="865.5" y="-181" font-family="Helvetica,sans-Serif" font-size="10.00">src/node/node_state.h</text>
</a>
</g>
</g>
<!-- Node10&#45;&gt;Node14 -->
<g id="edge31" class="edge">
<title>Node10&#45;&gt;Node14</title>
<path fill="none" stroke="midnightblue" d="M555.91,-487.97C554.58,-478.42 552.95,-466.59 551.5,-456 545.59,-412.66 530.99,-400.2 542.5,-358 550.1,-330.13 557.9,-324.91 575.5,-302 600.97,-268.86 604.97,-255.31 641.5,-235 691.68,-207.11 756.28,-194.62 803.2,-189.03"/>
<polygon fill="midnightblue" stroke="midnightblue" points="552.45,-488.5 557.3,-497.92 559.39,-487.54 552.45,-488.5"/>
</g>
<!-- Node16 -->
<g id="node16" class="node">
<title>Node16</title>
<g id="a_node16"><a xlink:href="node__client_8h.html" target="_top" xlink:title=" ">
<polygon fill="white" stroke="black" points="560.5,-431 560.5,-450 686.5,-450 686.5,-431 560.5,-431"/>
<text text-anchor="middle" x="623.5" y="-438" font-family="Helvetica,sans-Serif" font-size="10.00">src/node/node_client.h</text>
</a>
</g>
</g>
<!-- Node10&#45;&gt;Node16 -->
<g id="edge18" class="edge">
<title>Node10&#45;&gt;Node16</title>
<path fill="none" stroke="midnightblue" d="M574.5,-490.5C587.25,-477.75 604.61,-460.39 614.87,-450.13"/>
<polygon fill="midnightblue" stroke="midnightblue" points="571.86,-488.19 567.27,-497.73 576.81,-493.14 571.86,-488.19"/>
</g>
<!-- Node23 -->
<g id="node23" class="node">
<title>Node23</title>
<g id="a_node23"><a xlink:href="resharing_8h.html" target="_top" xlink:title=" ">
<polygon fill="white" stroke="black" points="445.5,-241 445.5,-260 561.5,-260 561.5,-241 445.5,-241"/>
<text text-anchor="middle" x="503.5" y="-248" font-family="Helvetica,sans-Serif" font-size="10.00">src/node/resharing.h</text>
</a>
</g>
</g>
<!-- Node10&#45;&gt;Node23 -->
<g id="edge32" class="edge">
<title>Node10&#45;&gt;Node23</title>
<path fill="none" stroke="midnightblue" d="M523.74,-493.64C507.19,-485.54 488.98,-473.31 479.5,-456 446.63,-395.97 464.44,-368.77 479.5,-302 483.05,-286.28 492.08,-269.71 498,-260.01"/>
<polygon fill="midnightblue" stroke="midnightblue" points="522.66,-496.99 533.22,-497.93 525.55,-490.61 522.66,-496.99"/>
</g>
<!-- Node12 -->
<g id="node12" class="node">
<title>Node12</title>
<g id="a_node12"><a xlink:href="enclave_2main_8cpp.html" target="_top" xlink:title=" ">
<polygon fill="white" stroke="black" points="987.5,-0.5 987.5,-19.5 1107.5,-19.5 1107.5,-0.5 987.5,-0.5"/>
<text text-anchor="middle" x="1047.5" y="-7.5" font-family="Helvetica,sans-Serif" font-size="10.00">src/enclave/main.cpp</text>
</a>
</g>
</g>
<!-- Node11&#45;&gt;Node12 -->
<g id="edge12" class="edge">
<title>Node11&#45;&gt;Node12</title>
<path fill="none" stroke="midnightblue" d="M1047.5,-45.8C1047.5,-36.91 1047.5,-26.78 1047.5,-19.75"/>
<polygon fill="midnightblue" stroke="midnightblue" points="1044,-46.08 1047.5,-56.08 1051,-46.08 1044,-46.08"/>
</g>
<!-- Node13&#45;&gt;Node14 -->
<g id="edge14" class="edge">
<title>Node13&#45;&gt;Node14</title>
<path fill="none" stroke="midnightblue" d="M822.16,-427.38C841.07,-419.65 861.49,-407.51 872.5,-389 892.57,-355.26 872.77,-227.37 866.98,-193.03"/>
<polygon fill="midnightblue" stroke="midnightblue" points="820.88,-424.12 812.76,-430.93 823.35,-430.67 820.88,-424.12"/>
</g>
<!-- Node14&#45;&gt;Node11 -->
<g id="edge15" class="edge">
<title>Node14&#45;&gt;Node11</title>
<path fill="none" stroke="midnightblue" d="M891.57,-169.29C910.26,-159.56 935.86,-145.68 957.5,-132 986.99,-113.36 1019.77,-88.58 1036.44,-75.67"/>
<polygon fill="midnightblue" stroke="midnightblue" points="889.76,-166.29 882.48,-173.98 892.97,-172.51 889.76,-166.29"/>
</g>
<!-- Node15 -->
<g id="node15" class="node">
<title>Node15</title>
<g id="a_node15"><a xlink:href="gov__effects_8h.html" target="_top" xlink:title=" ">
<polygon fill="white" stroke="black" points="804.5,-112.5 804.5,-131.5 948.5,-131.5 948.5,-112.5 804.5,-112.5"/>
<text text-anchor="middle" x="876.5" y="-119.5" font-family="Helvetica,sans-Serif" font-size="10.00">src/node/rpc/gov_effects.h</text>
</a>
</g>
</g>
<!-- Node14&#45;&gt;Node15 -->
<g id="edge16" class="edge">
<title>Node14&#45;&gt;Node15</title>
<path fill="none" stroke="midnightblue" d="M868.95,-163.82C870.95,-153 873.38,-139.9 874.93,-131.51"/>
<polygon fill="midnightblue" stroke="midnightblue" points="865.45,-163.51 867.08,-173.98 872.34,-164.78 865.45,-163.51"/>
</g>
<!-- Node15&#45;&gt;Node11 -->
<g id="edge17" class="edge">
<title>Node15&#45;&gt;Node11</title>
<path fill="none" stroke="midnightblue" d="M913.54,-109.3C945.76,-99.13 991.69,-84.62 1020.53,-75.52"/>
<polygon fill="midnightblue" stroke="midnightblue" points="912.08,-106.09 903.6,-112.44 914.19,-112.77 912.08,-106.09"/>
</g>
<!-- Node17 -->
<g id="node17" class="node">
<title>Node17</title>
<g id="a_node17"><a xlink:href="orc__requests_8h.html" target="_top" xlink:title=" ">
<polygon fill="white" stroke="black" points="744,-358.5 744,-388.5 863,-388.5 863,-358.5 744,-358.5"/>
<text text-anchor="start" x="752" y="-376.5" font-family="Helvetica,sans-Serif" font-size="10.00">src/consensus/aft/orc</text>
<text text-anchor="middle" x="803.5" y="-365.5" font-family="Helvetica,sans-Serif" font-size="10.00">_requests.h</text>
</a>
</g>
</g>
<!-- Node16&#45;&gt;Node17 -->
<g id="edge19" class="edge">
<title>Node16&#45;&gt;Node17</title>
<path fill="none" stroke="midnightblue" d="M657.16,-427.35C687.67,-416.33 732.63,-400.09 764.65,-388.53"/>
<polygon fill="midnightblue" stroke="midnightblue" points="655.62,-424.18 647.4,-430.87 658,-430.76 655.62,-424.18"/>
</g>
<!-- Node18 -->
<g id="node18" class="node">
<title>Node18</title>
<g id="a_node18"><a xlink:href="raft_8h.html" target="_top" xlink:title=" ">
<polygon fill="white" stroke="black" points="670,-302.5 670,-321.5 799,-321.5 799,-302.5 670,-302.5"/>
<text text-anchor="middle" x="734.5" y="-309.5" font-family="Helvetica,sans-Serif" font-size="10.00">src/consensus/aft/raft.h</text>
</a>
</g>
</g>
<!-- Node16&#45;&gt;Node18 -->
<g id="edge26" class="edge">
<title>Node16&#45;&gt;Node18</title>
<path fill="none" stroke="midnightblue" d="M649.6,-425.84C664.75,-416.92 683.37,-404.13 696.5,-389 714.67,-368.05 726.65,-336.88 731.73,-321.8"/>
<polygon fill="midnightblue" stroke="midnightblue" points="647.67,-422.91 640.69,-430.88 651.12,-429 647.67,-422.91"/>
</g>
<!-- Node21 -->
<g id="node21" class="node">
<title>Node21</title>
<g id="a_node21"><a xlink:href="http__node__client_8h.html" target="_top" xlink:title=" ">
<polygon fill="white" stroke="black" points="650.5,-235.5 650.5,-265.5 760.5,-265.5 760.5,-235.5 650.5,-235.5"/>
<text text-anchor="start" x="658.5" y="-253.5" font-family="Helvetica,sans-Serif" font-size="10.00">src/node/http_node</text>
<text text-anchor="middle" x="705.5" y="-242.5" font-family="Helvetica,sans-Serif" font-size="10.00">_client.h</text>
</a>
</g>
</g>
<!-- Node16&#45;&gt;Node21 -->
<g id="edge27" class="edge">
<title>Node16&#45;&gt;Node21</title>
<path fill="none" stroke="midnightblue" d="M591.82,-426.28C576.37,-418.01 559.27,-405.73 550.5,-389 544.1,-376.8 544.08,-370.19 550.5,-358 574.9,-311.63 629.63,-281.54 667.07,-265.54"/>
<polygon fill="midnightblue" stroke="midnightblue" points="590.63,-429.59 601.14,-430.91 593.74,-423.32 590.63,-429.59"/>
</g>
<!-- Node22 -->
<g id="node22" class="node">
<title>Node22</title>
<g id="a_node22"><a xlink:href="retired__nodes__cleanup_8h.html" target="_top" xlink:title=" ">
<polygon fill="white" stroke="black" points="559.5,-358.5 559.5,-388.5 687.5,-388.5 687.5,-358.5 559.5,-358.5"/>
<text text-anchor="start" x="567.5" y="-376.5" font-family="Helvetica,sans-Serif" font-size="10.00">src/node/retired_nodes</text>
<text text-anchor="middle" x="623.5" y="-365.5" font-family="Helvetica,sans-Serif" font-size="10.00">_cleanup.h</text>
</a>
</g>
</g>
<!-- Node16&#45;&gt;Node22 -->
<g id="edge29" class="edge">
<title>Node16&#45;&gt;Node22</title>
<path fill="none" stroke="midnightblue" d="M623.5,-420.41C623.5,-410.22 623.5,-397.9 623.5,-388.59"/>
<polygon fill="midnightblue" stroke="midnightblue" points="620,-420.73 623.5,-430.73 627,-420.73 620,-420.73"/>
</g>
<!-- Node17&#45;&gt;Node18 -->
<g id="edge20" class="edge">
<title>Node17&#45;&gt;Node18</title>
<path fill="none" stroke="midnightblue" d="M779.26,-351.6C767.34,-341.32 753.61,-329.48 744.54,-321.66"/>
<polygon fill="midnightblue" stroke="midnightblue" points="777.29,-354.52 787.15,-358.4 781.86,-349.22 777.29,-354.52"/>
</g>
<!-- Node19 -->
<g id="node19" class="node">
<title>Node19</title>
<g id="a_node19"><a xlink:href="node__frontend_8h.html" target="_top" xlink:title=" ">
<polygon fill="white" stroke="black" points="937.5,-302.5 937.5,-321.5 1095.5,-321.5 1095.5,-302.5 937.5,-302.5"/>
<text text-anchor="middle" x="1016.5" y="-309.5" font-family="Helvetica,sans-Serif" font-size="10.00">src/node/rpc/node_frontend.h</text>
</a>
</g>
</g>
<!-- Node17&#45;&gt;Node19 -->
<g id="edge22" class="edge">
<title>Node17&#45;&gt;Node19</title>
<path fill="none" stroke="midnightblue" d="M863.35,-355.78C903.31,-344.62 954.18,-330.41 986.05,-321.51"/>
<polygon fill="midnightblue" stroke="midnightblue" points="862.4,-352.41 853.71,-358.47 864.28,-359.16 862.4,-352.41"/>
</g>
<!-- Node18&#45;&gt;Node14 -->
<g id="edge21" class="edge">
<title>Node18&#45;&gt;Node14</title>
<path fill="none" stroke="midnightblue" d="M750.89,-295.17C778.78,-268.24 834.59,-214.35 856.43,-193.26"/>
<polygon fill="midnightblue" stroke="midnightblue" points="748.27,-292.84 743.5,-302.31 753.13,-297.88 748.27,-292.84"/>
</g>
<!-- Node19&#45;&gt;Node11 -->
<g id="edge23" class="edge">
<title>Node19&#45;&gt;Node11</title>
<path fill="none" stroke="midnightblue" d="M1022.14,-292.63C1024.43,-284.53 1026.91,-274.86 1028.5,-266 1041.58,-193.24 1046.05,-103.8 1047.18,-75.8"/>
<polygon fill="midnightblue" stroke="midnightblue" points="1018.71,-291.89 1019.23,-302.47 1025.42,-293.87 1018.71,-291.89"/>
</g>
<!-- Node20 -->
<g id="node20" class="node">
<title>Node20</title>
<g id="a_node20"><a xlink:href="jwt__key__auto__refresh_8h.html" target="_top" xlink:title=" ">
<polygon fill="white" stroke="black" points="894,-235.5 894,-265.5 1019,-265.5 1019,-235.5 894,-235.5"/>
<text text-anchor="start" x="902" y="-253.5" font-family="Helvetica,sans-Serif" font-size="10.00">src/node/jwt_key_auto</text>
<text text-anchor="middle" x="956.5" y="-242.5" font-family="Helvetica,sans-Serif" font-size="10.00">_refresh.h</text>
</a>
</g>
</g>
<!-- Node19&#45;&gt;Node20 -->
<g id="edge24" class="edge">
<title>Node19&#45;&gt;Node20</title>
<path fill="none" stroke="midnightblue" d="M1000.74,-295.37C991.4,-286.11 979.68,-274.48 970.64,-265.52"/>
<polygon fill="midnightblue" stroke="midnightblue" points="998.34,-297.92 1007.9,-302.48 1003.27,-292.95 998.34,-297.92"/>
</g>
<!-- Node20&#45;&gt;Node14 -->
<g id="edge25" class="edge">
<title>Node20&#45;&gt;Node14</title>
<path fill="none" stroke="midnightblue" d="M928.23,-229.31C911.14,-217.1 890.25,-202.18 877.41,-193.01"/>
<polygon fill="midnightblue" stroke="midnightblue" points="926.58,-232.43 936.75,-235.4 930.65,-226.74 926.58,-232.43"/>
</g>
<!-- Node21&#45;&gt;Node14 -->
<g id="edge28" class="edge">
<title>Node21&#45;&gt;Node14</title>
<path fill="none" stroke="midnightblue" d="M749.51,-231.62C780.48,-219.04 820.54,-202.77 844.56,-193.01"/>
<polygon fill="midnightblue" stroke="midnightblue" points="748.16,-228.39 740.22,-235.4 750.8,-234.87 748.16,-228.39"/>
</g>
<!-- Node22&#45;&gt;Node18 -->
<g id="edge30" class="edge">
<title>Node22&#45;&gt;Node18</title>
<path fill="none" stroke="midnightblue" d="M658.66,-353.65C678.67,-342.93 702.77,-330.01 718.35,-321.66"/>
<polygon fill="midnightblue" stroke="midnightblue" points="656.97,-350.59 649.81,-358.4 660.27,-356.76 656.97,-350.59"/>
</g>
<!-- Node23&#45;&gt;Node14 -->
<g id="edge33" class="edge">
<title>Node23&#45;&gt;Node14</title>
<path fill="none" stroke="midnightblue" d="M554.96,-238.97C561.86,-237.6 568.85,-236.25 575.5,-235 658.88,-219.35 756.06,-202.76 814.09,-193.03"/>
<polygon fill="midnightblue" stroke="midnightblue" points="554.09,-235.57 544.96,-240.96 555.45,-242.44 554.09,-235.57"/>
</g>
<!-- Node25 -->
<g id="node25" class="node">
<title>Node25</title>
<g id="a_node25"><a xlink:href="jwt__auth_8cpp.html" target="_top" xlink:title=" ">
<polygon fill="white" stroke="black" points="1245,-615.5 1245,-645.5 1400,-645.5 1400,-615.5 1245,-615.5"/>
<text text-anchor="start" x="1253" y="-633.5" font-family="Helvetica,sans-Serif" font-size="10.00">src/endpoints/authentication</text>
<text text-anchor="middle" x="1322.5" y="-622.5" font-family="Helvetica,sans-Serif" font-size="10.00">/jwt_auth.cpp</text>
</a>
</g>
</g>
<!-- Node24&#45;&gt;Node25 -->
<g id="edge36" class="edge">
<title>Node24&#45;&gt;Node25</title>
<path fill="none" stroke="midnightblue" d="M1240.48,-677.54C1257.49,-667.99 1280.28,-655.2 1297.52,-645.52"/>
<polygon fill="midnightblue" stroke="midnightblue" points="1238.69,-674.53 1231.69,-682.48 1242.12,-680.63 1238.69,-674.53"/>
</g>
<!-- Node26 -->
<g id="node26" class="node">
<title>Node26</title>
<g id="a_node26"><a xlink:href="frontend_8h.html" target="_top" xlink:title=" ">
<polygon fill="white" stroke="black" points="1152,-364 1152,-383 1281,-383 1281,-364 1152,-364"/>
<text text-anchor="middle" x="1216.5" y="-371" font-family="Helvetica,sans-Serif" font-size="10.00">src/node/rpc/frontend.h</text>
</a>
</g>
</g>
<!-- Node24&#45;&gt;Node26 -->
<g id="edge37" class="edge">
<title>Node24&#45;&gt;Node26</title>
<path fill="none" stroke="midnightblue" d="M1216.5,-672.44C1216.5,-648.69 1216.5,-606.29 1216.5,-570 1216.5,-570 1216.5,-570 1216.5,-506.5 1216.5,-459.98 1216.5,-404.24 1216.5,-383.15"/>
<polygon fill="midnightblue" stroke="midnightblue" points="1213,-672.49 1216.5,-682.49 1220,-672.49 1213,-672.49"/>
</g>
<!-- Node26&#45;&gt;Node14 -->
<g id="edge38" class="edge">
<title>Node26&#45;&gt;Node14</title>
<path fill="none" stroke="midnightblue" d="M1199.61,-357.09C1168.14,-329.12 1097.48,-269.69 1028.5,-235 988.8,-215.03 939.66,-201.13 905.78,-193.04"/>
<polygon fill="midnightblue" stroke="midnightblue" points="1197.3,-359.72 1207.08,-363.8 1201.97,-354.51 1197.3,-359.72"/>
</g>
<!-- Node26&#45;&gt;Node19 -->
<g id="edge41" class="edge">
<title>Node26&#45;&gt;Node19</title>
<path fill="none" stroke="midnightblue" d="M1177.94,-361.03C1139.07,-349.46 1079.98,-331.88 1045.1,-321.51"/>
<polygon fill="midnightblue" stroke="midnightblue" points="1177.26,-364.48 1187.84,-363.98 1179.26,-357.77 1177.26,-364.48"/>
</g>
<!-- Node27 -->
<g id="node27" class="node">
<title>Node27</title>
<g id="a_node27"><a xlink:href="member__frontend_8h.html" target="_top" xlink:title=" ">
<polygon fill="white" stroke="black" points="1253.5,-168.5 1253.5,-198.5 1373.5,-198.5 1373.5,-168.5 1253.5,-168.5"/>
<text text-anchor="start" x="1261.5" y="-186.5" font-family="Helvetica,sans-Serif" font-size="10.00">src/node/rpc/member</text>
<text text-anchor="middle" x="1313.5" y="-175.5" font-family="Helvetica,sans-Serif" font-size="10.00">_frontend.h</text>
</a>
</g>
</g>
<!-- Node26&#45;&gt;Node27 -->
<g id="edge39" class="edge">
<title>Node26&#45;&gt;Node27</title>
<path fill="none" stroke="midnightblue" d="M1225.61,-354.84C1244.73,-317.78 1288.72,-232.53 1306.17,-198.7"/>
<polygon fill="midnightblue" stroke="midnightblue" points="1222.39,-353.44 1220.92,-363.93 1228.62,-356.65 1222.39,-353.44"/>
</g>
<!-- Node28 -->
<g id="node28" class="node">
<title>Node28</title>
<g id="a_node28"><a xlink:href="user__frontend_8h.html" target="_top" xlink:title=" ">
<polygon fill="white" stroke="black" points="1139,-112.5 1139,-131.5 1294,-131.5 1294,-112.5 1139,-112.5"/>
<text text-anchor="middle" x="1216.5" y="-119.5" font-family="Helvetica,sans-Serif" font-size="10.00">src/node/rpc/user_frontend.h</text>
</a>
</g>
</g>
<!-- Node26&#45;&gt;Node28 -->
<g id="edge42" class="edge">
<title>Node26&#45;&gt;Node28</title>
<path fill="none" stroke="midnightblue" d="M1216.5,-353.84C1216.5,-303.64 1216.5,-167.1 1216.5,-131.55"/>
<polygon fill="midnightblue" stroke="midnightblue" points="1213,-353.91 1216.5,-363.91 1220,-353.91 1213,-353.91"/>
</g>
<!-- Node27&#45;&gt;Node11 -->
<g id="edge40" class="edge">
<title>Node27&#45;&gt;Node11</title>
<path fill="none" stroke="midnightblue" d="M1316.69,-157.97C1317.23,-142.77 1315.05,-123.94 1303.5,-112 1277.22,-84.84 1175.74,-73.96 1108.71,-69.68"/>
<polygon fill="midnightblue" stroke="midnightblue" points="1313.18,-158.01 1315.92,-168.24 1320.16,-158.53 1313.18,-158.01"/>
</g>
<!-- Node28&#45;&gt;Node11 -->
<g id="edge43" class="edge">
<title>Node28&#45;&gt;Node11</title>
<path fill="none" stroke="midnightblue" d="M1179.9,-109.3C1148.05,-99.13 1102.66,-84.62 1074.15,-75.52"/>
<polygon fill="midnightblue" stroke="midnightblue" points="1179.13,-112.73 1189.72,-112.44 1181.26,-106.07 1179.13,-112.73"/>
</g>
<!-- Node29&#45;&gt;Node9 -->
<g id="edge45" class="edge">
<title>Node29&#45;&gt;Node9</title>
<path fill="none" stroke="midnightblue" d="M817.33,-619.05C756.5,-607.52 659.79,-589.19 603.41,-578.51"/>
<polygon fill="midnightblue" stroke="midnightblue" points="817.03,-622.55 827.51,-620.98 818.34,-615.67 817.03,-622.55"/>
</g>
<!-- Node29&#45;&gt;Node20 -->
<g id="edge46" class="edge">
<title>Node29&#45;&gt;Node20</title>
<path fill="none" stroke="midnightblue" d="M886.29,-612.65C903.16,-590.29 929.5,-548.91 929.5,-508.5 929.5,-508.5 929.5,-508.5 929.5,-439.5 929.5,-378.39 913.2,-361.17 928.5,-302 931.91,-288.8 939.6,-275.37 946.06,-265.69"/>
<polygon fill="midnightblue" stroke="midnightblue" points="883.35,-610.73 879.95,-620.76 888.87,-615.04 883.35,-610.73"/>
</g>
<!-- Node30 -->
<g id="node30" class="node">
<title>Node30</title>
<g id="a_node30"><a xlink:href="forwarder_8h.html" target="_top" xlink:title=" ">
<polygon fill="white" stroke="black" points="1054.5,-431 1054.5,-450 1188.5,-450 1188.5,-431 1054.5,-431"/>
<text text-anchor="middle" x="1121.5" y="-438" font-family="Helvetica,sans-Serif" font-size="10.00">src/node/rpc/forwarder.h</text>
</a>
</g>
</g>
<!-- Node29&#45;&gt;Node30 -->
<g id="edge47" class="edge">
<title>Node29&#45;&gt;Node30</title>
<path fill="none" stroke="midnightblue" d="M893.47,-614.91C907.69,-604.94 926.85,-591.34 943.5,-579 1007.8,-531.32 1083.26,-471.83 1110.78,-450.02"/>
<polygon fill="midnightblue" stroke="midnightblue" points="891.11,-612.29 884.92,-620.89 895.12,-618.03 891.11,-612.29"/>
</g>
<!-- Node30&#45;&gt;Node11 -->
<g id="edge48" class="edge">
<title>Node30&#45;&gt;Node11</title>
<path fill="none" stroke="midnightblue" d="M1119.85,-420.58C1117.38,-393.98 1112.16,-344.05 1104.5,-302 1088.92,-216.52 1079.04,-196.42 1058.5,-112 1055.42,-99.34 1051.83,-84.68 1049.61,-75.63"/>
<polygon fill="midnightblue" stroke="midnightblue" points="1116.39,-421.11 1120.77,-430.76 1123.36,-420.49 1116.39,-421.11"/>
</g>
<!-- Node30&#45;&gt;Node26 -->
<g id="edge49" class="edge">
<title>Node30&#45;&gt;Node26</title>
<path fill="none" stroke="midnightblue" d="M1142.81,-424.92C1161.59,-412.07 1188.32,-393.78 1203.89,-383.13"/>
<polygon fill="midnightblue" stroke="midnightblue" points="1140.59,-422.2 1134.31,-430.73 1144.54,-427.98 1140.59,-422.2"/>
</g>
<!-- Node31&#45;&gt;Node2 -->
<g id="edge51" class="edge">
<title>Node31&#45;&gt;Node2</title>
<path fill="none" stroke="midnightblue" d="M614.27,-680.4C563.23,-669.63 484.59,-653.04 433.33,-642.22"/>
<polygon fill="midnightblue" stroke="midnightblue" points="613.59,-683.84 624.1,-682.48 615.03,-676.99 613.59,-683.84"/>
</g>
<!-- Node31&#45;&gt;Node29 -->
<g id="edge53" class="edge">
<title>Node31&#45;&gt;Node29</title>
<path fill="none" stroke="midnightblue" d="M704.09,-679.68C744.5,-668.11 806.33,-650.43 842.75,-640.01"/>
<polygon fill="midnightblue" stroke="midnightblue" points="702.95,-676.36 694.3,-682.48 704.88,-683.09 702.95,-676.36"/>
</g>
<!-- Node32 -->
<g id="node32" class="node">
<title>Node32</title>
<g id="a_node32"><a xlink:href="sig__auth_8cpp.html" target="_top" xlink:title=" ">
<polygon fill="white" stroke="black" points="587,-615.5 587,-645.5 742,-645.5 742,-615.5 587,-615.5"/>
<text text-anchor="start" x="595" y="-633.5" font-family="Helvetica,sans-Serif" font-size="10.00">src/endpoints/authentication</text>
<text text-anchor="middle" x="664.5" y="-622.5" font-family="Helvetica,sans-Serif" font-size="10.00">/sig_auth.cpp</text>
</a>
</g>
</g>
<!-- Node31&#45;&gt;Node32 -->
<g id="edge52" class="edge">
<title>Node31&#45;&gt;Node32</title>
<path fill="none" stroke="midnightblue" d="M664.5,-672.23C664.5,-663.59 664.5,-653.5 664.5,-645.52"/>
<polygon fill="midnightblue" stroke="midnightblue" points="661,-672.48 664.5,-682.48 668,-672.48 661,-672.48"/>
</g>
<!-- Node33&#45;&gt;Node13 -->
<g id="edge55" class="edge">
<title>Node33&#45;&gt;Node13</title>
<path fill="none" stroke="midnightblue" d="M776.94,-549.31C777.6,-521.58 778.81,-470.63 779.29,-450.26"/>
<polygon fill="midnightblue" stroke="midnightblue" points="773.44,-549.22 776.71,-559.31 780.44,-549.39 773.44,-549.22"/>
</g>
</g>
</svg>
        <g id="navigator" transform="translate(0 0)" fill="#404254">
                <rect fill="#f2f5e9" fill-opacity="0.5" stroke="#606060" stroke-width=".5" x="0" y="0" width="60" height="60"/>
                <use id="zoomplus" xlink:href="#zoomPlus" x="17" y="9" onmousedown="handleZoom(evt,'in')"/>
                <use id="zoomminus" xlink:href="#zoomMin" x="42" y="9" onmousedown="handleZoom(evt,'out')"/>
                <use id="reset" xlink:href="#resetDef" x="30" y="36" onmousedown="handleReset()"/>
                <g id="arrowUp" xlink:href="#dirArrow" transform="translate(30 24)" onmousedown="handlePan(0,-1)">
                  <use xlink:href="#rim" fill="#404040">
                        <set attributeName="fill" to="#808080" begin="arrowUp.mouseover" end="arrowUp.mouseout"/>
                  </use>
                  <path fill="none" stroke="white" stroke-width="1.5" d="M0,-3.0v7 M-2.5,-0.5L0,-3.0L2.5,-0.5"/>
                </g>
                <g id="arrowRight" xlink:href="#dirArrow" transform="rotate(90) translate(36 -43)" onmousedown="handlePan(1,0)">
                  <use xlink:href="#rim" fill="#404040">
                        <set attributeName="fill" to="#808080" begin="arrowRight.mouseover" end="arrowRight.mouseout"/>
                  </use>
                  <path fill="none" stroke="white" stroke-width="1.5" d="M0,-3.0v7 M-2.5,-0.5L0,-3.0L2.5,-0.5"/>
                </g>
                <g id="arrowDown" xlink:href="#dirArrow" transform="rotate(180) translate(-30 -48)" onmousedown="handlePan(0,1)">
                  <use xlink:href="#rim" fill="#404040">
                        <set attributeName="fill" to="#808080" begin="arrowDown.mouseover" end="arrowDown.mouseout"/>
                  </use>
                  <path fill="none" stroke="white" stroke-width="1.5" d="M0,-3.0v7 M-2.5,-0.5L0,-3.0L2.5,-0.5"/>
                </g>
                <g id="arrowLeft" xlink:href="#dirArrow" transform="rotate(270) translate(-36 17)" onmousedown="handlePan(-1,0)">
                  <use xlink:href="#rim" fill="#404040">
                        <set attributeName="fill" to="#808080" begin="arrowLeft.mouseover" end="arrowLeft.mouseout"/>
                  </use>
                  <path fill="none" stroke="white" stroke-width="1.5" d="M0,-3.0v7 M-2.5,-0.5L0,-3.0L2.5,-0.5"/>
                </g>
        </g>
        <svg viewBox="0 0 15 15" width="100%" height="30px" preserveAspectRatio="xMaxYMin meet">
         <g id="arrow_out" transform="scale(0.3 0.3)">
          <a xlink:href="http__parser_8h__dep__incl_org.svg" target="_base">
           <rect id="button" ry="5" rx="5" y="6" x="6" height="38" width="38"
                fill="#f2f5e9" fill-opacity="0.5" stroke="#606060" stroke-width="1.0"/>
           <path id="arrow"
             d="M 11.500037,31.436501 C 11.940474,20.09759 22.043105,11.32322 32.158766,21.979434 L 37.068811,17.246167 C 37.068811,17.246167 37.088388,32 37.088388,32 L 22.160133,31.978069 C 22.160133,31.978069 26.997745,27.140456 26.997745,27.140456 C 18.528582,18.264221 13.291696,25.230495 11.500037,31.436501 z"
             style="fill:#404040;"/>
          </a>
         </g>
        </svg>
</svg>
