<?xml version="1.0" encoding="UTF-8" standalone="no"?>
<!DOCTYPE svg PUBLIC "-//W3C//DTD SVG 1.1//EN"
 "http://www.w3.org/Graphics/SVG/1.1/DTD/svg11.dtd">
<!-- Generated by graphviz version 2.43.0 (0)
 -->
<!-- Title: src/http/http_builder.h Pages: 1 -->
<svg width="1269pt" height="889pt"
 viewBox="0.00 0.00 1269.00 889.00" xmlns="http://www.w3.org/2000/svg" xmlns:xlink="http://www.w3.org/1999/xlink">
<g id="graph0" class="graph" transform="scale(1 1) rotate(0) translate(4 885)">
<title>src/http/http_builder.h</title>
<polygon fill="white" stroke="transparent" points="-4,4 -4,-885 1265,-885 1265,4 -4,4"/>
<!-- Node1 -->
<g id="node1" class="node">
<title>Node1</title>
<g id="a_node1"><a xlink:title=" ">
<polygon fill="#bfbfbf" stroke="black" points="413,-861.5 413,-880.5 536,-880.5 536,-861.5 413,-861.5"/>
<text text-anchor="middle" x="474.5" y="-868.5" font-family="Helvetica,sans-Serif" font-size="10.00">src/http/http_builder.h</text>
</a>
</g>
</g>
<!-- Node2 -->
<g id="node2" class="node">
<title>Node2</title>
<g id="a_node2"><a xlink:href="rpc__tls__client_8h.html" target="_top" xlink:title=" ">
<polygon fill="white" stroke="black" points="990,-615.5 990,-645.5 1091,-645.5 1091,-615.5 990,-615.5"/>
<text text-anchor="start" x="998" y="-633.5" font-family="Helvetica,sans-Serif" font-size="10.00">src/clients/rpc_tls</text>
<text text-anchor="middle" x="1040.5" y="-622.5" font-family="Helvetica,sans-Serif" font-size="10.00">_client.h</text>
</a>
</g>
</g>
<!-- Node1&#45;&gt;Node2 -->
<g id="edge1" class="edge">
<title>Node1&#45;&gt;Node2</title>
<path fill="none" stroke="midnightblue" d="M546.3,-867.2C606.12,-862.91 692.67,-852.12 763.5,-825 876.63,-781.68 987.48,-682.34 1026.12,-645.55"/>
<polygon fill="midnightblue" stroke="midnightblue" points="545.93,-863.71 536.19,-867.88 546.4,-870.7 545.93,-863.71"/>
</g>
<!-- Node7 -->
<g id="node7" class="node">
<title>Node7</title>
<g id="a_node7"><a xlink:href="client__endpoint_8h.html" target="_top" xlink:title=" ">
<polygon fill="white" stroke="black" points="271.5,-738.5 271.5,-768.5 373.5,-768.5 373.5,-738.5 271.5,-738.5"/>
<text text-anchor="start" x="279.5" y="-756.5" font-family="Helvetica,sans-Serif" font-size="10.00">src/enclave/client</text>
<text text-anchor="middle" x="322.5" y="-745.5" font-family="Helvetica,sans-Serif" font-size="10.00">_endpoint.h</text>
</a>
</g>
</g>
<!-- Node1&#45;&gt;Node7 -->
<g id="edge7" class="edge">
<title>Node1&#45;&gt;Node7</title>
<path fill="none" stroke="midnightblue" d="M454.79,-855.02C425.23,-832.56 369.81,-790.45 340.98,-768.55"/>
<polygon fill="midnightblue" stroke="midnightblue" points="453,-858.06 463.08,-861.32 457.23,-852.48 453,-858.06"/>
</g>
<!-- Node19 -->
<g id="node19" class="node">
<title>Node19</title>
<g id="a_node19"><a xlink:href="jwt__key__auto__refresh_8h.html" target="_top" xlink:title=" ">
<polygon fill="white" stroke="black" points="634,-235.5 634,-265.5 759,-265.5 759,-235.5 634,-235.5"/>
<text text-anchor="start" x="642" y="-253.5" font-family="Helvetica,sans-Serif" font-size="10.00">src/node/jwt_key_auto</text>
<text text-anchor="middle" x="696.5" y="-242.5" font-family="Helvetica,sans-Serif" font-size="10.00">_refresh.h</text>
</a>
</g>
</g>
<!-- Node1&#45;&gt;Node19 -->
<g id="edge63" class="edge">
<title>Node1&#45;&gt;Node19</title>
<path fill="none" stroke="midnightblue" d="M546.44,-869.48C627.92,-864.64 749.5,-842.64 749.5,-754.5 749.5,-754.5 749.5,-754.5 749.5,-568 749.5,-449.61 712.98,-309.69 700.57,-265.55"/>
<polygon fill="midnightblue" stroke="midnightblue" points="546.02,-865.99 536.22,-870.01 546.38,-872.98 546.02,-865.99"/>
</g>
<!-- Node23 -->
<g id="node23" class="node">
<title>Node23</title>
<g id="a_node23"><a xlink:href="acme__challenge__server_8h.html" target="_top" xlink:title=" ">
<polygon fill="white" stroke="black" points="177,-492.5 177,-522.5 314,-522.5 314,-492.5 177,-492.5"/>
<text text-anchor="start" x="185" y="-510.5" font-family="Helvetica,sans-Serif" font-size="10.00">src/host/acme_challenge</text>
<text text-anchor="middle" x="245.5" y="-499.5" font-family="Helvetica,sans-Serif" font-size="10.00">_server.h</text>
</a>
</g>
</g>
<!-- Node1&#45;&gt;Node23 -->
<g id="edge35" class="edge">
<title>Node1&#45;&gt;Node23</title>
<path fill="none" stroke="midnightblue" d="M402.32,-867.02C327.23,-859.59 220.5,-834.89 220.5,-754.5 220.5,-754.5 220.5,-754.5 220.5,-629.5 220.5,-590.25 233.28,-545.28 240.56,-522.83"/>
<polygon fill="midnightblue" stroke="midnightblue" points="402.41,-870.54 412.69,-867.96 403.05,-863.57 402.41,-870.54"/>
</g>
<!-- Node25 -->
<g id="node25" class="node">
<title>Node25</title>
<g id="a_node25"><a xlink:href="http__parser_8h.html" target="_top" xlink:title=" ">
<polygon fill="white" stroke="black" points="414.5,-744 414.5,-763 534.5,-763 534.5,-744 414.5,-744"/>
<text text-anchor="middle" x="474.5" y="-751" font-family="Helvetica,sans-Serif" font-size="10.00">src/http/http_parser.h</text>
</a>
</g>
</g>
<!-- Node1&#45;&gt;Node25 -->
<g id="edge36" class="edge">
<title>Node1&#45;&gt;Node25</title>
<path fill="none" stroke="midnightblue" d="M463.74,-852.69C459.32,-844.59 454.73,-834.64 452.5,-825 447.24,-802.27 460.58,-776.22 468.73,-763.07"/>
<polygon fill="midnightblue" stroke="midnightblue" points="460.8,-854.6 468.86,-861.48 466.85,-851.08 460.8,-854.6"/>
</g>
<!-- Node36 -->
<g id="node36" class="node">
<title>Node36</title>
<g id="a_node36"><a xlink:href="http__proc_8h.html" target="_top" xlink:title=" ">
<polygon fill="white" stroke="black" points="461,-805.5 461,-824.5 572,-824.5 572,-805.5 461,-805.5"/>
<text text-anchor="middle" x="516.5" y="-812.5" font-family="Helvetica,sans-Serif" font-size="10.00">src/http/http_proc.h</text>
</a>
</g>
</g>
<!-- Node1&#45;&gt;Node36 -->
<g id="edge61" class="edge">
<title>Node1&#45;&gt;Node36</title>
<path fill="none" stroke="midnightblue" d="M487.61,-853.14C494.93,-843.74 503.74,-832.4 509.69,-824.75"/>
<polygon fill="midnightblue" stroke="midnightblue" points="484.81,-851.04 481.44,-861.08 490.34,-855.34 484.81,-851.04"/>
</g>
<!-- Node3 -->
<g id="node3" class="node">
<title>Node3</title>
<g id="a_node3"><a xlink:href="perf__client_8h.html" target="_top" xlink:title=" ">
<polygon fill="white" stroke="black" points="1047,-492.5 1047,-522.5 1158,-522.5 1158,-492.5 1047,-492.5"/>
<text text-anchor="start" x="1055" y="-510.5" font-family="Helvetica,sans-Serif" font-size="10.00">src/clients/perf/perf</text>
<text text-anchor="middle" x="1102.5" y="-499.5" font-family="Helvetica,sans-Serif" font-size="10.00">_client.h</text>
</a>
</g>
</g>
<!-- Node2&#45;&gt;Node3 -->
<g id="edge2" class="edge">
<title>Node2&#45;&gt;Node3</title>
<path fill="none" stroke="midnightblue" d="M1094.95,-610.74C1108.99,-603.15 1122.41,-592.82 1130.5,-579 1141.28,-560.59 1127.2,-537.25 1115.41,-522.59"/>
<polygon fill="midnightblue" stroke="midnightblue" points="1093.08,-607.76 1085.68,-615.34 1096.2,-614.03 1093.08,-607.76"/>
</g>
<!-- Node6 -->
<g id="node6" class="node">
<title>Node6</title>
<g id="a_node6"><a xlink:href="timing_8h.html" target="_top" xlink:title=" ">
<polygon fill="white" stroke="black" points="989.5,-559.5 989.5,-578.5 1121.5,-578.5 1121.5,-559.5 989.5,-559.5"/>
<text text-anchor="middle" x="1055.5" y="-566.5" font-family="Helvetica,sans-Serif" font-size="10.00">src/clients/perf/timing.h</text>
</a>
</g>
</g>
<!-- Node2&#45;&gt;Node6 -->
<g id="edge5" class="edge">
<title>Node2&#45;&gt;Node6</title>
<path fill="none" stroke="midnightblue" d="M1046.53,-605.59C1048.93,-596.08 1051.53,-585.73 1053.32,-578.66"/>
<polygon fill="midnightblue" stroke="midnightblue" points="1043.11,-604.85 1044.05,-615.4 1049.89,-606.56 1043.11,-604.85"/>
</g>
<!-- Node4 -->
<g id="node4" class="node">
<title>Node4</title>
<g id="a_node4"><a xlink:href="tpcc__client_8cpp.html" target="_top" xlink:title=" ">
<polygon fill="white" stroke="black" points="993.5,-425.5 993.5,-455.5 1109.5,-455.5 1109.5,-425.5 993.5,-425.5"/>
<text text-anchor="start" x="1001.5" y="-443.5" font-family="Helvetica,sans-Serif" font-size="10.00">src/apps/tpcc/clients</text>
<text text-anchor="middle" x="1051.5" y="-432.5" font-family="Helvetica,sans-Serif" font-size="10.00">/tpcc_client.cpp</text>
</a>
</g>
</g>
<!-- Node3&#45;&gt;Node4 -->
<g id="edge3" class="edge">
<title>Node3&#45;&gt;Node4</title>
<path fill="none" stroke="midnightblue" d="M1085.2,-484.45C1077.71,-474.9 1069.16,-464 1062.54,-455.58"/>
<polygon fill="midnightblue" stroke="midnightblue" points="1082.51,-486.69 1091.43,-492.4 1088.01,-482.37 1082.51,-486.69"/>
</g>
<!-- Node5 -->
<g id="node5" class="node">
<title>Node5</title>
<g id="a_node5"><a xlink:href="scenario__perf__client_8cpp.html" target="_top" xlink:title=" ">
<polygon fill="white" stroke="black" points="1128,-425.5 1128,-455.5 1261,-455.5 1261,-425.5 1128,-425.5"/>
<text text-anchor="start" x="1136" y="-443.5" font-family="Helvetica,sans-Serif" font-size="10.00">src/clients/perf/scenario</text>
<text text-anchor="middle" x="1194.5" y="-432.5" font-family="Helvetica,sans-Serif" font-size="10.00">_perf_client.cpp</text>
</a>
</g>
</g>
<!-- Node3&#45;&gt;Node5 -->
<g id="edge4" class="edge">
<title>Node3&#45;&gt;Node5</title>
<path fill="none" stroke="midnightblue" d="M1130.88,-486.45C1145.03,-476.45 1161.81,-464.6 1174.58,-455.58"/>
<polygon fill="midnightblue" stroke="midnightblue" points="1128.61,-483.77 1122.46,-492.4 1132.65,-489.48 1128.61,-483.77"/>
</g>
<!-- Node6&#45;&gt;Node3 -->
<g id="edge6" class="edge">
<title>Node6&#45;&gt;Node3</title>
<path fill="none" stroke="midnightblue" d="M1068.51,-551.53C1075.71,-542.42 1084.56,-531.21 1091.42,-522.52"/>
<polygon fill="midnightblue" stroke="midnightblue" points="1065.69,-549.46 1062.23,-559.48 1071.18,-553.8 1065.69,-549.46"/>
</g>
<!-- Node8 -->
<g id="node8" class="node">
<title>Node8</title>
<g id="a_node8"><a xlink:href="http__endpoint_8h.html" target="_top" xlink:title=" ">
<polygon fill="white" stroke="black" points="325,-559.5 325,-578.5 458,-578.5 458,-559.5 325,-559.5"/>
<text text-anchor="middle" x="391.5" y="-566.5" font-family="Helvetica,sans-Serif" font-size="10.00">src/http/http_endpoint.h</text>
</a>
</g>
</g>
<!-- Node7&#45;&gt;Node8 -->
<g id="edge8" class="edge">
<title>Node7&#45;&gt;Node8</title>
<path fill="none" stroke="midnightblue" d="M315.37,-728.47C308.25,-699.59 300.92,-650.58 320.5,-615 330.21,-597.35 350.08,-585.66 366.34,-578.62"/>
<polygon fill="midnightblue" stroke="midnightblue" points="311.98,-729.37 317.93,-738.14 318.75,-727.57 311.98,-729.37"/>
</g>
<!-- Node9 -->
<g id="node9" class="node">
<title>Node9</title>
<g id="a_node9"><a xlink:href="rpc__sessions_8h.html" target="_top" xlink:title=" ">
<polygon fill="white" stroke="black" points="345.5,-498 345.5,-517 491.5,-517 491.5,-498 345.5,-498"/>
<text text-anchor="middle" x="418.5" y="-505" font-family="Helvetica,sans-Serif" font-size="10.00">src/enclave/rpc_sessions.h</text>
</a>
</g>
</g>
<!-- Node8&#45;&gt;Node9 -->
<g id="edge9" class="edge">
<title>Node8&#45;&gt;Node9</title>
<path fill="none" stroke="midnightblue" d="M399.52,-550.33C404.51,-539.33 410.71,-525.66 414.64,-517.01"/>
<polygon fill="midnightblue" stroke="midnightblue" points="396.31,-548.92 395.37,-559.48 402.69,-551.82 396.31,-548.92"/>
</g>
<!-- Node8&#45;&gt;Node23 -->
<g id="edge33" class="edge">
<title>Node8&#45;&gt;Node23</title>
<path fill="none" stroke="midnightblue" d="M361.05,-555.59C337.38,-545.94 304.53,-532.56 279.91,-522.52"/>
<polygon fill="midnightblue" stroke="midnightblue" points="360,-558.94 370.58,-559.48 362.64,-552.46 360,-558.94"/>
</g>
<!-- Node10 -->
<g id="node10" class="node">
<title>Node10</title>
<g id="a_node10"><a xlink:href="enclave_2enclave_8h.html" target="_top" xlink:title=" ">
<polygon fill="white" stroke="black" points="764.5,-56.5 764.5,-75.5 886.5,-75.5 886.5,-56.5 764.5,-56.5"/>
<text text-anchor="middle" x="825.5" y="-63.5" font-family="Helvetica,sans-Serif" font-size="10.00">src/enclave/enclave.h</text>
</a>
</g>
</g>
<!-- Node9&#45;&gt;Node10 -->
<g id="edge10" class="edge">
<title>Node9&#45;&gt;Node10</title>
<path fill="none" stroke="midnightblue" d="M431.83,-489.75C445.49,-472.88 467.63,-446.36 488.5,-425 538.81,-373.51 605.5,-384.98 605.5,-313 605.5,-313 605.5,-313 605.5,-182.5 605.5,-110.46 699.12,-83.26 764.22,-73.05"/>
<polygon fill="midnightblue" stroke="midnightblue" points="429.04,-487.63 425.51,-497.61 434.5,-492.01 429.04,-487.63"/>
</g>
<!-- Node12 -->
<g id="node12" class="node">
<title>Node12</title>
<g id="a_node12"><a xlink:href="ccf__acme__client_8h.html" target="_top" xlink:title=" ">
<polygon fill="white" stroke="black" points="497,-431 497,-450 646,-450 646,-431 497,-431"/>
<text text-anchor="middle" x="571.5" y="-438" font-family="Helvetica,sans-Serif" font-size="10.00">src/node/ccf_acme_client.h</text>
</a>
</g>
</g>
<!-- Node9&#45;&gt;Node12 -->
<g id="edge12" class="edge">
<title>Node9&#45;&gt;Node12</title>
<path fill="none" stroke="midnightblue" d="M448.04,-493.95C478.34,-481.08 524.65,-461.4 551.1,-450.17"/>
<polygon fill="midnightblue" stroke="midnightblue" points="446.65,-490.74 438.82,-497.87 449.39,-497.18 446.65,-490.74"/>
</g>
<!-- Node13 -->
<g id="node13" class="node">
<title>Node13</title>
<g id="a_node13"><a xlink:href="node__state_8h.html" target="_top" xlink:title=" ">
<polygon fill="white" stroke="black" points="419.5,-174 419.5,-193 543.5,-193 543.5,-174 419.5,-174"/>
<text text-anchor="middle" x="481.5" y="-181" font-family="Helvetica,sans-Serif" font-size="10.00">src/node/node_state.h</text>
</a>
</g>
</g>
<!-- Node9&#45;&gt;Node13 -->
<g id="edge30" class="edge">
<title>Node9&#45;&gt;Node13</title>
<path fill="none" stroke="midnightblue" d="M372.49,-495.45C291.39,-474.61 131.5,-426.9 131.5,-374.5 131.5,-374.5 131.5,-374.5 131.5,-311 131.5,-271.28 145.52,-257.13 178.5,-235 216.92,-209.22 342.44,-195.19 419.35,-188.82"/>
<polygon fill="midnightblue" stroke="midnightblue" points="371.89,-498.91 382.44,-497.97 373.61,-492.12 371.89,-498.91"/>
</g>
<!-- Node15 -->
<g id="node15" class="node">
<title>Node15</title>
<g id="a_node15"><a xlink:href="node__client_8h.html" target="_top" xlink:title=" ">
<polygon fill="white" stroke="black" points="277.5,-431 277.5,-450 403.5,-450 403.5,-431 277.5,-431"/>
<text text-anchor="middle" x="340.5" y="-438" font-family="Helvetica,sans-Serif" font-size="10.00">src/node/node_client.h</text>
</a>
</g>
</g>
<!-- Node9&#45;&gt;Node15 -->
<g id="edge17" class="edge">
<title>Node9&#45;&gt;Node15</title>
<path fill="none" stroke="midnightblue" d="M400.16,-491.21C384.79,-478.41 363.41,-460.59 350.85,-450.13"/>
<polygon fill="midnightblue" stroke="midnightblue" points="398.06,-494.02 407.98,-497.73 402.54,-488.64 398.06,-494.02"/>
</g>
<!-- Node22 -->
<g id="node22" class="node">
<title>Node22</title>
<g id="a_node22"><a xlink:href="resharing_8h.html" target="_top" xlink:title=" ">
<polygon fill="white" stroke="black" points="423.5,-241 423.5,-260 539.5,-260 539.5,-241 423.5,-241"/>
<text text-anchor="middle" x="481.5" y="-248" font-family="Helvetica,sans-Serif" font-size="10.00">src/node/resharing.h</text>
</a>
</g>
</g>
<!-- Node9&#45;&gt;Node22 -->
<g id="edge31" class="edge">
<title>Node9&#45;&gt;Node22</title>
<path fill="none" stroke="midnightblue" d="M423.57,-488.07C429.15,-470.37 439.5,-443.66 455.5,-425 474.51,-402.82 496.61,-414.7 510.5,-389 534.4,-344.79 501.06,-282.7 487.12,-260.13"/>
<polygon fill="midnightblue" stroke="midnightblue" points="420.18,-487.18 420.71,-497.76 426.9,-489.16 420.18,-487.18"/>
</g>
<!-- Node11 -->
<g id="node11" class="node">
<title>Node11</title>
<g id="a_node11"><a xlink:href="enclave_2main_8cpp.html" target="_top" xlink:title=" ">
<polygon fill="white" stroke="black" points="765.5,-0.5 765.5,-19.5 885.5,-19.5 885.5,-0.5 765.5,-0.5"/>
<text text-anchor="middle" x="825.5" y="-7.5" font-family="Helvetica,sans-Serif" font-size="10.00">src/enclave/main.cpp</text>
</a>
</g>
</g>
<!-- Node10&#45;&gt;Node11 -->
<g id="edge11" class="edge">
<title>Node10&#45;&gt;Node11</title>
<path fill="none" stroke="midnightblue" d="M825.5,-45.8C825.5,-36.91 825.5,-26.78 825.5,-19.75"/>
<polygon fill="midnightblue" stroke="midnightblue" points="822,-46.08 825.5,-56.08 829,-46.08 822,-46.08"/>
</g>
<!-- Node12&#45;&gt;Node13 -->
<g id="edge13" class="edge">
<title>Node12&#45;&gt;Node13</title>
<path fill="none" stroke="midnightblue" d="M574.04,-420.94C578.26,-383.16 583.16,-295.75 548.5,-235 537.46,-215.64 515.68,-201.39 499.95,-193.05"/>
<polygon fill="midnightblue" stroke="midnightblue" points="570.55,-420.64 572.79,-430.99 577.49,-421.5 570.55,-420.64"/>
</g>
<!-- Node13&#45;&gt;Node10 -->
<g id="edge14" class="edge">
<title>Node13&#45;&gt;Node10</title>
<path fill="none" stroke="midnightblue" d="M457.03,-168.53C434.7,-154.06 407.55,-130.96 424.5,-112 446.71,-87.16 657.38,-74.39 764.13,-69.46"/>
<polygon fill="midnightblue" stroke="midnightblue" points="455.21,-171.52 465.56,-173.81 458.89,-165.57 455.21,-171.52"/>
</g>
<!-- Node14 -->
<g id="node14" class="node">
<title>Node14</title>
<g id="a_node14"><a xlink:href="gov__effects_8h.html" target="_top" xlink:title=" ">
<polygon fill="white" stroke="black" points="433.5,-112.5 433.5,-131.5 577.5,-131.5 577.5,-112.5 433.5,-112.5"/>
<text text-anchor="middle" x="505.5" y="-119.5" font-family="Helvetica,sans-Serif" font-size="10.00">src/node/rpc/gov_effects.h</text>
</a>
</g>
</g>
<!-- Node13&#45;&gt;Node14 -->
<g id="edge15" class="edge">
<title>Node13&#45;&gt;Node14</title>
<path fill="none" stroke="midnightblue" d="M488.76,-164.5C493.18,-153.55 498.61,-140.07 502.07,-131.51"/>
<polygon fill="midnightblue" stroke="midnightblue" points="485.43,-163.39 484.94,-173.98 491.93,-166.01 485.43,-163.39"/>
</g>
<!-- Node14&#45;&gt;Node10 -->
<g id="edge16" class="edge">
<title>Node14&#45;&gt;Node10</title>
<path fill="none" stroke="midnightblue" d="M566.37,-110.73C626.84,-100.52 718.49,-85.06 775.03,-75.52"/>
<polygon fill="midnightblue" stroke="midnightblue" points="565.48,-107.33 556.2,-112.44 566.65,-114.23 565.48,-107.33"/>
</g>
<!-- Node16 -->
<g id="node16" class="node">
<title>Node16</title>
<g id="a_node16"><a xlink:href="orc__requests_8h.html" target="_top" xlink:title=" ">
<polygon fill="white" stroke="black" points="382,-358.5 382,-388.5 501,-388.5 501,-358.5 382,-358.5"/>
<text text-anchor="start" x="390" y="-376.5" font-family="Helvetica,sans-Serif" font-size="10.00">src/consensus/aft/orc</text>
<text text-anchor="middle" x="441.5" y="-365.5" font-family="Helvetica,sans-Serif" font-size="10.00">_requests.h</text>
</a>
</g>
</g>
<!-- Node15&#45;&gt;Node16 -->
<g id="edge18" class="edge">
<title>Node15&#45;&gt;Node16</title>
<path fill="none" stroke="midnightblue" d="M362.79,-425.15C379.7,-414.27 402.8,-399.4 419.61,-388.59"/>
<polygon fill="midnightblue" stroke="midnightblue" points="360.64,-422.38 354.12,-430.73 364.42,-428.27 360.64,-422.38"/>
</g>
<!-- Node17 -->
<g id="node17" class="node">
<title>Node17</title>
<g id="a_node17"><a xlink:href="raft_8h.html" target="_top" xlink:title=" ">
<polygon fill="white" stroke="black" points="299,-302.5 299,-321.5 428,-321.5 428,-302.5 299,-302.5"/>
<text text-anchor="middle" x="363.5" y="-309.5" font-family="Helvetica,sans-Serif" font-size="10.00">src/consensus/aft/raft.h</text>
</a>
</g>
</g>
<!-- Node15&#45;&gt;Node17 -->
<g id="edge25" class="edge">
<title>Node15&#45;&gt;Node17</title>
<path fill="none" stroke="midnightblue" d="M343.9,-420.81C348.94,-393.08 358.2,-342.13 361.91,-321.76"/>
<polygon fill="midnightblue" stroke="midnightblue" points="340.43,-420.34 342.08,-430.81 347.31,-421.59 340.43,-420.34"/>
</g>
<!-- Node20 -->
<g id="node20" class="node">
<title>Node20</title>
<g id="a_node20"><a xlink:href="http__node__client_8h.html" target="_top" xlink:title=" ">
<polygon fill="white" stroke="black" points="187.5,-235.5 187.5,-265.5 297.5,-265.5 297.5,-235.5 187.5,-235.5"/>
<text text-anchor="start" x="195.5" y="-253.5" font-family="Helvetica,sans-Serif" font-size="10.00">src/node/http_node</text>
<text text-anchor="middle" x="242.5" y="-242.5" font-family="Helvetica,sans-Serif" font-size="10.00">_client.h</text>
</a>
</g>
</g>
<!-- Node15&#45;&gt;Node20 -->
<g id="edge26" class="edge">
<title>Node15&#45;&gt;Node20</title>
<path fill="none" stroke="midnightblue" d="M267.51,-433.49C238.01,-427.05 206.7,-414.22 188.5,-389 159.84,-349.28 204,-292.29 228.28,-265.91"/>
<polygon fill="midnightblue" stroke="midnightblue" points="266.93,-436.94 277.42,-435.44 268.28,-430.07 266.93,-436.94"/>
</g>
<!-- Node21 -->
<g id="node21" class="node">
<title>Node21</title>
<g id="a_node21"><a xlink:href="retired__nodes__cleanup_8h.html" target="_top" xlink:title=" ">
<polygon fill="white" stroke="black" points="197.5,-358.5 197.5,-388.5 325.5,-388.5 325.5,-358.5 197.5,-358.5"/>
<text text-anchor="start" x="205.5" y="-376.5" font-family="Helvetica,sans-Serif" font-size="10.00">src/node/retired_nodes</text>
<text text-anchor="middle" x="261.5" y="-365.5" font-family="Helvetica,sans-Serif" font-size="10.00">_cleanup.h</text>
</a>
</g>
</g>
<!-- Node15&#45;&gt;Node21 -->
<g id="edge28" class="edge">
<title>Node15&#45;&gt;Node21</title>
<path fill="none" stroke="midnightblue" d="M321.95,-424.24C308.84,-413.45 291.4,-399.1 278.62,-388.59"/>
<polygon fill="midnightblue" stroke="midnightblue" points="319.9,-427.08 329.85,-430.73 324.35,-421.68 319.9,-427.08"/>
</g>
<!-- Node16&#45;&gt;Node17 -->
<g id="edge19" class="edge">
<title>Node16&#45;&gt;Node17</title>
<path fill="none" stroke="midnightblue" d="M414.87,-352.19C401.22,-341.77 385.3,-329.63 374.85,-321.66"/>
<polygon fill="midnightblue" stroke="midnightblue" points="412.94,-355.12 423.02,-358.4 417.19,-349.55 412.94,-355.12"/>
</g>
<!-- Node18 -->
<g id="node18" class="node">
<title>Node18</title>
<g id="a_node18"><a xlink:href="node__frontend_8h.html" target="_top" xlink:title=" ">
<polygon fill="white" stroke="black" points="739.5,-302.5 739.5,-321.5 897.5,-321.5 897.5,-302.5 739.5,-302.5"/>
<text text-anchor="middle" x="818.5" y="-309.5" font-family="Helvetica,sans-Serif" font-size="10.00">src/node/rpc/node_frontend.h</text>
</a>
</g>
</g>
<!-- Node16&#45;&gt;Node18 -->
<g id="edge21" class="edge">
<title>Node16&#45;&gt;Node18</title>
<path fill="none" stroke="midnightblue" d="M511.29,-361.49C584.47,-349.94 697.92,-332.03 764.54,-321.52"/>
<polygon fill="midnightblue" stroke="midnightblue" points="510.57,-358.06 501.24,-363.07 511.66,-364.97 510.57,-358.06"/>
</g>
<!-- Node17&#45;&gt;Node13 -->
<g id="edge20" class="edge">
<title>Node17&#45;&gt;Node13</title>
<path fill="none" stroke="midnightblue" d="M373.02,-293.41C382.31,-277.19 397.49,-252.97 414.5,-235 430.62,-217.97 452.97,-202.39 467.33,-193.17"/>
<polygon fill="midnightblue" stroke="midnightblue" points="369.85,-291.92 368.04,-302.35 375.96,-295.32 369.85,-291.92"/>
</g>
<!-- Node18&#45;&gt;Node10 -->
<g id="edge22" class="edge">
<title>Node18&#45;&gt;Node10</title>
<path fill="none" stroke="midnightblue" d="M819.04,-292.09C820.46,-242.57 824.25,-110.52 825.25,-75.58"/>
<polygon fill="midnightblue" stroke="midnightblue" points="815.54,-292.22 818.75,-302.32 822.53,-292.42 815.54,-292.22"/>
</g>
<!-- Node18&#45;&gt;Node19 -->
<g id="edge23" class="edge">
<title>Node18&#45;&gt;Node19</title>
<path fill="none" stroke="midnightblue" d="M791.99,-298.07C772.29,-288.47 745.46,-275.38 725.25,-265.52"/>
<polygon fill="midnightblue" stroke="midnightblue" points="790.5,-301.24 801.02,-302.48 793.57,-294.95 790.5,-301.24"/>
</g>
<!-- Node19&#45;&gt;Node13 -->
<g id="edge24" class="edge">
<title>Node19&#45;&gt;Node13</title>
<path fill="none" stroke="midnightblue" d="M640.3,-232.51C598.34,-219.83 542.76,-203.02 509.71,-193.03"/>
<polygon fill="midnightblue" stroke="midnightblue" points="639.53,-235.93 650.11,-235.48 641.55,-229.23 639.53,-235.93"/>
</g>
<!-- Node20&#45;&gt;Node13 -->
<g id="edge27" class="edge">
<title>Node20&#45;&gt;Node13</title>
<path fill="none" stroke="midnightblue" d="M303.79,-232.83C350.57,-220.11 413.09,-203.11 450.14,-193.03"/>
<polygon fill="midnightblue" stroke="midnightblue" points="302.8,-229.47 294.07,-235.48 304.63,-236.23 302.8,-229.47"/>
</g>
<!-- Node21&#45;&gt;Node17 -->
<g id="edge29" class="edge">
<title>Node21&#45;&gt;Node17</title>
<path fill="none" stroke="midnightblue" d="M294.31,-353.36C312.6,-342.69 334.47,-329.93 348.66,-321.66"/>
<polygon fill="midnightblue" stroke="midnightblue" points="292.55,-350.34 285.67,-358.4 296.07,-356.38 292.55,-350.34"/>
</g>
<!-- Node22&#45;&gt;Node13 -->
<g id="edge32" class="edge">
<title>Node22&#45;&gt;Node13</title>
<path fill="none" stroke="midnightblue" d="M481.5,-230.54C481.5,-218.17 481.5,-202.62 481.5,-193.13"/>
<polygon fill="midnightblue" stroke="midnightblue" points="478,-230.73 481.5,-240.73 485,-230.73 478,-230.73"/>
</g>
<!-- Node24 -->
<g id="node24" class="node">
<title>Node24</title>
<g id="a_node24"><a xlink:href="host_2main_8cpp.html" target="_top" xlink:title=" ">
<polygon fill="white" stroke="black" points="0,-431 0,-450 103,-450 103,-431 0,-431"/>
<text text-anchor="middle" x="51.5" y="-438" font-family="Helvetica,sans-Serif" font-size="10.00">src/host/main.cpp</text>
</a>
</g>
</g>
<!-- Node23&#45;&gt;Node24 -->
<g id="edge34" class="edge">
<title>Node23&#45;&gt;Node24</title>
<path fill="none" stroke="midnightblue" d="M193.59,-489.11C155.85,-476.46 106.39,-459.89 76.89,-450.01"/>
<polygon fill="midnightblue" stroke="midnightblue" points="192.81,-492.54 203.4,-492.4 195.03,-485.9 192.81,-492.54"/>
</g>
<!-- Node25&#45;&gt;Node2 -->
<g id="edge37" class="edge">
<title>Node25&#45;&gt;Node2</title>
<path fill="none" stroke="midnightblue" d="M544.77,-753.17C633.73,-752.07 790.68,-743.6 917.5,-702 957.26,-688.96 998.45,-662.15 1021.64,-645.61"/>
<polygon fill="midnightblue" stroke="midnightblue" points="544.49,-749.67 534.53,-753.27 544.56,-756.67 544.49,-749.67"/>
</g>
<!-- Node25&#45;&gt;Node8 -->
<g id="edge39" class="edge">
<title>Node25&#45;&gt;Node8</title>
<path fill="none" stroke="midnightblue" d="M442.7,-739.51C426.01,-731.14 406.57,-718.69 394.5,-702 371.54,-670.27 375.82,-653.88 380.5,-615 382.06,-602.06 386.05,-587.48 388.77,-578.51"/>
<polygon fill="midnightblue" stroke="midnightblue" points="441.6,-742.86 452.14,-743.96 444.59,-736.53 441.6,-742.86"/>
</g>
<!-- Node25&#45;&gt;Node23 -->
<g id="edge38" class="edge">
<title>Node25&#45;&gt;Node23</title>
<path fill="none" stroke="midnightblue" d="M442.08,-739.91C422.51,-731.25 397.89,-718.35 379.5,-702 317.36,-646.74 269.34,-557.06 252.26,-522.6"/>
<polygon fill="midnightblue" stroke="midnightblue" points="440.94,-743.23 451.51,-743.94 443.69,-736.8 440.94,-743.23"/>
</g>
<!-- Node26 -->
<g id="node26" class="node">
<title>Node26</title>
<g id="a_node26"><a xlink:href="http__jwt_8h.html" target="_top" xlink:title=" ">
<polygon fill="white" stroke="black" points="803,-682.5 803,-701.5 908,-701.5 908,-682.5 803,-682.5"/>
<text text-anchor="middle" x="855.5" y="-689.5" font-family="Helvetica,sans-Serif" font-size="10.00">src/http/http_jwt.h</text>
</a>
</g>
</g>
<!-- Node25&#45;&gt;Node26 -->
<g id="edge40" class="edge">
<title>Node25&#45;&gt;Node26</title>
<path fill="none" stroke="midnightblue" d="M539.26,-742.39C613.58,-730.78 734.04,-711.97 802.85,-701.22"/>
<polygon fill="midnightblue" stroke="midnightblue" points="538.43,-738.97 529.09,-743.98 539.51,-745.89 538.43,-738.97"/>
</g>
<!-- Node31 -->
<g id="node31" class="node">
<title>Node31</title>
<g id="a_node31"><a xlink:href="http__rpc__context_8h.html" target="_top" xlink:title=" ">
<polygon fill="white" stroke="black" points="401,-621 401,-640 548,-640 548,-621 401,-621"/>
<text text-anchor="middle" x="474.5" y="-628" font-family="Helvetica,sans-Serif" font-size="10.00">src/http/http_rpc_context.h</text>
</a>
</g>
</g>
<!-- Node25&#45;&gt;Node31 -->
<g id="edge49" class="edge">
<title>Node25&#45;&gt;Node31</title>
<path fill="none" stroke="midnightblue" d="M474.5,-733.49C474.5,-706.85 474.5,-659.5 474.5,-640.12"/>
<polygon fill="midnightblue" stroke="midnightblue" points="471,-733.8 474.5,-743.8 478,-733.8 471,-733.8"/>
</g>
<!-- Node33 -->
<g id="node33" class="node">
<title>Node33</title>
<g id="a_node33"><a xlink:href="http__sig_8h.html" target="_top" xlink:title=" ">
<polygon fill="white" stroke="black" points="547.5,-682.5 547.5,-701.5 651.5,-701.5 651.5,-682.5 547.5,-682.5"/>
<text text-anchor="middle" x="599.5" y="-689.5" font-family="Helvetica,sans-Serif" font-size="10.00">src/http/http_sig.h</text>
</a>
</g>
</g>
<!-- Node25&#45;&gt;Node33 -->
<g id="edge55" class="edge">
<title>Node25&#45;&gt;Node33</title>
<path fill="none" stroke="midnightblue" d="M501.44,-739.67C525.7,-728.13 560.66,-711.49 581.62,-701.51"/>
<polygon fill="midnightblue" stroke="midnightblue" points="499.93,-736.52 492.41,-743.98 502.94,-742.84 499.93,-736.52"/>
</g>
<!-- Node35 -->
<g id="node35" class="node">
<title>Node35</title>
<g id="a_node35"><a xlink:href="acme__client_8h.html" target="_top" xlink:title=" ">
<polygon fill="white" stroke="black" points="484,-559.5 484,-578.5 613,-578.5 613,-559.5 484,-559.5"/>
<text text-anchor="middle" x="548.5" y="-566.5" font-family="Helvetica,sans-Serif" font-size="10.00">src/node/acme_client.h</text>
</a>
</g>
</g>
<!-- Node25&#45;&gt;Node35 -->
<g id="edge59" class="edge">
<title>Node25&#45;&gt;Node35</title>
<path fill="none" stroke="midnightblue" d="M453.67,-737.46C420.15,-711.44 361.06,-656.8 392.5,-615 404.96,-598.44 454.54,-586.06 494.51,-578.52"/>
<polygon fill="midnightblue" stroke="midnightblue" points="451.87,-740.49 461.95,-743.72 456.08,-734.9 451.87,-740.49"/>
</g>
<!-- Node27 -->
<g id="node27" class="node">
<title>Node27</title>
<g id="a_node27"><a xlink:href="jwt__auth_8cpp.html" target="_top" xlink:title=" ">
<polygon fill="white" stroke="black" points="778,-615.5 778,-645.5 933,-645.5 933,-615.5 778,-615.5"/>
<text text-anchor="start" x="786" y="-633.5" font-family="Helvetica,sans-Serif" font-size="10.00">src/endpoints/authentication</text>
<text text-anchor="middle" x="855.5" y="-622.5" font-family="Helvetica,sans-Serif" font-size="10.00">/jwt_auth.cpp</text>
</a>
</g>
</g>
<!-- Node26&#45;&gt;Node27 -->
<g id="edge41" class="edge">
<title>Node26&#45;&gt;Node27</title>
<path fill="none" stroke="midnightblue" d="M855.5,-672.23C855.5,-663.59 855.5,-653.5 855.5,-645.52"/>
<polygon fill="midnightblue" stroke="midnightblue" points="852,-672.48 855.5,-682.48 859,-672.48 852,-672.48"/>
</g>
<!-- Node28 -->
<g id="node28" class="node">
<title>Node28</title>
<g id="a_node28"><a xlink:href="frontend_8h.html" target="_top" xlink:title=" ">
<polygon fill="white" stroke="black" points="879,-364 879,-383 1008,-383 1008,-364 879,-364"/>
<text text-anchor="middle" x="943.5" y="-371" font-family="Helvetica,sans-Serif" font-size="10.00">src/node/rpc/frontend.h</text>
</a>
</g>
</g>
<!-- Node26&#45;&gt;Node28 -->
<g id="edge42" class="edge">
<title>Node26&#45;&gt;Node28</title>
<path fill="none" stroke="midnightblue" d="M895.52,-678.64C912.28,-671.58 930.59,-661.05 942.5,-646 964.1,-618.69 961.5,-604.82 961.5,-570 961.5,-570 961.5,-570 961.5,-506.5 961.5,-459.55 950.18,-404.06 945.5,-383.09"/>
<polygon fill="midnightblue" stroke="midnightblue" points="893.93,-675.51 885.89,-682.41 896.48,-682.03 893.93,-675.51"/>
</g>
<!-- Node28&#45;&gt;Node13 -->
<g id="edge43" class="edge">
<title>Node28&#45;&gt;Node13</title>
<path fill="none" stroke="midnightblue" d="M937.51,-354.02C931.68,-338.48 921.5,-316.54 906.5,-302 857.54,-254.55 833.37,-256 768.5,-235 693.17,-210.61 602.69,-197.17 543.73,-190.4"/>
<polygon fill="midnightblue" stroke="midnightblue" points="934.25,-355.3 940.85,-363.58 940.86,-352.99 934.25,-355.3"/>
</g>
<!-- Node28&#45;&gt;Node18 -->
<g id="edge46" class="edge">
<title>Node28&#45;&gt;Node18</title>
<path fill="none" stroke="midnightblue" d="M916.56,-359.67C892.3,-348.13 857.34,-331.49 836.38,-321.51"/>
<polygon fill="midnightblue" stroke="midnightblue" points="915.06,-362.84 925.59,-363.98 918.07,-356.52 915.06,-362.84"/>
</g>
<!-- Node29 -->
<g id="node29" class="node">
<title>Node29</title>
<g id="a_node29"><a xlink:href="member__frontend_8h.html" target="_top" xlink:title=" ">
<polygon fill="white" stroke="black" points="853.5,-168.5 853.5,-198.5 973.5,-198.5 973.5,-168.5 853.5,-168.5"/>
<text text-anchor="start" x="861.5" y="-186.5" font-family="Helvetica,sans-Serif" font-size="10.00">src/node/rpc/member</text>
<text text-anchor="middle" x="913.5" y="-175.5" font-family="Helvetica,sans-Serif" font-size="10.00">_frontend.h</text>
</a>
</g>
</g>
<!-- Node28&#45;&gt;Node29 -->
<g id="edge44" class="edge">
<title>Node28&#45;&gt;Node29</title>
<path fill="none" stroke="midnightblue" d="M943.26,-353.75C942.87,-339.5 941.91,-319.44 939.5,-302 934.3,-264.33 923.35,-220.84 917.46,-198.84"/>
<polygon fill="midnightblue" stroke="midnightblue" points="939.76,-353.85 943.46,-363.77 946.76,-353.71 939.76,-353.85"/>
</g>
<!-- Node30 -->
<g id="node30" class="node">
<title>Node30</title>
<g id="a_node30"><a xlink:href="user__frontend_8h.html" target="_top" xlink:title=" ">
<polygon fill="white" stroke="black" points="892,-112.5 892,-131.5 1047,-131.5 1047,-112.5 892,-112.5"/>
<text text-anchor="middle" x="969.5" y="-119.5" font-family="Helvetica,sans-Serif" font-size="10.00">src/node/rpc/user_frontend.h</text>
</a>
</g>
</g>
<!-- Node28&#45;&gt;Node30 -->
<g id="edge47" class="edge">
<title>Node28&#45;&gt;Node30</title>
<path fill="none" stroke="midnightblue" d="M949.08,-354C958.25,-322.53 976.13,-256.39 982.5,-199 984.02,-185.31 984.43,-181.64 982.5,-168 980.68,-155.12 976.05,-140.76 972.84,-131.8"/>
<polygon fill="midnightblue" stroke="midnightblue" points="945.62,-353.37 946.13,-363.95 952.33,-355.36 945.62,-353.37"/>
</g>
<!-- Node29&#45;&gt;Node10 -->
<g id="edge45" class="edge">
<title>Node29&#45;&gt;Node10</title>
<path fill="none" stroke="midnightblue" d="M896.55,-160.26C876.96,-134.54 845.65,-93.45 832.11,-75.67"/>
<polygon fill="midnightblue" stroke="midnightblue" points="893.86,-162.5 902.71,-168.34 899.43,-158.26 893.86,-162.5"/>
</g>
<!-- Node30&#45;&gt;Node10 -->
<g id="edge48" class="edge">
<title>Node30&#45;&gt;Node10</title>
<path fill="none" stroke="midnightblue" d="M937.25,-108.91C910.18,-98.75 872.18,-84.51 848.21,-75.52"/>
<polygon fill="midnightblue" stroke="midnightblue" points="936.09,-112.21 946.68,-112.44 938.55,-105.66 936.09,-112.21"/>
</g>
<!-- Node31&#45;&gt;Node8 -->
<g id="edge50" class="edge">
<title>Node31&#45;&gt;Node8</title>
<path fill="none" stroke="midnightblue" d="M454.43,-615.11C438.47,-603.67 416.67,-588.05 403.37,-578.51"/>
<polygon fill="midnightblue" stroke="midnightblue" points="452.44,-617.99 462.61,-620.98 456.52,-612.3 452.44,-617.99"/>
</g>
<!-- Node31&#45;&gt;Node19 -->
<g id="edge51" class="edge">
<title>Node31&#45;&gt;Node19</title>
<path fill="none" stroke="midnightblue" d="M536.7,-618.69C595.08,-604.56 673.5,-573.48 673.5,-508.5 673.5,-508.5 673.5,-508.5 673.5,-372.5 673.5,-333.37 685.25,-288.35 691.96,-265.86"/>
<polygon fill="midnightblue" stroke="midnightblue" points="535.74,-615.32 526.78,-620.98 537.32,-622.14 535.74,-615.32"/>
</g>
<!-- Node32 -->
<g id="node32" class="node">
<title>Node32</title>
<g id="a_node32"><a xlink:href="forwarder_8h.html" target="_top" xlink:title=" ">
<polygon fill="white" stroke="black" points="799.5,-431 799.5,-450 933.5,-450 933.5,-431 799.5,-431"/>
<text text-anchor="middle" x="866.5" y="-438" font-family="Helvetica,sans-Serif" font-size="10.00">src/node/rpc/forwarder.h</text>
</a>
</g>
</g>
<!-- Node31&#45;&gt;Node32 -->
<g id="edge52" class="edge">
<title>Node31&#45;&gt;Node32</title>
<path fill="none" stroke="midnightblue" d="M530.6,-618.97C583.98,-608.46 660.09,-592.03 687.5,-579 761.46,-543.83 833.96,-474.44 858.09,-450.15"/>
<polygon fill="midnightblue" stroke="midnightblue" points="529.73,-615.58 520.59,-620.93 531.07,-622.45 529.73,-615.58"/>
</g>
<!-- Node32&#45;&gt;Node10 -->
<g id="edge53" class="edge">
<title>Node32&#45;&gt;Node10</title>
<path fill="none" stroke="midnightblue" d="M930.09,-428.71C991.58,-414.2 1075.5,-381.8 1075.5,-313 1075.5,-313 1075.5,-313 1075.5,-182.5 1075.5,-150.05 1080.24,-134.12 1056.5,-112 1032.32,-89.48 946.48,-77.45 886.55,-71.65"/>
<polygon fill="midnightblue" stroke="midnightblue" points="929.04,-425.36 920.05,-430.97 930.58,-432.19 929.04,-425.36"/>
</g>
<!-- Node32&#45;&gt;Node28 -->
<g id="edge54" class="edge">
<title>Node32&#45;&gt;Node28</title>
<path fill="none" stroke="midnightblue" d="M884.61,-424.21C899.78,-411.41 920.89,-393.59 933.28,-383.13"/>
<polygon fill="midnightblue" stroke="midnightblue" points="882.27,-421.61 876.88,-430.73 886.78,-426.96 882.27,-421.61"/>
</g>
<!-- Node33&#45;&gt;Node2 -->
<g id="edge56" class="edge">
<title>Node33&#45;&gt;Node2</title>
<path fill="none" stroke="midnightblue" d="M661.77,-683.14C730.52,-674.39 844.48,-659.68 942.5,-646 957.92,-643.85 974.68,-641.41 989.91,-639.15"/>
<polygon fill="midnightblue" stroke="midnightblue" points="661.02,-679.71 651.54,-684.44 661.91,-686.65 661.02,-679.71"/>
</g>
<!-- Node33&#45;&gt;Node31 -->
<g id="edge58" class="edge">
<title>Node33&#45;&gt;Node31</title>
<path fill="none" stroke="midnightblue" d="M572.56,-678.17C548.3,-666.63 513.34,-649.99 492.38,-640.01"/>
<polygon fill="midnightblue" stroke="midnightblue" points="571.06,-681.34 581.59,-682.48 574.07,-675.02 571.06,-681.34"/>
</g>
<!-- Node34 -->
<g id="node34" class="node">
<title>Node34</title>
<g id="a_node34"><a xlink:href="sig__auth_8cpp.html" target="_top" xlink:title=" ">
<polygon fill="white" stroke="black" points="566,-615.5 566,-645.5 721,-645.5 721,-615.5 566,-615.5"/>
<text text-anchor="start" x="574" y="-633.5" font-family="Helvetica,sans-Serif" font-size="10.00">src/endpoints/authentication</text>
<text text-anchor="middle" x="643.5" y="-622.5" font-family="Helvetica,sans-Serif" font-size="10.00">/sig_auth.cpp</text>
</a>
</g>
</g>
<!-- Node33&#45;&gt;Node34 -->
<g id="edge57" class="edge">
<title>Node33&#45;&gt;Node34</title>
<path fill="none" stroke="midnightblue" d="M611.89,-674.25C618.59,-665.19 626.77,-654.12 633.13,-645.52"/>
<polygon fill="midnightblue" stroke="midnightblue" points="608.94,-672.35 605.8,-682.48 614.56,-676.52 608.94,-672.35"/>
</g>
<!-- Node35&#45;&gt;Node12 -->
<g id="edge60" class="edge">
<title>Node35&#45;&gt;Node12</title>
<path fill="none" stroke="midnightblue" d="M551.9,-549.31C556.94,-521.58 566.2,-470.63 569.91,-450.26"/>
<polygon fill="midnightblue" stroke="midnightblue" points="548.43,-548.84 550.08,-559.31 555.31,-550.09 548.43,-548.84"/>
</g>
<!-- Node36&#45;&gt;Node25 -->
<g id="edge62" class="edge">
<title>Node36&#45;&gt;Node25</title>
<path fill="none" stroke="midnightblue" d="M504.5,-797.01C496.66,-785.89 486.74,-771.84 480.51,-763.01"/>
<polygon fill="midnightblue" stroke="midnightblue" points="501.86,-799.32 510.48,-805.48 507.57,-795.29 501.86,-799.32"/>
</g>
</g>
</svg>
