<?xml version="1.0" encoding="UTF-8" standalone="no"?>
<!DOCTYPE svg PUBLIC "-//W3C//DTD SVG 1.1//EN"
 "http://www.w3.org/Graphics/SVG/1.1/DTD/svg11.dtd">
<!-- Generated by graphviz version 2.43.0 (0)
 -->
<!-- Title: include/ccf/service/tables/members.h Pages: 1 -->
<svg width="2262pt" height="665pt"
 viewBox="0.00 0.00 2261.50 665.00" xmlns="http://www.w3.org/2000/svg" xmlns:xlink="http://www.w3.org/1999/xlink">
<g id="graph0" class="graph" transform="scale(1 1) rotate(0) translate(4 661)">
<title>include/ccf/service/tables/members.h</title>
<polygon fill="white" stroke="transparent" points="-4,4 -4,-661 2257.5,-661 2257.5,4 -4,4"/>
<!-- Node1 -->
<g id="node1" class="node">
<title>Node1</title>
<g id="a_node1"><a xlink:title=" ">
<polygon fill="#bfbfbf" stroke="black" points="488,-626.5 488,-656.5 596,-656.5 596,-626.5 488,-626.5"/>
<text text-anchor="start" x="496" y="-644.5" font-family="Helvetica,sans-Serif" font-size="10.00">include/ccf/service</text>
<text text-anchor="middle" x="542" y="-633.5" font-family="Helvetica,sans-Serif" font-size="10.00">/tables/members.h</text>
</a>
</g>
</g>
<!-- Node2 -->
<g id="node2" class="node">
<title>Node2</title>
<g id="a_node2"><a xlink:href="common_2configuration_8h.html" target="_top" xlink:title=" ">
<polygon fill="white" stroke="black" points="305,-565 305,-584 457,-584 457,-565 305,-565"/>
<text text-anchor="middle" x="381" y="-572" font-family="Helvetica,sans-Serif" font-size="10.00">src/common/configuration.h</text>
</a>
</g>
</g>
<!-- Node1&#45;&gt;Node2 -->
<g id="edge1" class="edge">
<title>Node1&#45;&gt;Node2</title>
<path fill="none" stroke="midnightblue" d="M497.72,-622.62C466.55,-610.04 426.24,-593.77 402.07,-584.01"/>
<polygon fill="midnightblue" stroke="midnightblue" points="496.48,-625.9 507.07,-626.4 499.1,-619.41 496.48,-625.9"/>
</g>
<!-- Node5 -->
<g id="node5" class="node">
<title>Node5</title>
<g id="a_node5"><a xlink:href="node__call__types_8h.html" target="_top" xlink:title=" ">
<polygon fill="white" stroke="black" points="343.5,-492.5 343.5,-522.5 468.5,-522.5 468.5,-492.5 343.5,-492.5"/>
<text text-anchor="start" x="351.5" y="-510.5" font-family="Helvetica,sans-Serif" font-size="10.00">src/node/rpc/node_call</text>
<text text-anchor="middle" x="406" y="-499.5" font-family="Helvetica,sans-Serif" font-size="10.00">_types.h</text>
</a>
</g>
</g>
<!-- Node1&#45;&gt;Node5 -->
<g id="edge31" class="edge">
<title>Node1&#45;&gt;Node5</title>
<path fill="none" stroke="midnightblue" d="M523.07,-618.8C508.09,-601.98 486.37,-578.36 466,-559 452.38,-546.06 436.01,-532.39 423.81,-522.55"/>
<polygon fill="midnightblue" stroke="midnightblue" points="520.6,-621.29 529.84,-626.46 525.84,-616.65 520.6,-621.29"/>
</g>
<!-- Node15 -->
<g id="node15" class="node">
<title>Node15</title>
<g id="a_node15"><a xlink:href="member__frontend_8h.html" target="_top" xlink:title=" ">
<polygon fill="white" stroke="black" points="310,-224.5 310,-254.5 430,-254.5 430,-224.5 310,-224.5"/>
<text text-anchor="start" x="318" y="-242.5" font-family="Helvetica,sans-Serif" font-size="10.00">src/node/rpc/member</text>
<text text-anchor="middle" x="370" y="-231.5" font-family="Helvetica,sans-Serif" font-size="10.00">_frontend.h</text>
</a>
</g>
</g>
<!-- Node1&#45;&gt;Node15 -->
<g id="edge30" class="edge">
<title>Node1&#45;&gt;Node15</title>
<path fill="none" stroke="midnightblue" d="M477.8,-638.32C334.29,-631.71 0,-605.86 0,-508.5 0,-508.5 0,-508.5 0,-372.5 0,-330.69 12.52,-314.66 47,-291 88.65,-262.42 228.54,-249.17 309.92,-243.75"/>
<polygon fill="midnightblue" stroke="midnightblue" points="477.65,-641.82 487.8,-638.77 477.96,-634.83 477.65,-641.82"/>
</g>
<!-- Node19 -->
<g id="node19" class="node">
<title>Node19</title>
<g id="a_node19"><a xlink:href="cert__auth_8cpp.html" target="_top" xlink:title=" ">
<polygon fill="white" stroke="black" points="589.5,-559.5 589.5,-589.5 744.5,-589.5 744.5,-559.5 589.5,-559.5"/>
<text text-anchor="start" x="597.5" y="-577.5" font-family="Helvetica,sans-Serif" font-size="10.00">src/endpoints/authentication</text>
<text text-anchor="middle" x="667" y="-566.5" font-family="Helvetica,sans-Serif" font-size="10.00">/cert_auth.cpp</text>
</a>
</g>
</g>
<!-- Node1&#45;&gt;Node19 -->
<g id="edge27" class="edge">
<title>Node1&#45;&gt;Node19</title>
<path fill="none" stroke="midnightblue" d="M578.13,-621.71C597.84,-611.46 621.84,-598.98 639.93,-589.58"/>
<polygon fill="midnightblue" stroke="midnightblue" points="576.38,-618.68 569.12,-626.4 579.61,-624.89 576.38,-618.68"/>
</g>
<!-- Node20 -->
<g id="node20" class="node">
<title>Node20</title>
<g id="a_node20"><a xlink:href="sig__auth_8cpp.html" target="_top" xlink:title=" ">
<polygon fill="white" stroke="black" points="762.5,-559.5 762.5,-589.5 917.5,-589.5 917.5,-559.5 762.5,-559.5"/>
<text text-anchor="start" x="770.5" y="-577.5" font-family="Helvetica,sans-Serif" font-size="10.00">src/endpoints/authentication</text>
<text text-anchor="middle" x="840" y="-566.5" font-family="Helvetica,sans-Serif" font-size="10.00">/sig_auth.cpp</text>
</a>
</g>
</g>
<!-- Node1&#45;&gt;Node20 -->
<g id="edge28" class="edge">
<title>Node1&#45;&gt;Node20</title>
<path fill="none" stroke="midnightblue" d="M606.38,-626.46C656.46,-615.53 725.63,-600.45 775.7,-589.53"/>
<polygon fill="midnightblue" stroke="midnightblue" points="605.34,-623.1 596.31,-628.65 606.83,-629.94 605.34,-623.1"/>
</g>
<!-- Node21 -->
<g id="node21" class="node">
<title>Node21</title>
<g id="a_node21"><a xlink:href="base__endpoint__registry_8cpp.html" target="_top" xlink:title=" ">
<polygon fill="white" stroke="black" points="936,-559.5 936,-589.5 1062,-589.5 1062,-559.5 936,-559.5"/>
<text text-anchor="start" x="944" y="-577.5" font-family="Helvetica,sans-Serif" font-size="10.00">src/endpoints/base</text>
<text text-anchor="middle" x="999" y="-566.5" font-family="Helvetica,sans-Serif" font-size="10.00">_endpoint_registry.cpp</text>
</a>
</g>
</g>
<!-- Node1&#45;&gt;Node21 -->
<g id="edge29" class="edge">
<title>Node1&#45;&gt;Node21</title>
<path fill="none" stroke="midnightblue" d="M606.02,-633.46C682.58,-624.72 814.51,-608.68 927,-590 929.89,-589.52 932.85,-589.01 935.83,-588.48"/>
<polygon fill="midnightblue" stroke="midnightblue" points="605.59,-629.98 596.05,-634.59 606.38,-636.94 605.59,-629.98"/>
</g>
<!-- Node22 -->
<g id="node22" class="node">
<title>Node22</title>
<g id="a_node22"><a xlink:href="genesis__gen_8h.html" target="_top" xlink:title=" ">
<polygon fill="white" stroke="black" points="745,-358.5 745,-388.5 855,-388.5 855,-358.5 745,-358.5"/>
<text text-anchor="start" x="753" y="-376.5" font-family="Helvetica,sans-Serif" font-size="10.00">src/service/genesis</text>
<text text-anchor="middle" x="800" y="-365.5" font-family="Helvetica,sans-Serif" font-size="10.00">_gen.h</text>
</a>
</g>
</g>
<!-- Node1&#45;&gt;Node22 -->
<g id="edge32" class="edge">
<title>Node1&#45;&gt;Node22</title>
<path fill="none" stroke="midnightblue" d="M541.21,-616.07C541.67,-599.09 544.37,-576.47 554,-559 602.05,-471.8 710.65,-413.73 766.08,-388.63"/>
<polygon fill="midnightblue" stroke="midnightblue" points="537.71,-616.29 541.18,-626.3 544.71,-616.31 537.71,-616.29"/>
</g>
<!-- Node25 -->
<g id="node25" class="node">
<title>Node25</title>
<g id="a_node25"><a xlink:href="network__tables_8h.html" target="_top" xlink:title=" ">
<polygon fill="white" stroke="black" points="946,-425.5 946,-455.5 1058,-455.5 1058,-425.5 946,-425.5"/>
<text text-anchor="start" x="954" y="-443.5" font-family="Helvetica,sans-Serif" font-size="10.00">src/service/network</text>
<text text-anchor="middle" x="1002" y="-432.5" font-family="Helvetica,sans-Serif" font-size="10.00">_tables.h</text>
</a>
</g>
</g>
<!-- Node1&#45;&gt;Node25 -->
<g id="edge41" class="edge">
<title>Node1&#45;&gt;Node25</title>
<path fill="none" stroke="midnightblue" d="M547.59,-616.81C553.11,-598.49 563.34,-573.82 581,-559 687.8,-469.35 858.18,-447.86 945.85,-442.87"/>
<polygon fill="midnightblue" stroke="midnightblue" points="544.2,-615.92 544.93,-626.49 550.95,-617.77 544.2,-615.92"/>
</g>
<!-- Node3 -->
<g id="node3" class="node">
<title>Node3</title>
<g id="a_node3"><a xlink:href="host_2configuration_8h.html" target="_top" xlink:title=" ">
<polygon fill="white" stroke="black" points="194.5,-498 194.5,-517 325.5,-517 325.5,-498 194.5,-498"/>
<text text-anchor="middle" x="260" y="-505" font-family="Helvetica,sans-Serif" font-size="10.00">src/host/configuration.h</text>
</a>
</g>
</g>
<!-- Node2&#45;&gt;Node3 -->
<g id="edge2" class="edge">
<title>Node2&#45;&gt;Node3</title>
<path fill="none" stroke="midnightblue" d="M355.79,-559.96C331.8,-547.07 296.44,-528.07 276.06,-517.13"/>
<polygon fill="midnightblue" stroke="midnightblue" points="354.22,-563.08 364.68,-564.73 357.53,-556.92 354.22,-563.08"/>
</g>
<!-- Node2&#45;&gt;Node5 -->
<g id="edge4" class="edge">
<title>Node2&#45;&gt;Node5</title>
<path fill="none" stroke="midnightblue" d="M387.97,-555.39C391.95,-545.02 396.88,-532.2 400.58,-522.59"/>
<polygon fill="midnightblue" stroke="midnightblue" points="384.69,-554.14 384.37,-564.73 391.23,-556.66 384.69,-554.14"/>
</g>
<!-- Node4 -->
<g id="node4" class="node">
<title>Node4</title>
<g id="a_node4"><a xlink:href="host_2main_8cpp.html" target="_top" xlink:title=" ">
<polygon fill="white" stroke="black" points="208.5,-431 208.5,-450 311.5,-450 311.5,-431 208.5,-431"/>
<text text-anchor="middle" x="260" y="-438" font-family="Helvetica,sans-Serif" font-size="10.00">src/host/main.cpp</text>
</a>
</g>
</g>
<!-- Node3&#45;&gt;Node4 -->
<g id="edge3" class="edge">
<title>Node3&#45;&gt;Node4</title>
<path fill="none" stroke="midnightblue" d="M260,-487.54C260,-475.17 260,-459.62 260,-450.13"/>
<polygon fill="midnightblue" stroke="midnightblue" points="256.5,-487.73 260,-497.73 263.5,-487.73 256.5,-487.73"/>
</g>
<!-- Node6 -->
<g id="node6" class="node">
<title>Node6</title>
<g id="a_node6"><a xlink:href="call__types_8h.html" target="_top" xlink:title=" ">
<polygon fill="white" stroke="black" points="333.5,-431 333.5,-450 470.5,-450 470.5,-431 333.5,-431"/>
<text text-anchor="middle" x="402" y="-438" font-family="Helvetica,sans-Serif" font-size="10.00">src/node/rpc/call_types.h</text>
</a>
</g>
</g>
<!-- Node5&#45;&gt;Node6 -->
<g id="edge5" class="edge">
<title>Node5&#45;&gt;Node6</title>
<path fill="none" stroke="midnightblue" d="M404.51,-482.25C403.82,-471.02 403.04,-458.38 402.54,-450.19"/>
<polygon fill="midnightblue" stroke="midnightblue" points="401.02,-482.63 405.13,-492.4 408.01,-482.2 401.02,-482.63"/>
</g>
<!-- Node7 -->
<g id="node7" class="node">
<title>Node7</title>
<g id="a_node7"><a xlink:href="nobuiltins_8cpp.html" target="_top" xlink:title=" ">
<polygon fill="white" stroke="black" points="212.5,-291.5 212.5,-321.5 347.5,-321.5 347.5,-291.5 212.5,-291.5"/>
<text text-anchor="start" x="220.5" y="-309.5" font-family="Helvetica,sans-Serif" font-size="10.00">samples/apps/nobuiltins</text>
<text text-anchor="middle" x="280" y="-298.5" font-family="Helvetica,sans-Serif" font-size="10.00">/nobuiltins.cpp</text>
</a>
</g>
</g>
<!-- Node6&#45;&gt;Node7 -->
<g id="edge6" class="edge">
<title>Node6&#45;&gt;Node7</title>
<path fill="none" stroke="midnightblue" d="M371.8,-426.48C354.59,-417.85 333.61,-405.15 319,-389 300.9,-368.99 289.52,-339.08 284,-321.6"/>
<polygon fill="midnightblue" stroke="midnightblue" points="370.38,-429.68 380.91,-430.85 373.41,-423.37 370.38,-429.68"/>
</g>
<!-- Node8 -->
<g id="node8" class="node">
<title>Node8</title>
<g id="a_node8"><a xlink:href="common__endpoint__registry_8cpp.html" target="_top" xlink:title=" ">
<polygon fill="white" stroke="black" points="66,-291.5 66,-321.5 194,-321.5 194,-291.5 66,-291.5"/>
<text text-anchor="start" x="74" y="-309.5" font-family="Helvetica,sans-Serif" font-size="10.00">src/endpoints/common</text>
<text text-anchor="middle" x="130" y="-298.5" font-family="Helvetica,sans-Serif" font-size="10.00">_endpoint_registry.cpp</text>
</a>
</g>
</g>
<!-- Node6&#45;&gt;Node8 -->
<g id="edge7" class="edge">
<title>Node6&#45;&gt;Node8</title>
<path fill="none" stroke="midnightblue" d="M374.14,-426.52C352.51,-416.4 321.79,-401.94 295,-389 246.81,-365.73 191.04,-338.02 158.25,-321.64"/>
<polygon fill="midnightblue" stroke="midnightblue" points="372.85,-429.78 383.4,-430.84 375.82,-423.44 372.85,-429.78"/>
</g>
<!-- Node9 -->
<g id="node9" class="node">
<title>Node9</title>
<g id="a_node9"><a xlink:href="wrap_8cpp.html" target="_top" xlink:title=" ">
<polygon fill="white" stroke="black" points="1667.5,-168.5 1667.5,-187.5 1756.5,-187.5 1756.5,-168.5 1667.5,-168.5"/>
<text text-anchor="middle" x="1712" y="-175.5" font-family="Helvetica,sans-Serif" font-size="10.00">src/js/wrap.cpp</text>
</a>
</g>
</g>
<!-- Node6&#45;&gt;Node9 -->
<g id="edge8" class="edge">
<title>Node6&#45;&gt;Node9</title>
<path fill="none" stroke="midnightblue" d="M480.8,-437.71C684.23,-432.69 1216.33,-417.05 1291,-389 1345.25,-368.62 1413.38,-336.11 1377,-291 1329.61,-232.23 1258.39,-313.77 1211,-255 1202.35,-244.27 1201.7,-234.17 1211,-224 1241.49,-190.64 1550.24,-181.81 1667.31,-179.65"/>
<polygon fill="midnightblue" stroke="midnightblue" points="480.7,-434.21 470.78,-437.95 480.87,-441.2 480.7,-434.21"/>
</g>
<!-- Node10 -->
<g id="node10" class="node">
<title>Node10</title>
<g id="a_node10"><a xlink:href="resharing_8h.html" target="_top" xlink:title=" ">
<polygon fill="white" stroke="black" points="480,-297 480,-316 596,-316 596,-297 480,-297"/>
<text text-anchor="middle" x="538" y="-304" font-family="Helvetica,sans-Serif" font-size="10.00">src/node/resharing.h</text>
</a>
</g>
</g>
<!-- Node6&#45;&gt;Node10 -->
<g id="edge9" class="edge">
<title>Node6&#45;&gt;Node10</title>
<path fill="none" stroke="midnightblue" d="M430.13,-426.44C447.3,-417.54 468.97,-404.56 485,-389 508.26,-366.43 526.44,-331.87 534.08,-316"/>
<polygon fill="midnightblue" stroke="midnightblue" points="428.48,-423.35 421.11,-430.96 431.62,-429.61 428.48,-423.35"/>
</g>
<!-- Node6&#45;&gt;Node15 -->
<g id="edge15" class="edge">
<title>Node6&#45;&gt;Node15</title>
<path fill="none" stroke="midnightblue" d="M347,-428.99C258.37,-410.78 90.45,-370.63 57,-322 49.19,-310.65 48.07,-301.49 57,-291 88.81,-253.65 228.07,-243.83 309.72,-241.31"/>
<polygon fill="midnightblue" stroke="midnightblue" points="346.39,-432.43 356.89,-430.99 347.78,-425.57 346.39,-432.43"/>
</g>
<!-- Node16 -->
<g id="node16" class="node">
<title>Node16</title>
<g id="a_node16"><a xlink:href="serialization_8h.html" target="_top" xlink:title=" ">
<polygon fill="white" stroke="black" points="328,-364 328,-383 476,-383 476,-364 328,-364"/>
<text text-anchor="middle" x="402" y="-371" font-family="Helvetica,sans-Serif" font-size="10.00">src/node/rpc/serialization.h</text>
</a>
</g>
</g>
<!-- Node6&#45;&gt;Node16 -->
<g id="edge17" class="edge">
<title>Node6&#45;&gt;Node16</title>
<path fill="none" stroke="midnightblue" d="M402,-420.54C402,-408.17 402,-392.62 402,-383.13"/>
<polygon fill="midnightblue" stroke="midnightblue" points="398.5,-420.73 402,-430.73 405.5,-420.73 398.5,-420.73"/>
</g>
<!-- Node11 -->
<g id="node11" class="node">
<title>Node11</title>
<g id="a_node11"><a xlink:href="node__state_8h.html" target="_top" xlink:title=" ">
<polygon fill="white" stroke="black" points="940,-168.5 940,-187.5 1064,-187.5 1064,-168.5 940,-168.5"/>
<text text-anchor="middle" x="1002" y="-175.5" font-family="Helvetica,sans-Serif" font-size="10.00">src/node/node_state.h</text>
</a>
</g>
</g>
<!-- Node10&#45;&gt;Node11 -->
<g id="edge10" class="edge">
<title>Node10&#45;&gt;Node11</title>
<path fill="none" stroke="midnightblue" d="M552.46,-289.1C570.43,-269.93 603.01,-238.93 638,-224 690.93,-201.41 850.57,-188.29 939.86,-182.52"/>
<polygon fill="midnightblue" stroke="midnightblue" points="549.64,-287 545.49,-296.74 554.81,-291.72 549.64,-287"/>
</g>
<!-- Node12 -->
<g id="node12" class="node">
<title>Node12</title>
<g id="a_node12"><a xlink:href="enclave_2enclave_8h.html" target="_top" xlink:title=" ">
<polygon fill="white" stroke="black" points="1041,-56.5 1041,-75.5 1163,-75.5 1163,-56.5 1041,-56.5"/>
<text text-anchor="middle" x="1102" y="-63.5" font-family="Helvetica,sans-Serif" font-size="10.00">src/enclave/enclave.h</text>
</a>
</g>
</g>
<!-- Node11&#45;&gt;Node12 -->
<g id="edge11" class="edge">
<title>Node11&#45;&gt;Node12</title>
<path fill="none" stroke="midnightblue" d="M1003.61,-158.5C1005.67,-144.45 1010.35,-125.34 1021,-112 1035.06,-94.4 1057.96,-82.6 1075.84,-75.51"/>
<polygon fill="midnightblue" stroke="midnightblue" points="1000.13,-158.14 1002.46,-168.48 1007.08,-158.94 1000.13,-158.14"/>
</g>
<!-- Node14 -->
<g id="node14" class="node">
<title>Node14</title>
<g id="a_node14"><a xlink:href="gov__effects_8h.html" target="_top" xlink:title=" ">
<polygon fill="white" stroke="black" points="1030,-112.5 1030,-131.5 1174,-131.5 1174,-112.5 1030,-112.5"/>
<text text-anchor="middle" x="1102" y="-119.5" font-family="Helvetica,sans-Serif" font-size="10.00">src/node/rpc/gov_effects.h</text>
</a>
</g>
</g>
<!-- Node11&#45;&gt;Node14 -->
<g id="edge13" class="edge">
<title>Node11&#45;&gt;Node14</title>
<path fill="none" stroke="midnightblue" d="M1027.09,-163.45C1045.55,-153.48 1070.1,-140.23 1085.97,-131.65"/>
<polygon fill="midnightblue" stroke="midnightblue" points="1025.2,-160.49 1018.07,-168.32 1028.53,-166.65 1025.2,-160.49"/>
</g>
<!-- Node13 -->
<g id="node13" class="node">
<title>Node13</title>
<g id="a_node13"><a xlink:href="enclave_2main_8cpp.html" target="_top" xlink:title=" ">
<polygon fill="white" stroke="black" points="1042,-0.5 1042,-19.5 1162,-19.5 1162,-0.5 1042,-0.5"/>
<text text-anchor="middle" x="1102" y="-7.5" font-family="Helvetica,sans-Serif" font-size="10.00">src/enclave/main.cpp</text>
</a>
</g>
</g>
<!-- Node12&#45;&gt;Node13 -->
<g id="edge12" class="edge">
<title>Node12&#45;&gt;Node13</title>
<path fill="none" stroke="midnightblue" d="M1102,-45.8C1102,-36.91 1102,-26.78 1102,-19.75"/>
<polygon fill="midnightblue" stroke="midnightblue" points="1098.5,-46.08 1102,-56.08 1105.5,-46.08 1098.5,-46.08"/>
</g>
<!-- Node14&#45;&gt;Node12 -->
<g id="edge14" class="edge">
<title>Node14&#45;&gt;Node12</title>
<path fill="none" stroke="midnightblue" d="M1102,-101.8C1102,-92.91 1102,-82.78 1102,-75.75"/>
<polygon fill="midnightblue" stroke="midnightblue" points="1098.5,-102.08 1102,-112.08 1105.5,-102.08 1098.5,-102.08"/>
</g>
<!-- Node15&#45;&gt;Node12 -->
<g id="edge16" class="edge">
<title>Node15&#45;&gt;Node12</title>
<path fill="none" stroke="midnightblue" d="M393.55,-217.69C428.44,-188.27 497.15,-135.46 566,-112 652.4,-82.55 919.43,-71.84 1040.82,-68.42"/>
<polygon fill="midnightblue" stroke="midnightblue" points="391.16,-215.14 385.83,-224.29 395.71,-220.46 391.16,-215.14"/>
</g>
<!-- Node16&#45;&gt;Node7 -->
<g id="edge18" class="edge">
<title>Node16&#45;&gt;Node7</title>
<path fill="none" stroke="midnightblue" d="M376.75,-359.05C356.24,-348.12 327.41,-332.76 306.56,-321.65"/>
<polygon fill="midnightblue" stroke="midnightblue" points="375.33,-362.26 385.8,-363.87 378.62,-356.08 375.33,-362.26"/>
</g>
<!-- Node16&#45;&gt;Node8 -->
<g id="edge19" class="edge">
<title>Node16&#45;&gt;Node8</title>
<path fill="none" stroke="midnightblue" d="M356.17,-361.55C310.13,-350.55 239.01,-333.55 188.83,-321.56"/>
<polygon fill="midnightblue" stroke="midnightblue" points="355.62,-365.02 366.16,-363.94 357.25,-358.21 355.62,-365.02"/>
</g>
<!-- Node16&#45;&gt;Node10 -->
<g id="edge21" class="edge">
<title>Node16&#45;&gt;Node10</title>
<path fill="none" stroke="midnightblue" d="M429.32,-359.44C456.26,-346.57 496.66,-327.26 519.87,-316.17"/>
<polygon fill="midnightblue" stroke="midnightblue" points="427.57,-356.4 420.06,-363.87 430.59,-362.71 427.57,-356.4"/>
</g>
<!-- Node16&#45;&gt;Node11 -->
<g id="edge20" class="edge">
<title>Node16&#45;&gt;Node11</title>
<path fill="none" stroke="midnightblue" d="M413.62,-355.62C426.3,-338.03 447.9,-310.38 471,-291 516.32,-252.99 529.81,-242.48 586,-224 650.09,-202.93 840.19,-188.74 939.69,-182.55"/>
<polygon fill="midnightblue" stroke="midnightblue" points="410.75,-353.62 407.84,-363.81 416.47,-357.66 410.75,-353.62"/>
</g>
<!-- Node16&#45;&gt;Node15 -->
<g id="edge22" class="edge">
<title>Node16&#45;&gt;Node15</title>
<path fill="none" stroke="midnightblue" d="M397.49,-353.89C391.03,-327.24 379.28,-278.8 373.46,-254.78"/>
<polygon fill="midnightblue" stroke="midnightblue" points="394.14,-354.95 399.9,-363.84 400.95,-353.3 394.14,-354.95"/>
</g>
<!-- Node17 -->
<g id="node17" class="node">
<title>Node17</title>
<g id="a_node17"><a xlink:href="node__frontend_8h.html" target="_top" xlink:title=" ">
<polygon fill="white" stroke="black" points="614,-297 614,-316 772,-316 772,-297 614,-297"/>
<text text-anchor="middle" x="693" y="-304" font-family="Helvetica,sans-Serif" font-size="10.00">src/node/rpc/node_frontend.h</text>
</a>
</g>
</g>
<!-- Node16&#45;&gt;Node17 -->
<g id="edge23" class="edge">
<title>Node16&#45;&gt;Node17</title>
<path fill="none" stroke="midnightblue" d="M450.25,-361.72C507.55,-348.92 601.97,-327.83 654.57,-316.08"/>
<polygon fill="midnightblue" stroke="midnightblue" points="449.34,-358.34 440.34,-363.94 450.86,-365.17 449.34,-358.34"/>
</g>
<!-- Node17&#45;&gt;Node12 -->
<g id="edge24" class="edge">
<title>Node17&#45;&gt;Node12</title>
<path fill="none" stroke="midnightblue" d="M671.25,-290.89C649.5,-274.45 621.49,-247.02 638,-224 731.19,-94.09 937.75,-70.31 1040.9,-66.85"/>
<polygon fill="midnightblue" stroke="midnightblue" points="669.3,-293.8 679.46,-296.82 673.4,-288.13 669.3,-293.8"/>
</g>
<!-- Node18 -->
<g id="node18" class="node">
<title>Node18</title>
<g id="a_node18"><a xlink:href="jwt__key__auto__refresh_8h.html" target="_top" xlink:title=" ">
<polygon fill="white" stroke="black" points="646.5,-224.5 646.5,-254.5 771.5,-254.5 771.5,-224.5 646.5,-224.5"/>
<text text-anchor="start" x="654.5" y="-242.5" font-family="Helvetica,sans-Serif" font-size="10.00">src/node/jwt_key_auto</text>
<text text-anchor="middle" x="709" y="-231.5" font-family="Helvetica,sans-Serif" font-size="10.00">_refresh.h</text>
</a>
</g>
</g>
<!-- Node17&#45;&gt;Node18 -->
<g id="edge25" class="edge">
<title>Node17&#45;&gt;Node18</title>
<path fill="none" stroke="midnightblue" d="M697.62,-286.74C700.14,-276.49 703.22,-264 705.53,-254.59"/>
<polygon fill="midnightblue" stroke="midnightblue" points="694.15,-286.19 695.16,-296.73 700.95,-287.86 694.15,-286.19"/>
</g>
<!-- Node18&#45;&gt;Node11 -->
<g id="edge26" class="edge">
<title>Node18&#45;&gt;Node11</title>
<path fill="none" stroke="midnightblue" d="M781.75,-223.73C837.88,-212.33 913.57,-196.96 960.02,-187.53"/>
<polygon fill="midnightblue" stroke="midnightblue" points="780.96,-220.32 771.86,-225.74 782.35,-227.18 780.96,-220.32"/>
</g>
<!-- Node22&#45;&gt;Node11 -->
<g id="edge33" class="edge">
<title>Node22&#45;&gt;Node11</title>
<path fill="none" stroke="midnightblue" d="M801.15,-348.02C803.05,-330.67 807.89,-307.61 820,-291 860.21,-235.84 936.64,-202.11 976.45,-187.5"/>
<polygon fill="midnightblue" stroke="midnightblue" points="797.62,-348.22 800.28,-358.47 804.6,-348.8 797.62,-348.22"/>
</g>
<!-- Node22&#45;&gt;Node15 -->
<g id="edge34" class="edge">
<title>Node22&#45;&gt;Node15</title>
<path fill="none" stroke="midnightblue" d="M734.67,-372.38C666.2,-370.03 556.86,-359.89 471,-322 434.72,-305.99 400.59,-273.47 382.8,-254.71"/>
<polygon fill="midnightblue" stroke="midnightblue" points="734.78,-375.89 744.88,-372.68 734.99,-368.89 734.78,-375.89"/>
</g>
<!-- Node22&#45;&gt;Node17 -->
<g id="edge35" class="edge">
<title>Node22&#45;&gt;Node17</title>
<path fill="none" stroke="midnightblue" d="M768.13,-353.14C747.8,-340.79 722.45,-325.39 707,-316.01"/>
<polygon fill="midnightblue" stroke="midnightblue" points="766.42,-356.2 776.78,-358.4 770.05,-350.21 766.42,-356.2"/>
</g>
<!-- Node23 -->
<g id="node23" class="node">
<title>Node23</title>
<g id="a_node23"><a xlink:href="secret__broadcast_8h.html" target="_top" xlink:title=" ">
<polygon fill="white" stroke="black" points="1030.5,-297 1030.5,-316 1183.5,-316 1183.5,-297 1030.5,-297"/>
<text text-anchor="middle" x="1107" y="-304" font-family="Helvetica,sans-Serif" font-size="10.00">src/node/secret_broadcast.h</text>
</a>
</g>
</g>
<!-- Node22&#45;&gt;Node23 -->
<g id="edge36" class="edge">
<title>Node22&#45;&gt;Node23</title>
<path fill="none" stroke="midnightblue" d="M865.14,-358.71C926.04,-345.81 1015.07,-326.96 1066.41,-316.09"/>
<polygon fill="midnightblue" stroke="midnightblue" points="864.3,-355.31 855.24,-360.8 865.75,-362.16 864.3,-355.31"/>
</g>
<!-- Node24 -->
<g id="node24" class="node">
<title>Node24</title>
<g id="a_node24"><a xlink:href="share__manager_8h.html" target="_top" xlink:title=" ">
<polygon fill="white" stroke="black" points="828.5,-297 828.5,-316 973.5,-316 973.5,-297 828.5,-297"/>
<text text-anchor="middle" x="901" y="-304" font-family="Helvetica,sans-Serif" font-size="10.00">src/node/share_manager.h</text>
</a>
</g>
</g>
<!-- Node22&#45;&gt;Node24 -->
<g id="edge38" class="edge">
<title>Node22&#45;&gt;Node24</title>
<path fill="none" stroke="midnightblue" d="M830.34,-352.97C849.49,-340.65 873.27,-325.35 887.78,-316.01"/>
<polygon fill="midnightblue" stroke="midnightblue" points="828.43,-350.04 821.92,-358.4 832.22,-355.93 828.43,-350.04"/>
</g>
<!-- Node23&#45;&gt;Node11 -->
<g id="edge37" class="edge">
<title>Node23&#45;&gt;Node11</title>
<path fill="none" stroke="midnightblue" d="M1092.96,-289.18C1084.51,-279.33 1073.58,-266.49 1064,-255 1043.94,-230.93 1020.69,-202.2 1009.19,-187.94"/>
<polygon fill="midnightblue" stroke="midnightblue" points="1090.47,-291.66 1099.64,-296.97 1095.78,-287.1 1090.47,-291.66"/>
</g>
<!-- Node24&#45;&gt;Node11 -->
<g id="edge39" class="edge">
<title>Node24&#45;&gt;Node11</title>
<path fill="none" stroke="midnightblue" d="M914.19,-288.97C935.88,-261.82 978.31,-208.67 995.01,-187.76"/>
<polygon fill="midnightblue" stroke="midnightblue" points="911.45,-286.81 907.94,-296.81 916.92,-291.17 911.45,-286.81"/>
</g>
<!-- Node24&#45;&gt;Node15 -->
<g id="edge40" class="edge">
<title>Node24&#45;&gt;Node15</title>
<path fill="none" stroke="midnightblue" d="M821.21,-295.73C714.15,-282.63 526.39,-259.64 430.33,-247.89"/>
<polygon fill="midnightblue" stroke="midnightblue" points="820.96,-299.23 831.31,-296.97 821.81,-292.28 820.96,-299.23"/>
</g>
<!-- Node25&#45;&gt;Node22 -->
<g id="edge70" class="edge">
<title>Node25&#45;&gt;Node22</title>
<path fill="none" stroke="midnightblue" d="M948.32,-422.23C915.65,-411.71 874.43,-398.45 843.75,-388.58"/>
<polygon fill="midnightblue" stroke="midnightblue" points="947.58,-425.66 958.17,-425.4 949.72,-419 947.58,-425.66"/>
</g>
<!-- Node26 -->
<g id="node26" class="node">
<title>Node26</title>
<g id="a_node26"><a xlink:href="kv__module__loader_8cpp.html" target="_top" xlink:title=" ">
<polygon fill="white" stroke="black" points="1424.5,-358.5 1424.5,-388.5 1567.5,-388.5 1567.5,-358.5 1424.5,-358.5"/>
<text text-anchor="start" x="1432.5" y="-376.5" font-family="Helvetica,sans-Serif" font-size="10.00">src/apps/js_v8/kv_module</text>
<text text-anchor="middle" x="1496" y="-365.5" font-family="Helvetica,sans-Serif" font-size="10.00">_loader.cpp</text>
</a>
</g>
</g>
<!-- Node25&#45;&gt;Node26 -->
<g id="edge42" class="edge">
<title>Node25&#45;&gt;Node26</title>
<path fill="none" stroke="midnightblue" d="M1068.24,-432.21C1149.05,-423.1 1289.78,-406.57 1410,-389 1414.64,-388.32 1419.43,-387.59 1424.24,-386.84"/>
<polygon fill="midnightblue" stroke="midnightblue" points="1067.75,-428.74 1058.2,-433.33 1068.53,-435.7 1067.75,-428.74"/>
</g>
<!-- Node27 -->
<g id="node27" class="node">
<title>Node27</title>
<g id="a_node27"><a xlink:href="ccf__acme__client_8h.html" target="_top" xlink:title=" ">
<polygon fill="white" stroke="black" points="927.5,-364 927.5,-383 1076.5,-383 1076.5,-364 927.5,-364"/>
<text text-anchor="middle" x="1002" y="-371" font-family="Helvetica,sans-Serif" font-size="10.00">src/node/ccf_acme_client.h</text>
</a>
</g>
</g>
<!-- Node25&#45;&gt;Node27 -->
<g id="edge43" class="edge">
<title>Node25&#45;&gt;Node27</title>
<path fill="none" stroke="midnightblue" d="M1002,-415.25C1002,-404.02 1002,-391.38 1002,-383.19"/>
<polygon fill="midnightblue" stroke="midnightblue" points="998.5,-415.4 1002,-425.4 1005.5,-415.4 998.5,-415.4"/>
</g>
<!-- Node28 -->
<g id="node28" class="node">
<title>Node28</title>
<g id="a_node28"><a xlink:href="network__state_8h.html" target="_top" xlink:title=" ">
<polygon fill="white" stroke="black" points="1142,-364 1142,-383 1282,-383 1282,-364 1142,-364"/>
<text text-anchor="middle" x="1212" y="-371" font-family="Helvetica,sans-Serif" font-size="10.00">src/node/network_state.h</text>
</a>
</g>
</g>
<!-- Node25&#45;&gt;Node28 -->
<g id="edge45" class="edge">
<title>Node25&#45;&gt;Node28</title>
<path fill="none" stroke="midnightblue" d="M1056.89,-422.51C1097.87,-409.83 1152.16,-393.02 1184.45,-383.03"/>
<polygon fill="midnightblue" stroke="midnightblue" points="1055.83,-419.18 1047.31,-425.48 1057.9,-425.86 1055.83,-419.18"/>
</g>
<!-- Node27&#45;&gt;Node11 -->
<g id="edge44" class="edge">
<title>Node27&#45;&gt;Node11</title>
<path fill="none" stroke="midnightblue" d="M1002,-353.79C1002,-313.03 1002,-217.51 1002,-187.91"/>
<polygon fill="midnightblue" stroke="midnightblue" points="998.5,-353.94 1002,-363.94 1005.5,-353.94 998.5,-353.94"/>
</g>
<!-- Node28&#45;&gt;Node11 -->
<g id="edge62" class="edge">
<title>Node28&#45;&gt;Node11</title>
<path fill="none" stroke="midnightblue" d="M1212.5,-353.43C1211.95,-335.24 1208.31,-308.15 1193,-291 1161.27,-255.45 1131.62,-281.49 1092,-255 1076.57,-244.68 1077.81,-236.41 1064,-224 1048.37,-209.95 1028.42,-196.11 1015.43,-187.56"/>
<polygon fill="midnightblue" stroke="midnightblue" points="1209,-353.67 1212.51,-363.67 1216,-353.66 1209,-353.67"/>
</g>
<!-- Node28&#45;&gt;Node12 -->
<g id="edge46" class="edge">
<title>Node28&#45;&gt;Node12</title>
<path fill="none" stroke="midnightblue" d="M1292.41,-364.32C1505.76,-342.09 2070,-279.61 2070,-240.5 2070,-240.5 2070,-240.5 2070,-177 2070,-85.35 1376.07,-70.04 1163.29,-67.5"/>
<polygon fill="midnightblue" stroke="midnightblue" points="1291.8,-360.87 1282.21,-365.38 1292.52,-367.83 1291.8,-360.87"/>
</g>
<!-- Node28&#45;&gt;Node17 -->
<g id="edge63" class="edge">
<title>Node28&#45;&gt;Node17</title>
<path fill="none" stroke="midnightblue" d="M1133.71,-362.69C1032.35,-350 857.36,-328.08 761.2,-316.04"/>
<polygon fill="midnightblue" stroke="midnightblue" points="1133.53,-366.2 1143.88,-363.97 1134.4,-359.25 1133.53,-366.2"/>
</g>
<!-- Node28&#45;&gt;Node23 -->
<g id="edge66" class="edge">
<title>Node28&#45;&gt;Node23</title>
<path fill="none" stroke="midnightblue" d="M1189.29,-358.44C1168.5,-345.57 1138.38,-326.93 1120.94,-316.13"/>
<polygon fill="midnightblue" stroke="midnightblue" points="1187.49,-361.45 1197.84,-363.73 1191.18,-355.49 1187.49,-361.45"/>
</g>
<!-- Node28&#45;&gt;Node24 -->
<g id="edge67" class="edge">
<title>Node28&#45;&gt;Node24</title>
<path fill="none" stroke="midnightblue" d="M1161.2,-361.88C1100.04,-349.1 998.52,-327.88 942.07,-316.08"/>
<polygon fill="midnightblue" stroke="midnightblue" points="1160.52,-365.32 1171.02,-363.94 1161.95,-358.46 1160.52,-365.32"/>
</g>
<!-- Node29 -->
<g id="node29" class="node">
<title>Node29</title>
<g id="a_node29"><a xlink:href="wrap_8h.html" target="_top" xlink:title=" ">
<polygon fill="white" stroke="black" points="1511,-297 1511,-316 1589,-316 1589,-297 1511,-297"/>
<text text-anchor="middle" x="1550" y="-304" font-family="Helvetica,sans-Serif" font-size="10.00">src/js/wrap.h</text>
</a>
</g>
</g>
<!-- Node28&#45;&gt;Node29 -->
<g id="edge47" class="edge">
<title>Node28&#45;&gt;Node29</title>
<path fill="none" stroke="midnightblue" d="M1266.69,-361.98C1335.14,-348.82 1450.68,-326.6 1510.88,-315.02"/>
<polygon fill="midnightblue" stroke="midnightblue" points="1265.69,-358.61 1256.54,-363.94 1267.02,-365.48 1265.69,-358.61"/>
</g>
<!-- Node36 -->
<g id="node36" class="node">
<title>Node36</title>
<g id="a_node36"><a xlink:href="user__frontend_8h.html" target="_top" xlink:title=" ">
<polygon fill="white" stroke="black" points="2098.5,-112.5 2098.5,-131.5 2253.5,-131.5 2253.5,-112.5 2098.5,-112.5"/>
<text text-anchor="middle" x="2176" y="-119.5" font-family="Helvetica,sans-Serif" font-size="10.00">src/node/rpc/user_frontend.h</text>
</a>
</g>
</g>
<!-- Node28&#45;&gt;Node36 -->
<g id="edge64" class="edge">
<title>Node28&#45;&gt;Node36</title>
<path fill="none" stroke="midnightblue" d="M1292.68,-366.45C1330.17,-363.72 1375.35,-360.54 1416,-358 1490.19,-353.36 2022.48,-363.71 2084,-322 2152.68,-275.44 2171.1,-163.87 2175.06,-131.77"/>
<polygon fill="midnightblue" stroke="midnightblue" points="1292.04,-362.98 1282.32,-367.2 1292.55,-369.97 1292.04,-362.98"/>
</g>
<!-- Node37 -->
<g id="node37" class="node">
<title>Node37</title>
<g id="a_node37"><a xlink:href="snapshotter_8h.html" target="_top" xlink:title=" ">
<polygon fill="white" stroke="black" points="1240.5,-297 1240.5,-316 1367.5,-316 1367.5,-297 1240.5,-297"/>
<text text-anchor="middle" x="1304" y="-304" font-family="Helvetica,sans-Serif" font-size="10.00">src/node/snapshotter.h</text>
</a>
</g>
</g>
<!-- Node28&#45;&gt;Node37 -->
<g id="edge68" class="edge">
<title>Node28&#45;&gt;Node37</title>
<path fill="none" stroke="midnightblue" d="M1232.64,-357.92C1250.82,-345.07 1276.71,-326.78 1291.79,-316.13"/>
<polygon fill="midnightblue" stroke="midnightblue" points="1230.56,-355.1 1224.41,-363.73 1234.59,-360.82 1230.56,-355.1"/>
</g>
<!-- Node29&#45;&gt;Node9 -->
<g id="edge59" class="edge">
<title>Node29&#45;&gt;Node9</title>
<path fill="none" stroke="midnightblue" d="M1599.49,-298.81C1648.51,-291.04 1718.59,-276.49 1735,-255 1750.73,-234.4 1730.95,-203.07 1719.34,-187.88"/>
<polygon fill="midnightblue" stroke="midnightblue" points="1598.73,-295.38 1589.37,-300.36 1599.79,-302.3 1598.73,-295.38"/>
</g>
<!-- Node29&#45;&gt;Node11 -->
<g id="edge60" class="edge">
<title>Node29&#45;&gt;Node11</title>
<path fill="none" stroke="midnightblue" d="M1500.6,-301.54C1433.99,-295.42 1312.07,-281.53 1211,-255 1173.72,-245.21 1166.19,-237.28 1130,-224 1094.4,-210.93 1052.95,-196.5 1027.09,-187.59"/>
<polygon fill="midnightblue" stroke="midnightblue" points="1500.53,-305.04 1510.81,-302.45 1501.16,-298.07 1500.53,-305.04"/>
</g>
<!-- Node29&#45;&gt;Node12 -->
<g id="edge49" class="edge">
<title>Node29&#45;&gt;Node12</title>
<path fill="none" stroke="midnightblue" d="M1599.56,-303.76C1713.37,-299.26 1985.74,-285.39 2013,-255 2022.2,-244.74 2021.6,-234.77 2013,-224 1906.65,-90.84 1349.79,-70.56 1163.08,-67.52"/>
<polygon fill="midnightblue" stroke="midnightblue" points="1599.24,-300.27 1589.38,-304.16 1599.51,-307.27 1599.24,-300.27"/>
</g>
<!-- Node29&#45;&gt;Node15 -->
<g id="edge61" class="edge">
<title>Node29&#45;&gt;Node15</title>
<path fill="none" stroke="midnightblue" d="M1500.56,-300.89C1465.98,-297.79 1418.7,-293.76 1377,-291 1048.89,-269.26 966.4,-271.88 638,-255 566.57,-251.33 484.45,-246.85 430.13,-243.85"/>
<polygon fill="midnightblue" stroke="midnightblue" points="1500.59,-304.41 1510.87,-301.83 1501.22,-297.44 1500.59,-304.41"/>
</g>
<!-- Node30 -->
<g id="node30" class="node">
<title>Node30</title>
<g id="a_node30"><a xlink:href="js__generic__base_8cpp.html" target="_top" xlink:title=" ">
<polygon fill="white" stroke="black" points="1220,-224.5 1220,-254.5 1338,-254.5 1338,-224.5 1220,-224.5"/>
<text text-anchor="start" x="1228" y="-242.5" font-family="Helvetica,sans-Serif" font-size="10.00">src/apps/js_generic</text>
<text text-anchor="middle" x="1279" y="-231.5" font-family="Helvetica,sans-Serif" font-size="10.00">/js_generic_base.cpp</text>
</a>
</g>
</g>
<!-- Node29&#45;&gt;Node30 -->
<g id="edge48" class="edge">
<title>Node29&#45;&gt;Node30</title>
<path fill="none" stroke="midnightblue" d="M1504.33,-294.55C1458.47,-283.55 1387.61,-266.55 1337.62,-254.56"/>
<polygon fill="midnightblue" stroke="midnightblue" points="1503.75,-298.01 1514.29,-296.94 1505.38,-291.2 1503.75,-298.01"/>
</g>
<!-- Node31 -->
<g id="node31" class="node">
<title>Node31</title>
<g id="a_node31"><a xlink:href="js_2consensus_8cpp.html" target="_top" xlink:title=" ">
<polygon fill="white" stroke="black" points="1782,-230 1782,-249 1898,-249 1898,-230 1782,-230"/>
<text text-anchor="middle" x="1840" y="-237" font-family="Helvetica,sans-Serif" font-size="10.00">src/js/consensus.cpp</text>
</a>
</g>
</g>
<!-- Node29&#45;&gt;Node31 -->
<g id="edge50" class="edge">
<title>Node29&#45;&gt;Node31</title>
<path fill="none" stroke="midnightblue" d="M1598.08,-294.72C1655.18,-281.92 1749.28,-260.83 1801.7,-249.08"/>
<polygon fill="midnightblue" stroke="midnightblue" points="1597.2,-291.33 1588.21,-296.94 1598.73,-298.16 1597.2,-291.33"/>
</g>
<!-- Node32 -->
<g id="node32" class="node">
<title>Node32</title>
<g id="a_node32"><a xlink:href="conv_8cpp.html" target="_top" xlink:title=" ">
<polygon fill="white" stroke="black" points="1916,-230 1916,-249 2004,-249 2004,-230 1916,-230"/>
<text text-anchor="middle" x="1960" y="-237" font-family="Helvetica,sans-Serif" font-size="10.00">src/js/conv.cpp</text>
</a>
</g>
</g>
<!-- Node29&#45;&gt;Node32 -->
<g id="edge52" class="edge">
<title>Node29&#45;&gt;Node32</title>
<path fill="none" stroke="midnightblue" d="M1599.27,-300.53C1668.45,-293.09 1798.11,-277.5 1907,-255 1914.94,-253.36 1923.45,-251.21 1931.28,-249.07"/>
<polygon fill="midnightblue" stroke="midnightblue" points="1598.68,-297.07 1589.11,-301.61 1599.42,-304.03 1598.68,-297.07"/>
</g>
<!-- Node33 -->
<g id="node33" class="node">
<title>Node33</title>
<g id="a_node33"><a xlink:href="js_2crypto_8cpp.html" target="_top" xlink:title=" ">
<polygon fill="white" stroke="black" points="1502,-230 1502,-249 1598,-249 1598,-230 1502,-230"/>
<text text-anchor="middle" x="1550" y="-237" font-family="Helvetica,sans-Serif" font-size="10.00">src/js/crypto.cpp</text>
</a>
</g>
</g>
<!-- Node29&#45;&gt;Node33 -->
<g id="edge54" class="edge">
<title>Node29&#45;&gt;Node33</title>
<path fill="none" stroke="midnightblue" d="M1550,-286.54C1550,-274.17 1550,-258.62 1550,-249.13"/>
<polygon fill="midnightblue" stroke="midnightblue" points="1546.5,-286.73 1550,-296.73 1553.5,-286.73 1546.5,-286.73"/>
</g>
<!-- Node34 -->
<g id="node34" class="node">
<title>Node34</title>
<g id="a_node34"><a xlink:href="js_2historical_8cpp.html" target="_top" xlink:title=" ">
<polygon fill="white" stroke="black" points="1616,-230 1616,-249 1726,-249 1726,-230 1616,-230"/>
<text text-anchor="middle" x="1671" y="-237" font-family="Helvetica,sans-Serif" font-size="10.00">src/js/historical.cpp</text>
</a>
</g>
</g>
<!-- Node29&#45;&gt;Node34 -->
<g id="edge56" class="edge">
<title>Node29&#45;&gt;Node34</title>
<path fill="none" stroke="midnightblue" d="M1575.21,-291.96C1599.2,-279.07 1634.56,-260.07 1654.94,-249.13"/>
<polygon fill="midnightblue" stroke="midnightblue" points="1573.47,-288.92 1566.32,-296.73 1576.78,-295.08 1573.47,-288.92"/>
</g>
<!-- Node35 -->
<g id="node35" class="node">
<title>Node35</title>
<g id="a_node35"><a xlink:href="openenclave_8cpp.html" target="_top" xlink:title=" ">
<polygon fill="white" stroke="black" points="1356,-230 1356,-249 1484,-249 1484,-230 1356,-230"/>
<text text-anchor="middle" x="1420" y="-237" font-family="Helvetica,sans-Serif" font-size="10.00">src/js/openenclave.cpp</text>
</a>
</g>
</g>
<!-- Node29&#45;&gt;Node35 -->
<g id="edge58" class="edge">
<title>Node29&#45;&gt;Node35</title>
<path fill="none" stroke="midnightblue" d="M1523.55,-292.27C1497.8,-279.4 1459.42,-260.21 1437.33,-249.17"/>
<polygon fill="midnightblue" stroke="midnightblue" points="1522.23,-295.53 1532.74,-296.87 1525.36,-289.27 1522.23,-295.53"/>
</g>
<!-- Node31&#45;&gt;Node9 -->
<g id="edge51" class="edge">
<title>Node31&#45;&gt;Node9</title>
<path fill="none" stroke="midnightblue" d="M1812.41,-225.67C1787.57,-214.13 1751.77,-197.49 1730.31,-187.51"/>
<polygon fill="midnightblue" stroke="midnightblue" points="1811.12,-228.93 1821.66,-229.98 1814.07,-222.59 1811.12,-228.93"/>
</g>
<!-- Node32&#45;&gt;Node9 -->
<g id="edge53" class="edge">
<title>Node32&#45;&gt;Node9</title>
<path fill="none" stroke="midnightblue" d="M1919.66,-227.28C1915.39,-226.15 1911.11,-225.04 1907,-224 1853.1,-210.41 1790.4,-196.23 1750.96,-187.51"/>
<polygon fill="midnightblue" stroke="midnightblue" points="1918.94,-230.71 1929.51,-229.93 1920.76,-223.95 1918.94,-230.71"/>
</g>
<!-- Node33&#45;&gt;Node9 -->
<g id="edge55" class="edge">
<title>Node33&#45;&gt;Node9</title>
<path fill="none" stroke="midnightblue" d="M1582.85,-226.43C1614.34,-214.87 1661.06,-197.71 1688.83,-187.51"/>
<polygon fill="midnightblue" stroke="midnightblue" points="1581.39,-223.24 1573.21,-229.98 1583.8,-229.81 1581.39,-223.24"/>
</g>
<!-- Node34&#45;&gt;Node9 -->
<g id="edge57" class="edge">
<title>Node34&#45;&gt;Node9</title>
<path fill="none" stroke="midnightblue" d="M1682.71,-221.51C1690.37,-210.39 1700.05,-196.34 1706.14,-187.51"/>
<polygon fill="midnightblue" stroke="midnightblue" points="1679.67,-219.75 1676.87,-229.98 1685.43,-223.73 1679.67,-219.75"/>
</g>
<!-- Node36&#45;&gt;Node12 -->
<g id="edge65" class="edge">
<title>Node36&#45;&gt;Node12</title>
<path fill="none" stroke="midnightblue" d="M2087.95,-112.29C2086.62,-112.19 2085.31,-112.09 2084,-112 1736.1,-87.03 1317.81,-73.25 1163.25,-68.71"/>
<polygon fill="midnightblue" stroke="midnightblue" points="2087.98,-115.8 2098.22,-113.11 2088.53,-108.83 2087.98,-115.8"/>
</g>
<!-- Node37&#45;&gt;Node11 -->
<g id="edge69" class="edge">
<title>Node37&#45;&gt;Node11</title>
<path fill="none" stroke="midnightblue" d="M1256.14,-294.48C1222.73,-285.9 1177.56,-272.5 1140,-255 1116.98,-244.27 1114.06,-236.59 1092,-224 1067.88,-210.23 1039,-196.21 1020.58,-187.56"/>
<polygon fill="midnightblue" stroke="midnightblue" points="1255.56,-297.94 1266.11,-296.99 1257.27,-291.15 1255.56,-297.94"/>
</g>
</g>
</svg>
