<?xml version="1.0" encoding="UTF-8" standalone="no"?>
<!DOCTYPE svg PUBLIC "-//W3C//DTD SVG 1.1//EN"
 "http://www.w3.org/Graphics/SVG/1.1/DTD/svg11.dtd">
<!-- Generated by graphviz version 2.43.0 (0)
 -->
<!-- Title: src/service/network_tables.h Pages: 1 -->
<svg width="1617pt" height="453pt"
 viewBox="0.00 0.00 1616.86 453.00" xmlns="http://www.w3.org/2000/svg" xmlns:xlink="http://www.w3.org/1999/xlink">
<g id="graph0" class="graph" transform="scale(1 1) rotate(0) translate(4 449)">
<title>src/service/network_tables.h</title>
<polygon fill="white" stroke="transparent" points="-4,4 -4,-449 1612.86,-449 1612.86,4 -4,4"/>
<!-- Node1 -->
<g id="node1" class="node">
<title>Node1</title>
<g id="a_node1"><a xlink:title=" ">
<polygon fill="#bfbfbf" stroke="black" points="1031.5,-414.5 1031.5,-444.5 1143.5,-444.5 1143.5,-414.5 1031.5,-414.5"/>
<text text-anchor="start" x="1039.5" y="-432.5" font-family="Helvetica,sans-Serif" font-size="10.00">src/service/network</text>
<text text-anchor="middle" x="1087.5" y="-421.5" font-family="Helvetica,sans-Serif" font-size="10.00">_tables.h</text>
</a>
</g>
</g>
<!-- Node2 -->
<g id="node2" class="node">
<title>Node2</title>
<g id="a_node2"><a xlink:href="kv__module__loader_8cpp.html" target="_top" xlink:title=" ">
<polygon fill="white" stroke="black" points="773,-347.5 773,-377.5 916,-377.5 916,-347.5 773,-347.5"/>
<text text-anchor="start" x="781" y="-365.5" font-family="Helvetica,sans-Serif" font-size="10.00">src/apps/js_v8/kv_module</text>
<text text-anchor="middle" x="844.5" y="-354.5" font-family="Helvetica,sans-Serif" font-size="10.00">_loader.cpp</text>
</a>
</g>
</g>
<!-- Node1&#45;&gt;Node2 -->
<g id="edge1" class="edge">
<title>Node1&#45;&gt;Node2</title>
<path fill="none" stroke="midnightblue" d="M1025.25,-411.85C985.64,-401.25 934.89,-387.68 897.25,-377.61"/>
<polygon fill="midnightblue" stroke="midnightblue" points="1024.51,-415.27 1035.07,-414.48 1026.32,-408.51 1024.51,-415.27"/>
</g>
<!-- Node3 -->
<g id="node3" class="node">
<title>Node3</title>
<g id="a_node3"><a xlink:href="ccf__acme__client_8h.html" target="_top" xlink:title=" ">
<polygon fill="white" stroke="black" points="1117,-353 1117,-372 1266,-372 1266,-353 1117,-353"/>
<text text-anchor="middle" x="1191.5" y="-360" font-family="Helvetica,sans-Serif" font-size="10.00">src/node/ccf_acme_client.h</text>
</a>
</g>
</g>
<!-- Node1&#45;&gt;Node3 -->
<g id="edge2" class="edge">
<title>Node1&#45;&gt;Node3</title>
<path fill="none" stroke="midnightblue" d="M1118.74,-408.97C1138.46,-396.65 1162.95,-381.35 1177.89,-372.01"/>
<polygon fill="midnightblue" stroke="midnightblue" points="1116.69,-406.13 1110.07,-414.4 1120.4,-412.06 1116.69,-406.13"/>
</g>
<!-- Node8 -->
<g id="node8" class="node">
<title>Node8</title>
<g id="a_node8"><a xlink:href="network__state_8h.html" target="_top" xlink:title=" ">
<polygon fill="white" stroke="black" points="934.5,-353 934.5,-372 1074.5,-372 1074.5,-353 934.5,-353"/>
<text text-anchor="middle" x="1004.5" y="-360" font-family="Helvetica,sans-Serif" font-size="10.00">src/node/network_state.h</text>
</a>
</g>
</g>
<!-- Node1&#45;&gt;Node8 -->
<g id="edge8" class="edge">
<title>Node1&#45;&gt;Node8</title>
<path fill="none" stroke="midnightblue" d="M1061.33,-408.01C1045.92,-395.94 1027.24,-381.3 1015.6,-372.19"/>
<polygon fill="midnightblue" stroke="midnightblue" points="1059.46,-410.99 1069.49,-414.4 1063.78,-405.47 1059.46,-410.99"/>
</g>
<!-- Node24 -->
<g id="node24" class="node">
<title>Node24</title>
<g id="a_node24"><a xlink:href="genesis__gen_8h.html" target="_top" xlink:title=" ">
<polygon fill="white" stroke="black" points="1287.5,-347.5 1287.5,-377.5 1397.5,-377.5 1397.5,-347.5 1287.5,-347.5"/>
<text text-anchor="start" x="1295.5" y="-365.5" font-family="Helvetica,sans-Serif" font-size="10.00">src/service/genesis</text>
<text text-anchor="middle" x="1342.5" y="-354.5" font-family="Helvetica,sans-Serif" font-size="10.00">_gen.h</text>
</a>
</g>
</g>
<!-- Node1&#45;&gt;Node24 -->
<g id="edge40" class="edge">
<title>Node1&#45;&gt;Node24</title>
<path fill="none" stroke="midnightblue" d="M1152.29,-411.98C1193.94,-401.37 1247.48,-387.72 1287.14,-377.61"/>
<polygon fill="midnightblue" stroke="midnightblue" points="1151.34,-408.61 1142.52,-414.48 1153.07,-415.4 1151.34,-408.61"/>
</g>
<!-- Node4 -->
<g id="node4" class="node">
<title>Node4</title>
<g id="a_node4"><a xlink:href="node__state_8h.html" target="_top" xlink:title=" ">
<polygon fill="white" stroke="black" points="1113.5,-168.5 1113.5,-187.5 1237.5,-187.5 1237.5,-168.5 1113.5,-168.5"/>
<text text-anchor="middle" x="1175.5" y="-175.5" font-family="Helvetica,sans-Serif" font-size="10.00">src/node/node_state.h</text>
</a>
</g>
</g>
<!-- Node3&#45;&gt;Node4 -->
<g id="edge3" class="edge">
<title>Node3&#45;&gt;Node4</title>
<path fill="none" stroke="midnightblue" d="M1192.88,-342.67C1193.51,-333.18 1194.19,-321.49 1194.5,-311 1194.76,-302.12 1195.25,-299.86 1194.5,-291 1191.22,-252.09 1181.65,-206.37 1177.48,-187.65"/>
<polygon fill="midnightblue" stroke="midnightblue" points="1189.37,-342.71 1192.16,-352.93 1196.36,-343.2 1189.37,-342.71"/>
</g>
<!-- Node5 -->
<g id="node5" class="node">
<title>Node5</title>
<g id="a_node5"><a xlink:href="enclave_2enclave_8h.html" target="_top" xlink:title=" ">
<polygon fill="white" stroke="black" points="1014.5,-56.5 1014.5,-75.5 1136.5,-75.5 1136.5,-56.5 1014.5,-56.5"/>
<text text-anchor="middle" x="1075.5" y="-63.5" font-family="Helvetica,sans-Serif" font-size="10.00">src/enclave/enclave.h</text>
</a>
</g>
</g>
<!-- Node4&#45;&gt;Node5 -->
<g id="edge4" class="edge">
<title>Node4&#45;&gt;Node5</title>
<path fill="none" stroke="midnightblue" d="M1139.75,-164.41C1123.85,-157.17 1106.14,-146.57 1094.5,-132 1081,-115.1 1077.09,-88.91 1075.96,-75.52"/>
<polygon fill="midnightblue" stroke="midnightblue" points="1138.77,-167.8 1149.34,-168.49 1141.5,-161.36 1138.77,-167.8"/>
</g>
<!-- Node7 -->
<g id="node7" class="node">
<title>Node7</title>
<g id="a_node7"><a xlink:href="gov__effects_8h.html" target="_top" xlink:title=" ">
<polygon fill="white" stroke="black" points="1103.5,-112.5 1103.5,-131.5 1247.5,-131.5 1247.5,-112.5 1103.5,-112.5"/>
<text text-anchor="middle" x="1175.5" y="-119.5" font-family="Helvetica,sans-Serif" font-size="10.00">src/node/rpc/gov_effects.h</text>
</a>
</g>
</g>
<!-- Node4&#45;&gt;Node7 -->
<g id="edge6" class="edge">
<title>Node4&#45;&gt;Node7</title>
<path fill="none" stroke="midnightblue" d="M1175.5,-157.8C1175.5,-148.91 1175.5,-138.78 1175.5,-131.75"/>
<polygon fill="midnightblue" stroke="midnightblue" points="1172,-158.08 1175.5,-168.08 1179,-158.08 1172,-158.08"/>
</g>
<!-- Node6 -->
<g id="node6" class="node">
<title>Node6</title>
<g id="a_node6"><a xlink:href="enclave_2main_8cpp.html" target="_top" xlink:title=" ">
<polygon fill="white" stroke="black" points="1015.5,-0.5 1015.5,-19.5 1135.5,-19.5 1135.5,-0.5 1015.5,-0.5"/>
<text text-anchor="middle" x="1075.5" y="-7.5" font-family="Helvetica,sans-Serif" font-size="10.00">src/enclave/main.cpp</text>
</a>
</g>
</g>
<!-- Node5&#45;&gt;Node6 -->
<g id="edge5" class="edge">
<title>Node5&#45;&gt;Node6</title>
<path fill="none" stroke="midnightblue" d="M1075.5,-45.8C1075.5,-36.91 1075.5,-26.78 1075.5,-19.75"/>
<polygon fill="midnightblue" stroke="midnightblue" points="1072,-46.08 1075.5,-56.08 1079,-46.08 1072,-46.08"/>
</g>
<!-- Node7&#45;&gt;Node5 -->
<g id="edge7" class="edge">
<title>Node7&#45;&gt;Node5</title>
<path fill="none" stroke="midnightblue" d="M1150.41,-107.45C1131.95,-97.48 1107.4,-84.23 1091.53,-75.65"/>
<polygon fill="midnightblue" stroke="midnightblue" points="1148.97,-110.65 1159.43,-112.32 1152.3,-104.49 1148.97,-110.65"/>
</g>
<!-- Node8&#45;&gt;Node4 -->
<g id="edge26" class="edge">
<title>Node8&#45;&gt;Node4</title>
<path fill="none" stroke="midnightblue" d="M1004.81,-342.5C1006.04,-326.95 1010.09,-305.26 1022.5,-291 1050.24,-259.13 1076.25,-279.75 1110.5,-255 1137.24,-235.68 1160.09,-203.17 1170.1,-187.7"/>
<polygon fill="midnightblue" stroke="midnightblue" points="1001.31,-342.39 1004.34,-352.54 1008.31,-342.72 1001.31,-342.39"/>
</g>
<!-- Node8&#45;&gt;Node5 -->
<g id="edge9" class="edge">
<title>Node8&#45;&gt;Node5</title>
<path fill="none" stroke="midnightblue" d="M949.6,-351.19C941.21,-349.72 932.63,-348.27 924.5,-347 760.14,-321.26 183.5,-406.86 183.5,-240.5 183.5,-240.5 183.5,-240.5 183.5,-177 183.5,-93.13 812.66,-72.55 1014.19,-68.11"/>
<polygon fill="midnightblue" stroke="midnightblue" points="949.26,-354.68 959.71,-352.99 950.48,-347.79 949.26,-354.68"/>
</g>
<!-- Node9 -->
<g id="node9" class="node">
<title>Node9</title>
<g id="a_node9"><a xlink:href="wrap_8h.html" target="_top" xlink:title=" ">
<polygon fill="white" stroke="black" points="751.5,-291.5 751.5,-310.5 829.5,-310.5 829.5,-291.5 751.5,-291.5"/>
<text text-anchor="middle" x="790.5" y="-298.5" font-family="Helvetica,sans-Serif" font-size="10.00">src/js/wrap.h</text>
</a>
</g>
</g>
<!-- Node8&#45;&gt;Node9 -->
<g id="edge10" class="edge">
<title>Node8&#45;&gt;Node9</title>
<path fill="none" stroke="midnightblue" d="M964.04,-350.25C922.46,-338.69 858.66,-320.95 821.1,-310.51"/>
<polygon fill="midnightblue" stroke="midnightblue" points="963.27,-353.67 973.84,-352.98 965.14,-346.92 963.27,-353.67"/>
</g>
<!-- Node18 -->
<g id="node18" class="node">
<title>Node18</title>
<g id="a_node18"><a xlink:href="node__frontend_8h.html" target="_top" xlink:title=" ">
<polygon fill="white" stroke="black" points="1241.5,-291.5 1241.5,-310.5 1399.5,-310.5 1399.5,-291.5 1241.5,-291.5"/>
<text text-anchor="middle" x="1320.5" y="-298.5" font-family="Helvetica,sans-Serif" font-size="10.00">src/node/rpc/node_frontend.h</text>
</a>
</g>
</g>
<!-- Node8&#45;&gt;Node18 -->
<g id="edge27" class="edge">
<title>Node8&#45;&gt;Node18</title>
<path fill="none" stroke="midnightblue" d="M1059.64,-351.12C1120.84,-339.59 1218.45,-321.22 1275.31,-310.51"/>
<polygon fill="midnightblue" stroke="midnightblue" points="1058.95,-347.69 1049.78,-352.98 1060.25,-354.56 1058.95,-347.69"/>
</g>
<!-- Node20 -->
<g id="node20" class="node">
<title>Node20</title>
<g id="a_node20"><a xlink:href="user__frontend_8h.html" target="_top" xlink:title=" ">
<polygon fill="white" stroke="black" points="0,-112.5 0,-131.5 155,-131.5 155,-112.5 0,-112.5"/>
<text text-anchor="middle" x="77.5" y="-119.5" font-family="Helvetica,sans-Serif" font-size="10.00">src/node/rpc/user_frontend.h</text>
</a>
</g>
</g>
<!-- Node8&#45;&gt;Node20 -->
<g id="edge31" class="edge">
<title>Node8&#45;&gt;Node20</title>
<path fill="none" stroke="midnightblue" d="M953.05,-351.14C943.58,-349.53 933.77,-348.06 924.5,-347 841.06,-337.49 239.67,-357.14 169.5,-311 103.62,-267.68 83.32,-162.72 78.67,-131.74"/>
<polygon fill="midnightblue" stroke="midnightblue" points="952.68,-354.63 963.13,-352.93 953.9,-347.74 952.68,-354.63"/>
</g>
<!-- Node21 -->
<g id="node21" class="node">
<title>Node21</title>
<g id="a_node21"><a xlink:href="secret__broadcast_8h.html" target="_top" xlink:title=" ">
<polygon fill="white" stroke="black" points="1032,-291.5 1032,-310.5 1185,-310.5 1185,-291.5 1032,-291.5"/>
<text text-anchor="middle" x="1108.5" y="-298.5" font-family="Helvetica,sans-Serif" font-size="10.00">src/node/secret_broadcast.h</text>
</a>
</g>
</g>
<!-- Node8&#45;&gt;Node21 -->
<g id="edge33" class="edge">
<title>Node8&#45;&gt;Node21</title>
<path fill="none" stroke="midnightblue" d="M1028.27,-347.9C1048.38,-336.4 1076.57,-320.27 1093.63,-310.51"/>
<polygon fill="midnightblue" stroke="midnightblue" points="1026.34,-344.97 1019.4,-352.98 1029.82,-351.05 1026.34,-344.97"/>
</g>
<!-- Node22 -->
<g id="node22" class="node">
<title>Node22</title>
<g id="a_node22"><a xlink:href="share__manager_8h.html" target="_top" xlink:title=" ">
<polygon fill="white" stroke="black" points="1418,-291.5 1418,-310.5 1563,-310.5 1563,-291.5 1418,-291.5"/>
<text text-anchor="middle" x="1490.5" y="-298.5" font-family="Helvetica,sans-Serif" font-size="10.00">src/node/share_manager.h</text>
</a>
</g>
</g>
<!-- Node8&#45;&gt;Node22 -->
<g id="edge35" class="edge">
<title>Node8&#45;&gt;Node22</title>
<path fill="none" stroke="midnightblue" d="M1074.13,-351.58C1085.61,-350.01 1097.38,-348.43 1108.5,-347 1216.13,-333.16 1341.04,-318.76 1417.92,-310.08"/>
<polygon fill="midnightblue" stroke="midnightblue" points="1073.57,-348.13 1064.14,-352.96 1074.53,-355.06 1073.57,-348.13"/>
</g>
<!-- Node23 -->
<g id="node23" class="node">
<title>Node23</title>
<g id="a_node23"><a xlink:href="snapshotter_8h.html" target="_top" xlink:title=" ">
<polygon fill="white" stroke="black" points="848,-291.5 848,-310.5 975,-310.5 975,-291.5 848,-291.5"/>
<text text-anchor="middle" x="911.5" y="-298.5" font-family="Helvetica,sans-Serif" font-size="10.00">src/node/snapshotter.h</text>
</a>
</g>
</g>
<!-- Node8&#45;&gt;Node23 -->
<g id="edge38" class="edge">
<title>Node8&#45;&gt;Node23</title>
<path fill="none" stroke="midnightblue" d="M982.51,-347.43C964.58,-335.96 939.84,-320.13 924.8,-310.51"/>
<polygon fill="midnightblue" stroke="midnightblue" points="980.87,-350.53 991.18,-352.98 984.64,-344.64 980.87,-350.53"/>
</g>
<!-- Node9&#45;&gt;Node4 -->
<g id="edge23" class="edge">
<title>Node9&#45;&gt;Node4</title>
<path fill="none" stroke="midnightblue" d="M839.5,-290.92C931.27,-275.93 963,-294.83 1042.5,-255 1060.49,-245.99 1058.76,-235.17 1075.5,-224 1099.25,-208.15 1129.5,-195.42 1150.48,-187.6"/>
<polygon fill="midnightblue" stroke="midnightblue" points="838.78,-287.49 829.53,-292.65 839.98,-294.39 838.78,-287.49"/>
</g>
<!-- Node9&#45;&gt;Node5 -->
<g id="edge12" class="edge">
<title>Node9&#45;&gt;Node5</title>
<path fill="none" stroke="midnightblue" d="M813.3,-285.95C826.75,-277.41 843.93,-266.06 858.5,-255 880.44,-238.35 1026.22,-110.34 1065.67,-75.65"/>
<polygon fill="midnightblue" stroke="midnightblue" points="811.28,-283.09 804.67,-291.38 815,-289.02 811.28,-283.09"/>
</g>
<!-- Node10 -->
<g id="node10" class="node">
<title>Node10</title>
<g id="a_node10"><a xlink:href="js__generic__base_8cpp.html" target="_top" xlink:title=" ">
<polygon fill="white" stroke="black" points="731.5,-224.5 731.5,-254.5 849.5,-254.5 849.5,-224.5 731.5,-224.5"/>
<text text-anchor="start" x="739.5" y="-242.5" font-family="Helvetica,sans-Serif" font-size="10.00">src/apps/js_generic</text>
<text text-anchor="middle" x="790.5" y="-231.5" font-family="Helvetica,sans-Serif" font-size="10.00">/js_generic_base.cpp</text>
</a>
</g>
</g>
<!-- Node9&#45;&gt;Node10 -->
<g id="edge11" class="edge">
<title>Node9&#45;&gt;Node10</title>
<path fill="none" stroke="midnightblue" d="M790.5,-281.23C790.5,-272.59 790.5,-262.5 790.5,-254.52"/>
<polygon fill="midnightblue" stroke="midnightblue" points="787,-281.48 790.5,-291.48 794,-281.48 787,-281.48"/>
</g>
<!-- Node11 -->
<g id="node11" class="node">
<title>Node11</title>
<g id="a_node11"><a xlink:href="js_2consensus_8cpp.html" target="_top" xlink:title=" ">
<polygon fill="white" stroke="black" points="597.5,-230 597.5,-249 713.5,-249 713.5,-230 597.5,-230"/>
<text text-anchor="middle" x="655.5" y="-237" font-family="Helvetica,sans-Serif" font-size="10.00">src/js/consensus.cpp</text>
</a>
</g>
</g>
<!-- Node9&#45;&gt;Node11 -->
<g id="edge13" class="edge">
<title>Node9&#45;&gt;Node11</title>
<path fill="none" stroke="midnightblue" d="M761.75,-287.33C735.54,-275.78 697.55,-259.03 674.81,-249.01"/>
<polygon fill="midnightblue" stroke="midnightblue" points="760.6,-290.64 771.16,-291.48 763.42,-284.24 760.6,-290.64"/>
</g>
<!-- Node12 -->
<g id="node12" class="node">
<title>Node12</title>
<g id="a_node12"><a xlink:href="wrap_8cpp.html" target="_top" xlink:title=" ">
<polygon fill="white" stroke="black" points="359,-168.5 359,-187.5 448,-187.5 448,-168.5 359,-168.5"/>
<text text-anchor="middle" x="403.5" y="-175.5" font-family="Helvetica,sans-Serif" font-size="10.00">src/js/wrap.cpp</text>
</a>
</g>
</g>
<!-- Node9&#45;&gt;Node12 -->
<g id="edge22" class="edge">
<title>Node9&#45;&gt;Node12</title>
<path fill="none" stroke="midnightblue" d="M740.88,-299.69C611.95,-298.36 274.05,-291.4 240.5,-255 202.41,-213.67 298.47,-192.89 358.86,-184.19"/>
<polygon fill="midnightblue" stroke="midnightblue" points="741.21,-303.19 751.24,-299.79 741.28,-296.19 741.21,-303.19"/>
</g>
<!-- Node13 -->
<g id="node13" class="node">
<title>Node13</title>
<g id="a_node13"><a xlink:href="conv_8cpp.html" target="_top" xlink:title=" ">
<polygon fill="white" stroke="black" points="249.5,-230 249.5,-249 337.5,-249 337.5,-230 249.5,-230"/>
<text text-anchor="middle" x="293.5" y="-237" font-family="Helvetica,sans-Serif" font-size="10.00">src/js/conv.cpp</text>
</a>
</g>
</g>
<!-- Node9&#45;&gt;Node13 -->
<g id="edge15" class="edge">
<title>Node9&#45;&gt;Node13</title>
<path fill="none" stroke="midnightblue" d="M741.22,-297.68C658.88,-293.21 488.39,-281.41 346.5,-255 338.25,-253.46 329.41,-251.27 321.35,-249.05"/>
<polygon fill="midnightblue" stroke="midnightblue" points="741.12,-301.18 751.29,-298.22 741.49,-294.19 741.12,-301.18"/>
</g>
<!-- Node14 -->
<g id="node14" class="node">
<title>Node14</title>
<g id="a_node14"><a xlink:href="js_2crypto_8cpp.html" target="_top" xlink:title=" ">
<polygon fill="white" stroke="black" points="355.5,-230 355.5,-249 451.5,-249 451.5,-230 355.5,-230"/>
<text text-anchor="middle" x="403.5" y="-237" font-family="Helvetica,sans-Serif" font-size="10.00">src/js/crypto.cpp</text>
</a>
</g>
</g>
<!-- Node9&#45;&gt;Node14 -->
<g id="edge17" class="edge">
<title>Node9&#45;&gt;Node14</title>
<path fill="none" stroke="midnightblue" d="M741.08,-295.03C676.3,-288.12 559.29,-274.24 460.5,-255 451.98,-253.34 442.83,-251.19 434.42,-249.05"/>
<polygon fill="midnightblue" stroke="midnightblue" points="741.09,-298.55 751.4,-296.12 741.82,-291.59 741.09,-298.55"/>
</g>
<!-- Node15 -->
<g id="node15" class="node">
<title>Node15</title>
<g id="a_node15"><a xlink:href="js_2historical_8cpp.html" target="_top" xlink:title=" ">
<polygon fill="white" stroke="black" points="469.5,-230 469.5,-249 579.5,-249 579.5,-230 469.5,-230"/>
<text text-anchor="middle" x="524.5" y="-237" font-family="Helvetica,sans-Serif" font-size="10.00">src/js/historical.cpp</text>
</a>
</g>
</g>
<!-- Node9&#45;&gt;Node15 -->
<g id="edge19" class="edge">
<title>Node9&#45;&gt;Node15</title>
<path fill="none" stroke="midnightblue" d="M742.17,-289.28C701.24,-280.2 641.01,-266.8 588.5,-255 579.94,-253.08 570.74,-251 562.06,-249.03"/>
<polygon fill="midnightblue" stroke="midnightblue" points="741.62,-292.75 752.14,-291.5 743.14,-285.91 741.62,-292.75"/>
</g>
<!-- Node16 -->
<g id="node16" class="node">
<title>Node16</title>
<g id="a_node16"><a xlink:href="openenclave_8cpp.html" target="_top" xlink:title=" ">
<polygon fill="white" stroke="black" points="905.5,-230 905.5,-249 1033.5,-249 1033.5,-230 905.5,-230"/>
<text text-anchor="middle" x="969.5" y="-237" font-family="Helvetica,sans-Serif" font-size="10.00">src/js/openenclave.cpp</text>
</a>
</g>
</g>
<!-- Node9&#45;&gt;Node16 -->
<g id="edge21" class="edge">
<title>Node9&#45;&gt;Node16</title>
<path fill="none" stroke="midnightblue" d="M825.9,-288.23C860.7,-276.67 912.95,-259.3 943.9,-249.01"/>
<polygon fill="midnightblue" stroke="midnightblue" points="824.53,-285 816.15,-291.48 826.74,-291.64 824.53,-285"/>
</g>
<!-- Node17 -->
<g id="node17" class="node">
<title>Node17</title>
<g id="a_node17"><a xlink:href="member__frontend_8h.html" target="_top" xlink:title=" ">
<polygon fill="white" stroke="black" points="1461.5,-224.5 1461.5,-254.5 1581.5,-254.5 1581.5,-224.5 1461.5,-224.5"/>
<text text-anchor="start" x="1469.5" y="-242.5" font-family="Helvetica,sans-Serif" font-size="10.00">src/node/rpc/member</text>
<text text-anchor="middle" x="1521.5" y="-231.5" font-family="Helvetica,sans-Serif" font-size="10.00">_frontend.h</text>
</a>
</g>
</g>
<!-- Node9&#45;&gt;Node17 -->
<g id="edge24" class="edge">
<title>Node9&#45;&gt;Node17</title>
<path fill="none" stroke="midnightblue" d="M839.74,-290.99C1077.96,-261.24 1140.95,-274.65 1376.5,-255 1404.36,-252.68 1435.18,-249.66 1461.22,-246.97"/>
<polygon fill="midnightblue" stroke="midnightblue" points="839.22,-287.53 829.73,-292.25 840.09,-294.47 839.22,-287.53"/>
</g>
<!-- Node11&#45;&gt;Node12 -->
<g id="edge14" class="edge">
<title>Node11&#45;&gt;Node12</title>
<path fill="none" stroke="midnightblue" d="M609.39,-227.61C560.48,-216.07 484.23,-198.06 439.54,-187.51"/>
<polygon fill="midnightblue" stroke="midnightblue" points="608.86,-231.08 619.39,-229.98 610.47,-224.27 608.86,-231.08"/>
</g>
<!-- Node13&#45;&gt;Node12 -->
<g id="edge16" class="edge">
<title>Node13&#45;&gt;Node12</title>
<path fill="none" stroke="midnightblue" d="M318.07,-225.21C339.37,-213.69 369.57,-197.36 387.77,-187.51"/>
<polygon fill="midnightblue" stroke="midnightblue" points="316.39,-222.14 309.26,-229.98 319.72,-228.3 316.39,-222.14"/>
</g>
<!-- Node14&#45;&gt;Node12 -->
<g id="edge18" class="edge">
<title>Node14&#45;&gt;Node12</title>
<path fill="none" stroke="midnightblue" d="M403.5,-219.82C403.5,-209 403.5,-195.9 403.5,-187.51"/>
<polygon fill="midnightblue" stroke="midnightblue" points="400,-219.98 403.5,-229.98 407,-219.98 400,-219.98"/>
</g>
<!-- Node15&#45;&gt;Node12 -->
<g id="edge20" class="edge">
<title>Node15&#45;&gt;Node12</title>
<path fill="none" stroke="midnightblue" d="M498.11,-225.52C474.64,-213.98 441.01,-197.44 420.8,-187.51"/>
<polygon fill="midnightblue" stroke="midnightblue" points="496.65,-228.7 507.16,-229.98 499.73,-222.42 496.65,-228.7"/>
</g>
<!-- Node17&#45;&gt;Node5 -->
<g id="edge25" class="edge">
<title>Node17&#45;&gt;Node5</title>
<path fill="none" stroke="midnightblue" d="M1514.62,-214.28C1504.89,-184.8 1484.06,-136 1447.5,-112 1397.74,-79.33 1229.03,-70.37 1136.86,-67.92"/>
<polygon fill="midnightblue" stroke="midnightblue" points="1511.4,-215.68 1517.72,-224.18 1518.08,-213.59 1511.4,-215.68"/>
</g>
<!-- Node18&#45;&gt;Node5 -->
<g id="edge28" class="edge">
<title>Node18&#45;&gt;Node5</title>
<path fill="none" stroke="midnightblue" d="M1346.82,-286.05C1358.16,-278.51 1370.25,-268.05 1376.5,-255 1382.45,-242.58 1381.99,-236.64 1376.5,-224 1347.42,-157.09 1320.62,-146.8 1256.5,-112 1219.36,-91.84 1173.05,-80.54 1136.57,-74.31"/>
<polygon fill="midnightblue" stroke="midnightblue" points="1344.69,-283.25 1338,-291.46 1348.35,-289.21 1344.69,-283.25"/>
</g>
<!-- Node19 -->
<g id="node19" class="node">
<title>Node19</title>
<g id="a_node19"><a xlink:href="jwt__key__auto__refresh_8h.html" target="_top" xlink:title=" ">
<polygon fill="white" stroke="black" points="1242,-224.5 1242,-254.5 1367,-254.5 1367,-224.5 1242,-224.5"/>
<text text-anchor="start" x="1250" y="-242.5" font-family="Helvetica,sans-Serif" font-size="10.00">src/node/jwt_key_auto</text>
<text text-anchor="middle" x="1304.5" y="-231.5" font-family="Helvetica,sans-Serif" font-size="10.00">_refresh.h</text>
</a>
</g>
</g>
<!-- Node18&#45;&gt;Node19 -->
<g id="edge29" class="edge">
<title>Node18&#45;&gt;Node19</title>
<path fill="none" stroke="midnightblue" d="M1315.61,-281.82C1313.25,-273.04 1310.46,-262.68 1308.27,-254.52"/>
<polygon fill="midnightblue" stroke="midnightblue" points="1312.23,-282.73 1318.21,-291.48 1318.99,-280.91 1312.23,-282.73"/>
</g>
<!-- Node19&#45;&gt;Node4 -->
<g id="edge30" class="edge">
<title>Node19&#45;&gt;Node4</title>
<path fill="none" stroke="midnightblue" d="M1264.57,-220.08C1241.14,-209.28 1212.62,-196.12 1194.27,-187.66"/>
<polygon fill="midnightblue" stroke="midnightblue" points="1263.38,-223.39 1273.93,-224.4 1266.31,-217.03 1263.38,-223.39"/>
</g>
<!-- Node20&#45;&gt;Node5 -->
<g id="edge32" class="edge">
<title>Node20&#45;&gt;Node5</title>
<path fill="none" stroke="midnightblue" d="M165.56,-112.3C166.88,-112.2 168.19,-112.1 169.5,-112 487.15,-88.59 868.38,-74.08 1014.46,-69.02"/>
<polygon fill="midnightblue" stroke="midnightblue" points="164.96,-108.83 155.28,-113.13 165.53,-115.81 164.96,-108.83"/>
</g>
<!-- Node21&#45;&gt;Node4 -->
<g id="edge34" class="edge">
<title>Node21&#45;&gt;Node4</title>
<path fill="none" stroke="midnightblue" d="M1126.81,-284.48C1135.33,-276.43 1144.99,-265.99 1151.5,-255 1164.61,-232.85 1171.34,-202.77 1174.04,-187.97"/>
<polygon fill="midnightblue" stroke="midnightblue" points="1124.21,-282.11 1119.13,-291.41 1128.9,-287.31 1124.21,-282.11"/>
</g>
<!-- Node22&#45;&gt;Node4 -->
<g id="edge36" class="edge">
<title>Node22&#45;&gt;Node4</title>
<path fill="none" stroke="midnightblue" d="M1472.66,-285.03C1451.19,-267.78 1413.41,-239.78 1376.5,-224 1331.95,-204.95 1278.25,-193.46 1237.56,-186.86"/>
<polygon fill="midnightblue" stroke="midnightblue" points="1470.6,-287.87 1480.56,-291.49 1475.03,-282.45 1470.6,-287.87"/>
</g>
<!-- Node22&#45;&gt;Node17 -->
<g id="edge37" class="edge">
<title>Node22&#45;&gt;Node17</title>
<path fill="none" stroke="midnightblue" d="M1499.67,-282.39C1504.31,-273.5 1509.85,-262.86 1514.19,-254.52"/>
<polygon fill="midnightblue" stroke="midnightblue" points="1496.46,-280.99 1494.94,-291.48 1502.67,-284.22 1496.46,-280.99"/>
</g>
<!-- Node23&#45;&gt;Node4 -->
<g id="edge39" class="edge">
<title>Node23&#45;&gt;Node4</title>
<path fill="none" stroke="midnightblue" d="M971.46,-289.31C1003.41,-282.21 1042.78,-271.17 1075.5,-255 1094.76,-245.49 1143.59,-205.61 1165.08,-187.73"/>
<polygon fill="midnightblue" stroke="midnightblue" points="970.4,-285.96 961.36,-291.48 971.87,-292.8 970.4,-285.96"/>
</g>
<!-- Node24&#45;&gt;Node4 -->
<g id="edge41" class="edge">
<title>Node24&#45;&gt;Node4</title>
<path fill="none" stroke="midnightblue" d="M1407.76,-357.04C1472.61,-351.11 1565.62,-338.06 1588.5,-311 1613.48,-281.47 1616.33,-252.79 1590.5,-224 1567.39,-198.25 1347.75,-185.87 1237.71,-181.25"/>
<polygon fill="midnightblue" stroke="midnightblue" points="1407.26,-353.57 1397.61,-357.93 1407.87,-360.54 1407.26,-353.57"/>
</g>
<!-- Node24&#45;&gt;Node17 -->
<g id="edge42" class="edge">
<title>Node24&#45;&gt;Node17</title>
<path fill="none" stroke="midnightblue" d="M1407.98,-356.13C1468.54,-349.64 1552.16,-336.3 1572.5,-311 1587.74,-292.05 1563.64,-269.05 1543.65,-254.59"/>
<polygon fill="midnightblue" stroke="midnightblue" points="1407.31,-352.68 1397.72,-357.19 1408.03,-359.64 1407.31,-352.68"/>
</g>
<!-- Node24&#45;&gt;Node18 -->
<g id="edge43" class="edge">
<title>Node24&#45;&gt;Node18</title>
<path fill="none" stroke="midnightblue" d="M1333.77,-337.9C1330.22,-328.3 1326.34,-317.81 1323.7,-310.66"/>
<polygon fill="midnightblue" stroke="midnightblue" points="1330.54,-339.23 1337.29,-347.4 1337.1,-336.81 1330.54,-339.23"/>
</g>
<!-- Node24&#45;&gt;Node21 -->
<g id="edge44" class="edge">
<title>Node24&#45;&gt;Node21</title>
<path fill="none" stroke="midnightblue" d="M1277.58,-344.99C1233.56,-333.8 1177.19,-319.47 1141.95,-310.51"/>
<polygon fill="midnightblue" stroke="midnightblue" points="1276.79,-348.4 1287.34,-347.47 1278.51,-341.62 1276.79,-348.4"/>
</g>
<!-- Node24&#45;&gt;Node22 -->
<g id="edge45" class="edge">
<title>Node24&#45;&gt;Node22</title>
<path fill="none" stroke="midnightblue" d="M1386.88,-343.66C1414.02,-332.75 1447.54,-319.27 1468.96,-310.66"/>
<polygon fill="midnightblue" stroke="midnightblue" points="1385.55,-340.42 1377.57,-347.4 1388.16,-346.92 1385.55,-340.42"/>
</g>
</g>
</svg>
