<?xml version="1.0" encoding="UTF-8" standalone="no"?>
<!DOCTYPE svg PUBLIC "-//W3C//DTD SVG 1.1//EN"
 "http://www.w3.org/Graphics/SVG/1.1/DTD/svg11.dtd">
<!-- Generated by graphviz version 2.43.0 (0)
 -->
<!-- Title: include/ccf/service/node_info.h Pages: 1 -->
<!--zoomable 397 -->
<svg id="main" version="1.1" xmlns="http://www.w3.org/2000/svg" xmlns:xlink="http://www.w3.org/1999/xlink" xml:space="preserve" onload="init(evt)">
<style type="text/css"><![CDATA[
.edge:hover path { stroke: red; }
.edge:hover polygon { stroke: red; fill: red; }
]]></style>
<script type="text/javascript"><![CDATA[
var edges = document.getElementsByTagName('g');
if (edges && edges.length) {
  for (var i=0;i<edges.length;i++) {
    if (edges[i].id.substr(0,4)=='edge') {
      edges[i].setAttribute('class','edge');
    }
  }
}
]]></script>
        <defs>
                <circle id="rim" cx="0" cy="0" r="7"/>
                <circle id="rim2" cx="0" cy="0" r="3.5"/>
                <g id="zoomPlus">
                        <use xlink:href="#rim" fill="#404040">
                                <set attributeName="fill" to="#808080" begin="zoomplus.mouseover" end="zoomplus.mouseout"/>
                        </use>
                        <path d="M-4,0h8M0,-4v8" fill="none" stroke="white" stroke-width="1.5" pointer-events="none"/>
                </g>
                <g id="zoomMin">
                        <use xlink:href="#rim" fill="#404040">
                                <set attributeName="fill" to="#808080" begin="zoomminus.mouseover" end="zoomminus.mouseout"/>
                        </use>
                        <path d="M-4,0h8" fill="none" stroke="white" stroke-width="1.5" pointer-events="none"/>
                </g>
                <g id="dirArrow">
                        <path fill="none" stroke="white" stroke-width="1.5" d="M0,-3.0v7 M-2.5,-0.5L0,-3.0L2.5,-0.5"/>
                </g>
               <g id="resetDef">
                       <use xlink:href="#rim2" fill="#404040">
                               <set attributeName="fill" to="#808080" begin="reset.mouseover" end="reset.mouseout"/>
                       </use>
               </g>
        </defs>

<script type="text/javascript">
var viewWidth = 951;
var viewHeight = 397;
var sectionId = 'dynsection-0';
</script>
<script xlink:href="svgpan.js"/>
<svg id="graph" class="graph">
<g id="viewport">
<title>include/ccf/service/node_info.h</title>
<polygon fill="white" stroke="transparent" points="-4,4 -4,-393 947.07,-393 947.07,4 -4,4"/>
<!-- Node1 -->
<g id="node1" class="node">
<title>Node1</title>
<g id="a_node1"><a xlink:title=" ">
<polygon fill="#bfbfbf" stroke="black" points="466.5,-358.5 466.5,-388.5 573.5,-388.5 573.5,-358.5 466.5,-358.5"/>
<text text-anchor="start" x="474.5" y="-376.5" font-family="Helvetica,sans-Serif" font-size="10.00">include/ccf/service</text>
<text text-anchor="middle" x="520" y="-365.5" font-family="Helvetica,sans-Serif" font-size="10.00">/node_info.h</text>
</a>
</g>
</g>
<!-- Node2 -->
<g id="node2" class="node">
<title>Node2</title>
<g id="a_node2"><a xlink:href="pem_8h.html" target="_top" xlink:title=" ">
<polygon fill="white" stroke="black" points="693,-230 693,-249 791,-249 791,-230 693,-230"/>
<text text-anchor="middle" x="742" y="-237" font-family="Helvetica,sans-Serif" font-size="10.00">ccf/crypto/pem.h</text>
</a>
</g>
</g>
<!-- Node1&#45;&gt;Node2 -->
<g id="edge1" class="edge">
<title>Node1&#45;&gt;Node2</title>
<path fill="none" stroke="midnightblue" d="M533.34,-358.49C550.75,-340.83 582.83,-310.45 615,-291 642.82,-274.18 677.23,-260.9 703.22,-252.19"/>
<polygon fill="midnightblue" stroke="midnightblue" points="704.32,-255.51 712.73,-249.08 702.14,-248.86 704.32,-255.51"/>
</g>
<!-- Node3 -->
<g id="node3" class="node">
<title>Node3</title>
<g id="a_node3"><a xlink:href="json_8h.html" target="_top" xlink:title=" ">
<polygon fill="white" stroke="black" points="367.5,-168.5 367.5,-187.5 444.5,-187.5 444.5,-168.5 367.5,-168.5"/>
<text text-anchor="middle" x="406" y="-175.5" font-family="Helvetica,sans-Serif" font-size="10.00">ccf/ds/json.h</text>
</a>
</g>
</g>
<!-- Node1&#45;&gt;Node3 -->
<g id="edge25" class="edge">
<title>Node1&#45;&gt;Node3</title>
<path fill="none" stroke="midnightblue" d="M515.69,-358.47C506.82,-330.98 484.68,-268.8 453,-224 445.13,-212.87 434.24,-202.24 424.92,-194.1"/>
<polygon fill="midnightblue" stroke="midnightblue" points="427.16,-191.41 417.25,-187.65 422.65,-196.77 427.16,-191.41"/>
</g>
<!-- Node14 -->
<g id="node14" class="node">
<title>Node14</title>
<g id="a_node14"><a xlink:title=" ">
<polygon fill="white" stroke="#bfbfbf" points="470.5,-56.5 470.5,-75.5 549.5,-75.5 549.5,-56.5 470.5,-56.5"/>
<text text-anchor="middle" x="510" y="-63.5" font-family="Helvetica,sans-Serif" font-size="10.00">fmt/format.h</text>
</a>
</g>
</g>
<!-- Node1&#45;&gt;Node14 -->
<g id="edge39" class="edge">
<title>Node1&#45;&gt;Node14</title>
<path fill="none" stroke="midnightblue" d="M519.53,-358.17C517.9,-308.28 512.46,-142.15 510.62,-85.85"/>
<polygon fill="midnightblue" stroke="midnightblue" points="514.11,-85.46 510.28,-75.58 507.11,-85.69 514.11,-85.46"/>
</g>
<!-- Node21 -->
<g id="node21" class="node">
<title>Node21</title>
<g id="a_node21"><a xlink:href="version_8h.html" target="_top" xlink:title=" ">
<polygon fill="white" stroke="black" points="624,-297 624,-316 718,-316 718,-297 624,-297"/>
<text text-anchor="middle" x="671" y="-304" font-family="Helvetica,sans-Serif" font-size="10.00">ccf/kv/version.h</text>
</a>
</g>
</g>
<!-- Node1&#45;&gt;Node21 -->
<g id="edge26" class="edge">
<title>Node1&#45;&gt;Node21</title>
<path fill="none" stroke="midnightblue" d="M552.76,-358.4C579.26,-346.99 616.22,-331.08 641.73,-320.1"/>
<polygon fill="midnightblue" stroke="midnightblue" points="643.44,-323.18 651.24,-316.01 640.67,-316.75 643.44,-323.18"/>
</g>
<!-- Node22 -->
<g id="node22" class="node">
<title>Node22</title>
<g id="a_node22"><a xlink:href="quote__info_8h.html" target="_top" xlink:title=" ">
<polygon fill="white" stroke="black" points="548.5,-230 548.5,-249 643.5,-249 643.5,-230 548.5,-230"/>
<text text-anchor="middle" x="596" y="-237" font-family="Helvetica,sans-Serif" font-size="10.00">ccf/quote_info.h</text>
</a>
</g>
</g>
<!-- Node1&#45;&gt;Node22 -->
<g id="edge27" class="edge">
<title>Node1&#45;&gt;Node22</title>
<path fill="none" stroke="midnightblue" d="M528.13,-358.37C542.12,-334.08 570.7,-284.44 585.93,-258"/>
<polygon fill="midnightblue" stroke="midnightblue" points="589.09,-259.51 591.05,-249.1 583.03,-256.02 589.09,-259.51"/>
</g>
<!-- Node23 -->
<g id="node23" class="node">
<title>Node23</title>
<g id="a_node23"><a xlink:href="node__info__network_8h.html" target="_top" xlink:title=" ">
<polygon fill="white" stroke="black" points="207,-291.5 207,-321.5 327,-321.5 327,-291.5 207,-291.5"/>
<text text-anchor="start" x="215" y="-309.5" font-family="Helvetica,sans-Serif" font-size="10.00">ccf/service/node_info</text>
<text text-anchor="middle" x="267" y="-298.5" font-family="Helvetica,sans-Serif" font-size="10.00">_network.h</text>
</a>
</g>
</g>
<!-- Node1&#45;&gt;Node23 -->
<g id="edge30" class="edge">
<title>Node1&#45;&gt;Node23</title>
<path fill="none" stroke="midnightblue" d="M466.35,-358.72C427,-348.61 373.39,-334.83 331.68,-324.12"/>
<polygon fill="midnightblue" stroke="midnightblue" points="332.44,-320.7 321.89,-321.6 330.7,-327.48 332.44,-320.7"/>
</g>
<!-- Node25 -->
<g id="node25" class="node">
<title>Node25</title>
<g id="a_node25"><a xlink:title=" ">
<polygon fill="white" stroke="#bfbfbf" points="282,-168.5 282,-187.5 338,-187.5 338,-168.5 282,-168.5"/>
<text text-anchor="middle" x="310" y="-175.5" font-family="Helvetica,sans-Serif" font-size="10.00">optional</text>
</a>
</g>
</g>
<!-- Node1&#45;&gt;Node25 -->
<g id="edge40" class="edge">
<title>Node1&#45;&gt;Node25</title>
<path fill="none" stroke="midnightblue" d="M504.56,-358.27C466.18,-322.91 366.7,-231.24 326.86,-194.54"/>
<polygon fill="midnightblue" stroke="midnightblue" points="329.03,-191.78 319.31,-187.58 324.29,-196.93 329.03,-191.78"/>
</g>
<!-- Node2&#45;&gt;Node3 -->
<g id="edge2" class="edge">
<title>Node2&#45;&gt;Node3</title>
<path fill="none" stroke="midnightblue" d="M693.86,-229.98C630.26,-218.71 518.84,-198.98 454.88,-187.66"/>
<polygon fill="midnightblue" stroke="midnightblue" points="455.11,-184.14 444.65,-185.84 453.89,-191.03 455.11,-184.14"/>
</g>
<!-- Node6 -->
<g id="node6" class="node">
<title>Node6</title>
<g id="a_node6"><a xlink:title=" ">
<polygon fill="white" stroke="#bfbfbf" points="376.5,-0.5 376.5,-19.5 423.5,-19.5 423.5,-0.5 376.5,-0.5"/>
<text text-anchor="middle" x="400" y="-7.5" font-family="Helvetica,sans-Serif" font-size="10.00">vector</text>
</a>
</g>
</g>
<!-- Node2&#45;&gt;Node6 -->
<g id="edge24" class="edge">
<title>Node2&#45;&gt;Node6</title>
<path fill="none" stroke="midnightblue" d="M791.22,-232.38C841.59,-223.95 909.08,-205.36 883,-168 829.56,-91.45 534.05,-34.12 433.51,-16.59"/>
<polygon fill="midnightblue" stroke="midnightblue" points="434.03,-13.13 423.58,-14.88 432.84,-20.03 434.03,-13.13"/>
</g>
<!-- Node12 -->
<g id="node12" class="node">
<title>Node12</title>
<g id="a_node12"><a xlink:title=" ">
<polygon fill="white" stroke="#bfbfbf" points="672.5,-0.5 672.5,-19.5 745.5,-19.5 745.5,-0.5 672.5,-0.5"/>
<text text-anchor="middle" x="709" y="-7.5" font-family="Helvetica,sans-Serif" font-size="10.00">string_view</text>
</a>
</g>
</g>
<!-- Node2&#45;&gt;Node12 -->
<g id="edge23" class="edge">
<title>Node2&#45;&gt;Node12</title>
<path fill="none" stroke="midnightblue" d="M791.11,-230.93C837.1,-222.73 900.94,-208.06 916,-188 951.23,-141.09 952.81,-101.68 916,-56 896.27,-31.52 810.56,-19.67 755.8,-14.49"/>
<polygon fill="midnightblue" stroke="midnightblue" points="755.9,-10.99 745.63,-13.57 755.27,-17.96 755.9,-10.99"/>
</g>
<!-- Node17 -->
<g id="node17" class="node">
<title>Node17</title>
<g id="a_node17"><a xlink:title=" ">
<polygon fill="white" stroke="#bfbfbf" points="606,-168.5 606,-187.5 656,-187.5 656,-168.5 606,-168.5"/>
<text text-anchor="middle" x="631" y="-175.5" font-family="Helvetica,sans-Serif" font-size="10.00">cstring</text>
</a>
</g>
</g>
<!-- Node2&#45;&gt;Node17 -->
<g id="edge19" class="edge">
<title>Node2&#45;&gt;Node17</title>
<path fill="none" stroke="midnightblue" d="M726.1,-229.98C707.72,-220.12 677.24,-203.79 655.76,-192.27"/>
<polygon fill="midnightblue" stroke="midnightblue" points="657.34,-189.15 646.87,-187.51 654.03,-195.32 657.34,-189.15"/>
</g>
<!-- Node18 -->
<g id="node18" class="node">
<title>Node18</title>
<g id="a_node18"><a xlink:title=" ">
<polygon fill="white" stroke="#bfbfbf" points="674.5,-168.5 674.5,-187.5 739.5,-187.5 739.5,-168.5 674.5,-168.5"/>
<text text-anchor="middle" x="707" y="-175.5" font-family="Helvetica,sans-Serif" font-size="10.00">exception</text>
</a>
</g>
</g>
<!-- Node2&#45;&gt;Node18 -->
<g id="edge20" class="edge">
<title>Node2&#45;&gt;Node18</title>
<path fill="none" stroke="midnightblue" d="M736.99,-229.98C731.84,-221.23 723.69,-207.37 717.18,-196.31"/>
<polygon fill="midnightblue" stroke="midnightblue" points="720.09,-194.35 712.01,-187.51 714.06,-197.9 720.09,-194.35"/>
</g>
<!-- Node19 -->
<g id="node19" class="node">
<title>Node19</title>
<g id="a_node19"><a xlink:title=" ">
<polygon fill="white" stroke="#bfbfbf" points="758,-168.5 758,-187.5 816,-187.5 816,-168.5 758,-168.5"/>
<text text-anchor="middle" x="787" y="-175.5" font-family="Helvetica,sans-Serif" font-size="10.00">memory</text>
</a>
</g>
</g>
<!-- Node2&#45;&gt;Node19 -->
<g id="edge21" class="edge">
<title>Node2&#45;&gt;Node19</title>
<path fill="none" stroke="midnightblue" d="M748.45,-229.98C755.2,-221.05 765.97,-206.81 774.41,-195.64"/>
<polygon fill="midnightblue" stroke="midnightblue" points="777.32,-197.6 780.56,-187.51 771.74,-193.37 777.32,-197.6"/>
</g>
<!-- Node20 -->
<g id="node20" class="node">
<title>Node20</title>
<g id="a_node20"><a xlink:title=" ">
<polygon fill="white" stroke="#bfbfbf" points="834,-168.5 834,-187.5 874,-187.5 874,-168.5 834,-168.5"/>
<text text-anchor="middle" x="854" y="-175.5" font-family="Helvetica,sans-Serif" font-size="10.00">span</text>
</a>
</g>
</g>
<!-- Node2&#45;&gt;Node20 -->
<g id="edge22" class="edge">
<title>Node2&#45;&gt;Node20</title>
<path fill="none" stroke="midnightblue" d="M758.05,-229.98C776.59,-220.12 807.34,-203.79 829.02,-192.27"/>
<polygon fill="midnightblue" stroke="midnightblue" points="830.79,-195.29 837.98,-187.51 827.51,-189.11 830.79,-195.29"/>
</g>
<!-- Node4 -->
<g id="node4" class="node">
<title>Node4</title>
<g id="a_node4"><a xlink:href="include_2ccf_2crypto_2base64_8h.html" target="_top" xlink:title=" ">
<polygon fill="white" stroke="black" points="66,-56.5 66,-75.5 178,-75.5 178,-56.5 66,-56.5"/>
<text text-anchor="middle" x="122" y="-63.5" font-family="Helvetica,sans-Serif" font-size="10.00">ccf/crypto/base64.h</text>
</a>
</g>
</g>
<!-- Node3&#45;&gt;Node4 -->
<g id="edge3" class="edge">
<title>Node3&#45;&gt;Node4</title>
<path fill="none" stroke="midnightblue" d="M374.41,-168.43C344.96,-160.13 299.99,-146.68 262,-132 221.08,-116.19 175.25,-94.02 147.52,-80.09"/>
<polygon fill="midnightblue" stroke="midnightblue" points="149,-76.92 138.5,-75.53 145.85,-83.17 149,-76.92"/>
</g>
<!-- Node7 -->
<g id="node7" class="node">
<title>Node7</title>
<g id="a_node7"><a xlink:href="include_2ccf_2ds_2json__schema_8h.html" target="_top" xlink:title=" ">
<polygon fill="white" stroke="black" points="345.5,-112.5 345.5,-131.5 466.5,-131.5 466.5,-112.5 345.5,-112.5"/>
<text text-anchor="middle" x="406" y="-119.5" font-family="Helvetica,sans-Serif" font-size="10.00">ccf/ds/json_schema.h</text>
</a>
</g>
</g>
<!-- Node3&#45;&gt;Node7 -->
<g id="edge6" class="edge">
<title>Node3&#45;&gt;Node7</title>
<path fill="none" stroke="midnightblue" d="M406,-168.08C406,-161.01 406,-150.86 406,-141.99"/>
<polygon fill="midnightblue" stroke="midnightblue" points="409.5,-141.75 406,-131.75 402.5,-141.75 409.5,-141.75"/>
</g>
<!-- Node3&#45;&gt;Node14 -->
<g id="edge17" class="edge">
<title>Node3&#45;&gt;Node14</title>
<path fill="none" stroke="midnightblue" d="M424.23,-168.37C439.29,-160.53 460.48,-147.79 475,-132 487.58,-118.32 497.14,-99.27 503.06,-85.34"/>
<polygon fill="midnightblue" stroke="midnightblue" points="506.4,-86.43 506.87,-75.85 499.9,-83.82 506.4,-86.43"/>
</g>
<!-- Node16 -->
<g id="node16" class="node">
<title>Node16</title>
<g id="a_node16"><a xlink:title=" ">
<polygon fill="white" stroke="#bfbfbf" points="271,-112.5 271,-131.5 327,-131.5 327,-112.5 271,-112.5"/>
<text text-anchor="middle" x="299" y="-119.5" font-family="Helvetica,sans-Serif" font-size="10.00">sstream</text>
</a>
</g>
</g>
<!-- Node3&#45;&gt;Node16 -->
<g id="edge18" class="edge">
<title>Node3&#45;&gt;Node16</title>
<path fill="none" stroke="midnightblue" d="M388.81,-168.32C371.65,-159.66 345.05,-146.24 325.25,-136.25"/>
<polygon fill="midnightblue" stroke="midnightblue" points="326.65,-133.04 316.15,-131.65 323.5,-139.28 326.65,-133.04"/>
</g>
<!-- Node5 -->
<g id="node5" class="node">
<title>Node5</title>
<g id="a_node5"><a xlink:title=" ">
<polygon fill="white" stroke="#bfbfbf" points="17,-0.5 17,-19.5 61,-19.5 61,-0.5 17,-0.5"/>
<text text-anchor="middle" x="39" y="-7.5" font-family="Helvetica,sans-Serif" font-size="10.00">string</text>
</a>
</g>
</g>
<!-- Node4&#45;&gt;Node5 -->
<g id="edge4" class="edge">
<title>Node4&#45;&gt;Node5</title>
<path fill="none" stroke="midnightblue" d="M108.66,-56.32C95.84,-47.98 76.22,-35.21 61.06,-25.35"/>
<polygon fill="midnightblue" stroke="midnightblue" points="62.59,-22.17 52.3,-19.65 58.78,-28.04 62.59,-22.17"/>
</g>
<!-- Node4&#45;&gt;Node6 -->
<g id="edge5" class="edge">
<title>Node4&#45;&gt;Node6</title>
<path fill="none" stroke="midnightblue" d="M175.8,-56.47C223.38,-48.61 294.86,-36.08 366.2,-20.02"/>
<polygon fill="midnightblue" stroke="midnightblue" points="367.29,-23.36 376.27,-17.73 365.74,-16.54 367.29,-23.36"/>
</g>
<!-- Node8 -->
<g id="node8" class="node">
<title>Node8</title>
<g id="a_node8"><a xlink:href="nonstd_8h.html" target="_top" xlink:title=" ">
<polygon fill="white" stroke="black" points="196,-56.5 196,-75.5 286,-75.5 286,-56.5 196,-56.5"/>
<text text-anchor="middle" x="241" y="-63.5" font-family="Helvetica,sans-Serif" font-size="10.00">ccf/ds/nonstd.h</text>
</a>
</g>
</g>
<!-- Node7&#45;&gt;Node8 -->
<g id="edge7" class="edge">
<title>Node7&#45;&gt;Node8</title>
<path fill="none" stroke="midnightblue" d="M379.86,-112.44C351.98,-103.32 307.65,-88.81 276.6,-78.65"/>
<polygon fill="midnightblue" stroke="midnightblue" points="277.62,-75.3 267.02,-75.52 275.44,-81.95 277.62,-75.3"/>
</g>
<!-- Node7&#45;&gt;Node14 -->
<g id="edge15" class="edge">
<title>Node7&#45;&gt;Node14</title>
<path fill="none" stroke="midnightblue" d="M422.71,-112.32C439.31,-103.7 465,-90.36 484.22,-80.39"/>
<polygon fill="midnightblue" stroke="midnightblue" points="486.07,-83.37 493.33,-75.65 482.84,-77.16 486.07,-83.37"/>
</g>
<!-- Node15 -->
<g id="node15" class="node">
<title>Node15</title>
<g id="a_node15"><a xlink:title=" ">
<polygon fill="white" stroke="#bfbfbf" points="342,-56.5 342,-75.5 452,-75.5 452,-56.5 342,-56.5"/>
<text text-anchor="middle" x="397" y="-63.5" font-family="Helvetica,sans-Serif" font-size="10.00">nlohmann/json.hpp</text>
</a>
</g>
</g>
<!-- Node7&#45;&gt;Node15 -->
<g id="edge16" class="edge">
<title>Node7&#45;&gt;Node15</title>
<path fill="none" stroke="midnightblue" d="M404.51,-112.08C403.32,-104.93 401.61,-94.64 400.12,-85.69"/>
<polygon fill="midnightblue" stroke="midnightblue" points="403.55,-85.04 398.46,-75.75 396.65,-86.19 403.55,-85.04"/>
</g>
<!-- Node8&#45;&gt;Node5 -->
<g id="edge11" class="edge">
<title>Node8&#45;&gt;Node5</title>
<path fill="none" stroke="midnightblue" d="M207.51,-56.45C175.01,-48.1 124.05,-34.85 71.22,-20.29"/>
<polygon fill="midnightblue" stroke="midnightblue" points="71.9,-16.85 61.33,-17.56 70.04,-23.6 71.9,-16.85"/>
</g>
<!-- Node8&#45;&gt;Node6 -->
<g id="edge14" class="edge">
<title>Node8&#45;&gt;Node6</title>
<path fill="none" stroke="midnightblue" d="M266.19,-56.44C293.41,-47.2 336.91,-32.43 366.88,-22.25"/>
<polygon fill="midnightblue" stroke="midnightblue" points="368.14,-25.52 376.48,-18.99 365.88,-18.89 368.14,-25.52"/>
</g>
<!-- Node9 -->
<g id="node9" class="node">
<title>Node9</title>
<g id="a_node9"><a xlink:title=" ">
<polygon fill="white" stroke="#bfbfbf" points="294,-0.5 294,-19.5 358,-19.5 358,-0.5 294,-0.5"/>
<text text-anchor="middle" x="326" y="-7.5" font-family="Helvetica,sans-Serif" font-size="10.00">algorithm</text>
</a>
</g>
</g>
<!-- Node8&#45;&gt;Node9 -->
<g id="edge8" class="edge">
<title>Node8&#45;&gt;Node9</title>
<path fill="none" stroke="midnightblue" d="M254.66,-56.32C267.92,-47.9 288.27,-34.97 303.85,-25.07"/>
<polygon fill="midnightblue" stroke="midnightblue" points="305.81,-27.97 312.38,-19.65 302.06,-22.06 305.81,-27.97"/>
</g>
<!-- Node10 -->
<g id="node10" class="node">
<title>Node10</title>
<g id="a_node10"><a xlink:title=" ">
<polygon fill="white" stroke="#bfbfbf" points="79,-0.5 79,-19.5 121,-19.5 121,-0.5 79,-0.5"/>
<text text-anchor="middle" x="100" y="-7.5" font-family="Helvetica,sans-Serif" font-size="10.00">array</text>
</a>
</g>
</g>
<!-- Node8&#45;&gt;Node10 -->
<g id="edge9" class="edge">
<title>Node8&#45;&gt;Node10</title>
<path fill="none" stroke="midnightblue" d="M218.66,-56.44C194.97,-47.37 157.39,-32.98 130.88,-22.83"/>
<polygon fill="midnightblue" stroke="midnightblue" points="131.9,-19.47 121.31,-19.16 129.4,-26.01 131.9,-19.47"/>
</g>
<!-- Node11 -->
<g id="node11" class="node">
<title>Node11</title>
<g id="a_node11"><a xlink:title=" ">
<polygon fill="white" stroke="#bfbfbf" points="139.5,-0.5 139.5,-19.5 188.5,-19.5 188.5,-0.5 139.5,-0.5"/>
<text text-anchor="middle" x="164" y="-7.5" font-family="Helvetica,sans-Serif" font-size="10.00">cctype</text>
</a>
</g>
</g>
<!-- Node8&#45;&gt;Node11 -->
<g id="edge10" class="edge">
<title>Node8&#45;&gt;Node11</title>
<path fill="none" stroke="midnightblue" d="M228.63,-56.32C216.84,-48.06 198.87,-35.45 184.86,-25.63"/>
<polygon fill="midnightblue" stroke="midnightblue" points="186.54,-22.53 176.34,-19.65 182.52,-28.26 186.54,-22.53"/>
</g>
<!-- Node8&#45;&gt;Node12 -->
<g id="edge12" class="edge">
<title>Node8&#45;&gt;Node12</title>
<path fill="none" stroke="midnightblue" d="M286.3,-59.77C375.22,-49.51 571.81,-26.83 662.05,-16.42"/>
<polygon fill="midnightblue" stroke="midnightblue" points="662.72,-19.86 672.25,-15.24 661.92,-12.91 662.72,-19.86"/>
</g>
<!-- Node13 -->
<g id="node13" class="node">
<title>Node13</title>
<g id="a_node13"><a xlink:title=" ">
<polygon fill="white" stroke="#bfbfbf" points="206.5,-0.5 206.5,-19.5 275.5,-19.5 275.5,-0.5 206.5,-0.5"/>
<text text-anchor="middle" x="241" y="-7.5" font-family="Helvetica,sans-Serif" font-size="10.00">type_traits</text>
</a>
</g>
</g>
<!-- Node8&#45;&gt;Node13 -->
<g id="edge13" class="edge">
<title>Node8&#45;&gt;Node13</title>
<path fill="none" stroke="midnightblue" d="M241,-56.08C241,-49.01 241,-38.86 241,-29.99"/>
<polygon fill="midnightblue" stroke="midnightblue" points="244.5,-29.75 241,-19.75 237.5,-29.75 244.5,-29.75"/>
</g>
<!-- Node22&#45;&gt;Node3 -->
<g id="edge28" class="edge">
<title>Node22&#45;&gt;Node3</title>
<path fill="none" stroke="midnightblue" d="M568.78,-229.98C535.76,-219.64 479.96,-202.16 443.05,-190.6"/>
<polygon fill="midnightblue" stroke="midnightblue" points="443.76,-187.16 433.17,-187.51 441.67,-193.84 443.76,-187.16"/>
</g>
<!-- Node22&#45;&gt;Node6 -->
<g id="edge29" class="edge">
<title>Node22&#45;&gt;Node6</title>
<path fill="none" stroke="midnightblue" d="M595.36,-229.79C592.79,-197.06 582.14,-81.95 558,-56 526,-21.6 469.75,-12.84 433.72,-10.96"/>
<polygon fill="midnightblue" stroke="midnightblue" points="433.81,-7.46 423.68,-10.59 433.55,-14.46 433.81,-7.46"/>
</g>
<!-- Node23&#45;&gt;Node3 -->
<g id="edge31" class="edge">
<title>Node23&#45;&gt;Node3</title>
<path fill="none" stroke="midnightblue" d="M291.17,-291.29C306.23,-281.9 325.6,-268.81 341,-255 361.5,-236.61 381.55,-211.83 393.84,-195.64"/>
<polygon fill="midnightblue" stroke="midnightblue" points="396.65,-197.73 399.82,-187.63 391.04,-193.55 396.65,-197.73"/>
</g>
<!-- Node23&#45;&gt;Node5 -->
<g id="edge38" class="edge">
<title>Node23&#45;&gt;Node5</title>
<path fill="none" stroke="midnightblue" d="M206.75,-302.76C128,-295.58 0,-269.92 0,-179 0,-179 0,-179 0,-121 0,-86.72 17.04,-49.7 28.59,-28.54"/>
<polygon fill="midnightblue" stroke="midnightblue" points="31.69,-30.17 33.58,-19.75 25.6,-26.72 31.69,-30.17"/>
</g>
<!-- Node23&#45;&gt;Node8 -->
<g id="edge32" class="edge">
<title>Node23&#45;&gt;Node8</title>
<path fill="none" stroke="midnightblue" d="M232.31,-291.34C217.04,-283.15 200.63,-271.21 192,-255 161.15,-197.03 205.56,-118.5 228.61,-84.21"/>
<polygon fill="midnightblue" stroke="midnightblue" points="231.64,-85.98 234.46,-75.76 225.89,-81.99 231.64,-85.98"/>
</g>
<!-- Node24 -->
<g id="node24" class="node">
<title>Node24</title>
<g id="a_node24"><a xlink:href="acme__client__config_8h.html" target="_top" xlink:title=" ">
<polygon fill="white" stroke="black" points="201.5,-224.5 201.5,-254.5 332.5,-254.5 332.5,-224.5 201.5,-224.5"/>
<text text-anchor="start" x="209.5" y="-242.5" font-family="Helvetica,sans-Serif" font-size="10.00">ccf/service/acme_client</text>
<text text-anchor="middle" x="267" y="-231.5" font-family="Helvetica,sans-Serif" font-size="10.00">_config.h</text>
</a>
</g>
</g>
<!-- Node23&#45;&gt;Node24 -->
<g id="edge33" class="edge">
<title>Node23&#45;&gt;Node24</title>
<path fill="none" stroke="midnightblue" d="M267,-291.4C267,-283.64 267,-273.81 267,-264.86"/>
<polygon fill="midnightblue" stroke="midnightblue" points="270.5,-264.58 267,-254.58 263.5,-264.58 270.5,-264.58"/>
</g>
<!-- Node24&#45;&gt;Node3 -->
<g id="edge34" class="edge">
<title>Node24&#45;&gt;Node3</title>
<path fill="none" stroke="midnightblue" d="M299.94,-224.4C323.16,-214.46 353.99,-201.26 376.42,-191.66"/>
<polygon fill="midnightblue" stroke="midnightblue" points="377.96,-194.81 385.77,-187.66 375.2,-188.38 377.96,-194.81"/>
</g>
<!-- Node24&#45;&gt;Node5 -->
<g id="edge36" class="edge">
<title>Node24&#45;&gt;Node5</title>
<path fill="none" stroke="midnightblue" d="M238.84,-224.47C193.51,-200.43 104.66,-147 57,-76 47.72,-62.18 43.2,-43.66 41.01,-29.92"/>
<polygon fill="midnightblue" stroke="midnightblue" points="44.44,-29.18 39.67,-19.72 37.5,-30.09 44.44,-29.18"/>
</g>
<!-- Node24&#45;&gt;Node6 -->
<g id="edge37" class="edge">
<title>Node24&#45;&gt;Node6</title>
<path fill="none" stroke="midnightblue" d="M262.31,-224.34C255.12,-199.97 243.97,-149.18 262,-112 273.89,-87.48 339.7,-46.18 375.98,-24.78"/>
<polygon fill="midnightblue" stroke="midnightblue" points="378.07,-27.62 384.94,-19.55 374.54,-21.57 378.07,-27.62"/>
</g>
<!-- Node24&#45;&gt;Node25 -->
<g id="edge35" class="edge">
<title>Node24&#45;&gt;Node25</title>
<path fill="none" stroke="midnightblue" d="M277.19,-224.4C283.37,-215.84 291.3,-204.87 297.82,-195.86"/>
<polygon fill="midnightblue" stroke="midnightblue" points="300.72,-197.81 303.74,-187.66 295.05,-193.71 300.72,-197.81"/>
</g>
</g>
</svg>
        <g id="navigator" transform="translate(0 0)" fill="#404254">
                <rect fill="#f2f5e9" fill-opacity="0.5" stroke="#606060" stroke-width=".5" x="0" y="0" width="60" height="60"/>
                <use id="zoomplus" xlink:href="#zoomPlus" x="17" y="9" onmousedown="handleZoom(evt,'in')"/>
                <use id="zoomminus" xlink:href="#zoomMin" x="42" y="9" onmousedown="handleZoom(evt,'out')"/>
                <use id="reset" xlink:href="#resetDef" x="30" y="36" onmousedown="handleReset()"/>
                <g id="arrowUp" xlink:href="#dirArrow" transform="translate(30 24)" onmousedown="handlePan(0,-1)">
                  <use xlink:href="#rim" fill="#404040">
                        <set attributeName="fill" to="#808080" begin="arrowUp.mouseover" end="arrowUp.mouseout"/>
                  </use>
                  <path fill="none" stroke="white" stroke-width="1.5" d="M0,-3.0v7 M-2.5,-0.5L0,-3.0L2.5,-0.5"/>
                </g>
                <g id="arrowRight" xlink:href="#dirArrow" transform="rotate(90) translate(36 -43)" onmousedown="handlePan(1,0)">
                  <use xlink:href="#rim" fill="#404040">
                        <set attributeName="fill" to="#808080" begin="arrowRight.mouseover" end="arrowRight.mouseout"/>
                  </use>
                  <path fill="none" stroke="white" stroke-width="1.5" d="M0,-3.0v7 M-2.5,-0.5L0,-3.0L2.5,-0.5"/>
                </g>
                <g id="arrowDown" xlink:href="#dirArrow" transform="rotate(180) translate(-30 -48)" onmousedown="handlePan(0,1)">
                  <use xlink:href="#rim" fill="#404040">
                        <set attributeName="fill" to="#808080" begin="arrowDown.mouseover" end="arrowDown.mouseout"/>
                  </use>
                  <path fill="none" stroke="white" stroke-width="1.5" d="M0,-3.0v7 M-2.5,-0.5L0,-3.0L2.5,-0.5"/>
                </g>
                <g id="arrowLeft" xlink:href="#dirArrow" transform="rotate(270) translate(-36 17)" onmousedown="handlePan(-1,0)">
                  <use xlink:href="#rim" fill="#404040">
                        <set attributeName="fill" to="#808080" begin="arrowLeft.mouseover" end="arrowLeft.mouseout"/>
                  </use>
                  <path fill="none" stroke="white" stroke-width="1.5" d="M0,-3.0v7 M-2.5,-0.5L0,-3.0L2.5,-0.5"/>
                </g>
        </g>
        <svg viewBox="0 0 15 15" width="100%" height="30px" preserveAspectRatio="xMaxYMin meet">
         <g id="arrow_out" transform="scale(0.3 0.3)">
          <a xlink:href="node__info_8h__incl_org.svg" target="_base">
           <rect id="button" ry="5" rx="5" y="6" x="6" height="38" width="38"
                fill="#f2f5e9" fill-opacity="0.5" stroke="#606060" stroke-width="1.0"/>
           <path id="arrow"
             d="M 11.500037,31.436501 C 11.940474,20.09759 22.043105,11.32322 32.158766,21.979434 L 37.068811,17.246167 C 37.068811,17.246167 37.088388,32 37.088388,32 L 22.160133,31.978069 C 22.160133,31.978069 26.997745,27.140456 26.997745,27.140456 C 18.528582,18.264221 13.291696,25.230495 11.500037,31.436501 z"
             style="fill:#404040;"/>
          </a>
         </g>
        </svg>
</svg>
