<?xml version="1.0" encoding="UTF-8" standalone="no"?>
<!DOCTYPE svg PUBLIC "-//W3C//DTD SVG 1.1//EN"
 "http://www.w3.org/Graphics/SVG/1.1/DTD/svg11.dtd">
<!-- Generated by graphviz version 2.43.0 (0)
 -->
<!-- Title: include/ccf/ds/openapi.h Pages: 1 -->
<!--zoomable 252 -->
<svg id="main" version="1.1" xmlns="http://www.w3.org/2000/svg" xmlns:xlink="http://www.w3.org/1999/xlink" xml:space="preserve" onload="init(evt)">
<style type="text/css"><![CDATA[
.edge:hover path { stroke: red; }
.edge:hover polygon { stroke: red; fill: red; }
]]></style>
<script type="text/javascript"><![CDATA[
var edges = document.getElementsByTagName('g');
if (edges && edges.length) {
  for (var i=0;i<edges.length;i++) {
    if (edges[i].id.substr(0,4)=='edge') {
      edges[i].setAttribute('class','edge');
    }
  }
}
]]></script>
        <defs>
                <circle id="rim" cx="0" cy="0" r="7"/>
                <circle id="rim2" cx="0" cy="0" r="3.5"/>
                <g id="zoomPlus">
                        <use xlink:href="#rim" fill="#404040">
                                <set attributeName="fill" to="#808080" begin="zoomplus.mouseover" end="zoomplus.mouseout"/>
                        </use>
                        <path d="M-4,0h8M0,-4v8" fill="none" stroke="white" stroke-width="1.5" pointer-events="none"/>
                </g>
                <g id="zoomMin">
                        <use xlink:href="#rim" fill="#404040">
                                <set attributeName="fill" to="#808080" begin="zoomminus.mouseover" end="zoomminus.mouseout"/>
                        </use>
                        <path d="M-4,0h8" fill="none" stroke="white" stroke-width="1.5" pointer-events="none"/>
                </g>
                <g id="dirArrow">
                        <path fill="none" stroke="white" stroke-width="1.5" d="M0,-3.0v7 M-2.5,-0.5L0,-3.0L2.5,-0.5"/>
                </g>
               <g id="resetDef">
                       <use xlink:href="#rim2" fill="#404040">
                               <set attributeName="fill" to="#808080" begin="reset.mouseover" end="reset.mouseout"/>
                       </use>
               </g>
        </defs>

<script type="text/javascript">
var viewWidth = 785;
var viewHeight = 252;
var sectionId = 'dynsection-0';
</script>
<script xlink:href="svgpan.js"/>
<svg id="graph" class="graph">
<g id="viewport">
<title>include/ccf/ds/openapi.h</title>
<polygon fill="white" stroke="transparent" points="-4,4 -4,-248 780.83,-248 780.83,4 -4,4"/>
<!-- Node1 -->
<g id="node1" class="node">
<title>Node1</title>
<g id="a_node1"><a xlink:title=" ">
<polygon fill="#bfbfbf" stroke="black" points="344.83,-224.5 344.83,-243.5 478.83,-243.5 478.83,-224.5 344.83,-224.5"/>
<text text-anchor="middle" x="411.83" y="-231.5" font-family="Helvetica,sans-Serif" font-size="10.00">include/ccf/ds/openapi.h</text>
</a>
</g>
</g>
<!-- Node2 -->
<g id="node2" class="node">
<title>Node2</title>
<g id="a_node2"><a xlink:href="json_8h.html" target="_top" xlink:title=" ">
<polygon fill="white" stroke="black" points="118.33,-168.5 118.33,-187.5 195.33,-187.5 195.33,-168.5 118.33,-168.5"/>
<text text-anchor="middle" x="156.83" y="-175.5" font-family="Helvetica,sans-Serif" font-size="10.00">ccf/ds/json.h</text>
</a>
</g>
</g>
<!-- Node1&#45;&gt;Node2 -->
<g id="edge1" class="edge">
<title>Node1&#45;&gt;Node2</title>
<path fill="none" stroke="midnightblue" d="M371.42,-224.44C326.32,-214.89 253.37,-199.44 205.25,-189.25"/>
<polygon fill="midnightblue" stroke="midnightblue" points="205.89,-185.81 195.38,-187.16 204.43,-192.66 205.89,-185.81"/>
</g>
<!-- Node4 -->
<g id="node4" class="node">
<title>Node4</title>
<g id="a_node4"><a xlink:title=" ">
<polygon fill="white" stroke="#bfbfbf" points="12.83,-0.5 12.83,-19.5 56.83,-19.5 56.83,-0.5 12.83,-0.5"/>
<text text-anchor="middle" x="34.83" y="-7.5" font-family="Helvetica,sans-Serif" font-size="10.00">string</text>
</a>
</g>
</g>
<!-- Node1&#45;&gt;Node4 -->
<g id="edge24" class="edge">
<title>Node1&#45;&gt;Node4</title>
<path fill="none" stroke="midnightblue" d="M344.65,-231.52C281.76,-228.18 186.16,-218.04 108.83,-188 44.66,-163.07 15.67,-143.44 1.83,-76 0.04,-67.29 -0.94,-64.45 1.83,-56 5.32,-45.34 12.4,-35.12 19.12,-27.12"/>
<polygon fill="midnightblue" stroke="midnightblue" points="21.73,-29.44 25.81,-19.66 16.53,-24.76 21.73,-29.44"/>
</g>
<!-- Node7 -->
<g id="node7" class="node">
<title>Node7</title>
<g id="a_node7"><a xlink:href="nonstd_8h.html" target="_top" xlink:title=" ">
<polygon fill="white" stroke="black" points="238.83,-56.5 238.83,-75.5 328.83,-75.5 328.83,-56.5 238.83,-56.5"/>
<text text-anchor="middle" x="283.83" y="-63.5" font-family="Helvetica,sans-Serif" font-size="10.00">ccf/ds/nonstd.h</text>
</a>
</g>
</g>
<!-- Node1&#45;&gt;Node7 -->
<g id="edge18" class="edge">
<title>Node1&#45;&gt;Node7</title>
<path fill="none" stroke="midnightblue" d="M404.95,-224.08C384.45,-197.49 323.57,-118.54 296.76,-83.76"/>
<polygon fill="midnightblue" stroke="midnightblue" points="299.31,-81.35 290.44,-75.57 293.77,-85.62 299.31,-81.35"/>
</g>
<!-- Node14 -->
<g id="node14" class="node">
<title>Node14</title>
<g id="a_node14"><a xlink:title=" ">
<polygon fill="white" stroke="#bfbfbf" points="346.83,-56.5 346.83,-75.5 456.83,-75.5 456.83,-56.5 346.83,-56.5"/>
<text text-anchor="middle" x="401.83" y="-63.5" font-family="Helvetica,sans-Serif" font-size="10.00">nlohmann/json.hpp</text>
</a>
</g>
</g>
<!-- Node1&#45;&gt;Node14 -->
<g id="edge22" class="edge">
<title>Node1&#45;&gt;Node14</title>
<path fill="none" stroke="midnightblue" d="M406.7,-224.41C401.77,-215.61 394.67,-201.38 391.83,-188 384.24,-152.22 391.53,-109.35 397.02,-85.45"/>
<polygon fill="midnightblue" stroke="midnightblue" points="400.45,-86.16 399.43,-75.62 393.65,-84.5 400.45,-86.16"/>
</g>
<!-- Node16 -->
<g id="node16" class="node">
<title>Node16</title>
<g id="a_node16"><a xlink:href="http__consts_8h.html" target="_top" xlink:title=" ">
<polygon fill="white" stroke="black" points="401.33,-168.5 401.33,-187.5 500.33,-187.5 500.33,-168.5 401.33,-168.5"/>
<text text-anchor="middle" x="450.83" y="-175.5" font-family="Helvetica,sans-Serif" font-size="10.00">ccf/http_consts.h</text>
</a>
</g>
</g>
<!-- Node1&#45;&gt;Node16 -->
<g id="edge19" class="edge">
<title>Node1&#45;&gt;Node16</title>
<path fill="none" stroke="midnightblue" d="M418.27,-224.08C423.78,-216.46 431.86,-205.26 438.59,-195.94"/>
<polygon fill="midnightblue" stroke="midnightblue" points="441.49,-197.91 444.51,-187.75 435.82,-193.81 441.49,-197.91"/>
</g>
<!-- Node17 -->
<g id="node17" class="node">
<title>Node17</title>
<g id="a_node17"><a xlink:href="http__status_8h.html" target="_top" xlink:title=" ">
<polygon fill="white" stroke="black" points="518.83,-168.5 518.83,-187.5 616.83,-187.5 616.83,-168.5 518.83,-168.5"/>
<text text-anchor="middle" x="567.83" y="-175.5" font-family="Helvetica,sans-Serif" font-size="10.00">ccf/http_status.h</text>
</a>
</g>
</g>
<!-- Node1&#45;&gt;Node17 -->
<g id="edge20" class="edge">
<title>Node1&#45;&gt;Node17</title>
<path fill="none" stroke="midnightblue" d="M436.55,-224.44C462.68,-215.4 504.09,-201.06 533.41,-190.92"/>
<polygon fill="midnightblue" stroke="midnightblue" points="534.92,-194.1 543.23,-187.52 532.63,-187.48 534.92,-194.1"/>
</g>
<!-- Node18 -->
<g id="node18" class="node">
<title>Node18</title>
<g id="a_node18"><a xlink:title=" ">
<polygon fill="white" stroke="#bfbfbf" points="634.83,-168.5 634.83,-187.5 714.83,-187.5 714.83,-168.5 634.83,-168.5"/>
<text text-anchor="middle" x="674.83" y="-175.5" font-family="Helvetica,sans-Serif" font-size="10.00">llhttp/llhttp.h</text>
</a>
</g>
</g>
<!-- Node1&#45;&gt;Node18 -->
<g id="edge21" class="edge">
<title>Node1&#45;&gt;Node18</title>
<path fill="none" stroke="midnightblue" d="M453.5,-224.44C499.98,-214.9 575.14,-199.47 624.77,-189.28"/>
<polygon fill="midnightblue" stroke="midnightblue" points="625.55,-192.69 634.65,-187.25 624.15,-185.83 625.55,-192.69"/>
</g>
<!-- Node19 -->
<g id="node19" class="node">
<title>Node19</title>
<g id="a_node19"><a xlink:title=" ">
<polygon fill="white" stroke="#bfbfbf" points="732.83,-168.5 732.83,-187.5 776.83,-187.5 776.83,-168.5 732.83,-168.5"/>
<text text-anchor="middle" x="754.83" y="-175.5" font-family="Helvetica,sans-Serif" font-size="10.00">regex</text>
</a>
</g>
</g>
<!-- Node1&#45;&gt;Node19 -->
<g id="edge23" class="edge">
<title>Node1&#45;&gt;Node19</title>
<path fill="none" stroke="midnightblue" d="M478.95,-226.06C540.17,-219.1 633.23,-206.98 722.55,-188.02"/>
<polygon fill="midnightblue" stroke="midnightblue" points="723.54,-191.39 732.57,-185.86 722.06,-184.55 723.54,-191.39"/>
</g>
<!-- Node3 -->
<g id="node3" class="node">
<title>Node3</title>
<g id="a_node3"><a xlink:href="include_2ccf_2crypto_2base64_8h.html" target="_top" xlink:title=" ">
<polygon fill="white" stroke="black" points="10.83,-56.5 10.83,-75.5 122.83,-75.5 122.83,-56.5 10.83,-56.5"/>
<text text-anchor="middle" x="66.83" y="-63.5" font-family="Helvetica,sans-Serif" font-size="10.00">ccf/crypto/base64.h</text>
</a>
</g>
</g>
<!-- Node2&#45;&gt;Node3 -->
<g id="edge2" class="edge">
<title>Node2&#45;&gt;Node3</title>
<path fill="none" stroke="midnightblue" d="M149.77,-168.37C134.78,-150.05 99.6,-107.05 80.22,-83.36"/>
<polygon fill="midnightblue" stroke="midnightblue" points="82.9,-81.11 73.86,-75.59 77.48,-85.55 82.9,-81.11"/>
</g>
<!-- Node6 -->
<g id="node6" class="node">
<title>Node6</title>
<g id="a_node6"><a xlink:href="include_2ccf_2ds_2json__schema_8h.html" target="_top" xlink:title=" ">
<polygon fill="white" stroke="black" points="185.33,-112.5 185.33,-131.5 306.33,-131.5 306.33,-112.5 185.33,-112.5"/>
<text text-anchor="middle" x="245.83" y="-119.5" font-family="Helvetica,sans-Serif" font-size="10.00">ccf/ds/json_schema.h</text>
</a>
</g>
</g>
<!-- Node2&#45;&gt;Node6 -->
<g id="edge5" class="edge">
<title>Node2&#45;&gt;Node6</title>
<path fill="none" stroke="midnightblue" d="M171.13,-168.32C185.01,-159.9 206.32,-146.97 222.63,-137.07"/>
<polygon fill="midnightblue" stroke="midnightblue" points="224.83,-139.83 231.57,-131.65 221.2,-133.85 224.83,-139.83"/>
</g>
<!-- Node13 -->
<g id="node13" class="node">
<title>Node13</title>
<g id="a_node13"><a xlink:title=" ">
<polygon fill="white" stroke="#bfbfbf" points="141.33,-56.5 141.33,-75.5 220.33,-75.5 220.33,-56.5 141.33,-56.5"/>
<text text-anchor="middle" x="180.83" y="-63.5" font-family="Helvetica,sans-Serif" font-size="10.00">fmt/format.h</text>
</a>
</g>
</g>
<!-- Node2&#45;&gt;Node13 -->
<g id="edge16" class="edge">
<title>Node2&#45;&gt;Node13</title>
<path fill="none" stroke="midnightblue" d="M158.71,-168.37C162.59,-150.62 171.52,-109.67 176.77,-85.6"/>
<polygon fill="midnightblue" stroke="midnightblue" points="180.24,-86.11 178.96,-75.59 173.4,-84.62 180.24,-86.11"/>
</g>
<!-- Node15 -->
<g id="node15" class="node">
<title>Node15</title>
<g id="a_node15"><a xlink:title=" ">
<polygon fill="white" stroke="#bfbfbf" points="34.83,-112.5 34.83,-131.5 90.83,-131.5 90.83,-112.5 34.83,-112.5"/>
<text text-anchor="middle" x="62.83" y="-119.5" font-family="Helvetica,sans-Serif" font-size="10.00">sstream</text>
</a>
</g>
</g>
<!-- Node2&#45;&gt;Node15 -->
<g id="edge17" class="edge">
<title>Node2&#45;&gt;Node15</title>
<path fill="none" stroke="midnightblue" d="M141.73,-168.32C126.93,-159.82 104.14,-146.73 86.85,-136.8"/>
<polygon fill="midnightblue" stroke="midnightblue" points="88.31,-133.6 77.89,-131.65 84.82,-139.67 88.31,-133.6"/>
</g>
<!-- Node3&#45;&gt;Node4 -->
<g id="edge3" class="edge">
<title>Node3&#45;&gt;Node4</title>
<path fill="none" stroke="midnightblue" d="M61.55,-56.08C57.12,-48.61 50.67,-37.72 45.21,-28.52"/>
<polygon fill="midnightblue" stroke="midnightblue" points="48.12,-26.57 40.02,-19.75 42.1,-30.14 48.12,-26.57"/>
</g>
<!-- Node5 -->
<g id="node5" class="node">
<title>Node5</title>
<g id="a_node5"><a xlink:title=" ">
<polygon fill="white" stroke="#bfbfbf" points="75.33,-0.5 75.33,-19.5 122.33,-19.5 122.33,-0.5 75.33,-0.5"/>
<text text-anchor="middle" x="98.83" y="-7.5" font-family="Helvetica,sans-Serif" font-size="10.00">vector</text>
</a>
</g>
</g>
<!-- Node3&#45;&gt;Node5 -->
<g id="edge4" class="edge">
<title>Node3&#45;&gt;Node5</title>
<path fill="none" stroke="midnightblue" d="M72.11,-56.08C76.54,-48.61 82.99,-37.72 88.45,-28.52"/>
<polygon fill="midnightblue" stroke="midnightblue" points="91.56,-30.14 93.64,-19.75 85.53,-26.57 91.56,-30.14"/>
</g>
<!-- Node6&#45;&gt;Node7 -->
<g id="edge6" class="edge">
<title>Node6&#45;&gt;Node7</title>
<path fill="none" stroke="midnightblue" d="M252.1,-112.08C257.47,-104.46 265.35,-93.26 271.91,-83.94"/>
<polygon fill="midnightblue" stroke="midnightblue" points="274.78,-85.94 277.67,-75.75 269.05,-81.91 274.78,-85.94"/>
</g>
<!-- Node6&#45;&gt;Node13 -->
<g id="edge14" class="edge">
<title>Node6&#45;&gt;Node13</title>
<path fill="none" stroke="midnightblue" d="M235.39,-112.32C225.68,-104.26 211.01,-92.08 199.33,-82.37"/>
<polygon fill="midnightblue" stroke="midnightblue" points="201.39,-79.53 191.46,-75.83 196.92,-84.92 201.39,-79.53"/>
</g>
<!-- Node6&#45;&gt;Node14 -->
<g id="edge15" class="edge">
<title>Node6&#45;&gt;Node14</title>
<path fill="none" stroke="midnightblue" d="M270.55,-112.44C296.68,-103.4 338.09,-89.06 367.41,-78.92"/>
<polygon fill="midnightblue" stroke="midnightblue" points="368.92,-82.1 377.23,-75.52 366.63,-75.48 368.92,-82.1"/>
</g>
<!-- Node7&#45;&gt;Node4 -->
<g id="edge10" class="edge">
<title>Node7&#45;&gt;Node4</title>
<path fill="none" stroke="midnightblue" d="M238.5,-56.73C196.41,-48.8 131.79,-36.02 67.09,-20.17"/>
<polygon fill="midnightblue" stroke="midnightblue" points="67.67,-16.71 57.12,-17.7 65.99,-23.5 67.67,-16.71"/>
</g>
<!-- Node7&#45;&gt;Node5 -->
<g id="edge13" class="edge">
<title>Node7&#45;&gt;Node5</title>
<path fill="none" stroke="midnightblue" d="M254.52,-56.44C221.23,-46.73 167.02,-30.9 132.15,-20.73"/>
<polygon fill="midnightblue" stroke="midnightblue" points="133.01,-17.33 122.43,-17.89 131.05,-24.05 133.01,-17.33"/>
</g>
<!-- Node8 -->
<g id="node8" class="node">
<title>Node8</title>
<g id="a_node8"><a xlink:title=" ">
<polygon fill="white" stroke="#bfbfbf" points="385.83,-0.5 385.83,-19.5 449.83,-19.5 449.83,-0.5 385.83,-0.5"/>
<text text-anchor="middle" x="417.83" y="-7.5" font-family="Helvetica,sans-Serif" font-size="10.00">algorithm</text>
</a>
</g>
</g>
<!-- Node7&#45;&gt;Node8 -->
<g id="edge7" class="edge">
<title>Node7&#45;&gt;Node8</title>
<path fill="none" stroke="midnightblue" d="M305.06,-56.44C327.21,-47.52 362.15,-33.44 387.27,-23.32"/>
<polygon fill="midnightblue" stroke="midnightblue" points="388.73,-26.5 396.7,-19.52 386.11,-20.01 388.73,-26.5"/>
</g>
<!-- Node9 -->
<g id="node9" class="node">
<title>Node9</title>
<g id="a_node9"><a xlink:title=" ">
<polygon fill="white" stroke="#bfbfbf" points="467.83,-0.5 467.83,-19.5 509.83,-19.5 509.83,-0.5 467.83,-0.5"/>
<text text-anchor="middle" x="488.83" y="-7.5" font-family="Helvetica,sans-Serif" font-size="10.00">array</text>
</a>
</g>
</g>
<!-- Node7&#45;&gt;Node9 -->
<g id="edge8" class="edge">
<title>Node7&#45;&gt;Node9</title>
<path fill="none" stroke="midnightblue" d="M318.8,-56.44C352.2,-48.17 404.17,-35.06 457.87,-20.19"/>
<polygon fill="midnightblue" stroke="midnightblue" points="458.86,-23.55 467.55,-17.5 456.98,-16.81 458.86,-23.55"/>
</g>
<!-- Node10 -->
<g id="node10" class="node">
<title>Node10</title>
<g id="a_node10"><a xlink:title=" ">
<polygon fill="white" stroke="#bfbfbf" points="140.33,-0.5 140.33,-19.5 189.33,-19.5 189.33,-0.5 140.33,-0.5"/>
<text text-anchor="middle" x="164.83" y="-7.5" font-family="Helvetica,sans-Serif" font-size="10.00">cctype</text>
</a>
</g>
</g>
<!-- Node7&#45;&gt;Node10 -->
<g id="edge9" class="edge">
<title>Node7&#45;&gt;Node10</title>
<path fill="none" stroke="midnightblue" d="M264.97,-56.44C245.56,-47.64 215.1,-33.81 192.87,-23.72"/>
<polygon fill="midnightblue" stroke="midnightblue" points="194.15,-20.46 183.6,-19.52 191.26,-26.84 194.15,-20.46"/>
</g>
<!-- Node11 -->
<g id="node11" class="node">
<title>Node11</title>
<g id="a_node11"><a xlink:title=" ">
<polygon fill="white" stroke="#bfbfbf" points="207.33,-0.5 207.33,-19.5 280.33,-19.5 280.33,-0.5 207.33,-0.5"/>
<text text-anchor="middle" x="243.83" y="-7.5" font-family="Helvetica,sans-Serif" font-size="10.00">string_view</text>
</a>
</g>
</g>
<!-- Node7&#45;&gt;Node11 -->
<g id="edge11" class="edge">
<title>Node7&#45;&gt;Node11</title>
<path fill="none" stroke="midnightblue" d="M277.22,-56.08C271.57,-48.46 263.28,-37.26 256.38,-27.94"/>
<polygon fill="midnightblue" stroke="midnightblue" points="259.08,-25.7 250.31,-19.75 253.45,-29.87 259.08,-25.7"/>
</g>
<!-- Node12 -->
<g id="node12" class="node">
<title>Node12</title>
<g id="a_node12"><a xlink:title=" ">
<polygon fill="white" stroke="#bfbfbf" points="298.33,-0.5 298.33,-19.5 367.33,-19.5 367.33,-0.5 298.33,-0.5"/>
<text text-anchor="middle" x="332.83" y="-7.5" font-family="Helvetica,sans-Serif" font-size="10.00">type_traits</text>
</a>
</g>
</g>
<!-- Node7&#45;&gt;Node12 -->
<g id="edge12" class="edge">
<title>Node7&#45;&gt;Node12</title>
<path fill="none" stroke="midnightblue" d="M291.92,-56.08C298.98,-48.3 309.42,-36.8 317.98,-27.37"/>
<polygon fill="midnightblue" stroke="midnightblue" points="320.76,-29.51 324.89,-19.75 315.58,-24.8 320.76,-29.51"/>
</g>
</g>
</svg>
        <g id="navigator" transform="translate(0 0)" fill="#404254">
                <rect fill="#f2f5e9" fill-opacity="0.5" stroke="#606060" stroke-width=".5" x="0" y="0" width="60" height="60"/>
                <use id="zoomplus" xlink:href="#zoomPlus" x="17" y="9" onmousedown="handleZoom(evt,'in')"/>
                <use id="zoomminus" xlink:href="#zoomMin" x="42" y="9" onmousedown="handleZoom(evt,'out')"/>
                <use id="reset" xlink:href="#resetDef" x="30" y="36" onmousedown="handleReset()"/>
                <g id="arrowUp" xlink:href="#dirArrow" transform="translate(30 24)" onmousedown="handlePan(0,-1)">
                  <use xlink:href="#rim" fill="#404040">
                        <set attributeName="fill" to="#808080" begin="arrowUp.mouseover" end="arrowUp.mouseout"/>
                  </use>
                  <path fill="none" stroke="white" stroke-width="1.5" d="M0,-3.0v7 M-2.5,-0.5L0,-3.0L2.5,-0.5"/>
                </g>
                <g id="arrowRight" xlink:href="#dirArrow" transform="rotate(90) translate(36 -43)" onmousedown="handlePan(1,0)">
                  <use xlink:href="#rim" fill="#404040">
                        <set attributeName="fill" to="#808080" begin="arrowRight.mouseover" end="arrowRight.mouseout"/>
                  </use>
                  <path fill="none" stroke="white" stroke-width="1.5" d="M0,-3.0v7 M-2.5,-0.5L0,-3.0L2.5,-0.5"/>
                </g>
                <g id="arrowDown" xlink:href="#dirArrow" transform="rotate(180) translate(-30 -48)" onmousedown="handlePan(0,1)">
                  <use xlink:href="#rim" fill="#404040">
                        <set attributeName="fill" to="#808080" begin="arrowDown.mouseover" end="arrowDown.mouseout"/>
                  </use>
                  <path fill="none" stroke="white" stroke-width="1.5" d="M0,-3.0v7 M-2.5,-0.5L0,-3.0L2.5,-0.5"/>
                </g>
                <g id="arrowLeft" xlink:href="#dirArrow" transform="rotate(270) translate(-36 17)" onmousedown="handlePan(-1,0)">
                  <use xlink:href="#rim" fill="#404040">
                        <set attributeName="fill" to="#808080" begin="arrowLeft.mouseover" end="arrowLeft.mouseout"/>
                  </use>
                  <path fill="none" stroke="white" stroke-width="1.5" d="M0,-3.0v7 M-2.5,-0.5L0,-3.0L2.5,-0.5"/>
                </g>
        </g>
        <svg viewBox="0 0 15 15" width="100%" height="30px" preserveAspectRatio="xMaxYMin meet">
         <g id="arrow_out" transform="scale(0.3 0.3)">
          <a xlink:href="openapi_8h__incl_org.svg" target="_base">
           <rect id="button" ry="5" rx="5" y="6" x="6" height="38" width="38"
                fill="#f2f5e9" fill-opacity="0.5" stroke="#606060" stroke-width="1.0"/>
           <path id="arrow"
             d="M 11.500037,31.436501 C 11.940474,20.09759 22.043105,11.32322 32.158766,21.979434 L 37.068811,17.246167 C 37.068811,17.246167 37.088388,32 37.088388,32 L 22.160133,31.978069 C 22.160133,31.978069 26.997745,27.140456 26.997745,27.140456 C 18.528582,18.264221 13.291696,25.230495 11.500037,31.436501 z"
             style="fill:#404040;"/>
          </a>
         </g>
        </svg>
</svg>
