<?xml version="1.0" encoding="UTF-8" standalone="no"?>
<!DOCTYPE svg PUBLIC "-//W3C//DTD SVG 1.1//EN"
 "http://www.w3.org/Graphics/SVG/1.1/DTD/svg11.dtd">
<!-- Generated by graphviz version 2.43.0 (0)
 -->
<!-- Title: src/ds/pending_io.h Pages: 1 -->
<!--zoomable 621 -->
<svg id="main" version="1.1" xmlns="http://www.w3.org/2000/svg" xmlns:xlink="http://www.w3.org/1999/xlink" xml:space="preserve" onload="init(evt)">
<style type="text/css"><![CDATA[
.edge:hover path { stroke: red; }
.edge:hover polygon { stroke: red; fill: red; }
]]></style>
<script type="text/javascript"><![CDATA[
var edges = document.getElementsByTagName('g');
if (edges && edges.length) {
  for (var i=0;i<edges.length;i++) {
    if (edges[i].id.substr(0,4)=='edge') {
      edges[i].setAttribute('class','edge');
    }
  }
}
]]></script>
        <defs>
                <circle id="rim" cx="0" cy="0" r="7"/>
                <circle id="rim2" cx="0" cy="0" r="3.5"/>
                <g id="zoomPlus">
                        <use xlink:href="#rim" fill="#404040">
                                <set attributeName="fill" to="#808080" begin="zoomplus.mouseover" end="zoomplus.mouseout"/>
                        </use>
                        <path d="M-4,0h8M0,-4v8" fill="none" stroke="white" stroke-width="1.5" pointer-events="none"/>
                </g>
                <g id="zoomMin">
                        <use xlink:href="#rim" fill="#404040">
                                <set attributeName="fill" to="#808080" begin="zoomminus.mouseover" end="zoomminus.mouseout"/>
                        </use>
                        <path d="M-4,0h8" fill="none" stroke="white" stroke-width="1.5" pointer-events="none"/>
                </g>
                <g id="dirArrow">
                        <path fill="none" stroke="white" stroke-width="1.5" d="M0,-3.0v7 M-2.5,-0.5L0,-3.0L2.5,-0.5"/>
                </g>
               <g id="resetDef">
                       <use xlink:href="#rim2" fill="#404040">
                               <set attributeName="fill" to="#808080" begin="reset.mouseover" end="reset.mouseout"/>
                       </use>
               </g>
        </defs>

<script type="text/javascript">
var viewWidth = 1048;
var viewHeight = 621;
var sectionId = 'dynsection-1';
</script>
<script xlink:href="svgpan.js"/>
<svg id="graph" class="graph">
<g id="viewport">
<title>src/ds/pending_io.h</title>
<polygon fill="white" stroke="transparent" points="-4,4 -4,-617 1043.5,-617 1043.5,4 -4,4"/>
<!-- Node1 -->
<g id="node1" class="node">
<title>Node1</title>
<g id="a_node1"><a xlink:title=" ">
<polygon fill="#bfbfbf" stroke="black" points="346.5,-593.5 346.5,-612.5 456.5,-612.5 456.5,-593.5 346.5,-593.5"/>
<text text-anchor="middle" x="401.5" y="-600.5" font-family="Helvetica,sans-Serif" font-size="10.00">src/ds/pending_io.h</text>
</a>
</g>
</g>
<!-- Node2 -->
<g id="node2" class="node">
<title>Node2</title>
<g id="a_node2"><a xlink:href="tcp_8h.html" target="_top" xlink:title=" ">
<polygon fill="white" stroke="black" points="229.5,-537.5 229.5,-556.5 311.5,-556.5 311.5,-537.5 229.5,-537.5"/>
<text text-anchor="middle" x="270.5" y="-544.5" font-family="Helvetica,sans-Serif" font-size="10.00">src/host/tcp.h</text>
</a>
</g>
</g>
<!-- Node1&#45;&gt;Node2 -->
<g id="edge1" class="edge">
<title>Node1&#45;&gt;Node2</title>
<path fill="none" stroke="midnightblue" d="M371.18,-589.5C346.62,-579.38 312.68,-565.39 291.16,-556.52"/>
<polygon fill="midnightblue" stroke="midnightblue" points="370.16,-592.87 380.74,-593.44 372.83,-586.4 370.16,-592.87"/>
</g>
<!-- Node7 -->
<g id="node7" class="node">
<title>Node7</title>
<g id="a_node7"><a xlink:href="udp_8h.html" target="_top" xlink:title=" ">
<polygon fill="white" stroke="black" points="359,-537.5 359,-556.5 444,-556.5 444,-537.5 359,-537.5"/>
<text text-anchor="middle" x="401.5" y="-544.5" font-family="Helvetica,sans-Serif" font-size="10.00">src/host/udp.h</text>
</a>
</g>
</g>
<!-- Node1&#45;&gt;Node7 -->
<g id="edge8" class="edge">
<title>Node1&#45;&gt;Node7</title>
<path fill="none" stroke="midnightblue" d="M401.5,-582.8C401.5,-573.91 401.5,-563.78 401.5,-556.75"/>
<polygon fill="midnightblue" stroke="midnightblue" points="398,-583.08 401.5,-593.08 405,-583.08 398,-583.08"/>
</g>
<!-- Node8 -->
<g id="node8" class="node">
<title>Node8</title>
<g id="a_node8"><a xlink:href="quic__endpoint_8h.html" target="_top" xlink:title=" ">
<polygon fill="white" stroke="black" points="480.5,-537.5 480.5,-556.5 614.5,-556.5 614.5,-537.5 480.5,-537.5"/>
<text text-anchor="middle" x="547.5" y="-544.5" font-family="Helvetica,sans-Serif" font-size="10.00">src/quic/quic_endpoint.h</text>
</a>
</g>
</g>
<!-- Node1&#45;&gt;Node8 -->
<g id="edge10" class="edge">
<title>Node1&#45;&gt;Node8</title>
<path fill="none" stroke="midnightblue" d="M434.2,-589.91C461.65,-579.75 500.17,-565.51 524.47,-556.52"/>
<polygon fill="midnightblue" stroke="midnightblue" points="432.8,-586.69 424.63,-593.44 435.23,-593.26 432.8,-586.69"/>
</g>
<!-- Node3 -->
<g id="node3" class="node">
<title>Node3</title>
<g id="a_node3"><a xlink:href="acme__challenge__server_8h.html" target="_top" xlink:title=" ">
<polygon fill="white" stroke="black" points="173,-470.5 173,-500.5 310,-500.5 310,-470.5 173,-470.5"/>
<text text-anchor="start" x="181" y="-488.5" font-family="Helvetica,sans-Serif" font-size="10.00">src/host/acme_challenge</text>
<text text-anchor="middle" x="241.5" y="-477.5" font-family="Helvetica,sans-Serif" font-size="10.00">_server.h</text>
</a>
</g>
</g>
<!-- Node2&#45;&gt;Node3 -->
<g id="edge2" class="edge">
<title>Node2&#45;&gt;Node3</title>
<path fill="none" stroke="midnightblue" d="M261.92,-528.39C257.58,-519.5 252.4,-508.86 248.33,-500.52"/>
<polygon fill="midnightblue" stroke="midnightblue" points="258.82,-530.02 266.35,-537.48 265.11,-526.95 258.82,-530.02"/>
</g>
<!-- Node5 -->
<g id="node5" class="node">
<title>Node5</title>
<g id="a_node5"><a xlink:href="node__connections_8h.html" target="_top" xlink:title=" ">
<polygon fill="white" stroke="black" points="0,-476 0,-495 155,-495 155,-476 0,-476"/>
<text text-anchor="middle" x="77.5" y="-483" font-family="Helvetica,sans-Serif" font-size="10.00">src/host/node_connections.h</text>
</a>
</g>
</g>
<!-- Node2&#45;&gt;Node5 -->
<g id="edge4" class="edge">
<title>Node2&#45;&gt;Node5</title>
<path fill="none" stroke="midnightblue" d="M233.29,-534.53C195.78,-522.96 138.76,-505.38 105.1,-495.01"/>
<polygon fill="midnightblue" stroke="midnightblue" points="232.26,-537.87 242.85,-537.48 234.32,-531.18 232.26,-537.87"/>
</g>
<!-- Node6 -->
<g id="node6" class="node">
<title>Node6</title>
<g id="a_node6"><a xlink:href="rpc__connections_8h.html" target="_top" xlink:title=" ">
<polygon fill="white" stroke="black" points="328.5,-476 328.5,-495 474.5,-495 474.5,-476 328.5,-476"/>
<text text-anchor="middle" x="401.5" y="-483" font-family="Helvetica,sans-Serif" font-size="10.00">src/host/rpc_connections.h</text>
</a>
</g>
</g>
<!-- Node2&#45;&gt;Node6 -->
<g id="edge6" class="edge">
<title>Node2&#45;&gt;Node6</title>
<path fill="none" stroke="midnightblue" d="M298.4,-533.33C323.83,-521.78 360.7,-505.03 382.77,-495.01"/>
<polygon fill="midnightblue" stroke="midnightblue" points="296.93,-530.15 289.27,-537.48 299.82,-536.53 296.93,-530.15"/>
</g>
<!-- Node4 -->
<g id="node4" class="node">
<title>Node4</title>
<g id="a_node4"><a xlink:href="host_2main_8cpp.html" target="_top" xlink:title=" ">
<polygon fill="white" stroke="black" points="190,-414.5 190,-433.5 293,-433.5 293,-414.5 190,-414.5"/>
<text text-anchor="middle" x="241.5" y="-421.5" font-family="Helvetica,sans-Serif" font-size="10.00">src/host/main.cpp</text>
</a>
</g>
</g>
<!-- Node3&#45;&gt;Node4 -->
<g id="edge3" class="edge">
<title>Node3&#45;&gt;Node4</title>
<path fill="none" stroke="midnightblue" d="M241.5,-460.29C241.5,-450.86 241.5,-440.65 241.5,-433.66"/>
<polygon fill="midnightblue" stroke="midnightblue" points="238,-460.4 241.5,-470.4 245,-460.4 238,-460.4"/>
</g>
<!-- Node5&#45;&gt;Node4 -->
<g id="edge5" class="edge">
<title>Node5&#45;&gt;Node4</title>
<path fill="none" stroke="midnightblue" d="M110.76,-472.43C142.64,-460.87 189.93,-443.71 218.05,-433.51"/>
<polygon fill="midnightblue" stroke="midnightblue" points="109.2,-469.27 101,-475.98 111.59,-475.85 109.2,-469.27"/>
</g>
<!-- Node6&#45;&gt;Node4 -->
<g id="edge7" class="edge">
<title>Node6&#45;&gt;Node4</title>
<path fill="none" stroke="midnightblue" d="M369.05,-472.43C337.95,-460.87 291.81,-443.71 264.38,-433.51"/>
<polygon fill="midnightblue" stroke="midnightblue" points="367.98,-475.77 378.58,-475.98 370.42,-469.21 367.98,-475.77"/>
</g>
<!-- Node7&#45;&gt;Node6 -->
<g id="edge9" class="edge">
<title>Node7&#45;&gt;Node6</title>
<path fill="none" stroke="midnightblue" d="M401.5,-527.32C401.5,-516.5 401.5,-503.4 401.5,-495.01"/>
<polygon fill="midnightblue" stroke="midnightblue" points="398,-527.48 401.5,-537.48 405,-527.48 398,-527.48"/>
</g>
<!-- Node9 -->
<g id="node9" class="node">
<title>Node9</title>
<g id="a_node9"><a xlink:href="rpc__sessions_8h.html" target="_top" xlink:title=" ">
<polygon fill="white" stroke="black" points="492.5,-476 492.5,-495 638.5,-495 638.5,-476 492.5,-476"/>
<text text-anchor="middle" x="565.5" y="-483" font-family="Helvetica,sans-Serif" font-size="10.00">src/enclave/rpc_sessions.h</text>
</a>
</g>
</g>
<!-- Node8&#45;&gt;Node9 -->
<g id="edge11" class="edge">
<title>Node8&#45;&gt;Node9</title>
<path fill="none" stroke="midnightblue" d="M553.05,-527.66C556.34,-516.77 560.36,-503.49 562.93,-495.01"/>
<polygon fill="midnightblue" stroke="midnightblue" points="549.62,-526.89 550.08,-537.48 556.32,-528.92 549.62,-526.89"/>
</g>
<!-- Node10 -->
<g id="node10" class="node">
<title>Node10</title>
<g id="a_node10"><a xlink:href="enclave_2enclave_8h.html" target="_top" xlink:title=" ">
<polygon fill="white" stroke="black" points="790.5,-56.5 790.5,-75.5 912.5,-75.5 912.5,-56.5 790.5,-56.5"/>
<text text-anchor="middle" x="851.5" y="-63.5" font-family="Helvetica,sans-Serif" font-size="10.00">src/enclave/enclave.h</text>
</a>
</g>
</g>
<!-- Node9&#45;&gt;Node10 -->
<g id="edge12" class="edge">
<title>Node9&#45;&gt;Node10</title>
<path fill="none" stroke="midnightblue" d="M648.91,-480.27C784.92,-471.05 1039.5,-443.17 1039.5,-363.5 1039.5,-363.5 1039.5,-363.5 1039.5,-177 1039.5,-115.27 963.05,-87.54 907.65,-75.54"/>
<polygon fill="midnightblue" stroke="midnightblue" points="648.27,-476.8 638.52,-480.95 648.73,-483.78 648.27,-476.8"/>
</g>
<!-- Node12 -->
<g id="node12" class="node">
<title>Node12</title>
<g id="a_node12"><a xlink:href="ccf__acme__client_8h.html" target="_top" xlink:title=" ">
<polygon fill="white" stroke="black" points="459,-230 459,-249 608,-249 608,-230 459,-230"/>
<text text-anchor="middle" x="533.5" y="-237" font-family="Helvetica,sans-Serif" font-size="10.00">src/node/ccf_acme_client.h</text>
</a>
</g>
</g>
<!-- Node9&#45;&gt;Node12 -->
<g id="edge14" class="edge">
<title>Node9&#45;&gt;Node12</title>
<path fill="none" stroke="midnightblue" d="M564.63,-465.89C562.79,-431.25 557.74,-354.61 546.5,-291 543.88,-276.2 539.19,-259.36 536.22,-249.35"/>
<polygon fill="midnightblue" stroke="midnightblue" points="561.14,-466.14 565.13,-475.95 568.13,-465.79 561.14,-466.14"/>
</g>
<!-- Node13 -->
<g id="node13" class="node">
<title>Node13</title>
<g id="a_node13"><a xlink:href="node__state_8h.html" target="_top" xlink:title=" ">
<polygon fill="white" stroke="black" points="622.5,-168.5 622.5,-187.5 746.5,-187.5 746.5,-168.5 622.5,-168.5"/>
<text text-anchor="middle" x="684.5" y="-175.5" font-family="Helvetica,sans-Serif" font-size="10.00">src/node/node_state.h</text>
</a>
</g>
</g>
<!-- Node9&#45;&gt;Node13 -->
<g id="edge32" class="edge">
<title>Node9&#45;&gt;Node13</title>
<path fill="none" stroke="midnightblue" d="M518.33,-473.13C467.41,-457.71 393.5,-424.77 393.5,-363.5 393.5,-363.5 393.5,-363.5 393.5,-300 393.5,-201.65 536.97,-181.76 622.43,-178.63"/>
<polygon fill="midnightblue" stroke="midnightblue" points="517.6,-476.56 528.18,-475.98 519.55,-469.84 517.6,-476.56"/>
</g>
<!-- Node15 -->
<g id="node15" class="node">
<title>Node15</title>
<g id="a_node15"><a xlink:href="node__client_8h.html" target="_top" xlink:title=" ">
<polygon fill="white" stroke="black" points="703.5,-414.5 703.5,-433.5 829.5,-433.5 829.5,-414.5 703.5,-414.5"/>
<text text-anchor="middle" x="766.5" y="-421.5" font-family="Helvetica,sans-Serif" font-size="10.00">src/node/node_client.h</text>
</a>
</g>
</g>
<!-- Node9&#45;&gt;Node15 -->
<g id="edge19" class="edge">
<title>Node9&#45;&gt;Node15</title>
<path fill="none" stroke="midnightblue" d="M604.25,-473.03C643.32,-461.46 702.7,-443.88 737.76,-433.51"/>
<polygon fill="midnightblue" stroke="midnightblue" points="602.89,-469.78 594.3,-475.98 604.88,-476.49 602.89,-469.78"/>
</g>
<!-- Node22 -->
<g id="node22" class="node">
<title>Node22</title>
<g id="a_node22"><a xlink:href="resharing_8h.html" target="_top" xlink:title=" ">
<polygon fill="white" stroke="black" points="421.5,-291.5 421.5,-310.5 537.5,-310.5 537.5,-291.5 421.5,-291.5"/>
<text text-anchor="middle" x="479.5" y="-298.5" font-family="Helvetica,sans-Serif" font-size="10.00">src/node/resharing.h</text>
</a>
</g>
</g>
<!-- Node9&#45;&gt;Node22 -->
<g id="edge33" class="edge">
<title>Node9&#45;&gt;Node22</title>
<path fill="none" stroke="midnightblue" d="M556.89,-466.22C538.67,-427.57 496.86,-338.83 483.61,-310.71"/>
<polygon fill="midnightblue" stroke="midnightblue" points="553.92,-468.14 561.35,-475.7 560.26,-465.16 553.92,-468.14"/>
</g>
<!-- Node11 -->
<g id="node11" class="node">
<title>Node11</title>
<g id="a_node11"><a xlink:href="enclave_2main_8cpp.html" target="_top" xlink:title=" ">
<polygon fill="white" stroke="black" points="791.5,-0.5 791.5,-19.5 911.5,-19.5 911.5,-0.5 791.5,-0.5"/>
<text text-anchor="middle" x="851.5" y="-7.5" font-family="Helvetica,sans-Serif" font-size="10.00">src/enclave/main.cpp</text>
</a>
</g>
</g>
<!-- Node10&#45;&gt;Node11 -->
<g id="edge13" class="edge">
<title>Node10&#45;&gt;Node11</title>
<path fill="none" stroke="midnightblue" d="M851.5,-45.8C851.5,-36.91 851.5,-26.78 851.5,-19.75"/>
<polygon fill="midnightblue" stroke="midnightblue" points="848,-46.08 851.5,-56.08 855,-46.08 848,-46.08"/>
</g>
<!-- Node12&#45;&gt;Node13 -->
<g id="edge15" class="edge">
<title>Node12&#45;&gt;Node13</title>
<path fill="none" stroke="midnightblue" d="M564.51,-226.28C593.85,-214.72 637.13,-197.66 662.91,-187.51"/>
<polygon fill="midnightblue" stroke="midnightblue" points="563.16,-223.05 555.13,-229.98 565.72,-229.57 563.16,-223.05"/>
</g>
<!-- Node13&#45;&gt;Node10 -->
<g id="edge16" class="edge">
<title>Node13&#45;&gt;Node10</title>
<path fill="none" stroke="midnightblue" d="M690.5,-158.62C696.12,-144.09 705.87,-124.27 720.5,-112 743.07,-93.07 774.04,-81.95 800.19,-75.5"/>
<polygon fill="midnightblue" stroke="midnightblue" points="687.19,-157.49 687.13,-168.09 693.78,-159.84 687.19,-157.49"/>
</g>
<!-- Node14 -->
<g id="node14" class="node">
<title>Node14</title>
<g id="a_node14"><a xlink:href="gov__effects_8h.html" target="_top" xlink:title=" ">
<polygon fill="white" stroke="black" points="729.5,-112.5 729.5,-131.5 873.5,-131.5 873.5,-112.5 729.5,-112.5"/>
<text text-anchor="middle" x="801.5" y="-119.5" font-family="Helvetica,sans-Serif" font-size="10.00">src/node/rpc/gov_effects.h</text>
</a>
</g>
</g>
<!-- Node13&#45;&gt;Node14 -->
<g id="edge17" class="edge">
<title>Node13&#45;&gt;Node14</title>
<path fill="none" stroke="midnightblue" d="M712.16,-164.23C734.05,-154.13 764,-140.31 783.05,-131.52"/>
<polygon fill="midnightblue" stroke="midnightblue" points="710.65,-161.08 703.04,-168.44 713.59,-167.43 710.65,-161.08"/>
</g>
<!-- Node14&#45;&gt;Node10 -->
<g id="edge18" class="edge">
<title>Node14&#45;&gt;Node10</title>
<path fill="none" stroke="midnightblue" d="M816.58,-104.72C825.39,-95.2 836.17,-83.56 843.4,-75.75"/>
<polygon fill="midnightblue" stroke="midnightblue" points="813.98,-102.37 809.76,-112.08 819.12,-107.12 813.98,-102.37"/>
</g>
<!-- Node16 -->
<g id="node16" class="node">
<title>Node16</title>
<g id="a_node16"><a xlink:href="orc__requests_8h.html" target="_top" xlink:title=" ">
<polygon fill="white" stroke="black" points="707,-347.5 707,-377.5 826,-377.5 826,-347.5 707,-347.5"/>
<text text-anchor="start" x="715" y="-365.5" font-family="Helvetica,sans-Serif" font-size="10.00">src/consensus/aft/orc</text>
<text text-anchor="middle" x="766.5" y="-354.5" font-family="Helvetica,sans-Serif" font-size="10.00">_requests.h</text>
</a>
</g>
</g>
<!-- Node15&#45;&gt;Node16 -->
<g id="edge20" class="edge">
<title>Node15&#45;&gt;Node16</title>
<path fill="none" stroke="midnightblue" d="M766.5,-404.23C766.5,-395.59 766.5,-385.5 766.5,-377.52"/>
<polygon fill="midnightblue" stroke="midnightblue" points="763,-404.48 766.5,-414.48 770,-404.48 763,-404.48"/>
</g>
<!-- Node17 -->
<g id="node17" class="node">
<title>Node17</title>
<g id="a_node17"><a xlink:href="raft_8h.html" target="_top" xlink:title=" ">
<polygon fill="white" stroke="black" points="882,-291.5 882,-310.5 1011,-310.5 1011,-291.5 882,-291.5"/>
<text text-anchor="middle" x="946.5" y="-298.5" font-family="Helvetica,sans-Serif" font-size="10.00">src/consensus/aft/raft.h</text>
</a>
</g>
</g>
<!-- Node15&#45;&gt;Node17 -->
<g id="edge27" class="edge">
<title>Node15&#45;&gt;Node17</title>
<path fill="none" stroke="midnightblue" d="M839.73,-417.4C894.81,-411.49 963.73,-399.87 981.5,-378 998.72,-356.8 971.77,-325.75 956.24,-310.75"/>
<polygon fill="midnightblue" stroke="midnightblue" points="839.21,-413.94 829.62,-418.44 839.93,-420.9 839.21,-413.94"/>
</g>
<!-- Node20 -->
<g id="node20" class="node">
<title>Node20</title>
<g id="a_node20"><a xlink:href="http__node__client_8h.html" target="_top" xlink:title=" ">
<polygon fill="white" stroke="black" points="626.5,-224.5 626.5,-254.5 736.5,-254.5 736.5,-224.5 626.5,-224.5"/>
<text text-anchor="start" x="634.5" y="-242.5" font-family="Helvetica,sans-Serif" font-size="10.00">src/node/http_node</text>
<text text-anchor="middle" x="681.5" y="-231.5" font-family="Helvetica,sans-Serif" font-size="10.00">_client.h</text>
</a>
</g>
</g>
<!-- Node15&#45;&gt;Node20 -->
<g id="edge28" class="edge">
<title>Node15&#45;&gt;Node20</title>
<path fill="none" stroke="midnightblue" d="M735.56,-409.91C721.97,-402.54 707.16,-391.98 698.5,-378 674.18,-338.74 676.78,-281.03 679.6,-254.62"/>
<polygon fill="midnightblue" stroke="midnightblue" points="734.17,-413.13 744.68,-414.5 737.32,-406.88 734.17,-413.13"/>
</g>
<!-- Node21 -->
<g id="node21" class="node">
<title>Node21</title>
<g id="a_node21"><a xlink:href="retired__nodes__cleanup_8h.html" target="_top" xlink:title=" ">
<polygon fill="white" stroke="black" points="844.5,-347.5 844.5,-377.5 972.5,-377.5 972.5,-347.5 844.5,-347.5"/>
<text text-anchor="start" x="852.5" y="-365.5" font-family="Helvetica,sans-Serif" font-size="10.00">src/node/retired_nodes</text>
<text text-anchor="middle" x="908.5" y="-354.5" font-family="Helvetica,sans-Serif" font-size="10.00">_cleanup.h</text>
</a>
</g>
</g>
<!-- Node15&#45;&gt;Node21 -->
<g id="edge30" class="edge">
<title>Node15&#45;&gt;Node21</title>
<path fill="none" stroke="midnightblue" d="M796.12,-410.59C819.14,-400.94 851.09,-387.56 875.03,-377.52"/>
<polygon fill="midnightblue" stroke="midnightblue" points="794.72,-407.38 786.85,-414.48 797.42,-413.84 794.72,-407.38"/>
</g>
<!-- Node16&#45;&gt;Node17 -->
<g id="edge21" class="edge">
<title>Node16&#45;&gt;Node17</title>
<path fill="none" stroke="midnightblue" d="M818.78,-344.22C852.2,-333.17 894.08,-319.33 920.57,-310.57"/>
<polygon fill="midnightblue" stroke="midnightblue" points="817.55,-340.94 809.16,-347.4 819.75,-347.58 817.55,-340.94"/>
</g>
<!-- Node18 -->
<g id="node18" class="node">
<title>Node18</title>
<g id="a_node18"><a xlink:href="node__frontend_8h.html" target="_top" xlink:title=" ">
<polygon fill="white" stroke="black" points="705.5,-291.5 705.5,-310.5 863.5,-310.5 863.5,-291.5 705.5,-291.5"/>
<text text-anchor="middle" x="784.5" y="-298.5" font-family="Helvetica,sans-Serif" font-size="10.00">src/node/rpc/node_frontend.h</text>
</a>
</g>
</g>
<!-- Node16&#45;&gt;Node18 -->
<g id="edge23" class="edge">
<title>Node16&#45;&gt;Node18</title>
<path fill="none" stroke="midnightblue" d="M773.73,-337.59C776.61,-328.08 779.74,-317.73 781.88,-310.66"/>
<polygon fill="midnightblue" stroke="midnightblue" points="770.31,-336.81 770.77,-347.4 777.01,-338.84 770.31,-336.81"/>
</g>
<!-- Node17&#45;&gt;Node13 -->
<g id="edge22" class="edge">
<title>Node17&#45;&gt;Node13</title>
<path fill="none" stroke="midnightblue" d="M937.92,-282.14C928.51,-264.56 911.76,-238.32 889.5,-224 846.75,-196.5 789.72,-185.61 746.66,-181.39"/>
<polygon fill="midnightblue" stroke="midnightblue" points="934.94,-284.01 942.59,-291.34 941.18,-280.84 934.94,-284.01"/>
</g>
<!-- Node18&#45;&gt;Node10 -->
<g id="edge24" class="edge">
<title>Node18&#45;&gt;Node10</title>
<path fill="none" stroke="midnightblue" d="M843.19,-288.17C861.11,-281.51 878.86,-271.14 889.5,-255 901.82,-236.32 916.89,-211.48 882.5,-112 877.6,-97.83 866.94,-84.01 859.5,-75.51"/>
<polygon fill="midnightblue" stroke="midnightblue" points="841.64,-285 833.27,-291.5 843.87,-291.63 841.64,-285"/>
</g>
<!-- Node19 -->
<g id="node19" class="node">
<title>Node19</title>
<g id="a_node19"><a xlink:href="jwt__key__auto__refresh_8h.html" target="_top" xlink:title=" ">
<polygon fill="white" stroke="black" points="755,-224.5 755,-254.5 880,-254.5 880,-224.5 755,-224.5"/>
<text text-anchor="start" x="763" y="-242.5" font-family="Helvetica,sans-Serif" font-size="10.00">src/node/jwt_key_auto</text>
<text text-anchor="middle" x="817.5" y="-231.5" font-family="Helvetica,sans-Serif" font-size="10.00">_refresh.h</text>
</a>
</g>
</g>
<!-- Node18&#45;&gt;Node19 -->
<g id="edge25" class="edge">
<title>Node18&#45;&gt;Node19</title>
<path fill="none" stroke="midnightblue" d="M794.11,-282.68C799.07,-273.73 805.05,-262.94 809.72,-254.52"/>
<polygon fill="midnightblue" stroke="midnightblue" points="791.02,-281.03 789.23,-291.48 797.14,-284.43 791.02,-281.03"/>
</g>
<!-- Node19&#45;&gt;Node13 -->
<g id="edge26" class="edge">
<title>Node19&#45;&gt;Node13</title>
<path fill="none" stroke="midnightblue" d="M776.66,-220.23C752.44,-209.39 722.86,-196.16 703.85,-187.66"/>
<polygon fill="midnightblue" stroke="midnightblue" points="775.42,-223.51 785.98,-224.4 778.28,-217.12 775.42,-223.51"/>
</g>
<!-- Node20&#45;&gt;Node13 -->
<g id="edge29" class="edge">
<title>Node20&#45;&gt;Node13</title>
<path fill="none" stroke="midnightblue" d="M682.72,-214.29C683.2,-204.86 683.71,-194.65 684.06,-187.66"/>
<polygon fill="midnightblue" stroke="midnightblue" points="679.22,-214.24 682.21,-224.4 686.21,-214.59 679.22,-214.24"/>
</g>
<!-- Node21&#45;&gt;Node17 -->
<g id="edge31" class="edge">
<title>Node21&#45;&gt;Node17</title>
<path fill="none" stroke="midnightblue" d="M923,-338.8C929.28,-328.96 936.26,-318.03 940.97,-310.66"/>
<polygon fill="midnightblue" stroke="midnightblue" points="919.94,-337.09 917.51,-347.4 925.84,-340.86 919.94,-337.09"/>
</g>
<!-- Node22&#45;&gt;Node13 -->
<g id="edge34" class="edge">
<title>Node22&#45;&gt;Node13</title>
<path fill="none" stroke="midnightblue" d="M464.28,-283.33C451.05,-266.78 436.1,-241.43 450.5,-224 471.91,-198.09 560.42,-186.94 622.22,-182.25"/>
<polygon fill="midnightblue" stroke="midnightblue" points="461.73,-285.74 470.87,-291.09 467.06,-281.21 461.73,-285.74"/>
</g>
</g>
</svg>
        <g id="navigator" transform="translate(0 0)" fill="#404254">
                <rect fill="#f2f5e9" fill-opacity="0.5" stroke="#606060" stroke-width=".5" x="0" y="0" width="60" height="60"/>
                <use id="zoomplus" xlink:href="#zoomPlus" x="17" y="9" onmousedown="handleZoom(evt,'in')"/>
                <use id="zoomminus" xlink:href="#zoomMin" x="42" y="9" onmousedown="handleZoom(evt,'out')"/>
                <use id="reset" xlink:href="#resetDef" x="30" y="36" onmousedown="handleReset()"/>
                <g id="arrowUp" xlink:href="#dirArrow" transform="translate(30 24)" onmousedown="handlePan(0,-1)">
                  <use xlink:href="#rim" fill="#404040">
                        <set attributeName="fill" to="#808080" begin="arrowUp.mouseover" end="arrowUp.mouseout"/>
                  </use>
                  <path fill="none" stroke="white" stroke-width="1.5" d="M0,-3.0v7 M-2.5,-0.5L0,-3.0L2.5,-0.5"/>
                </g>
                <g id="arrowRight" xlink:href="#dirArrow" transform="rotate(90) translate(36 -43)" onmousedown="handlePan(1,0)">
                  <use xlink:href="#rim" fill="#404040">
                        <set attributeName="fill" to="#808080" begin="arrowRight.mouseover" end="arrowRight.mouseout"/>
                  </use>
                  <path fill="none" stroke="white" stroke-width="1.5" d="M0,-3.0v7 M-2.5,-0.5L0,-3.0L2.5,-0.5"/>
                </g>
                <g id="arrowDown" xlink:href="#dirArrow" transform="rotate(180) translate(-30 -48)" onmousedown="handlePan(0,1)">
                  <use xlink:href="#rim" fill="#404040">
                        <set attributeName="fill" to="#808080" begin="arrowDown.mouseover" end="arrowDown.mouseout"/>
                  </use>
                  <path fill="none" stroke="white" stroke-width="1.5" d="M0,-3.0v7 M-2.5,-0.5L0,-3.0L2.5,-0.5"/>
                </g>
                <g id="arrowLeft" xlink:href="#dirArrow" transform="rotate(270) translate(-36 17)" onmousedown="handlePan(-1,0)">
                  <use xlink:href="#rim" fill="#404040">
                        <set attributeName="fill" to="#808080" begin="arrowLeft.mouseover" end="arrowLeft.mouseout"/>
                  </use>
                  <path fill="none" stroke="white" stroke-width="1.5" d="M0,-3.0v7 M-2.5,-0.5L0,-3.0L2.5,-0.5"/>
                </g>
        </g>
        <svg viewBox="0 0 15 15" width="100%" height="30px" preserveAspectRatio="xMaxYMin meet">
         <g id="arrow_out" transform="scale(0.3 0.3)">
          <a xlink:href="pending__io_8h__dep__incl_org.svg" target="_base">
           <rect id="button" ry="5" rx="5" y="6" x="6" height="38" width="38"
                fill="#f2f5e9" fill-opacity="0.5" stroke="#606060" stroke-width="1.0"/>
           <path id="arrow"
             d="M 11.500037,31.436501 C 11.940474,20.09759 22.043105,11.32322 32.158766,21.979434 L 37.068811,17.246167 C 37.068811,17.246167 37.088388,32 37.088388,32 L 22.160133,31.978069 C 22.160133,31.978069 26.997745,27.140456 26.997745,27.140456 C 18.528582,18.264221 13.291696,25.230495 11.500037,31.436501 z"
             style="fill:#404040;"/>
          </a>
         </g>
        </svg>
</svg>
