<?xml version="1.0" encoding="UTF-8" standalone="no"?>
<!DOCTYPE svg PUBLIC "-//W3C//DTD SVG 1.1//EN"
 "http://www.w3.org/Graphics/SVG/1.1/DTD/svg11.dtd">
<!-- Generated by graphviz version 2.43.0 (0)
 -->
<!-- Title: src/quic/msg_types.h Pages: 1 -->
<!--zoomable 621 -->
<svg id="main" version="1.1" xmlns="http://www.w3.org/2000/svg" xmlns:xlink="http://www.w3.org/1999/xlink" xml:space="preserve" onload="init(evt)">
<style type="text/css"><![CDATA[
.edge:hover path { stroke: red; }
.edge:hover polygon { stroke: red; fill: red; }
]]></style>
<script type="text/javascript"><![CDATA[
var edges = document.getElementsByTagName('g');
if (edges && edges.length) {
  for (var i=0;i<edges.length;i++) {
    if (edges[i].id.substr(0,4)=='edge') {
      edges[i].setAttribute('class','edge');
    }
  }
}
]]></script>
        <defs>
                <circle id="rim" cx="0" cy="0" r="7"/>
                <circle id="rim2" cx="0" cy="0" r="3.5"/>
                <g id="zoomPlus">
                        <use xlink:href="#rim" fill="#404040">
                                <set attributeName="fill" to="#808080" begin="zoomplus.mouseover" end="zoomplus.mouseout"/>
                        </use>
                        <path d="M-4,0h8M0,-4v8" fill="none" stroke="white" stroke-width="1.5" pointer-events="none"/>
                </g>
                <g id="zoomMin">
                        <use xlink:href="#rim" fill="#404040">
                                <set attributeName="fill" to="#808080" begin="zoomminus.mouseover" end="zoomminus.mouseout"/>
                        </use>
                        <path d="M-4,0h8" fill="none" stroke="white" stroke-width="1.5" pointer-events="none"/>
                </g>
                <g id="dirArrow">
                        <path fill="none" stroke="white" stroke-width="1.5" d="M0,-3.0v7 M-2.5,-0.5L0,-3.0L2.5,-0.5"/>
                </g>
               <g id="resetDef">
                       <use xlink:href="#rim2" fill="#404040">
                               <set attributeName="fill" to="#808080" begin="reset.mouseover" end="reset.mouseout"/>
                       </use>
               </g>
        </defs>

<script type="text/javascript">
var viewWidth = 721;
var viewHeight = 621;
var sectionId = 'dynsection-1';
</script>
<script xlink:href="svgpan.js"/>
<svg id="graph" class="graph">
<g id="viewport">
<title>src/quic/msg_types.h</title>
<polygon fill="white" stroke="transparent" points="-4,4 -4,-617 716.5,-617 716.5,4 -4,4"/>
<!-- Node1 -->
<g id="node1" class="node">
<title>Node1</title>
<g id="a_node1"><a xlink:title=" ">
<polygon fill="#bfbfbf" stroke="black" points="92.5,-593.5 92.5,-612.5 211.5,-612.5 211.5,-593.5 92.5,-593.5"/>
<text text-anchor="middle" x="152" y="-600.5" font-family="Helvetica,sans-Serif" font-size="10.00">src/quic/msg_types.h</text>
</a>
</g>
</g>
<!-- Node2 -->
<g id="node2" class="node">
<title>Node2</title>
<g id="a_node2"><a xlink:href="rpc__connections_8h.html" target="_top" xlink:title=" ">
<polygon fill="white" stroke="black" points="0,-537.5 0,-556.5 146,-556.5 146,-537.5 0,-537.5"/>
<text text-anchor="middle" x="73" y="-544.5" font-family="Helvetica,sans-Serif" font-size="10.00">src/host/rpc_connections.h</text>
</a>
</g>
</g>
<!-- Node1&#45;&gt;Node2 -->
<g id="edge1" class="edge">
<title>Node1&#45;&gt;Node2</title>
<path fill="none" stroke="midnightblue" d="M130.97,-587.62C116.53,-577.76 97.86,-564.99 85.66,-556.65"/>
<polygon fill="midnightblue" stroke="midnightblue" points="129.08,-590.57 139.31,-593.32 133.03,-584.79 129.08,-590.57"/>
</g>
<!-- Node4 -->
<g id="node4" class="node">
<title>Node4</title>
<g id="a_node4"><a xlink:href="quic__endpoint_8h.html" target="_top" xlink:title=" ">
<polygon fill="white" stroke="black" points="164,-537.5 164,-556.5 298,-556.5 298,-537.5 164,-537.5"/>
<text text-anchor="middle" x="231" y="-544.5" font-family="Helvetica,sans-Serif" font-size="10.00">src/quic/quic_endpoint.h</text>
</a>
</g>
</g>
<!-- Node1&#45;&gt;Node4 -->
<g id="edge3" class="edge">
<title>Node1&#45;&gt;Node4</title>
<path fill="none" stroke="midnightblue" d="M173.03,-587.62C187.47,-577.76 206.14,-564.99 218.34,-556.65"/>
<polygon fill="midnightblue" stroke="midnightblue" points="170.97,-584.79 164.69,-593.32 174.92,-590.57 170.97,-584.79"/>
</g>
<!-- Node3 -->
<g id="node3" class="node">
<title>Node3</title>
<g id="a_node3"><a xlink:href="host_2main_8cpp.html" target="_top" xlink:title=" ">
<polygon fill="white" stroke="black" points="21.5,-481.5 21.5,-500.5 124.5,-500.5 124.5,-481.5 21.5,-481.5"/>
<text text-anchor="middle" x="73" y="-488.5" font-family="Helvetica,sans-Serif" font-size="10.00">src/host/main.cpp</text>
</a>
</g>
</g>
<!-- Node2&#45;&gt;Node3 -->
<g id="edge2" class="edge">
<title>Node2&#45;&gt;Node3</title>
<path fill="none" stroke="midnightblue" d="M73,-526.8C73,-517.91 73,-507.78 73,-500.75"/>
<polygon fill="midnightblue" stroke="midnightblue" points="69.5,-527.08 73,-537.08 76.5,-527.08 69.5,-527.08"/>
</g>
<!-- Node5 -->
<g id="node5" class="node">
<title>Node5</title>
<g id="a_node5"><a xlink:href="rpc__sessions_8h.html" target="_top" xlink:title=" ">
<polygon fill="white" stroke="black" points="158,-481.5 158,-500.5 304,-500.5 304,-481.5 158,-481.5"/>
<text text-anchor="middle" x="231" y="-488.5" font-family="Helvetica,sans-Serif" font-size="10.00">src/enclave/rpc_sessions.h</text>
</a>
</g>
</g>
<!-- Node4&#45;&gt;Node5 -->
<g id="edge4" class="edge">
<title>Node4&#45;&gt;Node5</title>
<path fill="none" stroke="midnightblue" d="M231,-526.8C231,-517.91 231,-507.78 231,-500.75"/>
<polygon fill="midnightblue" stroke="midnightblue" points="227.5,-527.08 231,-537.08 234.5,-527.08 227.5,-527.08"/>
</g>
<!-- Node6 -->
<g id="node6" class="node">
<title>Node6</title>
<g id="a_node6"><a xlink:href="enclave_2enclave_8h.html" target="_top" xlink:title=" ">
<polygon fill="white" stroke="black" points="167,-56.5 167,-75.5 289,-75.5 289,-56.5 167,-56.5"/>
<text text-anchor="middle" x="228" y="-63.5" font-family="Helvetica,sans-Serif" font-size="10.00">src/enclave/enclave.h</text>
</a>
</g>
</g>
<!-- Node5&#45;&gt;Node6 -->
<g id="edge5" class="edge">
<title>Node5&#45;&gt;Node6</title>
<path fill="none" stroke="midnightblue" d="M147.93,-480.62C84.54,-468.3 8,-439.89 8,-374.5 8,-374.5 8,-374.5 8,-177 8,-105.69 101.62,-80.6 166.72,-71.78"/>
<polygon fill="midnightblue" stroke="midnightblue" points="147.51,-484.11 157.98,-482.47 148.78,-477.22 147.51,-484.11"/>
</g>
<!-- Node8 -->
<g id="node8" class="node">
<title>Node8</title>
<g id="a_node8"><a xlink:href="ccf__acme__client_8h.html" target="_top" xlink:title=" ">
<polygon fill="white" stroke="black" points="563.5,-230 563.5,-249 712.5,-249 712.5,-230 563.5,-230"/>
<text text-anchor="middle" x="638" y="-237" font-family="Helvetica,sans-Serif" font-size="10.00">src/node/ccf_acme_client.h</text>
</a>
</g>
</g>
<!-- Node5&#45;&gt;Node8 -->
<g id="edge7" class="edge">
<title>Node5&#45;&gt;Node8</title>
<path fill="none" stroke="midnightblue" d="M314.46,-482.63C379.63,-475.61 463.85,-463.36 493,-445 573.28,-394.44 621.98,-281.69 634.67,-249.34"/>
<polygon fill="midnightblue" stroke="midnightblue" points="313.75,-479.18 304.17,-483.71 314.48,-486.14 313.75,-479.18"/>
</g>
<!-- Node9 -->
<g id="node9" class="node">
<title>Node9</title>
<g id="a_node9"><a xlink:href="node__state_8h.html" target="_top" xlink:title=" ">
<polygon fill="white" stroke="black" points="269,-168.5 269,-187.5 393,-187.5 393,-168.5 269,-168.5"/>
<text text-anchor="middle" x="331" y="-175.5" font-family="Helvetica,sans-Serif" font-size="10.00">src/node/node_state.h</text>
</a>
</g>
</g>
<!-- Node5&#45;&gt;Node9 -->
<g id="edge25" class="edge">
<title>Node5&#45;&gt;Node9</title>
<path fill="none" stroke="midnightblue" d="M172.5,-479.02C118.3,-465.07 46,-435.1 46,-374.5 46,-374.5 46,-374.5 46,-305.5 46,-208.74 184.95,-185.43 268.81,-180.17"/>
<polygon fill="midnightblue" stroke="midnightblue" points="171.85,-482.47 182.39,-481.45 173.51,-475.67 171.85,-482.47"/>
</g>
<!-- Node11 -->
<g id="node11" class="node">
<title>Node11</title>
<g id="a_node11"><a xlink:href="node__client_8h.html" target="_top" xlink:title=" ">
<polygon fill="white" stroke="black" points="168,-425.5 168,-444.5 294,-444.5 294,-425.5 168,-425.5"/>
<text text-anchor="middle" x="231" y="-432.5" font-family="Helvetica,sans-Serif" font-size="10.00">src/node/node_client.h</text>
</a>
</g>
</g>
<!-- Node5&#45;&gt;Node11 -->
<g id="edge12" class="edge">
<title>Node5&#45;&gt;Node11</title>
<path fill="none" stroke="midnightblue" d="M231,-470.8C231,-461.91 231,-451.78 231,-444.75"/>
<polygon fill="midnightblue" stroke="midnightblue" points="227.5,-471.08 231,-481.08 234.5,-471.08 227.5,-471.08"/>
</g>
<!-- Node18 -->
<g id="node18" class="node">
<title>Node18</title>
<g id="a_node18"><a xlink:href="resharing_8h.html" target="_top" xlink:title=" ">
<polygon fill="white" stroke="black" points="368,-425.5 368,-444.5 484,-444.5 484,-425.5 368,-425.5"/>
<text text-anchor="middle" x="426" y="-432.5" font-family="Helvetica,sans-Serif" font-size="10.00">src/node/resharing.h</text>
</a>
</g>
</g>
<!-- Node5&#45;&gt;Node18 -->
<g id="edge26" class="edge">
<title>Node5&#45;&gt;Node18</title>
<path fill="none" stroke="midnightblue" d="M271.81,-478.7C308.61,-468.51 361.93,-453.74 395.25,-444.52"/>
<polygon fill="midnightblue" stroke="midnightblue" points="270.6,-475.4 261.9,-481.44 272.47,-482.15 270.6,-475.4"/>
</g>
<!-- Node7 -->
<g id="node7" class="node">
<title>Node7</title>
<g id="a_node7"><a xlink:href="enclave_2main_8cpp.html" target="_top" xlink:title=" ">
<polygon fill="white" stroke="black" points="168,-0.5 168,-19.5 288,-19.5 288,-0.5 168,-0.5"/>
<text text-anchor="middle" x="228" y="-7.5" font-family="Helvetica,sans-Serif" font-size="10.00">src/enclave/main.cpp</text>
</a>
</g>
</g>
<!-- Node6&#45;&gt;Node7 -->
<g id="edge6" class="edge">
<title>Node6&#45;&gt;Node7</title>
<path fill="none" stroke="midnightblue" d="M228,-45.8C228,-36.91 228,-26.78 228,-19.75"/>
<polygon fill="midnightblue" stroke="midnightblue" points="224.5,-46.08 228,-56.08 231.5,-46.08 224.5,-46.08"/>
</g>
<!-- Node8&#45;&gt;Node9 -->
<g id="edge8" class="edge">
<title>Node8&#45;&gt;Node9</title>
<path fill="none" stroke="midnightblue" d="M584.06,-228.05C524.58,-216.52 430.03,-198.19 374.9,-187.51"/>
<polygon fill="midnightblue" stroke="midnightblue" points="583.53,-231.51 594.01,-229.98 584.86,-224.64 583.53,-231.51"/>
</g>
<!-- Node9&#45;&gt;Node6 -->
<g id="edge9" class="edge">
<title>Node9&#45;&gt;Node6</title>
<path fill="none" stroke="midnightblue" d="M305.92,-163.23C292.95,-155.28 277.48,-144.4 266,-132 249.83,-114.55 237.45,-89.06 231.64,-75.78"/>
<polygon fill="midnightblue" stroke="midnightblue" points="304.44,-166.42 314.83,-168.49 308,-160.39 304.44,-166.42"/>
</g>
<!-- Node10 -->
<g id="node10" class="node">
<title>Node10</title>
<g id="a_node10"><a xlink:href="gov__effects_8h.html" target="_top" xlink:title=" ">
<polygon fill="white" stroke="black" points="275,-112.5 275,-131.5 419,-131.5 419,-112.5 275,-112.5"/>
<text text-anchor="middle" x="347" y="-119.5" font-family="Helvetica,sans-Serif" font-size="10.00">src/node/rpc/gov_effects.h</text>
</a>
</g>
</g>
<!-- Node9&#45;&gt;Node10 -->
<g id="edge10" class="edge">
<title>Node9&#45;&gt;Node10</title>
<path fill="none" stroke="midnightblue" d="M336.51,-158.4C339.19,-149.36 342.28,-138.94 344.41,-131.75"/>
<polygon fill="midnightblue" stroke="midnightblue" points="333.13,-157.5 333.64,-168.08 339.84,-159.49 333.13,-157.5"/>
</g>
<!-- Node10&#45;&gt;Node6 -->
<g id="edge11" class="edge">
<title>Node10&#45;&gt;Node6</title>
<path fill="none" stroke="midnightblue" d="M318.86,-108.23C296.6,-98.13 266.14,-84.31 246.77,-75.52"/>
<polygon fill="midnightblue" stroke="midnightblue" points="317.59,-111.5 328.14,-112.44 320.48,-105.12 317.59,-111.5"/>
</g>
<!-- Node12 -->
<g id="node12" class="node">
<title>Node12</title>
<g id="a_node12"><a xlink:href="orc__requests_8h.html" target="_top" xlink:title=" ">
<polygon fill="white" stroke="black" points="258.5,-358.5 258.5,-388.5 377.5,-388.5 377.5,-358.5 258.5,-358.5"/>
<text text-anchor="start" x="266.5" y="-376.5" font-family="Helvetica,sans-Serif" font-size="10.00">src/consensus/aft/orc</text>
<text text-anchor="middle" x="318" y="-365.5" font-family="Helvetica,sans-Serif" font-size="10.00">_requests.h</text>
</a>
</g>
</g>
<!-- Node11&#45;&gt;Node12 -->
<g id="edge13" class="edge">
<title>Node11&#45;&gt;Node12</title>
<path fill="none" stroke="midnightblue" d="M251.85,-419.74C265.68,-410.28 283.74,-397.93 297.5,-388.52"/>
<polygon fill="midnightblue" stroke="midnightblue" points="249.74,-416.94 243.46,-425.48 253.7,-422.72 249.74,-416.94"/>
</g>
<!-- Node13 -->
<g id="node13" class="node">
<title>Node13</title>
<g id="a_node13"><a xlink:href="raft_8h.html" target="_top" xlink:title=" ">
<polygon fill="white" stroke="black" points="74.5,-297 74.5,-316 203.5,-316 203.5,-297 74.5,-297"/>
<text text-anchor="middle" x="139" y="-304" font-family="Helvetica,sans-Serif" font-size="10.00">src/consensus/aft/raft.h</text>
</a>
</g>
</g>
<!-- Node11&#45;&gt;Node13 -->
<g id="edge20" class="edge">
<title>Node11&#45;&gt;Node13</title>
<path fill="none" stroke="midnightblue" d="M158.12,-424.65C136.88,-418.15 115.93,-407.25 103,-389 86.01,-365.02 114.07,-331.74 129.67,-316.18"/>
<polygon fill="midnightblue" stroke="midnightblue" points="157.3,-428.05 167.87,-427.33 159.16,-421.31 157.3,-428.05"/>
</g>
<!-- Node16 -->
<g id="node16" class="node">
<title>Node16</title>
<g id="a_node16"><a xlink:href="http__node__client_8h.html" target="_top" xlink:title=" ">
<polygon fill="white" stroke="black" points="398,-291.5 398,-321.5 508,-321.5 508,-291.5 398,-291.5"/>
<text text-anchor="start" x="406" y="-309.5" font-family="Helvetica,sans-Serif" font-size="10.00">src/node/http_node</text>
<text text-anchor="middle" x="453" y="-298.5" font-family="Helvetica,sans-Serif" font-size="10.00">_client.h</text>
</a>
</g>
</g>
<!-- Node11&#45;&gt;Node16 -->
<g id="edge21" class="edge">
<title>Node11&#45;&gt;Node16</title>
<path fill="none" stroke="midnightblue" d="M299.95,-423.26C328.27,-416.57 360.36,-405.9 386,-389 412.77,-371.36 434.25,-339.75 445.16,-321.52"/>
<polygon fill="midnightblue" stroke="midnightblue" points="299.1,-419.86 290.11,-425.46 300.63,-426.69 299.1,-419.86"/>
</g>
<!-- Node17 -->
<g id="node17" class="node">
<title>Node17</title>
<g id="a_node17"><a xlink:href="retired__nodes__cleanup_8h.html" target="_top" xlink:title=" ">
<polygon fill="white" stroke="black" points="112,-358.5 112,-388.5 240,-388.5 240,-358.5 112,-358.5"/>
<text text-anchor="start" x="120" y="-376.5" font-family="Helvetica,sans-Serif" font-size="10.00">src/node/retired_nodes</text>
<text text-anchor="middle" x="176" y="-365.5" font-family="Helvetica,sans-Serif" font-size="10.00">_cleanup.h</text>
</a>
</g>
</g>
<!-- Node11&#45;&gt;Node17 -->
<g id="edge23" class="edge">
<title>Node11&#45;&gt;Node17</title>
<path fill="none" stroke="midnightblue" d="M216.29,-418.09C207.78,-408.88 197.16,-397.39 188.96,-388.52"/>
<polygon fill="midnightblue" stroke="midnightblue" points="213.76,-420.51 223.12,-425.48 218.9,-415.76 213.76,-420.51"/>
</g>
<!-- Node12&#45;&gt;Node13 -->
<g id="edge14" class="edge">
<title>Node12&#45;&gt;Node13</title>
<path fill="none" stroke="midnightblue" d="M269.66,-354.95C234.89,-342.32 189.53,-325.85 162.43,-316.01"/>
<polygon fill="midnightblue" stroke="midnightblue" points="268.57,-358.27 279.16,-358.4 270.95,-351.69 268.57,-358.27"/>
</g>
<!-- Node14 -->
<g id="node14" class="node">
<title>Node14</title>
<g id="a_node14"><a xlink:href="node__frontend_8h.html" target="_top" xlink:title=" ">
<polygon fill="white" stroke="black" points="222,-297 222,-316 380,-316 380,-297 222,-297"/>
<text text-anchor="middle" x="301" y="-304" font-family="Helvetica,sans-Serif" font-size="10.00">src/node/rpc/node_frontend.h</text>
</a>
</g>
</g>
<!-- Node12&#45;&gt;Node14 -->
<g id="edge16" class="edge">
<title>Node12&#45;&gt;Node14</title>
<path fill="none" stroke="midnightblue" d="M311.75,-348.6C308.79,-337.28 305.44,-324.46 303.27,-316.19"/>
<polygon fill="midnightblue" stroke="midnightblue" points="308.39,-349.61 314.31,-358.4 315.17,-347.84 308.39,-349.61"/>
</g>
<!-- Node13&#45;&gt;Node9 -->
<g id="edge15" class="edge">
<title>Node13&#45;&gt;Node9</title>
<path fill="none" stroke="midnightblue" d="M156.43,-290.36C176.69,-273.16 211.5,-244.77 244,-224 266.5,-209.62 294.12,-195.95 312.12,-187.53"/>
<polygon fill="midnightblue" stroke="midnightblue" points="154,-287.83 148.69,-297 158.56,-293.15 154,-287.83"/>
</g>
<!-- Node14&#45;&gt;Node6 -->
<g id="edge17" class="edge">
<title>Node14&#45;&gt;Node6</title>
<path fill="none" stroke="midnightblue" d="M277.48,-291.08C265.3,-282.26 251.45,-269.83 244,-255 212.69,-192.65 222.41,-103.91 226.55,-75.85"/>
<polygon fill="midnightblue" stroke="midnightblue" points="275.7,-294.1 285.94,-296.84 279.65,-288.32 275.7,-294.1"/>
</g>
<!-- Node15 -->
<g id="node15" class="node">
<title>Node15</title>
<g id="a_node15"><a xlink:href="jwt__key__auto__refresh_8h.html" target="_top" xlink:title=" ">
<polygon fill="white" stroke="black" points="253.5,-224.5 253.5,-254.5 378.5,-254.5 378.5,-224.5 253.5,-224.5"/>
<text text-anchor="start" x="261.5" y="-242.5" font-family="Helvetica,sans-Serif" font-size="10.00">src/node/jwt_key_auto</text>
<text text-anchor="middle" x="316" y="-231.5" font-family="Helvetica,sans-Serif" font-size="10.00">_refresh.h</text>
</a>
</g>
</g>
<!-- Node14&#45;&gt;Node15 -->
<g id="edge18" class="edge">
<title>Node14&#45;&gt;Node15</title>
<path fill="none" stroke="midnightblue" d="M305.33,-286.74C307.7,-276.49 310.58,-264 312.75,-254.59"/>
<polygon fill="midnightblue" stroke="midnightblue" points="301.86,-286.2 303.02,-296.73 308.68,-287.78 301.86,-286.2"/>
</g>
<!-- Node15&#45;&gt;Node9 -->
<g id="edge19" class="edge">
<title>Node15&#45;&gt;Node9</title>
<path fill="none" stroke="midnightblue" d="M322.03,-214.59C324.43,-205.08 327.03,-194.73 328.82,-187.66"/>
<polygon fill="midnightblue" stroke="midnightblue" points="318.61,-213.85 319.55,-224.4 325.39,-215.56 318.61,-213.85"/>
</g>
<!-- Node16&#45;&gt;Node9 -->
<g id="edge22" class="edge">
<title>Node16&#45;&gt;Node9</title>
<path fill="none" stroke="midnightblue" d="M437.02,-283.25C424.33,-266.23 405.67,-242.6 387,-224 373.04,-210.09 354.98,-196.21 343.2,-187.62"/>
<polygon fill="midnightblue" stroke="midnightblue" points="434.34,-285.5 443.08,-291.48 439.98,-281.35 434.34,-285.5"/>
</g>
<!-- Node17&#45;&gt;Node13 -->
<g id="edge24" class="edge">
<title>Node17&#45;&gt;Node13</title>
<path fill="none" stroke="midnightblue" d="M162.98,-349.63C156.4,-338.07 148.8,-324.71 143.95,-316.19"/>
<polygon fill="midnightblue" stroke="midnightblue" points="159.98,-351.44 167.97,-358.4 166.07,-347.97 159.98,-351.44"/>
</g>
<!-- Node18&#45;&gt;Node9 -->
<g id="edge27" class="edge">
<title>Node18&#45;&gt;Node9</title>
<path fill="none" stroke="midnightblue" d="M447.82,-419.1C482.36,-393.56 543.17,-339.5 517,-291 485.23,-232.12 408.1,-201.05 363.78,-187.53"/>
<polygon fill="midnightblue" stroke="midnightblue" points="445.35,-416.56 439.27,-425.24 449.43,-422.25 445.35,-416.56"/>
</g>
</g>
</svg>
        <g id="navigator" transform="translate(0 0)" fill="#404254">
                <rect fill="#f2f5e9" fill-opacity="0.5" stroke="#606060" stroke-width=".5" x="0" y="0" width="60" height="60"/>
                <use id="zoomplus" xlink:href="#zoomPlus" x="17" y="9" onmousedown="handleZoom(evt,'in')"/>
                <use id="zoomminus" xlink:href="#zoomMin" x="42" y="9" onmousedown="handleZoom(evt,'out')"/>
                <use id="reset" xlink:href="#resetDef" x="30" y="36" onmousedown="handleReset()"/>
                <g id="arrowUp" xlink:href="#dirArrow" transform="translate(30 24)" onmousedown="handlePan(0,-1)">
                  <use xlink:href="#rim" fill="#404040">
                        <set attributeName="fill" to="#808080" begin="arrowUp.mouseover" end="arrowUp.mouseout"/>
                  </use>
                  <path fill="none" stroke="white" stroke-width="1.5" d="M0,-3.0v7 M-2.5,-0.5L0,-3.0L2.5,-0.5"/>
                </g>
                <g id="arrowRight" xlink:href="#dirArrow" transform="rotate(90) translate(36 -43)" onmousedown="handlePan(1,0)">
                  <use xlink:href="#rim" fill="#404040">
                        <set attributeName="fill" to="#808080" begin="arrowRight.mouseover" end="arrowRight.mouseout"/>
                  </use>
                  <path fill="none" stroke="white" stroke-width="1.5" d="M0,-3.0v7 M-2.5,-0.5L0,-3.0L2.5,-0.5"/>
                </g>
                <g id="arrowDown" xlink:href="#dirArrow" transform="rotate(180) translate(-30 -48)" onmousedown="handlePan(0,1)">
                  <use xlink:href="#rim" fill="#404040">
                        <set attributeName="fill" to="#808080" begin="arrowDown.mouseover" end="arrowDown.mouseout"/>
                  </use>
                  <path fill="none" stroke="white" stroke-width="1.5" d="M0,-3.0v7 M-2.5,-0.5L0,-3.0L2.5,-0.5"/>
                </g>
                <g id="arrowLeft" xlink:href="#dirArrow" transform="rotate(270) translate(-36 17)" onmousedown="handlePan(-1,0)">
                  <use xlink:href="#rim" fill="#404040">
                        <set attributeName="fill" to="#808080" begin="arrowLeft.mouseover" end="arrowLeft.mouseout"/>
                  </use>
                  <path fill="none" stroke="white" stroke-width="1.5" d="M0,-3.0v7 M-2.5,-0.5L0,-3.0L2.5,-0.5"/>
                </g>
        </g>
        <svg viewBox="0 0 15 15" width="100%" height="30px" preserveAspectRatio="xMaxYMin meet">
         <g id="arrow_out" transform="scale(0.3 0.3)">
          <a xlink:href="quic_2msg__types_8h__dep__incl_org.svg" target="_base">
           <rect id="button" ry="5" rx="5" y="6" x="6" height="38" width="38"
                fill="#f2f5e9" fill-opacity="0.5" stroke="#606060" stroke-width="1.0"/>
           <path id="arrow"
             d="M 11.500037,31.436501 C 11.940474,20.09759 22.043105,11.32322 32.158766,21.979434 L 37.068811,17.246167 C 37.068811,17.246167 37.088388,32 37.088388,32 L 22.160133,31.978069 C 22.160133,31.978069 26.997745,27.140456 26.997745,27.140456 C 18.528582,18.264221 13.291696,25.230495 11.500037,31.436501 z"
             style="fill:#404040;"/>
          </a>
         </g>
        </svg>
</svg>
