<?xml version="1.0" encoding="UTF-8" standalone="no"?>
<!DOCTYPE svg PUBLIC "-//W3C//DTD SVG 1.1//EN"
 "http://www.w3.org/Graphics/SVG/1.1/DTD/svg11.dtd">
<!-- Generated by graphviz version 2.43.0 (0)
 -->
<!-- Title: src/node/rpc/rpc_context_impl.h Pages: 1 -->
<svg width="1061pt" height="710pt"
 viewBox="0.00 0.00 1061.19 710.00" xmlns="http://www.w3.org/2000/svg" xmlns:xlink="http://www.w3.org/1999/xlink">
<g id="graph0" class="graph" transform="scale(1 1) rotate(0) translate(4 706)">
<title>src/node/rpc/rpc_context_impl.h</title>
<polygon fill="white" stroke="transparent" points="-4,4 -4,-706 1057.19,-706 1057.19,4 -4,4"/>
<!-- Node1 -->
<g id="node1" class="node">
<title>Node1</title>
<g id="a_node1"><a xlink:title=" ">
<polygon fill="#bfbfbf" stroke="black" points="194,-671.5 194,-701.5 330,-701.5 330,-671.5 194,-671.5"/>
<text text-anchor="start" x="202" y="-689.5" font-family="Helvetica,sans-Serif" font-size="10.00">src/node/rpc/rpc_context</text>
<text text-anchor="middle" x="262" y="-678.5" font-family="Helvetica,sans-Serif" font-size="10.00">_impl.h</text>
</a>
</g>
</g>
<!-- Node2 -->
<g id="node2" class="node">
<title>Node2</title>
<g id="a_node2"><a xlink:href="js__generic__base_8cpp.html" target="_top" xlink:title=" ">
<polygon fill="white" stroke="black" points="0,-604.5 0,-634.5 118,-634.5 118,-604.5 0,-604.5"/>
<text text-anchor="start" x="8" y="-622.5" font-family="Helvetica,sans-Serif" font-size="10.00">src/apps/js_generic</text>
<text text-anchor="middle" x="59" y="-611.5" font-family="Helvetica,sans-Serif" font-size="10.00">/js_generic_base.cpp</text>
</a>
</g>
</g>
<!-- Node1&#45;&gt;Node2 -->
<g id="edge1" class="edge">
<title>Node1&#45;&gt;Node2</title>
<path fill="none" stroke="midnightblue" d="M208.06,-668.23C175.22,-657.71 133.8,-644.45 102.96,-634.58"/>
<polygon fill="midnightblue" stroke="midnightblue" points="207.36,-671.68 217.95,-671.4 209.5,-665.01 207.36,-671.68"/>
</g>
<!-- Node3 -->
<g id="node3" class="node">
<title>Node3</title>
<g id="a_node3"><a xlink:href="js__v8__base_8cpp.html" target="_top" xlink:title=" ">
<polygon fill="white" stroke="black" points="136,-604.5 136,-634.5 250,-634.5 250,-604.5 136,-604.5"/>
<text text-anchor="start" x="144" y="-622.5" font-family="Helvetica,sans-Serif" font-size="10.00">src/apps/js_v8/js_v8</text>
<text text-anchor="middle" x="193" y="-611.5" font-family="Helvetica,sans-Serif" font-size="10.00">_base.cpp</text>
</a>
</g>
</g>
<!-- Node1&#45;&gt;Node3 -->
<g id="edge2" class="edge">
<title>Node1&#45;&gt;Node3</title>
<path fill="none" stroke="midnightblue" d="M239.51,-664.31C229.16,-654.56 217.16,-643.26 207.94,-634.58"/>
<polygon fill="midnightblue" stroke="midnightblue" points="237.35,-667.09 247.03,-671.4 242.15,-661.99 237.35,-667.09"/>
</g>
<!-- Node4 -->
<g id="node4" class="node">
<title>Node4</title>
<g id="a_node4"><a xlink:href="endpoint__registry_8cpp.html" target="_top" xlink:title=" ">
<polygon fill="white" stroke="black" points="268,-604.5 268,-634.5 396,-634.5 396,-604.5 268,-604.5"/>
<text text-anchor="start" x="276" y="-622.5" font-family="Helvetica,sans-Serif" font-size="10.00">src/endpoints/endpoint</text>
<text text-anchor="middle" x="332" y="-611.5" font-family="Helvetica,sans-Serif" font-size="10.00">_registry.cpp</text>
</a>
</g>
</g>
<!-- Node1&#45;&gt;Node4 -->
<g id="edge3" class="edge">
<title>Node1&#45;&gt;Node4</title>
<path fill="none" stroke="midnightblue" d="M284.82,-664.31C295.32,-654.56 307.49,-643.26 316.84,-634.58"/>
<polygon fill="midnightblue" stroke="midnightblue" points="282.14,-662.03 277.19,-671.4 286.9,-667.16 282.14,-662.03"/>
</g>
<!-- Node5 -->
<g id="node5" class="node">
<title>Node5</title>
<g id="a_node5"><a xlink:href="http__rpc__context_8h.html" target="_top" xlink:title=" ">
<polygon fill="white" stroke="black" points="414.5,-610 414.5,-629 561.5,-629 561.5,-610 414.5,-610"/>
<text text-anchor="middle" x="488" y="-617" font-family="Helvetica,sans-Serif" font-size="10.00">src/http/http_rpc_context.h</text>
</a>
</g>
</g>
<!-- Node1&#45;&gt;Node5 -->
<g id="edge4" class="edge">
<title>Node1&#45;&gt;Node5</title>
<path fill="none" stroke="midnightblue" d="M320.51,-668.67C364.68,-655.97 423.45,-639.06 458.35,-629.03"/>
<polygon fill="midnightblue" stroke="midnightblue" points="319.4,-665.35 310.76,-671.48 321.34,-672.08 319.4,-665.35"/>
</g>
<!-- Node6 -->
<g id="node6" class="node">
<title>Node6</title>
<g id="a_node6"><a xlink:href="http__endpoint_8h.html" target="_top" xlink:title=" ">
<polygon fill="white" stroke="black" points="324.5,-548.5 324.5,-567.5 457.5,-567.5 457.5,-548.5 324.5,-548.5"/>
<text text-anchor="middle" x="391" y="-555.5" font-family="Helvetica,sans-Serif" font-size="10.00">src/http/http_endpoint.h</text>
</a>
</g>
</g>
<!-- Node5&#45;&gt;Node6 -->
<g id="edge5" class="edge">
<title>Node5&#45;&gt;Node6</title>
<path fill="none" stroke="midnightblue" d="M465.57,-604.74C446.84,-593.25 420.71,-577.22 404.87,-567.51"/>
<polygon fill="midnightblue" stroke="midnightblue" points="463.75,-607.73 474.1,-609.98 467.41,-601.76 463.75,-607.73"/>
</g>
<!-- Node17 -->
<g id="node17" class="node">
<title>Node17</title>
<g id="a_node17"><a xlink:href="jwt__key__auto__refresh_8h.html" target="_top" xlink:title=" ">
<polygon fill="white" stroke="black" points="648.5,-235.5 648.5,-265.5 773.5,-265.5 773.5,-235.5 648.5,-235.5"/>
<text text-anchor="start" x="656.5" y="-253.5" font-family="Helvetica,sans-Serif" font-size="10.00">src/node/jwt_key_auto</text>
<text text-anchor="middle" x="711" y="-242.5" font-family="Helvetica,sans-Serif" font-size="10.00">_refresh.h</text>
</a>
</g>
</g>
<!-- Node5&#45;&gt;Node17 -->
<g id="edge32" class="edge">
<title>Node5&#45;&gt;Node17</title>
<path fill="none" stroke="midnightblue" d="M488,-599.94C488,-576.19 488,-533.79 488,-497.5 488,-497.5 488,-497.5 488,-372.5 488,-299.16 582.33,-270.04 648.29,-258.64"/>
<polygon fill="midnightblue" stroke="midnightblue" points="484.5,-599.99 488,-609.99 491.5,-599.99 484.5,-599.99"/>
</g>
<!-- Node23 -->
<g id="node23" class="node">
<title>Node23</title>
<g id="a_node23"><a xlink:href="forwarder_8h.html" target="_top" xlink:title=" ">
<polygon fill="white" stroke="black" points="873,-425.5 873,-444.5 1007,-444.5 1007,-425.5 873,-425.5"/>
<text text-anchor="middle" x="940" y="-432.5" font-family="Helvetica,sans-Serif" font-size="10.00">src/node/rpc/forwarder.h</text>
</a>
</g>
</g>
<!-- Node5&#45;&gt;Node23 -->
<g id="edge33" class="edge">
<title>Node5&#45;&gt;Node23</title>
<path fill="none" stroke="midnightblue" d="M518.64,-606.13C604.5,-571.46 845.89,-474 918.85,-444.54"/>
<polygon fill="midnightblue" stroke="midnightblue" points="517.16,-602.95 509.19,-609.94 519.78,-609.44 517.16,-602.95"/>
</g>
<!-- Node7 -->
<g id="node7" class="node">
<title>Node7</title>
<g id="a_node7"><a xlink:href="rpc__sessions_8h.html" target="_top" xlink:title=" ">
<polygon fill="white" stroke="black" points="158,-487 158,-506 304,-506 304,-487 158,-487"/>
<text text-anchor="middle" x="231" y="-494" font-family="Helvetica,sans-Serif" font-size="10.00">src/enclave/rpc_sessions.h</text>
</a>
</g>
</g>
<!-- Node6&#45;&gt;Node7 -->
<g id="edge6" class="edge">
<title>Node6&#45;&gt;Node7</title>
<path fill="none" stroke="midnightblue" d="M358.55,-544.93C327.45,-533.37 281.31,-516.21 253.88,-506.01"/>
<polygon fill="midnightblue" stroke="midnightblue" points="357.48,-548.27 368.08,-548.48 359.92,-541.71 357.48,-548.27"/>
</g>
<!-- Node21 -->
<g id="node21" class="node">
<title>Node21</title>
<g id="a_node21"><a xlink:href="acme__challenge__server_8h.html" target="_top" xlink:title=" ">
<polygon fill="white" stroke="black" points="322.5,-481.5 322.5,-511.5 459.5,-511.5 459.5,-481.5 322.5,-481.5"/>
<text text-anchor="start" x="330.5" y="-499.5" font-family="Helvetica,sans-Serif" font-size="10.00">src/host/acme_challenge</text>
<text text-anchor="middle" x="391" y="-488.5" font-family="Helvetica,sans-Serif" font-size="10.00">_server.h</text>
</a>
</g>
</g>
<!-- Node6&#45;&gt;Node21 -->
<g id="edge30" class="edge">
<title>Node6&#45;&gt;Node21</title>
<path fill="none" stroke="midnightblue" d="M391,-538.23C391,-529.59 391,-519.5 391,-511.52"/>
<polygon fill="midnightblue" stroke="midnightblue" points="387.5,-538.48 391,-548.48 394.5,-538.48 387.5,-538.48"/>
</g>
<!-- Node8 -->
<g id="node8" class="node">
<title>Node8</title>
<g id="a_node8"><a xlink:href="enclave_2enclave_8h.html" target="_top" xlink:title=" ">
<polygon fill="white" stroke="black" points="741,-56.5 741,-75.5 863,-75.5 863,-56.5 741,-56.5"/>
<text text-anchor="middle" x="802" y="-63.5" font-family="Helvetica,sans-Serif" font-size="10.00">src/enclave/enclave.h</text>
</a>
</g>
</g>
<!-- Node7&#45;&gt;Node8 -->
<g id="edge7" class="edge">
<title>Node7&#45;&gt;Node8</title>
<path fill="none" stroke="midnightblue" d="M203.53,-482.13C169.23,-463.29 115,-425.44 115,-374.5 115,-374.5 115,-374.5 115,-182.5 115,-119.34 572.35,-82.36 740.73,-70.88"/>
<polygon fill="midnightblue" stroke="midnightblue" points="202.14,-485.36 212.62,-486.94 205.42,-479.17 202.14,-485.36"/>
</g>
<!-- Node10 -->
<g id="node10" class="node">
<title>Node10</title>
<g id="a_node10"><a xlink:href="ccf__acme__client_8h.html" target="_top" xlink:title=" ">
<polygon fill="white" stroke="black" points="314.5,-241 314.5,-260 463.5,-260 463.5,-241 314.5,-241"/>
<text text-anchor="middle" x="389" y="-248" font-family="Helvetica,sans-Serif" font-size="10.00">src/node/ccf_acme_client.h</text>
</a>
</g>
</g>
<!-- Node7&#45;&gt;Node10 -->
<g id="edge9" class="edge">
<title>Node7&#45;&gt;Node10</title>
<path fill="none" stroke="midnightblue" d="M256.62,-481.54C271.13,-472.62 288.77,-459.93 301,-445 351.28,-383.62 379.18,-288.86 386.82,-260.08"/>
<polygon fill="midnightblue" stroke="midnightblue" points="254.46,-478.75 247.62,-486.85 258.01,-484.78 254.46,-478.75"/>
</g>
<!-- Node11 -->
<g id="node11" class="node">
<title>Node11</title>
<g id="a_node11"><a xlink:href="node__state_8h.html" target="_top" xlink:title=" ">
<polygon fill="white" stroke="black" points="540,-174 540,-193 664,-193 664,-174 540,-174"/>
<text text-anchor="middle" x="602" y="-181" font-family="Helvetica,sans-Serif" font-size="10.00">src/node/node_state.h</text>
</a>
</g>
</g>
<!-- Node7&#45;&gt;Node11 -->
<g id="edge27" class="edge">
<title>Node7&#45;&gt;Node11</title>
<path fill="none" stroke="midnightblue" d="M244.55,-478.62C261.12,-456.21 287,-414.78 287,-374.5 287,-374.5 287,-374.5 287,-311 287,-276.18 280.46,-258.67 306,-235 339.17,-204.26 463.34,-191.99 539.92,-187.28"/>
<polygon fill="midnightblue" stroke="midnightblue" points="241.63,-476.67 238.32,-486.74 247.18,-480.93 241.63,-476.67"/>
</g>
<!-- Node13 -->
<g id="node13" class="node">
<title>Node13</title>
<g id="a_node13"><a xlink:href="node__client_8h.html" target="_top" xlink:title=" ">
<polygon fill="white" stroke="black" points="516,-425.5 516,-444.5 642,-444.5 642,-425.5 516,-425.5"/>
<text text-anchor="middle" x="579" y="-432.5" font-family="Helvetica,sans-Serif" font-size="10.00">src/node/node_client.h</text>
</a>
</g>
</g>
<!-- Node7&#45;&gt;Node13 -->
<g id="edge14" class="edge">
<title>Node7&#45;&gt;Node13</title>
<path fill="none" stroke="midnightblue" d="M289.61,-485.23C297.8,-483.8 306.11,-482.36 314,-481 388.5,-468.17 474.83,-453.56 528.19,-444.56"/>
<polygon fill="midnightblue" stroke="midnightblue" points="288.96,-481.79 279.71,-486.95 290.16,-488.68 288.96,-481.79"/>
</g>
<!-- Node20 -->
<g id="node20" class="node">
<title>Node20</title>
<g id="a_node20"><a xlink:href="resharing_8h.html" target="_top" xlink:title=" ">
<polygon fill="white" stroke="black" points="143,-241 143,-260 259,-260 259,-241 143,-241"/>
<text text-anchor="middle" x="201" y="-248" font-family="Helvetica,sans-Serif" font-size="10.00">src/node/resharing.h</text>
</a>
</g>
</g>
<!-- Node7&#45;&gt;Node20 -->
<g id="edge28" class="edge">
<title>Node7&#45;&gt;Node20</title>
<path fill="none" stroke="midnightblue" d="M228.68,-476.59C222.59,-427.07 206.35,-295.02 202.05,-260.08"/>
<polygon fill="midnightblue" stroke="midnightblue" points="225.24,-477.32 229.93,-486.82 232.19,-476.46 225.24,-477.32"/>
</g>
<!-- Node9 -->
<g id="node9" class="node">
<title>Node9</title>
<g id="a_node9"><a xlink:href="enclave_2main_8cpp.html" target="_top" xlink:title=" ">
<polygon fill="white" stroke="black" points="742,-0.5 742,-19.5 862,-19.5 862,-0.5 742,-0.5"/>
<text text-anchor="middle" x="802" y="-7.5" font-family="Helvetica,sans-Serif" font-size="10.00">src/enclave/main.cpp</text>
</a>
</g>
</g>
<!-- Node8&#45;&gt;Node9 -->
<g id="edge8" class="edge">
<title>Node8&#45;&gt;Node9</title>
<path fill="none" stroke="midnightblue" d="M802,-45.8C802,-36.91 802,-26.78 802,-19.75"/>
<polygon fill="midnightblue" stroke="midnightblue" points="798.5,-46.08 802,-56.08 805.5,-46.08 798.5,-46.08"/>
</g>
<!-- Node10&#45;&gt;Node11 -->
<g id="edge10" class="edge">
<title>Node10&#45;&gt;Node11</title>
<path fill="none" stroke="midnightblue" d="M426.92,-237.93C469.09,-225.06 536.23,-204.57 573.94,-193.06"/>
<polygon fill="midnightblue" stroke="midnightblue" points="425.83,-234.6 417.28,-240.87 427.87,-241.3 425.83,-234.6"/>
</g>
<!-- Node11&#45;&gt;Node8 -->
<g id="edge11" class="edge">
<title>Node11&#45;&gt;Node8</title>
<path fill="none" stroke="midnightblue" d="M602.06,-163.5C603.16,-147.6 607.31,-125.43 621,-112 637.99,-95.34 695.15,-82.97 740.74,-75.46"/>
<polygon fill="midnightblue" stroke="midnightblue" points="598.56,-163.64 601.71,-173.75 605.55,-163.88 598.56,-163.64"/>
</g>
<!-- Node12 -->
<g id="node12" class="node">
<title>Node12</title>
<g id="a_node12"><a xlink:href="gov__effects_8h.html" target="_top" xlink:title=" ">
<polygon fill="white" stroke="black" points="630,-112.5 630,-131.5 774,-131.5 774,-112.5 630,-112.5"/>
<text text-anchor="middle" x="702" y="-119.5" font-family="Helvetica,sans-Serif" font-size="10.00">src/node/rpc/gov_effects.h</text>
</a>
</g>
</g>
<!-- Node11&#45;&gt;Node12 -->
<g id="edge12" class="edge">
<title>Node11&#45;&gt;Node12</title>
<path fill="none" stroke="midnightblue" d="M625.12,-168.74C644.44,-157.25 671.37,-141.22 687.7,-131.51"/>
<polygon fill="midnightblue" stroke="midnightblue" points="623.13,-165.85 616.33,-173.98 626.71,-171.87 623.13,-165.85"/>
</g>
<!-- Node12&#45;&gt;Node8 -->
<g id="edge13" class="edge">
<title>Node12&#45;&gt;Node8</title>
<path fill="none" stroke="midnightblue" d="M727.09,-107.45C745.55,-97.48 770.1,-84.23 785.97,-75.65"/>
<polygon fill="midnightblue" stroke="midnightblue" points="725.2,-104.49 718.07,-112.32 728.53,-110.65 725.2,-104.49"/>
</g>
<!-- Node14 -->
<g id="node14" class="node">
<title>Node14</title>
<g id="a_node14"><a xlink:href="orc__requests_8h.html" target="_top" xlink:title=" ">
<polygon fill="white" stroke="black" points="738.5,-358.5 738.5,-388.5 857.5,-388.5 857.5,-358.5 738.5,-358.5"/>
<text text-anchor="start" x="746.5" y="-376.5" font-family="Helvetica,sans-Serif" font-size="10.00">src/consensus/aft/orc</text>
<text text-anchor="middle" x="798" y="-365.5" font-family="Helvetica,sans-Serif" font-size="10.00">_requests.h</text>
</a>
</g>
</g>
<!-- Node13&#45;&gt;Node14 -->
<g id="edge15" class="edge">
<title>Node13&#45;&gt;Node14</title>
<path fill="none" stroke="midnightblue" d="M620.47,-422.73C656.21,-413.02 707.97,-398.96 746.39,-388.52"/>
<polygon fill="midnightblue" stroke="midnightblue" points="619.11,-419.48 610.38,-425.48 620.95,-426.23 619.11,-419.48"/>
</g>
<!-- Node15 -->
<g id="node15" class="node">
<title>Node15</title>
<g id="a_node15"><a xlink:href="raft_8h.html" target="_top" xlink:title=" ">
<polygon fill="white" stroke="black" points="562.5,-302.5 562.5,-321.5 691.5,-321.5 691.5,-302.5 562.5,-302.5"/>
<text text-anchor="middle" x="627" y="-309.5" font-family="Helvetica,sans-Serif" font-size="10.00">src/consensus/aft/raft.h</text>
</a>
</g>
</g>
<!-- Node13&#45;&gt;Node15 -->
<g id="edge22" class="edge">
<title>Node13&#45;&gt;Node15</title>
<path fill="none" stroke="midnightblue" d="M576.39,-414.93C575.03,-399.02 575.06,-376.11 583,-358 589.67,-342.79 603.93,-329.78 614.42,-321.72"/>
<polygon fill="midnightblue" stroke="midnightblue" points="572.93,-415.56 577.52,-425.11 579.89,-414.78 572.93,-415.56"/>
</g>
<!-- Node18 -->
<g id="node18" class="node">
<title>Node18</title>
<g id="a_node18"><a xlink:href="http__node__client_8h.html" target="_top" xlink:title=" ">
<polygon fill="white" stroke="black" points="482,-235.5 482,-265.5 592,-265.5 592,-235.5 482,-235.5"/>
<text text-anchor="start" x="490" y="-253.5" font-family="Helvetica,sans-Serif" font-size="10.00">src/node/http_node</text>
<text text-anchor="middle" x="537" y="-242.5" font-family="Helvetica,sans-Serif" font-size="10.00">_client.h</text>
</a>
</g>
</g>
<!-- Node13&#45;&gt;Node18 -->
<g id="edge23" class="edge">
<title>Node13&#45;&gt;Node18</title>
<path fill="none" stroke="midnightblue" d="M574.71,-415.36C566.29,-378.78 547.78,-298.35 540.27,-265.69"/>
<polygon fill="midnightblue" stroke="midnightblue" points="571.32,-416.24 576.97,-425.2 578.14,-414.67 571.32,-416.24"/>
</g>
<!-- Node19 -->
<g id="node19" class="node">
<title>Node19</title>
<g id="a_node19"><a xlink:href="retired__nodes__cleanup_8h.html" target="_top" xlink:title=" ">
<polygon fill="white" stroke="black" points="592,-358.5 592,-388.5 720,-388.5 720,-358.5 592,-358.5"/>
<text text-anchor="start" x="600" y="-376.5" font-family="Helvetica,sans-Serif" font-size="10.00">src/node/retired_nodes</text>
<text text-anchor="middle" x="656" y="-365.5" font-family="Helvetica,sans-Serif" font-size="10.00">_cleanup.h</text>
</a>
</g>
</g>
<!-- Node13&#45;&gt;Node19 -->
<g id="edge25" class="edge">
<title>Node13&#45;&gt;Node19</title>
<path fill="none" stroke="midnightblue" d="M598.16,-419.2C610.3,-409.81 625.91,-397.75 637.85,-388.52"/>
<polygon fill="midnightblue" stroke="midnightblue" points="595.81,-416.59 590.03,-425.48 600.09,-422.13 595.81,-416.59"/>
</g>
<!-- Node14&#45;&gt;Node15 -->
<g id="edge16" class="edge">
<title>Node14&#45;&gt;Node15</title>
<path fill="none" stroke="midnightblue" d="M747.95,-355.09C716.38,-344.1 676.96,-330.39 651.88,-321.66"/>
<polygon fill="midnightblue" stroke="midnightblue" points="746.88,-358.42 757.48,-358.4 749.18,-351.81 746.88,-358.42"/>
</g>
<!-- Node16 -->
<g id="node16" class="node">
<title>Node16</title>
<g id="a_node16"><a xlink:href="node__frontend_8h.html" target="_top" xlink:title=" ">
<polygon fill="white" stroke="black" points="716,-302.5 716,-321.5 874,-321.5 874,-302.5 716,-302.5"/>
<text text-anchor="middle" x="795" y="-309.5" font-family="Helvetica,sans-Serif" font-size="10.00">src/node/rpc/node_frontend.h</text>
</a>
</g>
</g>
<!-- Node14&#45;&gt;Node16 -->
<g id="edge18" class="edge">
<title>Node14&#45;&gt;Node16</title>
<path fill="none" stroke="midnightblue" d="M796.78,-348.29C796.3,-338.86 795.79,-328.65 795.44,-321.66"/>
<polygon fill="midnightblue" stroke="midnightblue" points="793.29,-348.59 797.29,-358.4 800.28,-348.24 793.29,-348.59"/>
</g>
<!-- Node15&#45;&gt;Node11 -->
<g id="edge17" class="edge">
<title>Node15&#45;&gt;Node11</title>
<path fill="none" stroke="midnightblue" d="M623.31,-292.31C617.83,-264.58 607.76,-213.63 603.73,-193.26"/>
<polygon fill="midnightblue" stroke="midnightblue" points="619.91,-293.17 625.28,-302.31 626.78,-291.82 619.91,-293.17"/>
</g>
<!-- Node16&#45;&gt;Node8 -->
<g id="edge19" class="edge">
<title>Node16&#45;&gt;Node8</title>
<path fill="none" stroke="midnightblue" d="M795.54,-292.09C796.96,-242.57 800.75,-110.52 801.75,-75.58"/>
<polygon fill="midnightblue" stroke="midnightblue" points="792.04,-292.22 795.25,-302.32 799.03,-292.42 792.04,-292.22"/>
</g>
<!-- Node16&#45;&gt;Node17 -->
<g id="edge20" class="edge">
<title>Node16&#45;&gt;Node17</title>
<path fill="none" stroke="midnightblue" d="M774.48,-296.47C761.18,-287.05 743.95,-274.84 730.8,-265.52"/>
<polygon fill="midnightblue" stroke="midnightblue" points="772.78,-299.55 782.96,-302.48 776.83,-293.84 772.78,-299.55"/>
</g>
<!-- Node17&#45;&gt;Node11 -->
<g id="edge21" class="edge">
<title>Node17&#45;&gt;Node11</title>
<path fill="none" stroke="midnightblue" d="M678.54,-230.14C657.82,-217.79 632,-202.39 616.27,-193.01"/>
<polygon fill="midnightblue" stroke="midnightblue" points="676.97,-233.28 687.35,-235.4 680.55,-227.27 676.97,-233.28"/>
</g>
<!-- Node18&#45;&gt;Node11 -->
<g id="edge24" class="edge">
<title>Node18&#45;&gt;Node11</title>
<path fill="none" stroke="midnightblue" d="M558.5,-228C570.37,-216.13 584.45,-202.05 593.31,-193.19"/>
<polygon fill="midnightblue" stroke="midnightblue" points="555.7,-225.85 551.1,-235.4 560.65,-230.8 555.7,-225.85"/>
</g>
<!-- Node19&#45;&gt;Node15 -->
<g id="edge26" class="edge">
<title>Node19&#45;&gt;Node15</title>
<path fill="none" stroke="midnightblue" d="M644.64,-349.2C639.93,-339.52 634.74,-328.88 631.22,-321.66"/>
<polygon fill="midnightblue" stroke="midnightblue" points="641.6,-350.94 649.13,-358.4 647.89,-347.88 641.6,-350.94"/>
</g>
<!-- Node20&#45;&gt;Node11 -->
<g id="edge29" class="edge">
<title>Node20&#45;&gt;Node11</title>
<path fill="none" stroke="midnightblue" d="M251.91,-238.94C258.99,-237.56 266.17,-236.21 273,-235 366.17,-218.48 474.76,-202.43 540.92,-193.01"/>
<polygon fill="midnightblue" stroke="midnightblue" points="250.81,-235.59 241.68,-240.96 252.17,-242.46 250.81,-235.59"/>
</g>
<!-- Node22 -->
<g id="node22" class="node">
<title>Node22</title>
<g id="a_node22"><a xlink:href="host_2main_8cpp.html" target="_top" xlink:title=" ">
<polygon fill="white" stroke="black" points="660.5,-425.5 660.5,-444.5 763.5,-444.5 763.5,-425.5 660.5,-425.5"/>
<text text-anchor="middle" x="712" y="-432.5" font-family="Helvetica,sans-Serif" font-size="10.00">src/host/main.cpp</text>
</a>
</g>
</g>
<!-- Node21&#45;&gt;Node22 -->
<g id="edge31" class="edge">
<title>Node21&#45;&gt;Node22</title>
<path fill="none" stroke="midnightblue" d="M469.93,-480.87C531.51,-469.45 614.91,-454 666.01,-444.53"/>
<polygon fill="midnightblue" stroke="midnightblue" points="469.06,-477.47 459.86,-482.74 470.33,-484.35 469.06,-477.47"/>
</g>
<!-- Node23&#45;&gt;Node8 -->
<g id="edge34" class="edge">
<title>Node23&#45;&gt;Node8</title>
<path fill="none" stroke="midnightblue" d="M969.6,-420.9C984.36,-413.24 1001.64,-402.43 1014,-389 1039.58,-361.22 1052,-350.76 1052,-313 1052,-313 1052,-313 1052,-182.5 1052,-150.05 1056.74,-134.12 1033,-112 1008.82,-89.48 922.98,-77.45 863.05,-71.65"/>
<polygon fill="midnightblue" stroke="midnightblue" points="967.77,-417.9 960.35,-425.47 970.87,-424.18 967.77,-417.9"/>
</g>
<!-- Node24 -->
<g id="node24" class="node">
<title>Node24</title>
<g id="a_node24"><a xlink:href="frontend_8h.html" target="_top" xlink:title=" ">
<polygon fill="white" stroke="black" points="875.5,-364 875.5,-383 1004.5,-383 1004.5,-364 875.5,-364"/>
<text text-anchor="middle" x="940" y="-371" font-family="Helvetica,sans-Serif" font-size="10.00">src/node/rpc/frontend.h</text>
</a>
</g>
</g>
<!-- Node23&#45;&gt;Node24 -->
<g id="edge35" class="edge">
<title>Node23&#45;&gt;Node24</title>
<path fill="none" stroke="midnightblue" d="M940,-415.32C940,-404.5 940,-391.4 940,-383.01"/>
<polygon fill="midnightblue" stroke="midnightblue" points="936.5,-415.48 940,-425.48 943.5,-415.48 936.5,-415.48"/>
</g>
<!-- Node24&#45;&gt;Node11 -->
<g id="edge36" class="edge">
<title>Node24&#45;&gt;Node11</title>
<path fill="none" stroke="midnightblue" d="M928.59,-355.64C917.89,-340.55 900.89,-318.36 883,-302 843.52,-265.9 831.6,-257.36 783,-235 738.99,-214.75 685.13,-201 647.66,-193.02"/>
<polygon fill="midnightblue" stroke="midnightblue" points="925.82,-357.78 934.39,-364 931.57,-353.79 925.82,-357.78"/>
</g>
<!-- Node24&#45;&gt;Node16 -->
<g id="edge39" class="edge">
<title>Node24&#45;&gt;Node16</title>
<path fill="none" stroke="midnightblue" d="M909.86,-360.13C881.69,-348.57 840.38,-331.62 815.74,-321.51"/>
<polygon fill="midnightblue" stroke="midnightblue" points="908.64,-363.42 919.23,-363.98 911.3,-356.94 908.64,-363.42"/>
</g>
<!-- Node25 -->
<g id="node25" class="node">
<title>Node25</title>
<g id="a_node25"><a xlink:href="member__frontend_8h.html" target="_top" xlink:title=" ">
<polygon fill="white" stroke="black" points="830,-168.5 830,-198.5 950,-198.5 950,-168.5 830,-168.5"/>
<text text-anchor="start" x="838" y="-186.5" font-family="Helvetica,sans-Serif" font-size="10.00">src/node/rpc/member</text>
<text text-anchor="middle" x="890" y="-175.5" font-family="Helvetica,sans-Serif" font-size="10.00">_frontend.h</text>
</a>
</g>
</g>
<!-- Node24&#45;&gt;Node25 -->
<g id="edge37" class="edge">
<title>Node24&#45;&gt;Node25</title>
<path fill="none" stroke="midnightblue" d="M938.52,-353.63C936.01,-326.72 929.78,-276.02 916,-235 911.67,-222.1 904.45,-208.43 898.72,-198.57"/>
<polygon fill="midnightblue" stroke="midnightblue" points="935.06,-354.25 939.41,-363.91 942.04,-353.65 935.06,-354.25"/>
</g>
<!-- Node26 -->
<g id="node26" class="node">
<title>Node26</title>
<g id="a_node26"><a xlink:href="user__frontend_8h.html" target="_top" xlink:title=" ">
<polygon fill="white" stroke="black" points="868.5,-112.5 868.5,-131.5 1023.5,-131.5 1023.5,-112.5 868.5,-112.5"/>
<text text-anchor="middle" x="946" y="-119.5" font-family="Helvetica,sans-Serif" font-size="10.00">src/node/rpc/user_frontend.h</text>
</a>
</g>
</g>
<!-- Node24&#45;&gt;Node26 -->
<g id="edge40" class="edge">
<title>Node24&#45;&gt;Node26</title>
<path fill="none" stroke="midnightblue" d="M944.62,-353.88C952.93,-317.85 968.65,-236.17 959,-168 957.18,-155.12 952.55,-140.76 949.34,-131.8"/>
<polygon fill="midnightblue" stroke="midnightblue" points="941.15,-353.35 942.23,-363.89 947.96,-354.98 941.15,-353.35"/>
</g>
<!-- Node25&#45;&gt;Node8 -->
<g id="edge38" class="edge">
<title>Node25&#45;&gt;Node8</title>
<path fill="none" stroke="midnightblue" d="M873.05,-160.26C853.46,-134.54 822.15,-93.45 808.61,-75.67"/>
<polygon fill="midnightblue" stroke="midnightblue" points="870.36,-162.5 879.21,-168.34 875.93,-158.26 870.36,-162.5"/>
</g>
<!-- Node26&#45;&gt;Node8 -->
<g id="edge41" class="edge">
<title>Node26&#45;&gt;Node8</title>
<path fill="none" stroke="midnightblue" d="M913.75,-108.91C886.68,-98.75 848.68,-84.51 824.71,-75.52"/>
<polygon fill="midnightblue" stroke="midnightblue" points="912.59,-112.21 923.18,-112.44 915.05,-105.66 912.59,-112.21"/>
</g>
</g>
</svg>
