<?xml version="1.0" encoding="UTF-8" standalone="no"?>
<!DOCTYPE svg PUBLIC "-//W3C//DTD SVG 1.1//EN"
 "http://www.w3.org/Graphics/SVG/1.1/DTD/svg11.dtd">
<!-- Generated by graphviz version 2.43.0 (0)
 -->
<!-- Title: src/node/session_metrics.h Pages: 1 -->
<!--zoomable 598 -->
<svg id="main" version="1.1" xmlns="http://www.w3.org/2000/svg" xmlns:xlink="http://www.w3.org/1999/xlink" xml:space="preserve" onload="init(evt)">
<style type="text/css"><![CDATA[
.edge:hover path { stroke: red; }
.edge:hover polygon { stroke: red; fill: red; }
]]></style>
<script type="text/javascript"><![CDATA[
var edges = document.getElementsByTagName('g');
if (edges && edges.length) {
  for (var i=0;i<edges.length;i++) {
    if (edges[i].id.substr(0,4)=='edge') {
      edges[i].setAttribute('class','edge');
    }
  }
}
]]></script>
        <defs>
                <circle id="rim" cx="0" cy="0" r="7"/>
                <circle id="rim2" cx="0" cy="0" r="3.5"/>
                <g id="zoomPlus">
                        <use xlink:href="#rim" fill="#404040">
                                <set attributeName="fill" to="#808080" begin="zoomplus.mouseover" end="zoomplus.mouseout"/>
                        </use>
                        <path d="M-4,0h8M0,-4v8" fill="none" stroke="white" stroke-width="1.5" pointer-events="none"/>
                </g>
                <g id="zoomMin">
                        <use xlink:href="#rim" fill="#404040">
                                <set attributeName="fill" to="#808080" begin="zoomminus.mouseover" end="zoomminus.mouseout"/>
                        </use>
                        <path d="M-4,0h8" fill="none" stroke="white" stroke-width="1.5" pointer-events="none"/>
                </g>
                <g id="dirArrow">
                        <path fill="none" stroke="white" stroke-width="1.5" d="M0,-3.0v7 M-2.5,-0.5L0,-3.0L2.5,-0.5"/>
                </g>
               <g id="resetDef">
                       <use xlink:href="#rim2" fill="#404040">
                               <set attributeName="fill" to="#808080" begin="reset.mouseover" end="reset.mouseout"/>
                       </use>
               </g>
        </defs>

<script type="text/javascript">
var viewWidth = 1908;
var viewHeight = 598;
var sectionId = 'dynsection-1';
</script>
<script xlink:href="svgpan.js"/>
<svg id="graph" class="graph">
<g id="viewport">
<title>src/node/session_metrics.h</title>
<polygon fill="white" stroke="transparent" points="-4,4 -4,-594 1903.73,-594 1903.73,4 -4,4"/>
<!-- Node1 -->
<g id="node1" class="node">
<title>Node1</title>
<g id="a_node1"><a xlink:title=" ">
<polygon fill="#bfbfbf" stroke="black" points="623.5,-570.5 623.5,-589.5 772.5,-589.5 772.5,-570.5 623.5,-570.5"/>
<text text-anchor="middle" x="698" y="-577.5" font-family="Helvetica,sans-Serif" font-size="10.00">src/node/session_metrics.h</text>
</a>
</g>
</g>
<!-- Node2 -->
<g id="node2" class="node">
<title>Node2</title>
<g id="a_node2"><a xlink:href="rpc__sessions_8h.html" target="_top" xlink:title=" ">
<polygon fill="white" stroke="black" points="145,-514.5 145,-533.5 291,-533.5 291,-514.5 145,-514.5"/>
<text text-anchor="middle" x="218" y="-521.5" font-family="Helvetica,sans-Serif" font-size="10.00">src/enclave/rpc_sessions.h</text>
</a>
</g>
</g>
<!-- Node1&#45;&gt;Node2 -->
<g id="edge1" class="edge">
<title>Node1&#45;&gt;Node2</title>
<path fill="none" stroke="midnightblue" d="M613.22,-569.46C521.89,-559.19 378.03,-543 291.38,-533.26"/>
<polygon fill="midnightblue" stroke="midnightblue" points="612.93,-572.95 623.26,-570.59 613.72,-566 612.93,-572.95"/>
</g>
<!-- Node11 -->
<g id="node11" class="node">
<title>Node11</title>
<g id="a_node11"><a xlink:href="node__frontend_8h.html" target="_top" xlink:title=" ">
<polygon fill="white" stroke="black" points="493,-319 493,-338 651,-338 651,-319 493,-319"/>
<text text-anchor="middle" x="572" y="-326" font-family="Helvetica,sans-Serif" font-size="10.00">src/node/rpc/node_frontend.h</text>
</a>
</g>
</g>
<!-- Node1&#45;&gt;Node11 -->
<g id="edge25" class="edge">
<title>Node1&#45;&gt;Node11</title>
<path fill="none" stroke="midnightblue" d="M689.05,-561.28C664.1,-511.87 594.38,-373.82 576.32,-338.05"/>
<polygon fill="midnightblue" stroke="midnightblue" points="686.03,-563.06 693.66,-570.41 692.28,-559.91 686.03,-563.06"/>
</g>
<!-- Node16 -->
<g id="node16" class="node">
<title>Node16</title>
<g id="a_node16"><a xlink:href="node__interface_8h.html" target="_top" xlink:title=" ">
<polygon fill="white" stroke="black" points="782.5,-386 782.5,-405 943.5,-405 943.5,-386 782.5,-386"/>
<text text-anchor="middle" x="863" y="-393" font-family="Helvetica,sans-Serif" font-size="10.00">src/node/rpc/node_interface.h</text>
</a>
</g>
</g>
<!-- Node1&#45;&gt;Node16 -->
<g id="edge26" class="edge">
<title>Node1&#45;&gt;Node16</title>
<path fill="none" stroke="midnightblue" d="M712.78,-562.66C746.71,-525.13 829.26,-433.81 855.12,-405.21"/>
<polygon fill="midnightblue" stroke="midnightblue" points="710.07,-560.43 705.96,-570.2 715.26,-565.13 710.07,-560.43"/>
</g>
<!-- Node31 -->
<g id="node31" class="node">
<title>Node31</title>
<g id="a_node31"><a xlink:href="node__operation__interface_8h.html" target="_top" xlink:title=" ">
<polygon fill="white" stroke="black" points="857.5,-447.5 857.5,-477.5 1012.5,-477.5 1012.5,-447.5 857.5,-447.5"/>
<text text-anchor="start" x="865.5" y="-465.5" font-family="Helvetica,sans-Serif" font-size="10.00">src/node/rpc/node_operation</text>
<text text-anchor="middle" x="935" y="-454.5" font-family="Helvetica,sans-Serif" font-size="10.00">_interface.h</text>
</a>
</g>
</g>
<!-- Node1&#45;&gt;Node31 -->
<g id="edge55" class="edge">
<title>Node1&#45;&gt;Node31</title>
<path fill="none" stroke="midnightblue" d="M729.29,-566.6C750.58,-557.95 779.26,-545.88 804,-534 841.72,-515.89 884.16,-492.47 910.24,-477.71"/>
<polygon fill="midnightblue" stroke="midnightblue" points="727.74,-563.45 719.78,-570.44 730.36,-569.94 727.74,-563.45"/>
</g>
<!-- Node3 -->
<g id="node3" class="node">
<title>Node3</title>
<g id="a_node3"><a xlink:href="enclave_2enclave_8h.html" target="_top" xlink:title=" ">
<polygon fill="white" stroke="black" points="707,-56.5 707,-75.5 829,-75.5 829,-56.5 707,-56.5"/>
<text text-anchor="middle" x="768" y="-63.5" font-family="Helvetica,sans-Serif" font-size="10.00">src/enclave/enclave.h</text>
</a>
</g>
</g>
<!-- Node2&#45;&gt;Node3 -->
<g id="edge2" class="edge">
<title>Node2&#45;&gt;Node3</title>
<path fill="none" stroke="midnightblue" d="M134.66,-518.58C100.5,-512.97 62.6,-501.39 35,-478 4.93,-452.51 0,-435.92 0,-396.5 0,-396.5 0,-396.5 0,-193.5 0,-122.01 524.83,-82.27 706.77,-70.64"/>
<polygon fill="midnightblue" stroke="midnightblue" points="134.24,-522.06 144.65,-520.07 135.27,-515.14 134.24,-522.06"/>
</g>
<!-- Node5 -->
<g id="node5" class="node">
<title>Node5</title>
<g id="a_node5"><a xlink:href="ccf__acme__client_8h.html" target="_top" xlink:title=" ">
<polygon fill="white" stroke="black" points="65.5,-453 65.5,-472 214.5,-472 214.5,-453 65.5,-453"/>
<text text-anchor="middle" x="140" y="-460" font-family="Helvetica,sans-Serif" font-size="10.00">src/node/ccf_acme_client.h</text>
</a>
</g>
</g>
<!-- Node2&#45;&gt;Node5 -->
<g id="edge4" class="edge">
<title>Node2&#45;&gt;Node5</title>
<path fill="none" stroke="midnightblue" d="M198.72,-508.29C183.76,-496.88 163.54,-481.46 151.15,-472.01"/>
<polygon fill="midnightblue" stroke="midnightblue" points="196.75,-511.19 206.82,-514.48 201,-505.63 196.75,-511.19"/>
</g>
<!-- Node6 -->
<g id="node6" class="node">
<title>Node6</title>
<g id="a_node6"><a xlink:href="node__state_8h.html" target="_top" xlink:title=" ">
<polygon fill="white" stroke="black" points="311,-185 311,-204 435,-204 435,-185 311,-185"/>
<text text-anchor="middle" x="373" y="-192" font-family="Helvetica,sans-Serif" font-size="10.00">src/node/node_state.h</text>
</a>
</g>
</g>
<!-- Node2&#45;&gt;Node6 -->
<g id="edge22" class="edge">
<title>Node2&#45;&gt;Node6</title>
<path fill="none" stroke="midnightblue" d="M134.88,-517.19C106.35,-511.14 76.48,-499.6 56,-478 30.48,-451.08 38,-433.6 38,-396.5 38,-396.5 38,-396.5 38,-327.5 38,-266.55 232.37,-221.87 325,-204.03"/>
<polygon fill="midnightblue" stroke="midnightblue" points="134.41,-520.67 144.89,-519.12 135.73,-513.8 134.41,-520.67"/>
</g>
<!-- Node8 -->
<g id="node8" class="node">
<title>Node8</title>
<g id="a_node8"><a xlink:href="node__client_8h.html" target="_top" xlink:title=" ">
<polygon fill="white" stroke="black" points="233,-453 233,-472 359,-472 359,-453 233,-453"/>
<text text-anchor="middle" x="296" y="-460" font-family="Helvetica,sans-Serif" font-size="10.00">src/node/node_client.h</text>
</a>
</g>
</g>
<!-- Node2&#45;&gt;Node8 -->
<g id="edge9" class="edge">
<title>Node2&#45;&gt;Node8</title>
<path fill="none" stroke="midnightblue" d="M237.28,-508.29C252.24,-496.88 272.46,-481.46 284.85,-472.01"/>
<polygon fill="midnightblue" stroke="midnightblue" points="235,-505.63 229.18,-514.48 239.25,-511.19 235,-505.63"/>
</g>
<!-- Node15 -->
<g id="node15" class="node">
<title>Node15</title>
<g id="a_node15"><a xlink:href="resharing_8h.html" target="_top" xlink:title=" ">
<polygon fill="white" stroke="black" points="437,-453 437,-472 553,-472 553,-453 437,-453"/>
<text text-anchor="middle" x="495" y="-460" font-family="Helvetica,sans-Serif" font-size="10.00">src/node/resharing.h</text>
</a>
</g>
</g>
<!-- Node2&#45;&gt;Node15 -->
<g id="edge23" class="edge">
<title>Node2&#45;&gt;Node15</title>
<path fill="none" stroke="midnightblue" d="M267.67,-512.33C321.39,-500.79 405.95,-482.63 455.39,-472.01"/>
<polygon fill="midnightblue" stroke="midnightblue" points="266.73,-508.95 257.69,-514.48 268.2,-515.8 266.73,-508.95"/>
</g>
<!-- Node4 -->
<g id="node4" class="node">
<title>Node4</title>
<g id="a_node4"><a xlink:href="enclave_2main_8cpp.html" target="_top" xlink:title=" ">
<polygon fill="white" stroke="black" points="708,-0.5 708,-19.5 828,-19.5 828,-0.5 708,-0.5"/>
<text text-anchor="middle" x="768" y="-7.5" font-family="Helvetica,sans-Serif" font-size="10.00">src/enclave/main.cpp</text>
</a>
</g>
</g>
<!-- Node3&#45;&gt;Node4 -->
<g id="edge3" class="edge">
<title>Node3&#45;&gt;Node4</title>
<path fill="none" stroke="midnightblue" d="M768,-45.8C768,-36.91 768,-26.78 768,-19.75"/>
<polygon fill="midnightblue" stroke="midnightblue" points="764.5,-46.08 768,-56.08 771.5,-46.08 764.5,-46.08"/>
</g>
<!-- Node5&#45;&gt;Node6 -->
<g id="edge5" class="edge">
<title>Node5&#45;&gt;Node6</title>
<path fill="none" stroke="midnightblue" d="M120.81,-446.14C111.08,-437.08 100.23,-424.72 95,-411 90.1,-398.12 88.78,-392.3 95,-380 146.62,-277.9 284.05,-223.53 344.17,-204.01"/>
<polygon fill="midnightblue" stroke="midnightblue" points="118.75,-448.98 128.58,-452.93 123.36,-443.71 118.75,-448.98"/>
</g>
<!-- Node6&#45;&gt;Node3 -->
<g id="edge6" class="edge">
<title>Node6&#45;&gt;Node3</title>
<path fill="none" stroke="midnightblue" d="M371.71,-174.75C371.54,-155.96 374.53,-127.65 392,-112 437.18,-71.54 612.53,-66.02 706.96,-66.1"/>
<polygon fill="midnightblue" stroke="midnightblue" points="368.21,-174.93 372.11,-184.78 375.21,-174.65 368.21,-174.93"/>
</g>
<!-- Node7 -->
<g id="node7" class="node">
<title>Node7</title>
<g id="a_node7"><a xlink:href="gov__effects_8h.html" target="_top" xlink:title=" ">
<polygon fill="white" stroke="black" points="401,-118 401,-137 545,-137 545,-118 401,-118"/>
<text text-anchor="middle" x="473" y="-125" font-family="Helvetica,sans-Serif" font-size="10.00">src/node/rpc/gov_effects.h</text>
</a>
</g>
</g>
<!-- Node6&#45;&gt;Node7 -->
<g id="edge7" class="edge">
<title>Node6&#45;&gt;Node7</title>
<path fill="none" stroke="midnightblue" d="M394.89,-179.27C414.69,-166.4 443.19,-147.88 459.73,-137.13"/>
<polygon fill="midnightblue" stroke="midnightblue" points="392.96,-176.35 386.49,-184.73 396.78,-182.22 392.96,-176.35"/>
</g>
<!-- Node7&#45;&gt;Node3 -->
<g id="edge8" class="edge">
<title>Node7&#45;&gt;Node3</title>
<path fill="none" stroke="midnightblue" d="M525.19,-115.97C582.36,-104.44 672.95,-86.17 725.81,-75.51"/>
<polygon fill="midnightblue" stroke="midnightblue" points="524.38,-112.57 515.27,-117.98 525.76,-119.43 524.38,-112.57"/>
</g>
<!-- Node9 -->
<g id="node9" class="node">
<title>Node9</title>
<g id="a_node9"><a xlink:href="orc__requests_8h.html" target="_top" xlink:title=" ">
<polygon fill="white" stroke="black" points="288.5,-380.5 288.5,-410.5 407.5,-410.5 407.5,-380.5 288.5,-380.5"/>
<text text-anchor="start" x="296.5" y="-398.5" font-family="Helvetica,sans-Serif" font-size="10.00">src/consensus/aft/orc</text>
<text text-anchor="middle" x="348" y="-387.5" font-family="Helvetica,sans-Serif" font-size="10.00">_requests.h</text>
</a>
</g>
</g>
<!-- Node8&#45;&gt;Node9 -->
<g id="edge10" class="edge">
<title>Node8&#45;&gt;Node9</title>
<path fill="none" stroke="midnightblue" d="M309.46,-444.67C317.92,-434.09 328.72,-420.6 336.73,-410.59"/>
<polygon fill="midnightblue" stroke="midnightblue" points="306.53,-442.74 303.01,-452.73 311.99,-447.11 306.53,-442.74"/>
</g>
<!-- Node10 -->
<g id="node10" class="node">
<title>Node10</title>
<g id="a_node10"><a xlink:href="raft_8h.html" target="_top" xlink:title=" ">
<polygon fill="white" stroke="black" points="195.5,-319 195.5,-338 324.5,-338 324.5,-319 195.5,-319"/>
<text text-anchor="middle" x="260" y="-326" font-family="Helvetica,sans-Serif" font-size="10.00">src/consensus/aft/raft.h</text>
</a>
</g>
</g>
<!-- Node8&#45;&gt;Node10 -->
<g id="edge17" class="edge">
<title>Node8&#45;&gt;Node10</title>
<path fill="none" stroke="midnightblue" d="M289.32,-443.07C286,-433.56 282.05,-421.73 279,-411 271.53,-384.73 264.79,-353.09 261.73,-338.13"/>
<polygon fill="midnightblue" stroke="midnightblue" points="286.08,-444.39 292.73,-452.64 292.67,-442.05 286.08,-444.39"/>
</g>
<!-- Node13 -->
<g id="node13" class="node">
<title>Node13</title>
<g id="a_node13"><a xlink:href="http__node__client_8h.html" target="_top" xlink:title=" ">
<polygon fill="white" stroke="black" points="426,-380.5 426,-410.5 536,-410.5 536,-380.5 426,-380.5"/>
<text text-anchor="start" x="434" y="-398.5" font-family="Helvetica,sans-Serif" font-size="10.00">src/node/http_node</text>
<text text-anchor="middle" x="481" y="-387.5" font-family="Helvetica,sans-Serif" font-size="10.00">_client.h</text>
</a>
</g>
</g>
<!-- Node8&#45;&gt;Node13 -->
<g id="edge18" class="edge">
<title>Node8&#45;&gt;Node13</title>
<path fill="none" stroke="midnightblue" d="M330.18,-449.49C361.55,-438.47 408.02,-422.14 441.07,-410.53"/>
<polygon fill="midnightblue" stroke="midnightblue" points="328.84,-446.25 320.57,-452.87 331.16,-452.86 328.84,-446.25"/>
</g>
<!-- Node14 -->
<g id="node14" class="node">
<title>Node14</title>
<g id="a_node14"><a xlink:href="retired__nodes__cleanup_8h.html" target="_top" xlink:title=" ">
<polygon fill="white" stroke="black" points="104,-380.5 104,-410.5 232,-410.5 232,-380.5 104,-380.5"/>
<text text-anchor="start" x="112" y="-398.5" font-family="Helvetica,sans-Serif" font-size="10.00">src/node/retired_nodes</text>
<text text-anchor="middle" x="168" y="-387.5" font-family="Helvetica,sans-Serif" font-size="10.00">_cleanup.h</text>
</a>
</g>
</g>
<!-- Node8&#45;&gt;Node14 -->
<g id="edge20" class="edge">
<title>Node8&#45;&gt;Node14</title>
<path fill="none" stroke="midnightblue" d="M269.8,-448.19C248.27,-437.26 217.84,-421.81 195.87,-410.65"/>
<polygon fill="midnightblue" stroke="midnightblue" points="268.5,-451.46 279,-452.87 271.67,-445.22 268.5,-451.46"/>
</g>
<!-- Node9&#45;&gt;Node10 -->
<g id="edge11" class="edge">
<title>Node9&#45;&gt;Node10</title>
<path fill="none" stroke="midnightblue" d="M320.66,-374.31C304.14,-362.1 283.93,-347.18 271.52,-338.01"/>
<polygon fill="midnightblue" stroke="midnightblue" points="318.78,-377.27 328.91,-380.4 322.94,-371.64 318.78,-377.27"/>
</g>
<!-- Node9&#45;&gt;Node11 -->
<g id="edge13" class="edge">
<title>Node9&#45;&gt;Node11</title>
<path fill="none" stroke="midnightblue" d="M406,-377.67C449.78,-364.97 508.03,-348.06 542.61,-338.03"/>
<polygon fill="midnightblue" stroke="midnightblue" points="404.96,-374.33 396.33,-380.48 406.91,-381.05 404.96,-374.33"/>
</g>
<!-- Node10&#45;&gt;Node6 -->
<g id="edge12" class="edge">
<title>Node10&#45;&gt;Node6</title>
<path fill="none" stroke="midnightblue" d="M274.1,-311.03C298.37,-282.67 347.24,-225.6 365.71,-204.02"/>
<polygon fill="midnightblue" stroke="midnightblue" points="271.26,-308.97 267.41,-318.84 276.58,-313.52 271.26,-308.97"/>
</g>
<!-- Node11&#45;&gt;Node3 -->
<g id="edge14" class="edge">
<title>Node11&#45;&gt;Node3</title>
<path fill="none" stroke="midnightblue" d="M573.77,-308.45C576.03,-291.23 581.04,-265.64 592,-246 635.95,-167.21 723.9,-98.8 755.95,-75.5"/>
<polygon fill="midnightblue" stroke="midnightblue" points="570.24,-308.54 572.61,-318.86 577.2,-309.31 570.24,-308.54"/>
</g>
<!-- Node12 -->
<g id="node12" class="node">
<title>Node12</title>
<g id="a_node12"><a xlink:href="jwt__key__auto__refresh_8h.html" target="_top" xlink:title=" ">
<polygon fill="white" stroke="black" points="419.5,-246.5 419.5,-276.5 544.5,-276.5 544.5,-246.5 419.5,-246.5"/>
<text text-anchor="start" x="427.5" y="-264.5" font-family="Helvetica,sans-Serif" font-size="10.00">src/node/jwt_key_auto</text>
<text text-anchor="middle" x="482" y="-253.5" font-family="Helvetica,sans-Serif" font-size="10.00">_refresh.h</text>
</a>
</g>
</g>
<!-- Node11&#45;&gt;Node12 -->
<g id="edge15" class="edge">
<title>Node11&#45;&gt;Node12</title>
<path fill="none" stroke="midnightblue" d="M551.71,-312.85C536.69,-302 516.34,-287.3 501.51,-276.59"/>
<polygon fill="midnightblue" stroke="midnightblue" points="549.71,-315.72 559.86,-318.73 553.8,-310.04 549.71,-315.72"/>
</g>
<!-- Node12&#45;&gt;Node6 -->
<g id="edge16" class="edge">
<title>Node12&#45;&gt;Node6</title>
<path fill="none" stroke="midnightblue" d="M449.54,-241.14C428.82,-228.79 403,-213.39 387.27,-204.01"/>
<polygon fill="midnightblue" stroke="midnightblue" points="447.97,-244.28 458.35,-246.4 451.55,-238.27 447.97,-244.28"/>
</g>
<!-- Node13&#45;&gt;Node6 -->
<g id="edge19" class="edge">
<title>Node13&#45;&gt;Node6</title>
<path fill="none" stroke="midnightblue" d="M449.17,-374.67C437.2,-366.21 424.06,-355.6 414,-344 391.7,-318.31 386.3,-309.72 377,-277 369.72,-251.38 370.98,-219.44 372.16,-204.27"/>
<polygon fill="midnightblue" stroke="midnightblue" points="447.39,-377.7 457.62,-380.45 451.34,-371.92 447.39,-377.7"/>
</g>
<!-- Node14&#45;&gt;Node10 -->
<g id="edge21" class="edge">
<title>Node14&#45;&gt;Node10</title>
<path fill="none" stroke="midnightblue" d="M196.58,-374.31C213.86,-362.1 234.98,-347.18 247.96,-338.01"/>
<polygon fill="midnightblue" stroke="midnightblue" points="194.11,-371.77 187.96,-380.4 198.15,-377.48 194.11,-371.77"/>
</g>
<!-- Node15&#45;&gt;Node6 -->
<g id="edge24" class="edge">
<title>Node15&#45;&gt;Node6</title>
<path fill="none" stroke="midnightblue" d="M516.04,-446.76C526.9,-437.82 539.09,-425.37 545,-411 550.24,-398.26 551.83,-391.96 545,-380 529.39,-352.66 509.29,-362.75 484,-344 448.62,-317.78 437.03,-312.53 411,-277 393.47,-253.07 381.03,-219.77 375.78,-204.19"/>
<polygon fill="midnightblue" stroke="midnightblue" points="513.88,-444 508.11,-452.89 518.16,-449.54 513.88,-444"/>
</g>
<!-- Node16&#45;&gt;Node11 -->
<g id="edge52" class="edge">
<title>Node16&#45;&gt;Node11</title>
<path fill="none" stroke="midnightblue" d="M814.75,-383.72C757.45,-370.92 663.03,-349.83 610.43,-338.08"/>
<polygon fill="midnightblue" stroke="midnightblue" points="814.14,-387.17 824.66,-385.94 815.66,-380.34 814.14,-387.17"/>
</g>
<!-- Node17 -->
<g id="node17" class="node">
<title>Node17</title>
<g id="a_node17"><a xlink:href="wrap_8cpp.html" target="_top" xlink:title=" ">
<polygon fill="white" stroke="black" points="1361.5,-185 1361.5,-204 1450.5,-204 1450.5,-185 1361.5,-185"/>
<text text-anchor="middle" x="1406" y="-192" font-family="Helvetica,sans-Serif" font-size="10.00">src/js/wrap.cpp</text>
</a>
</g>
</g>
<!-- Node16&#45;&gt;Node17 -->
<g id="edge27" class="edge">
<title>Node16&#45;&gt;Node17</title>
<path fill="none" stroke="midnightblue" d="M858.88,-375.79C853.11,-344.1 846.93,-280 882,-246 916.12,-212.92 1240.72,-200.26 1361.24,-196.67"/>
<polygon fill="midnightblue" stroke="midnightblue" points="855.5,-376.77 860.9,-385.89 862.37,-375.39 855.5,-376.77"/>
</g>
<!-- Node18 -->
<g id="node18" class="node">
<title>Node18</title>
<g id="a_node18"><a xlink:href="wrap_8h.html" target="_top" xlink:title=" ">
<polygon fill="white" stroke="black" points="1252,-319 1252,-338 1330,-338 1330,-319 1252,-319"/>
<text text-anchor="middle" x="1291" y="-326" font-family="Helvetica,sans-Serif" font-size="10.00">src/js/wrap.h</text>
</a>
</g>
</g>
<!-- Node16&#45;&gt;Node18 -->
<g id="edge28" class="edge">
<title>Node16&#45;&gt;Node18</title>
<path fill="none" stroke="midnightblue" d="M929.53,-384.4C1019.95,-370.66 1178.72,-346.55 1251.96,-335.43"/>
<polygon fill="midnightblue" stroke="midnightblue" points="928.75,-380.97 919.39,-385.94 929.81,-387.89 928.75,-380.97"/>
</g>
<!-- Node25 -->
<g id="node25" class="node">
<title>Node25</title>
<g id="a_node25"><a xlink:href="member__frontend_8h.html" target="_top" xlink:title=" ">
<polygon fill="white" stroke="black" points="1731,-246.5 1731,-276.5 1851,-276.5 1851,-246.5 1731,-246.5"/>
<text text-anchor="start" x="1739" y="-264.5" font-family="Helvetica,sans-Serif" font-size="10.00">src/node/rpc/member</text>
<text text-anchor="middle" x="1791" y="-253.5" font-family="Helvetica,sans-Serif" font-size="10.00">_frontend.h</text>
</a>
</g>
</g>
<!-- Node16&#45;&gt;Node25 -->
<g id="edge48" class="edge">
<title>Node16&#45;&gt;Node25</title>
<path fill="none" stroke="midnightblue" d="M953.64,-390.42C1071.61,-384.17 1270.74,-370.1 1339,-344 1361.01,-335.59 1360,-321.43 1382,-313 1521.84,-259.43 1568.94,-299.42 1717,-277 1721.53,-276.31 1726.21,-275.54 1730.9,-274.73"/>
<polygon fill="midnightblue" stroke="midnightblue" points="953.34,-386.94 943.54,-390.95 953.71,-393.93 953.34,-386.94"/>
</g>
<!-- Node26 -->
<g id="node26" class="node">
<title>Node26</title>
<g id="a_node26"><a xlink:href="historical__queries_8h.html" target="_top" xlink:title=" ">
<polygon fill="white" stroke="black" points="777,-179.5 777,-209.5 883,-209.5 883,-179.5 777,-179.5"/>
<text text-anchor="start" x="785" y="-197.5" font-family="Helvetica,sans-Serif" font-size="10.00">src/node/historical</text>
<text text-anchor="middle" x="830" y="-186.5" font-family="Helvetica,sans-Serif" font-size="10.00">_queries.h</text>
</a>
</g>
</g>
<!-- Node16&#45;&gt;Node26 -->
<g id="edge44" class="edge">
<title>Node16&#45;&gt;Node26</title>
<path fill="none" stroke="midnightblue" d="M857.12,-375.78C854.33,-366.33 851.14,-354.64 849,-344 839.14,-295.08 833.38,-236.01 831.12,-209.53"/>
<polygon fill="midnightblue" stroke="midnightblue" points="853.87,-377.11 860.13,-385.65 860.56,-375.07 853.87,-377.11"/>
</g>
<!-- Node28 -->
<g id="node28" class="node">
<title>Node28</title>
<g id="a_node28"><a xlink:href="network__identity__subsystem_8h.html" target="_top" xlink:title=" ">
<polygon fill="white" stroke="black" points="669.5,-313.5 669.5,-343.5 796.5,-343.5 796.5,-313.5 669.5,-313.5"/>
<text text-anchor="start" x="677.5" y="-331.5" font-family="Helvetica,sans-Serif" font-size="10.00">src/node/rpc/network</text>
<text text-anchor="middle" x="733" y="-320.5" font-family="Helvetica,sans-Serif" font-size="10.00">_identity_subsystem.h</text>
</a>
</g>
</g>
<!-- Node16&#45;&gt;Node28 -->
<g id="edge49" class="edge">
<title>Node16&#45;&gt;Node28</title>
<path fill="none" stroke="midnightblue" d="M836.68,-381.34C814.8,-370.4 783.72,-354.86 761.3,-343.65"/>
<polygon fill="midnightblue" stroke="midnightblue" points="835.23,-384.53 845.74,-385.87 838.36,-378.27 835.23,-384.53"/>
</g>
<!-- Node30 -->
<g id="node30" class="node">
<title>Node30</title>
<g id="a_node30"><a xlink:href="node__operation_8h.html" target="_top" xlink:title=" ">
<polygon fill="white" stroke="black" points="1424,-319 1424,-338 1588,-338 1588,-319 1424,-319"/>
<text text-anchor="middle" x="1506" y="-326" font-family="Helvetica,sans-Serif" font-size="10.00">src/node/rpc/node_operation.h</text>
</a>
</g>
</g>
<!-- Node16&#45;&gt;Node30 -->
<g id="edge53" class="edge">
<title>Node16&#45;&gt;Node30</title>
<path fill="none" stroke="midnightblue" d="M953.93,-385.72C1055.78,-375.84 1225.76,-359.17 1372,-344 1390.27,-342.11 1409.94,-340.01 1428.42,-338.01"/>
<polygon fill="midnightblue" stroke="midnightblue" points="953.3,-382.27 943.69,-386.72 953.98,-389.24 953.3,-382.27"/>
</g>
<!-- Node18&#45;&gt;Node3 -->
<g id="edge30" class="edge">
<title>Node18&#45;&gt;Node3</title>
<path fill="none" stroke="midnightblue" d="M1323.77,-315.87C1327.53,-314.79 1331.33,-313.8 1335,-313 1407.09,-297.37 1615.75,-331.92 1665,-277 1674.2,-266.74 1673.09,-257.15 1665,-246 1566.12,-109.65 1015.23,-76.36 829.3,-68.96"/>
<polygon fill="midnightblue" stroke="midnightblue" points="1322.55,-312.59 1314.04,-318.9 1324.63,-319.27 1322.55,-312.59"/>
</g>
<!-- Node18&#45;&gt;Node6 -->
<g id="edge41" class="edge">
<title>Node18&#45;&gt;Node6</title>
<path fill="none" stroke="midnightblue" d="M1241.59,-322.66C1164.52,-314.83 1011.14,-298.11 882,-277 813.96,-265.88 797.94,-257.72 730,-246 626.99,-228.23 506.45,-212.15 435.09,-203.12"/>
<polygon fill="midnightblue" stroke="midnightblue" points="1241.64,-326.19 1251.94,-323.71 1242.35,-319.22 1241.64,-326.19"/>
</g>
<!-- Node18&#45;&gt;Node17 -->
<g id="edge40" class="edge">
<title>Node18&#45;&gt;Node17</title>
<path fill="none" stroke="midnightblue" d="M1329.15,-316.34C1334.12,-315.1 1339.16,-313.94 1344,-313 1410.33,-300.05 1601.13,-327.54 1646,-277 1702.82,-213 1534.76,-199.2 1450.74,-196.27"/>
<polygon fill="midnightblue" stroke="midnightblue" points="1327.93,-313.04 1319.15,-318.97 1329.71,-319.81 1327.93,-313.04"/>
</g>
<!-- Node19 -->
<g id="node19" class="node">
<title>Node19</title>
<g id="a_node19"><a xlink:href="js__generic__base_8cpp.html" target="_top" xlink:title=" ">
<polygon fill="white" stroke="black" points="891,-246.5 891,-276.5 1009,-276.5 1009,-246.5 891,-246.5"/>
<text text-anchor="start" x="899" y="-264.5" font-family="Helvetica,sans-Serif" font-size="10.00">src/apps/js_generic</text>
<text text-anchor="middle" x="950" y="-253.5" font-family="Helvetica,sans-Serif" font-size="10.00">/js_generic_base.cpp</text>
</a>
</g>
</g>
<!-- Node18&#45;&gt;Node19 -->
<g id="edge29" class="edge">
<title>Node18&#45;&gt;Node19</title>
<path fill="none" stroke="midnightblue" d="M1241.48,-318.76C1186.72,-308.99 1095.94,-292.52 1018,-277 1015.16,-276.43 1012.25,-275.85 1009.32,-275.25"/>
<polygon fill="midnightblue" stroke="midnightblue" points="1241.15,-322.25 1251.6,-320.56 1242.37,-315.36 1241.15,-322.25"/>
</g>
<!-- Node20 -->
<g id="node20" class="node">
<title>Node20</title>
<g id="a_node20"><a xlink:href="js_2consensus_8cpp.html" target="_top" xlink:title=" ">
<polygon fill="white" stroke="black" points="1173,-252 1173,-271 1289,-271 1289,-252 1173,-252"/>
<text text-anchor="middle" x="1231" y="-259" font-family="Helvetica,sans-Serif" font-size="10.00">src/js/consensus.cpp</text>
</a>
</g>
</g>
<!-- Node18&#45;&gt;Node20 -->
<g id="edge31" class="edge">
<title>Node18&#45;&gt;Node20</title>
<path fill="none" stroke="midnightblue" d="M1275.89,-311.13C1264.16,-298.42 1248.35,-281.3 1238.96,-271.13"/>
<polygon fill="midnightblue" stroke="midnightblue" points="1273.55,-313.76 1282.91,-318.73 1278.7,-309.01 1273.55,-313.76"/>
</g>
<!-- Node21 -->
<g id="node21" class="node">
<title>Node21</title>
<g id="a_node21"><a xlink:href="conv_8cpp.html" target="_top" xlink:title=" ">
<polygon fill="white" stroke="black" points="1307,-252 1307,-271 1395,-271 1395,-252 1307,-252"/>
<text text-anchor="middle" x="1351" y="-259" font-family="Helvetica,sans-Serif" font-size="10.00">src/js/conv.cpp</text>
</a>
</g>
</g>
<!-- Node18&#45;&gt;Node21 -->
<g id="edge33" class="edge">
<title>Node18&#45;&gt;Node21</title>
<path fill="none" stroke="midnightblue" d="M1306.11,-311.13C1317.84,-298.42 1333.65,-281.3 1343.04,-271.13"/>
<polygon fill="midnightblue" stroke="midnightblue" points="1303.3,-309.01 1299.09,-318.73 1308.45,-313.76 1303.3,-309.01"/>
</g>
<!-- Node22 -->
<g id="node22" class="node">
<title>Node22</title>
<g id="a_node22"><a xlink:href="js_2crypto_8cpp.html" target="_top" xlink:title=" ">
<polygon fill="white" stroke="black" points="1413,-252 1413,-271 1509,-271 1509,-252 1413,-252"/>
<text text-anchor="middle" x="1461" y="-259" font-family="Helvetica,sans-Serif" font-size="10.00">src/js/crypto.cpp</text>
</a>
</g>
</g>
<!-- Node18&#45;&gt;Node22 -->
<g id="edge35" class="edge">
<title>Node18&#45;&gt;Node22</title>
<path fill="none" stroke="midnightblue" d="M1322.98,-315.27C1356.72,-302.37 1409.02,-282.38 1438.6,-271.06"/>
<polygon fill="midnightblue" stroke="midnightblue" points="1321.67,-312.03 1313.57,-318.87 1324.17,-318.57 1321.67,-312.03"/>
</g>
<!-- Node23 -->
<g id="node23" class="node">
<title>Node23</title>
<g id="a_node23"><a xlink:href="js_2historical_8cpp.html" target="_top" xlink:title=" ">
<polygon fill="white" stroke="black" points="1527,-252 1527,-271 1637,-271 1637,-252 1527,-252"/>
<text text-anchor="middle" x="1582" y="-259" font-family="Helvetica,sans-Serif" font-size="10.00">src/js/historical.cpp</text>
</a>
</g>
</g>
<!-- Node18&#45;&gt;Node23 -->
<g id="edge37" class="edge">
<title>Node18&#45;&gt;Node23</title>
<path fill="none" stroke="midnightblue" d="M1330.63,-316.37C1335.13,-315.19 1339.66,-314.04 1344,-313 1420.79,-294.57 1440.82,-293.73 1518,-277 1526.68,-275.12 1536.02,-273.04 1544.8,-271.05"/>
<polygon fill="midnightblue" stroke="midnightblue" points="1329.66,-313 1320.91,-318.96 1331.47,-319.76 1329.66,-313"/>
</g>
<!-- Node24 -->
<g id="node24" class="node">
<title>Node24</title>
<g id="a_node24"><a xlink:href="openenclave_8cpp.html" target="_top" xlink:title=" ">
<polygon fill="white" stroke="black" points="1027,-252 1027,-271 1155,-271 1155,-252 1027,-252"/>
<text text-anchor="middle" x="1091" y="-259" font-family="Helvetica,sans-Serif" font-size="10.00">src/js/openenclave.cpp</text>
</a>
</g>
</g>
<!-- Node18&#45;&gt;Node24 -->
<g id="edge39" class="edge">
<title>Node18&#45;&gt;Node24</title>
<path fill="none" stroke="midnightblue" d="M1254.89,-315.77C1215.27,-302.89 1152.6,-282.52 1117.35,-271.06"/>
<polygon fill="midnightblue" stroke="midnightblue" points="1253.85,-319.11 1264.44,-318.87 1256.01,-312.45 1253.85,-319.11"/>
</g>
<!-- Node18&#45;&gt;Node25 -->
<g id="edge42" class="edge">
<title>Node18&#45;&gt;Node25</title>
<path fill="none" stroke="midnightblue" d="M1328.39,-316.42C1333.6,-315.12 1338.91,-313.93 1344,-313 1507.81,-282.92 1552.2,-301.04 1717,-277 1721.53,-276.34 1726.21,-275.59 1730.91,-274.78"/>
<polygon fill="midnightblue" stroke="midnightblue" points="1327.36,-313.07 1318.58,-319 1329.14,-319.84 1327.36,-313.07"/>
</g>
<!-- Node20&#45;&gt;Node17 -->
<g id="edge32" class="edge">
<title>Node20&#45;&gt;Node17</title>
<path fill="none" stroke="midnightblue" d="M1263.93,-248.27C1298.66,-235.37 1352.49,-215.38 1382.94,-204.06"/>
<polygon fill="midnightblue" stroke="midnightblue" points="1262.39,-245.11 1254.24,-251.87 1264.83,-251.67 1262.39,-245.11"/>
</g>
<!-- Node21&#45;&gt;Node17 -->
<g id="edge34" class="edge">
<title>Node21&#45;&gt;Node17</title>
<path fill="none" stroke="midnightblue" d="M1365.16,-243.77C1375.88,-231.1 1390.18,-214.2 1398.7,-204.13"/>
<polygon fill="midnightblue" stroke="midnightblue" points="1362.21,-241.84 1358.42,-251.73 1367.55,-246.36 1362.21,-241.84"/>
</g>
<!-- Node22&#45;&gt;Node17 -->
<g id="edge36" class="edge">
<title>Node22&#45;&gt;Node17</title>
<path fill="none" stroke="midnightblue" d="M1446.84,-243.77C1436.12,-231.1 1421.82,-214.2 1413.3,-204.13"/>
<polygon fill="midnightblue" stroke="midnightblue" points="1444.45,-246.36 1453.58,-251.73 1449.79,-241.84 1444.45,-246.36"/>
</g>
<!-- Node23&#45;&gt;Node17 -->
<g id="edge38" class="edge">
<title>Node23&#45;&gt;Node17</title>
<path fill="none" stroke="midnightblue" d="M1548.89,-248.27C1513.96,-235.37 1459.82,-215.38 1429.19,-204.06"/>
<polygon fill="midnightblue" stroke="midnightblue" points="1548.04,-251.69 1558.63,-251.87 1550.46,-245.12 1548.04,-251.69"/>
</g>
<!-- Node25&#45;&gt;Node3 -->
<g id="edge43" class="edge">
<title>Node25&#45;&gt;Node3</title>
<path fill="none" stroke="midnightblue" d="M1786.74,-236.25C1779.28,-201.94 1760.32,-140.26 1717,-112 1679.81,-87.74 1033.49,-72.45 829.3,-68.21"/>
<polygon fill="midnightblue" stroke="midnightblue" points="1783.36,-237.24 1788.77,-246.35 1790.23,-235.86 1783.36,-237.24"/>
</g>
<!-- Node26&#45;&gt;Node3 -->
<g id="edge45" class="edge">
<title>Node26&#45;&gt;Node3</title>
<path fill="none" stroke="midnightblue" d="M818.61,-170.26C804.68,-141.83 781.78,-95.11 772.31,-75.79"/>
<polygon fill="midnightblue" stroke="midnightblue" points="815.58,-172.04 823.13,-179.48 821.87,-168.96 815.58,-172.04"/>
</g>
<!-- Node27 -->
<g id="node27" class="node">
<title>Node27</title>
<g id="a_node27"><a xlink:href="historical__transaction__fetcher_8h.html" target="_top" xlink:title=" ">
<polygon fill="white" stroke="black" points="815.5,-112.5 815.5,-142.5 940.5,-142.5 940.5,-112.5 815.5,-112.5"/>
<text text-anchor="start" x="823.5" y="-130.5" font-family="Helvetica,sans-Serif" font-size="10.00">src/indexing/historical</text>
<text text-anchor="middle" x="878" y="-119.5" font-family="Helvetica,sans-Serif" font-size="10.00">_transaction_fetcher.h</text>
</a>
</g>
</g>
<!-- Node26&#45;&gt;Node27 -->
<g id="edge46" class="edge">
<title>Node26&#45;&gt;Node27</title>
<path fill="none" stroke="midnightblue" d="M846.5,-171.16C853.5,-161.68 861.44,-150.92 867.61,-142.58"/>
<polygon fill="midnightblue" stroke="midnightblue" points="843.54,-169.27 840.42,-179.4 849.17,-173.43 843.54,-169.27"/>
</g>
<!-- Node27&#45;&gt;Node3 -->
<g id="edge47" class="edge">
<title>Node27&#45;&gt;Node3</title>
<path fill="none" stroke="midnightblue" d="M842.88,-107.51C823.11,-96.81 799.38,-83.97 784.01,-75.66"/>
<polygon fill="midnightblue" stroke="midnightblue" points="841.47,-110.72 851.93,-112.4 844.8,-104.56 841.47,-110.72"/>
</g>
<!-- Node28&#45;&gt;Node3 -->
<g id="edge50" class="edge">
<title>Node28&#45;&gt;Node3</title>
<path fill="none" stroke="midnightblue" d="M736.23,-303.46C743.73,-247.62 762.06,-111.24 766.84,-75.63"/>
<polygon fill="midnightblue" stroke="midnightblue" points="732.74,-303.12 734.88,-313.49 739.68,-304.05 732.74,-303.12"/>
</g>
<!-- Node29 -->
<g id="node29" class="node">
<title>Node29</title>
<g id="a_node29"><a xlink:href="historical__queries__adapter_8cpp.html" target="_top" xlink:title=" ">
<polygon fill="white" stroke="black" points="601,-246.5 601,-276.5 721,-276.5 721,-246.5 601,-246.5"/>
<text text-anchor="start" x="609" y="-264.5" font-family="Helvetica,sans-Serif" font-size="10.00">src/node/historical</text>
<text text-anchor="middle" x="661" y="-253.5" font-family="Helvetica,sans-Serif" font-size="10.00">_queries_adapter.cpp</text>
</a>
</g>
</g>
<!-- Node28&#45;&gt;Node29 -->
<g id="edge51" class="edge">
<title>Node28&#45;&gt;Node29</title>
<path fill="none" stroke="midnightblue" d="M709.85,-306.6C698.98,-296.78 686.3,-285.34 676.59,-276.58"/>
<polygon fill="midnightblue" stroke="midnightblue" points="707.61,-309.29 717.38,-313.4 712.3,-304.1 707.61,-309.29"/>
</g>
<!-- Node30&#45;&gt;Node3 -->
<g id="edge54" class="edge">
<title>Node30&#45;&gt;Node3</title>
<path fill="none" stroke="midnightblue" d="M1598.16,-327.5C1691.5,-325.31 1826.74,-315.35 1860,-277 1920.92,-206.77 1930.8,-202.62 1746,-112 1664.02,-71.8 1030.64,-67.38 829.26,-67"/>
<polygon fill="midnightblue" stroke="midnightblue" points="1598.05,-324 1588.13,-327.71 1598.2,-331 1598.05,-324"/>
</g>
<!-- Node31&#45;&gt;Node16 -->
<g id="edge57" class="edge">
<title>Node31&#45;&gt;Node16</title>
<path fill="none" stroke="midnightblue" d="M911.93,-440.67C898.64,-428.67 882.63,-414.22 872.63,-405.19"/>
<polygon fill="midnightblue" stroke="midnightblue" points="909.61,-443.29 919.38,-447.4 914.3,-438.1 909.61,-443.29"/>
</g>
<!-- Node31&#45;&gt;Node25 -->
<g id="edge56" class="edge">
<title>Node31&#45;&gt;Node25</title>
<path fill="none" stroke="midnightblue" d="M1022.77,-448.28C1113.99,-432.23 1259.21,-400.08 1374,-344 1394.53,-333.97 1393.81,-321.54 1415,-313 1540.38,-262.48 1583.47,-298.01 1717,-277 1721.53,-276.29 1726.2,-275.5 1730.89,-274.67"/>
<polygon fill="midnightblue" stroke="midnightblue" points="1022,-444.86 1012.74,-450.02 1023.19,-451.76 1022,-444.86"/>
</g>
<!-- Node31&#45;&gt;Node30 -->
<g id="edge58" class="edge">
<title>Node31&#45;&gt;Node30</title>
<path fill="none" stroke="midnightblue" d="M1022.85,-458.33C1140.54,-453.03 1342.42,-439.97 1410,-411 1449.39,-394.12 1484.74,-355.31 1499.14,-338.05"/>
<polygon fill="midnightblue" stroke="midnightblue" points="1022.62,-454.84 1012.78,-458.77 1022.93,-461.83 1022.62,-454.84"/>
</g>
</g>
</svg>
        <g id="navigator" transform="translate(0 0)" fill="#404254">
                <rect fill="#f2f5e9" fill-opacity="0.5" stroke="#606060" stroke-width=".5" x="0" y="0" width="60" height="60"/>
                <use id="zoomplus" xlink:href="#zoomPlus" x="17" y="9" onmousedown="handleZoom(evt,'in')"/>
                <use id="zoomminus" xlink:href="#zoomMin" x="42" y="9" onmousedown="handleZoom(evt,'out')"/>
                <use id="reset" xlink:href="#resetDef" x="30" y="36" onmousedown="handleReset()"/>
                <g id="arrowUp" xlink:href="#dirArrow" transform="translate(30 24)" onmousedown="handlePan(0,-1)">
                  <use xlink:href="#rim" fill="#404040">
                        <set attributeName="fill" to="#808080" begin="arrowUp.mouseover" end="arrowUp.mouseout"/>
                  </use>
                  <path fill="none" stroke="white" stroke-width="1.5" d="M0,-3.0v7 M-2.5,-0.5L0,-3.0L2.5,-0.5"/>
                </g>
                <g id="arrowRight" xlink:href="#dirArrow" transform="rotate(90) translate(36 -43)" onmousedown="handlePan(1,0)">
                  <use xlink:href="#rim" fill="#404040">
                        <set attributeName="fill" to="#808080" begin="arrowRight.mouseover" end="arrowRight.mouseout"/>
                  </use>
                  <path fill="none" stroke="white" stroke-width="1.5" d="M0,-3.0v7 M-2.5,-0.5L0,-3.0L2.5,-0.5"/>
                </g>
                <g id="arrowDown" xlink:href="#dirArrow" transform="rotate(180) translate(-30 -48)" onmousedown="handlePan(0,1)">
                  <use xlink:href="#rim" fill="#404040">
                        <set attributeName="fill" to="#808080" begin="arrowDown.mouseover" end="arrowDown.mouseout"/>
                  </use>
                  <path fill="none" stroke="white" stroke-width="1.5" d="M0,-3.0v7 M-2.5,-0.5L0,-3.0L2.5,-0.5"/>
                </g>
                <g id="arrowLeft" xlink:href="#dirArrow" transform="rotate(270) translate(-36 17)" onmousedown="handlePan(-1,0)">
                  <use xlink:href="#rim" fill="#404040">
                        <set attributeName="fill" to="#808080" begin="arrowLeft.mouseover" end="arrowLeft.mouseout"/>
                  </use>
                  <path fill="none" stroke="white" stroke-width="1.5" d="M0,-3.0v7 M-2.5,-0.5L0,-3.0L2.5,-0.5"/>
                </g>
        </g>
        <svg viewBox="0 0 15 15" width="100%" height="30px" preserveAspectRatio="xMaxYMin meet">
         <g id="arrow_out" transform="scale(0.3 0.3)">
          <a xlink:href="session__metrics_8h__dep__incl_org.svg" target="_base">
           <rect id="button" ry="5" rx="5" y="6" x="6" height="38" width="38"
                fill="#f2f5e9" fill-opacity="0.5" stroke="#606060" stroke-width="1.0"/>
           <path id="arrow"
             d="M 11.500037,31.436501 C 11.940474,20.09759 22.043105,11.32322 32.158766,21.979434 L 37.068811,17.246167 C 37.068811,17.246167 37.088388,32 37.088388,32 L 22.160133,31.978069 C 22.160133,31.978069 26.997745,27.140456 26.997745,27.140456 C 18.528582,18.264221 13.291696,25.230495 11.500037,31.436501 z"
             style="fill:#404040;"/>
          </a>
         </g>
        </svg>
</svg>
