<?xml version="1.0" encoding="UTF-8" standalone="no"?>
<!DOCTYPE svg PUBLIC "-//W3C//DTD SVG 1.1//EN"
 "http://www.w3.org/Graphics/SVG/1.1/DTD/svg11.dtd">
<!-- Generated by graphviz version 2.43.0 (0)
 -->
<!-- Title: src/enclave/endpoint.h Pages: 1 -->
<svg width="1440pt" height="934pt"
 viewBox="0.00 0.00 1440.00 934.00" xmlns="http://www.w3.org/2000/svg" xmlns:xlink="http://www.w3.org/1999/xlink">
<g id="graph0" class="graph" transform="scale(1 1) rotate(0) translate(4 930)">
<title>src/enclave/endpoint.h</title>
<polygon fill="white" stroke="transparent" points="-4,4 -4,-930 1436,-930 1436,4 -4,4"/>
<!-- Node1 -->
<g id="node1" class="node">
<title>Node1</title>
<g id="a_node1"><a xlink:title=" ">
<polygon fill="#bfbfbf" stroke="black" points="832,-906.5 832,-925.5 959,-925.5 959,-906.5 832,-906.5"/>
<text text-anchor="middle" x="895.5" y="-913.5" font-family="Helvetica,sans-Serif" font-size="10.00">src/enclave/endpoint.h</text>
</a>
</g>
</g>
<!-- Node2 -->
<g id="node2" class="node">
<title>Node2</title>
<g id="a_node2"><a xlink:href="tls__endpoint_8h.html" target="_top" xlink:title=" ">
<polygon fill="white" stroke="black" points="773.5,-850.5 773.5,-869.5 917.5,-869.5 917.5,-850.5 773.5,-850.5"/>
<text text-anchor="middle" x="845.5" y="-857.5" font-family="Helvetica,sans-Serif" font-size="10.00">src/enclave/tls_endpoint.h</text>
</a>
</g>
</g>
<!-- Node1&#45;&gt;Node2 -->
<g id="edge1" class="edge">
<title>Node1&#45;&gt;Node2</title>
<path fill="none" stroke="midnightblue" d="M880.42,-898.72C871.61,-889.2 860.83,-877.56 853.6,-869.75"/>
<polygon fill="midnightblue" stroke="midnightblue" points="877.88,-901.12 887.24,-906.08 883.02,-896.37 877.88,-901.12"/>
</g>
<!-- Node37 -->
<g id="node37" class="node">
<title>Node37</title>
<g id="a_node37"><a xlink:href="quic__endpoint_8h.html" target="_top" xlink:title=" ">
<polygon fill="white" stroke="black" points="1029.5,-794.5 1029.5,-813.5 1163.5,-813.5 1163.5,-794.5 1029.5,-794.5"/>
<text text-anchor="middle" x="1096.5" y="-801.5" font-family="Helvetica,sans-Serif" font-size="10.00">src/quic/quic_endpoint.h</text>
</a>
</g>
</g>
<!-- Node1&#45;&gt;Node37 -->
<g id="edge60" class="edge">
<title>Node1&#45;&gt;Node37</title>
<path fill="none" stroke="midnightblue" d="M920.27,-901.45C962.2,-878.5 1046.01,-832.63 1080.8,-813.59"/>
<polygon fill="midnightblue" stroke="midnightblue" points="918.36,-898.5 911.27,-906.37 921.72,-904.64 918.36,-898.5"/>
</g>
<!-- Node3 -->
<g id="node3" class="node">
<title>Node3</title>
<g id="a_node3"><a xlink:href="http__parser_8h.html" target="_top" xlink:title=" ">
<polygon fill="white" stroke="black" points="701.5,-738.5 701.5,-757.5 821.5,-757.5 821.5,-738.5 701.5,-738.5"/>
<text text-anchor="middle" x="761.5" y="-745.5" font-family="Helvetica,sans-Serif" font-size="10.00">src/http/http_parser.h</text>
</a>
</g>
</g>
<!-- Node2&#45;&gt;Node3 -->
<g id="edge2" class="edge">
<title>Node2&#45;&gt;Node3</title>
<path fill="none" stroke="midnightblue" d="M817.55,-845.38C804.6,-837.77 790,-827.17 780.5,-814 767.98,-796.65 763.66,-771.11 762.21,-757.8"/>
<polygon fill="midnightblue" stroke="midnightblue" points="816.16,-848.6 826.6,-850.37 819.54,-842.47 816.16,-848.6"/>
</g>
<!-- Node36 -->
<g id="node36" class="node">
<title>Node36</title>
<g id="a_node36"><a xlink:href="http__proc_8h.html" target="_top" xlink:title=" ">
<polygon fill="white" stroke="black" points="790,-794.5 790,-813.5 901,-813.5 901,-794.5 790,-794.5"/>
<text text-anchor="middle" x="845.5" y="-801.5" font-family="Helvetica,sans-Serif" font-size="10.00">src/http/http_proc.h</text>
</a>
</g>
</g>
<!-- Node2&#45;&gt;Node36 -->
<g id="edge58" class="edge">
<title>Node2&#45;&gt;Node36</title>
<path fill="none" stroke="midnightblue" d="M845.5,-839.8C845.5,-830.91 845.5,-820.78 845.5,-813.75"/>
<polygon fill="midnightblue" stroke="midnightblue" points="842,-840.08 845.5,-850.08 849,-840.08 842,-840.08"/>
</g>
<!-- Node4 -->
<g id="node4" class="node">
<title>Node4</title>
<g id="a_node4"><a xlink:href="rpc__tls__client_8h.html" target="_top" xlink:title=" ">
<polygon fill="white" stroke="black" points="408,-615.5 408,-645.5 509,-645.5 509,-615.5 408,-615.5"/>
<text text-anchor="start" x="416" y="-633.5" font-family="Helvetica,sans-Serif" font-size="10.00">src/clients/rpc_tls</text>
<text text-anchor="middle" x="458.5" y="-622.5" font-family="Helvetica,sans-Serif" font-size="10.00">_client.h</text>
</a>
</g>
</g>
<!-- Node3&#45;&gt;Node4 -->
<g id="edge3" class="edge">
<title>Node3&#45;&gt;Node4</title>
<path fill="none" stroke="midnightblue" d="M691.08,-738.78C650.45,-732.29 599.14,-721.03 556.5,-702 524.35,-687.65 492.19,-661.77 473.88,-645.68"/>
<polygon fill="midnightblue" stroke="midnightblue" points="690.75,-742.27 701.16,-740.33 691.81,-735.35 690.75,-742.27"/>
</g>
<!-- Node9 -->
<g id="node9" class="node">
<title>Node9</title>
<g id="a_node9"><a xlink:href="acme__challenge__server_8h.html" target="_top" xlink:title=" ">
<polygon fill="white" stroke="black" points="654,-492.5 654,-522.5 791,-522.5 791,-492.5 654,-492.5"/>
<text text-anchor="start" x="662" y="-510.5" font-family="Helvetica,sans-Serif" font-size="10.00">src/host/acme_challenge</text>
<text text-anchor="middle" x="722.5" y="-499.5" font-family="Helvetica,sans-Serif" font-size="10.00">_server.h</text>
</a>
</g>
</g>
<!-- Node3&#45;&gt;Node9 -->
<g id="edge9" class="edge">
<title>Node3&#45;&gt;Node9</title>
<path fill="none" stroke="midnightblue" d="M754.21,-728.91C746.55,-708.97 734.88,-675.77 729.5,-646 721.46,-601.54 721.48,-547.78 722.04,-522.69"/>
<polygon fill="midnightblue" stroke="midnightblue" points="750.98,-730.25 757.9,-738.28 757.5,-727.69 750.98,-730.25"/>
</g>
<!-- Node11 -->
<g id="node11" class="node">
<title>Node11</title>
<g id="a_node11"><a xlink:href="http__endpoint_8h.html" target="_top" xlink:title=" ">
<polygon fill="white" stroke="black" points="848,-559.5 848,-578.5 981,-578.5 981,-559.5 848,-559.5"/>
<text text-anchor="middle" x="914.5" y="-566.5" font-family="Helvetica,sans-Serif" font-size="10.00">src/http/http_endpoint.h</text>
</a>
</g>
</g>
<!-- Node3&#45;&gt;Node11 -->
<g id="edge11" class="edge">
<title>Node3&#45;&gt;Node11</title>
<path fill="none" stroke="midnightblue" d="M788.83,-733.44C819.23,-716.94 867.6,-686.24 894.5,-646 908.76,-624.68 912.86,-593.68 914.03,-578.72"/>
<polygon fill="midnightblue" stroke="midnightblue" points="786.85,-730.53 779.64,-738.29 790.11,-736.72 786.85,-730.53"/>
</g>
<!-- Node26 -->
<g id="node26" class="node">
<title>Node26</title>
<g id="a_node26"><a xlink:href="http__jwt_8h.html" target="_top" xlink:title=" ">
<polygon fill="white" stroke="black" points="131,-682.5 131,-701.5 236,-701.5 236,-682.5 131,-682.5"/>
<text text-anchor="middle" x="183.5" y="-689.5" font-family="Helvetica,sans-Serif" font-size="10.00">src/http/http_jwt.h</text>
</a>
</g>
</g>
<!-- Node3&#45;&gt;Node26 -->
<g id="edge37" class="edge">
<title>Node3&#45;&gt;Node26</title>
<path fill="none" stroke="midnightblue" d="M690.98,-740.41C573.62,-729.45 340.86,-707.7 236.4,-697.94"/>
<polygon fill="midnightblue" stroke="midnightblue" points="691,-743.93 701.28,-741.37 691.65,-736.96 691,-743.93"/>
</g>
<!-- Node31 -->
<g id="node31" class="node">
<title>Node31</title>
<g id="a_node31"><a xlink:href="http__rpc__context_8h.html" target="_top" xlink:title=" ">
<polygon fill="white" stroke="black" points="739,-621 739,-640 886,-640 886,-621 739,-621"/>
<text text-anchor="middle" x="812.5" y="-628" font-family="Helvetica,sans-Serif" font-size="10.00">src/http/http_rpc_context.h</text>
</a>
</g>
</g>
<!-- Node3&#45;&gt;Node31 -->
<g id="edge46" class="edge">
<title>Node3&#45;&gt;Node31</title>
<path fill="none" stroke="midnightblue" d="M769.52,-728.84C780.64,-703.66 800.31,-659.1 808.62,-640.28"/>
<polygon fill="midnightblue" stroke="midnightblue" points="766.17,-727.76 765.33,-738.32 772.57,-730.58 766.17,-727.76"/>
</g>
<!-- Node33 -->
<g id="node33" class="node">
<title>Node33</title>
<g id="a_node33"><a xlink:href="http__sig_8h.html" target="_top" xlink:title=" ">
<polygon fill="white" stroke="black" points="565.5,-682.5 565.5,-701.5 669.5,-701.5 669.5,-682.5 565.5,-682.5"/>
<text text-anchor="middle" x="617.5" y="-689.5" font-family="Helvetica,sans-Serif" font-size="10.00">src/http/http_sig.h</text>
</a>
</g>
</g>
<!-- Node3&#45;&gt;Node33 -->
<g id="edge52" class="edge">
<title>Node3&#45;&gt;Node33</title>
<path fill="none" stroke="midnightblue" d="M729.25,-734.91C702.18,-724.75 664.18,-710.51 640.21,-701.52"/>
<polygon fill="midnightblue" stroke="midnightblue" points="728.09,-738.21 738.68,-738.44 730.55,-731.66 728.09,-738.21"/>
</g>
<!-- Node35 -->
<g id="node35" class="node">
<title>Node35</title>
<g id="a_node35"><a xlink:href="acme__client_8h.html" target="_top" xlink:title=" ">
<polygon fill="white" stroke="black" points="999,-559.5 999,-578.5 1128,-578.5 1128,-559.5 999,-559.5"/>
<text text-anchor="middle" x="1063.5" y="-566.5" font-family="Helvetica,sans-Serif" font-size="10.00">src/node/acme_client.h</text>
</a>
</g>
</g>
<!-- Node3&#45;&gt;Node35 -->
<g id="edge56" class="edge">
<title>Node3&#45;&gt;Node35</title>
<path fill="none" stroke="midnightblue" d="M793.75,-734.79C814.66,-726.45 842.23,-714.66 865.5,-702 939.9,-661.53 1022.11,-601.23 1051.91,-578.81"/>
<polygon fill="midnightblue" stroke="midnightblue" points="792.39,-731.56 784.37,-738.48 794.96,-738.08 792.39,-731.56"/>
</g>
<!-- Node5 -->
<g id="node5" class="node">
<title>Node5</title>
<g id="a_node5"><a xlink:href="perf__client_8h.html" target="_top" xlink:title=" ">
<polygon fill="white" stroke="black" points="345,-492.5 345,-522.5 456,-522.5 456,-492.5 345,-492.5"/>
<text text-anchor="start" x="353" y="-510.5" font-family="Helvetica,sans-Serif" font-size="10.00">src/clients/perf/perf</text>
<text text-anchor="middle" x="400.5" y="-499.5" font-family="Helvetica,sans-Serif" font-size="10.00">_client.h</text>
</a>
</g>
</g>
<!-- Node4&#45;&gt;Node5 -->
<g id="edge4" class="edge">
<title>Node4&#45;&gt;Node5</title>
<path fill="none" stroke="midnightblue" d="M422.93,-609.69C412.07,-601.69 401.45,-591.39 395.5,-579 386.84,-560.97 391.24,-537.32 395.57,-522.51"/>
<polygon fill="midnightblue" stroke="midnightblue" points="420.97,-612.59 431.2,-615.36 424.93,-606.82 420.97,-612.59"/>
</g>
<!-- Node8 -->
<g id="node8" class="node">
<title>Node8</title>
<g id="a_node8"><a xlink:href="timing_8h.html" target="_top" xlink:title=" ">
<polygon fill="white" stroke="black" points="404.5,-559.5 404.5,-578.5 536.5,-578.5 536.5,-559.5 404.5,-559.5"/>
<text text-anchor="middle" x="470.5" y="-566.5" font-family="Helvetica,sans-Serif" font-size="10.00">src/clients/perf/timing.h</text>
</a>
</g>
</g>
<!-- Node4&#45;&gt;Node8 -->
<g id="edge7" class="edge">
<title>Node4&#45;&gt;Node8</title>
<path fill="none" stroke="midnightblue" d="M463.32,-605.59C465.24,-596.08 467.33,-585.73 468.75,-578.66"/>
<polygon fill="midnightblue" stroke="midnightblue" points="459.89,-604.9 461.34,-615.4 466.75,-606.29 459.89,-604.9"/>
</g>
<!-- Node6 -->
<g id="node6" class="node">
<title>Node6</title>
<g id="a_node6"><a xlink:href="tpcc__client_8cpp.html" target="_top" xlink:title=" ">
<polygon fill="white" stroke="black" points="211.5,-425.5 211.5,-455.5 327.5,-455.5 327.5,-425.5 211.5,-425.5"/>
<text text-anchor="start" x="219.5" y="-443.5" font-family="Helvetica,sans-Serif" font-size="10.00">src/apps/tpcc/clients</text>
<text text-anchor="middle" x="269.5" y="-432.5" font-family="Helvetica,sans-Serif" font-size="10.00">/tpcc_client.cpp</text>
</a>
</g>
</g>
<!-- Node5&#45;&gt;Node6 -->
<g id="edge5" class="edge">
<title>Node5&#45;&gt;Node6</title>
<path fill="none" stroke="midnightblue" d="M362.92,-487.85C342.21,-477.58 316.91,-465.03 297.87,-455.58"/>
<polygon fill="midnightblue" stroke="midnightblue" points="361.56,-491.09 372.07,-492.4 364.67,-484.82 361.56,-491.09"/>
</g>
<!-- Node7 -->
<g id="node7" class="node">
<title>Node7</title>
<g id="a_node7"><a xlink:href="scenario__perf__client_8cpp.html" target="_top" xlink:title=" ">
<polygon fill="white" stroke="black" points="346,-425.5 346,-455.5 479,-455.5 479,-425.5 346,-425.5"/>
<text text-anchor="start" x="354" y="-443.5" font-family="Helvetica,sans-Serif" font-size="10.00">src/clients/perf/scenario</text>
<text text-anchor="middle" x="412.5" y="-432.5" font-family="Helvetica,sans-Serif" font-size="10.00">_perf_client.cpp</text>
</a>
</g>
</g>
<!-- Node5&#45;&gt;Node7 -->
<g id="edge6" class="edge">
<title>Node5&#45;&gt;Node7</title>
<path fill="none" stroke="midnightblue" d="M404.95,-482.4C406.62,-473.37 408.46,-463.41 409.9,-455.58"/>
<polygon fill="midnightblue" stroke="midnightblue" points="401.48,-481.93 403.1,-492.4 408.36,-483.2 401.48,-481.93"/>
</g>
<!-- Node8&#45;&gt;Node5 -->
<g id="edge8" class="edge">
<title>Node8&#45;&gt;Node5</title>
<path fill="none" stroke="midnightblue" d="M452.76,-552.92C441.77,-543.58 427.75,-531.66 417,-522.52"/>
<polygon fill="midnightblue" stroke="midnightblue" points="450.58,-555.67 460.47,-559.48 455.12,-550.33 450.58,-555.67"/>
</g>
<!-- Node10 -->
<g id="node10" class="node">
<title>Node10</title>
<g id="a_node10"><a xlink:href="host_2main_8cpp.html" target="_top" xlink:title=" ">
<polygon fill="white" stroke="black" points="650,-431 650,-450 753,-450 753,-431 650,-431"/>
<text text-anchor="middle" x="701.5" y="-438" font-family="Helvetica,sans-Serif" font-size="10.00">src/host/main.cpp</text>
</a>
</g>
</g>
<!-- Node9&#45;&gt;Node10 -->
<g id="edge10" class="edge">
<title>Node9&#45;&gt;Node10</title>
<path fill="none" stroke="midnightblue" d="M714.78,-482.6C711.12,-471.28 706.98,-458.46 704.31,-450.19"/>
<polygon fill="midnightblue" stroke="midnightblue" points="711.54,-483.96 717.94,-492.4 718.2,-481.8 711.54,-483.96"/>
</g>
<!-- Node11&#45;&gt;Node9 -->
<g id="edge36" class="edge">
<title>Node11&#45;&gt;Node9</title>
<path fill="none" stroke="midnightblue" d="M877.34,-556.48C846.03,-546.78 801.14,-532.87 767.75,-522.52"/>
<polygon fill="midnightblue" stroke="midnightblue" points="876.4,-559.86 886.99,-559.48 878.48,-553.17 876.4,-559.86"/>
</g>
<!-- Node12 -->
<g id="node12" class="node">
<title>Node12</title>
<g id="a_node12"><a xlink:href="rpc__sessions_8h.html" target="_top" xlink:title=" ">
<polygon fill="white" stroke="black" points="1083.5,-498 1083.5,-517 1229.5,-517 1229.5,-498 1083.5,-498"/>
<text text-anchor="middle" x="1156.5" y="-505" font-family="Helvetica,sans-Serif" font-size="10.00">src/enclave/rpc_sessions.h</text>
</a>
</g>
</g>
<!-- Node11&#45;&gt;Node12 -->
<g id="edge12" class="edge">
<title>Node11&#45;&gt;Node12</title>
<path fill="none" stroke="midnightblue" d="M959.07,-557.04C1006.05,-545.49 1079.06,-527.54 1121.89,-517.01"/>
<polygon fill="midnightblue" stroke="midnightblue" points="958.05,-553.69 949.17,-559.48 959.72,-560.49 958.05,-553.69"/>
</g>
<!-- Node13 -->
<g id="node13" class="node">
<title>Node13</title>
<g id="a_node13"><a xlink:href="enclave_2enclave_8h.html" target="_top" xlink:title=" ">
<polygon fill="white" stroke="black" points="635.5,-56.5 635.5,-75.5 757.5,-75.5 757.5,-56.5 635.5,-56.5"/>
<text text-anchor="middle" x="696.5" y="-63.5" font-family="Helvetica,sans-Serif" font-size="10.00">src/enclave/enclave.h</text>
</a>
</g>
</g>
<!-- Node12&#45;&gt;Node13 -->
<g id="edge13" class="edge">
<title>Node12&#45;&gt;Node13</title>
<path fill="none" stroke="midnightblue" d="M1073.23,-497.98C940.68,-479.31 696.5,-421.81 696.5,-251.5 696.5,-251.5 696.5,-251.5 696.5,-182.5 696.5,-142.6 696.5,-94.94 696.5,-75.69"/>
<polygon fill="midnightblue" stroke="midnightblue" points="1072.98,-501.48 1083.36,-499.36 1073.92,-494.54 1072.98,-501.48"/>
</g>
<!-- Node15 -->
<g id="node15" class="node">
<title>Node15</title>
<g id="a_node15"><a xlink:href="ccf__acme__client_8h.html" target="_top" xlink:title=" ">
<polygon fill="white" stroke="black" points="1283,-431 1283,-450 1432,-450 1432,-431 1283,-431"/>
<text text-anchor="middle" x="1357.5" y="-438" font-family="Helvetica,sans-Serif" font-size="10.00">src/node/ccf_acme_client.h</text>
</a>
</g>
</g>
<!-- Node12&#45;&gt;Node15 -->
<g id="edge15" class="edge">
<title>Node12&#45;&gt;Node15</title>
<path fill="none" stroke="midnightblue" d="M1192.79,-494.77C1232.61,-481.89 1295.59,-461.52 1331.02,-450.06"/>
<polygon fill="midnightblue" stroke="midnightblue" points="1191.63,-491.46 1183.19,-497.87 1193.78,-498.12 1191.63,-491.46"/>
</g>
<!-- Node16 -->
<g id="node16" class="node">
<title>Node16</title>
<g id="a_node16"><a xlink:href="node__state_8h.html" target="_top" xlink:title=" ">
<polygon fill="white" stroke="black" points="910.5,-174 910.5,-193 1034.5,-193 1034.5,-174 910.5,-174"/>
<text text-anchor="middle" x="972.5" y="-181" font-family="Helvetica,sans-Serif" font-size="10.00">src/node/node_state.h</text>
</a>
</g>
</g>
<!-- Node12&#45;&gt;Node16 -->
<g id="edge33" class="edge">
<title>Node12&#45;&gt;Node16</title>
<path fill="none" stroke="midnightblue" d="M1177.77,-491.93C1206.86,-470.1 1255.5,-425.9 1255.5,-374.5 1255.5,-374.5 1255.5,-374.5 1255.5,-311 1255.5,-276.18 1261.8,-258.92 1236.5,-235 1208.02,-208.07 1103.22,-194.74 1034.54,-188.75"/>
<polygon fill="midnightblue" stroke="midnightblue" points="1175.48,-489.27 1169.44,-497.98 1179.59,-494.94 1175.48,-489.27"/>
</g>
<!-- Node18 -->
<g id="node18" class="node">
<title>Node18</title>
<g id="a_node18"><a xlink:href="node__client_8h.html" target="_top" xlink:title=" ">
<polygon fill="white" stroke="black" points="1063.5,-431 1063.5,-450 1189.5,-450 1189.5,-431 1063.5,-431"/>
<text text-anchor="middle" x="1126.5" y="-438" font-family="Helvetica,sans-Serif" font-size="10.00">src/node/node_client.h</text>
</a>
</g>
</g>
<!-- Node12&#45;&gt;Node18 -->
<g id="edge20" class="edge">
<title>Node12&#45;&gt;Node18</title>
<path fill="none" stroke="midnightblue" d="M1148.1,-488.29C1142.33,-475.81 1134.95,-459.81 1130.48,-450.13"/>
<polygon fill="midnightblue" stroke="midnightblue" points="1145.09,-490.12 1152.45,-497.73 1151.44,-487.19 1145.09,-490.12"/>
</g>
<!-- Node25 -->
<g id="node25" class="node">
<title>Node25</title>
<g id="a_node25"><a xlink:href="resharing_8h.html" target="_top" xlink:title=" ">
<polygon fill="white" stroke="black" points="1111.5,-241 1111.5,-260 1227.5,-260 1227.5,-241 1111.5,-241"/>
<text text-anchor="middle" x="1169.5" y="-248" font-family="Helvetica,sans-Serif" font-size="10.00">src/node/resharing.h</text>
</a>
</g>
</g>
<!-- Node12&#45;&gt;Node25 -->
<g id="edge34" class="edge">
<title>Node12&#45;&gt;Node25</title>
<path fill="none" stroke="midnightblue" d="M1174.7,-490.62C1183.73,-481.51 1193.7,-469.27 1198.5,-456 1224.59,-383.83 1186.8,-289.42 1173.69,-260.38"/>
<polygon fill="midnightblue" stroke="midnightblue" points="1172.02,-488.34 1167.17,-497.76 1176.84,-493.42 1172.02,-488.34"/>
</g>
<!-- Node14 -->
<g id="node14" class="node">
<title>Node14</title>
<g id="a_node14"><a xlink:href="enclave_2main_8cpp.html" target="_top" xlink:title=" ">
<polygon fill="white" stroke="black" points="636.5,-0.5 636.5,-19.5 756.5,-19.5 756.5,-0.5 636.5,-0.5"/>
<text text-anchor="middle" x="696.5" y="-7.5" font-family="Helvetica,sans-Serif" font-size="10.00">src/enclave/main.cpp</text>
</a>
</g>
</g>
<!-- Node13&#45;&gt;Node14 -->
<g id="edge14" class="edge">
<title>Node13&#45;&gt;Node14</title>
<path fill="none" stroke="midnightblue" d="M696.5,-45.8C696.5,-36.91 696.5,-26.78 696.5,-19.75"/>
<polygon fill="midnightblue" stroke="midnightblue" points="693,-46.08 696.5,-56.08 700,-46.08 693,-46.08"/>
</g>
<!-- Node15&#45;&gt;Node16 -->
<g id="edge16" class="edge">
<title>Node15&#45;&gt;Node16</title>
<path fill="none" stroke="midnightblue" d="M1355.37,-420.84C1349.65,-380.01 1330.04,-282.61 1269.5,-235 1233.94,-207.03 1110.81,-193.8 1034.7,-188.16"/>
<polygon fill="midnightblue" stroke="midnightblue" points="1351.9,-421.29 1356.64,-430.76 1358.84,-420.4 1351.9,-421.29"/>
</g>
<!-- Node16&#45;&gt;Node13 -->
<g id="edge17" class="edge">
<title>Node16&#45;&gt;Node13</title>
<path fill="none" stroke="midnightblue" d="M972.67,-163.26C971.72,-147.2 967.66,-124.94 953.5,-112 925.54,-86.45 824.42,-75.07 757.67,-70.26"/>
<polygon fill="midnightblue" stroke="midnightblue" points="969.18,-163.71 972.91,-173.62 976.18,-163.54 969.18,-163.71"/>
</g>
<!-- Node17 -->
<g id="node17" class="node">
<title>Node17</title>
<g id="a_node17"><a xlink:href="gov__effects_8h.html" target="_top" xlink:title=" ">
<polygon fill="white" stroke="black" points="800.5,-112.5 800.5,-131.5 944.5,-131.5 944.5,-112.5 800.5,-112.5"/>
<text text-anchor="middle" x="872.5" y="-119.5" font-family="Helvetica,sans-Serif" font-size="10.00">src/node/rpc/gov_effects.h</text>
</a>
</g>
</g>
<!-- Node16&#45;&gt;Node17 -->
<g id="edge18" class="edge">
<title>Node16&#45;&gt;Node17</title>
<path fill="none" stroke="midnightblue" d="M949.38,-168.74C930.06,-157.25 903.13,-141.22 886.8,-131.51"/>
<polygon fill="midnightblue" stroke="midnightblue" points="947.79,-171.87 958.17,-173.98 951.37,-165.85 947.79,-171.87"/>
</g>
<!-- Node17&#45;&gt;Node13 -->
<g id="edge19" class="edge">
<title>Node17&#45;&gt;Node13</title>
<path fill="none" stroke="midnightblue" d="M834.81,-109.44C801.63,-99.26 754.07,-84.66 724.26,-75.52"/>
<polygon fill="midnightblue" stroke="midnightblue" points="834.03,-112.86 844.61,-112.44 836.08,-106.16 834.03,-112.86"/>
</g>
<!-- Node19 -->
<g id="node19" class="node">
<title>Node19</title>
<g id="a_node19"><a xlink:href="orc__requests_8h.html" target="_top" xlink:title=" ">
<polygon fill="white" stroke="black" points="848,-358.5 848,-388.5 967,-388.5 967,-358.5 848,-358.5"/>
<text text-anchor="start" x="856" y="-376.5" font-family="Helvetica,sans-Serif" font-size="10.00">src/consensus/aft/orc</text>
<text text-anchor="middle" x="907.5" y="-365.5" font-family="Helvetica,sans-Serif" font-size="10.00">_requests.h</text>
</a>
</g>
</g>
<!-- Node18&#45;&gt;Node19 -->
<g id="edge21" class="edge">
<title>Node18&#45;&gt;Node19</title>
<path fill="none" stroke="midnightblue" d="M1087.47,-427.92C1050.34,-416.9 994.41,-400.29 954.76,-388.53"/>
<polygon fill="midnightblue" stroke="midnightblue" points="1086.84,-431.38 1097.42,-430.87 1088.83,-424.67 1086.84,-431.38"/>
</g>
<!-- Node20 -->
<g id="node20" class="node">
<title>Node20</title>
<g id="a_node20"><a xlink:href="raft_8h.html" target="_top" xlink:title=" ">
<polygon fill="white" stroke="black" points="981,-302.5 981,-321.5 1110,-321.5 1110,-302.5 981,-302.5"/>
<text text-anchor="middle" x="1045.5" y="-309.5" font-family="Helvetica,sans-Serif" font-size="10.00">src/consensus/aft/raft.h</text>
</a>
</g>
</g>
<!-- Node18&#45;&gt;Node20 -->
<g id="edge28" class="edge">
<title>Node18&#45;&gt;Node20</title>
<path fill="none" stroke="midnightblue" d="M1130.36,-420.78C1132.93,-403.25 1134.02,-376.97 1122.5,-358 1111.57,-340 1090.53,-328.42 1073.19,-321.53"/>
<polygon fill="midnightblue" stroke="midnightblue" points="1126.87,-420.42 1128.57,-430.88 1133.76,-421.64 1126.87,-420.42"/>
</g>
<!-- Node23 -->
<g id="node23" class="node">
<title>Node23</title>
<g id="a_node23"><a xlink:href="http__node__client_8h.html" target="_top" xlink:title=" ">
<polygon fill="white" stroke="black" points="983.5,-235.5 983.5,-265.5 1093.5,-265.5 1093.5,-235.5 983.5,-235.5"/>
<text text-anchor="start" x="991.5" y="-253.5" font-family="Helvetica,sans-Serif" font-size="10.00">src/node/http_node</text>
<text text-anchor="middle" x="1038.5" y="-242.5" font-family="Helvetica,sans-Serif" font-size="10.00">_client.h</text>
</a>
</g>
</g>
<!-- Node18&#45;&gt;Node23 -->
<g id="edge29" class="edge">
<title>Node18&#45;&gt;Node23</title>
<path fill="none" stroke="midnightblue" d="M1132.86,-421.19C1135.83,-411.71 1139.02,-399.87 1140.5,-389 1145.86,-349.59 1144.7,-332.78 1119.5,-302 1106.69,-286.36 1087.7,-274.15 1071.32,-265.67"/>
<polygon fill="midnightblue" stroke="midnightblue" points="1129.53,-420.12 1129.72,-430.71 1136.18,-422.31 1129.53,-420.12"/>
</g>
<!-- Node24 -->
<g id="node24" class="node">
<title>Node24</title>
<g id="a_node24"><a xlink:href="retired__nodes__cleanup_8h.html" target="_top" xlink:title=" ">
<polygon fill="white" stroke="black" points="985.5,-358.5 985.5,-388.5 1113.5,-388.5 1113.5,-358.5 985.5,-358.5"/>
<text text-anchor="start" x="993.5" y="-376.5" font-family="Helvetica,sans-Serif" font-size="10.00">src/node/retired_nodes</text>
<text text-anchor="middle" x="1049.5" y="-365.5" font-family="Helvetica,sans-Serif" font-size="10.00">_cleanup.h</text>
</a>
</g>
</g>
<!-- Node18&#45;&gt;Node24 -->
<g id="edge31" class="edge">
<title>Node18&#45;&gt;Node24</title>
<path fill="none" stroke="midnightblue" d="M1108.42,-424.24C1095.64,-413.45 1078.64,-399.1 1066.19,-388.59"/>
<polygon fill="midnightblue" stroke="midnightblue" points="1106.22,-426.96 1116.12,-430.73 1110.73,-421.61 1106.22,-426.96"/>
</g>
<!-- Node19&#45;&gt;Node20 -->
<g id="edge22" class="edge">
<title>Node19&#45;&gt;Node20</title>
<path fill="none" stroke="midnightblue" d="M949.55,-354.37C974.74,-343.51 1005.61,-330.2 1025.42,-321.66"/>
<polygon fill="midnightblue" stroke="midnightblue" points="948,-351.23 940.2,-358.4 950.77,-357.65 948,-351.23"/>
</g>
<!-- Node21 -->
<g id="node21" class="node">
<title>Node21</title>
<g id="a_node21"><a xlink:href="node__frontend_8h.html" target="_top" xlink:title=" ">
<polygon fill="white" stroke="black" points="762.5,-302.5 762.5,-321.5 920.5,-321.5 920.5,-302.5 762.5,-302.5"/>
<text text-anchor="middle" x="841.5" y="-309.5" font-family="Helvetica,sans-Serif" font-size="10.00">src/node/rpc/node_frontend.h</text>
</a>
</g>
</g>
<!-- Node19&#45;&gt;Node21 -->
<g id="edge24" class="edge">
<title>Node19&#45;&gt;Node21</title>
<path fill="none" stroke="midnightblue" d="M884.31,-351.6C872.91,-341.32 859.78,-329.48 851.1,-321.66"/>
<polygon fill="midnightblue" stroke="midnightblue" points="882.09,-354.3 891.86,-358.4 886.78,-349.1 882.09,-354.3"/>
</g>
<!-- Node20&#45;&gt;Node16 -->
<g id="edge23" class="edge">
<title>Node20&#45;&gt;Node16</title>
<path fill="none" stroke="midnightblue" d="M1011.77,-298.19C997.68,-290.99 982.7,-280.48 974.5,-266 961.18,-242.48 966.62,-208.69 970.25,-193.04"/>
<polygon fill="midnightblue" stroke="midnightblue" points="1010.29,-301.36 1020.83,-302.45 1013.27,-295.03 1010.29,-301.36"/>
</g>
<!-- Node21&#45;&gt;Node13 -->
<g id="edge25" class="edge">
<title>Node21&#45;&gt;Node13</title>
<path fill="none" stroke="midnightblue" d="M821.86,-295.95C812.17,-287.83 800.81,-277.19 792.5,-266 743.33,-199.79 709.04,-104.43 699.32,-75.58"/>
<polygon fill="midnightblue" stroke="midnightblue" points="819.85,-298.82 829.83,-302.39 824.25,-293.38 819.85,-298.82"/>
</g>
<!-- Node22 -->
<g id="node22" class="node">
<title>Node22</title>
<g id="a_node22"><a xlink:href="jwt__key__auto__refresh_8h.html" target="_top" xlink:title=" ">
<polygon fill="white" stroke="black" points="802,-235.5 802,-265.5 927,-265.5 927,-235.5 802,-235.5"/>
<text text-anchor="start" x="810" y="-253.5" font-family="Helvetica,sans-Serif" font-size="10.00">src/node/jwt_key_auto</text>
<text text-anchor="middle" x="864.5" y="-242.5" font-family="Helvetica,sans-Serif" font-size="10.00">_refresh.h</text>
</a>
</g>
</g>
<!-- Node21&#45;&gt;Node22 -->
<g id="edge26" class="edge">
<title>Node21&#45;&gt;Node22</title>
<path fill="none" stroke="midnightblue" d="M848.42,-293.1C851.83,-284.27 855.89,-273.77 859.08,-265.52"/>
<polygon fill="midnightblue" stroke="midnightblue" points="845.14,-291.89 844.8,-302.48 851.67,-294.41 845.14,-291.89"/>
</g>
<!-- Node22&#45;&gt;Node16 -->
<g id="edge27" class="edge">
<title>Node22&#45;&gt;Node16</title>
<path fill="none" stroke="midnightblue" d="M896.67,-230.14C917.19,-217.79 942.78,-202.39 958.37,-193.01"/>
<polygon fill="midnightblue" stroke="midnightblue" points="894.7,-227.24 887.93,-235.4 898.31,-233.24 894.7,-227.24"/>
</g>
<!-- Node23&#45;&gt;Node16 -->
<g id="edge30" class="edge">
<title>Node23&#45;&gt;Node16</title>
<path fill="none" stroke="midnightblue" d="M1017.01,-228.34C1004.89,-216.4 990.41,-202.14 981.33,-193.19"/>
<polygon fill="midnightblue" stroke="midnightblue" points="1014.6,-230.87 1024.18,-235.4 1019.51,-225.89 1014.6,-230.87"/>
</g>
<!-- Node24&#45;&gt;Node20 -->
<g id="edge32" class="edge">
<title>Node24&#45;&gt;Node20</title>
<path fill="none" stroke="midnightblue" d="M1047.87,-348.29C1047.24,-338.86 1046.55,-328.65 1046.08,-321.66"/>
<polygon fill="midnightblue" stroke="midnightblue" points="1044.39,-348.66 1048.55,-358.4 1051.37,-348.19 1044.39,-348.66"/>
</g>
<!-- Node25&#45;&gt;Node16 -->
<g id="edge35" class="edge">
<title>Node25&#45;&gt;Node16</title>
<path fill="none" stroke="midnightblue" d="M1133.44,-237.6C1094.38,-224.71 1033.03,-204.47 998.45,-193.06"/>
<polygon fill="midnightblue" stroke="midnightblue" points="1132.75,-241.06 1143.34,-240.87 1134.94,-234.41 1132.75,-241.06"/>
</g>
<!-- Node27 -->
<g id="node27" class="node">
<title>Node27</title>
<g id="a_node27"><a xlink:href="jwt__auth_8cpp.html" target="_top" xlink:title=" ">
<polygon fill="white" stroke="black" points="0,-615.5 0,-645.5 155,-645.5 155,-615.5 0,-615.5"/>
<text text-anchor="start" x="8" y="-633.5" font-family="Helvetica,sans-Serif" font-size="10.00">src/endpoints/authentication</text>
<text text-anchor="middle" x="77.5" y="-622.5" font-family="Helvetica,sans-Serif" font-size="10.00">/jwt_auth.cpp</text>
</a>
</g>
</g>
<!-- Node26&#45;&gt;Node27 -->
<g id="edge38" class="edge">
<title>Node26&#45;&gt;Node27</title>
<path fill="none" stroke="midnightblue" d="M159.52,-677.54C142.51,-667.99 119.72,-655.2 102.48,-645.52"/>
<polygon fill="midnightblue" stroke="midnightblue" points="157.88,-680.63 168.31,-682.48 161.31,-674.53 157.88,-680.63"/>
</g>
<!-- Node28 -->
<g id="node28" class="node">
<title>Node28</title>
<g id="a_node28"><a xlink:href="frontend_8h.html" target="_top" xlink:title=" ">
<polygon fill="white" stroke="black" points="501,-364 501,-383 630,-383 630,-364 501,-364"/>
<text text-anchor="middle" x="565.5" y="-371" font-family="Helvetica,sans-Serif" font-size="10.00">src/node/rpc/frontend.h</text>
</a>
</g>
</g>
<!-- Node26&#45;&gt;Node28 -->
<g id="edge39" class="edge">
<title>Node26&#45;&gt;Node28</title>
<path fill="none" stroke="midnightblue" d="M183.5,-672.44C183.5,-648.69 183.5,-606.29 183.5,-570 183.5,-570 183.5,-570 183.5,-506.5 183.5,-469.31 175.03,-450.08 202.5,-425 244.96,-386.23 408.42,-377.03 500.85,-374.97"/>
<polygon fill="midnightblue" stroke="midnightblue" points="180,-672.49 183.5,-682.49 187,-672.49 180,-672.49"/>
</g>
<!-- Node28&#45;&gt;Node16 -->
<g id="edge40" class="edge">
<title>Node28&#45;&gt;Node16</title>
<path fill="none" stroke="midnightblue" d="M585.41,-357.86C623.72,-330.29 711.1,-270.29 792.5,-235 837.76,-215.38 892.73,-201.25 929.93,-193.02"/>
<polygon fill="midnightblue" stroke="midnightblue" points="583.21,-355.13 577.17,-363.83 587.32,-360.79 583.21,-355.13"/>
</g>
<!-- Node28&#45;&gt;Node21 -->
<g id="edge43" class="edge">
<title>Node28&#45;&gt;Node21</title>
<path fill="none" stroke="midnightblue" d="M614.99,-361.83C668.52,-350.29 752.77,-332.13 802.03,-321.51"/>
<polygon fill="midnightblue" stroke="midnightblue" points="614.08,-358.45 605.04,-363.98 615.56,-365.29 614.08,-358.45"/>
</g>
<!-- Node29 -->
<g id="node29" class="node">
<title>Node29</title>
<g id="a_node29"><a xlink:href="member__frontend_8h.html" target="_top" xlink:title=" ">
<polygon fill="white" stroke="black" points="510.5,-168.5 510.5,-198.5 630.5,-198.5 630.5,-168.5 510.5,-168.5"/>
<text text-anchor="start" x="518.5" y="-186.5" font-family="Helvetica,sans-Serif" font-size="10.00">src/node/rpc/member</text>
<text text-anchor="middle" x="570.5" y="-175.5" font-family="Helvetica,sans-Serif" font-size="10.00">_frontend.h</text>
</a>
</g>
</g>
<!-- Node28&#45;&gt;Node29 -->
<g id="edge41" class="edge">
<title>Node28&#45;&gt;Node29</title>
<path fill="none" stroke="midnightblue" d="M566,-353.88C566.99,-316.33 569.23,-232.24 570.12,-198.7"/>
<polygon fill="midnightblue" stroke="midnightblue" points="562.5,-353.84 565.73,-363.93 569.49,-354.03 562.5,-353.84"/>
</g>
<!-- Node30 -->
<g id="node30" class="node">
<title>Node30</title>
<g id="a_node30"><a xlink:href="user__frontend_8h.html" target="_top" xlink:title=" ">
<polygon fill="white" stroke="black" points="413,-112.5 413,-131.5 568,-131.5 568,-112.5 413,-112.5"/>
<text text-anchor="middle" x="490.5" y="-119.5" font-family="Helvetica,sans-Serif" font-size="10.00">src/node/rpc/user_frontend.h</text>
</a>
</g>
</g>
<!-- Node28&#45;&gt;Node30 -->
<g id="edge44" class="edge">
<title>Node28&#45;&gt;Node30</title>
<path fill="none" stroke="midnightblue" d="M557.27,-354.14C543.6,-322.92 516.27,-257.18 501.5,-199 495.4,-174.96 492.36,-145.74 491.15,-131.55"/>
<polygon fill="midnightblue" stroke="midnightblue" points="554.24,-355.95 561.49,-363.68 560.64,-353.12 554.24,-355.95"/>
</g>
<!-- Node29&#45;&gt;Node13 -->
<g id="edge42" class="edge">
<title>Node29&#45;&gt;Node13</title>
<path fill="none" stroke="midnightblue" d="M592.58,-160.93C607.16,-146.83 626.77,-128.1 644.5,-112 658.64,-99.16 675.42,-84.79 686.01,-75.82"/>
<polygon fill="midnightblue" stroke="midnightblue" points="589.79,-158.77 585.05,-168.25 594.66,-163.79 589.79,-158.77"/>
</g>
<!-- Node30&#45;&gt;Node13 -->
<g id="edge45" class="edge">
<title>Node30&#45;&gt;Node13</title>
<path fill="none" stroke="midnightblue" d="M533.12,-109.83C572.01,-99.63 628.66,-84.78 664.01,-75.52"/>
<polygon fill="midnightblue" stroke="midnightblue" points="531.93,-106.52 523.14,-112.44 533.7,-113.29 531.93,-106.52"/>
</g>
<!-- Node31&#45;&gt;Node11 -->
<g id="edge47" class="edge">
<title>Node31&#45;&gt;Node11</title>
<path fill="none" stroke="midnightblue" d="M835.81,-615.9C855.54,-604.4 883.19,-588.27 899.91,-578.51"/>
<polygon fill="midnightblue" stroke="midnightblue" points="833.99,-612.91 827.11,-620.98 837.52,-618.96 833.99,-612.91"/>
</g>
<!-- Node31&#45;&gt;Node22 -->
<g id="edge48" class="edge">
<title>Node31&#45;&gt;Node22</title>
<path fill="none" stroke="midnightblue" d="M814.27,-610.6C816.34,-586.81 819.5,-544.67 819.5,-508.5 819.5,-508.5 819.5,-508.5 819.5,-439.5 819.5,-402.31 814.21,-386.17 838.5,-358 866.9,-325.06 905.05,-357.97 929.5,-322 944.1,-300.52 916.77,-279.04 893.19,-265.54"/>
<polygon fill="midnightblue" stroke="midnightblue" points="810.77,-610.43 813.36,-620.7 817.74,-611.06 810.77,-610.43"/>
</g>
<!-- Node32 -->
<g id="node32" class="node">
<title>Node32</title>
<g id="a_node32"><a xlink:href="forwarder_8h.html" target="_top" xlink:title=" ">
<polygon fill="white" stroke="black" points="497.5,-431 497.5,-450 631.5,-450 631.5,-431 497.5,-431"/>
<text text-anchor="middle" x="564.5" y="-438" font-family="Helvetica,sans-Serif" font-size="10.00">src/node/rpc/forwarder.h</text>
</a>
</g>
</g>
<!-- Node31&#45;&gt;Node32 -->
<g id="edge49" class="edge">
<title>Node31&#45;&gt;Node32</title>
<path fill="none" stroke="midnightblue" d="M787.62,-616.13C753.74,-597.39 691.88,-561.3 644.5,-523 615.2,-499.32 585.33,-465.9 571.87,-450.24"/>
<polygon fill="midnightblue" stroke="midnightblue" points="785.95,-619.2 796.4,-620.94 789.31,-613.06 785.95,-619.2"/>
</g>
<!-- Node32&#45;&gt;Node13 -->
<g id="edge50" class="edge">
<title>Node32&#45;&gt;Node13</title>
<path fill="none" stroke="midnightblue" d="M593.37,-426.19C608.89,-417.63 627.14,-405.1 638.5,-389 658.64,-360.46 658.5,-347.93 658.5,-313 658.5,-313 658.5,-313 658.5,-182.5 658.5,-140.7 681.23,-94.47 691.53,-75.66"/>
<polygon fill="midnightblue" stroke="midnightblue" points="591.39,-423.27 584.13,-431 594.62,-429.48 591.39,-423.27"/>
</g>
<!-- Node32&#45;&gt;Node28 -->
<g id="edge51" class="edge">
<title>Node32&#45;&gt;Node28</title>
<path fill="none" stroke="midnightblue" d="M564.79,-420.54C564.98,-408.17 565.22,-392.62 565.37,-383.13"/>
<polygon fill="midnightblue" stroke="midnightblue" points="561.29,-420.68 564.63,-430.73 568.29,-420.79 561.29,-420.68"/>
</g>
<!-- Node33&#45;&gt;Node4 -->
<g id="edge53" class="edge">
<title>Node33&#45;&gt;Node4</title>
<path fill="none" stroke="midnightblue" d="M585.03,-678.85C559.2,-669.18 523.03,-655.65 495.97,-645.52"/>
<polygon fill="midnightblue" stroke="midnightblue" points="584.13,-682.25 594.72,-682.48 586.58,-675.69 584.13,-682.25"/>
</g>
<!-- Node33&#45;&gt;Node31 -->
<g id="edge55" class="edge">
<title>Node33&#45;&gt;Node31</title>
<path fill="none" stroke="midnightblue" d="M655.1,-679.53C692.99,-667.96 750.61,-650.38 784.61,-640.01"/>
<polygon fill="midnightblue" stroke="midnightblue" points="653.98,-676.21 645.44,-682.48 656.02,-682.9 653.98,-676.21"/>
</g>
<!-- Node34 -->
<g id="node34" class="node">
<title>Node34</title>
<g id="a_node34"><a xlink:href="sig__auth_8cpp.html" target="_top" xlink:title=" ">
<polygon fill="white" stroke="black" points="527,-615.5 527,-645.5 682,-645.5 682,-615.5 527,-615.5"/>
<text text-anchor="start" x="535" y="-633.5" font-family="Helvetica,sans-Serif" font-size="10.00">src/endpoints/authentication</text>
<text text-anchor="middle" x="604.5" y="-622.5" font-family="Helvetica,sans-Serif" font-size="10.00">/sig_auth.cpp</text>
</a>
</g>
</g>
<!-- Node33&#45;&gt;Node34 -->
<g id="edge54" class="edge">
<title>Node33&#45;&gt;Node34</title>
<path fill="none" stroke="midnightblue" d="M613.46,-672.53C611.56,-663.81 609.33,-653.59 607.56,-645.52"/>
<polygon fill="midnightblue" stroke="midnightblue" points="610.08,-673.45 615.64,-682.48 616.92,-671.96 610.08,-673.45"/>
</g>
<!-- Node35&#45;&gt;Node15 -->
<g id="edge57" class="edge">
<title>Node35&#45;&gt;Node15</title>
<path fill="none" stroke="midnightblue" d="M1125.91,-557.47C1160.13,-550.34 1202.75,-539.23 1238.5,-523 1282.51,-503.03 1327.8,-466.85 1347.42,-450.25"/>
<polygon fill="midnightblue" stroke="midnightblue" points="1125.14,-554.05 1116.03,-559.46 1126.52,-560.91 1125.14,-554.05"/>
</g>
<!-- Node36&#45;&gt;Node3 -->
<g id="edge59" class="edge">
<title>Node36&#45;&gt;Node3</title>
<path fill="none" stroke="midnightblue" d="M823.57,-788.9C808.16,-779 788.05,-766.07 774.96,-757.65"/>
<polygon fill="midnightblue" stroke="midnightblue" points="821.7,-791.86 832,-794.32 825.48,-785.97 821.7,-791.86"/>
</g>
<!-- Node37&#45;&gt;Node12 -->
<g id="edge61" class="edge">
<title>Node37&#45;&gt;Node12</title>
<path fill="none" stroke="midnightblue" d="M1112.07,-786.84C1129.85,-766.62 1156.5,-730.12 1156.5,-693 1156.5,-693 1156.5,-693 1156.5,-629.5 1156.5,-587.28 1156.5,-536.76 1156.5,-517.01"/>
<polygon fill="midnightblue" stroke="midnightblue" points="1109.26,-784.72 1105.1,-794.47 1114.43,-789.45 1109.26,-784.72"/>
</g>
</g>
</svg>
