<?xml version="1.0" encoding="UTF-8" standalone="no"?>
<!DOCTYPE svg PUBLIC "-//W3C//DTD SVG 1.1//EN"
 "http://www.w3.org/Graphics/SVG/1.1/DTD/svg11.dtd">
<!-- Generated by graphviz version 2.43.0 (0)
 -->
<!-- Title: src/enclave/tls_endpoint.h Pages: 1 -->
<!--zoomable 878 -->
<svg id="main" version="1.1" xmlns="http://www.w3.org/2000/svg" xmlns:xlink="http://www.w3.org/1999/xlink" xml:space="preserve" onload="init(evt)">
<style type="text/css"><![CDATA[
.edge:hover path { stroke: red; }
.edge:hover polygon { stroke: red; fill: red; }
]]></style>
<script type="text/javascript"><![CDATA[
var edges = document.getElementsByTagName('g');
if (edges && edges.length) {
  for (var i=0;i<edges.length;i++) {
    if (edges[i].id.substr(0,4)=='edge') {
      edges[i].setAttribute('class','edge');
    }
  }
}
]]></script>
        <defs>
                <circle id="rim" cx="0" cy="0" r="7"/>
                <circle id="rim2" cx="0" cy="0" r="3.5"/>
                <g id="zoomPlus">
                        <use xlink:href="#rim" fill="#404040">
                                <set attributeName="fill" to="#808080" begin="zoomplus.mouseover" end="zoomplus.mouseout"/>
                        </use>
                        <path d="M-4,0h8M0,-4v8" fill="none" stroke="white" stroke-width="1.5" pointer-events="none"/>
                </g>
                <g id="zoomMin">
                        <use xlink:href="#rim" fill="#404040">
                                <set attributeName="fill" to="#808080" begin="zoomminus.mouseover" end="zoomminus.mouseout"/>
                        </use>
                        <path d="M-4,0h8" fill="none" stroke="white" stroke-width="1.5" pointer-events="none"/>
                </g>
                <g id="dirArrow">
                        <path fill="none" stroke="white" stroke-width="1.5" d="M0,-3.0v7 M-2.5,-0.5L0,-3.0L2.5,-0.5"/>
                </g>
               <g id="resetDef">
                       <use xlink:href="#rim2" fill="#404040">
                               <set attributeName="fill" to="#808080" begin="reset.mouseover" end="reset.mouseout"/>
                       </use>
               </g>
        </defs>

<script type="text/javascript">
var viewWidth = 1408;
var viewHeight = 878;
var sectionId = 'dynsection-1';
</script>
<script xlink:href="svgpan.js"/>
<svg id="graph" class="graph">
<g id="viewport">
<title>src/enclave/tls_endpoint.h</title>
<polygon fill="white" stroke="transparent" points="-4,4 -4,-874 1404,-874 1404,4 -4,4"/>
<!-- Node1 -->
<g id="node1" class="node">
<title>Node1</title>
<g id="a_node1"><a xlink:title=" ">
<polygon fill="#bfbfbf" stroke="black" points="561.5,-850.5 561.5,-869.5 705.5,-869.5 705.5,-850.5 561.5,-850.5"/>
<text text-anchor="middle" x="633.5" y="-857.5" font-family="Helvetica,sans-Serif" font-size="10.00">src/enclave/tls_endpoint.h</text>
</a>
</g>
</g>
<!-- Node2 -->
<g id="node2" class="node">
<title>Node2</title>
<g id="a_node2"><a xlink:href="http__parser_8h.html" target="_top" xlink:title=" ">
<polygon fill="white" stroke="black" points="573.5,-738.5 573.5,-757.5 693.5,-757.5 693.5,-738.5 573.5,-738.5"/>
<text text-anchor="middle" x="633.5" y="-745.5" font-family="Helvetica,sans-Serif" font-size="10.00">src/http/http_parser.h</text>
</a>
</g>
</g>
<!-- Node1&#45;&gt;Node2 -->
<g id="edge1" class="edge">
<title>Node1&#45;&gt;Node2</title>
<path fill="none" stroke="midnightblue" d="M622.08,-841.44C617.52,-833.42 612.81,-823.58 610.5,-814 605.51,-793.28 618.58,-769.95 627.01,-757.66"/>
<polygon fill="midnightblue" stroke="midnightblue" points="619.21,-843.46 627.4,-850.19 625.19,-839.83 619.21,-843.46"/>
</g>
<!-- Node35 -->
<g id="node35" class="node">
<title>Node35</title>
<g id="a_node35"><a xlink:href="http__proc_8h.html" target="_top" xlink:title=" ">
<polygon fill="white" stroke="black" points="620,-794.5 620,-813.5 731,-813.5 731,-794.5 620,-794.5"/>
<text text-anchor="middle" x="675.5" y="-801.5" font-family="Helvetica,sans-Serif" font-size="10.00">src/http/http_proc.h</text>
</a>
</g>
</g>
<!-- Node1&#45;&gt;Node35 -->
<g id="edge57" class="edge">
<title>Node1&#45;&gt;Node35</title>
<path fill="none" stroke="midnightblue" d="M646.61,-842.14C653.93,-832.74 662.74,-821.4 668.69,-813.75"/>
<polygon fill="midnightblue" stroke="midnightblue" points="643.81,-840.04 640.44,-850.08 649.34,-844.34 643.81,-840.04"/>
</g>
<!-- Node3 -->
<g id="node3" class="node">
<title>Node3</title>
<g id="a_node3"><a xlink:href="rpc__tls__client_8h.html" target="_top" xlink:title=" ">
<polygon fill="white" stroke="black" points="280,-615.5 280,-645.5 381,-645.5 381,-615.5 280,-615.5"/>
<text text-anchor="start" x="288" y="-633.5" font-family="Helvetica,sans-Serif" font-size="10.00">src/clients/rpc_tls</text>
<text text-anchor="middle" x="330.5" y="-622.5" font-family="Helvetica,sans-Serif" font-size="10.00">_client.h</text>
</a>
</g>
</g>
<!-- Node2&#45;&gt;Node3 -->
<g id="edge2" class="edge">
<title>Node2&#45;&gt;Node3</title>
<path fill="none" stroke="midnightblue" d="M563.14,-744.03C515.21,-739.52 451.61,-728.52 401.5,-702 375.55,-688.27 352.92,-661.94 340.54,-645.64"/>
<polygon fill="midnightblue" stroke="midnightblue" points="562.86,-747.52 573.12,-744.9 563.46,-740.54 562.86,-747.52"/>
</g>
<!-- Node8 -->
<g id="node8" class="node">
<title>Node8</title>
<g id="a_node8"><a xlink:href="acme__challenge__server_8h.html" target="_top" xlink:title=" ">
<polygon fill="white" stroke="black" points="299,-492.5 299,-522.5 436,-522.5 436,-492.5 299,-492.5"/>
<text text-anchor="start" x="307" y="-510.5" font-family="Helvetica,sans-Serif" font-size="10.00">src/host/acme_challenge</text>
<text text-anchor="middle" x="367.5" y="-499.5" font-family="Helvetica,sans-Serif" font-size="10.00">_server.h</text>
</a>
</g>
</g>
<!-- Node2&#45;&gt;Node8 -->
<g id="edge8" class="edge">
<title>Node2&#45;&gt;Node8</title>
<path fill="none" stroke="midnightblue" d="M606.84,-733.72C591.48,-725.51 572.16,-714.23 556.5,-702 481.55,-643.47 406.92,-556.46 378.99,-522.65"/>
<polygon fill="midnightblue" stroke="midnightblue" points="605.35,-736.89 615.83,-738.41 608.59,-730.68 605.35,-736.89"/>
</g>
<!-- Node10 -->
<g id="node10" class="node">
<title>Node10</title>
<g id="a_node10"><a xlink:href="http__endpoint_8h.html" target="_top" xlink:title=" ">
<polygon fill="white" stroke="black" points="461,-559.5 461,-578.5 594,-578.5 594,-559.5 461,-559.5"/>
<text text-anchor="middle" x="527.5" y="-566.5" font-family="Helvetica,sans-Serif" font-size="10.00">src/http/http_endpoint.h</text>
</a>
</g>
</g>
<!-- Node2&#45;&gt;Node10 -->
<g id="edge10" class="edge">
<title>Node2&#45;&gt;Node10</title>
<path fill="none" stroke="midnightblue" d="M608.94,-732.97C596.78,-725.08 582.58,-714.35 572.5,-702 540.95,-663.37 531.04,-601.44 528.37,-578.72"/>
<polygon fill="midnightblue" stroke="midnightblue" points="607.4,-736.13 617.74,-738.42 611.09,-730.18 607.4,-736.13"/>
</g>
<!-- Node25 -->
<g id="node25" class="node">
<title>Node25</title>
<g id="a_node25"><a xlink:href="http__jwt_8h.html" target="_top" xlink:title=" ">
<polygon fill="white" stroke="black" points="1164,-682.5 1164,-701.5 1269,-701.5 1269,-682.5 1164,-682.5"/>
<text text-anchor="middle" x="1216.5" y="-689.5" font-family="Helvetica,sans-Serif" font-size="10.00">src/http/http_jwt.h</text>
</a>
</g>
</g>
<!-- Node2&#45;&gt;Node25 -->
<g id="edge36" class="edge">
<title>Node2&#45;&gt;Node25</title>
<path fill="none" stroke="midnightblue" d="M703.74,-740.49C822.07,-729.53 1058.56,-707.63 1163.85,-697.88"/>
<polygon fill="midnightblue" stroke="midnightblue" points="703.33,-737.02 693.7,-741.42 703.98,-743.99 703.33,-737.02"/>
</g>
<!-- Node30 -->
<g id="node30" class="node">
<title>Node30</title>
<g id="a_node30"><a xlink:href="http__rpc__context_8h.html" target="_top" xlink:title=" ">
<polygon fill="white" stroke="black" points="768,-621 768,-640 915,-640 915,-621 768,-621"/>
<text text-anchor="middle" x="841.5" y="-628" font-family="Helvetica,sans-Serif" font-size="10.00">src/http/http_rpc_context.h</text>
</a>
</g>
</g>
<!-- Node2&#45;&gt;Node30 -->
<g id="edge45" class="edge">
<title>Node2&#45;&gt;Node30</title>
<path fill="none" stroke="midnightblue" d="M673.86,-735.41C697.83,-727.67 728.37,-716.29 753.5,-702 785.15,-684 817.26,-654.94 832.46,-640.39"/>
<polygon fill="midnightblue" stroke="midnightblue" points="672.51,-732.16 664.02,-738.5 674.6,-738.84 672.51,-732.16"/>
</g>
<!-- Node32 -->
<g id="node32" class="node">
<title>Node32</title>
<g id="a_node32"><a xlink:href="http__sig_8h.html" target="_top" xlink:title=" ">
<polygon fill="white" stroke="black" points="581.5,-682.5 581.5,-701.5 685.5,-701.5 685.5,-682.5 581.5,-682.5"/>
<text text-anchor="middle" x="633.5" y="-689.5" font-family="Helvetica,sans-Serif" font-size="10.00">src/http/http_sig.h</text>
</a>
</g>
</g>
<!-- Node2&#45;&gt;Node32 -->
<g id="edge51" class="edge">
<title>Node2&#45;&gt;Node32</title>
<path fill="none" stroke="midnightblue" d="M633.5,-727.8C633.5,-718.91 633.5,-708.78 633.5,-701.75"/>
<polygon fill="midnightblue" stroke="midnightblue" points="630,-728.08 633.5,-738.08 637,-728.08 630,-728.08"/>
</g>
<!-- Node34 -->
<g id="node34" class="node">
<title>Node34</title>
<g id="a_node34"><a xlink:href="acme__client_8h.html" target="_top" xlink:title=" ">
<polygon fill="white" stroke="black" points="678,-559.5 678,-578.5 807,-578.5 807,-559.5 678,-559.5"/>
<text text-anchor="middle" x="742.5" y="-566.5" font-family="Helvetica,sans-Serif" font-size="10.00">src/node/acme_client.h</text>
</a>
</g>
</g>
<!-- Node2&#45;&gt;Node34 -->
<g id="edge55" class="edge">
<title>Node2&#45;&gt;Node34</title>
<path fill="none" stroke="midnightblue" d="M658.13,-733.03C670.31,-725.16 684.51,-714.42 694.5,-702 725.99,-662.86 737.88,-601.24 741.33,-578.66"/>
<polygon fill="midnightblue" stroke="midnightblue" points="655.99,-730.24 649.31,-738.47 659.66,-736.2 655.99,-730.24"/>
</g>
<!-- Node4 -->
<g id="node4" class="node">
<title>Node4</title>
<g id="a_node4"><a xlink:href="perf__client_8h.html" target="_top" xlink:title=" ">
<polygon fill="white" stroke="black" points="156,-492.5 156,-522.5 267,-522.5 267,-492.5 156,-492.5"/>
<text text-anchor="start" x="164" y="-510.5" font-family="Helvetica,sans-Serif" font-size="10.00">src/clients/perf/perf</text>
<text text-anchor="middle" x="211.5" y="-499.5" font-family="Helvetica,sans-Serif" font-size="10.00">_client.h</text>
</a>
</g>
</g>
<!-- Node3&#45;&gt;Node4 -->
<g id="edge3" class="edge">
<title>Node3&#45;&gt;Node4</title>
<path fill="none" stroke="midnightblue" d="M322.31,-605.94C316.31,-591.2 307.03,-572.5 294.5,-559 280.27,-543.67 260.35,-531.34 243.6,-522.71"/>
<polygon fill="midnightblue" stroke="midnightblue" points="319.09,-607.32 325.94,-615.41 325.63,-604.82 319.09,-607.32"/>
</g>
<!-- Node7 -->
<g id="node7" class="node">
<title>Node7</title>
<g id="a_node7"><a xlink:href="timing_8h.html" target="_top" xlink:title=" ">
<polygon fill="white" stroke="black" points="153.5,-559.5 153.5,-578.5 285.5,-578.5 285.5,-559.5 153.5,-559.5"/>
<text text-anchor="middle" x="219.5" y="-566.5" font-family="Helvetica,sans-Serif" font-size="10.00">src/clients/perf/timing.h</text>
</a>
</g>
</g>
<!-- Node3&#45;&gt;Node7 -->
<g id="edge6" class="edge">
<title>Node3&#45;&gt;Node7</title>
<path fill="none" stroke="midnightblue" d="M295.34,-610.65C275.33,-599.93 251.23,-587.01 235.65,-578.66"/>
<polygon fill="midnightblue" stroke="midnightblue" points="293.73,-613.76 304.19,-615.4 297.03,-607.59 293.73,-613.76"/>
</g>
<!-- Node5 -->
<g id="node5" class="node">
<title>Node5</title>
<g id="a_node5"><a xlink:href="tpcc__client_8cpp.html" target="_top" xlink:title=" ">
<polygon fill="white" stroke="black" points="151.5,-425.5 151.5,-455.5 267.5,-455.5 267.5,-425.5 151.5,-425.5"/>
<text text-anchor="start" x="159.5" y="-443.5" font-family="Helvetica,sans-Serif" font-size="10.00">src/apps/tpcc/clients</text>
<text text-anchor="middle" x="209.5" y="-432.5" font-family="Helvetica,sans-Serif" font-size="10.00">/tpcc_client.cpp</text>
</a>
</g>
</g>
<!-- Node4&#45;&gt;Node5 -->
<g id="edge4" class="edge">
<title>Node4&#45;&gt;Node5</title>
<path fill="none" stroke="midnightblue" d="M210.75,-482.11C210.47,-473.15 210.17,-463.32 209.93,-455.58"/>
<polygon fill="midnightblue" stroke="midnightblue" points="207.26,-482.51 211.07,-492.4 214.26,-482.29 207.26,-482.51"/>
</g>
<!-- Node6 -->
<g id="node6" class="node">
<title>Node6</title>
<g id="a_node6"><a xlink:href="scenario__perf__client_8cpp.html" target="_top" xlink:title=" ">
<polygon fill="white" stroke="black" points="0,-425.5 0,-455.5 133,-455.5 133,-425.5 0,-425.5"/>
<text text-anchor="start" x="8" y="-443.5" font-family="Helvetica,sans-Serif" font-size="10.00">src/clients/perf/scenario</text>
<text text-anchor="middle" x="66.5" y="-432.5" font-family="Helvetica,sans-Serif" font-size="10.00">_perf_client.cpp</text>
</a>
</g>
</g>
<!-- Node4&#45;&gt;Node6 -->
<g id="edge5" class="edge">
<title>Node4&#45;&gt;Node6</title>
<path fill="none" stroke="midnightblue" d="M170.83,-488.27C147.74,-477.92 119.26,-465.15 97.9,-455.58"/>
<polygon fill="midnightblue" stroke="midnightblue" points="169.48,-491.5 180.04,-492.4 172.34,-485.11 169.48,-491.5"/>
</g>
<!-- Node7&#45;&gt;Node4 -->
<g id="edge7" class="edge">
<title>Node7&#45;&gt;Node4</title>
<path fill="none" stroke="midnightblue" d="M217.02,-549.53C215.84,-540.81 214.47,-530.59 213.39,-522.52"/>
<polygon fill="midnightblue" stroke="midnightblue" points="213.55,-550.03 218.35,-559.48 220.49,-549.1 213.55,-550.03"/>
</g>
<!-- Node9 -->
<g id="node9" class="node">
<title>Node9</title>
<g id="a_node9"><a xlink:href="host_2main_8cpp.html" target="_top" xlink:title=" ">
<polygon fill="white" stroke="black" points="286,-431 286,-450 389,-450 389,-431 286,-431"/>
<text text-anchor="middle" x="337.5" y="-438" font-family="Helvetica,sans-Serif" font-size="10.00">src/host/main.cpp</text>
</a>
</g>
</g>
<!-- Node8&#45;&gt;Node9 -->
<g id="edge9" class="edge">
<title>Node8&#45;&gt;Node9</title>
<path fill="none" stroke="midnightblue" d="M356.79,-483.29C351.49,-471.8 345.41,-458.63 341.51,-450.19"/>
<polygon fill="midnightblue" stroke="midnightblue" points="353.62,-484.78 360.99,-492.4 359.98,-481.85 353.62,-484.78"/>
</g>
<!-- Node10&#45;&gt;Node8 -->
<g id="edge35" class="edge">
<title>Node10&#45;&gt;Node8</title>
<path fill="none" stroke="midnightblue" d="M495.17,-555.98C469.15,-546.3 432.55,-532.69 405.21,-522.52"/>
<polygon fill="midnightblue" stroke="midnightblue" points="493.98,-559.27 504.58,-559.48 496.42,-552.71 493.98,-559.27"/>
</g>
<!-- Node11 -->
<g id="node11" class="node">
<title>Node11</title>
<g id="a_node11"><a xlink:href="rpc__sessions_8h.html" target="_top" xlink:title=" ">
<polygon fill="white" stroke="black" points="454.5,-498 454.5,-517 600.5,-517 600.5,-498 454.5,-498"/>
<text text-anchor="middle" x="527.5" y="-505" font-family="Helvetica,sans-Serif" font-size="10.00">src/enclave/rpc_sessions.h</text>
</a>
</g>
</g>
<!-- Node10&#45;&gt;Node11 -->
<g id="edge11" class="edge">
<title>Node10&#45;&gt;Node11</title>
<path fill="none" stroke="midnightblue" d="M527.5,-549.32C527.5,-538.5 527.5,-525.4 527.5,-517.01"/>
<polygon fill="midnightblue" stroke="midnightblue" points="524,-549.48 527.5,-559.48 531,-549.48 524,-549.48"/>
</g>
<!-- Node12 -->
<g id="node12" class="node">
<title>Node12</title>
<g id="a_node12"><a xlink:href="enclave_2enclave_8h.html" target="_top" xlink:title=" ">
<polygon fill="white" stroke="black" points="986.5,-56.5 986.5,-75.5 1108.5,-75.5 1108.5,-56.5 986.5,-56.5"/>
<text text-anchor="middle" x="1047.5" y="-63.5" font-family="Helvetica,sans-Serif" font-size="10.00">src/enclave/enclave.h</text>
</a>
</g>
</g>
<!-- Node11&#45;&gt;Node12 -->
<g id="edge12" class="edge">
<title>Node11&#45;&gt;Node12</title>
<path fill="none" stroke="midnightblue" d="M503.72,-492.41C471.37,-471.23 417.5,-427.94 417.5,-374.5 417.5,-374.5 417.5,-374.5 417.5,-182.5 417.5,-125.06 827.92,-85.1 986.23,-71.82"/>
<polygon fill="midnightblue" stroke="midnightblue" points="501.88,-495.39 512.2,-497.78 505.63,-489.47 501.88,-495.39"/>
</g>
<!-- Node14 -->
<g id="node14" class="node">
<title>Node14</title>
<g id="a_node14"><a xlink:href="ccf__acme__client_8h.html" target="_top" xlink:title=" ">
<polygon fill="white" stroke="black" points="703,-431 703,-450 852,-450 852,-431 703,-431"/>
<text text-anchor="middle" x="777.5" y="-438" font-family="Helvetica,sans-Serif" font-size="10.00">src/node/ccf_acme_client.h</text>
</a>
</g>
</g>
<!-- Node11&#45;&gt;Node14 -->
<g id="edge14" class="edge">
<title>Node11&#45;&gt;Node14</title>
<path fill="none" stroke="midnightblue" d="M570.18,-495.4C619.52,-482.58 699.67,-461.74 744.49,-450.08"/>
<polygon fill="midnightblue" stroke="midnightblue" points="569.24,-492.03 560.44,-497.94 571,-498.81 569.24,-492.03"/>
</g>
<!-- Node15 -->
<g id="node15" class="node">
<title>Node15</title>
<g id="a_node15"><a xlink:href="node__state_8h.html" target="_top" xlink:title=" ">
<polygon fill="white" stroke="black" points="803.5,-174 803.5,-193 927.5,-193 927.5,-174 803.5,-174"/>
<text text-anchor="middle" x="865.5" y="-181" font-family="Helvetica,sans-Serif" font-size="10.00">src/node/node_state.h</text>
</a>
</g>
</g>
<!-- Node11&#45;&gt;Node15 -->
<g id="edge32" class="edge">
<title>Node11&#45;&gt;Node15</title>
<path fill="none" stroke="midnightblue" d="M526.85,-487.65C526.43,-458.93 527.82,-402.8 542.5,-358 564.35,-291.31 580.16,-269.09 641.5,-235 691.68,-207.11 756.28,-194.62 803.2,-189.03"/>
<polygon fill="midnightblue" stroke="midnightblue" points="523.36,-487.95 527.1,-497.86 530.36,-487.78 523.36,-487.95"/>
</g>
<!-- Node17 -->
<g id="node17" class="node">
<title>Node17</title>
<g id="a_node17"><a xlink:href="node__client_8h.html" target="_top" xlink:title=" ">
<polygon fill="white" stroke="black" points="558.5,-431 558.5,-450 684.5,-450 684.5,-431 558.5,-431"/>
<text text-anchor="middle" x="621.5" y="-438" font-family="Helvetica,sans-Serif" font-size="10.00">src/node/node_client.h</text>
</a>
</g>
</g>
<!-- Node11&#45;&gt;Node17 -->
<g id="edge19" class="edge">
<title>Node11&#45;&gt;Node17</title>
<path fill="none" stroke="midnightblue" d="M548.59,-491.92C567.17,-479.07 593.62,-460.78 609.02,-450.13"/>
<polygon fill="midnightblue" stroke="midnightblue" points="546.41,-489.17 540.18,-497.73 550.39,-494.93 546.41,-489.17"/>
</g>
<!-- Node24 -->
<g id="node24" class="node">
<title>Node24</title>
<g id="a_node24"><a xlink:href="resharing_8h.html" target="_top" xlink:title=" ">
<polygon fill="white" stroke="black" points="445.5,-241 445.5,-260 561.5,-260 561.5,-241 445.5,-241"/>
<text text-anchor="middle" x="503.5" y="-248" font-family="Helvetica,sans-Serif" font-size="10.00">src/node/resharing.h</text>
</a>
</g>
</g>
<!-- Node11&#45;&gt;Node24 -->
<g id="edge33" class="edge">
<title>Node11&#45;&gt;Node24</title>
<path fill="none" stroke="midnightblue" d="M506.98,-491.32C496.62,-482.35 485.09,-470 479.5,-456 454.11,-392.44 464.44,-368.77 479.5,-302 483.05,-286.28 492.08,-269.71 498,-260.01"/>
<polygon fill="midnightblue" stroke="midnightblue" points="504.93,-494.17 514.9,-497.77 509.35,-488.74 504.93,-494.17"/>
</g>
<!-- Node13 -->
<g id="node13" class="node">
<title>Node13</title>
<g id="a_node13"><a xlink:href="enclave_2main_8cpp.html" target="_top" xlink:title=" ">
<polygon fill="white" stroke="black" points="987.5,-0.5 987.5,-19.5 1107.5,-19.5 1107.5,-0.5 987.5,-0.5"/>
<text text-anchor="middle" x="1047.5" y="-7.5" font-family="Helvetica,sans-Serif" font-size="10.00">src/enclave/main.cpp</text>
</a>
</g>
</g>
<!-- Node12&#45;&gt;Node13 -->
<g id="edge13" class="edge">
<title>Node12&#45;&gt;Node13</title>
<path fill="none" stroke="midnightblue" d="M1047.5,-45.8C1047.5,-36.91 1047.5,-26.78 1047.5,-19.75"/>
<polygon fill="midnightblue" stroke="midnightblue" points="1044,-46.08 1047.5,-56.08 1051,-46.08 1044,-46.08"/>
</g>
<!-- Node14&#45;&gt;Node15 -->
<g id="edge15" class="edge">
<title>Node14&#45;&gt;Node15</title>
<path fill="none" stroke="midnightblue" d="M821.03,-427.33C840.02,-419.61 860.44,-407.5 871.5,-389 891.64,-355.31 872.54,-227.38 866.94,-193.03"/>
<polygon fill="midnightblue" stroke="midnightblue" points="819.71,-424.08 811.58,-430.87 822.17,-430.64 819.71,-424.08"/>
</g>
<!-- Node15&#45;&gt;Node12 -->
<g id="edge16" class="edge">
<title>Node15&#45;&gt;Node12</title>
<path fill="none" stroke="midnightblue" d="M891.57,-169.29C910.26,-159.56 935.86,-145.68 957.5,-132 986.99,-113.36 1019.77,-88.58 1036.44,-75.67"/>
<polygon fill="midnightblue" stroke="midnightblue" points="889.76,-166.29 882.48,-173.98 892.97,-172.51 889.76,-166.29"/>
</g>
<!-- Node16 -->
<g id="node16" class="node">
<title>Node16</title>
<g id="a_node16"><a xlink:href="gov__effects_8h.html" target="_top" xlink:title=" ">
<polygon fill="white" stroke="black" points="804.5,-112.5 804.5,-131.5 948.5,-131.5 948.5,-112.5 804.5,-112.5"/>
<text text-anchor="middle" x="876.5" y="-119.5" font-family="Helvetica,sans-Serif" font-size="10.00">src/node/rpc/gov_effects.h</text>
</a>
</g>
</g>
<!-- Node15&#45;&gt;Node16 -->
<g id="edge17" class="edge">
<title>Node15&#45;&gt;Node16</title>
<path fill="none" stroke="midnightblue" d="M868.95,-163.82C870.95,-153 873.38,-139.9 874.93,-131.51"/>
<polygon fill="midnightblue" stroke="midnightblue" points="865.45,-163.51 867.08,-173.98 872.34,-164.78 865.45,-163.51"/>
</g>
<!-- Node16&#45;&gt;Node12 -->
<g id="edge18" class="edge">
<title>Node16&#45;&gt;Node12</title>
<path fill="none" stroke="midnightblue" d="M913.54,-109.3C945.76,-99.13 991.69,-84.62 1020.53,-75.52"/>
<polygon fill="midnightblue" stroke="midnightblue" points="912.08,-106.09 903.6,-112.44 914.19,-112.77 912.08,-106.09"/>
</g>
<!-- Node18 -->
<g id="node18" class="node">
<title>Node18</title>
<g id="a_node18"><a xlink:href="orc__requests_8h.html" target="_top" xlink:title=" ">
<polygon fill="white" stroke="black" points="744,-358.5 744,-388.5 863,-388.5 863,-358.5 744,-358.5"/>
<text text-anchor="start" x="752" y="-376.5" font-family="Helvetica,sans-Serif" font-size="10.00">src/consensus/aft/orc</text>
<text text-anchor="middle" x="803.5" y="-365.5" font-family="Helvetica,sans-Serif" font-size="10.00">_requests.h</text>
</a>
</g>
</g>
<!-- Node17&#45;&gt;Node18 -->
<g id="edge20" class="edge">
<title>Node17&#45;&gt;Node18</title>
<path fill="none" stroke="midnightblue" d="M655.13,-427.49C685.98,-416.47 731.7,-400.14 764.22,-388.53"/>
<polygon fill="midnightblue" stroke="midnightblue" points="653.91,-424.21 645.67,-430.87 656.26,-430.8 653.91,-424.21"/>
</g>
<!-- Node19 -->
<g id="node19" class="node">
<title>Node19</title>
<g id="a_node19"><a xlink:href="raft_8h.html" target="_top" xlink:title=" ">
<polygon fill="white" stroke="black" points="670,-302.5 670,-321.5 799,-321.5 799,-302.5 670,-302.5"/>
<text text-anchor="middle" x="734.5" y="-309.5" font-family="Helvetica,sans-Serif" font-size="10.00">src/consensus/aft/raft.h</text>
</a>
</g>
</g>
<!-- Node17&#45;&gt;Node19 -->
<g id="edge27" class="edge">
<title>Node17&#45;&gt;Node19</title>
<path fill="none" stroke="midnightblue" d="M648.33,-425.99C663.9,-417.12 683.03,-404.33 696.5,-389 714.81,-368.17 726.72,-336.94 731.76,-321.83"/>
<polygon fill="midnightblue" stroke="midnightblue" points="646.27,-423.12 639.18,-430.99 649.63,-429.26 646.27,-423.12"/>
</g>
<!-- Node22 -->
<g id="node22" class="node">
<title>Node22</title>
<g id="a_node22"><a xlink:href="http__node__client_8h.html" target="_top" xlink:title=" ">
<polygon fill="white" stroke="black" points="650.5,-235.5 650.5,-265.5 760.5,-265.5 760.5,-235.5 650.5,-235.5"/>
<text text-anchor="start" x="658.5" y="-253.5" font-family="Helvetica,sans-Serif" font-size="10.00">src/node/http_node</text>
<text text-anchor="middle" x="705.5" y="-242.5" font-family="Helvetica,sans-Serif" font-size="10.00">_client.h</text>
</a>
</g>
</g>
<!-- Node17&#45;&gt;Node22 -->
<g id="edge28" class="edge">
<title>Node17&#45;&gt;Node22</title>
<path fill="none" stroke="midnightblue" d="M590.97,-426.24C575.86,-417.92 559.06,-405.59 550.5,-389 544.18,-376.76 544.08,-370.19 550.5,-358 574.9,-311.63 629.63,-281.54 667.07,-265.54"/>
<polygon fill="midnightblue" stroke="midnightblue" points="589.58,-429.46 600.07,-430.91 592.77,-423.23 589.58,-429.46"/>
</g>
<!-- Node23 -->
<g id="node23" class="node">
<title>Node23</title>
<g id="a_node23"><a xlink:href="retired__nodes__cleanup_8h.html" target="_top" xlink:title=" ">
<polygon fill="white" stroke="black" points="559.5,-358.5 559.5,-388.5 687.5,-388.5 687.5,-358.5 559.5,-358.5"/>
<text text-anchor="start" x="567.5" y="-376.5" font-family="Helvetica,sans-Serif" font-size="10.00">src/node/retired_nodes</text>
<text text-anchor="middle" x="623.5" y="-365.5" font-family="Helvetica,sans-Serif" font-size="10.00">_cleanup.h</text>
</a>
</g>
</g>
<!-- Node17&#45;&gt;Node23 -->
<g id="edge30" class="edge">
<title>Node17&#45;&gt;Node23</title>
<path fill="none" stroke="midnightblue" d="M622.09,-420.41C622.4,-410.22 622.78,-397.9 623.07,-388.59"/>
<polygon fill="midnightblue" stroke="midnightblue" points="618.58,-420.63 621.77,-430.73 625.58,-420.85 618.58,-420.63"/>
</g>
<!-- Node18&#45;&gt;Node19 -->
<g id="edge21" class="edge">
<title>Node18&#45;&gt;Node19</title>
<path fill="none" stroke="midnightblue" d="M779.26,-351.6C767.34,-341.32 753.61,-329.48 744.54,-321.66"/>
<polygon fill="midnightblue" stroke="midnightblue" points="777.29,-354.52 787.15,-358.4 781.86,-349.22 777.29,-354.52"/>
</g>
<!-- Node20 -->
<g id="node20" class="node">
<title>Node20</title>
<g id="a_node20"><a xlink:href="node__frontend_8h.html" target="_top" xlink:title=" ">
<polygon fill="white" stroke="black" points="937.5,-302.5 937.5,-321.5 1095.5,-321.5 1095.5,-302.5 937.5,-302.5"/>
<text text-anchor="middle" x="1016.5" y="-309.5" font-family="Helvetica,sans-Serif" font-size="10.00">src/node/rpc/node_frontend.h</text>
</a>
</g>
</g>
<!-- Node18&#45;&gt;Node20 -->
<g id="edge23" class="edge">
<title>Node18&#45;&gt;Node20</title>
<path fill="none" stroke="midnightblue" d="M863.35,-355.78C903.31,-344.62 954.18,-330.41 986.05,-321.51"/>
<polygon fill="midnightblue" stroke="midnightblue" points="862.4,-352.41 853.71,-358.47 864.28,-359.16 862.4,-352.41"/>
</g>
<!-- Node19&#45;&gt;Node15 -->
<g id="edge22" class="edge">
<title>Node19&#45;&gt;Node15</title>
<path fill="none" stroke="midnightblue" d="M750.89,-295.17C778.78,-268.24 834.59,-214.35 856.43,-193.26"/>
<polygon fill="midnightblue" stroke="midnightblue" points="748.27,-292.84 743.5,-302.31 753.13,-297.88 748.27,-292.84"/>
</g>
<!-- Node20&#45;&gt;Node12 -->
<g id="edge24" class="edge">
<title>Node20&#45;&gt;Node12</title>
<path fill="none" stroke="midnightblue" d="M1022.14,-292.63C1024.43,-284.53 1026.91,-274.86 1028.5,-266 1041.58,-193.24 1046.05,-103.8 1047.18,-75.8"/>
<polygon fill="midnightblue" stroke="midnightblue" points="1018.71,-291.89 1019.23,-302.47 1025.42,-293.87 1018.71,-291.89"/>
</g>
<!-- Node21 -->
<g id="node21" class="node">
<title>Node21</title>
<g id="a_node21"><a xlink:href="jwt__key__auto__refresh_8h.html" target="_top" xlink:title=" ">
<polygon fill="white" stroke="black" points="894,-235.5 894,-265.5 1019,-265.5 1019,-235.5 894,-235.5"/>
<text text-anchor="start" x="902" y="-253.5" font-family="Helvetica,sans-Serif" font-size="10.00">src/node/jwt_key_auto</text>
<text text-anchor="middle" x="956.5" y="-242.5" font-family="Helvetica,sans-Serif" font-size="10.00">_refresh.h</text>
</a>
</g>
</g>
<!-- Node20&#45;&gt;Node21 -->
<g id="edge25" class="edge">
<title>Node20&#45;&gt;Node21</title>
<path fill="none" stroke="midnightblue" d="M1000.74,-295.37C991.4,-286.11 979.68,-274.48 970.64,-265.52"/>
<polygon fill="midnightblue" stroke="midnightblue" points="998.34,-297.92 1007.9,-302.48 1003.27,-292.95 998.34,-297.92"/>
</g>
<!-- Node21&#45;&gt;Node15 -->
<g id="edge26" class="edge">
<title>Node21&#45;&gt;Node15</title>
<path fill="none" stroke="midnightblue" d="M928.23,-229.31C911.14,-217.1 890.25,-202.18 877.41,-193.01"/>
<polygon fill="midnightblue" stroke="midnightblue" points="926.58,-232.43 936.75,-235.4 930.65,-226.74 926.58,-232.43"/>
</g>
<!-- Node22&#45;&gt;Node15 -->
<g id="edge29" class="edge">
<title>Node22&#45;&gt;Node15</title>
<path fill="none" stroke="midnightblue" d="M749.51,-231.62C780.48,-219.04 820.54,-202.77 844.56,-193.01"/>
<polygon fill="midnightblue" stroke="midnightblue" points="748.16,-228.39 740.22,-235.4 750.8,-234.87 748.16,-228.39"/>
</g>
<!-- Node23&#45;&gt;Node19 -->
<g id="edge31" class="edge">
<title>Node23&#45;&gt;Node19</title>
<path fill="none" stroke="midnightblue" d="M658.66,-353.65C678.67,-342.93 702.77,-330.01 718.35,-321.66"/>
<polygon fill="midnightblue" stroke="midnightblue" points="656.97,-350.59 649.81,-358.4 660.27,-356.76 656.97,-350.59"/>
</g>
<!-- Node24&#45;&gt;Node15 -->
<g id="edge34" class="edge">
<title>Node24&#45;&gt;Node15</title>
<path fill="none" stroke="midnightblue" d="M554.96,-238.97C561.86,-237.6 568.85,-236.25 575.5,-235 658.88,-219.35 756.06,-202.76 814.09,-193.03"/>
<polygon fill="midnightblue" stroke="midnightblue" points="554.09,-235.57 544.96,-240.96 555.45,-242.44 554.09,-235.57"/>
</g>
<!-- Node26 -->
<g id="node26" class="node">
<title>Node26</title>
<g id="a_node26"><a xlink:href="jwt__auth_8cpp.html" target="_top" xlink:title=" ">
<polygon fill="white" stroke="black" points="1245,-615.5 1245,-645.5 1400,-645.5 1400,-615.5 1245,-615.5"/>
<text text-anchor="start" x="1253" y="-633.5" font-family="Helvetica,sans-Serif" font-size="10.00">src/endpoints/authentication</text>
<text text-anchor="middle" x="1322.5" y="-622.5" font-family="Helvetica,sans-Serif" font-size="10.00">/jwt_auth.cpp</text>
</a>
</g>
</g>
<!-- Node25&#45;&gt;Node26 -->
<g id="edge37" class="edge">
<title>Node25&#45;&gt;Node26</title>
<path fill="none" stroke="midnightblue" d="M1240.48,-677.54C1257.49,-667.99 1280.28,-655.2 1297.52,-645.52"/>
<polygon fill="midnightblue" stroke="midnightblue" points="1238.69,-674.53 1231.69,-682.48 1242.12,-680.63 1238.69,-674.53"/>
</g>
<!-- Node27 -->
<g id="node27" class="node">
<title>Node27</title>
<g id="a_node27"><a xlink:href="frontend_8h.html" target="_top" xlink:title=" ">
<polygon fill="white" stroke="black" points="1152,-364 1152,-383 1281,-383 1281,-364 1152,-364"/>
<text text-anchor="middle" x="1216.5" y="-371" font-family="Helvetica,sans-Serif" font-size="10.00">src/node/rpc/frontend.h</text>
</a>
</g>
</g>
<!-- Node25&#45;&gt;Node27 -->
<g id="edge38" class="edge">
<title>Node25&#45;&gt;Node27</title>
<path fill="none" stroke="midnightblue" d="M1216.5,-672.44C1216.5,-648.69 1216.5,-606.29 1216.5,-570 1216.5,-570 1216.5,-570 1216.5,-506.5 1216.5,-459.98 1216.5,-404.24 1216.5,-383.15"/>
<polygon fill="midnightblue" stroke="midnightblue" points="1213,-672.49 1216.5,-682.49 1220,-672.49 1213,-672.49"/>
</g>
<!-- Node27&#45;&gt;Node15 -->
<g id="edge39" class="edge">
<title>Node27&#45;&gt;Node15</title>
<path fill="none" stroke="midnightblue" d="M1199.61,-357.09C1168.14,-329.12 1097.48,-269.69 1028.5,-235 988.8,-215.03 939.66,-201.13 905.78,-193.04"/>
<polygon fill="midnightblue" stroke="midnightblue" points="1197.3,-359.72 1207.08,-363.8 1201.97,-354.51 1197.3,-359.72"/>
</g>
<!-- Node27&#45;&gt;Node20 -->
<g id="edge42" class="edge">
<title>Node27&#45;&gt;Node20</title>
<path fill="none" stroke="midnightblue" d="M1177.94,-361.03C1139.07,-349.46 1079.98,-331.88 1045.1,-321.51"/>
<polygon fill="midnightblue" stroke="midnightblue" points="1177.26,-364.48 1187.84,-363.98 1179.26,-357.77 1177.26,-364.48"/>
</g>
<!-- Node28 -->
<g id="node28" class="node">
<title>Node28</title>
<g id="a_node28"><a xlink:href="member__frontend_8h.html" target="_top" xlink:title=" ">
<polygon fill="white" stroke="black" points="1253.5,-168.5 1253.5,-198.5 1373.5,-198.5 1373.5,-168.5 1253.5,-168.5"/>
<text text-anchor="start" x="1261.5" y="-186.5" font-family="Helvetica,sans-Serif" font-size="10.00">src/node/rpc/member</text>
<text text-anchor="middle" x="1313.5" y="-175.5" font-family="Helvetica,sans-Serif" font-size="10.00">_frontend.h</text>
</a>
</g>
</g>
<!-- Node27&#45;&gt;Node28 -->
<g id="edge40" class="edge">
<title>Node27&#45;&gt;Node28</title>
<path fill="none" stroke="midnightblue" d="M1225.61,-354.84C1244.73,-317.78 1288.72,-232.53 1306.17,-198.7"/>
<polygon fill="midnightblue" stroke="midnightblue" points="1222.39,-353.44 1220.92,-363.93 1228.62,-356.65 1222.39,-353.44"/>
</g>
<!-- Node29 -->
<g id="node29" class="node">
<title>Node29</title>
<g id="a_node29"><a xlink:href="user__frontend_8h.html" target="_top" xlink:title=" ">
<polygon fill="white" stroke="black" points="1139,-112.5 1139,-131.5 1294,-131.5 1294,-112.5 1139,-112.5"/>
<text text-anchor="middle" x="1216.5" y="-119.5" font-family="Helvetica,sans-Serif" font-size="10.00">src/node/rpc/user_frontend.h</text>
</a>
</g>
</g>
<!-- Node27&#45;&gt;Node29 -->
<g id="edge43" class="edge">
<title>Node27&#45;&gt;Node29</title>
<path fill="none" stroke="midnightblue" d="M1216.5,-353.84C1216.5,-303.64 1216.5,-167.1 1216.5,-131.55"/>
<polygon fill="midnightblue" stroke="midnightblue" points="1213,-353.91 1216.5,-363.91 1220,-353.91 1213,-353.91"/>
</g>
<!-- Node28&#45;&gt;Node12 -->
<g id="edge41" class="edge">
<title>Node28&#45;&gt;Node12</title>
<path fill="none" stroke="midnightblue" d="M1316.69,-157.97C1317.23,-142.77 1315.05,-123.94 1303.5,-112 1277.22,-84.84 1175.74,-73.96 1108.71,-69.68"/>
<polygon fill="midnightblue" stroke="midnightblue" points="1313.18,-158.01 1315.92,-168.24 1320.16,-158.53 1313.18,-158.01"/>
</g>
<!-- Node29&#45;&gt;Node12 -->
<g id="edge44" class="edge">
<title>Node29&#45;&gt;Node12</title>
<path fill="none" stroke="midnightblue" d="M1179.9,-109.3C1148.05,-99.13 1102.66,-84.62 1074.15,-75.52"/>
<polygon fill="midnightblue" stroke="midnightblue" points="1179.13,-112.73 1189.72,-112.44 1181.26,-106.07 1179.13,-112.73"/>
</g>
<!-- Node30&#45;&gt;Node10 -->
<g id="edge46" class="edge">
<title>Node30&#45;&gt;Node10</title>
<path fill="none" stroke="midnightblue" d="M786.33,-619.05C725.5,-607.52 628.79,-589.19 572.41,-578.51"/>
<polygon fill="midnightblue" stroke="midnightblue" points="786.03,-622.55 796.51,-620.98 787.34,-615.67 786.03,-622.55"/>
</g>
<!-- Node30&#45;&gt;Node21 -->
<g id="edge47" class="edge">
<title>Node30&#45;&gt;Node21</title>
<path fill="none" stroke="midnightblue" d="M862.27,-614.55C888.29,-593.9 929.5,-554.01 929.5,-508.5 929.5,-508.5 929.5,-508.5 929.5,-439.5 929.5,-378.39 913.2,-361.17 928.5,-302 931.91,-288.8 939.6,-275.37 946.06,-265.69"/>
<polygon fill="midnightblue" stroke="midnightblue" points="859.92,-611.93 854.11,-620.79 864.18,-617.49 859.92,-611.93"/>
</g>
<!-- Node31 -->
<g id="node31" class="node">
<title>Node31</title>
<g id="a_node31"><a xlink:href="forwarder_8h.html" target="_top" xlink:title=" ">
<polygon fill="white" stroke="black" points="1054.5,-431 1054.5,-450 1188.5,-450 1188.5,-431 1054.5,-431"/>
<text text-anchor="middle" x="1121.5" y="-438" font-family="Helvetica,sans-Serif" font-size="10.00">src/node/rpc/forwarder.h</text>
</a>
</g>
</g>
<!-- Node30&#45;&gt;Node31 -->
<g id="edge48" class="edge">
<title>Node30&#45;&gt;Node31</title>
<path fill="none" stroke="midnightblue" d="M870.97,-616.79C891.8,-607.36 920.07,-593.65 943.5,-579 1011.71,-536.36 1085.4,-473.31 1111.59,-450.31"/>
<polygon fill="midnightblue" stroke="midnightblue" points="869.38,-613.67 861.68,-620.94 872.24,-620.06 869.38,-613.67"/>
</g>
<!-- Node31&#45;&gt;Node12 -->
<g id="edge49" class="edge">
<title>Node31&#45;&gt;Node12</title>
<path fill="none" stroke="midnightblue" d="M1119.85,-420.58C1117.38,-393.98 1112.16,-344.05 1104.5,-302 1088.92,-216.52 1079.04,-196.42 1058.5,-112 1055.42,-99.34 1051.83,-84.68 1049.61,-75.63"/>
<polygon fill="midnightblue" stroke="midnightblue" points="1116.39,-421.11 1120.77,-430.76 1123.36,-420.49 1116.39,-421.11"/>
</g>
<!-- Node31&#45;&gt;Node27 -->
<g id="edge50" class="edge">
<title>Node31&#45;&gt;Node27</title>
<path fill="none" stroke="midnightblue" d="M1142.81,-424.92C1161.59,-412.07 1188.32,-393.78 1203.89,-383.13"/>
<polygon fill="midnightblue" stroke="midnightblue" points="1140.59,-422.2 1134.31,-430.73 1144.54,-427.98 1140.59,-422.2"/>
</g>
<!-- Node32&#45;&gt;Node3 -->
<g id="edge52" class="edge">
<title>Node32&#45;&gt;Node3</title>
<path fill="none" stroke="midnightblue" d="M579.98,-680.49C523.83,-669.46 436.22,-652.26 381.16,-641.45"/>
<polygon fill="midnightblue" stroke="midnightblue" points="579.6,-683.98 590.09,-682.48 580.95,-677.11 579.6,-683.98"/>
</g>
<!-- Node32&#45;&gt;Node30 -->
<g id="edge54" class="edge">
<title>Node32&#45;&gt;Node30</title>
<path fill="none" stroke="midnightblue" d="M673.09,-679.68C713.5,-668.11 775.33,-650.43 811.75,-640.01"/>
<polygon fill="midnightblue" stroke="midnightblue" points="671.95,-676.36 663.3,-682.48 673.88,-683.09 671.95,-676.36"/>
</g>
<!-- Node33 -->
<g id="node33" class="node">
<title>Node33</title>
<g id="a_node33"><a xlink:href="sig__auth_8cpp.html" target="_top" xlink:title=" ">
<polygon fill="white" stroke="black" points="556,-615.5 556,-645.5 711,-645.5 711,-615.5 556,-615.5"/>
<text text-anchor="start" x="564" y="-633.5" font-family="Helvetica,sans-Serif" font-size="10.00">src/endpoints/authentication</text>
<text text-anchor="middle" x="633.5" y="-622.5" font-family="Helvetica,sans-Serif" font-size="10.00">/sig_auth.cpp</text>
</a>
</g>
</g>
<!-- Node32&#45;&gt;Node33 -->
<g id="edge53" class="edge">
<title>Node32&#45;&gt;Node33</title>
<path fill="none" stroke="midnightblue" d="M633.5,-672.23C633.5,-663.59 633.5,-653.5 633.5,-645.52"/>
<polygon fill="midnightblue" stroke="midnightblue" points="630,-672.48 633.5,-682.48 637,-672.48 630,-672.48"/>
</g>
<!-- Node34&#45;&gt;Node14 -->
<g id="edge56" class="edge">
<title>Node34&#45;&gt;Node14</title>
<path fill="none" stroke="midnightblue" d="M747.67,-549.31C755.34,-521.58 769.44,-470.63 775.08,-450.26"/>
<polygon fill="midnightblue" stroke="midnightblue" points="744.2,-548.73 744.91,-559.31 750.95,-550.6 744.2,-548.73"/>
</g>
<!-- Node35&#45;&gt;Node2 -->
<g id="edge58" class="edge">
<title>Node35&#45;&gt;Node2</title>
<path fill="none" stroke="midnightblue" d="M662.39,-786.14C655.07,-776.74 646.26,-765.4 640.31,-757.75"/>
<polygon fill="midnightblue" stroke="midnightblue" points="659.66,-788.34 668.56,-794.08 665.19,-784.04 659.66,-788.34"/>
</g>
</g>
</svg>
        <g id="navigator" transform="translate(0 0)" fill="#404254">
                <rect fill="#f2f5e9" fill-opacity="0.5" stroke="#606060" stroke-width=".5" x="0" y="0" width="60" height="60"/>
                <use id="zoomplus" xlink:href="#zoomPlus" x="17" y="9" onmousedown="handleZoom(evt,'in')"/>
                <use id="zoomminus" xlink:href="#zoomMin" x="42" y="9" onmousedown="handleZoom(evt,'out')"/>
                <use id="reset" xlink:href="#resetDef" x="30" y="36" onmousedown="handleReset()"/>
                <g id="arrowUp" xlink:href="#dirArrow" transform="translate(30 24)" onmousedown="handlePan(0,-1)">
                  <use xlink:href="#rim" fill="#404040">
                        <set attributeName="fill" to="#808080" begin="arrowUp.mouseover" end="arrowUp.mouseout"/>
                  </use>
                  <path fill="none" stroke="white" stroke-width="1.5" d="M0,-3.0v7 M-2.5,-0.5L0,-3.0L2.5,-0.5"/>
                </g>
                <g id="arrowRight" xlink:href="#dirArrow" transform="rotate(90) translate(36 -43)" onmousedown="handlePan(1,0)">
                  <use xlink:href="#rim" fill="#404040">
                        <set attributeName="fill" to="#808080" begin="arrowRight.mouseover" end="arrowRight.mouseout"/>
                  </use>
                  <path fill="none" stroke="white" stroke-width="1.5" d="M0,-3.0v7 M-2.5,-0.5L0,-3.0L2.5,-0.5"/>
                </g>
                <g id="arrowDown" xlink:href="#dirArrow" transform="rotate(180) translate(-30 -48)" onmousedown="handlePan(0,1)">
                  <use xlink:href="#rim" fill="#404040">
                        <set attributeName="fill" to="#808080" begin="arrowDown.mouseover" end="arrowDown.mouseout"/>
                  </use>
                  <path fill="none" stroke="white" stroke-width="1.5" d="M0,-3.0v7 M-2.5,-0.5L0,-3.0L2.5,-0.5"/>
                </g>
                <g id="arrowLeft" xlink:href="#dirArrow" transform="rotate(270) translate(-36 17)" onmousedown="handlePan(-1,0)">
                  <use xlink:href="#rim" fill="#404040">
                        <set attributeName="fill" to="#808080" begin="arrowLeft.mouseover" end="arrowLeft.mouseout"/>
                  </use>
                  <path fill="none" stroke="white" stroke-width="1.5" d="M0,-3.0v7 M-2.5,-0.5L0,-3.0L2.5,-0.5"/>
                </g>
        </g>
        <svg viewBox="0 0 15 15" width="100%" height="30px" preserveAspectRatio="xMaxYMin meet">
         <g id="arrow_out" transform="scale(0.3 0.3)">
          <a xlink:href="tls__endpoint_8h__dep__incl_org.svg" target="_base">
           <rect id="button" ry="5" rx="5" y="6" x="6" height="38" width="38"
                fill="#f2f5e9" fill-opacity="0.5" stroke="#606060" stroke-width="1.0"/>
           <path id="arrow"
             d="M 11.500037,31.436501 C 11.940474,20.09759 22.043105,11.32322 32.158766,21.979434 L 37.068811,17.246167 C 37.068811,17.246167 37.088388,32 37.088388,32 L 22.160133,31.978069 C 22.160133,31.978069 26.997745,27.140456 26.997745,27.140456 C 18.528582,18.264221 13.291696,25.230495 11.500037,31.436501 z"
             style="fill:#404040;"/>
          </a>
         </g>
        </svg>
</svg>
