<?xml version="1.0" encoding="UTF-8" standalone="no"?>
<!DOCTYPE svg PUBLIC "-//W3C//DTD SVG 1.1//EN"
 "http://www.w3.org/Graphics/SVG/1.1/DTD/svg11.dtd">
<!-- Generated by graphviz version 2.43.0 (0)
 -->
<!-- Title: include/ccf/service/tables/acme_certificates.h Pages: 1 -->
<svg width="1701pt" height="520pt"
 viewBox="0.00 0.00 1700.50 520.00" xmlns="http://www.w3.org/2000/svg" xmlns:xlink="http://www.w3.org/1999/xlink">
<g id="graph0" class="graph" transform="scale(1 1) rotate(0) translate(4 516)">
<title>include/ccf/service/tables/acme_certificates.h</title>
<polygon fill="white" stroke="transparent" points="-4,4 -4,-516 1696.5,-516 1696.5,4 -4,4"/>
<!-- Node1 -->
<g id="node1" class="node">
<title>Node1</title>
<g id="a_node1"><a xlink:title=" ">
<polygon fill="#bfbfbf" stroke="black" points="28,-481.5 28,-511.5 176,-511.5 176,-481.5 28,-481.5"/>
<text text-anchor="start" x="36" y="-499.5" font-family="Helvetica,sans-Serif" font-size="10.00">include/ccf/service</text>
<text text-anchor="middle" x="102" y="-488.5" font-family="Helvetica,sans-Serif" font-size="10.00">/tables/acme_certificates.h</text>
</a>
</g>
</g>
<!-- Node2 -->
<g id="node2" class="node">
<title>Node2</title>
<g id="a_node2"><a xlink:href="ccf__acme__client_8h.html" target="_top" xlink:title=" ">
<polygon fill="white" stroke="black" points="27.5,-353 27.5,-372 176.5,-372 176.5,-353 27.5,-353"/>
<text text-anchor="middle" x="102" y="-360" font-family="Helvetica,sans-Serif" font-size="10.00">src/node/ccf_acme_client.h</text>
</a>
</g>
</g>
<!-- Node1&#45;&gt;Node2 -->
<g id="edge1" class="edge">
<title>Node1&#45;&gt;Node2</title>
<path fill="none" stroke="midnightblue" d="M102,-471.32C102,-441.38 102,-391.91 102,-372.1"/>
<polygon fill="midnightblue" stroke="midnightblue" points="98.5,-471.37 102,-481.37 105.5,-471.37 98.5,-471.37"/>
</g>
<!-- Node3 -->
<g id="node3" class="node">
<title>Node3</title>
<g id="a_node3"><a xlink:href="node__state_8h.html" target="_top" xlink:title=" ">
<polygon fill="white" stroke="black" points="442,-168.5 442,-187.5 566,-187.5 566,-168.5 442,-168.5"/>
<text text-anchor="middle" x="504" y="-175.5" font-family="Helvetica,sans-Serif" font-size="10.00">src/node/node_state.h</text>
</a>
</g>
</g>
<!-- Node1&#45;&gt;Node3 -->
<g id="edge7" class="edge">
<title>Node1&#45;&gt;Node3</title>
<path fill="none" stroke="midnightblue" d="M72.24,-475.24C42.13,-452.08 0,-411.15 0,-363.5 0,-363.5 0,-363.5 0,-300 0,-210.07 307.23,-186.81 441.95,-180.93"/>
<polygon fill="midnightblue" stroke="midnightblue" points="70.26,-478.12 80.37,-481.29 74.44,-472.51 70.26,-478.12"/>
</g>
<!-- Node7 -->
<g id="node7" class="node">
<title>Node7</title>
<g id="a_node7"><a xlink:href="network__tables_8h.html" target="_top" xlink:title=" ">
<polygon fill="white" stroke="black" points="210,-414.5 210,-444.5 322,-444.5 322,-414.5 210,-414.5"/>
<text text-anchor="start" x="218" y="-432.5" font-family="Helvetica,sans-Serif" font-size="10.00">src/service/network</text>
<text text-anchor="middle" x="266" y="-421.5" font-family="Helvetica,sans-Serif" font-size="10.00">_tables.h</text>
</a>
</g>
</g>
<!-- Node1&#45;&gt;Node7 -->
<g id="edge8" class="edge">
<title>Node1&#45;&gt;Node7</title>
<path fill="none" stroke="midnightblue" d="M146.96,-477.68C173.26,-467.26 206,-454.28 230.48,-444.58"/>
<polygon fill="midnightblue" stroke="midnightblue" points="145.59,-474.46 137.59,-481.4 148.17,-480.97 145.59,-474.46"/>
</g>
<!-- Node2&#45;&gt;Node3 -->
<g id="edge2" class="edge">
<title>Node2&#45;&gt;Node3</title>
<path fill="none" stroke="midnightblue" d="M99.67,-342.7C97.08,-312.12 97.2,-252.2 133,-224 179.57,-187.32 348.72,-180.07 441.7,-178.93"/>
<polygon fill="midnightblue" stroke="midnightblue" points="96.22,-343.27 100.73,-352.86 103.18,-342.55 96.22,-343.27"/>
</g>
<!-- Node4 -->
<g id="node4" class="node">
<title>Node4</title>
<g id="a_node4"><a xlink:href="enclave_2enclave_8h.html" target="_top" xlink:title=" ">
<polygon fill="white" stroke="black" points="543,-56.5 543,-75.5 665,-75.5 665,-56.5 543,-56.5"/>
<text text-anchor="middle" x="604" y="-63.5" font-family="Helvetica,sans-Serif" font-size="10.00">src/enclave/enclave.h</text>
</a>
</g>
</g>
<!-- Node3&#45;&gt;Node4 -->
<g id="edge3" class="edge">
<title>Node3&#45;&gt;Node4</title>
<path fill="none" stroke="midnightblue" d="M539.75,-164.41C555.65,-157.17 573.36,-146.57 585,-132 598.5,-115.1 602.41,-88.91 603.54,-75.52"/>
<polygon fill="midnightblue" stroke="midnightblue" points="538,-161.36 530.16,-168.49 540.73,-167.8 538,-161.36"/>
</g>
<!-- Node6 -->
<g id="node6" class="node">
<title>Node6</title>
<g id="a_node6"><a xlink:href="gov__effects_8h.html" target="_top" xlink:title=" ">
<polygon fill="white" stroke="black" points="432,-112.5 432,-131.5 576,-131.5 576,-112.5 432,-112.5"/>
<text text-anchor="middle" x="504" y="-119.5" font-family="Helvetica,sans-Serif" font-size="10.00">src/node/rpc/gov_effects.h</text>
</a>
</g>
</g>
<!-- Node3&#45;&gt;Node6 -->
<g id="edge5" class="edge">
<title>Node3&#45;&gt;Node6</title>
<path fill="none" stroke="midnightblue" d="M504,-157.8C504,-148.91 504,-138.78 504,-131.75"/>
<polygon fill="midnightblue" stroke="midnightblue" points="500.5,-158.08 504,-168.08 507.5,-158.08 500.5,-158.08"/>
</g>
<!-- Node5 -->
<g id="node5" class="node">
<title>Node5</title>
<g id="a_node5"><a xlink:href="enclave_2main_8cpp.html" target="_top" xlink:title=" ">
<polygon fill="white" stroke="black" points="544,-0.5 544,-19.5 664,-19.5 664,-0.5 544,-0.5"/>
<text text-anchor="middle" x="604" y="-7.5" font-family="Helvetica,sans-Serif" font-size="10.00">src/enclave/main.cpp</text>
</a>
</g>
</g>
<!-- Node4&#45;&gt;Node5 -->
<g id="edge4" class="edge">
<title>Node4&#45;&gt;Node5</title>
<path fill="none" stroke="midnightblue" d="M604,-45.8C604,-36.91 604,-26.78 604,-19.75"/>
<polygon fill="midnightblue" stroke="midnightblue" points="600.5,-46.08 604,-56.08 607.5,-46.08 600.5,-46.08"/>
</g>
<!-- Node6&#45;&gt;Node4 -->
<g id="edge6" class="edge">
<title>Node6&#45;&gt;Node4</title>
<path fill="none" stroke="midnightblue" d="M529.09,-107.45C547.55,-97.48 572.1,-84.23 587.97,-75.65"/>
<polygon fill="midnightblue" stroke="midnightblue" points="527.2,-104.49 520.07,-112.32 530.53,-110.65 527.2,-104.49"/>
</g>
<!-- Node7&#45;&gt;Node2 -->
<g id="edge10" class="edge">
<title>Node7&#45;&gt;Node2</title>
<path fill="none" stroke="midnightblue" d="M220.89,-410.62C189.15,-398.04 148.09,-381.77 123.46,-372.01"/>
<polygon fill="midnightblue" stroke="midnightblue" points="219.83,-413.97 230.41,-414.4 222.41,-407.46 219.83,-413.97"/>
</g>
<!-- Node8 -->
<g id="node8" class="node">
<title>Node8</title>
<g id="a_node8"><a xlink:href="kv__module__loader_8cpp.html" target="_top" xlink:title=" ">
<polygon fill="white" stroke="black" points="194.5,-347.5 194.5,-377.5 337.5,-377.5 337.5,-347.5 194.5,-347.5"/>
<text text-anchor="start" x="202.5" y="-365.5" font-family="Helvetica,sans-Serif" font-size="10.00">src/apps/js_v8/kv_module</text>
<text text-anchor="middle" x="266" y="-354.5" font-family="Helvetica,sans-Serif" font-size="10.00">_loader.cpp</text>
</a>
</g>
</g>
<!-- Node7&#45;&gt;Node8 -->
<g id="edge9" class="edge">
<title>Node7&#45;&gt;Node8</title>
<path fill="none" stroke="midnightblue" d="M266,-404.11C266,-395.15 266,-385.32 266,-377.58"/>
<polygon fill="midnightblue" stroke="midnightblue" points="262.5,-404.4 266,-414.4 269.5,-404.4 262.5,-404.4"/>
</g>
<!-- Node9 -->
<g id="node9" class="node">
<title>Node9</title>
<g id="a_node9"><a xlink:href="network__state_8h.html" target="_top" xlink:title=" ">
<polygon fill="white" stroke="black" points="644,-353 644,-372 784,-372 784,-353 644,-353"/>
<text text-anchor="middle" x="714" y="-360" font-family="Helvetica,sans-Serif" font-size="10.00">src/node/network_state.h</text>
</a>
</g>
</g>
<!-- Node7&#45;&gt;Node9 -->
<g id="edge11" class="edge">
<title>Node7&#45;&gt;Node9</title>
<path fill="none" stroke="midnightblue" d="M332.34,-418.87C419.63,-406.21 571.69,-384.15 655.1,-372.05"/>
<polygon fill="midnightblue" stroke="midnightblue" points="331.68,-415.43 322.29,-420.33 332.68,-422.36 331.68,-415.43"/>
</g>
<!-- Node25 -->
<g id="node25" class="node">
<title>Node25</title>
<g id="a_node25"><a xlink:href="genesis__gen_8h.html" target="_top" xlink:title=" ">
<polygon fill="white" stroke="black" points="356,-347.5 356,-377.5 466,-377.5 466,-347.5 356,-347.5"/>
<text text-anchor="start" x="364" y="-365.5" font-family="Helvetica,sans-Serif" font-size="10.00">src/service/genesis</text>
<text text-anchor="middle" x="411" y="-354.5" font-family="Helvetica,sans-Serif" font-size="10.00">_gen.h</text>
</a>
</g>
</g>
<!-- Node7&#45;&gt;Node25 -->
<g id="edge43" class="edge">
<title>Node7&#45;&gt;Node25</title>
<path fill="none" stroke="midnightblue" d="M306.67,-410.27C329.76,-399.92 358.24,-387.15 379.6,-377.58"/>
<polygon fill="midnightblue" stroke="midnightblue" points="305.16,-407.11 297.46,-414.4 308.02,-413.5 305.16,-407.11"/>
</g>
<!-- Node9&#45;&gt;Node3 -->
<g id="edge29" class="edge">
<title>Node9&#45;&gt;Node3</title>
<path fill="none" stroke="midnightblue" d="M713.82,-342.62C712.64,-326.8 708.46,-304.66 695,-291 654.13,-249.51 618.01,-286.47 569,-255 565.33,-252.64 527.35,-207.14 511.2,-187.69"/>
<polygon fill="midnightblue" stroke="midnightblue" points="710.33,-342.96 714.23,-352.81 717.32,-342.68 710.33,-342.96"/>
</g>
<!-- Node9&#45;&gt;Node4 -->
<g id="edge12" class="edge">
<title>Node9&#45;&gt;Node4</title>
<path fill="none" stroke="midnightblue" d="M794.45,-357.61C996.46,-346.79 1509,-312.24 1509,-240.5 1509,-240.5 1509,-240.5 1509,-177 1509,-91.78 868.44,-72.09 665.14,-67.99"/>
<polygon fill="midnightblue" stroke="midnightblue" points="794,-354.13 784.2,-358.16 794.37,-361.12 794,-354.13"/>
</g>
<!-- Node10 -->
<g id="node10" class="node">
<title>Node10</title>
<g id="a_node10"><a xlink:href="wrap_8h.html" target="_top" xlink:title=" ">
<polygon fill="white" stroke="black" points="957,-291.5 957,-310.5 1035,-310.5 1035,-291.5 957,-291.5"/>
<text text-anchor="middle" x="996" y="-298.5" font-family="Helvetica,sans-Serif" font-size="10.00">src/js/wrap.h</text>
</a>
</g>
</g>
<!-- Node9&#45;&gt;Node10 -->
<g id="edge13" class="edge">
<title>Node9&#45;&gt;Node10</title>
<path fill="none" stroke="midnightblue" d="M764.29,-350.89C819.29,-339.28 906.3,-320.93 956.58,-310.32"/>
<polygon fill="midnightblue" stroke="midnightblue" points="763.47,-347.49 754.4,-352.98 764.91,-354.34 763.47,-347.49"/>
</g>
<!-- Node19 -->
<g id="node19" class="node">
<title>Node19</title>
<g id="a_node19"><a xlink:href="node__frontend_8h.html" target="_top" xlink:title=" ">
<polygon fill="white" stroke="black" points="117,-291.5 117,-310.5 275,-310.5 275,-291.5 117,-291.5"/>
<text text-anchor="middle" x="196" y="-298.5" font-family="Helvetica,sans-Serif" font-size="10.00">src/node/rpc/node_frontend.h</text>
</a>
</g>
</g>
<!-- Node9&#45;&gt;Node19 -->
<g id="edge30" class="edge">
<title>Node9&#45;&gt;Node19</title>
<path fill="none" stroke="midnightblue" d="M633.88,-352.3C534.54,-340.89 366.57,-321.59 270.1,-310.51"/>
<polygon fill="midnightblue" stroke="midnightblue" points="633.54,-355.78 643.87,-353.44 634.34,-348.83 633.54,-355.78"/>
</g>
<!-- Node21 -->
<g id="node21" class="node">
<title>Node21</title>
<g id="a_node21"><a xlink:href="user__frontend_8h.html" target="_top" xlink:title=" ">
<polygon fill="white" stroke="black" points="1537.5,-112.5 1537.5,-131.5 1692.5,-131.5 1692.5,-112.5 1537.5,-112.5"/>
<text text-anchor="middle" x="1615" y="-119.5" font-family="Helvetica,sans-Serif" font-size="10.00">src/node/rpc/user_frontend.h</text>
</a>
</g>
</g>
<!-- Node9&#45;&gt;Node21 -->
<g id="edge34" class="edge">
<title>Node9&#45;&gt;Node21</title>
<path fill="none" stroke="midnightblue" d="M794.3,-361.02C986.88,-359.23 1463.44,-350.79 1523,-311 1588.56,-267.19 1609.08,-162.57 1613.81,-131.71"/>
<polygon fill="midnightblue" stroke="midnightblue" points="794.21,-357.52 784.24,-361.11 794.27,-364.52 794.21,-357.52"/>
</g>
<!-- Node22 -->
<g id="node22" class="node">
<title>Node22</title>
<g id="a_node22"><a xlink:href="secret__broadcast_8h.html" target="_top" xlink:title=" ">
<polygon fill="white" stroke="black" points="532.5,-291.5 532.5,-310.5 685.5,-310.5 685.5,-291.5 532.5,-291.5"/>
<text text-anchor="middle" x="609" y="-298.5" font-family="Helvetica,sans-Serif" font-size="10.00">src/node/secret_broadcast.h</text>
</a>
</g>
</g>
<!-- Node9&#45;&gt;Node22 -->
<g id="edge36" class="edge">
<title>Node9&#45;&gt;Node22</title>
<path fill="none" stroke="midnightblue" d="M690,-347.9C669.7,-336.4 641.24,-320.27 624.02,-310.51"/>
<polygon fill="midnightblue" stroke="midnightblue" points="688.53,-351.09 698.96,-352.98 691.98,-345 688.53,-351.09"/>
</g>
<!-- Node23 -->
<g id="node23" class="node">
<title>Node23</title>
<g id="a_node23"><a xlink:href="share__manager_8h.html" target="_top" xlink:title=" ">
<polygon fill="white" stroke="black" points="369.5,-291.5 369.5,-310.5 514.5,-310.5 514.5,-291.5 369.5,-291.5"/>
<text text-anchor="middle" x="442" y="-298.5" font-family="Helvetica,sans-Serif" font-size="10.00">src/node/share_manager.h</text>
</a>
</g>
</g>
<!-- Node9&#45;&gt;Node23 -->
<g id="edge38" class="edge">
<title>Node9&#45;&gt;Node23</title>
<path fill="none" stroke="midnightblue" d="M665.22,-350.83C612.48,-339.29 529.44,-321.13 480.9,-310.51"/>
<polygon fill="midnightblue" stroke="midnightblue" points="664.51,-354.26 675.03,-352.98 666.01,-347.42 664.51,-354.26"/>
</g>
<!-- Node24 -->
<g id="node24" class="node">
<title>Node24</title>
<g id="a_node24"><a xlink:href="snapshotter_8h.html" target="_top" xlink:title=" ">
<polygon fill="white" stroke="black" points="742.5,-291.5 742.5,-310.5 869.5,-310.5 869.5,-291.5 742.5,-291.5"/>
<text text-anchor="middle" x="806" y="-298.5" font-family="Helvetica,sans-Serif" font-size="10.00">src/node/snapshotter.h</text>
</a>
</g>
</g>
<!-- Node9&#45;&gt;Node24 -->
<g id="edge41" class="edge">
<title>Node9&#45;&gt;Node24</title>
<path fill="none" stroke="midnightblue" d="M735.76,-347.43C753.49,-335.96 777.96,-320.13 792.84,-310.51"/>
<polygon fill="midnightblue" stroke="midnightblue" points="733.68,-344.61 727.18,-352.98 737.48,-350.48 733.68,-344.61"/>
</g>
<!-- Node10&#45;&gt;Node3 -->
<g id="edge26" class="edge">
<title>Node10&#45;&gt;Node3</title>
<path fill="none" stroke="midnightblue" d="M946.86,-294.99C857.93,-285.72 676.96,-265.85 650,-255 628.48,-246.34 628.11,-235.57 608,-224 581.74,-208.89 549.44,-195.68 527.87,-187.54"/>
<polygon fill="midnightblue" stroke="midnightblue" points="946.67,-298.49 956.97,-296.04 947.39,-291.53 946.67,-298.49"/>
</g>
<!-- Node10&#45;&gt;Node4 -->
<g id="edge15" class="edge">
<title>Node10&#45;&gt;Node4</title>
<path fill="none" stroke="midnightblue" d="M1045.2,-298.8C1157.49,-295.54 1425.06,-284.73 1452,-255 1461.25,-244.79 1460.53,-234.82 1452,-224 1354.4,-100.16 843.37,-73.82 665.28,-68.38"/>
<polygon fill="midnightblue" stroke="midnightblue" points="1045.05,-295.3 1035.15,-299.08 1045.25,-302.3 1045.05,-295.3"/>
</g>
<!-- Node11 -->
<g id="node11" class="node">
<title>Node11</title>
<g id="a_node11"><a xlink:href="js__generic__base_8cpp.html" target="_top" xlink:title=" ">
<polygon fill="white" stroke="black" points="805,-224.5 805,-254.5 923,-254.5 923,-224.5 805,-224.5"/>
<text text-anchor="start" x="813" y="-242.5" font-family="Helvetica,sans-Serif" font-size="10.00">src/apps/js_generic</text>
<text text-anchor="middle" x="864" y="-231.5" font-family="Helvetica,sans-Serif" font-size="10.00">/js_generic_base.cpp</text>
</a>
</g>
</g>
<!-- Node10&#45;&gt;Node11 -->
<g id="edge14" class="edge">
<title>Node10&#45;&gt;Node11</title>
<path fill="none" stroke="midnightblue" d="M967.89,-287.33C946.54,-277.7 917.17,-264.47 895.11,-254.52"/>
<polygon fill="midnightblue" stroke="midnightblue" points="966.53,-290.56 977.09,-291.48 969.41,-284.17 966.53,-290.56"/>
</g>
<!-- Node12 -->
<g id="node12" class="node">
<title>Node12</title>
<g id="a_node12"><a xlink:href="js_2consensus_8cpp.html" target="_top" xlink:title=" ">
<polygon fill="white" stroke="black" points="1107,-230 1107,-249 1223,-249 1223,-230 1107,-230"/>
<text text-anchor="middle" x="1165" y="-237" font-family="Helvetica,sans-Serif" font-size="10.00">src/js/consensus.cpp</text>
</a>
</g>
</g>
<!-- Node10&#45;&gt;Node12 -->
<g id="edge16" class="edge">
<title>Node10&#45;&gt;Node12</title>
<path fill="none" stroke="midnightblue" d="M1029.85,-288.08C1062.7,-276.52 1111.74,-259.25 1140.83,-249.01"/>
<polygon fill="midnightblue" stroke="midnightblue" points="1028.48,-284.85 1020.21,-291.48 1030.81,-291.46 1028.48,-284.85"/>
</g>
<!-- Node13 -->
<g id="node13" class="node">
<title>Node13</title>
<g id="a_node13"><a xlink:href="wrap_8cpp.html" target="_top" xlink:title=" ">
<polygon fill="white" stroke="black" points="1120.5,-168.5 1120.5,-187.5 1209.5,-187.5 1209.5,-168.5 1120.5,-168.5"/>
<text text-anchor="middle" x="1165" y="-175.5" font-family="Helvetica,sans-Serif" font-size="10.00">src/js/wrap.cpp</text>
</a>
</g>
</g>
<!-- Node10&#45;&gt;Node13 -->
<g id="edge25" class="edge">
<title>Node10&#45;&gt;Node13</title>
<path fill="none" stroke="midnightblue" d="M1017.39,-285.53C1029.96,-276.88 1046.06,-265.56 1060,-255 1077.37,-241.83 1080.49,-236.98 1098,-224 1116.01,-210.65 1137.68,-196.41 1151.4,-187.61"/>
<polygon fill="midnightblue" stroke="midnightblue" points="1015.22,-282.77 1008.94,-291.3 1019.17,-288.55 1015.22,-282.77"/>
</g>
<!-- Node14 -->
<g id="node14" class="node">
<title>Node14</title>
<g id="a_node14"><a xlink:href="conv_8cpp.html" target="_top" xlink:title=" ">
<polygon fill="white" stroke="black" points="1241,-230 1241,-249 1329,-249 1329,-230 1241,-230"/>
<text text-anchor="middle" x="1285" y="-237" font-family="Helvetica,sans-Serif" font-size="10.00">src/js/conv.cpp</text>
</a>
</g>
</g>
<!-- Node10&#45;&gt;Node14 -->
<g id="edge18" class="edge">
<title>Node10&#45;&gt;Node14</title>
<path fill="none" stroke="midnightblue" d="M1045.13,-291.79C1093.03,-283.52 1167.83,-269.87 1232,-255 1239.62,-253.23 1247.8,-251.11 1255.39,-249.04"/>
<polygon fill="midnightblue" stroke="midnightblue" points="1044.3,-288.38 1035.03,-293.53 1045.48,-295.28 1044.3,-288.38"/>
</g>
<!-- Node15 -->
<g id="node15" class="node">
<title>Node15</title>
<g id="a_node15"><a xlink:href="js_2crypto_8cpp.html" target="_top" xlink:title=" ">
<polygon fill="white" stroke="black" points="1347,-230 1347,-249 1443,-249 1443,-230 1347,-230"/>
<text text-anchor="middle" x="1395" y="-237" font-family="Helvetica,sans-Serif" font-size="10.00">src/js/crypto.cpp</text>
</a>
</g>
</g>
<!-- Node10&#45;&gt;Node15 -->
<g id="edge20" class="edge">
<title>Node10&#45;&gt;Node15</title>
<path fill="none" stroke="midnightblue" d="M1045.45,-295.35C1112.21,-288.65 1234.73,-274.86 1338,-255 1346.52,-253.36 1355.67,-251.21 1364.09,-249.07"/>
<polygon fill="midnightblue" stroke="midnightblue" points="1044.83,-291.89 1035.22,-296.36 1045.52,-298.86 1044.83,-291.89"/>
</g>
<!-- Node16 -->
<g id="node16" class="node">
<title>Node16</title>
<g id="a_node16"><a xlink:href="js_2historical_8cpp.html" target="_top" xlink:title=" ">
<polygon fill="white" stroke="black" points="941,-230 941,-249 1051,-249 1051,-230 941,-230"/>
<text text-anchor="middle" x="996" y="-237" font-family="Helvetica,sans-Serif" font-size="10.00">src/js/historical.cpp</text>
</a>
</g>
</g>
<!-- Node10&#45;&gt;Node16 -->
<g id="edge22" class="edge">
<title>Node10&#45;&gt;Node16</title>
<path fill="none" stroke="midnightblue" d="M996,-281.32C996,-270.5 996,-257.4 996,-249.01"/>
<polygon fill="midnightblue" stroke="midnightblue" points="992.5,-281.48 996,-291.48 999.5,-281.48 992.5,-281.48"/>
</g>
<!-- Node17 -->
<g id="node17" class="node">
<title>Node17</title>
<g id="a_node17"><a xlink:href="openenclave_8cpp.html" target="_top" xlink:title=" ">
<polygon fill="white" stroke="black" points="659,-230 659,-249 787,-249 787,-230 659,-230"/>
<text text-anchor="middle" x="723" y="-237" font-family="Helvetica,sans-Serif" font-size="10.00">src/js/openenclave.cpp</text>
</a>
</g>
</g>
<!-- Node10&#45;&gt;Node17 -->
<g id="edge24" class="edge">
<title>Node10&#45;&gt;Node17</title>
<path fill="none" stroke="midnightblue" d="M947.05,-289.33C894.1,-277.79 810.76,-259.63 762.04,-249.01"/>
<polygon fill="midnightblue" stroke="midnightblue" points="946.37,-292.77 956.89,-291.48 947.86,-285.93 946.37,-292.77"/>
</g>
<!-- Node18 -->
<g id="node18" class="node">
<title>Node18</title>
<g id="a_node18"><a xlink:href="member__frontend_8h.html" target="_top" xlink:title=" ">
<polygon fill="white" stroke="black" points="331,-224.5 331,-254.5 451,-254.5 451,-224.5 331,-224.5"/>
<text text-anchor="start" x="339" y="-242.5" font-family="Helvetica,sans-Serif" font-size="10.00">src/node/rpc/member</text>
<text text-anchor="middle" x="391" y="-231.5" font-family="Helvetica,sans-Serif" font-size="10.00">_frontend.h</text>
</a>
</g>
</g>
<!-- Node10&#45;&gt;Node18 -->
<g id="edge27" class="edge">
<title>Node10&#45;&gt;Node18</title>
<path fill="none" stroke="midnightblue" d="M946.61,-295.14C836.46,-284.31 571.03,-258.21 451.33,-246.43"/>
<polygon fill="midnightblue" stroke="midnightblue" points="946.48,-298.65 956.77,-296.14 947.16,-291.68 946.48,-298.65"/>
</g>
<!-- Node12&#45;&gt;Node13 -->
<g id="edge17" class="edge">
<title>Node12&#45;&gt;Node13</title>
<path fill="none" stroke="midnightblue" d="M1165,-219.82C1165,-209 1165,-195.9 1165,-187.51"/>
<polygon fill="midnightblue" stroke="midnightblue" points="1161.5,-219.98 1165,-229.98 1168.5,-219.98 1161.5,-219.98"/>
</g>
<!-- Node14&#45;&gt;Node13 -->
<g id="edge19" class="edge">
<title>Node14&#45;&gt;Node13</title>
<path fill="none" stroke="midnightblue" d="M1258.82,-225.52C1235.55,-213.98 1202.2,-197.44 1182.16,-187.51"/>
<polygon fill="midnightblue" stroke="midnightblue" points="1257.29,-228.67 1267.81,-229.98 1260.4,-222.4 1257.29,-228.67"/>
</g>
<!-- Node15&#45;&gt;Node13 -->
<g id="edge21" class="edge">
<title>Node15&#45;&gt;Node13</title>
<path fill="none" stroke="midnightblue" d="M1352.36,-227.47C1307.7,-215.91 1238.51,-198.02 1197.89,-187.51"/>
<polygon fill="midnightblue" stroke="midnightblue" points="1351.49,-230.86 1362.05,-229.98 1353.24,-224.08 1351.49,-230.86"/>
</g>
<!-- Node16&#45;&gt;Node13 -->
<g id="edge23" class="edge">
<title>Node16&#45;&gt;Node13</title>
<path fill="none" stroke="midnightblue" d="M1029.85,-226.58C1062.7,-215.02 1111.74,-197.75 1140.83,-187.51"/>
<polygon fill="midnightblue" stroke="midnightblue" points="1028.48,-223.35 1020.21,-229.98 1030.81,-229.96 1028.48,-223.35"/>
</g>
<!-- Node18&#45;&gt;Node4 -->
<g id="edge28" class="edge">
<title>Node18&#45;&gt;Node4</title>
<path fill="none" stroke="midnightblue" d="M390.17,-214.21C390.59,-185.77 395.79,-139.1 423,-112 439.86,-95.21 497.04,-82.86 542.67,-75.39"/>
<polygon fill="midnightblue" stroke="midnightblue" points="386.67,-214.51 390.22,-224.49 393.67,-214.47 386.67,-214.51"/>
</g>
<!-- Node19&#45;&gt;Node4 -->
<g id="edge31" class="edge">
<title>Node19&#45;&gt;Node4</title>
<path fill="none" stroke="midnightblue" d="M166.18,-286.61C153.52,-279.23 140.08,-268.75 133,-255 126.7,-242.75 125.34,-235.45 133,-224 181.27,-151.81 445.36,-96 555.61,-75.5"/>
<polygon fill="midnightblue" stroke="midnightblue" points="164.69,-289.78 175.15,-291.43 168,-283.61 164.69,-289.78"/>
</g>
<!-- Node20 -->
<g id="node20" class="node">
<title>Node20</title>
<g id="a_node20"><a xlink:href="jwt__key__auto__refresh_8h.html" target="_top" xlink:title=" ">
<polygon fill="white" stroke="black" points="141.5,-224.5 141.5,-254.5 266.5,-254.5 266.5,-224.5 141.5,-224.5"/>
<text text-anchor="start" x="149.5" y="-242.5" font-family="Helvetica,sans-Serif" font-size="10.00">src/node/jwt_key_auto</text>
<text text-anchor="middle" x="204" y="-231.5" font-family="Helvetica,sans-Serif" font-size="10.00">_refresh.h</text>
</a>
</g>
</g>
<!-- Node19&#45;&gt;Node20 -->
<g id="edge32" class="edge">
<title>Node19&#45;&gt;Node20</title>
<path fill="none" stroke="midnightblue" d="M198.48,-281.53C199.66,-272.81 201.03,-262.59 202.11,-254.52"/>
<polygon fill="midnightblue" stroke="midnightblue" points="195.01,-281.1 197.15,-291.48 201.95,-282.03 195.01,-281.1"/>
</g>
<!-- Node20&#45;&gt;Node3 -->
<g id="edge33" class="edge">
<title>Node20&#45;&gt;Node3</title>
<path fill="none" stroke="midnightblue" d="M276.67,-224.09C334.28,-212.66 412.86,-197.08 460.92,-187.54"/>
<polygon fill="midnightblue" stroke="midnightblue" points="275.65,-220.72 266.52,-226.1 277.01,-227.59 275.65,-220.72"/>
</g>
<!-- Node21&#45;&gt;Node4 -->
<g id="edge35" class="edge">
<title>Node21&#45;&gt;Node4</title>
<path fill="none" stroke="midnightblue" d="M1526.94,-112.3C1525.62,-112.19 1524.31,-112.1 1523,-112 1200.19,-88.32 812.66,-73.93 665.09,-68.96"/>
<polygon fill="midnightblue" stroke="midnightblue" points="1526.97,-115.81 1537.22,-113.12 1527.54,-108.83 1526.97,-115.81"/>
</g>
<!-- Node22&#45;&gt;Node3 -->
<g id="edge37" class="edge">
<title>Node22&#45;&gt;Node3</title>
<path fill="none" stroke="midnightblue" d="M581.93,-286.57C568.33,-278.8 552.37,-267.98 541,-255 522.82,-234.25 511.39,-202.99 506.6,-187.85"/>
<polygon fill="midnightblue" stroke="midnightblue" points="580.42,-289.74 590.88,-291.46 583.78,-283.59 580.42,-289.74"/>
</g>
<!-- Node23&#45;&gt;Node3 -->
<g id="edge39" class="edge">
<title>Node23&#45;&gt;Node3</title>
<path fill="none" stroke="midnightblue" d="M451.2,-282.05C464.74,-255.62 489.52,-207.26 499.58,-187.62"/>
<polygon fill="midnightblue" stroke="midnightblue" points="447.9,-280.8 446.46,-291.3 454.13,-283.99 447.9,-280.8"/>
</g>
<!-- Node23&#45;&gt;Node18 -->
<g id="edge40" class="edge">
<title>Node23&#45;&gt;Node18</title>
<path fill="none" stroke="midnightblue" d="M428.12,-283.81C420.27,-274.65 410.55,-263.3 403.02,-254.52"/>
<polygon fill="midnightblue" stroke="midnightblue" points="425.53,-286.16 434.69,-291.48 430.84,-281.6 425.53,-286.16"/>
</g>
<!-- Node24&#45;&gt;Node3 -->
<g id="edge42" class="edge">
<title>Node24&#45;&gt;Node3</title>
<path fill="none" stroke="midnightblue" d="M736.28,-289.57C699.74,-282.59 654.84,-271.58 617,-255 611.56,-252.62 545,-207.12 516.65,-187.69"/>
<polygon fill="midnightblue" stroke="midnightblue" points="735.88,-293.06 746.35,-291.44 737.15,-286.18 735.88,-293.06"/>
</g>
<!-- Node25&#45;&gt;Node3 -->
<g id="edge44" class="edge">
<title>Node25&#45;&gt;Node3</title>
<path fill="none" stroke="midnightblue" d="M381.54,-341.32C345.01,-313.83 291.09,-263.49 322,-224 336.8,-205.1 394.96,-193.04 441.61,-186.21"/>
<polygon fill="midnightblue" stroke="midnightblue" points="379.81,-344.39 389.94,-347.48 383.95,-338.75 379.81,-344.39"/>
</g>
<!-- Node25&#45;&gt;Node18 -->
<g id="edge45" class="edge">
<title>Node25&#45;&gt;Node18</title>
<path fill="none" stroke="midnightblue" d="M383.1,-340.75C374.31,-332.57 365.68,-322.38 361,-311 352.9,-291.32 366.65,-268.7 378.09,-254.5"/>
<polygon fill="midnightblue" stroke="midnightblue" points="380.92,-343.5 390.76,-347.41 385.51,-338.21 380.92,-343.5"/>
</g>
<!-- Node25&#45;&gt;Node19 -->
<g id="edge46" class="edge">
<title>Node25&#45;&gt;Node19</title>
<path fill="none" stroke="midnightblue" d="M350.59,-344.78C310.26,-333.62 258.91,-319.41 226.74,-310.51"/>
<polygon fill="midnightblue" stroke="midnightblue" points="349.75,-348.18 360.32,-347.47 351.62,-341.43 349.75,-348.18"/>
</g>
<!-- Node25&#45;&gt;Node22 -->
<g id="edge47" class="edge">
<title>Node25&#45;&gt;Node22</title>
<path fill="none" stroke="midnightblue" d="M467.34,-344.57C504.38,-333.44 551.25,-319.35 580.69,-310.51"/>
<polygon fill="midnightblue" stroke="midnightblue" points="466.24,-341.24 457.67,-347.47 468.26,-347.95 466.24,-341.24"/>
</g>
<!-- Node25&#45;&gt;Node23 -->
<g id="edge48" class="edge">
<title>Node25&#45;&gt;Node23</title>
<path fill="none" stroke="midnightblue" d="M422.98,-338.5C428.07,-328.74 433.69,-317.96 437.49,-310.66"/>
<polygon fill="midnightblue" stroke="midnightblue" points="419.86,-336.91 418.35,-347.4 426.07,-340.15 419.86,-336.91"/>
</g>
</g>
</svg>
