<?xml version="1.0" encoding="UTF-8" standalone="no"?>
<!DOCTYPE svg PUBLIC "-//W3C//DTD SVG 1.1//EN"
 "http://www.w3.org/Graphics/SVG/1.1/DTD/svg11.dtd">
<!-- Generated by graphviz version 2.43.0 (0)
 -->
<!-- Title: include/ccf/actors.h Pages: 1 -->
<svg width="2555pt" height="699pt"
 viewBox="0.00 0.00 2555.00 699.00" xmlns="http://www.w3.org/2000/svg" xmlns:xlink="http://www.w3.org/1999/xlink">
<g id="graph0" class="graph" transform="scale(1 1) rotate(0) translate(4 695)">
<title>include/ccf/actors.h</title>
<polygon fill="white" stroke="transparent" points="-4,4 -4,-695 2551,-695 2551,4 -4,4"/>
<!-- Node1 -->
<g id="node1" class="node">
<title>Node1</title>
<g id="a_node1"><a xlink:title=" ">
<polygon fill="#bfbfbf" stroke="black" points="1097.5,-671.5 1097.5,-690.5 1208.5,-690.5 1208.5,-671.5 1097.5,-671.5"/>
<text text-anchor="middle" x="1153" y="-678.5" font-family="Helvetica,sans-Serif" font-size="10.00">include/ccf/actors.h</text>
</a>
</g>
</g>
<!-- Node2 -->
<g id="node2" class="node">
<title>Node2</title>
<g id="a_node2"><a xlink:href="app__interface_8h.html" target="_top" xlink:title=" ">
<polygon fill="white" stroke="black" points="624,-375 624,-394 772,-394 772,-375 624,-375"/>
<text text-anchor="middle" x="698" y="-382" font-family="Helvetica,sans-Serif" font-size="10.00">include/ccf/app_interface.h</text>
</a>
</g>
</g>
<!-- Node1&#45;&gt;Node2 -->
<g id="edge1" class="edge">
<title>Node1&#45;&gt;Node2</title>
<path fill="none" stroke="midnightblue" d="M1128.75,-666.09C1100.61,-647.91 1058,-613.26 1058,-570 1058,-570 1058,-570 1058,-506.5 1058,-445.26 868.47,-409.19 764.45,-394"/>
<polygon fill="midnightblue" stroke="midnightblue" points="1126.97,-669.1 1137.31,-671.4 1130.66,-663.15 1126.97,-669.1"/>
</g>
<!-- Node17 -->
<g id="node17" class="node">
<title>Node17</title>
<g id="a_node17"><a xlink:href="rpc__map_8h.html" target="_top" xlink:title=" ">
<polygon fill="white" stroke="black" points="1509,-615.5 1509,-634.5 1635,-634.5 1635,-615.5 1509,-615.5"/>
<text text-anchor="middle" x="1572" y="-622.5" font-family="Helvetica,sans-Serif" font-size="10.00">src/enclave/rpc_map.h</text>
</a>
</g>
</g>
<!-- Node1&#45;&gt;Node17 -->
<g id="edge19" class="edge">
<title>Node1&#45;&gt;Node17</title>
<path fill="none" stroke="midnightblue" d="M1219.01,-671.49C1298.44,-661.26 1430.85,-644.19 1508.94,-634.13"/>
<polygon fill="midnightblue" stroke="midnightblue" points="1218.11,-668.08 1208.64,-672.83 1219.01,-675.02 1218.11,-668.08"/>
</g>
<!-- Node3 -->
<g id="node3" class="node">
<title>Node3</title>
<g id="a_node3"><a xlink:href="logging_8cpp.html" target="_top" xlink:title=" ">
<polygon fill="white" stroke="black" points="636.5,-302.5 636.5,-332.5 759.5,-332.5 759.5,-302.5 636.5,-302.5"/>
<text text-anchor="start" x="644.5" y="-320.5" font-family="Helvetica,sans-Serif" font-size="10.00">samples/apps/logging</text>
<text text-anchor="middle" x="698" y="-309.5" font-family="Helvetica,sans-Serif" font-size="10.00">/logging.cpp</text>
</a>
</g>
</g>
<!-- Node2&#45;&gt;Node3 -->
<g id="edge2" class="edge">
<title>Node2&#45;&gt;Node3</title>
<path fill="none" stroke="midnightblue" d="M698,-364.41C698,-354.22 698,-341.9 698,-332.59"/>
<polygon fill="midnightblue" stroke="midnightblue" points="694.5,-364.73 698,-374.73 701.5,-364.73 694.5,-364.73"/>
</g>
<!-- Node4 -->
<g id="node4" class="node">
<title>Node4</title>
<g id="a_node4"><a xlink:href="nobuiltins_8cpp.html" target="_top" xlink:title=" ">
<polygon fill="white" stroke="black" points="777.5,-302.5 777.5,-332.5 912.5,-332.5 912.5,-302.5 777.5,-302.5"/>
<text text-anchor="start" x="785.5" y="-320.5" font-family="Helvetica,sans-Serif" font-size="10.00">samples/apps/nobuiltins</text>
<text text-anchor="middle" x="845" y="-309.5" font-family="Helvetica,sans-Serif" font-size="10.00">/nobuiltins.cpp</text>
</a>
</g>
</g>
<!-- Node2&#45;&gt;Node4 -->
<g id="edge3" class="edge">
<title>Node2&#45;&gt;Node4</title>
<path fill="none" stroke="midnightblue" d="M726.8,-370.77C751.68,-359.77 787.58,-343.89 813.27,-332.53"/>
<polygon fill="midnightblue" stroke="midnightblue" points="725.25,-367.62 717.52,-374.87 728.08,-374.03 725.25,-367.62"/>
</g>
<!-- Node5 -->
<g id="node5" class="node">
<title>Node5</title>
<g id="a_node5"><a xlink:href="js__generic_8cpp.html" target="_top" xlink:title=" ">
<polygon fill="white" stroke="black" points="178,-235.5 178,-265.5 288,-265.5 288,-235.5 178,-235.5"/>
<text text-anchor="start" x="186" y="-253.5" font-family="Helvetica,sans-Serif" font-size="10.00">src/apps/js_generic</text>
<text text-anchor="middle" x="233" y="-242.5" font-family="Helvetica,sans-Serif" font-size="10.00">/js_generic.cpp</text>
</a>
</g>
</g>
<!-- Node2&#45;&gt;Node5 -->
<g id="edge4" class="edge">
<title>Node2&#45;&gt;Node5</title>
<path fill="none" stroke="midnightblue" d="M613.68,-380.75C511.29,-376.09 345.73,-363.9 293,-333 266.17,-317.28 247.76,-284.33 238.95,-265.5"/>
<polygon fill="midnightblue" stroke="midnightblue" points="613.55,-384.25 623.7,-381.19 613.86,-377.25 613.55,-384.25"/>
</g>
<!-- Node6 -->
<g id="node6" class="node">
<title>Node6</title>
<g id="a_node6"><a xlink:href="js__generic__base_8cpp.html" target="_top" xlink:title=" ">
<polygon fill="white" stroke="black" points="0,-302.5 0,-332.5 118,-332.5 118,-302.5 0,-302.5"/>
<text text-anchor="start" x="8" y="-320.5" font-family="Helvetica,sans-Serif" font-size="10.00">src/apps/js_generic</text>
<text text-anchor="middle" x="59" y="-309.5" font-family="Helvetica,sans-Serif" font-size="10.00">/js_generic_base.cpp</text>
</a>
</g>
</g>
<!-- Node2&#45;&gt;Node6 -->
<g id="edge5" class="edge">
<title>Node2&#45;&gt;Node6</title>
<path fill="none" stroke="midnightblue" d="M613.55,-379.26C501.77,-372.9 298.78,-358.81 127,-333 124.14,-332.57 121.21,-332.09 118.26,-331.58"/>
<polygon fill="midnightblue" stroke="midnightblue" points="613.56,-382.76 623.74,-379.83 613.96,-375.77 613.56,-382.76"/>
</g>
<!-- Node7 -->
<g id="node7" class="node">
<title>Node7</title>
<g id="a_node7"><a xlink:href="js__generic__base_8h.html" target="_top" xlink:title=" ">
<polygon fill="white" stroke="black" points="136,-302.5 136,-332.5 246,-332.5 246,-302.5 136,-302.5"/>
<text text-anchor="start" x="144" y="-320.5" font-family="Helvetica,sans-Serif" font-size="10.00">src/apps/js_generic</text>
<text text-anchor="middle" x="191" y="-309.5" font-family="Helvetica,sans-Serif" font-size="10.00">/js_generic_base.h</text>
</a>
</g>
</g>
<!-- Node2&#45;&gt;Node7 -->
<g id="edge6" class="edge">
<title>Node2&#45;&gt;Node7</title>
<path fill="none" stroke="midnightblue" d="M613.72,-376.11C525.3,-367.82 382.41,-352.87 260,-333 255.53,-332.27 250.91,-331.46 246.28,-330.59"/>
<polygon fill="midnightblue" stroke="midnightblue" points="613.42,-379.6 623.7,-377.04 614.07,-372.63 613.42,-379.6"/>
</g>
<!-- Node8 -->
<g id="node8" class="node">
<title>Node8</title>
<g id="a_node8"><a xlink:href="js__v8_8cpp.html" target="_top" xlink:title=" ">
<polygon fill="white" stroke="black" points="726,-241 726,-260 860,-260 860,-241 726,-241"/>
<text text-anchor="middle" x="793" y="-248" font-family="Helvetica,sans-Serif" font-size="10.00">src/apps/js_v8/js_v8.cpp</text>
</a>
</g>
</g>
<!-- Node2&#45;&gt;Node8 -->
<g id="edge8" class="edge">
<title>Node2&#45;&gt;Node8</title>
<path fill="none" stroke="midnightblue" d="M667.47,-370.24C652.36,-361.92 635.56,-349.59 627,-333 620.68,-320.76 618.8,-313.07 627,-302 649.69,-271.38 690.49,-258.69 725.96,-253.69"/>
<polygon fill="midnightblue" stroke="midnightblue" points="666.08,-373.46 676.57,-374.91 669.27,-367.23 666.08,-373.46"/>
</g>
<!-- Node9 -->
<g id="node9" class="node">
<title>Node9</title>
<g id="a_node9"><a xlink:href="js__v8__base_8cpp.html" target="_top" xlink:title=" ">
<polygon fill="white" stroke="black" points="302,-302.5 302,-332.5 416,-332.5 416,-302.5 302,-302.5"/>
<text text-anchor="start" x="310" y="-320.5" font-family="Helvetica,sans-Serif" font-size="10.00">src/apps/js_v8/js_v8</text>
<text text-anchor="middle" x="359" y="-309.5" font-family="Helvetica,sans-Serif" font-size="10.00">_base.cpp</text>
</a>
</g>
</g>
<!-- Node2&#45;&gt;Node9 -->
<g id="edge9" class="edge">
<title>Node2&#45;&gt;Node9</title>
<path fill="none" stroke="midnightblue" d="M639.1,-373.19C583.74,-363.36 498.61,-347.89 425,-333 422.13,-332.42 419.18,-331.81 416.21,-331.19"/>
<polygon fill="midnightblue" stroke="midnightblue" points="638.63,-376.66 649.08,-374.96 639.85,-369.77 638.63,-376.66"/>
</g>
<!-- Node10 -->
<g id="node10" class="node">
<title>Node10</title>
<g id="a_node10"><a xlink:href="js__v8__base_8h.html" target="_top" xlink:title=" ">
<polygon fill="white" stroke="black" points="931,-302.5 931,-332.5 1045,-332.5 1045,-302.5 931,-302.5"/>
<text text-anchor="start" x="939" y="-320.5" font-family="Helvetica,sans-Serif" font-size="10.00">src/apps/js_v8/js_v8</text>
<text text-anchor="middle" x="988" y="-309.5" font-family="Helvetica,sans-Serif" font-size="10.00">_base.h</text>
</a>
</g>
</g>
<!-- Node2&#45;&gt;Node10 -->
<g id="edge10" class="edge">
<title>Node2&#45;&gt;Node10</title>
<path fill="none" stroke="midnightblue" d="M746.28,-372.68C797.11,-361.29 877.08,-343.36 930.98,-331.28"/>
<polygon fill="midnightblue" stroke="midnightblue" points="745.2,-369.33 736.21,-374.94 746.73,-376.16 745.2,-369.33"/>
</g>
<!-- Node11 -->
<g id="node11" class="node">
<title>Node11</title>
<g id="a_node11"><a xlink:href="tpcc_8cpp.html" target="_top" xlink:title=" ">
<polygon fill="white" stroke="black" points="434.5,-308 434.5,-327 579.5,-327 579.5,-308 434.5,-308"/>
<text text-anchor="middle" x="507" y="-315" font-family="Helvetica,sans-Serif" font-size="10.00">src/apps/tpcc/app/tpcc.cpp</text>
</a>
</g>
</g>
<!-- Node2&#45;&gt;Node11 -->
<g id="edge12" class="edge">
<title>Node2&#45;&gt;Node11</title>
<path fill="none" stroke="midnightblue" d="M663.04,-371.6C625.17,-358.71 565.69,-338.47 532.16,-327.06"/>
<polygon fill="midnightblue" stroke="midnightblue" points="662.04,-374.96 672.64,-374.87 664.3,-368.33 662.04,-374.96"/>
</g>
<!-- Node12 -->
<g id="node12" class="node">
<title>Node12</title>
<g id="a_node12"><a xlink:href="enclave_2enclave_8h.html" target="_top" xlink:title=" ">
<polygon fill="white" stroke="black" points="1536,-56.5 1536,-75.5 1658,-75.5 1658,-56.5 1536,-56.5"/>
<text text-anchor="middle" x="1597" y="-63.5" font-family="Helvetica,sans-Serif" font-size="10.00">src/enclave/enclave.h</text>
</a>
</g>
</g>
<!-- Node2&#45;&gt;Node12 -->
<g id="edge13" class="edge">
<title>Node2&#45;&gt;Node12</title>
<path fill="none" stroke="midnightblue" d="M782.44,-382.22C874.98,-379.02 1015.45,-368.3 1054,-333 1081.43,-307.88 1073,-288.69 1073,-251.5 1073,-251.5 1073,-251.5 1073,-182.5 1073,-88.65 1397.64,-70.98 1535.87,-67.71"/>
<polygon fill="midnightblue" stroke="midnightblue" points="782.13,-378.73 772.25,-382.55 782.35,-385.73 782.13,-378.73"/>
</g>
<!-- Node14 -->
<g id="node14" class="node">
<title>Node14</title>
<g id="a_node14"><a xlink:href="no__plugins_8cpp.html" target="_top" xlink:title=" ">
<polygon fill="white" stroke="black" points="1101,-308 1101,-327 1219,-327 1219,-308 1101,-308"/>
<text text-anchor="middle" x="1160" y="-315" font-family="Helvetica,sans-Serif" font-size="10.00">src/js/no_plugins.cpp</text>
</a>
</g>
</g>
<!-- Node2&#45;&gt;Node14 -->
<g id="edge15" class="edge">
<title>Node2&#45;&gt;Node14</title>
<path fill="none" stroke="midnightblue" d="M782.44,-374.19C861.4,-365.1 982.49,-350.14 1087,-333 1097.58,-331.26 1108.98,-329.13 1119.54,-327.04"/>
<polygon fill="midnightblue" stroke="midnightblue" points="781.6,-370.76 772.07,-375.38 782.4,-377.72 781.6,-370.76"/>
</g>
<!-- Node16 -->
<g id="node16" class="node">
<title>Node16</title>
<g id="a_node16"><a xlink:href="user__frontend_8h.html" target="_top" xlink:title=" ">
<polygon fill="white" stroke="black" points="1237.5,-308 1237.5,-327 1392.5,-327 1392.5,-308 1237.5,-308"/>
<text text-anchor="middle" x="1315" y="-315" font-family="Helvetica,sans-Serif" font-size="10.00">src/node/rpc/user_frontend.h</text>
</a>
</g>
</g>
<!-- Node2&#45;&gt;Node16 -->
<g id="edge17" class="edge">
<title>Node2&#45;&gt;Node16</title>
<path fill="none" stroke="midnightblue" d="M782.56,-377.28C887.33,-369.16 1071.23,-353.51 1228,-333 1240.91,-331.31 1254.83,-329.15 1267.68,-327.01"/>
<polygon fill="midnightblue" stroke="midnightblue" points="782.06,-373.81 772.36,-378.07 782.6,-380.79 782.06,-373.81"/>
</g>
<!-- Node7&#45;&gt;Node5 -->
<g id="edge7" class="edge">
<title>Node7&#45;&gt;Node5</title>
<path fill="none" stroke="midnightblue" d="M205.62,-293.87C211.7,-284.46 218.57,-273.83 223.9,-265.58"/>
<polygon fill="midnightblue" stroke="midnightblue" points="202.6,-292.1 200.11,-302.4 208.48,-295.9 202.6,-292.1"/>
</g>
<!-- Node10&#45;&gt;Node8 -->
<g id="edge11" class="edge">
<title>Node10&#45;&gt;Node8</title>
<path fill="none" stroke="midnightblue" d="M935.82,-299.11C897.89,-286.46 848.18,-269.89 818.52,-260.01"/>
<polygon fill="midnightblue" stroke="midnightblue" points="935.09,-302.55 945.69,-302.4 937.31,-295.91 935.09,-302.55"/>
</g>
<!-- Node13 -->
<g id="node13" class="node">
<title>Node13</title>
<g id="a_node13"><a xlink:href="enclave_2main_8cpp.html" target="_top" xlink:title=" ">
<polygon fill="white" stroke="black" points="1537,-0.5 1537,-19.5 1657,-19.5 1657,-0.5 1537,-0.5"/>
<text text-anchor="middle" x="1597" y="-7.5" font-family="Helvetica,sans-Serif" font-size="10.00">src/enclave/main.cpp</text>
</a>
</g>
</g>
<!-- Node12&#45;&gt;Node13 -->
<g id="edge14" class="edge">
<title>Node12&#45;&gt;Node13</title>
<path fill="none" stroke="midnightblue" d="M1597,-45.8C1597,-36.91 1597,-26.78 1597,-19.75"/>
<polygon fill="midnightblue" stroke="midnightblue" points="1593.5,-46.08 1597,-56.08 1600.5,-46.08 1593.5,-46.08"/>
</g>
<!-- Node15 -->
<g id="node15" class="node">
<title>Node15</title>
<g id="a_node15"><a xlink:href="wrap_8cpp.html" target="_top" xlink:title=" ">
<polygon fill="white" stroke="black" points="1115.5,-241 1115.5,-260 1204.5,-260 1204.5,-241 1115.5,-241"/>
<text text-anchor="middle" x="1160" y="-248" font-family="Helvetica,sans-Serif" font-size="10.00">src/js/wrap.cpp</text>
</a>
</g>
</g>
<!-- Node14&#45;&gt;Node15 -->
<g id="edge16" class="edge">
<title>Node14&#45;&gt;Node15</title>
<path fill="none" stroke="midnightblue" d="M1160,-297.54C1160,-285.17 1160,-269.62 1160,-260.13"/>
<polygon fill="midnightblue" stroke="midnightblue" points="1156.5,-297.73 1160,-307.73 1163.5,-297.73 1156.5,-297.73"/>
</g>
<!-- Node16&#45;&gt;Node12 -->
<g id="edge18" class="edge">
<title>Node16&#45;&gt;Node12</title>
<path fill="none" stroke="midnightblue" d="M1317.78,-297.84C1324.84,-257.39 1347.31,-161.29 1407,-112 1442.94,-82.32 1495.08,-71.54 1535.66,-67.92"/>
<polygon fill="midnightblue" stroke="midnightblue" points="1314.3,-297.46 1316.15,-307.89 1321.21,-298.58 1314.3,-297.46"/>
</g>
<!-- Node17&#45;&gt;Node12 -->
<g id="edge20" class="edge">
<title>Node17&#45;&gt;Node12</title>
<path fill="none" stroke="midnightblue" d="M1580.51,-606.02C1590.29,-583.68 1605,-544.15 1605,-508.5 1605,-508.5 1605,-508.5 1605,-445 1605,-358.93 1597,-337.57 1597,-251.5 1597,-251.5 1597,-251.5 1597,-182.5 1597,-142.6 1597,-94.94 1597,-75.69"/>
<polygon fill="midnightblue" stroke="midnightblue" points="1577.26,-604.71 1576.31,-615.26 1583.64,-607.6 1577.26,-604.71"/>
</g>
<!-- Node18 -->
<g id="node18" class="node">
<title>Node18</title>
<g id="a_node18"><a xlink:href="http__endpoint_8h.html" target="_top" xlink:title=" ">
<polygon fill="white" stroke="black" points="1649.5,-559.5 1649.5,-578.5 1782.5,-578.5 1782.5,-559.5 1649.5,-559.5"/>
<text text-anchor="middle" x="1716" y="-566.5" font-family="Helvetica,sans-Serif" font-size="10.00">src/http/http_endpoint.h</text>
</a>
</g>
</g>
<!-- Node17&#45;&gt;Node18 -->
<g id="edge21" class="edge">
<title>Node17&#45;&gt;Node18</title>
<path fill="none" stroke="midnightblue" d="M1604.25,-611.91C1631.32,-601.75 1669.32,-587.51 1693.29,-578.52"/>
<polygon fill="midnightblue" stroke="midnightblue" points="1602.95,-608.66 1594.82,-615.44 1605.41,-615.21 1602.95,-608.66"/>
</g>
<!-- Node33 -->
<g id="node33" class="node">
<title>Node33</title>
<g id="a_node33"><a xlink:href="forwarder_8h.html" target="_top" xlink:title=" ">
<polygon fill="white" stroke="black" points="1443,-436.5 1443,-455.5 1577,-455.5 1577,-436.5 1443,-436.5"/>
<text text-anchor="middle" x="1510" y="-443.5" font-family="Helvetica,sans-Serif" font-size="10.00">src/node/rpc/forwarder.h</text>
</a>
</g>
</g>
<!-- Node17&#45;&gt;Node33 -->
<g id="edge47" class="edge">
<title>Node17&#45;&gt;Node33</title>
<path fill="none" stroke="midnightblue" d="M1565.64,-605.84C1552.5,-568.32 1522.78,-483.48 1513.11,-455.87"/>
<polygon fill="midnightblue" stroke="midnightblue" points="1562.4,-607.18 1569.01,-615.46 1569.01,-604.87 1562.4,-607.18"/>
</g>
<!-- Node19 -->
<g id="node19" class="node">
<title>Node19</title>
<g id="a_node19"><a xlink:href="rpc__sessions_8h.html" target="_top" xlink:title=" ">
<polygon fill="white" stroke="black" points="1943,-498 1943,-517 2089,-517 2089,-498 1943,-498"/>
<text text-anchor="middle" x="2016" y="-505" font-family="Helvetica,sans-Serif" font-size="10.00">src/enclave/rpc_sessions.h</text>
</a>
</g>
</g>
<!-- Node18&#45;&gt;Node19 -->
<g id="edge22" class="edge">
<title>Node18&#45;&gt;Node19</title>
<path fill="none" stroke="midnightblue" d="M1769.07,-557.47C1827.21,-545.94 1919.34,-527.67 1973.1,-517.01"/>
<polygon fill="midnightblue" stroke="midnightblue" points="1768.11,-554.1 1758.98,-559.48 1769.47,-560.96 1768.11,-554.1"/>
</g>
<!-- Node31 -->
<g id="node31" class="node">
<title>Node31</title>
<g id="a_node31"><a xlink:href="acme__challenge__server_8h.html" target="_top" xlink:title=" ">
<polygon fill="white" stroke="black" points="1647.5,-492.5 1647.5,-522.5 1784.5,-522.5 1784.5,-492.5 1647.5,-492.5"/>
<text text-anchor="start" x="1655.5" y="-510.5" font-family="Helvetica,sans-Serif" font-size="10.00">src/host/acme_challenge</text>
<text text-anchor="middle" x="1716" y="-499.5" font-family="Helvetica,sans-Serif" font-size="10.00">_server.h</text>
</a>
</g>
</g>
<!-- Node18&#45;&gt;Node31 -->
<g id="edge45" class="edge">
<title>Node18&#45;&gt;Node31</title>
<path fill="none" stroke="midnightblue" d="M1716,-549.23C1716,-540.59 1716,-530.5 1716,-522.52"/>
<polygon fill="midnightblue" stroke="midnightblue" points="1712.5,-549.48 1716,-559.48 1719.5,-549.48 1712.5,-549.48"/>
</g>
<!-- Node19&#45;&gt;Node12 -->
<g id="edge23" class="edge">
<title>Node19&#45;&gt;Node12</title>
<path fill="none" stroke="midnightblue" d="M2099.34,-504.6C2248.8,-498.91 2547,-476.19 2547,-385.5 2547,-385.5 2547,-385.5 2547,-182.5 2547,-92.63 1868.33,-72.17 1658.24,-67.99"/>
<polygon fill="midnightblue" stroke="midnightblue" points="2099.14,-501.1 2089.28,-504.96 2099.4,-508.1 2099.14,-501.1"/>
</g>
<!-- Node20 -->
<g id="node20" class="node">
<title>Node20</title>
<g id="a_node20"><a xlink:href="ccf__acme__client_8h.html" target="_top" xlink:title=" ">
<polygon fill="white" stroke="black" points="1700.5,-241 1700.5,-260 1849.5,-260 1849.5,-241 1700.5,-241"/>
<text text-anchor="middle" x="1775" y="-248" font-family="Helvetica,sans-Serif" font-size="10.00">src/node/ccf_acme_client.h</text>
</a>
</g>
</g>
<!-- Node19&#45;&gt;Node20 -->
<g id="edge24" class="edge">
<title>Node19&#45;&gt;Node20</title>
<path fill="none" stroke="midnightblue" d="M1976.86,-494.48C1954.4,-486.21 1926.65,-473.53 1906,-456 1836.24,-396.79 1790.62,-291.02 1778.34,-260.17"/>
<polygon fill="midnightblue" stroke="midnightblue" points="1975.85,-497.84 1986.45,-497.87 1978.18,-491.24 1975.85,-497.84"/>
</g>
<!-- Node21 -->
<g id="node21" class="node">
<title>Node21</title>
<g id="a_node21"><a xlink:href="node__state_8h.html" target="_top" xlink:title=" ">
<polygon fill="white" stroke="black" points="1868,-174 1868,-193 1992,-193 1992,-174 1868,-174"/>
<text text-anchor="middle" x="1930" y="-181" font-family="Helvetica,sans-Serif" font-size="10.00">src/node/node_state.h</text>
</a>
</g>
</g>
<!-- Node19&#45;&gt;Node21 -->
<g id="edge42" class="edge">
<title>Node19&#45;&gt;Node21</title>
<path fill="none" stroke="midnightblue" d="M2026.55,-488.89C2039.28,-465.94 2059,-424.15 2059,-385.5 2059,-385.5 2059,-385.5 2059,-316.5 2059,-276.53 2048.25,-264.24 2021,-235 2002.52,-215.17 1974.46,-201.24 1954.38,-193.11"/>
<polygon fill="midnightblue" stroke="midnightblue" points="2023.4,-487.36 2021.45,-497.77 2029.46,-490.85 2023.4,-487.36"/>
</g>
<!-- Node23 -->
<g id="node23" class="node">
<title>Node23</title>
<g id="a_node23"><a xlink:href="node__client_8h.html" target="_top" xlink:title=" ">
<polygon fill="white" stroke="black" points="2217,-436.5 2217,-455.5 2343,-455.5 2343,-436.5 2217,-436.5"/>
<text text-anchor="middle" x="2280" y="-443.5" font-family="Helvetica,sans-Serif" font-size="10.00">src/node/node_client.h</text>
</a>
</g>
</g>
<!-- Node19&#45;&gt;Node23 -->
<g id="edge29" class="edge">
<title>Node19&#45;&gt;Node23</title>
<path fill="none" stroke="midnightblue" d="M2063.66,-495.76C2114.87,-484.22 2195.23,-466.11 2242.25,-455.51"/>
<polygon fill="midnightblue" stroke="midnightblue" points="2062.81,-492.36 2053.82,-497.98 2064.35,-499.19 2062.81,-492.36"/>
</g>
<!-- Node30 -->
<g id="node30" class="node">
<title>Node30</title>
<g id="a_node30"><a xlink:href="resharing_8h.html" target="_top" xlink:title=" ">
<polygon fill="white" stroke="black" points="1915,-436.5 1915,-455.5 2031,-455.5 2031,-436.5 1915,-436.5"/>
<text text-anchor="middle" x="1973" y="-443.5" font-family="Helvetica,sans-Serif" font-size="10.00">src/node/resharing.h</text>
</a>
</g>
</g>
<!-- Node19&#45;&gt;Node30 -->
<g id="edge43" class="edge">
<title>Node19&#45;&gt;Node30</title>
<path fill="none" stroke="midnightblue" d="M2003.96,-489.84C1995.89,-478.67 1985.59,-464.43 1979.15,-455.51"/>
<polygon fill="midnightblue" stroke="midnightblue" points="2001.14,-491.92 2009.84,-497.98 2006.82,-487.82 2001.14,-491.92"/>
</g>
<!-- Node20&#45;&gt;Node21 -->
<g id="edge25" class="edge">
<title>Node20&#45;&gt;Node21</title>
<path fill="none" stroke="midnightblue" d="M1804.93,-236.95C1835.62,-224.08 1882.54,-204.4 1909.33,-193.17"/>
<polygon fill="midnightblue" stroke="midnightblue" points="1803.45,-233.77 1795.58,-240.87 1806.16,-240.23 1803.45,-233.77"/>
</g>
<!-- Node21&#45;&gt;Node12 -->
<g id="edge26" class="edge">
<title>Node21&#45;&gt;Node12</title>
<path fill="none" stroke="midnightblue" d="M1920,-165.17C1909.51,-148.68 1891.43,-124.57 1869,-112 1833.82,-92.29 1727.11,-79.03 1658.28,-72.27"/>
<polygon fill="midnightblue" stroke="midnightblue" points="1917.09,-167.13 1925.28,-173.86 1923.08,-163.49 1917.09,-167.13"/>
</g>
<!-- Node22 -->
<g id="node22" class="node">
<title>Node22</title>
<g id="a_node22"><a xlink:href="gov__effects_8h.html" target="_top" xlink:title=" ">
<polygon fill="white" stroke="black" points="1716,-112.5 1716,-131.5 1860,-131.5 1860,-112.5 1716,-112.5"/>
<text text-anchor="middle" x="1788" y="-119.5" font-family="Helvetica,sans-Serif" font-size="10.00">src/node/rpc/gov_effects.h</text>
</a>
</g>
</g>
<!-- Node21&#45;&gt;Node22 -->
<g id="edge27" class="edge">
<title>Node21&#45;&gt;Node22</title>
<path fill="none" stroke="midnightblue" d="M1900.12,-169.98C1872.54,-158.42 1832.33,-141.58 1808.31,-131.51"/>
<polygon fill="midnightblue" stroke="midnightblue" points="1899.08,-173.34 1909.65,-173.98 1901.78,-166.88 1899.08,-173.34"/>
</g>
<!-- Node22&#45;&gt;Node12 -->
<g id="edge28" class="edge">
<title>Node22&#45;&gt;Node12</title>
<path fill="none" stroke="midnightblue" d="M1748.03,-109.7C1711.98,-99.51 1659.76,-84.74 1627.12,-75.52"/>
<polygon fill="midnightblue" stroke="midnightblue" points="1747.16,-113.09 1757.74,-112.44 1749.06,-106.35 1747.16,-113.09"/>
</g>
<!-- Node24 -->
<g id="node24" class="node">
<title>Node24</title>
<g id="a_node24"><a xlink:href="orc__requests_8h.html" target="_top" xlink:title=" ">
<polygon fill="white" stroke="black" points="2087.5,-369.5 2087.5,-399.5 2206.5,-399.5 2206.5,-369.5 2087.5,-369.5"/>
<text text-anchor="start" x="2095.5" y="-387.5" font-family="Helvetica,sans-Serif" font-size="10.00">src/consensus/aft/orc</text>
<text text-anchor="middle" x="2147" y="-376.5" font-family="Helvetica,sans-Serif" font-size="10.00">_requests.h</text>
</a>
</g>
</g>
<!-- Node23&#45;&gt;Node24 -->
<g id="edge30" class="edge">
<title>Node23&#45;&gt;Node24</title>
<path fill="none" stroke="midnightblue" d="M2251.68,-432.33C2230.16,-422.7 2200.58,-409.47 2178.35,-399.52"/>
<polygon fill="midnightblue" stroke="midnightblue" points="2250.39,-435.59 2260.94,-436.48 2253.25,-429.2 2250.39,-435.59"/>
</g>
<!-- Node25 -->
<g id="node25" class="node">
<title>Node25</title>
<g id="a_node25"><a xlink:href="raft_8h.html" target="_top" xlink:title=" ">
<polygon fill="white" stroke="black" points="2255.5,-308 2255.5,-327 2384.5,-327 2384.5,-308 2255.5,-308"/>
<text text-anchor="middle" x="2320" y="-315" font-family="Helvetica,sans-Serif" font-size="10.00">src/consensus/aft/raft.h</text>
</a>
</g>
</g>
<!-- Node23&#45;&gt;Node25 -->
<g id="edge37" class="edge">
<title>Node23&#45;&gt;Node25</title>
<path fill="none" stroke="midnightblue" d="M2310.55,-431.56C2323.33,-424.22 2336.85,-413.77 2344,-400 2356.78,-375.39 2337.85,-342.97 2326.89,-327.49"/>
<polygon fill="midnightblue" stroke="midnightblue" points="2308.68,-428.59 2301.48,-436.36 2311.96,-434.77 2308.68,-428.59"/>
</g>
<!-- Node28 -->
<g id="node28" class="node">
<title>Node28</title>
<g id="a_node28"><a xlink:href="http__node__client_8h.html" target="_top" xlink:title=" ">
<polygon fill="white" stroke="black" points="2225,-369.5 2225,-399.5 2335,-399.5 2335,-369.5 2225,-369.5"/>
<text text-anchor="start" x="2233" y="-387.5" font-family="Helvetica,sans-Serif" font-size="10.00">src/node/http_node</text>
<text text-anchor="middle" x="2280" y="-376.5" font-family="Helvetica,sans-Serif" font-size="10.00">_client.h</text>
</a>
</g>
</g>
<!-- Node23&#45;&gt;Node28 -->
<g id="edge38" class="edge">
<title>Node23&#45;&gt;Node28</title>
<path fill="none" stroke="midnightblue" d="M2280,-426.23C2280,-417.59 2280,-407.5 2280,-399.52"/>
<polygon fill="midnightblue" stroke="midnightblue" points="2276.5,-426.48 2280,-436.48 2283.5,-426.48 2276.5,-426.48"/>
</g>
<!-- Node29 -->
<g id="node29" class="node">
<title>Node29</title>
<g id="a_node29"><a xlink:href="retired__nodes__cleanup_8h.html" target="_top" xlink:title=" ">
<polygon fill="white" stroke="black" points="2391,-369.5 2391,-399.5 2519,-399.5 2519,-369.5 2391,-369.5"/>
<text text-anchor="start" x="2399" y="-387.5" font-family="Helvetica,sans-Serif" font-size="10.00">src/node/retired_nodes</text>
<text text-anchor="middle" x="2455" y="-376.5" font-family="Helvetica,sans-Serif" font-size="10.00">_cleanup.h</text>
</a>
</g>
</g>
<!-- Node23&#45;&gt;Node29 -->
<g id="edge40" class="edge">
<title>Node23&#45;&gt;Node29</title>
<path fill="none" stroke="midnightblue" d="M2314.62,-433.23C2343.11,-423.54 2383.58,-409.78 2413.76,-399.52"/>
<polygon fill="midnightblue" stroke="midnightblue" points="2313.41,-429.94 2305.07,-436.48 2315.67,-436.57 2313.41,-429.94"/>
</g>
<!-- Node24&#45;&gt;Node25 -->
<g id="edge31" class="edge">
<title>Node24&#45;&gt;Node25</title>
<path fill="none" stroke="midnightblue" d="M2194.15,-365.78C2227.7,-353.18 2271.27,-336.81 2297.36,-327.01"/>
<polygon fill="midnightblue" stroke="midnightblue" points="2192.67,-362.6 2184.54,-369.4 2195.13,-369.16 2192.67,-362.6"/>
</g>
<!-- Node26 -->
<g id="node26" class="node">
<title>Node26</title>
<g id="a_node26"><a xlink:href="node__frontend_8h.html" target="_top" xlink:title=" ">
<polygon fill="white" stroke="black" points="1832,-308 1832,-327 1990,-327 1990,-308 1832,-308"/>
<text text-anchor="middle" x="1911" y="-315" font-family="Helvetica,sans-Serif" font-size="10.00">src/node/rpc/node_frontend.h</text>
</a>
</g>
</g>
<!-- Node24&#45;&gt;Node26 -->
<g id="edge33" class="edge">
<title>Node24&#45;&gt;Node26</title>
<path fill="none" stroke="midnightblue" d="M2086.19,-366.75C2040.03,-354.04 1978.48,-337.09 1941.97,-327.03"/>
<polygon fill="midnightblue" stroke="midnightblue" points="2085.51,-370.19 2096.08,-369.48 2087.37,-363.45 2085.51,-370.19"/>
</g>
<!-- Node25&#45;&gt;Node21 -->
<g id="edge32" class="edge">
<title>Node25&#45;&gt;Node21</title>
<path fill="none" stroke="midnightblue" d="M2296.68,-302.75C2265.4,-284.84 2207.69,-253.62 2155,-235 2098.38,-214.99 2030.87,-201.09 1984.66,-193.01"/>
<polygon fill="midnightblue" stroke="midnightblue" points="2295.09,-305.88 2305.5,-307.86 2298.6,-299.82 2295.09,-305.88"/>
</g>
<!-- Node26&#45;&gt;Node12 -->
<g id="edge34" class="edge">
<title>Node26&#45;&gt;Node12</title>
<path fill="none" stroke="midnightblue" d="M1821.82,-313.65C1778.66,-308.15 1728.43,-295.22 1692,-266 1659,-239.53 1612.18,-110.46 1599.99,-75.66"/>
<polygon fill="midnightblue" stroke="midnightblue" points="1821.44,-317.12 1831.77,-314.8 1822.24,-310.17 1821.44,-317.12"/>
</g>
<!-- Node27 -->
<g id="node27" class="node">
<title>Node27</title>
<g id="a_node27"><a xlink:href="jwt__key__auto__refresh_8h.html" target="_top" xlink:title=" ">
<polygon fill="white" stroke="black" points="1867.5,-235.5 1867.5,-265.5 1992.5,-265.5 1992.5,-235.5 1867.5,-235.5"/>
<text text-anchor="start" x="1875.5" y="-253.5" font-family="Helvetica,sans-Serif" font-size="10.00">src/node/jwt_key_auto</text>
<text text-anchor="middle" x="1930" y="-242.5" font-family="Helvetica,sans-Serif" font-size="10.00">_refresh.h</text>
</a>
</g>
</g>
<!-- Node26&#45;&gt;Node27 -->
<g id="edge35" class="edge">
<title>Node26&#45;&gt;Node27</title>
<path fill="none" stroke="midnightblue" d="M1916.39,-298.06C1919.4,-287.75 1923.1,-275.1 1925.88,-265.59"/>
<polygon fill="midnightblue" stroke="midnightblue" points="1913.01,-297.15 1913.56,-307.73 1919.73,-299.12 1913.01,-297.15"/>
</g>
<!-- Node27&#45;&gt;Node21 -->
<g id="edge36" class="edge">
<title>Node27&#45;&gt;Node21</title>
<path fill="none" stroke="midnightblue" d="M1930,-225.25C1930,-214.02 1930,-201.38 1930,-193.19"/>
<polygon fill="midnightblue" stroke="midnightblue" points="1926.5,-225.4 1930,-235.4 1933.5,-225.4 1926.5,-225.4"/>
</g>
<!-- Node28&#45;&gt;Node21 -->
<g id="edge39" class="edge">
<title>Node28&#45;&gt;Node21</title>
<path fill="none" stroke="midnightblue" d="M2256.13,-362.89C2219.06,-331.73 2144.45,-272.28 2073,-235 2036.82,-216.12 1992.03,-201.59 1962.32,-193.06"/>
<polygon fill="midnightblue" stroke="midnightblue" points="2253.99,-365.67 2263.88,-369.46 2258.52,-360.33 2253.99,-365.67"/>
</g>
<!-- Node29&#45;&gt;Node25 -->
<g id="edge41" class="edge">
<title>Node29&#45;&gt;Node25</title>
<path fill="none" stroke="midnightblue" d="M2416.51,-364.97C2390.58,-352.48 2357.59,-336.6 2337.67,-327.01"/>
<polygon fill="midnightblue" stroke="midnightblue" points="2415.18,-368.21 2425.71,-369.4 2418.22,-361.9 2415.18,-368.21"/>
</g>
<!-- Node30&#45;&gt;Node21 -->
<g id="edge44" class="edge">
<title>Node30&#45;&gt;Node21</title>
<path fill="none" stroke="midnightblue" d="M1982.12,-427.18C2000.09,-389.41 2035.53,-299.47 2002,-235 1991.5,-214.82 1968.83,-201.02 1951.72,-193.01"/>
<polygon fill="midnightblue" stroke="midnightblue" points="1978.87,-425.87 1977.59,-436.39 1985.15,-428.96 1978.87,-425.87"/>
</g>
<!-- Node32 -->
<g id="node32" class="node">
<title>Node32</title>
<g id="a_node32"><a xlink:href="host_2main_8cpp.html" target="_top" xlink:title=" ">
<polygon fill="white" stroke="black" points="1664.5,-436.5 1664.5,-455.5 1767.5,-455.5 1767.5,-436.5 1664.5,-436.5"/>
<text text-anchor="middle" x="1716" y="-443.5" font-family="Helvetica,sans-Serif" font-size="10.00">src/host/main.cpp</text>
</a>
</g>
</g>
<!-- Node31&#45;&gt;Node32 -->
<g id="edge46" class="edge">
<title>Node31&#45;&gt;Node32</title>
<path fill="none" stroke="midnightblue" d="M1716,-482.29C1716,-472.86 1716,-462.65 1716,-455.66"/>
<polygon fill="midnightblue" stroke="midnightblue" points="1712.5,-482.4 1716,-492.4 1719.5,-482.4 1712.5,-482.4"/>
</g>
<!-- Node33&#45;&gt;Node12 -->
<g id="edge48" class="edge">
<title>Node33&#45;&gt;Node12</title>
<path fill="none" stroke="midnightblue" d="M1477.51,-432.12C1463.37,-424.83 1448.01,-414.27 1439,-400 1403.5,-343.79 1421,-317.98 1421,-251.5 1421,-251.5 1421,-251.5 1421,-182.5 1421,-119.27 1501.38,-88.75 1553.49,-75.61"/>
<polygon fill="midnightblue" stroke="midnightblue" points="1476.01,-435.29 1486.54,-436.45 1479.03,-428.97 1476.01,-435.29"/>
</g>
<!-- Node34 -->
<g id="node34" class="node">
<title>Node34</title>
<g id="a_node34"><a xlink:href="frontend_8h.html" target="_top" xlink:title=" ">
<polygon fill="white" stroke="black" points="1447.5,-375 1447.5,-394 1576.5,-394 1576.5,-375 1447.5,-375"/>
<text text-anchor="middle" x="1512" y="-382" font-family="Helvetica,sans-Serif" font-size="10.00">src/node/rpc/frontend.h</text>
</a>
</g>
</g>
<!-- Node33&#45;&gt;Node34 -->
<g id="edge49" class="edge">
<title>Node33&#45;&gt;Node34</title>
<path fill="none" stroke="midnightblue" d="M1510.63,-426.32C1510.99,-415.5 1511.43,-402.4 1511.71,-394.01"/>
<polygon fill="midnightblue" stroke="midnightblue" points="1507.12,-426.36 1510.29,-436.48 1514.12,-426.6 1507.12,-426.36"/>
</g>
<!-- Node34&#45;&gt;Node16 -->
<g id="edge54" class="edge">
<title>Node34&#45;&gt;Node16</title>
<path fill="none" stroke="midnightblue" d="M1475.94,-371.6C1436.88,-358.71 1375.53,-338.47 1340.95,-327.06"/>
<polygon fill="midnightblue" stroke="midnightblue" points="1475.25,-375.06 1485.84,-374.87 1477.44,-368.41 1475.25,-375.06"/>
</g>
<!-- Node34&#45;&gt;Node21 -->
<g id="edge50" class="edge">
<title>Node34&#45;&gt;Node21</title>
<path fill="none" stroke="midnightblue" d="M1526.6,-367.05C1555.12,-336.03 1621.62,-268.95 1692,-235 1748.02,-207.98 1818.34,-195.33 1867.97,-189.47"/>
<polygon fill="midnightblue" stroke="midnightblue" points="1523.71,-365.03 1519.59,-374.79 1528.9,-369.73 1523.71,-365.03"/>
</g>
<!-- Node34&#45;&gt;Node26 -->
<g id="edge53" class="edge">
<title>Node34&#45;&gt;Node26</title>
<path fill="none" stroke="midnightblue" d="M1574.78,-373.27C1653.08,-360.52 1785.53,-338.94 1858.63,-327.03"/>
<polygon fill="midnightblue" stroke="midnightblue" points="1573.88,-369.87 1564.57,-374.94 1575.01,-376.78 1573.88,-369.87"/>
</g>
<!-- Node35 -->
<g id="node35" class="node">
<title>Node35</title>
<g id="a_node35"><a xlink:href="member__frontend_8h.html" target="_top" xlink:title=" ">
<polygon fill="white" stroke="black" points="1449,-168.5 1449,-198.5 1569,-198.5 1569,-168.5 1449,-168.5"/>
<text text-anchor="start" x="1457" y="-186.5" font-family="Helvetica,sans-Serif" font-size="10.00">src/node/rpc/member</text>
<text text-anchor="middle" x="1509" y="-175.5" font-family="Helvetica,sans-Serif" font-size="10.00">_frontend.h</text>
</a>
</g>
</g>
<!-- Node34&#45;&gt;Node35 -->
<g id="edge51" class="edge">
<title>Node34&#45;&gt;Node35</title>
<path fill="none" stroke="midnightblue" d="M1511.72,-364.86C1511.12,-325.28 1509.74,-233.64 1509.21,-198.53"/>
<polygon fill="midnightblue" stroke="midnightblue" points="1508.22,-365 1511.87,-374.95 1515.22,-364.9 1508.22,-365"/>
</g>
<!-- Node35&#45;&gt;Node12 -->
<g id="edge52" class="edge">
<title>Node35&#45;&gt;Node12</title>
<path fill="none" stroke="midnightblue" d="M1525.95,-160.26C1545.54,-134.54 1576.85,-93.45 1590.39,-75.67"/>
<polygon fill="midnightblue" stroke="midnightblue" points="1523.07,-158.26 1519.79,-168.34 1528.64,-162.5 1523.07,-158.26"/>
</g>
</g>
</svg>
