<?xml version="1.0" encoding="UTF-8" standalone="no"?>
<!DOCTYPE svg PUBLIC "-//W3C//DTD SVG 1.1//EN"
 "http://www.w3.org/Graphics/SVG/1.1/DTD/svg11.dtd">
<!-- Generated by graphviz version 2.43.0 (0)
 -->
<!-- Title: ACMEServerBehaviour Pages: 1 -->
<svg width="717pt" height="214pt"
 viewBox="0.00 0.00 717.00 214.00" xmlns="http://www.w3.org/2000/svg" xmlns:xlink="http://www.w3.org/1999/xlink">
<g id="graph0" class="graph" transform="scale(1 1) rotate(0) translate(4 210)">
<title>ACMEServerBehaviour</title>
<polygon fill="white" stroke="transparent" points="-4,4 -4,-210 713,-210 713,4 -4,4"/>
<!-- Node1 -->
<g id="node1" class="node">
<title>Node1</title>
<g id="a_node1"><a xlink:title=" ">
<polygon fill="#bfbfbf" stroke="black" points="583,-99 583,-118 709,-118 709,-99 583,-99"/>
<text text-anchor="middle" x="646" y="-106" font-family="Helvetica,sans-Serif" font-size="10.00">ACMEServerBehaviour</text>
</a>
</g>
</g>
<!-- Node2 -->
<g id="node2" class="node">
<title>Node2</title>
<g id="a_node2"><a xlink:href="classasynchost_1_1SocketBehaviour.html" target="_top" xlink:title=" ">
<polygon fill="white" stroke="black" points="291,-175.5 291,-205.5 445,-205.5 445,-175.5 291,-175.5"/>
<text text-anchor="start" x="299" y="-193.5" font-family="Helvetica,sans-Serif" font-size="10.00">asynchost::SocketBehaviour</text>
<text text-anchor="middle" x="368" y="-182.5" font-family="Helvetica,sans-Serif" font-size="10.00">&lt; asynchost::TCP &gt;</text>
</a>
</g>
</g>
<!-- Node2&#45;&gt;Node1 -->
<g id="edge1" class="edge">
<title>Node2&#45;&gt;Node1</title>
<path fill="none" stroke="midnightblue" d="M455.45,-178.99C490.13,-172.91 530.08,-164.04 565,-151.5 589.04,-142.87 614.69,-127.94 630.29,-118.14"/>
<polygon fill="midnightblue" stroke="midnightblue" points="454.61,-175.58 445.34,-180.71 455.79,-182.48 454.61,-175.58"/>
</g>
<!-- Node3 -->
<g id="node3" class="node">
<title>Node3</title>
<g id="a_node3"><a xlink:href="classACMEConnectionTracker.html" target="_top" xlink:title=" ">
<polygon fill="white" stroke="black" points="301,-137 301,-156 435,-156 435,-137 301,-137"/>
<text text-anchor="middle" x="368" y="-144" font-family="Helvetica,sans-Serif" font-size="10.00">ACMEConnectionTracker</text>
</a>
</g>
</g>
<!-- Node3&#45;&gt;Node1 -->
<g id="edge2" class="edge">
<title>Node3&#45;&gt;Node1</title>
<path fill="none" stroke="#9a32cd" stroke-dasharray="5,2" d="M445.41,-138.76C481.72,-134.77 525.68,-129.49 565,-123.5 575.34,-121.93 586.38,-120.01 596.86,-118.08"/>
<polygon fill="#9a32cd" stroke="#9a32cd" points="444.94,-135.29 435.38,-139.85 445.7,-142.25 444.94,-135.29"/>
<text text-anchor="middle" x="514" y="-139.5" font-family="Helvetica,sans-Serif" font-size="10.00"> tracker</text>
</g>
<!-- Node4 -->
<g id="node4" class="node">
<title>Node4</title>
<g id="a_node4"><a xlink:title=" ">
<polygon fill="white" stroke="black" points="333.5,-99 333.5,-118 402.5,-118 402.5,-99 333.5,-99"/>
<text text-anchor="middle" x="368" y="-106" font-family="Helvetica,sans-Serif" font-size="10.00">std::mutex</text>
</a>
</g>
</g>
<!-- Node4&#45;&gt;Node1 -->
<g id="edge3" class="edge">
<title>Node4&#45;&gt;Node1</title>
<path fill="none" stroke="#9a32cd" stroke-dasharray="5,2" d="M412.78,-108.5C458.66,-108.5 531.13,-108.5 582.9,-108.5"/>
<polygon fill="#9a32cd" stroke="#9a32cd" points="412.57,-105 402.57,-108.5 412.57,-112 412.57,-105"/>
<text text-anchor="middle" x="514" y="-111.5" font-family="Helvetica,sans-Serif" font-size="10.00"> lock</text>
</g>
<!-- Node5 -->
<g id="node5" class="node">
<title>Node5</title>
<g id="a_node5"><a xlink:title=" ">
<polygon fill="white" stroke="black" points="307,-49.5 307,-79.5 429,-79.5 429,-49.5 307,-49.5"/>
<text text-anchor="start" x="315" y="-67.5" font-family="Helvetica,sans-Serif" font-size="10.00">std::map&lt; std::string,</text>
<text text-anchor="middle" x="368" y="-56.5" font-family="Helvetica,sans-Serif" font-size="10.00"> std::string &gt;</text>
</a>
</g>
</g>
<!-- Node5&#45;&gt;Node1 -->
<g id="edge4" class="edge">
<title>Node5&#45;&gt;Node1</title>
<path fill="none" stroke="#9a32cd" stroke-dasharray="5,2" d="M439.42,-74.25C476.79,-79.59 523.45,-86.53 565,-93.5 575.03,-95.18 585.75,-97.1 595.98,-99"/>
<polygon fill="#9a32cd" stroke="#9a32cd" points="439.53,-70.73 429.14,-72.79 438.55,-77.66 439.53,-70.73"/>
<text text-anchor="middle" x="514" y="-96.5" font-family="Helvetica,sans-Serif" font-size="10.00"> prepared_responses</text>
</g>
<!-- Node6 -->
<g id="node6" class="node">
<title>Node6</title>
<g id="a_node6"><a xlink:title=" ">
<polygon fill="white" stroke="black" points="141,-55 141,-74 206,-74 206,-55 141,-55"/>
<text text-anchor="middle" x="173.5" y="-62" font-family="Helvetica,sans-Serif" font-size="10.00">std::string</text>
</a>
</g>
</g>
<!-- Node6&#45;&gt;Node5 -->
<g id="edge5" class="edge">
<title>Node6&#45;&gt;Node5</title>
<path fill="none" stroke="#9a32cd" stroke-dasharray="5,2" d="M216.35,-64.5C242.79,-64.5 277.39,-64.5 306.76,-64.5"/>
<polygon fill="#9a32cd" stroke="#9a32cd" points="216.29,-61 206.29,-64.5 216.29,-68 216.29,-61"/>
<text text-anchor="middle" x="248.5" y="-78.5" font-family="Helvetica,sans-Serif" font-size="10.00"> elements</text>
<text text-anchor="middle" x="248.5" y="-67.5" font-family="Helvetica,sans-Serif" font-size="10.00">keys</text>
</g>
<!-- Node7 -->
<g id="node7" class="node">
<title>Node7</title>
<g id="a_node7"><a xlink:title=" ">
<polygon fill="white" stroke="black" points="0,-49.5 0,-79.5 104,-79.5 104,-49.5 0,-49.5"/>
<text text-anchor="start" x="8" y="-67.5" font-family="Helvetica,sans-Serif" font-size="10.00">std::basic_string&lt;</text>
<text text-anchor="middle" x="52" y="-56.5" font-family="Helvetica,sans-Serif" font-size="10.00"> Char &gt;</text>
</a>
</g>
</g>
<!-- Node7&#45;&gt;Node6 -->
<g id="edge6" class="edge">
<title>Node7&#45;&gt;Node6</title>
<path fill="none" stroke="midnightblue" d="M114.1,-64.5C123.41,-64.5 132.68,-64.5 141,-64.5"/>
<polygon fill="midnightblue" stroke="midnightblue" points="114.03,-61 104.03,-64.5 114.03,-68 114.03,-61"/>
</g>
<!-- Node8 -->
<g id="node8" class="node">
<title>Node8</title>
<g id="a_node8"><a xlink:title=" ">
<polygon fill="white" stroke="black" points="297.5,-0.5 297.5,-30.5 438.5,-30.5 438.5,-0.5 297.5,-0.5"/>
<text text-anchor="start" x="305.5" y="-18.5" font-family="Helvetica,sans-Serif" font-size="10.00">std::shared_ptr&lt; Abstract</text>
<text text-anchor="middle" x="368" y="-7.5" font-family="Helvetica,sans-Serif" font-size="10.00">Writer &gt;</text>
</a>
</g>
</g>
<!-- Node8&#45;&gt;Node1 -->
<g id="edge7" class="edge">
<title>Node8&#45;&gt;Node1</title>
<path fill="none" stroke="#9a32cd" stroke-dasharray="5,2" d="M448.55,-29.18C484.82,-36.77 527.85,-47.72 565,-62.5 589.56,-72.27 615.7,-88.56 631.17,-98.9"/>
<polygon fill="#9a32cd" stroke="#9a32cd" points="449.02,-25.7 438.52,-27.13 447.61,-32.56 449.02,-25.7"/>
<text text-anchor="middle" x="514" y="-65.5" font-family="Helvetica,sans-Serif" font-size="10.00"> to_enclave</text>
</g>
</g>
</svg>
