<?xml version="1.0" encoding="UTF-8" standalone="no"?>
<!DOCTYPE svg PUBLIC "-//W3C//DTD SVG 1.1//EN"
 "http://www.w3.org/Graphics/SVG/1.1/DTD/svg11.dtd">
<!-- Generated by graphviz version 2.43.0 (0)
 -->
<!-- Title: http::ResponseParser Pages: 1 -->
<svg width="294pt" height="309pt"
 viewBox="0.00 0.00 294.00 309.00" xmlns="http://www.w3.org/2000/svg" xmlns:xlink="http://www.w3.org/1999/xlink">
<g id="graph0" class="graph" transform="scale(1 1) rotate(0) translate(4 305)">
<title>http::ResponseParser</title>
<polygon fill="white" stroke="transparent" points="-4,4 -4,-305 290,-305 290,4 -4,4"/>
<!-- Node1 -->
<g id="node1" class="node">
<title>Node1</title>
<g id="a_node1"><a xlink:title=" ">
<polygon fill="#bfbfbf" stroke="black" points="59,-0.5 59,-19.5 178,-19.5 178,-0.5 59,-0.5"/>
<text text-anchor="middle" x="118.5" y="-7.5" font-family="Helvetica,sans-Serif" font-size="10.00">http::ResponseParser</text>
</a>
</g>
</g>
<!-- Node2 -->
<g id="node2" class="node">
<title>Node2</title>
<g id="a_node2"><a xlink:href="classhttp_1_1Parser.html" target="_top" xlink:title=" ">
<polygon fill="white" stroke="black" points="82.5,-57.5 82.5,-76.5 154.5,-76.5 154.5,-57.5 82.5,-57.5"/>
<text text-anchor="middle" x="118.5" y="-64.5" font-family="Helvetica,sans-Serif" font-size="10.00">http::Parser</text>
</a>
</g>
</g>
<!-- Node2&#45;&gt;Node1 -->
<g id="edge1" class="edge">
<title>Node2&#45;&gt;Node1</title>
<path fill="none" stroke="midnightblue" d="M118.5,-47.12C118.5,-37.82 118.5,-27.06 118.5,-19.71"/>
<polygon fill="midnightblue" stroke="midnightblue" points="115,-47.41 118.5,-57.41 122,-47.41 115,-47.41"/>
</g>
<!-- Node3 -->
<g id="node3" class="node">
<title>Node3</title>
<g id="a_node3"><a xlink:title=" ">
<polygon fill="white" stroke="black" points="0,-130 0,-149 125,-149 125,-130 0,-130"/>
<text text-anchor="middle" x="62.5" y="-137" font-family="Helvetica,sans-Serif" font-size="10.00">std::vector&lt; uint8_t &gt;</text>
</a>
</g>
</g>
<!-- Node3&#45;&gt;Node2 -->
<g id="edge2" class="edge">
<title>Node3&#45;&gt;Node2</title>
<path fill="none" stroke="#9a32cd" stroke-dasharray="5,2" d="M75.69,-121.9C86.93,-107.74 102.65,-87.96 111.58,-76.72"/>
<polygon fill="#9a32cd" stroke="#9a32cd" points="72.85,-119.85 69.37,-129.86 78.33,-124.2 72.85,-119.85"/>
<text text-anchor="middle" x="120" y="-98" font-family="Helvetica,sans-Serif" font-size="10.00"> body_buf</text>
</g>
<!-- Node4 -->
<g id="node4" class="node">
<title>Node4</title>
<g id="a_node4"><a xlink:title=" ">
<polygon fill="white" stroke="black" points="143,-124.5 143,-154.5 286,-154.5 286,-124.5 143,-124.5"/>
<text text-anchor="start" x="151" y="-142.5" font-family="Helvetica,sans-Serif" font-size="10.00">std::map&lt; std::string,</text>
<text text-anchor="middle" x="214.5" y="-131.5" font-family="Helvetica,sans-Serif" font-size="10.00"> std::string, std::less&lt;&gt; &gt;</text>
</a>
</g>
</g>
<!-- Node4&#45;&gt;Node2 -->
<g id="edge3" class="edge">
<title>Node4&#45;&gt;Node2</title>
<path fill="none" stroke="#9a32cd" stroke-dasharray="5,2" d="M186.88,-118.22C168.16,-104.47 144.35,-86.98 130.33,-76.69"/>
<polygon fill="#9a32cd" stroke="#9a32cd" points="184.94,-121.14 195.07,-124.23 189.08,-115.49 184.94,-121.14"/>
<text text-anchor="middle" x="190" y="-98" font-family="Helvetica,sans-Serif" font-size="10.00"> headers</text>
</g>
<!-- Node5 -->
<g id="node5" class="node">
<title>Node5</title>
<g id="a_node5"><a xlink:title=" ">
<polygon fill="white" stroke="black" points="182,-213.5 182,-232.5 247,-232.5 247,-213.5 182,-213.5"/>
<text text-anchor="middle" x="214.5" y="-220.5" font-family="Helvetica,sans-Serif" font-size="10.00">std::string</text>
</a>
</g>
</g>
<!-- Node5&#45;&gt;Node4 -->
<g id="edge4" class="edge">
<title>Node5&#45;&gt;Node4</title>
<path fill="none" stroke="#9a32cd" stroke-dasharray="5,2" d="M214.5,-203.23C214.5,-188.41 214.5,-168.05 214.5,-154.6"/>
<polygon fill="#9a32cd" stroke="#9a32cd" points="211,-203.28 214.5,-213.28 218,-203.28 211,-203.28"/>
<text text-anchor="middle" x="239" y="-187" font-family="Helvetica,sans-Serif" font-size="10.00"> elements</text>
<text text-anchor="middle" x="239" y="-176" font-family="Helvetica,sans-Serif" font-size="10.00">keys</text>
</g>
<!-- Node6 -->
<g id="node6" class="node">
<title>Node6</title>
<g id="a_node6"><a xlink:title=" ">
<polygon fill="white" stroke="black" points="162.5,-270.5 162.5,-300.5 266.5,-300.5 266.5,-270.5 162.5,-270.5"/>
<text text-anchor="start" x="170.5" y="-288.5" font-family="Helvetica,sans-Serif" font-size="10.00">std::basic_string&lt;</text>
<text text-anchor="middle" x="214.5" y="-277.5" font-family="Helvetica,sans-Serif" font-size="10.00"> Char &gt;</text>
</a>
</g>
</g>
<!-- Node6&#45;&gt;Node5 -->
<g id="edge5" class="edge">
<title>Node6&#45;&gt;Node5</title>
<path fill="none" stroke="midnightblue" d="M214.5,-260.35C214.5,-250.51 214.5,-239.78 214.5,-232.54"/>
<polygon fill="midnightblue" stroke="midnightblue" points="211,-260.47 214.5,-270.47 218,-260.47 211,-260.47"/>
</g>
</g>
</svg>
