<?xml version="1.0" encoding="UTF-8" standalone="no"?>
<!DOCTYPE svg PUBLIC "-//W3C//DTD SVG 1.1//EN"
 "http://www.w3.org/Graphics/SVG/1.1/DTD/svg11.dtd">
<!-- Generated by graphviz version 2.43.0 (0)
 -->
<!-- Title: ACMEServerBehaviour::ClientBehaviour Pages: 1 -->
<!--zoomable 252 -->
<svg id="main" version="1.1" xmlns="http://www.w3.org/2000/svg" xmlns:xlink="http://www.w3.org/1999/xlink" xml:space="preserve" onload="init(evt)">
<style type="text/css"><![CDATA[
.edge:hover path { stroke: red; }
.edge:hover polygon { stroke: red; fill: red; }
]]></style>
<script type="text/javascript"><![CDATA[
var edges = document.getElementsByTagName('g');
if (edges && edges.length) {
  for (var i=0;i<edges.length;i++) {
    if (edges[i].id.substr(0,4)=='edge') {
      edges[i].setAttribute('class','edge');
    }
  }
}
]]></script>
        <defs>
                <circle id="rim" cx="0" cy="0" r="7"/>
                <circle id="rim2" cx="0" cy="0" r="3.5"/>
                <g id="zoomPlus">
                        <use xlink:href="#rim" fill="#404040">
                                <set attributeName="fill" to="#808080" begin="zoomplus.mouseover" end="zoomplus.mouseout"/>
                        </use>
                        <path d="M-4,0h8M0,-4v8" fill="none" stroke="white" stroke-width="1.5" pointer-events="none"/>
                </g>
                <g id="zoomMin">
                        <use xlink:href="#rim" fill="#404040">
                                <set attributeName="fill" to="#808080" begin="zoomminus.mouseover" end="zoomminus.mouseout"/>
                        </use>
                        <path d="M-4,0h8" fill="none" stroke="white" stroke-width="1.5" pointer-events="none"/>
                </g>
                <g id="dirArrow">
                        <path fill="none" stroke="white" stroke-width="1.5" d="M0,-3.0v7 M-2.5,-0.5L0,-3.0L2.5,-0.5"/>
                </g>
               <g id="resetDef">
                       <use xlink:href="#rim2" fill="#404040">
                               <set attributeName="fill" to="#808080" begin="reset.mouseover" end="reset.mouseout"/>
                       </use>
               </g>
        </defs>

<script type="text/javascript">
var viewWidth = 1539;
var viewHeight = 252;
var sectionId = 'dynsection-0';
</script>
<script xlink:href="svgpan.js"/>
<svg id="graph" class="graph">
<g id="viewport">
<title>ACMEServerBehaviour::ClientBehaviour</title>
<polygon fill="white" stroke="transparent" points="-4,4 -4,-248 1535,-248 1535,4 -4,4"/>
<!-- Node1 -->
<g id="node1" class="node">
<title>Node1</title>
<g id="a_node1"><a xlink:title=" ">
<polygon fill="#bfbfbf" stroke="black" points="1405,-105.5 1405,-135.5 1531,-135.5 1531,-105.5 1405,-105.5"/>
<text text-anchor="start" x="1413" y="-123.5" font-family="Helvetica,sans-Serif" font-size="10.00">ACMEServerBehaviour</text>
<text text-anchor="middle" x="1468" y="-112.5" font-family="Helvetica,sans-Serif" font-size="10.00">::ClientBehaviour</text>
</a>
</g>
</g>
<!-- Node2 -->
<g id="node2" class="node">
<title>Node2</title>
<g id="a_node2"><a xlink:href="classasynchost_1_1SocketBehaviour.html" target="_top" xlink:title=" ">
<polygon fill="white" stroke="black" points="1153.5,-213.5 1153.5,-243.5 1307.5,-243.5 1307.5,-213.5 1153.5,-213.5"/>
<text text-anchor="start" x="1161.5" y="-231.5" font-family="Helvetica,sans-Serif" font-size="10.00">asynchost::SocketBehaviour</text>
<text text-anchor="middle" x="1230.5" y="-220.5" font-family="Helvetica,sans-Serif" font-size="10.00">&lt; asynchost::TCP &gt;</text>
</a>
</g>
</g>
<!-- Node2&#45;&gt;Node1 -->
<g id="edge1" class="edge">
<title>Node2&#45;&gt;Node1</title>
<path fill="none" stroke="midnightblue" d="M1317.67,-211.44C1340.91,-205.05 1365.54,-196.56 1387,-185.5 1412.45,-172.38 1437.34,-150.27 1452.42,-135.53"/>
<polygon fill="midnightblue" stroke="midnightblue" points="1316.58,-208.11 1307.81,-214.06 1318.37,-214.88 1316.58,-208.11"/>
</g>
<!-- Node3 -->
<g id="node3" class="node">
<title>Node3</title>
<g id="a_node3"><a xlink:href="structhttp_1_1SimpleRequestProcessor.html" target="_top" xlink:title=" ">
<polygon fill="white" stroke="black" points="1149,-175 1149,-194 1312,-194 1312,-175 1149,-175"/>
<text text-anchor="middle" x="1230.5" y="-182" font-family="Helvetica,sans-Serif" font-size="10.00">http::SimpleRequestProcessor</text>
</a>
</g>
</g>
<!-- Node3&#45;&gt;Node1 -->
<g id="edge2" class="edge">
<title>Node3&#45;&gt;Node1</title>
<path fill="none" stroke="#9a32cd" stroke-dasharray="5,2" d="M1320.03,-173.24C1342.17,-169.31 1365.68,-164.16 1387,-157.5 1404.97,-151.89 1424.14,-143.13 1439.21,-135.54"/>
<polygon fill="#9a32cd" stroke="#9a32cd" points="1319.23,-169.83 1309.96,-174.97 1320.41,-176.73 1319.23,-169.83"/>
<text text-anchor="middle" x="1358.5" y="-173.5" font-family="Helvetica,sans-Serif" font-size="10.00"> sp</text>
</g>
<!-- Node4 -->
<g id="node4" class="node">
<title>Node4</title>
<g id="a_node4"><a xlink:href="classhttp_1_1RequestProcessor.html" target="_top" xlink:title=" ">
<polygon fill="white" stroke="black" points="856,-221 856,-240 985,-240 985,-221 856,-221"/>
<text text-anchor="middle" x="920.5" y="-228" font-family="Helvetica,sans-Serif" font-size="10.00">http::RequestProcessor</text>
</a>
</g>
</g>
<!-- Node4&#45;&gt;Node3 -->
<g id="edge3" class="edge">
<title>Node4&#45;&gt;Node3</title>
<path fill="none" stroke="midnightblue" d="M995.24,-220.29C1035.41,-214.63 1085.96,-207.38 1131,-200.5 1144.27,-198.47 1158.54,-196.21 1171.97,-194.03"/>
<polygon fill="midnightblue" stroke="midnightblue" points="994.68,-216.83 985.27,-221.69 995.66,-223.76 994.68,-216.83"/>
</g>
<!-- Node5 -->
<g id="node5" class="node">
<title>Node5</title>
<g id="a_node5"><a xlink:title=" ">
<polygon fill="white" stroke="black" points="840,-171.5 840,-201.5 1001,-201.5 1001,-171.5 840,-171.5"/>
<text text-anchor="start" x="848" y="-189.5" font-family="Helvetica,sans-Serif" font-size="10.00">std::queue&lt; http::Simple</text>
<text text-anchor="middle" x="920.5" y="-178.5" font-family="Helvetica,sans-Serif" font-size="10.00">RequestProcessor::Request &gt;</text>
</a>
</g>
</g>
<!-- Node5&#45;&gt;Node3 -->
<g id="edge4" class="edge">
<title>Node5&#45;&gt;Node3</title>
<path fill="none" stroke="#9a32cd" stroke-dasharray="5,2" d="M1011.22,-185.92C1054.71,-185.63 1106.54,-185.3 1148.78,-185.02"/>
<polygon fill="#9a32cd" stroke="#9a32cd" points="1011.2,-182.42 1001.22,-185.98 1011.24,-189.42 1011.2,-182.42"/>
<text text-anchor="middle" x="1075" y="-188.5" font-family="Helvetica,sans-Serif" font-size="10.00"> received</text>
</g>
<!-- Node6 -->
<g id="node6" class="node">
<title>Node6</title>
<g id="a_node6"><a xlink:href="structhttp_1_1SimpleRequestProcessor_1_1Request.html" target="_top" xlink:title=" ">
<polygon fill="white" stroke="black" points="592,-174.5 592,-204.5 755,-204.5 755,-174.5 592,-174.5"/>
<text text-anchor="start" x="600" y="-192.5" font-family="Helvetica,sans-Serif" font-size="10.00">http::SimpleRequestProcessor</text>
<text text-anchor="middle" x="673.5" y="-181.5" font-family="Helvetica,sans-Serif" font-size="10.00">::Request</text>
</a>
</g>
</g>
<!-- Node6&#45;&gt;Node5 -->
<g id="edge5" class="edge">
<title>Node6&#45;&gt;Node5</title>
<path fill="none" stroke="#9a32cd" stroke-dasharray="5,2" d="M765.07,-188.39C789.56,-188.09 815.88,-187.77 839.73,-187.48"/>
<polygon fill="#9a32cd" stroke="#9a32cd" points="765.02,-184.89 755.06,-188.51 765.1,-191.89 765.02,-184.89"/>
<text text-anchor="middle" x="797.5" y="-190.5" font-family="Helvetica,sans-Serif" font-size="10.00"> elements</text>
</g>
<!-- Node7 -->
<g id="node7" class="node">
<title>Node7</title>
<g id="a_node7"><a xlink:title=" ">
<polygon fill="white" stroke="black" points="141,-153 141,-172 206,-172 206,-153 141,-153"/>
<text text-anchor="middle" x="173.5" y="-160" font-family="Helvetica,sans-Serif" font-size="10.00">std::string</text>
</a>
</g>
</g>
<!-- Node7&#45;&gt;Node6 -->
<g id="edge6" class="edge">
<title>Node7&#45;&gt;Node6</title>
<path fill="none" stroke="#9a32cd" stroke-dasharray="5,2" d="M197.34,-177.26C205.44,-181.73 214.82,-186.09 224,-188.5 374.47,-228.07 418.49,-200.23 574,-195.5 579.82,-195.32 585.84,-195.09 591.89,-194.81"/>
<polygon fill="#9a32cd" stroke="#9a32cd" points="198.91,-174.12 188.52,-172.07 195.36,-180.15 198.91,-174.12"/>
<text text-anchor="middle" x="362.5" y="-211.5" font-family="Helvetica,sans-Serif" font-size="10.00"> url</text>
</g>
<!-- Node9 -->
<g id="node9" class="node">
<title>Node9</title>
<g id="a_node9"><a xlink:title=" ">
<polygon fill="white" stroke="black" points="291,-147.5 291,-177.5 434,-177.5 434,-147.5 291,-147.5"/>
<text text-anchor="start" x="299" y="-165.5" font-family="Helvetica,sans-Serif" font-size="10.00">std::map&lt; std::string,</text>
<text text-anchor="middle" x="362.5" y="-154.5" font-family="Helvetica,sans-Serif" font-size="10.00"> std::string, std::less&lt;&gt; &gt;</text>
</a>
</g>
</g>
<!-- Node7&#45;&gt;Node9 -->
<g id="edge9" class="edge">
<title>Node7&#45;&gt;Node9</title>
<path fill="none" stroke="#9a32cd" stroke-dasharray="5,2" d="M216.49,-162.5C238.37,-162.5 265.72,-162.5 290.75,-162.5"/>
<polygon fill="#9a32cd" stroke="#9a32cd" points="216.22,-159 206.22,-162.5 216.22,-166 216.22,-159"/>
<text text-anchor="middle" x="248.5" y="-176.5" font-family="Helvetica,sans-Serif" font-size="10.00"> elements</text>
<text text-anchor="middle" x="248.5" y="-165.5" font-family="Helvetica,sans-Serif" font-size="10.00">keys</text>
</g>
<!-- Node14 -->
<g id="node14" class="node">
<title>Node14</title>
<g id="a_node14"><a xlink:title=" ">
<polygon fill="white" stroke="black" points="452,-36.5 452,-66.5 574,-66.5 574,-36.5 452,-36.5"/>
<text text-anchor="start" x="460" y="-54.5" font-family="Helvetica,sans-Serif" font-size="10.00">std::map&lt; std::string,</text>
<text text-anchor="middle" x="513" y="-43.5" font-family="Helvetica,sans-Serif" font-size="10.00"> std::string &gt;</text>
</a>
</g>
</g>
<!-- Node7&#45;&gt;Node14 -->
<g id="edge17" class="edge">
<title>Node7&#45;&gt;Node14</title>
<path fill="none" stroke="#9a32cd" stroke-dasharray="5,2" d="M195.5,-147C217.99,-131.15 255.28,-107 291,-93.5 343.43,-73.69 406.52,-62.89 451.85,-57.23"/>
<polygon fill="#9a32cd" stroke="#9a32cd" points="193.45,-144.15 187.36,-152.82 197.53,-149.84 193.45,-144.15"/>
<text text-anchor="middle" x="248.5" y="-140.5" font-family="Helvetica,sans-Serif" font-size="10.00"> elements</text>
<text text-anchor="middle" x="248.5" y="-129.5" font-family="Helvetica,sans-Serif" font-size="10.00">keys</text>
</g>
<!-- Node8 -->
<g id="node8" class="node">
<title>Node8</title>
<g id="a_node8"><a xlink:title=" ">
<polygon fill="white" stroke="black" points="0,-147.5 0,-177.5 104,-177.5 104,-147.5 0,-147.5"/>
<text text-anchor="start" x="8" y="-165.5" font-family="Helvetica,sans-Serif" font-size="10.00">std::basic_string&lt;</text>
<text text-anchor="middle" x="52" y="-154.5" font-family="Helvetica,sans-Serif" font-size="10.00"> Char &gt;</text>
</a>
</g>
</g>
<!-- Node8&#45;&gt;Node7 -->
<g id="edge7" class="edge">
<title>Node8&#45;&gt;Node7</title>
<path fill="none" stroke="midnightblue" d="M114.1,-162.5C123.41,-162.5 132.68,-162.5 141,-162.5"/>
<polygon fill="midnightblue" stroke="midnightblue" points="114.03,-159 104.03,-162.5 114.03,-166 114.03,-159"/>
</g>
<!-- Node9&#45;&gt;Node6 -->
<g id="edge8" class="edge">
<title>Node9&#45;&gt;Node6</title>
<path fill="none" stroke="#9a32cd" stroke-dasharray="5,2" d="M444.23,-169.81C446.85,-170.04 449.45,-170.27 452,-170.5 498.31,-174.59 550.11,-179.06 591.85,-182.63"/>
<polygon fill="#9a32cd" stroke="#9a32cd" points="444.3,-166.3 434.02,-168.9 443.67,-173.28 444.3,-166.3"/>
<text text-anchor="middle" x="513" y="-183.5" font-family="Helvetica,sans-Serif" font-size="10.00"> headers</text>
</g>
<!-- Node12 -->
<g id="node12" class="node">
<title>Node12</title>
<g id="a_node12"><a xlink:href="classhttp_1_1Parser.html" target="_top" xlink:title=" ">
<polygon fill="white" stroke="black" points="637.5,-133 637.5,-152 709.5,-152 709.5,-133 637.5,-133"/>
<text text-anchor="middle" x="673.5" y="-140" font-family="Helvetica,sans-Serif" font-size="10.00">http::Parser</text>
</a>
</g>
</g>
<!-- Node9&#45;&gt;Node12 -->
<g id="edge14" class="edge">
<title>Node9&#45;&gt;Node12</title>
<path fill="none" stroke="#9a32cd" stroke-dasharray="5,2" d="M444.25,-157.27C506.85,-153.22 590.55,-147.8 637.23,-144.78"/>
<polygon fill="#9a32cd" stroke="#9a32cd" points="443.76,-153.8 434,-157.94 444.21,-160.78 443.76,-153.8"/>
<text text-anchor="middle" x="513" y="-159.5" font-family="Helvetica,sans-Serif" font-size="10.00"> headers</text>
</g>
<!-- Node10 -->
<g id="node10" class="node">
<title>Node10</title>
<g id="a_node10"><a xlink:title=" ">
<polygon fill="white" stroke="black" points="300,-103 300,-122 425,-122 425,-103 300,-103"/>
<text text-anchor="middle" x="362.5" y="-110" font-family="Helvetica,sans-Serif" font-size="10.00">std::vector&lt; uint8_t &gt;</text>
</a>
</g>
</g>
<!-- Node10&#45;&gt;Node6 -->
<g id="edge10" class="edge">
<title>Node10&#45;&gt;Node6</title>
<path fill="none" stroke="#9a32cd" stroke-dasharray="5,2" d="M435.25,-104.67C478.43,-103.43 532.83,-108.29 574,-133.5 586.62,-141.23 580.38,-152.35 592,-161.5 598.51,-166.63 606.02,-170.85 613.79,-174.32"/>
<polygon fill="#9a32cd" stroke="#9a32cd" points="434.94,-101.18 425.09,-105.08 435.23,-108.18 434.94,-101.18"/>
<text text-anchor="middle" x="513" y="-136.5" font-family="Helvetica,sans-Serif" font-size="10.00"> body</text>
</g>
<!-- Node10&#45;&gt;Node12 -->
<g id="edge13" class="edge">
<title>Node10&#45;&gt;Node12</title>
<path fill="none" stroke="#9a32cd" stroke-dasharray="5,2" d="M404.41,-100.39C447.24,-89.57 516.19,-77.42 574,-91.5 606.74,-99.47 640.75,-120.38 658.99,-132.81"/>
<polygon fill="#9a32cd" stroke="#9a32cd" points="403.42,-97.04 394.63,-102.96 405.19,-103.81 403.42,-97.04"/>
<text text-anchor="middle" x="513" y="-94.5" font-family="Helvetica,sans-Serif" font-size="10.00"> body_buf</text>
</g>
<!-- Node11 -->
<g id="node11" class="node">
<title>Node11</title>
<g id="a_node11"><a xlink:href="classhttp_1_1RequestParser.html" target="_top" xlink:title=" ">
<polygon fill="white" stroke="black" points="1019,-133 1019,-152 1131,-152 1131,-133 1019,-133"/>
<text text-anchor="middle" x="1075" y="-140" font-family="Helvetica,sans-Serif" font-size="10.00">http::RequestParser</text>
</a>
</g>
</g>
<!-- Node11&#45;&gt;Node1 -->
<g id="edge11" class="edge">
<title>Node11&#45;&gt;Node1</title>
<path fill="none" stroke="#9a32cd" stroke-dasharray="5,2" d="M1141.26,-139.59C1204.2,-136.67 1302.16,-131.86 1387,-126.5 1392.84,-126.13 1398.91,-125.72 1404.99,-125.29"/>
<polygon fill="#9a32cd" stroke="#9a32cd" points="1140.91,-136.1 1131.08,-140.06 1141.23,-143.09 1140.91,-136.1"/>
<text text-anchor="middle" x="1230.5" y="-141.5" font-family="Helvetica,sans-Serif" font-size="10.00"> parser</text>
</g>
<!-- Node12&#45;&gt;Node11 -->
<g id="edge12" class="edge">
<title>Node12&#45;&gt;Node11</title>
<path fill="none" stroke="midnightblue" d="M719.94,-142.5C793.65,-142.5 939.04,-142.5 1018.66,-142.5"/>
<polygon fill="midnightblue" stroke="midnightblue" points="719.6,-139 709.6,-142.5 719.6,-146 719.6,-139"/>
</g>
<!-- Node13 -->
<g id="node13" class="node">
<title>Node13</title>
<g id="a_node13"><a xlink:title=" ">
<polygon fill="white" stroke="black" points="1196,-88 1196,-107 1265,-107 1265,-88 1196,-88"/>
<text text-anchor="middle" x="1230.5" y="-95" font-family="Helvetica,sans-Serif" font-size="10.00">std::mutex</text>
</a>
</g>
</g>
<!-- Node13&#45;&gt;Node1 -->
<g id="edge15" class="edge">
<title>Node13&#45;&gt;Node1</title>
<path fill="none" stroke="#9a32cd" stroke-dasharray="5,2" d="M1275.52,-101.8C1311.87,-105.35 1363.91,-110.43 1404.56,-114.4"/>
<polygon fill="#9a32cd" stroke="#9a32cd" points="1275.53,-98.28 1265.24,-100.8 1274.85,-105.25 1275.53,-98.28"/>
<text text-anchor="middle" x="1358.5" y="-114.5" font-family="Helvetica,sans-Serif" font-size="10.00"> lock</text>
</g>
<!-- Node14&#45;&gt;Node1 -->
<g id="edge16" class="edge">
<title>Node14&#45;&gt;Node1</title>
<path fill="none" stroke="#9a32cd" stroke-dasharray="5,2" d="M584.06,-54.59C641.22,-56.84 724.06,-59.5 796.5,-59.5 796.5,-59.5 796.5,-59.5 1231.5,-59.5 1304.57,-59.5 1386.43,-87.36 1431.83,-105.42"/>
<polygon fill="#9a32cd" stroke="#9a32cd" points="584.19,-51.09 574.05,-54.19 583.91,-58.08 584.19,-51.09"/>
<text text-anchor="middle" x="920.5" y="-62.5" font-family="Helvetica,sans-Serif" font-size="10.00"> prepared_responses</text>
</g>
<!-- Node15 -->
<g id="node15" class="node">
<title>Node15</title>
<g id="a_node15"><a xlink:title=" ">
<polygon fill="white" stroke="black" points="1160,-0.5 1160,-30.5 1301,-30.5 1301,-0.5 1160,-0.5"/>
<text text-anchor="start" x="1168" y="-18.5" font-family="Helvetica,sans-Serif" font-size="10.00">std::shared_ptr&lt; Abstract</text>
<text text-anchor="middle" x="1230.5" y="-7.5" font-family="Helvetica,sans-Serif" font-size="10.00">Writer &gt;</text>
</a>
</g>
</g>
<!-- Node15&#45;&gt;Node1 -->
<g id="edge18" class="edge">
<title>Node15&#45;&gt;Node1</title>
<path fill="none" stroke="#9a32cd" stroke-dasharray="5,2" d="M1311.06,-14.64C1336.44,-17.08 1363.9,-22.72 1387,-34.5 1418.97,-50.8 1444.8,-85.34 1457.81,-105.33"/>
<polygon fill="#9a32cd" stroke="#9a32cd" points="1311.34,-11.15 1301.09,-13.83 1310.77,-18.13 1311.34,-11.15"/>
<text text-anchor="middle" x="1358.5" y="-37.5" font-family="Helvetica,sans-Serif" font-size="10.00"> to_enclave</text>
</g>
</g>
</svg>
        <g id="navigator" transform="translate(0 0)" fill="#404254">
                <rect fill="#f2f5e9" fill-opacity="0.5" stroke="#606060" stroke-width=".5" x="0" y="0" width="60" height="60"/>
                <use id="zoomplus" xlink:href="#zoomPlus" x="17" y="9" onmousedown="handleZoom(evt,'in')"/>
                <use id="zoomminus" xlink:href="#zoomMin" x="42" y="9" onmousedown="handleZoom(evt,'out')"/>
                <use id="reset" xlink:href="#resetDef" x="30" y="36" onmousedown="handleReset()"/>
                <g id="arrowUp" xlink:href="#dirArrow" transform="translate(30 24)" onmousedown="handlePan(0,-1)">
                  <use xlink:href="#rim" fill="#404040">
                        <set attributeName="fill" to="#808080" begin="arrowUp.mouseover" end="arrowUp.mouseout"/>
                  </use>
                  <path fill="none" stroke="white" stroke-width="1.5" d="M0,-3.0v7 M-2.5,-0.5L0,-3.0L2.5,-0.5"/>
                </g>
                <g id="arrowRight" xlink:href="#dirArrow" transform="rotate(90) translate(36 -43)" onmousedown="handlePan(1,0)">
                  <use xlink:href="#rim" fill="#404040">
                        <set attributeName="fill" to="#808080" begin="arrowRight.mouseover" end="arrowRight.mouseout"/>
                  </use>
                  <path fill="none" stroke="white" stroke-width="1.5" d="M0,-3.0v7 M-2.5,-0.5L0,-3.0L2.5,-0.5"/>
                </g>
                <g id="arrowDown" xlink:href="#dirArrow" transform="rotate(180) translate(-30 -48)" onmousedown="handlePan(0,1)">
                  <use xlink:href="#rim" fill="#404040">
                        <set attributeName="fill" to="#808080" begin="arrowDown.mouseover" end="arrowDown.mouseout"/>
                  </use>
                  <path fill="none" stroke="white" stroke-width="1.5" d="M0,-3.0v7 M-2.5,-0.5L0,-3.0L2.5,-0.5"/>
                </g>
                <g id="arrowLeft" xlink:href="#dirArrow" transform="rotate(270) translate(-36 17)" onmousedown="handlePan(-1,0)">
                  <use xlink:href="#rim" fill="#404040">
                        <set attributeName="fill" to="#808080" begin="arrowLeft.mouseover" end="arrowLeft.mouseout"/>
                  </use>
                  <path fill="none" stroke="white" stroke-width="1.5" d="M0,-3.0v7 M-2.5,-0.5L0,-3.0L2.5,-0.5"/>
                </g>
        </g>
        <svg viewBox="0 0 15 15" width="100%" height="30px" preserveAspectRatio="xMaxYMin meet">
         <g id="arrow_out" transform="scale(0.3 0.3)">
          <a xlink:href="classACMEServerBehaviour_1_1ClientBehaviour__coll__graph_org.svg" target="_base">
           <rect id="button" ry="5" rx="5" y="6" x="6" height="38" width="38"
                fill="#f2f5e9" fill-opacity="0.5" stroke="#606060" stroke-width="1.0"/>
           <path id="arrow"
             d="M 11.500037,31.436501 C 11.940474,20.09759 22.043105,11.32322 32.158766,21.979434 L 37.068811,17.246167 C 37.068811,17.246167 37.088388,32 37.088388,32 L 22.160133,31.978069 C 22.160133,31.978069 26.997745,27.140456 26.997745,27.140456 C 18.528582,18.264221 13.291696,25.230495 11.500037,31.436501 z"
             style="fill:#404040;"/>
          </a>
         </g>
        </svg>
</svg>
