<?xml version="1.0" encoding="UTF-8" standalone="no"?>
<!DOCTYPE svg PUBLIC "-//W3C//DTD SVG 1.1//EN"
 "http://www.w3.org/Graphics/SVG/1.1/DTD/svg11.dtd">
<!-- Generated by graphviz version 2.43.0 (0)
 -->
<!-- Title: ccf::ACMEClient Pages: 1 -->
<svg width="1731pt" height="699pt"
 viewBox="0.00 0.00 1731.00 699.00" xmlns="http://www.w3.org/2000/svg" xmlns:xlink="http://www.w3.org/1999/xlink">
<g id="graph0" class="graph" transform="scale(1 1) rotate(0) translate(4 695)">
<title>ccf::ACMEClient</title>
<polygon fill="white" stroke="transparent" points="-4,4 -4,-695 1727,-695 1727,4 -4,4"/>
<!-- Node1 -->
<g id="node1" class="node">
<title>Node1</title>
<g id="a_node1"><a xlink:title=" ">
<polygon fill="#bfbfbf" stroke="black" points="1630,-265.5 1630,-284.5 1723,-284.5 1723,-265.5 1630,-265.5"/>
<text text-anchor="middle" x="1676.5" y="-272.5" font-family="Helvetica,sans-Serif" font-size="10.00">ccf::ACMEClient</text>
</a>
</g>
</g>
<!-- Node2 -->
<g id="node2" class="node">
<title>Node2</title>
<g id="a_node2"><a xlink:href="classACME_1_1Client.html" target="_top" xlink:title=" ">
<polygon fill="white" stroke="black" points="1417.5,-395.5 1417.5,-414.5 1497.5,-414.5 1497.5,-395.5 1417.5,-395.5"/>
<text text-anchor="middle" x="1457.5" y="-402.5" font-family="Helvetica,sans-Serif" font-size="10.00">ACME::Client</text>
</a>
</g>
</g>
<!-- Node2&#45;&gt;Node1 -->
<g id="edge1" class="edge">
<title>Node2&#45;&gt;Node1</title>
<path fill="none" stroke="midnightblue" d="M1507.56,-393.54C1539.27,-384.57 1580.36,-369.89 1612,-348 1637.42,-330.42 1659.1,-300.4 1669.29,-284.9"/>
<polygon fill="midnightblue" stroke="midnightblue" points="1506.35,-390.24 1497.62,-396.25 1508.19,-397 1506.35,-390.24"/>
</g>
<!-- Node3 -->
<g id="node3" class="node">
<title>Node3</title>
<g id="a_node3"><a xlink:href="structACME_1_1ClientConfig.html" target="_top" xlink:title=" ">
<polygon fill="white" stroke="black" points="650.5,-410.5 650.5,-429.5 760.5,-429.5 760.5,-410.5 650.5,-410.5"/>
<text text-anchor="middle" x="705.5" y="-417.5" font-family="Helvetica,sans-Serif" font-size="10.00">ACME::ClientConfig</text>
</a>
</g>
</g>
<!-- Node3&#45;&gt;Node2 -->
<g id="edge2" class="edge">
<title>Node3&#45;&gt;Node2</title>
<path fill="none" stroke="#9a32cd" stroke-dasharray="5,2" d="M770.79,-418.71C921.71,-415.7 1295.17,-408.23 1417.22,-405.79"/>
<polygon fill="#9a32cd" stroke="#9a32cd" points="770.67,-415.22 760.74,-418.92 770.81,-422.21 770.67,-415.22"/>
<text text-anchor="middle" x="1084" y="-416" font-family="Helvetica,sans-Serif" font-size="10.00"> config</text>
</g>
<!-- Node4 -->
<g id="node4" class="node">
<title>Node4</title>
<g id="a_node4"><a xlink:title=" ">
<polygon fill="white" stroke="black" points="329.5,-469.5 329.5,-488.5 469.5,-488.5 469.5,-469.5 329.5,-469.5"/>
<text text-anchor="middle" x="399.5" y="-476.5" font-family="Helvetica,sans-Serif" font-size="10.00">std::vector&lt; std::string &gt;</text>
</a>
</g>
</g>
<!-- Node4&#45;&gt;Node3 -->
<g id="edge3" class="edge">
<title>Node4&#45;&gt;Node3</title>
<path fill="none" stroke="#9a32cd" stroke-dasharray="5,2" d="M459.64,-467.52C516.67,-456.45 601.99,-439.89 655.39,-429.53"/>
<polygon fill="#9a32cd" stroke="#9a32cd" points="458.83,-464.11 449.68,-469.46 460.16,-470.99 458.83,-464.11"/>
<text text-anchor="middle" x="551" y="-475" font-family="Helvetica,sans-Serif" font-size="10.00"> ca_certs</text>
<text text-anchor="middle" x="551" y="-464" font-family="Helvetica,sans-Serif" font-size="10.00">contact</text>
</g>
<!-- Node5 -->
<g id="node5" class="node">
<title>Node5</title>
<g id="a_node5"><a xlink:title=" ">
<polygon fill="white" stroke="black" points="141,-469.5 141,-488.5 206,-488.5 206,-469.5 141,-469.5"/>
<text text-anchor="middle" x="173.5" y="-476.5" font-family="Helvetica,sans-Serif" font-size="10.00">std::string</text>
</a>
</g>
</g>
<!-- Node5&#45;&gt;Node1 -->
<g id="edge21" class="edge">
<title>Node5&#45;&gt;Node1</title>
<path fill="none" stroke="#9a32cd" stroke-dasharray="5,2" d="M176.57,-459.23C180.56,-431.81 192,-382.81 224,-358 285.87,-310.03 320.21,-334 398.5,-334 398.5,-334 398.5,-334 1458.5,-334 1532.87,-334 1616.72,-301.33 1654.76,-284.61"/>
<polygon fill="#9a32cd" stroke="#9a32cd" points="173.09,-458.86 175.3,-469.22 180.03,-459.74 173.09,-458.86"/>
<text text-anchor="middle" x="959.5" y="-337" font-family="Helvetica,sans-Serif" font-size="10.00"> config_name</text>
</g>
<!-- Node5&#45;&gt;Node3 -->
<g id="edge6" class="edge">
<title>Node5&#45;&gt;Node3</title>
<path fill="none" stroke="#9a32cd" stroke-dasharray="5,2" d="M205.04,-465.53C235.5,-452.84 283.98,-434.67 328,-427 441.35,-407.24 576.8,-411.34 650.39,-415.83"/>
<polygon fill="#9a32cd" stroke="#9a32cd" points="203.65,-462.31 195.81,-469.43 206.38,-468.76 203.65,-462.31"/>
<text text-anchor="middle" x="399.5" y="-452" font-family="Helvetica,sans-Serif" font-size="10.00"> challenge_type</text>
<text text-anchor="middle" x="399.5" y="-441" font-family="Helvetica,sans-Serif" font-size="10.00">directory_url</text>
<text text-anchor="middle" x="399.5" y="-430" font-family="Helvetica,sans-Serif" font-size="10.00">service_dns_name</text>
</g>
<!-- Node5&#45;&gt;Node4 -->
<g id="edge4" class="edge">
<title>Node5&#45;&gt;Node4</title>
<path fill="none" stroke="#9a32cd" stroke-dasharray="5,2" d="M216.36,-479C248.05,-479 292.29,-479 329.23,-479"/>
<polygon fill="#9a32cd" stroke="#9a32cd" points="216.12,-475.5 206.12,-479 216.12,-482.5 216.12,-475.5"/>
<text text-anchor="middle" x="267" y="-482" font-family="Helvetica,sans-Serif" font-size="10.00"> elements</text>
</g>
<!-- Node9 -->
<g id="node9" class="node">
<title>Node9</title>
<g id="a_node9"><a xlink:title=" ">
<polygon fill="white" stroke="black" points="489,-367.5 489,-386.5 613,-386.5 613,-367.5 489,-367.5"/>
<text text-anchor="middle" x="551" y="-374.5" font-family="Helvetica,sans-Serif" font-size="10.00">std::list&lt; std::string &gt;</text>
</a>
</g>
</g>
<!-- Node5&#45;&gt;Node9 -->
<g id="edge10" class="edge">
<title>Node5&#45;&gt;Node9</title>
<path fill="none" stroke="#9a32cd" stroke-dasharray="5,2" d="M179.69,-459.54C186.29,-439.06 199.83,-407.78 224,-393 313.68,-338.17 444.56,-354.4 509.85,-367.5"/>
<polygon fill="#9a32cd" stroke="#9a32cd" points="176.26,-458.8 176.79,-469.38 182.97,-460.78 176.26,-458.8"/>
<text text-anchor="middle" x="267" y="-396" font-family="Helvetica,sans-Serif" font-size="10.00"> elements</text>
</g>
<!-- Node12 -->
<g id="node12" class="node">
<title>Node12</title>
<g id="a_node12"><a xlink:href="structACME_1_1Client_1_1Order.html" target="_top" xlink:title=" ">
<polygon fill="white" stroke="black" points="903,-506.5 903,-525.5 1016,-525.5 1016,-506.5 903,-506.5"/>
<text text-anchor="middle" x="959.5" y="-513.5" font-family="Helvetica,sans-Serif" font-size="10.00">ACME::Client::Order</text>
</a>
</g>
</g>
<!-- Node5&#45;&gt;Node12 -->
<g id="edge14" class="edge">
<title>Node5&#45;&gt;Node12</title>
<path fill="none" stroke="#9a32cd" stroke-dasharray="5,2" d="M189.51,-495.87C198.53,-504.76 210.81,-514.88 224,-520 356.8,-571.57 723,-541.42 865,-530 877.43,-529 890.73,-527.36 903.27,-525.55"/>
<polygon fill="#9a32cd" stroke="#9a32cd" points="191.92,-493.32 182.47,-488.51 186.86,-498.16 191.92,-493.32"/>
<text text-anchor="middle" x="551" y="-585" font-family="Helvetica,sans-Serif" font-size="10.00"> account_url</text>
<text text-anchor="middle" x="551" y="-574" font-family="Helvetica,sans-Serif" font-size="10.00">certificate_url</text>
<text text-anchor="middle" x="551" y="-563" font-family="Helvetica,sans-Serif" font-size="10.00">finalize_url</text>
<text text-anchor="middle" x="551" y="-552" font-family="Helvetica,sans-Serif" font-size="10.00">order_url</text>
</g>
<!-- Node13 -->
<g id="node13" class="node">
<title>Node13</title>
<g id="a_node13"><a xlink:title=" ">
<polygon fill="white" stroke="black" points="497.5,-501 497.5,-531 604.5,-531 604.5,-501 497.5,-501"/>
<text text-anchor="start" x="505.5" y="-519" font-family="Helvetica,sans-Serif" font-size="10.00">std::unordered_set</text>
<text text-anchor="middle" x="551" y="-508" font-family="Helvetica,sans-Serif" font-size="10.00">&lt; std::string &gt;</text>
</a>
</g>
</g>
<!-- Node5&#45;&gt;Node13 -->
<g id="edge16" class="edge">
<title>Node5&#45;&gt;Node13</title>
<path fill="none" stroke="#9a32cd" stroke-dasharray="5,2" d="M211.89,-491.3C215.95,-492.35 220.04,-493.28 224,-494 319.28,-511.42 432.49,-515.39 497.32,-516.1"/>
<polygon fill="#9a32cd" stroke="#9a32cd" points="212.55,-487.85 201.98,-488.53 210.67,-494.6 212.55,-487.85"/>
<text text-anchor="middle" x="267" y="-508" font-family="Helvetica,sans-Serif" font-size="10.00"> keys</text>
</g>
<!-- Node14 -->
<g id="node14" class="node">
<title>Node14</title>
<g id="a_node14"><a xlink:title=" ">
<polygon fill="white" stroke="black" points="631,-599 631,-629 780,-629 780,-599 631,-599"/>
<text text-anchor="start" x="639" y="-617" font-family="Helvetica,sans-Serif" font-size="10.00">std::map&lt; std::string,</text>
<text text-anchor="middle" x="705.5" y="-606" font-family="Helvetica,sans-Serif" font-size="10.00"> ACME::Client::Challenge &gt;</text>
</a>
</g>
</g>
<!-- Node5&#45;&gt;Node14 -->
<g id="edge18" class="edge">
<title>Node5&#45;&gt;Node14</title>
<path fill="none" stroke="#9a32cd" stroke-dasharray="5,2" d="M179.44,-498.4C185.91,-519.52 199.43,-552.47 224,-569 288.65,-612.49 513.01,-616.54 630.87,-615.5"/>
<polygon fill="#9a32cd" stroke="#9a32cd" points="182.76,-497.27 176.68,-488.59 176.02,-499.16 182.76,-497.27"/>
<text text-anchor="middle" x="399.5" y="-615" font-family="Helvetica,sans-Serif" font-size="10.00"> keys</text>
</g>
<!-- Node15 -->
<g id="node15" class="node">
<title>Node15</title>
<g id="a_node15"><a xlink:href="structACME_1_1Client_1_1Challenge.html" target="_top" xlink:title=" ">
<polygon fill="white" stroke="black" points="332.5,-643.5 332.5,-662.5 466.5,-662.5 466.5,-643.5 332.5,-643.5"/>
<text text-anchor="middle" x="399.5" y="-650.5" font-family="Helvetica,sans-Serif" font-size="10.00">ACME::Client::Challenge</text>
</a>
</g>
</g>
<!-- Node5&#45;&gt;Node15 -->
<g id="edge20" class="edge">
<title>Node5&#45;&gt;Node15</title>
<path fill="none" stroke="#9a32cd" stroke-dasharray="5,2" d="M174.83,-498.54C176.51,-530.9 184.9,-595.32 224,-628 253.59,-652.73 296.32,-659.17 332.1,-659.34"/>
<polygon fill="#9a32cd" stroke="#9a32cd" points="178.32,-498.4 174.47,-488.53 171.33,-498.65 178.32,-498.4"/>
<text text-anchor="middle" x="267" y="-683" font-family="Helvetica,sans-Serif" font-size="10.00"> authorization_url</text>
<text text-anchor="middle" x="267" y="-672" font-family="Helvetica,sans-Serif" font-size="10.00">challenge_url</text>
<text text-anchor="middle" x="267" y="-661" font-family="Helvetica,sans-Serif" font-size="10.00">token</text>
</g>
<!-- Node25 -->
<g id="node25" class="node">
<title>Node25</title>
<g id="a_node25"><a xlink:title=" ">
<polygon fill="white" stroke="black" points="328,-207 328,-259 471,-259 471,-207 328,-207"/>
<text text-anchor="start" x="336" y="-247" font-family="Helvetica,sans-Serif" font-size="10.00">std::map&lt; std::string,</text>
<text text-anchor="start" x="336" y="-236" font-family="Helvetica,sans-Serif" font-size="10.00"> std::pair&lt; kv::Version,</text>
<text text-anchor="start" x="336" y="-225" font-family="Helvetica,sans-Serif" font-size="10.00"> std::shared_ptr&lt; untyped</text>
<text text-anchor="middle" x="399.5" y="-214" font-family="Helvetica,sans-Serif" font-size="10.00">::Map &gt; &gt; &gt;</text>
</a>
</g>
</g>
<!-- Node5&#45;&gt;Node25 -->
<g id="edge33" class="edge">
<title>Node5&#45;&gt;Node25</title>
<path fill="none" stroke="#9a32cd" stroke-dasharray="5,2" d="M175.02,-458.94C176.96,-424.24 185.68,-352.54 224,-309 250.85,-278.49 292.18,-259.75 327.88,-248.52"/>
<polygon fill="#9a32cd" stroke="#9a32cd" points="171.51,-459.06 174.59,-469.2 178.51,-459.36 171.51,-459.06"/>
<text text-anchor="middle" x="267" y="-312" font-family="Helvetica,sans-Serif" font-size="10.00"> keys</text>
</g>
<!-- Node6 -->
<g id="node6" class="node">
<title>Node6</title>
<g id="a_node6"><a xlink:title=" ">
<polygon fill="white" stroke="black" points="0,-464 0,-494 104,-494 104,-464 0,-464"/>
<text text-anchor="start" x="8" y="-482" font-family="Helvetica,sans-Serif" font-size="10.00">std::basic_string&lt;</text>
<text text-anchor="middle" x="52" y="-471" font-family="Helvetica,sans-Serif" font-size="10.00"> Char &gt;</text>
</a>
</g>
</g>
<!-- Node6&#45;&gt;Node5 -->
<g id="edge5" class="edge">
<title>Node6&#45;&gt;Node5</title>
<path fill="none" stroke="midnightblue" d="M114.1,-479C123.41,-479 132.68,-479 141,-479"/>
<polygon fill="midnightblue" stroke="midnightblue" points="114.03,-475.5 104.03,-479 114.03,-482.5 114.03,-475.5"/>
</g>
<!-- Node7 -->
<g id="node7" class="node">
<title>Node7</title>
<g id="a_node7"><a xlink:title=" ">
<polygon fill="white" stroke="black" points="1132,-525 1132,-555 1263,-555 1263,-525 1132,-525"/>
<text text-anchor="start" x="1140" y="-543" font-family="Helvetica,sans-Serif" font-size="10.00">std::shared_ptr&lt; crypto</text>
<text text-anchor="middle" x="1197.5" y="-532" font-family="Helvetica,sans-Serif" font-size="10.00">::KeyPair &gt;</text>
</a>
</g>
</g>
<!-- Node7&#45;&gt;Node2 -->
<g id="edge7" class="edge">
<title>Node7&#45;&gt;Node2</title>
<path fill="none" stroke="#9a32cd" stroke-dasharray="5,2" d="M1254.67,-521.48C1288.77,-509.22 1332.58,-491.63 1369,-471 1398.8,-454.12 1429.95,-428.35 1445.82,-414.53"/>
<polygon fill="#9a32cd" stroke="#9a32cd" points="1253.13,-518.31 1244.87,-524.95 1255.47,-524.91 1253.13,-518.31"/>
<text text-anchor="middle" x="1325" y="-524" font-family="Helvetica,sans-Serif" font-size="10.00"> account_key_pair</text>
<text text-anchor="middle" x="1325" y="-513" font-family="Helvetica,sans-Serif" font-size="10.00">service_key</text>
</g>
<!-- Node8 -->
<g id="node8" class="node">
<title>Node8</title>
<g id="a_node8"><a xlink:href="classcrypto_1_1KeyPair.html" target="_top" xlink:title=" ">
<polygon fill="white" stroke="black" points="915,-544.5 915,-563.5 1004,-563.5 1004,-544.5 915,-544.5"/>
<text text-anchor="middle" x="959.5" y="-551.5" font-family="Helvetica,sans-Serif" font-size="10.00">crypto::KeyPair</text>
</a>
</g>
</g>
<!-- Node8&#45;&gt;Node7 -->
<g id="edge8" class="edge">
<title>Node8&#45;&gt;Node7</title>
<path fill="none" stroke="#9a32cd" stroke-dasharray="5,2" d="M1014.07,-550.82C1049.02,-548.75 1094.84,-546.03 1131.81,-543.84"/>
<polygon fill="#9a32cd" stroke="#9a32cd" points="1013.84,-547.33 1004.06,-551.42 1014.25,-554.32 1013.84,-547.33"/>
<text text-anchor="middle" x="1084" y="-551" font-family="Helvetica,sans-Serif" font-size="10.00"> ptr</text>
</g>
<!-- Node9&#45;&gt;Node2 -->
<g id="edge9" class="edge">
<title>Node9&#45;&gt;Node2</title>
<path fill="none" stroke="#9a32cd" stroke-dasharray="5,2" d="M623.33,-378.59C679.6,-379.7 760.05,-381 830.5,-381 830.5,-381 830.5,-381 1198.5,-381 1276.32,-381 1366.79,-391.96 1417.27,-399.07"/>
<polygon fill="#9a32cd" stroke="#9a32cd" points="623.19,-375.08 613.12,-378.38 623.04,-382.08 623.19,-375.08"/>
<text text-anchor="middle" x="959.5" y="-384" font-family="Helvetica,sans-Serif" font-size="10.00"> nonces</text>
</g>
<!-- Node10 -->
<g id="node10" class="node">
<title>Node10</title>
<g id="a_node10"><a xlink:title=" ">
<polygon fill="white" stroke="black" points="671,-252.5 671,-271.5 740,-271.5 740,-252.5 671,-252.5"/>
<text text-anchor="middle" x="705.5" y="-259.5" font-family="Helvetica,sans-Serif" font-size="10.00">std::mutex</text>
</a>
</g>
</g>
<!-- Node10&#45;&gt;Node2 -->
<g id="edge11" class="edge">
<title>Node10&#45;&gt;Node2</title>
<path fill="none" stroke="#9a32cd" stroke-dasharray="5,2" d="M750.42,-268.26C765.49,-270.27 782.46,-272.39 798,-274 938.1,-288.5 975.18,-274.17 1114,-298 1229.72,-317.87 1258.19,-328.18 1369,-367 1392.76,-375.32 1419.15,-387.16 1436.67,-395.4"/>
<polygon fill="#9a32cd" stroke="#9a32cd" points="750.72,-264.76 740.34,-266.89 749.78,-271.7 750.72,-264.76"/>
<text text-anchor="middle" x="1084" y="-312" font-family="Helvetica,sans-Serif" font-size="10.00"> orders_lock</text>
<text text-anchor="middle" x="1084" y="-301" font-family="Helvetica,sans-Serif" font-size="10.00">req_lock</text>
</g>
<!-- Node24 -->
<g id="node24" class="node">
<title>Node24</title>
<g id="a_node24"><a xlink:href="classkv_1_1StoreState.html" target="_top" xlink:title=" ">
<polygon fill="white" stroke="black" points="917,-114.5 917,-133.5 1002,-133.5 1002,-114.5 917,-114.5"/>
<text text-anchor="middle" x="959.5" y="-121.5" font-family="Helvetica,sans-Serif" font-size="10.00">kv::StoreState</text>
</a>
</g>
</g>
<!-- Node10&#45;&gt;Node24 -->
<g id="edge31" class="edge">
<title>Node10&#45;&gt;Node24</title>
<path fill="none" stroke="#9a32cd" stroke-dasharray="5,2" d="M750.07,-252.91C791.28,-243.47 849.1,-227.76 865,-211 886.52,-188.32 860.76,-164.97 883,-143 892.04,-134.07 904.62,-129.14 916.92,-126.47"/>
<polygon fill="#9a32cd" stroke="#9a32cd" points="749.24,-249.51 740.25,-255.11 750.78,-256.34 749.24,-249.51"/>
<text text-anchor="middle" x="831.5" y="-266" font-family="Helvetica,sans-Serif" font-size="10.00"> commit_lock</text>
<text text-anchor="middle" x="831.5" y="-255" font-family="Helvetica,sans-Serif" font-size="10.00">maps_lock</text>
<text text-anchor="middle" x="831.5" y="-244" font-family="Helvetica,sans-Serif" font-size="10.00">version_lock</text>
</g>
<!-- Node11 -->
<g id="node11" class="node">
<title>Node11</title>
<g id="a_node11"><a xlink:title=" ">
<polygon fill="white" stroke="black" points="1134,-462 1134,-492 1261,-492 1261,-462 1134,-462"/>
<text text-anchor="start" x="1142" y="-480" font-family="Helvetica,sans-Serif" font-size="10.00">std::list&lt; ACME::Client</text>
<text text-anchor="middle" x="1197.5" y="-469" font-family="Helvetica,sans-Serif" font-size="10.00">::Order &gt;</text>
</a>
</g>
</g>
<!-- Node11&#45;&gt;Node2 -->
<g id="edge12" class="edge">
<title>Node11&#45;&gt;Node2</title>
<path fill="none" stroke="#9a32cd" stroke-dasharray="5,2" d="M1271.23,-459.9C1301.59,-452.44 1337.14,-443.28 1369,-434 1389.43,-428.05 1412.25,-420.45 1429.46,-414.53"/>
<polygon fill="#9a32cd" stroke="#9a32cd" points="1270.03,-456.59 1261.15,-462.36 1271.69,-463.39 1270.03,-456.59"/>
<text text-anchor="middle" x="1325" y="-459" font-family="Helvetica,sans-Serif" font-size="10.00"> active_orders</text>
</g>
<!-- Node12&#45;&gt;Node11 -->
<g id="edge13" class="edge">
<title>Node12&#45;&gt;Node11</title>
<path fill="none" stroke="#9a32cd" stroke-dasharray="5,2" d="M1026.32,-505.12C1059.92,-499.57 1100.6,-492.85 1133.75,-487.37"/>
<polygon fill="#9a32cd" stroke="#9a32cd" points="1025.43,-501.72 1016.13,-506.81 1026.57,-508.63 1025.43,-501.72"/>
<text text-anchor="middle" x="1084" y="-502" font-family="Helvetica,sans-Serif" font-size="10.00"> elements</text>
</g>
<!-- Node13&#45;&gt;Node12 -->
<g id="edge15" class="edge">
<title>Node13&#45;&gt;Node12</title>
<path fill="none" stroke="#9a32cd" stroke-dasharray="5,2" d="M615.01,-516C693.88,-516 827.73,-516 902.94,-516"/>
<polygon fill="#9a32cd" stroke="#9a32cd" points="614.73,-512.5 604.73,-516 614.73,-519.5 614.73,-512.5"/>
<text text-anchor="middle" x="705.5" y="-519" font-family="Helvetica,sans-Serif" font-size="10.00"> authorizations</text>
</g>
<!-- Node14&#45;&gt;Node12 -->
<g id="edge17" class="edge">
<title>Node14&#45;&gt;Node12</title>
<path fill="none" stroke="#9a32cd" stroke-dasharray="5,2" d="M790.02,-603.43C816.16,-596.87 843.7,-586.23 865,-569 878.29,-558.25 869.55,-545.55 883,-535 888.85,-530.41 895.67,-526.92 902.77,-524.26"/>
<polygon fill="#9a32cd" stroke="#9a32cd" points="789.03,-600.07 780.09,-605.75 790.63,-606.89 789.03,-600.07"/>
<text text-anchor="middle" x="831.5" y="-603" font-family="Helvetica,sans-Serif" font-size="10.00"> challenges</text>
</g>
<!-- Node15&#45;&gt;Node14 -->
<g id="edge19" class="edge">
<title>Node15&#45;&gt;Node14</title>
<path fill="none" stroke="#9a32cd" stroke-dasharray="5,2" d="M476.7,-644.68C517.22,-640.1 567.87,-634.11 613,-628 618.73,-627.22 624.66,-626.39 630.62,-625.53"/>
<polygon fill="#9a32cd" stroke="#9a32cd" points="476.17,-641.22 466.62,-645.82 476.95,-648.18 476.17,-641.22"/>
<text text-anchor="middle" x="551" y="-645" font-family="Helvetica,sans-Serif" font-size="10.00"> elements</text>
</g>
<!-- Node16 -->
<g id="node16" class="node">
<title>Node16</title>
<g id="a_node16"><a xlink:title=" ">
<polygon fill="white" stroke="black" points="1400,-260 1400,-290 1515,-290 1515,-260 1400,-260"/>
<text text-anchor="start" x="1408" y="-278" font-family="Helvetica,sans-Serif" font-size="10.00">std::shared_ptr&lt; ccf</text>
<text text-anchor="middle" x="1457.5" y="-267" font-family="Helvetica,sans-Serif" font-size="10.00">::RPCSessions &gt;</text>
</a>
</g>
</g>
<!-- Node16&#45;&gt;Node1 -->
<g id="edge22" class="edge">
<title>Node16&#45;&gt;Node1</title>
<path fill="none" stroke="#9a32cd" stroke-dasharray="5,2" d="M1525.5,-275C1559.3,-275 1599.43,-275 1629.68,-275"/>
<polygon fill="#9a32cd" stroke="#9a32cd" points="1525.23,-271.5 1515.23,-275 1525.23,-278.5 1525.23,-271.5"/>
<text text-anchor="middle" x="1579" y="-278" font-family="Helvetica,sans-Serif" font-size="10.00"> rpc_sessions</text>
</g>
<!-- Node17 -->
<g id="node17" class="node">
<title>Node17</title>
<g id="a_node17"><a xlink:href="classccf_1_1RPCSessions.html" target="_top" xlink:title=" ">
<polygon fill="white" stroke="black" points="1148.5,-212.5 1148.5,-231.5 1246.5,-231.5 1246.5,-212.5 1148.5,-212.5"/>
<text text-anchor="middle" x="1197.5" y="-219.5" font-family="Helvetica,sans-Serif" font-size="10.00">ccf::RPCSessions</text>
</a>
</g>
</g>
<!-- Node17&#45;&gt;Node16 -->
<g id="edge23" class="edge">
<title>Node17&#45;&gt;Node16</title>
<path fill="none" stroke="#9a32cd" stroke-dasharray="5,2" d="M1254.92,-233.59C1297.83,-242.4 1356.62,-254.48 1399.64,-263.32"/>
<polygon fill="#9a32cd" stroke="#9a32cd" points="1255.42,-230.12 1244.92,-231.54 1254.01,-236.98 1255.42,-230.12"/>
<text text-anchor="middle" x="1325" y="-260" font-family="Helvetica,sans-Serif" font-size="10.00"> ptr</text>
</g>
<!-- Node18 -->
<g id="node18" class="node">
<title>Node18</title>
<g id="a_node18"><a xlink:title=" ">
<polygon fill="white" stroke="black" points="883,-229 883,-259 1036,-259 1036,-229 883,-229"/>
<text text-anchor="start" x="891" y="-247" font-family="Helvetica,sans-Serif" font-size="10.00">std::enable_shared</text>
<text text-anchor="middle" x="959.5" y="-236" font-family="Helvetica,sans-Serif" font-size="10.00">_from_this&lt; RPCSessions &gt;</text>
</a>
</g>
</g>
<!-- Node18&#45;&gt;Node17 -->
<g id="edge24" class="edge">
<title>Node18&#45;&gt;Node17</title>
<path fill="none" stroke="midnightblue" d="M1046.21,-236.01C1080.62,-232.8 1119,-229.22 1148.36,-226.49"/>
<polygon fill="midnightblue" stroke="midnightblue" points="1045.78,-232.54 1036.15,-236.95 1046.43,-239.5 1045.78,-232.54"/>
</g>
<!-- Node19 -->
<g id="node19" class="node">
<title>Node19</title>
<g id="a_node19"><a xlink:href="classccf_1_1AbstractRPCResponder.html" target="_top" xlink:title=" ">
<polygon fill="white" stroke="black" points="885.5,-190.5 885.5,-209.5 1033.5,-209.5 1033.5,-190.5 885.5,-190.5"/>
<text text-anchor="middle" x="959.5" y="-197.5" font-family="Helvetica,sans-Serif" font-size="10.00">ccf::AbstractRPCResponder</text>
</a>
</g>
</g>
<!-- Node19&#45;&gt;Node17 -->
<g id="edge25" class="edge">
<title>Node19&#45;&gt;Node17</title>
<path fill="none" stroke="midnightblue" d="M1043.78,-207.76C1078.81,-211.03 1118.32,-214.71 1148.37,-217.51"/>
<polygon fill="midnightblue" stroke="midnightblue" points="1043.84,-204.25 1033.56,-206.81 1043.19,-211.22 1043.84,-204.25"/>
</g>
<!-- Node20 -->
<g id="node20" class="node">
<title>Node20</title>
<g id="a_node20"><a xlink:href="classhttp_1_1ErrorReporter.html" target="_top" xlink:title=" ">
<polygon fill="white" stroke="black" points="906,-152.5 906,-171.5 1013,-171.5 1013,-152.5 906,-152.5"/>
<text text-anchor="middle" x="959.5" y="-159.5" font-family="Helvetica,sans-Serif" font-size="10.00">http::ErrorReporter</text>
</a>
</g>
</g>
<!-- Node20&#45;&gt;Node17 -->
<g id="edge26" class="edge">
<title>Node20&#45;&gt;Node17</title>
<path fill="none" stroke="midnightblue" d="M1008.31,-174.01C1017.5,-176.32 1027.05,-178.73 1036,-181 1078.23,-191.71 1126.69,-204.1 1159.21,-212.44"/>
<polygon fill="midnightblue" stroke="midnightblue" points="1009.08,-170.59 998.53,-171.54 1007.37,-177.38 1009.08,-170.59"/>
</g>
<!-- Node21 -->
<g id="node21" class="node">
<title>Node21</title>
<g id="a_node21"><a xlink:title=" ">
<polygon fill="white" stroke="black" points="1401,-211 1401,-241 1514,-241 1514,-211 1401,-211"/>
<text text-anchor="start" x="1409" y="-229" font-family="Helvetica,sans-Serif" font-size="10.00">std::shared_ptr&lt; kv</text>
<text text-anchor="middle" x="1457.5" y="-218" font-family="Helvetica,sans-Serif" font-size="10.00">::Store &gt;</text>
</a>
</g>
</g>
<!-- Node21&#45;&gt;Node1 -->
<g id="edge27" class="edge">
<title>Node21&#45;&gt;Node1</title>
<path fill="none" stroke="#9a32cd" stroke-dasharray="5,2" d="M1524.12,-240.32C1551.33,-246.32 1583.21,-253.41 1612,-260 1619.62,-261.74 1627.74,-263.64 1635.55,-265.47"/>
<polygon fill="#9a32cd" stroke="#9a32cd" points="1524.84,-236.9 1514.32,-238.17 1523.33,-243.73 1524.84,-236.9"/>
<text text-anchor="middle" x="1579" y="-263" font-family="Helvetica,sans-Serif" font-size="10.00"> store</text>
</g>
<!-- Node22 -->
<g id="node22" class="node">
<title>Node22</title>
<g id="a_node22"><a xlink:href="classkv_1_1Store.html" target="_top" xlink:title=" ">
<polygon fill="white" stroke="black" points="1168,-76.5 1168,-95.5 1227,-95.5 1227,-76.5 1168,-76.5"/>
<text text-anchor="middle" x="1197.5" y="-83.5" font-family="Helvetica,sans-Serif" font-size="10.00">kv::Store</text>
</a>
</g>
</g>
<!-- Node22&#45;&gt;Node21 -->
<g id="edge28" class="edge">
<title>Node22&#45;&gt;Node21</title>
<path fill="none" stroke="#9a32cd" stroke-dasharray="5,2" d="M1220.49,-101.46C1254.84,-125.12 1323.84,-170.76 1387,-201 1394.4,-204.54 1402.45,-207.88 1410.35,-210.89"/>
<polygon fill="#9a32cd" stroke="#9a32cd" points="1222.35,-98.49 1212.14,-95.67 1218.36,-104.24 1222.35,-98.49"/>
<text text-anchor="middle" x="1325" y="-194" font-family="Helvetica,sans-Serif" font-size="10.00"> ptr</text>
</g>
<!-- Node23 -->
<g id="node23" class="node">
<title>Node23</title>
<g id="a_node23"><a xlink:href="classkv_1_1AbstractStore.html" target="_top" xlink:title=" ">
<polygon fill="white" stroke="black" points="909.5,-0.5 909.5,-19.5 1009.5,-19.5 1009.5,-0.5 909.5,-0.5"/>
<text text-anchor="middle" x="959.5" y="-7.5" font-family="Helvetica,sans-Serif" font-size="10.00">kv::AbstractStore</text>
</a>
</g>
</g>
<!-- Node23&#45;&gt;Node22 -->
<g id="edge29" class="edge">
<title>Node23&#45;&gt;Node22</title>
<path fill="none" stroke="midnightblue" d="M1011.39,-22.11C1019.65,-24.27 1028.09,-26.61 1036,-29 1084.82,-43.78 1140.72,-64.52 1171.99,-76.48"/>
<polygon fill="midnightblue" stroke="midnightblue" points="1012,-18.65 1001.44,-19.55 1010.26,-25.43 1012,-18.65"/>
</g>
<!-- Node24&#45;&gt;Node22 -->
<g id="edge30" class="edge">
<title>Node24&#45;&gt;Node22</title>
<path fill="none" stroke="midnightblue" d="M1012.38,-116.06C1042.13,-111.46 1080.18,-105.51 1114,-100 1131.92,-97.08 1152.01,-93.67 1167.88,-90.95"/>
<polygon fill="midnightblue" stroke="midnightblue" points="1011.57,-112.64 1002.22,-117.63 1012.64,-119.56 1011.57,-112.64"/>
</g>
<!-- Node25&#45;&gt;Node24 -->
<g id="edge32" class="edge">
<title>Node25&#45;&gt;Node24</title>
<path fill="none" stroke="#9a32cd" stroke-dasharray="5,2" d="M481.24,-217.28C558.07,-202.32 676.92,-179.16 780,-159 826.8,-149.85 880.49,-139.32 916.67,-132.22"/>
<polygon fill="#9a32cd" stroke="#9a32cd" points="480.29,-213.9 471.15,-219.25 481.63,-220.77 480.29,-213.9"/>
<text text-anchor="middle" x="705.5" y="-191" font-family="Helvetica,sans-Serif" font-size="10.00"> maps</text>
</g>
<!-- Node26 -->
<g id="node26" class="node">
<title>Node26</title>
<g id="a_node26"><a xlink:title=" ">
<polygon fill="white" stroke="black" points="638.5,-98 638.5,-150 772.5,-150 772.5,-98 638.5,-98"/>
<text text-anchor="start" x="646.5" y="-138" font-family="Helvetica,sans-Serif" font-size="10.00">std::unordered_map</text>
<text text-anchor="start" x="646.5" y="-127" font-family="Helvetica,sans-Serif" font-size="10.00">&lt; Version, std::tuple</text>
<text text-anchor="start" x="646.5" y="-116" font-family="Helvetica,sans-Serif" font-size="10.00">&lt; std::unique_ptr&lt; kv</text>
<text text-anchor="middle" x="705.5" y="-105" font-family="Helvetica,sans-Serif" font-size="10.00">::PendingTx &gt;, bool &gt; &gt;</text>
</a>
</g>
</g>
<!-- Node26&#45;&gt;Node24 -->
<g id="edge34" class="edge">
<title>Node26&#45;&gt;Node24</title>
<path fill="none" stroke="#9a32cd" stroke-dasharray="5,2" d="M782.81,-124C826.82,-124 880.46,-124 916.8,-124"/>
<polygon fill="#9a32cd" stroke="#9a32cd" points="782.71,-120.5 772.71,-124 782.71,-127.5 782.71,-120.5"/>
<text text-anchor="middle" x="831.5" y="-127" font-family="Helvetica,sans-Serif" font-size="10.00"> pending_txs</text>
</g>
<!-- Node27 -->
<g id="node27" class="node">
<title>Node27</title>
<g id="a_node27"><a xlink:href="classkv_1_1ExecutionWrapperStore.html" target="_top" xlink:title=" ">
<polygon fill="white" stroke="black" points="885.5,-76.5 885.5,-95.5 1033.5,-95.5 1033.5,-76.5 885.5,-76.5"/>
<text text-anchor="middle" x="959.5" y="-83.5" font-family="Helvetica,sans-Serif" font-size="10.00">kv::ExecutionWrapperStore</text>
</a>
</g>
</g>
<!-- Node27&#45;&gt;Node22 -->
<g id="edge35" class="edge">
<title>Node27&#45;&gt;Node22</title>
<path fill="none" stroke="midnightblue" d="M1043.81,-86C1087.06,-86 1137.13,-86 1167.8,-86"/>
<polygon fill="midnightblue" stroke="midnightblue" points="1043.56,-82.5 1033.56,-86 1043.56,-89.5 1043.56,-82.5"/>
</g>
<!-- Node28 -->
<g id="node28" class="node">
<title>Node28</title>
<g id="a_node28"><a xlink:href="classkv_1_1ReadOnlyStore.html" target="_top" xlink:title=" ">
<polygon fill="white" stroke="black" points="906,-38.5 906,-57.5 1013,-57.5 1013,-38.5 906,-38.5"/>
<text text-anchor="middle" x="959.5" y="-45.5" font-family="Helvetica,sans-Serif" font-size="10.00">kv::ReadOnlyStore</text>
</a>
</g>
</g>
<!-- Node28&#45;&gt;Node22 -->
<g id="edge36" class="edge">
<title>Node28&#45;&gt;Node22</title>
<path fill="none" stroke="midnightblue" d="M1023.25,-58.1C1070.24,-65.67 1132.33,-75.67 1167.99,-81.41"/>
<polygon fill="midnightblue" stroke="midnightblue" points="1023.6,-54.61 1013.17,-56.48 1022.49,-61.53 1023.6,-54.61"/>
</g>
<!-- Node29 -->
<g id="node29" class="node">
<title>Node29</title>
<g id="a_node29"><a xlink:title=" ">
<polygon fill="white" stroke="black" points="1387,-162 1387,-192 1528,-192 1528,-162 1387,-162"/>
<text text-anchor="start" x="1395" y="-180" font-family="Helvetica,sans-Serif" font-size="10.00">std::shared_ptr&lt; Abstract</text>
<text text-anchor="middle" x="1457.5" y="-169" font-family="Helvetica,sans-Serif" font-size="10.00">Writer &gt;</text>
</a>
</g>
</g>
<!-- Node29&#45;&gt;Node1 -->
<g id="edge37" class="edge">
<title>Node29&#45;&gt;Node1</title>
<path fill="none" stroke="#9a32cd" stroke-dasharray="5,2" d="M1522.32,-195.14C1550.54,-204.25 1583.68,-216.45 1612,-231 1631.09,-240.8 1651.12,-255.54 1663.46,-265.21"/>
<polygon fill="#9a32cd" stroke="#9a32cd" points="1523.14,-191.73 1512.55,-192.05 1521.03,-198.41 1523.14,-191.73"/>
<text text-anchor="middle" x="1579" y="-234" font-family="Helvetica,sans-Serif" font-size="10.00"> to_host</text>
</g>
</g>
</svg>
