<?xml version="1.0" encoding="UTF-8" standalone="no"?>
<!DOCTYPE svg PUBLIC "-//W3C//DTD SVG 1.1//EN"
 "http://www.w3.org/Graphics/SVG/1.1/DTD/svg11.dtd">
<!-- Generated by graphviz version 2.43.0 (0)
 -->
<!-- Title: src/ds/cli_helper.h Pages: 1 -->
<svg width="448pt" height="162pt"
 viewBox="0.00 0.00 447.50 162.00" xmlns="http://www.w3.org/2000/svg" xmlns:xlink="http://www.w3.org/1999/xlink">
<g id="graph0" class="graph" transform="scale(1 1) rotate(0) translate(4 158)">
<title>src/ds/cli_helper.h</title>
<polygon fill="white" stroke="transparent" points="-4,4 -4,-158 443.5,-158 443.5,4 -4,4"/>
<!-- Node1 -->
<g id="node1" class="node">
<title>Node1</title>
<g id="a_node1"><a xlink:title=" ">
<polygon fill="#bfbfbf" stroke="black" points="265,-134.5 265,-153.5 369,-153.5 369,-134.5 265,-134.5"/>
<text text-anchor="middle" x="317" y="-141.5" font-family="Helvetica,sans-Serif" font-size="10.00">src/ds/cli_helper.h</text>
</a>
</g>
</g>
<!-- Node2 -->
<g id="node2" class="node">
<title>Node2</title>
<g id="a_node2"><a xlink:href="perf__client_8h.html" target="_top" xlink:title=" ">
<polygon fill="white" stroke="black" points="119.5,-67.5 119.5,-97.5 230.5,-97.5 230.5,-67.5 119.5,-67.5"/>
<text text-anchor="start" x="127.5" y="-85.5" font-family="Helvetica,sans-Serif" font-size="10.00">src/clients/perf/perf</text>
<text text-anchor="middle" x="175" y="-74.5" font-family="Helvetica,sans-Serif" font-size="10.00">_client.h</text>
</a>
</g>
</g>
<!-- Node1&#45;&gt;Node2 -->
<g id="edge1" class="edge">
<title>Node1&#45;&gt;Node2</title>
<path fill="none" stroke="midnightblue" d="M287.38,-130.59C264.36,-120.94 232.41,-107.56 208.47,-97.52"/>
<polygon fill="midnightblue" stroke="midnightblue" points="286.08,-133.84 296.65,-134.48 288.78,-127.38 286.08,-133.84"/>
</g>
<!-- Node5 -->
<g id="node5" class="node">
<title>Node5</title>
<g id="a_node5"><a xlink:href="acme__challenge__server_8h.html" target="_top" xlink:title=" ">
<polygon fill="white" stroke="black" points="248.5,-67.5 248.5,-97.5 385.5,-97.5 385.5,-67.5 248.5,-67.5"/>
<text text-anchor="start" x="256.5" y="-85.5" font-family="Helvetica,sans-Serif" font-size="10.00">src/host/acme_challenge</text>
<text text-anchor="middle" x="317" y="-74.5" font-family="Helvetica,sans-Serif" font-size="10.00">_server.h</text>
</a>
</g>
</g>
<!-- Node1&#45;&gt;Node5 -->
<g id="edge4" class="edge">
<title>Node1&#45;&gt;Node5</title>
<path fill="none" stroke="midnightblue" d="M317,-124.23C317,-115.59 317,-105.5 317,-97.52"/>
<polygon fill="midnightblue" stroke="midnightblue" points="313.5,-124.48 317,-134.48 320.5,-124.48 313.5,-124.48"/>
</g>
<!-- Node6 -->
<g id="node6" class="node">
<title>Node6</title>
<g id="a_node6"><a xlink:href="host_2main_8cpp.html" target="_top" xlink:title=" ">
<polygon fill="white" stroke="black" points="336.5,-6 336.5,-25 439.5,-25 439.5,-6 336.5,-6"/>
<text text-anchor="middle" x="388" y="-13" font-family="Helvetica,sans-Serif" font-size="10.00">src/host/main.cpp</text>
</a>
</g>
</g>
<!-- Node1&#45;&gt;Node6 -->
<g id="edge6" class="edge">
<title>Node1&#45;&gt;Node6</title>
<path fill="none" stroke="midnightblue" d="M355.38,-130.5C370.51,-123.48 386.32,-113.02 395,-98 408.57,-74.51 397.99,-40.7 391.75,-25.05"/>
<polygon fill="midnightblue" stroke="midnightblue" points="353.95,-127.31 346.12,-134.44 356.69,-133.75 353.95,-127.31"/>
</g>
<!-- Node3 -->
<g id="node3" class="node">
<title>Node3</title>
<g id="a_node3"><a xlink:href="tpcc__client_8cpp.html" target="_top" xlink:title=" ">
<polygon fill="white" stroke="black" points="0,-0.5 0,-30.5 116,-30.5 116,-0.5 0,-0.5"/>
<text text-anchor="start" x="8" y="-18.5" font-family="Helvetica,sans-Serif" font-size="10.00">src/apps/tpcc/clients</text>
<text text-anchor="middle" x="58" y="-7.5" font-family="Helvetica,sans-Serif" font-size="10.00">/tpcc_client.cpp</text>
</a>
</g>
</g>
<!-- Node2&#45;&gt;Node3 -->
<g id="edge2" class="edge">
<title>Node2&#45;&gt;Node3</title>
<path fill="none" stroke="midnightblue" d="M140.68,-62.44C122.33,-52.24 100.12,-39.9 83.34,-30.58"/>
<polygon fill="midnightblue" stroke="midnightblue" points="139.17,-65.6 149.61,-67.4 142.57,-59.48 139.17,-65.6"/>
</g>
<!-- Node4 -->
<g id="node4" class="node">
<title>Node4</title>
<g id="a_node4"><a xlink:href="scenario__perf__client_8cpp.html" target="_top" xlink:title=" ">
<polygon fill="white" stroke="black" points="134.5,-0.5 134.5,-30.5 267.5,-30.5 267.5,-0.5 134.5,-0.5"/>
<text text-anchor="start" x="142.5" y="-18.5" font-family="Helvetica,sans-Serif" font-size="10.00">src/clients/perf/scenario</text>
<text text-anchor="middle" x="201" y="-7.5" font-family="Helvetica,sans-Serif" font-size="10.00">_perf_client.cpp</text>
</a>
</g>
</g>
<!-- Node2&#45;&gt;Node4 -->
<g id="edge3" class="edge">
<title>Node2&#45;&gt;Node4</title>
<path fill="none" stroke="midnightblue" d="M184.4,-57.99C188.08,-48.8 192.17,-38.58 195.37,-30.58"/>
<polygon fill="midnightblue" stroke="midnightblue" points="181.11,-56.81 180.64,-67.4 187.61,-59.41 181.11,-56.81"/>
</g>
<!-- Node5&#45;&gt;Node6 -->
<g id="edge5" class="edge">
<title>Node5&#45;&gt;Node6</title>
<path fill="none" stroke="midnightblue" d="M340.12,-60.34C353.15,-48.4 368.74,-34.14 378.5,-25.19"/>
<polygon fill="midnightblue" stroke="midnightblue" points="337.42,-58.06 332.41,-67.4 342.15,-63.22 337.42,-58.06"/>
</g>
</g>
</svg>
