<?xml version="1.0" encoding="UTF-8" standalone="no"?>
<!DOCTYPE svg PUBLIC "-//W3C//DTD SVG 1.1//EN"
 "http://www.w3.org/Graphics/SVG/1.1/DTD/svg11.dtd">
<!-- Generated by graphviz version 2.43.0 (0)
 -->
<!-- Title: src/ds/cli_helper.h Pages: 1 -->
<!--zoomable 386 -->
<svg id="main" version="1.1" xmlns="http://www.w3.org/2000/svg" xmlns:xlink="http://www.w3.org/1999/xlink" xml:space="preserve" onload="init(evt)">
<style type="text/css"><![CDATA[
.edge:hover path { stroke: red; }
.edge:hover polygon { stroke: red; fill: red; }
]]></style>
<script type="text/javascript"><![CDATA[
var edges = document.getElementsByTagName('g');
if (edges && edges.length) {
  for (var i=0;i<edges.length;i++) {
    if (edges[i].id.substr(0,4)=='edge') {
      edges[i].setAttribute('class','edge');
    }
  }
}
]]></script>
        <defs>
                <circle id="rim" cx="0" cy="0" r="7"/>
                <circle id="rim2" cx="0" cy="0" r="3.5"/>
                <g id="zoomPlus">
                        <use xlink:href="#rim" fill="#404040">
                                <set attributeName="fill" to="#808080" begin="zoomplus.mouseover" end="zoomplus.mouseout"/>
                        </use>
                        <path d="M-4,0h8M0,-4v8" fill="none" stroke="white" stroke-width="1.5" pointer-events="none"/>
                </g>
                <g id="zoomMin">
                        <use xlink:href="#rim" fill="#404040">
                                <set attributeName="fill" to="#808080" begin="zoomminus.mouseover" end="zoomminus.mouseout"/>
                        </use>
                        <path d="M-4,0h8" fill="none" stroke="white" stroke-width="1.5" pointer-events="none"/>
                </g>
                <g id="dirArrow">
                        <path fill="none" stroke="white" stroke-width="1.5" d="M0,-3.0v7 M-2.5,-0.5L0,-3.0L2.5,-0.5"/>
                </g>
               <g id="resetDef">
                       <use xlink:href="#rim2" fill="#404040">
                               <set attributeName="fill" to="#808080" begin="reset.mouseover" end="reset.mouseout"/>
                       </use>
               </g>
        </defs>

<script type="text/javascript">
var viewWidth = 1032;
var viewHeight = 386;
var sectionId = 'dynsection-0';
</script>
<script xlink:href="svgpan.js"/>
<svg id="graph" class="graph">
<g id="viewport">
<title>src/ds/cli_helper.h</title>
<polygon fill="white" stroke="transparent" points="-4,4 -4,-382 1027.5,-382 1027.5,4 -4,4"/>
<!-- Node1 -->
<g id="node1" class="node">
<title>Node1</title>
<g id="a_node1"><a xlink:title=" ">
<polygon fill="#bfbfbf" stroke="black" points="581,-358.5 581,-377.5 685,-377.5 685,-358.5 581,-358.5"/>
<text text-anchor="middle" x="633" y="-365.5" font-family="Helvetica,sans-Serif" font-size="10.00">src/ds/cli_helper.h</text>
</a>
</g>
</g>
<!-- Node2 -->
<g id="node2" class="node">
<title>Node2</title>
<g id="a_node2"><a xlink:href="san_8h.html" target="_top" xlink:title=" ">
<polygon fill="white" stroke="black" points="231,-230 231,-249 325,-249 325,-230 231,-230"/>
<text text-anchor="middle" x="278" y="-237" font-family="Helvetica,sans-Serif" font-size="10.00">ccf/crypto/san.h</text>
</a>
</g>
</g>
<!-- Node1&#45;&gt;Node2 -->
<g id="edge1" class="edge">
<title>Node1&#45;&gt;Node2</title>
<path fill="none" stroke="midnightblue" d="M599.28,-358.5C567.25,-350.15 517.91,-336.58 476,-322 414.44,-300.58 344.33,-270.27 306.25,-253.3"/>
<polygon fill="midnightblue" stroke="midnightblue" points="307.4,-249.98 296.84,-249.08 304.54,-256.36 307.4,-249.98"/>
</g>
<!-- Node8 -->
<g id="node8" class="node">
<title>Node8</title>
<g id="a_node8"><a xlink:href="nonstd_8h.html" target="_top" xlink:title=" ">
<polygon fill="white" stroke="black" points="161,-56.5 161,-75.5 251,-75.5 251,-56.5 161,-56.5"/>
<text text-anchor="middle" x="206" y="-63.5" font-family="Helvetica,sans-Serif" font-size="10.00">ccf/ds/nonstd.h</text>
</a>
</g>
</g>
<!-- Node1&#45;&gt;Node8 -->
<g id="edge22" class="edge">
<title>Node1&#45;&gt;Node8</title>
<path fill="none" stroke="midnightblue" d="M580.68,-363.93C458.55,-355.34 165,-325.82 165,-240.5 165,-240.5 165,-240.5 165,-177 165,-142.52 182.91,-105.56 195.06,-84.47"/>
<polygon fill="midnightblue" stroke="midnightblue" points="198.16,-86.09 200.3,-75.71 192.16,-82.49 198.16,-86.09"/>
</g>
<!-- Node14 -->
<g id="node14" class="node">
<title>Node14</title>
<g id="a_node14"><a xlink:title=" ">
<polygon fill="white" stroke="#bfbfbf" points="481.5,-56.5 481.5,-75.5 560.5,-75.5 560.5,-56.5 481.5,-56.5"/>
<text text-anchor="middle" x="521" y="-63.5" font-family="Helvetica,sans-Serif" font-size="10.00">fmt/format.h</text>
</a>
</g>
</g>
<!-- Node1&#45;&gt;Node14 -->
<g id="edge35" class="edge">
<title>Node1&#45;&gt;Node14</title>
<path fill="none" stroke="midnightblue" d="M634.66,-358.1C640.65,-323.14 658.1,-193.13 603,-112 592.8,-96.98 575.87,-86.5 560.03,-79.45"/>
<polygon fill="midnightblue" stroke="midnightblue" points="560.97,-76.05 550.38,-75.5 558.31,-82.53 560.97,-76.05"/>
</g>
<!-- Node17 -->
<g id="node17" class="node">
<title>Node17</title>
<g id="a_node17"><a xlink:href="node__info__network_8h.html" target="_top" xlink:title=" ">
<polygon fill="white" stroke="black" points="485,-291.5 485,-321.5 605,-321.5 605,-291.5 485,-291.5"/>
<text text-anchor="start" x="493" y="-309.5" font-family="Helvetica,sans-Serif" font-size="10.00">ccf/service/node_info</text>
<text text-anchor="middle" x="545" y="-298.5" font-family="Helvetica,sans-Serif" font-size="10.00">_network.h</text>
</a>
</g>
</g>
<!-- Node1&#45;&gt;Node17 -->
<g id="edge23" class="edge">
<title>Node1&#45;&gt;Node17</title>
<path fill="none" stroke="midnightblue" d="M620.39,-358.48C608.36,-350.34 589.8,-337.79 574.1,-327.18"/>
<polygon fill="midnightblue" stroke="midnightblue" points="575.98,-324.22 565.74,-321.52 572.06,-330.02 575.98,-324.22"/>
</g>
<!-- Node19 -->
<g id="node19" class="node">
<title>Node19</title>
<g id="a_node19"><a xlink:title=" ">
<polygon fill="white" stroke="#bfbfbf" points="790,-168.5 790,-187.5 846,-187.5 846,-168.5 790,-168.5"/>
<text text-anchor="middle" x="818" y="-175.5" font-family="Helvetica,sans-Serif" font-size="10.00">optional</text>
</a>
</g>
</g>
<!-- Node1&#45;&gt;Node19 -->
<g id="edge34" class="edge">
<title>Node1&#45;&gt;Node19</title>
<path fill="none" stroke="midnightblue" d="M656.05,-358.49C693.06,-343.56 765.32,-309.02 802,-255 813.57,-237.96 817.03,-214.2 817.94,-197.8"/>
<polygon fill="midnightblue" stroke="midnightblue" points="821.44,-197.9 818.23,-187.8 814.44,-197.69 821.44,-197.9"/>
</g>
<!-- Node20 -->
<g id="node20" class="node">
<title>Node20</title>
<g id="a_node20"><a xlink:title=" ">
<polygon fill="white" stroke="#bfbfbf" points="849.5,-297 849.5,-316 944.5,-316 944.5,-297 849.5,-297"/>
<text text-anchor="middle" x="897" y="-304" font-family="Helvetica,sans-Serif" font-size="10.00">CLI11/CLI11.hpp</text>
</a>
</g>
</g>
<!-- Node1&#45;&gt;Node20 -->
<g id="edge32" class="edge">
<title>Node1&#45;&gt;Node20</title>
<path fill="none" stroke="midnightblue" d="M671.75,-358.49C712.44,-349.53 778.26,-334.96 835,-322 840.06,-320.85 845.34,-319.63 850.6,-318.41"/>
<polygon fill="midnightblue" stroke="midnightblue" points="851.68,-321.75 860.62,-316.07 850.09,-314.93 851.68,-321.75"/>
</g>
<!-- Node21 -->
<g id="node21" class="node">
<title>Node21</title>
<g id="a_node21"><a xlink:title=" ">
<polygon fill="white" stroke="#bfbfbf" points="962.5,-297 962.5,-316 1023.5,-316 1023.5,-297 962.5,-297"/>
<text text-anchor="middle" x="993" y="-304" font-family="Helvetica,sans-Serif" font-size="10.00">charconv</text>
</a>
</g>
</g>
<!-- Node1&#45;&gt;Node21 -->
<g id="edge33" class="edge">
<title>Node1&#45;&gt;Node21</title>
<path fill="none" stroke="midnightblue" d="M685.09,-363.19C749.15,-357.7 860.84,-345.55 954,-322 956.99,-321.25 960.06,-320.34 963.11,-319.36"/>
<polygon fill="midnightblue" stroke="midnightblue" points="964.34,-322.63 972.62,-316.02 962.02,-316.03 964.34,-322.63"/>
</g>
<!-- Node3 -->
<g id="node3" class="node">
<title>Node3</title>
<g id="a_node3"><a xlink:href="json_8h.html" target="_top" xlink:title=" ">
<polygon fill="white" stroke="black" points="523.5,-168.5 523.5,-187.5 600.5,-187.5 600.5,-168.5 523.5,-168.5"/>
<text text-anchor="middle" x="562" y="-175.5" font-family="Helvetica,sans-Serif" font-size="10.00">ccf/ds/json.h</text>
</a>
</g>
</g>
<!-- Node2&#45;&gt;Node3 -->
<g id="edge2" class="edge">
<title>Node2&#45;&gt;Node3</title>
<path fill="none" stroke="midnightblue" d="M318.69,-229.98C370.09,-219.21 458.45,-200.69 513.36,-189.19"/>
<polygon fill="midnightblue" stroke="midnightblue" points="514.14,-192.6 523.21,-187.13 512.7,-185.75 514.14,-192.6"/>
</g>
<!-- Node5 -->
<g id="node5" class="node">
<title>Node5</title>
<g id="a_node5"><a xlink:title=" ">
<polygon fill="white" stroke="#bfbfbf" points="388,-0.5 388,-19.5 432,-19.5 432,-0.5 388,-0.5"/>
<text text-anchor="middle" x="410" y="-7.5" font-family="Helvetica,sans-Serif" font-size="10.00">string</text>
</a>
</g>
</g>
<!-- Node2&#45;&gt;Node5 -->
<g id="edge21" class="edge">
<title>Node2&#45;&gt;Node5</title>
<path fill="none" stroke="midnightblue" d="M276.43,-229.76C271.86,-201.35 261.34,-110.3 303,-56 312.56,-43.54 350.14,-29.57 378.08,-20.55"/>
<polygon fill="midnightblue" stroke="midnightblue" points="379.38,-23.81 387.87,-17.46 377.28,-17.13 379.38,-23.81"/>
</g>
<!-- Node2&#45;&gt;Node8 -->
<g id="edge19" class="edge">
<title>Node2&#45;&gt;Node8</title>
<path fill="none" stroke="midnightblue" d="M274.33,-229.76C263.06,-202.92 228.8,-121.32 213.51,-84.89"/>
<polygon fill="midnightblue" stroke="midnightblue" points="216.67,-83.38 209.58,-75.52 210.22,-86.09 216.67,-83.38"/>
</g>
<!-- Node2&#45;&gt;Node14 -->
<g id="edge20" class="edge">
<title>Node2&#45;&gt;Node14</title>
<path fill="none" stroke="midnightblue" d="M301.86,-229.94C341.44,-214.86 421.72,-180.51 476,-132 491.15,-118.46 503.83,-98.84 511.83,-84.7"/>
<polygon fill="midnightblue" stroke="midnightblue" points="515.1,-86 516.79,-75.54 508.95,-82.66 515.1,-86"/>
</g>
<!-- Node4 -->
<g id="node4" class="node">
<title>Node4</title>
<g id="a_node4"><a xlink:href="include_2ccf_2crypto_2base64_8h.html" target="_top" xlink:title=" ">
<polygon fill="white" stroke="black" points="619,-56.5 619,-75.5 731,-75.5 731,-56.5 619,-56.5"/>
<text text-anchor="middle" x="675" y="-63.5" font-family="Helvetica,sans-Serif" font-size="10.00">ccf/crypto/base64.h</text>
</a>
</g>
</g>
<!-- Node3&#45;&gt;Node4 -->
<g id="edge3" class="edge">
<title>Node3&#45;&gt;Node4</title>
<path fill="none" stroke="midnightblue" d="M570.87,-168.37C589.85,-149.89 634.64,-106.29 658.83,-82.74"/>
<polygon fill="midnightblue" stroke="midnightblue" points="661.45,-85.07 666.17,-75.59 656.57,-80.06 661.45,-85.07"/>
</g>
<!-- Node7 -->
<g id="node7" class="node">
<title>Node7</title>
<g id="a_node7"><a xlink:href="include_2ccf_2ds_2json__schema_8h.html" target="_top" xlink:title=" ">
<polygon fill="white" stroke="black" points="345.5,-112.5 345.5,-131.5 466.5,-131.5 466.5,-112.5 345.5,-112.5"/>
<text text-anchor="middle" x="406" y="-119.5" font-family="Helvetica,sans-Serif" font-size="10.00">ccf/ds/json_schema.h</text>
</a>
</g>
</g>
<!-- Node3&#45;&gt;Node7 -->
<g id="edge6" class="edge">
<title>Node3&#45;&gt;Node7</title>
<path fill="none" stroke="midnightblue" d="M537.28,-168.44C511.15,-159.4 469.74,-145.06 440.42,-134.92"/>
<polygon fill="midnightblue" stroke="midnightblue" points="441.2,-131.48 430.6,-131.52 438.91,-138.1 441.2,-131.48"/>
</g>
<!-- Node3&#45;&gt;Node14 -->
<g id="edge17" class="edge">
<title>Node3&#45;&gt;Node14</title>
<path fill="none" stroke="midnightblue" d="M570.23,-168.32C581.26,-155.6 598.29,-131.31 588,-112 580.45,-97.83 566.24,-87.33 552.84,-80.06"/>
<polygon fill="midnightblue" stroke="midnightblue" points="554.3,-76.87 543.79,-75.53 551.17,-83.13 554.3,-76.87"/>
</g>
<!-- Node16 -->
<g id="node16" class="node">
<title>Node16</title>
<g id="a_node16"><a xlink:title=" ">
<polygon fill="white" stroke="#bfbfbf" points="523,-112.5 523,-131.5 579,-131.5 579,-112.5 523,-112.5"/>
<text text-anchor="middle" x="551" y="-119.5" font-family="Helvetica,sans-Serif" font-size="10.00">sstream</text>
</a>
</g>
</g>
<!-- Node3&#45;&gt;Node16 -->
<g id="edge18" class="edge">
<title>Node3&#45;&gt;Node16</title>
<path fill="none" stroke="midnightblue" d="M560.18,-168.08C558.73,-160.93 556.63,-150.64 554.81,-141.69"/>
<polygon fill="midnightblue" stroke="midnightblue" points="558.21,-140.85 552.78,-131.75 551.35,-142.25 558.21,-140.85"/>
</g>
<!-- Node4&#45;&gt;Node5 -->
<g id="edge4" class="edge">
<title>Node4&#45;&gt;Node5</title>
<path fill="none" stroke="midnightblue" d="M633.01,-56.44C579.98,-45.64 489.91,-27.28 442.07,-17.54"/>
<polygon fill="midnightblue" stroke="midnightblue" points="442.75,-14.1 432.26,-15.54 441.36,-20.96 442.75,-14.1"/>
</g>
<!-- Node6 -->
<g id="node6" class="node">
<title>Node6</title>
<g id="a_node6"><a xlink:title=" ">
<polygon fill="white" stroke="#bfbfbf" points="651.5,-0.5 651.5,-19.5 698.5,-19.5 698.5,-0.5 651.5,-0.5"/>
<text text-anchor="middle" x="675" y="-7.5" font-family="Helvetica,sans-Serif" font-size="10.00">vector</text>
</a>
</g>
</g>
<!-- Node4&#45;&gt;Node6 -->
<g id="edge5" class="edge">
<title>Node4&#45;&gt;Node6</title>
<path fill="none" stroke="midnightblue" d="M675,-56.08C675,-49.01 675,-38.86 675,-29.99"/>
<polygon fill="midnightblue" stroke="midnightblue" points="678.5,-29.75 675,-19.75 671.5,-29.75 678.5,-29.75"/>
</g>
<!-- Node7&#45;&gt;Node8 -->
<g id="edge7" class="edge">
<title>Node7&#45;&gt;Node8</title>
<path fill="none" stroke="midnightblue" d="M374.31,-112.44C339.93,-103.16 284.92,-88.31 247.21,-78.13"/>
<polygon fill="midnightblue" stroke="midnightblue" points="248.11,-74.74 237.54,-75.52 246.28,-81.5 248.11,-74.74"/>
</g>
<!-- Node7&#45;&gt;Node14 -->
<g id="edge15" class="edge">
<title>Node7&#45;&gt;Node14</title>
<path fill="none" stroke="midnightblue" d="M424.22,-112.44C442.9,-103.68 472.16,-89.94 493.62,-79.86"/>
<polygon fill="midnightblue" stroke="midnightblue" points="495.3,-82.93 502.86,-75.52 492.32,-76.6 495.3,-82.93"/>
</g>
<!-- Node15 -->
<g id="node15" class="node">
<title>Node15</title>
<g id="a_node15"><a xlink:title=" ">
<polygon fill="white" stroke="#bfbfbf" points="351,-56.5 351,-75.5 461,-75.5 461,-56.5 351,-56.5"/>
<text text-anchor="middle" x="406" y="-63.5" font-family="Helvetica,sans-Serif" font-size="10.00">nlohmann/json.hpp</text>
</a>
</g>
</g>
<!-- Node7&#45;&gt;Node15 -->
<g id="edge16" class="edge">
<title>Node7&#45;&gt;Node15</title>
<path fill="none" stroke="midnightblue" d="M406,-112.08C406,-105.01 406,-94.86 406,-85.99"/>
<polygon fill="midnightblue" stroke="midnightblue" points="409.5,-85.75 406,-75.75 402.5,-85.75 409.5,-85.75"/>
</g>
<!-- Node8&#45;&gt;Node5 -->
<g id="edge11" class="edge">
<title>Node8&#45;&gt;Node5</title>
<path fill="none" stroke="midnightblue" d="M239.34,-56.47C274.03,-47.55 329.89,-33.06 378,-20 378.1,-19.97 378.2,-19.95 378.3,-19.92"/>
<polygon fill="midnightblue" stroke="midnightblue" points="379.27,-23.28 387.98,-17.25 377.41,-16.53 379.27,-23.28"/>
</g>
<!-- Node8&#45;&gt;Node6 -->
<g id="edge14" class="edge">
<title>Node8&#45;&gt;Node6</title>
<path fill="none" stroke="midnightblue" d="M251.4,-59.77C345.21,-48.97 558.61,-24.4 641.34,-14.88"/>
<polygon fill="midnightblue" stroke="midnightblue" points="641.92,-18.33 651.45,-13.71 641.12,-11.38 641.92,-18.33"/>
</g>
<!-- Node9 -->
<g id="node9" class="node">
<title>Node9</title>
<g id="a_node9"><a xlink:title=" ">
<polygon fill="white" stroke="#bfbfbf" points="0,-0.5 0,-19.5 64,-19.5 64,-0.5 0,-0.5"/>
<text text-anchor="middle" x="32" y="-7.5" font-family="Helvetica,sans-Serif" font-size="10.00">algorithm</text>
</a>
</g>
</g>
<!-- Node8&#45;&gt;Node9 -->
<g id="edge8" class="edge">
<title>Node8&#45;&gt;Node9</title>
<path fill="none" stroke="midnightblue" d="M178.43,-56.44C148.9,-47.28 101.88,-32.69 69.12,-22.52"/>
<polygon fill="midnightblue" stroke="midnightblue" points="70.03,-19.14 59.44,-19.52 67.96,-25.82 70.03,-19.14"/>
</g>
<!-- Node10 -->
<g id="node10" class="node">
<title>Node10</title>
<g id="a_node10"><a xlink:title=" ">
<polygon fill="white" stroke="#bfbfbf" points="82,-0.5 82,-19.5 124,-19.5 124,-0.5 82,-0.5"/>
<text text-anchor="middle" x="103" y="-7.5" font-family="Helvetica,sans-Serif" font-size="10.00">array</text>
</a>
</g>
</g>
<!-- Node8&#45;&gt;Node10 -->
<g id="edge9" class="edge">
<title>Node8&#45;&gt;Node10</title>
<path fill="none" stroke="midnightblue" d="M189.45,-56.32C173.01,-47.7 147.57,-34.36 128.53,-24.39"/>
<polygon fill="midnightblue" stroke="midnightblue" points="129.99,-21.2 119.51,-19.65 126.74,-27.4 129.99,-21.2"/>
</g>
<!-- Node11 -->
<g id="node11" class="node">
<title>Node11</title>
<g id="a_node11"><a xlink:title=" ">
<polygon fill="white" stroke="#bfbfbf" points="142.5,-0.5 142.5,-19.5 191.5,-19.5 191.5,-0.5 142.5,-0.5"/>
<text text-anchor="middle" x="167" y="-7.5" font-family="Helvetica,sans-Serif" font-size="10.00">cctype</text>
</a>
</g>
</g>
<!-- Node8&#45;&gt;Node11 -->
<g id="edge10" class="edge">
<title>Node8&#45;&gt;Node11</title>
<path fill="none" stroke="midnightblue" d="M199.56,-56.08C194.05,-48.46 185.97,-37.26 179.24,-27.94"/>
<polygon fill="midnightblue" stroke="midnightblue" points="182.01,-25.81 173.32,-19.75 176.34,-29.91 182.01,-25.81"/>
</g>
<!-- Node12 -->
<g id="node12" class="node">
<title>Node12</title>
<g id="a_node12"><a xlink:title=" ">
<polygon fill="white" stroke="#bfbfbf" points="209.5,-0.5 209.5,-19.5 282.5,-19.5 282.5,-0.5 209.5,-0.5"/>
<text text-anchor="middle" x="246" y="-7.5" font-family="Helvetica,sans-Serif" font-size="10.00">string_view</text>
</a>
</g>
</g>
<!-- Node8&#45;&gt;Node12 -->
<g id="edge12" class="edge">
<title>Node8&#45;&gt;Node12</title>
<path fill="none" stroke="midnightblue" d="M212.61,-56.08C218.26,-48.46 226.54,-37.26 233.45,-27.94"/>
<polygon fill="midnightblue" stroke="midnightblue" points="236.38,-29.87 239.52,-19.75 230.75,-25.7 236.38,-29.87"/>
</g>
<!-- Node13 -->
<g id="node13" class="node">
<title>Node13</title>
<g id="a_node13"><a xlink:title=" ">
<polygon fill="white" stroke="#bfbfbf" points="300.5,-0.5 300.5,-19.5 369.5,-19.5 369.5,-0.5 300.5,-0.5"/>
<text text-anchor="middle" x="335" y="-7.5" font-family="Helvetica,sans-Serif" font-size="10.00">type_traits</text>
</a>
</g>
</g>
<!-- Node8&#45;&gt;Node13 -->
<g id="edge13" class="edge">
<title>Node8&#45;&gt;Node13</title>
<path fill="none" stroke="midnightblue" d="M226.44,-56.44C247.67,-47.56 281.1,-33.56 305.25,-23.45"/>
<polygon fill="midnightblue" stroke="midnightblue" points="306.78,-26.61 314.66,-19.52 304.08,-20.15 306.78,-26.61"/>
</g>
<!-- Node17&#45;&gt;Node3 -->
<g id="edge24" class="edge">
<title>Node17&#45;&gt;Node3</title>
<path fill="none" stroke="midnightblue" d="M546.88,-291.48C549.96,-268.62 556.05,-223.3 559.49,-197.71"/>
<polygon fill="midnightblue" stroke="midnightblue" points="562.96,-198.17 560.82,-187.79 556.02,-197.23 562.96,-198.17"/>
</g>
<!-- Node17&#45;&gt;Node5 -->
<g id="edge31" class="edge">
<title>Node17&#45;&gt;Node5</title>
<path fill="none" stroke="midnightblue" d="M515.03,-291.49C466.72,-267.01 373.28,-211.4 336,-132 328.77,-116.61 330.6,-74.74 342,-56 350.49,-42.05 365.14,-31.53 378.67,-24.19"/>
<polygon fill="midnightblue" stroke="midnightblue" points="380.41,-27.23 387.77,-19.61 377.26,-20.97 380.41,-27.23"/>
</g>
<!-- Node17&#45;&gt;Node8 -->
<g id="edge25" class="edge">
<title>Node17&#45;&gt;Node8</title>
<path fill="none" stroke="midnightblue" d="M484.66,-304.64C401.16,-302.07 256.69,-292.21 222,-255 178.28,-208.1 192.06,-123 200.98,-85.54"/>
<polygon fill="midnightblue" stroke="midnightblue" points="204.45,-86.1 203.52,-75.54 197.66,-84.38 204.45,-86.1"/>
</g>
<!-- Node18 -->
<g id="node18" class="node">
<title>Node18</title>
<g id="a_node18"><a xlink:href="acme__client__config_8h.html" target="_top" xlink:title=" ">
<polygon fill="white" stroke="black" points="661.5,-224.5 661.5,-254.5 792.5,-254.5 792.5,-224.5 661.5,-224.5"/>
<text text-anchor="start" x="669.5" y="-242.5" font-family="Helvetica,sans-Serif" font-size="10.00">ccf/service/acme_client</text>
<text text-anchor="middle" x="727" y="-231.5" font-family="Helvetica,sans-Serif" font-size="10.00">_config.h</text>
</a>
</g>
</g>
<!-- Node17&#45;&gt;Node18 -->
<g id="edge26" class="edge">
<title>Node17&#45;&gt;Node18</title>
<path fill="none" stroke="midnightblue" d="M584.49,-291.4C611.92,-281.6 648.65,-268.48 677.96,-258.02"/>
<polygon fill="midnightblue" stroke="midnightblue" points="679.35,-261.24 687.59,-254.58 676.99,-254.64 679.35,-261.24"/>
</g>
<!-- Node18&#45;&gt;Node3 -->
<g id="edge27" class="edge">
<title>Node18&#45;&gt;Node3</title>
<path fill="none" stroke="midnightblue" d="M687.9,-224.4C659.84,-214.28 622.43,-200.79 595.69,-191.15"/>
<polygon fill="midnightblue" stroke="midnightblue" points="596.6,-187.76 586.01,-187.66 594.23,-194.34 596.6,-187.76"/>
</g>
<!-- Node18&#45;&gt;Node5 -->
<g id="edge29" class="edge">
<title>Node18&#45;&gt;Node5</title>
<path fill="none" stroke="midnightblue" d="M727.59,-224.12C727.87,-198.51 724.81,-144.64 697,-112 669.86,-80.15 648.07,-93.37 610,-76 591.92,-67.75 588.54,-63.17 570,-56 526.77,-39.29 474.8,-25.83 442.08,-18.13"/>
<polygon fill="midnightblue" stroke="midnightblue" points="442.7,-14.68 432.17,-15.83 441.12,-21.5 442.7,-14.68"/>
</g>
<!-- Node18&#45;&gt;Node6 -->
<g id="edge30" class="edge">
<title>Node18&#45;&gt;Node6</title>
<path fill="none" stroke="midnightblue" d="M732.83,-224.2C744.96,-192.01 769.48,-112.27 740,-56 732.72,-42.11 718.99,-31.65 706.02,-24.33"/>
<polygon fill="midnightblue" stroke="midnightblue" points="707.3,-21.05 696.81,-19.55 704.07,-27.27 707.3,-21.05"/>
</g>
<!-- Node18&#45;&gt;Node19 -->
<g id="edge28" class="edge">
<title>Node18&#45;&gt;Node19</title>
<path fill="none" stroke="midnightblue" d="M748.57,-224.4C762.88,-215.04 781.61,-202.79 796.01,-193.38"/>
<polygon fill="midnightblue" stroke="midnightblue" points="798.3,-196.06 804.76,-187.66 794.47,-190.2 798.3,-196.06"/>
</g>
</g>
</svg>
        <g id="navigator" transform="translate(0 0)" fill="#404254">
                <rect fill="#f2f5e9" fill-opacity="0.5" stroke="#606060" stroke-width=".5" x="0" y="0" width="60" height="60"/>
                <use id="zoomplus" xlink:href="#zoomPlus" x="17" y="9" onmousedown="handleZoom(evt,'in')"/>
                <use id="zoomminus" xlink:href="#zoomMin" x="42" y="9" onmousedown="handleZoom(evt,'out')"/>
                <use id="reset" xlink:href="#resetDef" x="30" y="36" onmousedown="handleReset()"/>
                <g id="arrowUp" xlink:href="#dirArrow" transform="translate(30 24)" onmousedown="handlePan(0,-1)">
                  <use xlink:href="#rim" fill="#404040">
                        <set attributeName="fill" to="#808080" begin="arrowUp.mouseover" end="arrowUp.mouseout"/>
                  </use>
                  <path fill="none" stroke="white" stroke-width="1.5" d="M0,-3.0v7 M-2.5,-0.5L0,-3.0L2.5,-0.5"/>
                </g>
                <g id="arrowRight" xlink:href="#dirArrow" transform="rotate(90) translate(36 -43)" onmousedown="handlePan(1,0)">
                  <use xlink:href="#rim" fill="#404040">
                        <set attributeName="fill" to="#808080" begin="arrowRight.mouseover" end="arrowRight.mouseout"/>
                  </use>
                  <path fill="none" stroke="white" stroke-width="1.5" d="M0,-3.0v7 M-2.5,-0.5L0,-3.0L2.5,-0.5"/>
                </g>
                <g id="arrowDown" xlink:href="#dirArrow" transform="rotate(180) translate(-30 -48)" onmousedown="handlePan(0,1)">
                  <use xlink:href="#rim" fill="#404040">
                        <set attributeName="fill" to="#808080" begin="arrowDown.mouseover" end="arrowDown.mouseout"/>
                  </use>
                  <path fill="none" stroke="white" stroke-width="1.5" d="M0,-3.0v7 M-2.5,-0.5L0,-3.0L2.5,-0.5"/>
                </g>
                <g id="arrowLeft" xlink:href="#dirArrow" transform="rotate(270) translate(-36 17)" onmousedown="handlePan(-1,0)">
                  <use xlink:href="#rim" fill="#404040">
                        <set attributeName="fill" to="#808080" begin="arrowLeft.mouseover" end="arrowLeft.mouseout"/>
                  </use>
                  <path fill="none" stroke="white" stroke-width="1.5" d="M0,-3.0v7 M-2.5,-0.5L0,-3.0L2.5,-0.5"/>
                </g>
        </g>
        <svg viewBox="0 0 15 15" width="100%" height="30px" preserveAspectRatio="xMaxYMin meet">
         <g id="arrow_out" transform="scale(0.3 0.3)">
          <a xlink:href="cli__helper_8h__incl_org.svg" target="_base">
           <rect id="button" ry="5" rx="5" y="6" x="6" height="38" width="38"
                fill="#f2f5e9" fill-opacity="0.5" stroke="#606060" stroke-width="1.0"/>
           <path id="arrow"
             d="M 11.500037,31.436501 C 11.940474,20.09759 22.043105,11.32322 32.158766,21.979434 L 37.068811,17.246167 C 37.068811,17.246167 37.088388,32 37.088388,32 L 22.160133,31.978069 C 22.160133,31.978069 26.997745,27.140456 26.997745,27.140456 C 18.528582,18.264221 13.291696,25.230495 11.500037,31.436501 z"
             style="fill:#404040;"/>
          </a>
         </g>
        </svg>
</svg>
