<?xml version="1.0" encoding="UTF-8" standalone="no"?>
<!DOCTYPE svg PUBLIC "-//W3C//DTD SVG 1.1//EN"
 "http://www.w3.org/Graphics/SVG/1.1/DTD/svg11.dtd">
<!-- Generated by graphviz version 2.43.0 (0)
 -->
<!-- Title: src/consensus/aft/request.h Pages: 1 -->
<svg width="2402pt" height="643pt"
 viewBox="0.00 0.00 2402.00 643.00" xmlns="http://www.w3.org/2000/svg" xmlns:xlink="http://www.w3.org/1999/xlink">
<g id="graph0" class="graph" transform="scale(1 1) rotate(0) translate(4 639)">
<title>src/consensus/aft/request.h</title>
<polygon fill="white" stroke="transparent" points="-4,4 -4,-639 2398,-639 2398,4 -4,4"/>
<!-- Node1 -->
<g id="node1" class="node">
<title>Node1</title>
<g id="a_node1"><a xlink:title=" ">
<polygon fill="#bfbfbf" stroke="black" points="852,-615.5 852,-634.5 1001,-634.5 1001,-615.5 852,-615.5"/>
<text text-anchor="middle" x="926.5" y="-622.5" font-family="Helvetica,sans-Serif" font-size="10.00">src/consensus/aft/request.h</text>
</a>
</g>
</g>
<!-- Node2 -->
<g id="node2" class="node">
<title>Node2</title>
<g id="a_node2"><a xlink:href="deserialise_8h.html" target="_top" xlink:title=" ">
<polygon fill="white" stroke="black" points="829,-559.5 829,-578.5 940,-578.5 940,-559.5 829,-559.5"/>
<text text-anchor="middle" x="884.5" y="-566.5" font-family="Helvetica,sans-Serif" font-size="10.00">src/kv/deserialise.h</text>
</a>
</g>
</g>
<!-- Node1&#45;&gt;Node2 -->
<g id="edge1" class="edge">
<title>Node1&#45;&gt;Node2</title>
<path fill="none" stroke="midnightblue" d="M913.39,-607.14C906.07,-597.74 897.26,-586.4 891.31,-578.75"/>
<polygon fill="midnightblue" stroke="midnightblue" points="910.66,-609.34 919.56,-615.08 916.19,-605.04 910.66,-609.34"/>
</g>
<!-- Node3 -->
<g id="node3" class="node">
<title>Node3</title>
<g id="a_node3"><a xlink:href="store_8h.html" target="_top" xlink:title=" ">
<polygon fill="white" stroke="black" points="713,-503.5 713,-522.5 796,-522.5 796,-503.5 713,-503.5"/>
<text text-anchor="middle" x="754.5" y="-510.5" font-family="Helvetica,sans-Serif" font-size="10.00">src/kv/store.h</text>
</a>
</g>
</g>
<!-- Node1&#45;&gt;Node3 -->
<g id="edge74" class="edge">
<title>Node1&#45;&gt;Node3</title>
<path fill="none" stroke="midnightblue" d="M888.91,-611.97C867.82,-604.29 841.59,-593.11 820.5,-579 795.91,-562.55 772.57,-536.17 761.39,-522.63"/>
<polygon fill="midnightblue" stroke="midnightblue" points="887.9,-615.33 898.5,-615.36 890.23,-608.73 887.9,-615.33"/>
</g>
<!-- Node20 -->
<g id="node20" class="node">
<title>Node20</title>
<g id="a_node20"><a xlink:href="frontend_8h.html" target="_top" xlink:title=" ">
<polygon fill="white" stroke="black" points="1377,-375 1377,-394 1506,-394 1506,-375 1377,-375"/>
<text text-anchor="middle" x="1441.5" y="-382" font-family="Helvetica,sans-Serif" font-size="10.00">src/node/rpc/frontend.h</text>
</a>
</g>
</g>
<!-- Node1&#45;&gt;Node20 -->
<g id="edge75" class="edge">
<title>Node1&#45;&gt;Node20</title>
<path fill="none" stroke="midnightblue" d="M954.47,-611.05C1047.55,-567.94 1345.34,-430.03 1422.89,-394.12"/>
<polygon fill="midnightblue" stroke="midnightblue" points="952.74,-607.99 945.13,-615.37 955.68,-614.34 952.74,-607.99"/>
</g>
<!-- Node25 -->
<g id="node25" class="node">
<title>Node25</title>
<g id="a_node25"><a xlink:href="network__tables_8h.html" target="_top" xlink:title=" ">
<polygon fill="white" stroke="black" points="922.5,-436.5 922.5,-466.5 1034.5,-466.5 1034.5,-436.5 922.5,-436.5"/>
<text text-anchor="start" x="930.5" y="-454.5" font-family="Helvetica,sans-Serif" font-size="10.00">src/service/network</text>
<text text-anchor="middle" x="978.5" y="-443.5" font-family="Helvetica,sans-Serif" font-size="10.00">_tables.h</text>
</a>
</g>
</g>
<!-- Node1&#45;&gt;Node25 -->
<g id="edge76" class="edge">
<title>Node1&#45;&gt;Node25</title>
<path fill="none" stroke="midnightblue" d="M936.75,-606.45C941.17,-598.31 946.09,-588.38 949.5,-579 963.83,-539.62 972.64,-490.68 976.39,-466.87"/>
<polygon fill="midnightblue" stroke="midnightblue" points="933.61,-604.9 931.75,-615.33 939.71,-608.33 933.61,-604.9"/>
</g>
<!-- Node2&#45;&gt;Node3 -->
<g id="edge2" class="edge">
<title>Node2&#45;&gt;Node3</title>
<path fill="none" stroke="midnightblue" d="M854.41,-555.5C830.04,-545.38 796.36,-531.39 775,-522.52"/>
<polygon fill="midnightblue" stroke="midnightblue" points="853.32,-558.84 863.9,-559.44 856.01,-552.38 853.32,-558.84"/>
</g>
<!-- Node4 -->
<g id="node4" class="node">
<title>Node4</title>
<g id="a_node4"><a xlink:href="indexer_8h.html" target="_top" xlink:title=" ">
<polygon fill="white" stroke="black" points="693,-442 693,-461 816,-461 816,-442 693,-442"/>
<text text-anchor="middle" x="754.5" y="-449" font-family="Helvetica,sans-Serif" font-size="10.00">src/indexing/indexer.h</text>
</a>
</g>
</g>
<!-- Node3&#45;&gt;Node4 -->
<g id="edge3" class="edge">
<title>Node3&#45;&gt;Node4</title>
<path fill="none" stroke="midnightblue" d="M754.5,-493.32C754.5,-482.5 754.5,-469.4 754.5,-461.01"/>
<polygon fill="midnightblue" stroke="midnightblue" points="751,-493.48 754.5,-503.48 758,-493.48 751,-493.48"/>
</g>
<!-- Node9 -->
<g id="node9" class="node">
<title>Node9</title>
<g id="a_node9"><a xlink:href="visit__each__entry__in__map_8cpp.html" target="_top" xlink:title=" ">
<polygon fill="white" stroke="black" points="475,-436.5 475,-466.5 636,-466.5 636,-436.5 475,-436.5"/>
<text text-anchor="start" x="483" y="-454.5" font-family="Helvetica,sans-Serif" font-size="10.00">src/indexing/strategies</text>
<text text-anchor="middle" x="555.5" y="-443.5" font-family="Helvetica,sans-Serif" font-size="10.00">/visit_each_entry_in_map.cpp</text>
</a>
</g>
</g>
<!-- Node3&#45;&gt;Node9 -->
<g id="edge9" class="edge">
<title>Node3&#45;&gt;Node9</title>
<path fill="none" stroke="midnightblue" d="M716.4,-500.61C683.94,-490.9 637.16,-476.92 602.4,-466.52"/>
<polygon fill="midnightblue" stroke="midnightblue" points="715.4,-503.96 725.99,-503.48 717.41,-497.26 715.4,-503.96"/>
</g>
<!-- Node10 -->
<g id="node10" class="node">
<title>Node10</title>
<g id="a_node10"><a xlink:href="historical__queries_8h.html" target="_top" xlink:title=" ">
<polygon fill="white" stroke="black" points="54.5,-302.5 54.5,-332.5 160.5,-332.5 160.5,-302.5 54.5,-302.5"/>
<text text-anchor="start" x="62.5" y="-320.5" font-family="Helvetica,sans-Serif" font-size="10.00">src/node/historical</text>
<text text-anchor="middle" x="107.5" y="-309.5" font-family="Helvetica,sans-Serif" font-size="10.00">_queries.h</text>
</a>
</g>
</g>
<!-- Node3&#45;&gt;Node10 -->
<g id="edge10" class="edge">
<title>Node3&#45;&gt;Node10</title>
<path fill="none" stroke="midnightblue" d="M702.54,-512.87C623.5,-512.75 469.16,-506.77 345.5,-467 253,-437.25 160.13,-363.68 123.65,-332.66"/>
<polygon fill="midnightblue" stroke="midnightblue" points="702.73,-516.37 712.73,-512.86 702.72,-509.37 702.73,-516.37"/>
</g>
<!-- Node12 -->
<g id="node12" class="node">
<title>Node12</title>
<g id="a_node12"><a xlink:href="history_8h.html" target="_top" xlink:title=" ">
<polygon fill="white" stroke="black" points="354.5,-442 354.5,-461 456.5,-461 456.5,-442 354.5,-442"/>
<text text-anchor="middle" x="405.5" y="-449" font-family="Helvetica,sans-Serif" font-size="10.00">src/node/history.h</text>
</a>
</g>
</g>
<!-- Node3&#45;&gt;Node12 -->
<g id="edge14" class="edge">
<title>Node3&#45;&gt;Node12</title>
<path fill="none" stroke="midnightblue" d="M702.65,-505.24C644.64,-497.38 547.96,-483.36 465.5,-467 456.78,-465.27 447.4,-463.14 438.72,-461.04"/>
<polygon fill="midnightblue" stroke="midnightblue" points="702.3,-508.73 712.67,-506.59 703.23,-501.79 702.3,-508.73"/>
</g>
<!-- Node14 -->
<g id="node14" class="node">
<title>Node14</title>
<g id="a_node14"><a xlink:href="snapshotter_8h.html" target="_top" xlink:title=" ">
<polygon fill="white" stroke="black" points="547,-241 547,-260 674,-260 674,-241 547,-241"/>
<text text-anchor="middle" x="610.5" y="-248" font-family="Helvetica,sans-Serif" font-size="10.00">src/node/snapshotter.h</text>
</a>
</g>
</g>
<!-- Node3&#45;&gt;Node14 -->
<g id="edge37" class="edge">
<title>Node3&#45;&gt;Node14</title>
<path fill="none" stroke="midnightblue" d="M723.27,-498.99C709.13,-491.59 693.39,-480.97 683.5,-467 640.01,-405.58 675.92,-370.83 645.5,-302 638.43,-286 626.05,-269.77 618.07,-260.18"/>
<polygon fill="midnightblue" stroke="midnightblue" points="721.74,-502.14 732.26,-503.39 724.82,-495.85 721.74,-502.14"/>
</g>
<!-- Node3&#45;&gt;Node20 -->
<g id="edge27" class="edge">
<title>Node3&#45;&gt;Node20</title>
<path fill="none" stroke="midnightblue" d="M806.24,-504.7C864.17,-496.35 960.76,-481.9 1043.5,-467 1175.91,-443.15 1331.97,-409.59 1402.92,-394.04"/>
<polygon fill="midnightblue" stroke="midnightblue" points="805.64,-501.25 796.24,-506.14 806.64,-508.18 805.64,-501.25"/>
</g>
<!-- Node3&#45;&gt;Node25 -->
<g id="edge38" class="edge">
<title>Node3&#45;&gt;Node25</title>
<path fill="none" stroke="midnightblue" d="M796.44,-500.86C833.02,-491.14 886.24,-477.01 925.71,-466.52"/>
<polygon fill="midnightblue" stroke="midnightblue" points="795.36,-497.53 786.59,-503.48 797.16,-504.29 795.36,-497.53"/>
</g>
<!-- Node5 -->
<g id="node5" class="node">
<title>Node5</title>
<g id="a_node5"><a xlink:href="node__state_8h.html" target="_top" xlink:title=" ">
<polygon fill="white" stroke="black" points="853.5,-179.5 853.5,-198.5 977.5,-198.5 977.5,-179.5 853.5,-179.5"/>
<text text-anchor="middle" x="915.5" y="-186.5" font-family="Helvetica,sans-Serif" font-size="10.00">src/node/node_state.h</text>
</a>
</g>
</g>
<!-- Node4&#45;&gt;Node5 -->
<g id="edge4" class="edge">
<title>Node4&#45;&gt;Node5</title>
<path fill="none" stroke="midnightblue" d="M744.08,-432.86C735.65,-416.32 726.14,-390.91 732.5,-369 752.17,-301.27 764.38,-281.4 817.5,-235 837.38,-217.63 865.09,-205.75 885.97,-198.57"/>
<polygon fill="midnightblue" stroke="midnightblue" points="741.16,-434.82 749.04,-441.9 747.3,-431.45 741.16,-434.82"/>
</g>
<!-- Node6 -->
<g id="node6" class="node">
<title>Node6</title>
<g id="a_node6"><a xlink:href="enclave_2enclave_8h.html" target="_top" xlink:title=" ">
<polygon fill="white" stroke="black" points="1162.5,-56.5 1162.5,-75.5 1284.5,-75.5 1284.5,-56.5 1162.5,-56.5"/>
<text text-anchor="middle" x="1223.5" y="-63.5" font-family="Helvetica,sans-Serif" font-size="10.00">src/enclave/enclave.h</text>
</a>
</g>
</g>
<!-- Node5&#45;&gt;Node6 -->
<g id="edge5" class="edge">
<title>Node5&#45;&gt;Node6</title>
<path fill="none" stroke="midnightblue" d="M931.28,-172.43C949.85,-155.01 982.37,-127.25 1015.5,-112 1062.15,-90.52 1119.46,-79.1 1162.11,-73.15"/>
<polygon fill="midnightblue" stroke="midnightblue" points="928.79,-169.96 923.99,-179.41 933.64,-175.02 928.79,-169.96"/>
</g>
<!-- Node8 -->
<g id="node8" class="node">
<title>Node8</title>
<g id="a_node8"><a xlink:href="gov__effects_8h.html" target="_top" xlink:title=" ">
<polygon fill="white" stroke="black" points="1024.5,-118 1024.5,-137 1168.5,-137 1168.5,-118 1024.5,-118"/>
<text text-anchor="middle" x="1096.5" y="-125" font-family="Helvetica,sans-Serif" font-size="10.00">src/node/rpc/gov_effects.h</text>
</a>
</g>
</g>
<!-- Node5&#45;&gt;Node8 -->
<g id="edge7" class="edge">
<title>Node5&#45;&gt;Node8</title>
<path fill="none" stroke="midnightblue" d="M951.3,-176.23C986.48,-164.67 1039.32,-147.3 1070.62,-137.01"/>
<polygon fill="midnightblue" stroke="midnightblue" points="949.84,-173.03 941.43,-179.48 952.03,-179.68 949.84,-173.03"/>
</g>
<!-- Node7 -->
<g id="node7" class="node">
<title>Node7</title>
<g id="a_node7"><a xlink:href="enclave_2main_8cpp.html" target="_top" xlink:title=" ">
<polygon fill="white" stroke="black" points="1163.5,-0.5 1163.5,-19.5 1283.5,-19.5 1283.5,-0.5 1163.5,-0.5"/>
<text text-anchor="middle" x="1223.5" y="-7.5" font-family="Helvetica,sans-Serif" font-size="10.00">src/enclave/main.cpp</text>
</a>
</g>
</g>
<!-- Node6&#45;&gt;Node7 -->
<g id="edge6" class="edge">
<title>Node6&#45;&gt;Node7</title>
<path fill="none" stroke="midnightblue" d="M1223.5,-45.8C1223.5,-36.91 1223.5,-26.78 1223.5,-19.75"/>
<polygon fill="midnightblue" stroke="midnightblue" points="1220,-46.08 1223.5,-56.08 1227,-46.08 1220,-46.08"/>
</g>
<!-- Node8&#45;&gt;Node6 -->
<g id="edge8" class="edge">
<title>Node8&#45;&gt;Node6</title>
<path fill="none" stroke="midnightblue" d="M1123.88,-113.67C1148.52,-102.13 1184.04,-85.49 1205.34,-75.51"/>
<polygon fill="midnightblue" stroke="midnightblue" points="1122.27,-110.56 1114.7,-117.98 1125.24,-116.9 1122.27,-110.56"/>
</g>
<!-- Node10&#45;&gt;Node6 -->
<g id="edge11" class="edge">
<title>Node10&#45;&gt;Node6</title>
<path fill="none" stroke="midnightblue" d="M119.52,-293.4C130.63,-274.5 148.96,-248.73 172.5,-235 343.49,-135.27 964.42,-84.8 1162.4,-70.99"/>
<polygon fill="midnightblue" stroke="midnightblue" points="116.36,-291.87 114.51,-302.3 122.47,-295.3 116.36,-291.87"/>
</g>
<!-- Node11 -->
<g id="node11" class="node">
<title>Node11</title>
<g id="a_node11"><a xlink:href="historical__transaction__fetcher_8h.html" target="_top" xlink:title=" ">
<polygon fill="white" stroke="black" points="0,-112.5 0,-142.5 125,-142.5 125,-112.5 0,-112.5"/>
<text text-anchor="start" x="8" y="-130.5" font-family="Helvetica,sans-Serif" font-size="10.00">src/indexing/historical</text>
<text text-anchor="middle" x="62.5" y="-119.5" font-family="Helvetica,sans-Serif" font-size="10.00">_transaction_fetcher.h</text>
</a>
</g>
</g>
<!-- Node10&#45;&gt;Node11 -->
<g id="edge12" class="edge">
<title>Node10&#45;&gt;Node11</title>
<path fill="none" stroke="midnightblue" d="M101.75,-292.47C92.23,-252.7 73.5,-174.44 65.86,-142.54"/>
<polygon fill="midnightblue" stroke="midnightblue" points="98.39,-293.46 104.12,-302.37 105.19,-291.83 98.39,-293.46"/>
</g>
<!-- Node11&#45;&gt;Node6 -->
<g id="edge13" class="edge">
<title>Node11&#45;&gt;Node6</title>
<path fill="none" stroke="midnightblue" d="M135.59,-112.47C136.9,-112.3 138.21,-112.15 139.5,-112 527.11,-67.69 997.1,-65.62 1162.44,-66.45"/>
<polygon fill="midnightblue" stroke="midnightblue" points="134.84,-109.04 125.42,-113.88 135.81,-115.97 134.84,-109.04"/>
</g>
<!-- Node12&#45;&gt;Node5 -->
<g id="edge16" class="edge">
<title>Node12&#45;&gt;Node5</title>
<path fill="none" stroke="midnightblue" d="M415.44,-432.73C420.69,-423.13 427.15,-411.02 432.5,-400 470.48,-321.82 460.05,-274.47 537.5,-235 591.23,-207.62 760.46,-196.41 853.2,-192.23"/>
<polygon fill="midnightblue" stroke="midnightblue" points="412.27,-431.22 410.49,-441.67 418.39,-434.61 412.27,-431.22"/>
</g>
<!-- Node12&#45;&gt;Node10 -->
<g id="edge15" class="edge">
<title>Node12&#45;&gt;Node10</title>
<path fill="none" stroke="midnightblue" d="M376.61,-437.7C320.57,-412.88 197.52,-358.37 139.27,-332.57"/>
<polygon fill="midnightblue" stroke="midnightblue" points="375.39,-440.99 385.95,-441.84 378.22,-434.59 375.39,-440.99"/>
</g>
<!-- Node13 -->
<g id="node13" class="node">
<title>Node13</title>
<g id="a_node13"><a xlink:href="snapshot__serdes_8h.html" target="_top" xlink:title=" ">
<polygon fill="white" stroke="black" points="484.5,-308 484.5,-327 636.5,-327 636.5,-308 484.5,-308"/>
<text text-anchor="middle" x="560.5" y="-315" font-family="Helvetica,sans-Serif" font-size="10.00">src/node/snapshot_serdes.h</text>
</a>
</g>
</g>
<!-- Node12&#45;&gt;Node13 -->
<g id="edge17" class="edge">
<title>Node12&#45;&gt;Node13</title>
<path fill="none" stroke="midnightblue" d="M425.47,-435.6C438.49,-425.74 455.74,-412.39 470.5,-400 501.02,-374.39 535.53,-342.17 551.5,-327.06"/>
<polygon fill="midnightblue" stroke="midnightblue" points="423.1,-433.01 417.21,-441.82 427.31,-438.6 423.1,-433.01"/>
</g>
<!-- Node15 -->
<g id="node15" class="node">
<title>Node15</title>
<g id="a_node15"><a xlink:href="tx__receipt__impl_8h.html" target="_top" xlink:title=" ">
<polygon fill="white" stroke="black" points="313.5,-369.5 313.5,-399.5 423.5,-399.5 423.5,-369.5 313.5,-369.5"/>
<text text-anchor="start" x="321.5" y="-387.5" font-family="Helvetica,sans-Serif" font-size="10.00">src/node/tx_receipt</text>
<text text-anchor="middle" x="368.5" y="-376.5" font-family="Helvetica,sans-Serif" font-size="10.00">_impl.h</text>
</a>
</g>
</g>
<!-- Node12&#45;&gt;Node15 -->
<g id="edge20" class="edge">
<title>Node12&#45;&gt;Node15</title>
<path fill="none" stroke="midnightblue" d="M395.56,-433.03C389.59,-422.56 382.11,-409.4 376.52,-399.59"/>
<polygon fill="midnightblue" stroke="midnightblue" points="392.52,-434.77 400.51,-441.73 398.6,-431.31 392.52,-434.77"/>
</g>
<!-- Node13&#45;&gt;Node14 -->
<g id="edge18" class="edge">
<title>Node13&#45;&gt;Node14</title>
<path fill="none" stroke="midnightblue" d="M573.37,-299.77C583.12,-287.1 596.11,-270.2 603.86,-260.13"/>
<polygon fill="midnightblue" stroke="midnightblue" points="570.57,-297.67 567.24,-307.73 576.11,-301.94 570.57,-297.67"/>
</g>
<!-- Node14&#45;&gt;Node5 -->
<g id="edge19" class="edge">
<title>Node14&#45;&gt;Node5</title>
<path fill="none" stroke="midnightblue" d="M664.09,-239.05C723.18,-227.52 817.11,-209.19 871.88,-198.51"/>
<polygon fill="midnightblue" stroke="midnightblue" points="663.34,-235.63 654.2,-240.98 664.68,-242.5 663.34,-235.63"/>
</g>
<!-- Node15&#45;&gt;Node10 -->
<g id="edge24" class="edge">
<title>Node15&#45;&gt;Node10</title>
<path fill="none" stroke="midnightblue" d="M303.71,-367.37C259.65,-356.39 202.05,-342.05 160.67,-331.74"/>
<polygon fill="midnightblue" stroke="midnightblue" points="302.92,-370.77 313.47,-369.79 304.61,-363.98 302.92,-370.77"/>
</g>
<!-- Node15&#45;&gt;Node13 -->
<g id="edge26" class="edge">
<title>Node15&#45;&gt;Node13</title>
<path fill="none" stroke="midnightblue" d="M419.87,-366.11C457.23,-353.46 506.17,-336.89 535.37,-327.01"/>
<polygon fill="midnightblue" stroke="midnightblue" points="418.51,-362.87 410.16,-369.4 420.76,-369.5 418.51,-362.87"/>
</g>
<!-- Node16 -->
<g id="node16" class="node">
<title>Node16</title>
<g id="a_node16"><a xlink:href="src_2apps_2js__v8_2tmpl_2receipt_8h.html" target="_top" xlink:title=" ">
<polygon fill="white" stroke="black" points="179,-302.5 179,-332.5 290,-332.5 290,-302.5 179,-302.5"/>
<text text-anchor="start" x="187" y="-320.5" font-family="Helvetica,sans-Serif" font-size="10.00">src/apps/js_v8/tmpl</text>
<text text-anchor="middle" x="234.5" y="-309.5" font-family="Helvetica,sans-Serif" font-size="10.00">/receipt.h</text>
</a>
</g>
</g>
<!-- Node15&#45;&gt;Node16 -->
<g id="edge21" class="edge">
<title>Node15&#45;&gt;Node16</title>
<path fill="none" stroke="midnightblue" d="M330.35,-364.99C309.11,-354.69 283.09,-342.07 263.52,-332.58"/>
<polygon fill="midnightblue" stroke="midnightblue" points="328.9,-368.18 339.42,-369.4 331.95,-361.88 328.9,-368.18"/>
</g>
<!-- Node19 -->
<g id="node19" class="node">
<title>Node19</title>
<g id="a_node19"><a xlink:href="historical__queries__adapter_8cpp.html" target="_top" xlink:title=" ">
<polygon fill="white" stroke="black" points="308.5,-302.5 308.5,-332.5 428.5,-332.5 428.5,-302.5 308.5,-302.5"/>
<text text-anchor="start" x="316.5" y="-320.5" font-family="Helvetica,sans-Serif" font-size="10.00">src/node/historical</text>
<text text-anchor="middle" x="368.5" y="-309.5" font-family="Helvetica,sans-Serif" font-size="10.00">_queries_adapter.cpp</text>
</a>
</g>
</g>
<!-- Node15&#45;&gt;Node19 -->
<g id="edge25" class="edge">
<title>Node15&#45;&gt;Node19</title>
<path fill="none" stroke="midnightblue" d="M368.5,-359.11C368.5,-350.15 368.5,-340.32 368.5,-332.58"/>
<polygon fill="midnightblue" stroke="midnightblue" points="365,-359.4 368.5,-369.4 372,-359.4 365,-359.4"/>
</g>
<!-- Node17 -->
<g id="node17" class="node">
<title>Node17</title>
<g id="a_node17"><a xlink:href="historical__state_8cpp.html" target="_top" xlink:title=" ">
<polygon fill="white" stroke="black" points="311,-235.5 311,-265.5 426,-265.5 426,-235.5 311,-235.5"/>
<text text-anchor="start" x="319" y="-253.5" font-family="Helvetica,sans-Serif" font-size="10.00">src/apps/js_v8/tmpl</text>
<text text-anchor="middle" x="368.5" y="-242.5" font-family="Helvetica,sans-Serif" font-size="10.00">/historical_state.cpp</text>
</a>
</g>
</g>
<!-- Node16&#45;&gt;Node17 -->
<g id="edge22" class="edge">
<title>Node16&#45;&gt;Node17</title>
<path fill="none" stroke="midnightblue" d="M272.65,-297.99C293.89,-287.69 319.91,-275.07 339.48,-265.58"/>
<polygon fill="midnightblue" stroke="midnightblue" points="271.05,-294.88 263.58,-302.4 274.1,-301.18 271.05,-294.88"/>
</g>
<!-- Node18 -->
<g id="node18" class="node">
<title>Node18</title>
<g id="a_node18"><a xlink:href="apps_2js__v8_2tmpl_2receipt_8cpp.html" target="_top" xlink:title=" ">
<polygon fill="white" stroke="black" points="182,-235.5 182,-265.5 293,-265.5 293,-235.5 182,-235.5"/>
<text text-anchor="start" x="190" y="-253.5" font-family="Helvetica,sans-Serif" font-size="10.00">src/apps/js_v8/tmpl</text>
<text text-anchor="middle" x="237.5" y="-242.5" font-family="Helvetica,sans-Serif" font-size="10.00">/receipt.cpp</text>
</a>
</g>
</g>
<!-- Node16&#45;&gt;Node18 -->
<g id="edge23" class="edge">
<title>Node16&#45;&gt;Node18</title>
<path fill="none" stroke="midnightblue" d="M235.61,-292.4C236.03,-283.37 236.49,-273.41 236.85,-265.58"/>
<polygon fill="midnightblue" stroke="midnightblue" points="232.12,-292.25 235.15,-302.4 239.11,-292.57 232.12,-292.25"/>
</g>
<!-- Node20&#45;&gt;Node5 -->
<g id="edge28" class="edge">
<title>Node20&#45;&gt;Node5</title>
<path fill="none" stroke="midnightblue" d="M1443,-364.83C1443.38,-346.1 1440.72,-317.83 1423.5,-302 1334.69,-220.38 1265.19,-313.93 1154.5,-266 1134.5,-257.34 1136.1,-244.53 1116.5,-235 1072.76,-213.75 1018.76,-202.37 977.76,-196.38"/>
<polygon fill="midnightblue" stroke="midnightblue" points="1439.5,-364.66 1442.49,-374.82 1446.49,-365.01 1439.5,-364.66"/>
</g>
<!-- Node21 -->
<g id="node21" class="node">
<title>Node21</title>
<g id="a_node21"><a xlink:href="member__frontend_8h.html" target="_top" xlink:title=" ">
<polygon fill="white" stroke="black" points="1163.5,-235.5 1163.5,-265.5 1283.5,-265.5 1283.5,-235.5 1163.5,-235.5"/>
<text text-anchor="start" x="1171.5" y="-253.5" font-family="Helvetica,sans-Serif" font-size="10.00">src/node/rpc/member</text>
<text text-anchor="middle" x="1223.5" y="-242.5" font-family="Helvetica,sans-Serif" font-size="10.00">_frontend.h</text>
</a>
</g>
</g>
<!-- Node20&#45;&gt;Node21 -->
<g id="edge29" class="edge">
<title>Node20&#45;&gt;Node21</title>
<path fill="none" stroke="midnightblue" d="M1452,-365.94C1461.24,-347.96 1471.13,-320.14 1456.5,-302 1445.6,-288.49 1348.94,-271 1283.59,-260.55"/>
<polygon fill="midnightblue" stroke="midnightblue" points="1448.88,-364.35 1447.1,-374.8 1455,-367.75 1448.88,-364.35"/>
</g>
<!-- Node22 -->
<g id="node22" class="node">
<title>Node22</title>
<g id="a_node22"><a xlink:href="node__frontend_8h.html" target="_top" xlink:title=" ">
<polygon fill="white" stroke="black" points="1256.5,-308 1256.5,-327 1414.5,-327 1414.5,-308 1256.5,-308"/>
<text text-anchor="middle" x="1335.5" y="-315" font-family="Helvetica,sans-Serif" font-size="10.00">src/node/rpc/node_frontend.h</text>
</a>
</g>
</g>
<!-- Node20&#45;&gt;Node22 -->
<g id="edge31" class="edge">
<title>Node20&#45;&gt;Node22</title>
<path fill="none" stroke="midnightblue" d="M1418.58,-369.44C1397.58,-356.57 1367.18,-337.93 1349.57,-327.13"/>
<polygon fill="midnightblue" stroke="midnightblue" points="1416.85,-372.49 1427.2,-374.73 1420.51,-366.52 1416.85,-372.49"/>
</g>
<!-- Node24 -->
<g id="node24" class="node">
<title>Node24</title>
<g id="a_node24"><a xlink:href="user__frontend_8h.html" target="_top" xlink:title=" ">
<polygon fill="white" stroke="black" points="2239,-308 2239,-327 2394,-327 2394,-308 2239,-308"/>
<text text-anchor="middle" x="2316.5" y="-315" font-family="Helvetica,sans-Serif" font-size="10.00">src/node/rpc/user_frontend.h</text>
</a>
</g>
</g>
<!-- Node20&#45;&gt;Node24 -->
<g id="edge35" class="edge">
<title>Node20&#45;&gt;Node24</title>
<path fill="none" stroke="midnightblue" d="M1516.28,-380.97C1655.84,-375.73 1965.28,-361.73 2224.5,-333 2238.64,-331.43 2253.93,-329.23 2267.91,-327.01"/>
<polygon fill="midnightblue" stroke="midnightblue" points="1515.99,-377.47 1506.13,-381.34 1516.25,-384.47 1515.99,-377.47"/>
</g>
<!-- Node21&#45;&gt;Node6 -->
<g id="edge30" class="edge">
<title>Node21&#45;&gt;Node6</title>
<path fill="none" stroke="midnightblue" d="M1223.5,-225.27C1223.5,-184.19 1223.5,-102.69 1223.5,-75.82"/>
<polygon fill="midnightblue" stroke="midnightblue" points="1220,-225.48 1223.5,-235.48 1227,-225.48 1220,-225.48"/>
</g>
<!-- Node22&#45;&gt;Node6 -->
<g id="edge32" class="edge">
<title>Node22&#45;&gt;Node6</title>
<path fill="none" stroke="midnightblue" d="M1327.55,-298.78C1305.36,-249.37 1243.4,-111.32 1227.34,-75.55"/>
<polygon fill="midnightblue" stroke="midnightblue" points="1324.36,-300.22 1331.64,-307.91 1330.74,-297.36 1324.36,-300.22"/>
</g>
<!-- Node23 -->
<g id="node23" class="node">
<title>Node23</title>
<g id="a_node23"><a xlink:href="jwt__key__auto__refresh_8h.html" target="_top" xlink:title=" ">
<polygon fill="white" stroke="black" points="982,-235.5 982,-265.5 1107,-265.5 1107,-235.5 982,-235.5"/>
<text text-anchor="start" x="990" y="-253.5" font-family="Helvetica,sans-Serif" font-size="10.00">src/node/jwt_key_auto</text>
<text text-anchor="middle" x="1044.5" y="-242.5" font-family="Helvetica,sans-Serif" font-size="10.00">_refresh.h</text>
</a>
</g>
</g>
<!-- Node22&#45;&gt;Node23 -->
<g id="edge33" class="edge">
<title>Node22&#45;&gt;Node23</title>
<path fill="none" stroke="midnightblue" d="M1287.38,-305.75C1238.07,-294.74 1161.19,-277.57 1107.17,-265.5"/>
<polygon fill="midnightblue" stroke="midnightblue" points="1286.64,-309.17 1297.16,-307.94 1288.16,-302.34 1286.64,-309.17"/>
</g>
<!-- Node23&#45;&gt;Node5 -->
<g id="edge34" class="edge">
<title>Node23&#45;&gt;Node5</title>
<path fill="none" stroke="midnightblue" d="M1004.57,-231.08C981.14,-220.28 952.62,-207.12 934.27,-198.66"/>
<polygon fill="midnightblue" stroke="midnightblue" points="1003.38,-234.39 1013.93,-235.4 1006.31,-228.03 1003.38,-234.39"/>
</g>
<!-- Node24&#45;&gt;Node6 -->
<g id="edge36" class="edge">
<title>Node24&#45;&gt;Node6</title>
<path fill="none" stroke="midnightblue" d="M2316.07,-297.95C2314,-256.54 2302.59,-156.7 2241.5,-112 2202.8,-83.68 1499.06,-71.05 1284.85,-67.85"/>
<polygon fill="midnightblue" stroke="midnightblue" points="2312.57,-298.12 2316.44,-307.98 2319.57,-297.86 2312.57,-298.12"/>
</g>
<!-- Node26 -->
<g id="node26" class="node">
<title>Node26</title>
<g id="a_node26"><a xlink:href="kv__module__loader_8cpp.html" target="_top" xlink:title=" ">
<polygon fill="white" stroke="black" points="1216,-369.5 1216,-399.5 1359,-399.5 1359,-369.5 1216,-369.5"/>
<text text-anchor="start" x="1224" y="-387.5" font-family="Helvetica,sans-Serif" font-size="10.00">src/apps/js_v8/kv_module</text>
<text text-anchor="middle" x="1287.5" y="-376.5" font-family="Helvetica,sans-Serif" font-size="10.00">_loader.cpp</text>
</a>
</g>
</g>
<!-- Node25&#45;&gt;Node26 -->
<g id="edge39" class="edge">
<title>Node25&#45;&gt;Node26</title>
<path fill="none" stroke="midnightblue" d="M1044.61,-436.59C1096.59,-425.66 1168.69,-410.49 1220.82,-399.53"/>
<polygon fill="midnightblue" stroke="midnightblue" points="1043.88,-433.17 1034.82,-438.65 1045.32,-440.02 1043.88,-433.17"/>
</g>
<!-- Node27 -->
<g id="node27" class="node">
<title>Node27</title>
<g id="a_node27"><a xlink:href="ccf__acme__client_8h.html" target="_top" xlink:title=" ">
<polygon fill="white" stroke="black" points="742,-375 742,-394 891,-394 891,-375 742,-375"/>
<text text-anchor="middle" x="816.5" y="-382" font-family="Helvetica,sans-Serif" font-size="10.00">src/node/ccf_acme_client.h</text>
</a>
</g>
</g>
<!-- Node25&#45;&gt;Node27 -->
<g id="edge40" class="edge">
<title>Node25&#45;&gt;Node27</title>
<path fill="none" stroke="midnightblue" d="M933.94,-432.62C902.58,-420.04 862.02,-403.77 837.7,-394.01"/>
<polygon fill="midnightblue" stroke="midnightblue" points="932.76,-435.92 943.35,-436.4 935.37,-429.42 932.76,-435.92"/>
</g>
<!-- Node28 -->
<g id="node28" class="node">
<title>Node28</title>
<g id="a_node28"><a xlink:href="network__state_8h.html" target="_top" xlink:title=" ">
<polygon fill="white" stroke="black" points="1057.5,-375 1057.5,-394 1197.5,-394 1197.5,-375 1057.5,-375"/>
<text text-anchor="middle" x="1127.5" y="-382" font-family="Helvetica,sans-Serif" font-size="10.00">src/node/network_state.h</text>
</a>
</g>
</g>
<!-- Node25&#45;&gt;Node28 -->
<g id="edge42" class="edge">
<title>Node25&#45;&gt;Node28</title>
<path fill="none" stroke="midnightblue" d="M1020.23,-432.3C1048.97,-419.76 1085.82,-403.68 1108,-394.01"/>
<polygon fill="midnightblue" stroke="midnightblue" points="1018.6,-429.19 1010.83,-436.4 1021.4,-435.61 1018.6,-429.19"/>
</g>
<!-- Node39 -->
<g id="node39" class="node">
<title>Node39</title>
<g id="a_node39"><a xlink:href="genesis__gen_8h.html" target="_top" xlink:title=" ">
<polygon fill="white" stroke="black" points="925.5,-369.5 925.5,-399.5 1035.5,-399.5 1035.5,-369.5 925.5,-369.5"/>
<text text-anchor="start" x="933.5" y="-387.5" font-family="Helvetica,sans-Serif" font-size="10.00">src/service/genesis</text>
<text text-anchor="middle" x="980.5" y="-376.5" font-family="Helvetica,sans-Serif" font-size="10.00">_gen.h</text>
</a>
</g>
</g>
<!-- Node25&#45;&gt;Node39 -->
<g id="edge68" class="edge">
<title>Node25&#45;&gt;Node39</title>
<path fill="none" stroke="midnightblue" d="M979.25,-426.11C979.53,-417.15 979.83,-407.32 980.07,-399.58"/>
<polygon fill="midnightblue" stroke="midnightblue" points="975.74,-426.29 978.93,-436.4 982.74,-426.51 975.74,-426.29"/>
</g>
<!-- Node27&#45;&gt;Node5 -->
<g id="edge41" class="edge">
<title>Node27&#45;&gt;Node5</title>
<path fill="none" stroke="midnightblue" d="M813.81,-364.75C810.5,-334.45 808.4,-274.17 836.5,-235 849.2,-217.3 871.16,-205.61 888.71,-198.59"/>
<polygon fill="midnightblue" stroke="midnightblue" points="810.35,-365.3 815.07,-374.79 817.29,-364.43 810.35,-365.3"/>
</g>
<!-- Node28&#45;&gt;Node5 -->
<g id="edge59" class="edge">
<title>Node28&#45;&gt;Node5</title>
<path fill="none" stroke="midnightblue" d="M1157.38,-370.45C1189.01,-354.87 1231.55,-327.66 1209.5,-302 1140.36,-221.52 1064.77,-320.11 973.5,-266 946.09,-249.75 927.17,-215.12 919.42,-198.83"/>
<polygon fill="midnightblue" stroke="midnightblue" points="1155.53,-367.46 1148,-374.9 1158.53,-373.78 1155.53,-367.46"/>
</g>
<!-- Node28&#45;&gt;Node6 -->
<g id="edge43" class="edge">
<title>Node28&#45;&gt;Node6</title>
<path fill="none" stroke="midnightblue" d="M1179.61,-373.21C1188.87,-371.62 1198.45,-370.14 1207.5,-369 1318.44,-355.07 2134.98,-350.24 2208.5,-266 2334.55,-121.58 1518.4,-78.47 1284.74,-69.15"/>
<polygon fill="midnightblue" stroke="midnightblue" points="1178.95,-369.77 1169.72,-374.96 1180.17,-376.66 1178.95,-369.77"/>
</g>
<!-- Node28&#45;&gt;Node14 -->
<g id="edge67" class="edge">
<title>Node28&#45;&gt;Node14</title>
<path fill="none" stroke="midnightblue" d="M1068.89,-373.24C1060.7,-371.82 1052.39,-370.37 1044.5,-369 951.63,-352.89 926.61,-357.14 835.5,-333 757.79,-312.41 669.01,-276.38 630.29,-260.02"/>
<polygon fill="midnightblue" stroke="midnightblue" points="1068.33,-376.7 1078.79,-374.97 1069.54,-369.8 1068.33,-376.7"/>
</g>
<!-- Node28&#45;&gt;Node22 -->
<g id="edge60" class="edge">
<title>Node28&#45;&gt;Node22</title>
<path fill="none" stroke="midnightblue" d="M1164.79,-371.85C1205.99,-358.97 1271.35,-338.55 1308.1,-327.06"/>
<polygon fill="midnightblue" stroke="midnightblue" points="1163.62,-368.55 1155.12,-374.87 1165.71,-375.23 1163.62,-368.55"/>
</g>
<!-- Node28&#45;&gt;Node24 -->
<g id="edge61" class="edge">
<title>Node28&#45;&gt;Node24</title>
<path fill="none" stroke="midnightblue" d="M1178,-373.21C1187.76,-371.55 1197.92,-370.03 1207.5,-369 1657.18,-320.54 1774.29,-376.29 2224.5,-333 2239.15,-331.59 2255.01,-329.35 2269.36,-327.05"/>
<polygon fill="midnightblue" stroke="midnightblue" points="1177.27,-369.79 1168.03,-374.99 1178.49,-376.68 1177.27,-369.79"/>
</g>
<!-- Node29 -->
<g id="node29" class="node">
<title>Node29</title>
<g id="a_node29"><a xlink:href="wrap_8h.html" target="_top" xlink:title=" ">
<polygon fill="white" stroke="black" points="1630.5,-308 1630.5,-327 1708.5,-327 1708.5,-308 1630.5,-308"/>
<text text-anchor="middle" x="1669.5" y="-315" font-family="Helvetica,sans-Serif" font-size="10.00">src/js/wrap.h</text>
</a>
</g>
</g>
<!-- Node28&#45;&gt;Node29 -->
<g id="edge44" class="edge">
<title>Node28&#45;&gt;Node29</title>
<path fill="none" stroke="midnightblue" d="M1181.48,-373.18C1190.16,-371.68 1199.07,-370.22 1207.5,-369 1363.61,-346.35 1550.72,-328.84 1630.44,-321.83"/>
<polygon fill="midnightblue" stroke="midnightblue" points="1180.66,-369.77 1171.42,-374.96 1181.88,-376.67 1180.66,-369.77"/>
</g>
<!-- Node37 -->
<g id="node37" class="node">
<title>Node37</title>
<g id="a_node37"><a xlink:href="secret__broadcast_8h.html" target="_top" xlink:title=" ">
<polygon fill="white" stroke="black" points="845,-308 845,-327 998,-327 998,-308 845,-308"/>
<text text-anchor="middle" x="921.5" y="-315" font-family="Helvetica,sans-Serif" font-size="10.00">src/node/secret_broadcast.h</text>
</a>
</g>
</g>
<!-- Node28&#45;&gt;Node37 -->
<g id="edge62" class="edge">
<title>Node28&#45;&gt;Node37</title>
<path fill="none" stroke="midnightblue" d="M1090.57,-371.85C1049.77,-358.97 985.03,-338.55 948.64,-327.06"/>
<polygon fill="midnightblue" stroke="midnightblue" points="1089.56,-375.2 1100.14,-374.87 1091.66,-368.52 1089.56,-375.2"/>
</g>
<!-- Node38 -->
<g id="node38" class="node">
<title>Node38</title>
<g id="a_node38"><a xlink:href="share__manager_8h.html" target="_top" xlink:title=" ">
<polygon fill="white" stroke="black" points="1055,-308 1055,-327 1200,-327 1200,-308 1055,-308"/>
<text text-anchor="middle" x="1127.5" y="-315" font-family="Helvetica,sans-Serif" font-size="10.00">src/node/share_manager.h</text>
</a>
</g>
</g>
<!-- Node28&#45;&gt;Node38 -->
<g id="edge64" class="edge">
<title>Node28&#45;&gt;Node38</title>
<path fill="none" stroke="midnightblue" d="M1127.5,-364.54C1127.5,-352.17 1127.5,-336.62 1127.5,-327.13"/>
<polygon fill="midnightblue" stroke="midnightblue" points="1124,-364.73 1127.5,-374.73 1131,-364.73 1124,-364.73"/>
</g>
<!-- Node29&#45;&gt;Node5 -->
<g id="edge57" class="edge">
<title>Node29&#45;&gt;Node5</title>
<path fill="none" stroke="midnightblue" d="M1620.42,-311.64C1560.22,-304.91 1455.47,-290.7 1368.5,-266 1333.41,-256.03 1327.82,-244.13 1292.5,-235 1184.01,-206.95 1053.36,-196.31 977.82,-192.33"/>
<polygon fill="midnightblue" stroke="midnightblue" points="1620.09,-315.12 1630.41,-312.73 1620.85,-308.17 1620.09,-315.12"/>
</g>
<!-- Node29&#45;&gt;Node6 -->
<g id="edge46" class="edge">
<title>Node29&#45;&gt;Node6</title>
<path fill="none" stroke="midnightblue" d="M1669.88,-297.54C1669.24,-279.43 1665.53,-252.4 1650.5,-235 1555.2,-124.68 1377.95,-86.24 1284.61,-73.28"/>
<polygon fill="midnightblue" stroke="midnightblue" points="1666.38,-297.75 1669.95,-307.72 1673.38,-297.7 1666.38,-297.75"/>
</g>
<!-- Node29&#45;&gt;Node21 -->
<g id="edge58" class="edge">
<title>Node29&#45;&gt;Node21</title>
<path fill="none" stroke="midnightblue" d="M1620.22,-309.32C1537.93,-297.33 1372.82,-273.26 1283.75,-260.28"/>
<polygon fill="midnightblue" stroke="midnightblue" points="1619.91,-312.81 1630.31,-310.79 1620.92,-305.88 1619.91,-312.81"/>
</g>
<!-- Node30 -->
<g id="node30" class="node">
<title>Node30</title>
<g id="a_node30"><a xlink:href="js__generic__base_8cpp.html" target="_top" xlink:title=" ">
<polygon fill="white" stroke="black" points="1523.5,-235.5 1523.5,-265.5 1641.5,-265.5 1641.5,-235.5 1523.5,-235.5"/>
<text text-anchor="start" x="1531.5" y="-253.5" font-family="Helvetica,sans-Serif" font-size="10.00">src/apps/js_generic</text>
<text text-anchor="middle" x="1582.5" y="-242.5" font-family="Helvetica,sans-Serif" font-size="10.00">/js_generic_base.cpp</text>
</a>
</g>
</g>
<!-- Node29&#45;&gt;Node30 -->
<g id="edge45" class="edge">
<title>Node29&#45;&gt;Node30</title>
<path fill="none" stroke="midnightblue" d="M1649.48,-301.54C1635,-290.73 1615.56,-276.2 1601.36,-265.59"/>
<polygon fill="midnightblue" stroke="midnightblue" points="1647.66,-304.55 1657.77,-307.73 1651.85,-298.94 1647.66,-304.55"/>
</g>
<!-- Node31 -->
<g id="node31" class="node">
<title>Node31</title>
<g id="a_node31"><a xlink:href="js_2consensus_8cpp.html" target="_top" xlink:title=" ">
<polygon fill="white" stroke="black" points="2083.5,-241 2083.5,-260 2199.5,-260 2199.5,-241 2083.5,-241"/>
<text text-anchor="middle" x="2141.5" y="-248" font-family="Helvetica,sans-Serif" font-size="10.00">src/js/consensus.cpp</text>
</a>
</g>
</g>
<!-- Node29&#45;&gt;Node31 -->
<g id="edge47" class="edge">
<title>Node29&#45;&gt;Node31</title>
<path fill="none" stroke="midnightblue" d="M1718.71,-311.46C1794.35,-303.45 1943.65,-286.59 2069.5,-266 2079.94,-264.29 2091.18,-262.17 2101.61,-260.07"/>
<polygon fill="midnightblue" stroke="midnightblue" points="1718.11,-308 1708.53,-312.53 1718.84,-314.96 1718.11,-308"/>
</g>
<!-- Node32 -->
<g id="node32" class="node">
<title>Node32</title>
<g id="a_node32"><a xlink:href="wrap_8cpp.html" target="_top" xlink:title=" ">
<polygon fill="white" stroke="black" points="1928,-179.5 1928,-198.5 2017,-198.5 2017,-179.5 1928,-179.5"/>
<text text-anchor="middle" x="1972.5" y="-186.5" font-family="Helvetica,sans-Serif" font-size="10.00">src/js/wrap.cpp</text>
</a>
</g>
</g>
<!-- Node29&#45;&gt;Node32 -->
<g id="edge56" class="edge">
<title>Node29&#45;&gt;Node32</title>
<path fill="none" stroke="midnightblue" d="M1718.76,-317.33C1809.12,-317.69 1995.85,-312.62 2036.5,-266 2045.55,-255.61 2042.85,-247.23 2036.5,-235 2027.61,-217.88 2008.89,-205.91 1993.98,-198.64"/>
<polygon fill="midnightblue" stroke="midnightblue" points="1718.78,-313.83 1708.76,-317.27 1718.73,-320.83 1718.78,-313.83"/>
</g>
<!-- Node33 -->
<g id="node33" class="node">
<title>Node33</title>
<g id="a_node33"><a xlink:href="conv_8cpp.html" target="_top" xlink:title=" ">
<polygon fill="white" stroke="black" points="1697.5,-241 1697.5,-260 1785.5,-260 1785.5,-241 1697.5,-241"/>
<text text-anchor="middle" x="1741.5" y="-248" font-family="Helvetica,sans-Serif" font-size="10.00">src/js/conv.cpp</text>
</a>
</g>
</g>
<!-- Node29&#45;&gt;Node33 -->
<g id="edge49" class="edge">
<title>Node29&#45;&gt;Node33</title>
<path fill="none" stroke="midnightblue" d="M1686.83,-300.86C1700.98,-288.08 1720.46,-270.49 1731.94,-260.13"/>
<polygon fill="midnightblue" stroke="midnightblue" points="1684.29,-298.43 1679.21,-307.73 1688.98,-303.63 1684.29,-298.43"/>
</g>
<!-- Node34 -->
<g id="node34" class="node">
<title>Node34</title>
<g id="a_node34"><a xlink:href="js_2crypto_8cpp.html" target="_top" xlink:title=" ">
<polygon fill="white" stroke="black" points="1803.5,-241 1803.5,-260 1899.5,-260 1899.5,-241 1803.5,-241"/>
<text text-anchor="middle" x="1851.5" y="-248" font-family="Helvetica,sans-Serif" font-size="10.00">src/js/crypto.cpp</text>
</a>
</g>
</g>
<!-- Node29&#45;&gt;Node34 -->
<g id="edge51" class="edge">
<title>Node29&#45;&gt;Node34</title>
<path fill="none" stroke="midnightblue" d="M1703.28,-304.44C1739.38,-291.54 1795.71,-271.42 1827.52,-260.06"/>
<polygon fill="midnightblue" stroke="midnightblue" points="1701.91,-301.21 1693.67,-307.87 1704.26,-307.8 1701.91,-301.21"/>
</g>
<!-- Node35 -->
<g id="node35" class="node">
<title>Node35</title>
<g id="a_node35"><a xlink:href="js_2historical_8cpp.html" target="_top" xlink:title=" ">
<polygon fill="white" stroke="black" points="1917.5,-241 1917.5,-260 2027.5,-260 2027.5,-241 1917.5,-241"/>
<text text-anchor="middle" x="1972.5" y="-248" font-family="Helvetica,sans-Serif" font-size="10.00">src/js/historical.cpp</text>
</a>
</g>
</g>
<!-- Node29&#45;&gt;Node35 -->
<g id="edge53" class="edge">
<title>Node29&#45;&gt;Node35</title>
<path fill="none" stroke="midnightblue" d="M1718.76,-306.31C1767.11,-296.26 1842.94,-280.35 1908.5,-266 1917.18,-264.1 1926.51,-262.01 1935.29,-260.03"/>
<polygon fill="midnightblue" stroke="midnightblue" points="1717.95,-302.9 1708.87,-308.36 1719.37,-309.76 1717.95,-302.9"/>
</g>
<!-- Node36 -->
<g id="node36" class="node">
<title>Node36</title>
<g id="a_node36"><a xlink:href="openenclave_8cpp.html" target="_top" xlink:title=" ">
<polygon fill="white" stroke="black" points="1377.5,-241 1377.5,-260 1505.5,-260 1505.5,-241 1377.5,-241"/>
<text text-anchor="middle" x="1441.5" y="-248" font-family="Helvetica,sans-Serif" font-size="10.00">src/js/openenclave.cpp</text>
</a>
</g>
</g>
<!-- Node29&#45;&gt;Node36 -->
<g id="edge55" class="edge">
<title>Node29&#45;&gt;Node36</title>
<path fill="none" stroke="midnightblue" d="M1629.48,-305.09C1584.38,-292.23 1512.07,-271.62 1471.54,-260.06"/>
<polygon fill="midnightblue" stroke="midnightblue" points="1628.65,-308.49 1639.22,-307.87 1630.57,-301.76 1628.65,-308.49"/>
</g>
<!-- Node31&#45;&gt;Node32 -->
<g id="edge48" class="edge">
<title>Node31&#45;&gt;Node32</title>
<path fill="none" stroke="midnightblue" d="M2107.65,-237.58C2074.8,-226.02 2025.76,-208.75 1996.67,-198.51"/>
<polygon fill="midnightblue" stroke="midnightblue" points="2106.69,-240.96 2117.29,-240.98 2109.02,-234.35 2106.69,-240.96"/>
</g>
<!-- Node33&#45;&gt;Node32 -->
<g id="edge50" class="edge">
<title>Node33&#45;&gt;Node32</title>
<path fill="none" stroke="midnightblue" d="M1782.03,-238.33C1786.24,-237.19 1790.45,-236.07 1794.5,-235 1844.28,-221.9 1902.09,-207.42 1937.99,-198.51"/>
<polygon fill="midnightblue" stroke="midnightblue" points="1781.04,-234.97 1772.3,-240.96 1782.87,-241.72 1781.04,-234.97"/>
</g>
<!-- Node34&#45;&gt;Node32 -->
<g id="edge52" class="edge">
<title>Node34&#45;&gt;Node32</title>
<path fill="none" stroke="midnightblue" d="M1877.89,-236.52C1901.36,-224.98 1934.99,-208.44 1955.2,-198.51"/>
<polygon fill="midnightblue" stroke="midnightblue" points="1876.27,-233.42 1868.84,-240.98 1879.35,-239.7 1876.27,-233.42"/>
</g>
<!-- Node35&#45;&gt;Node32 -->
<g id="edge54" class="edge">
<title>Node35&#45;&gt;Node32</title>
<path fill="none" stroke="midnightblue" d="M1972.5,-230.82C1972.5,-220 1972.5,-206.9 1972.5,-198.51"/>
<polygon fill="midnightblue" stroke="midnightblue" points="1969,-230.98 1972.5,-240.98 1976,-230.98 1969,-230.98"/>
</g>
<!-- Node37&#45;&gt;Node5 -->
<g id="edge63" class="edge">
<title>Node37&#45;&gt;Node5</title>
<path fill="none" stroke="midnightblue" d="M912.56,-298.74C908.29,-289.28 903.65,-277.29 901.5,-266 898.92,-252.47 899.43,-248.62 901.5,-235 903.47,-222.06 908.44,-207.72 911.9,-198.78"/>
<polygon fill="midnightblue" stroke="midnightblue" points="909.45,-300.35 916.91,-307.87 915.76,-297.33 909.45,-300.35"/>
</g>
<!-- Node38&#45;&gt;Node5 -->
<g id="edge65" class="edge">
<title>Node38&#45;&gt;Node5</title>
<path fill="none" stroke="midnightblue" d="M1064.07,-306.18C1016.8,-297.29 957.45,-283.18 939.5,-266 920.41,-247.72 916.45,-214.41 915.66,-198.68"/>
<polygon fill="midnightblue" stroke="midnightblue" points="1063.49,-309.63 1073.96,-308 1064.76,-302.75 1063.49,-309.63"/>
</g>
<!-- Node38&#45;&gt;Node21 -->
<g id="edge66" class="edge">
<title>Node38&#45;&gt;Node21</title>
<path fill="none" stroke="midnightblue" d="M1149.14,-301.85C1165.16,-291 1186.87,-276.3 1202.69,-265.59"/>
<polygon fill="midnightblue" stroke="midnightblue" points="1146.77,-299.23 1140.45,-307.73 1150.69,-305.03 1146.77,-299.23"/>
</g>
<!-- Node39&#45;&gt;Node5 -->
<g id="edge69" class="edge">
<title>Node39&#45;&gt;Node5</title>
<path fill="none" stroke="midnightblue" d="M915.31,-368.65C881.56,-359.51 845.37,-346.89 835.5,-333 801.55,-285.23 874.04,-221.74 903.65,-198.77"/>
<polygon fill="midnightblue" stroke="midnightblue" points="914.65,-372.1 925.21,-371.26 916.43,-365.33 914.65,-372.1"/>
</g>
<!-- Node39&#45;&gt;Node21 -->
<g id="edge70" class="edge">
<title>Node39&#45;&gt;Node21</title>
<path fill="none" stroke="midnightblue" d="M993.43,-360.79C1005.05,-342.35 1023.76,-317.03 1046.5,-302 1081.42,-278.92 1126.95,-266.24 1163.09,-259.35"/>
<polygon fill="midnightblue" stroke="midnightblue" points="990.36,-359.1 988.16,-369.46 996.34,-362.73 990.36,-359.1"/>
</g>
<!-- Node39&#45;&gt;Node22 -->
<g id="edge71" class="edge">
<title>Node39&#45;&gt;Node22</title>
<path fill="none" stroke="midnightblue" d="M1045.76,-369.54C1046.68,-369.36 1047.59,-369.18 1048.5,-369 1130.56,-353.04 1226.27,-336.64 1283.81,-327.02"/>
<polygon fill="midnightblue" stroke="midnightblue" points="1044.88,-366.14 1035.76,-371.54 1046.26,-373.01 1044.88,-366.14"/>
</g>
<!-- Node39&#45;&gt;Node37 -->
<g id="edge72" class="edge">
<title>Node39&#45;&gt;Node37</title>
<path fill="none" stroke="midnightblue" d="M960.67,-361.66C949.97,-349.86 937.35,-335.97 929.39,-327.19"/>
<polygon fill="midnightblue" stroke="midnightblue" points="958.39,-364.34 967.7,-369.4 963.57,-359.64 958.39,-364.34"/>
</g>
<!-- Node39&#45;&gt;Node38 -->
<g id="edge73" class="edge">
<title>Node39&#45;&gt;Node38</title>
<path fill="none" stroke="midnightblue" d="M1021.67,-365.3C1050.02,-352.76 1086.38,-336.68 1108.26,-327.01"/>
<polygon fill="midnightblue" stroke="midnightblue" points="1020.13,-362.15 1012.4,-369.4 1022.96,-368.55 1020.13,-362.15"/>
</g>
</g>
</svg>
