<?xml version="1.0" encoding="UTF-8" standalone="no"?>
<!DOCTYPE svg PUBLIC "-//W3C//DTD SVG 1.1//EN"
 "http://www.w3.org/Graphics/SVG/1.1/DTD/svg11.dtd">
<!-- Generated by graphviz version 2.43.0 (0)
 -->
<!-- Title: src/host Pages: 1 -->
<!--zoomable 167 -->
<svg id="main" version="1.1" xmlns="http://www.w3.org/2000/svg" xmlns:xlink="http://www.w3.org/1999/xlink" xml:space="preserve" onload="init(evt)">
<style type="text/css"><![CDATA[
.edge:hover path { stroke: red; }
.edge:hover polygon { stroke: red; fill: red; }
]]></style>
<script type="text/javascript"><![CDATA[
var edges = document.getElementsByTagName('g');
if (edges && edges.length) {
  for (var i=0;i<edges.length;i++) {
    if (edges[i].id.substr(0,4)=='edge') {
      edges[i].setAttribute('class','edge');
    }
  }
}
]]></script>
        <defs>
                <circle id="rim" cx="0" cy="0" r="7"/>
                <circle id="rim2" cx="0" cy="0" r="3.5"/>
                <g id="zoomPlus">
                        <use xlink:href="#rim" fill="#404040">
                                <set attributeName="fill" to="#808080" begin="zoomplus.mouseover" end="zoomplus.mouseout"/>
                        </use>
                        <path d="M-4,0h8M0,-4v8" fill="none" stroke="white" stroke-width="1.5" pointer-events="none"/>
                </g>
                <g id="zoomMin">
                        <use xlink:href="#rim" fill="#404040">
                                <set attributeName="fill" to="#808080" begin="zoomminus.mouseover" end="zoomminus.mouseout"/>
                        </use>
                        <path d="M-4,0h8" fill="none" stroke="white" stroke-width="1.5" pointer-events="none"/>
                </g>
                <g id="dirArrow">
                        <path fill="none" stroke="white" stroke-width="1.5" d="M0,-3.0v7 M-2.5,-0.5L0,-3.0L2.5,-0.5"/>
                </g>
               <g id="resetDef">
                       <use xlink:href="#rim2" fill="#404040">
                               <set attributeName="fill" to="#808080" begin="reset.mouseover" end="reset.mouseout"/>
                       </use>
               </g>
        </defs>

<script type="text/javascript">
var viewWidth = 826;
var viewHeight = 167;
var sectionId = 'dynsection-0';
</script>
<script xlink:href="svgpan.js"/>
<svg id="graph" class="graph">
<g id="viewport">
<title>src/host</title>
<polygon fill="white" stroke="transparent" points="-4,4 -4,-163 822,-163 822,4 -4,4"/>
<g id="clust1" class="cluster">
<title>clusterdir_68267d1309a1af8e8297ef4c3efbcdba</title>
<g id="a_clust1"><a xlink:href="dir_68267d1309a1af8e8297ef4c3efbcdba.html" target="_top" xlink:title="src">
<polygon fill="#edf0f7" stroke="#404040" stroke-dasharray="5,2" points="8,-8 8,-151 754,-151 754,-8 8,-8"/>
<text text-anchor="middle" x="381" y="-139" font-family="Helvetica,sans-Serif" font-size="10.00">src</text>
</a>
</g>
</g>
<!-- dir_122f4add68bb94b3fee614989bbbd8f9 -->
<g id="node1" class="node">
<title>dir_122f4add68bb94b3fee614989bbbd8f9</title>
<g id="a_node1"><a xlink:href="dir_122f4add68bb94b3fee614989bbbd8f9.html" target="_top" xlink:title="ds">
<polygon fill="#a2b4d6" stroke="#404040" points="70,-52 16,-52 16,-16 70,-16 70,-52"/>
<text text-anchor="middle" x="43" y="-31.5" font-family="Helvetica,sans-Serif" font-size="10.00">ds</text>
</a>
</g>
</g>
<!-- dir_18ae7af74d885898b85cbb543ae51b63 -->
<g id="node2" class="node">
<title>dir_18ae7af74d885898b85cbb543ae51b63</title>
<g id="a_node2"><a xlink:href="dir_18ae7af74d885898b85cbb543ae51b63.html" target="_top" xlink:title="node">
<polygon fill="#a2b4d6" stroke="red" points="142,-52 88,-52 88,-16 142,-16 142,-52"/>
<text text-anchor="middle" x="115" y="-31.5" font-family="Helvetica,sans-Serif" font-size="10.00">node</text>
</a>
</g>
</g>
<!-- dir_1af0ddd77af1c20f0c9558f89bd86ab0 -->
<g id="node3" class="node">
<title>dir_1af0ddd77af1c20f0c9558f89bd86ab0</title>
<g id="a_node3"><a xlink:href="dir_1af0ddd77af1c20f0c9558f89bd86ab0.html" target="_top" xlink:title="indexing">
<polygon fill="#a2b4d6" stroke="red" points="219.5,-52 160.5,-52 160.5,-16 219.5,-16 219.5,-52"/>
<text text-anchor="middle" x="190" y="-31.5" font-family="Helvetica,sans-Serif" font-size="10.00">indexing</text>
</a>
</g>
</g>
<!-- dir_2d29d7dff7c7baf1180920f6796c23ae -->
<g id="node4" class="node">
<title>dir_2d29d7dff7c7baf1180920f6796c23ae</title>
<g id="a_node4"><a xlink:href="dir_2d29d7dff7c7baf1180920f6796c23ae.html" target="_top" xlink:title="http">
<polygon fill="#a2b4d6" stroke="#404040" points="292,-52 238,-52 238,-16 292,-16 292,-52"/>
<text text-anchor="middle" x="265" y="-31.5" font-family="Helvetica,sans-Serif" font-size="10.00">http</text>
</a>
</g>
</g>
<!-- dir_4c8befd6991d7a2e9d66c427274b8c22 -->
<g id="node5" class="node">
<title>dir_4c8befd6991d7a2e9d66c427274b8c22</title>
<g id="a_node5"><a xlink:href="dir_4c8befd6991d7a2e9d66c427274b8c22.html" target="_top" xlink:title="kv">
<polygon fill="#a2b4d6" stroke="#404040" points="364,-52 310,-52 310,-16 364,-16 364,-52"/>
<text text-anchor="middle" x="337" y="-31.5" font-family="Helvetica,sans-Serif" font-size="10.00">kv</text>
</a>
</g>
</g>
<!-- dir_5427940bb9029915fc0c11c1284afde6 -->
<g id="node6" class="node">
<title>dir_5427940bb9029915fc0c11c1284afde6</title>
<g id="a_node6"><a xlink:href="dir_5427940bb9029915fc0c11c1284afde6.html" target="_top" xlink:title="enclave">
<polygon fill="#a2b4d6" stroke="#404040" points="437.5,-52 382.5,-52 382.5,-16 437.5,-16 437.5,-52"/>
<text text-anchor="middle" x="410" y="-31.5" font-family="Helvetica,sans-Serif" font-size="10.00">enclave</text>
</a>
</g>
</g>
<!-- dir_654fcaaa959505712bb2ecafa3e1042f -->
<g id="node7" class="node">
<title>dir_654fcaaa959505712bb2ecafa3e1042f</title>
<g id="a_node7"><a xlink:href="dir_654fcaaa959505712bb2ecafa3e1042f.html" target="_top" xlink:title="tls">
<polygon fill="#a2b4d6" stroke="#404040" points="510,-52 456,-52 456,-16 510,-16 510,-52"/>
<text text-anchor="middle" x="483" y="-31.5" font-family="Helvetica,sans-Serif" font-size="10.00">tls</text>
</a>
</g>
</g>
<!-- dir_d87d126959cfe231b8095c5f45fd8690 -->
<g id="node8" class="node">
<title>dir_d87d126959cfe231b8095c5f45fd8690</title>
<g id="a_node8"><a xlink:href="dir_d87d126959cfe231b8095c5f45fd8690.html" target="_top" xlink:title="quic">
<polygon fill="#a2b4d6" stroke="#404040" points="582,-52 528,-52 528,-16 582,-16 582,-52"/>
<text text-anchor="middle" x="555" y="-31.5" font-family="Helvetica,sans-Serif" font-size="10.00">quic</text>
</a>
</g>
</g>
<!-- dir_dee301ab18d354d094fb7852349ef839 -->
<g id="node9" class="node">
<title>dir_dee301ab18d354d094fb7852349ef839</title>
<g id="a_node9"><a xlink:href="dir_dee301ab18d354d094fb7852349ef839.html" target="_top" xlink:title="consensus">
<polygon fill="#a2b4d6" stroke="red" points="668,-52 600,-52 600,-16 668,-16 668,-52"/>
<text text-anchor="middle" x="634" y="-31.5" font-family="Helvetica,sans-Serif" font-size="10.00">consensus</text>
</a>
</g>
</g>
<!-- dir_fdedb0aba14d44ce9d99bc100e026e6a -->
<g id="node10" class="node">
<title>dir_fdedb0aba14d44ce9d99bc100e026e6a</title>
<g id="a_node10"><a xlink:href="dir_fdedb0aba14d44ce9d99bc100e026e6a.html" target="_top" xlink:title="common">
<polygon fill="#a2b4d6" stroke="#404040" points="745.5,-52 686.5,-52 686.5,-16 745.5,-16 745.5,-52"/>
<text text-anchor="middle" x="716" y="-31.5" font-family="Helvetica,sans-Serif" font-size="10.00">common</text>
</a>
</g>
</g>
<!-- dir_84e79ac80b913c2fb5b9e077744e9498 -->
<g id="node11" class="node">
<title>dir_84e79ac80b913c2fb5b9e077744e9498</title>
<g id="a_node11"><a xlink:href="dir_84e79ac80b913c2fb5b9e077744e9498.html" target="_top" xlink:title="host">
<polygon fill="#edf0f7" stroke="#404040" stroke-width="2" points="437,-124 383,-124 383,-88 437,-88 437,-124"/>
<text text-anchor="middle" x="410" y="-103.5" font-family="Helvetica,sans-Serif" font-size="10.00">host</text>
</a>
</g>
</g>
<!-- dir_84e79ac80b913c2fb5b9e077744e9498&#45;&gt;dir_122f4add68bb94b3fee614989bbbd8f9 -->
<g id="edge1" class="edge">
<title>dir_84e79ac80b913c2fb5b9e077744e9498&#45;&gt;dir_122f4add68bb94b3fee614989bbbd8f9</title>
<path fill="none" stroke="black" d="M382.81,-103.25C327.06,-99.12 195.96,-86.59 79.94,-51.8"/>
<polygon fill="black" stroke="black" points="80.78,-48.4 70.2,-48.82 78.73,-55.09 80.78,-48.4"/>
<g id="a_edge1&#45;headlabel"><a xlink:href="dir_000018_000014.html" target="_top" xlink:title="18">
<text text-anchor="middle" x="85.05" y="-44.24" font-family="Helvetica,sans-Serif" font-size="10.00">18</text>
</a>
</g>
</g>
<!-- dir_84e79ac80b913c2fb5b9e077744e9498&#45;&gt;dir_18ae7af74d885898b85cbb543ae51b63 -->
<g id="edge2" class="edge">
<title>dir_84e79ac80b913c2fb5b9e077744e9498&#45;&gt;dir_18ae7af74d885898b85cbb543ae51b63</title>
<path fill="none" stroke="black" d="M382.73,-101.49C335.08,-94.89 233.91,-78.84 152,-52 151.9,-51.97 151.8,-51.93 151.7,-51.9"/>
<polygon fill="black" stroke="black" points="152.79,-48.57 142.2,-48.34 150.33,-55.13 152.79,-48.57"/>
<g id="a_edge2&#45;headlabel"><a xlink:href="dir_000018_000032.html" target="_top" xlink:title="1">
<text text-anchor="middle" x="157.15" y="-44.68" font-family="Helvetica,sans-Serif" font-size="10.00">1</text>
</a>
</g>
</g>
<!-- dir_84e79ac80b913c2fb5b9e077744e9498&#45;&gt;dir_1af0ddd77af1c20f0c9558f89bd86ab0 -->
<g id="edge3" class="edge">
<title>dir_84e79ac80b913c2fb5b9e077744e9498&#45;&gt;dir_1af0ddd77af1c20f0c9558f89bd86ab0</title>
<path fill="none" stroke="black" d="M382.98,-98.23C347.3,-89.03 282.71,-71.48 229,-52 228.9,-51.97 228.81,-51.93 228.71,-51.9"/>
<polygon fill="black" stroke="black" points="230.24,-48.74 219.65,-48.39 227.71,-55.26 230.24,-48.74"/>
<g id="a_edge3&#45;headlabel"><a xlink:href="dir_000018_000023.html" target="_top" xlink:title="1">
<text text-anchor="middle" x="234.62" y="-44.89" font-family="Helvetica,sans-Serif" font-size="10.00">1</text>
</a>
</g>
</g>
<!-- dir_84e79ac80b913c2fb5b9e077744e9498&#45;&gt;dir_2d29d7dff7c7baf1180920f6796c23ae -->
<g id="edge4" class="edge">
<title>dir_84e79ac80b913c2fb5b9e077744e9498&#45;&gt;dir_2d29d7dff7c7baf1180920f6796c23ae</title>
<path fill="none" stroke="black" d="M382.73,-91.83C359.74,-80.74 326.65,-64.76 301.41,-52.58"/>
<polygon fill="black" stroke="black" points="302.68,-49.3 292.15,-48.11 299.63,-55.61 302.68,-49.3"/>
<g id="a_edge4&#45;headlabel"><a xlink:href="dir_000018_000019.html" target="_top" xlink:title="3">
<text text-anchor="middle" x="307.15" y="-45.81" font-family="Helvetica,sans-Serif" font-size="10.00">3</text>
</a>
</g>
</g>
<!-- dir_84e79ac80b913c2fb5b9e077744e9498&#45;&gt;dir_4c8befd6991d7a2e9d66c427274b8c22 -->
<g id="edge5" class="edge">
<title>dir_84e79ac80b913c2fb5b9e077744e9498&#45;&gt;dir_4c8befd6991d7a2e9d66c427274b8c22</title>
<path fill="none" stroke="black" d="M391.96,-87.7C382.94,-79.05 371.88,-68.45 362.06,-59.03"/>
<polygon fill="black" stroke="black" points="364.48,-56.5 354.84,-52.1 359.63,-61.55 364.48,-56.5"/>
<g id="a_edge5&#45;headlabel"><a xlink:href="dir_000018_000028.html" target="_top" xlink:title="2">
<text text-anchor="middle" x="369.04" y="-54.44" font-family="Helvetica,sans-Serif" font-size="10.00">2</text>
</a>
</g>
</g>
<!-- dir_84e79ac80b913c2fb5b9e077744e9498&#45;&gt;dir_5427940bb9029915fc0c11c1284afde6 -->
<g id="edge6" class="edge">
<title>dir_84e79ac80b913c2fb5b9e077744e9498&#45;&gt;dir_5427940bb9029915fc0c11c1284afde6</title>
<path fill="none" stroke="black" d="M410,-87.7C410,-79.98 410,-70.71 410,-62.11"/>
<polygon fill="black" stroke="black" points="413.5,-62.1 410,-52.1 406.5,-62.1 413.5,-62.1"/>
<g id="a_edge6&#45;headlabel"><a xlink:href="dir_000018_000015.html" target="_top" xlink:title="4">
<text text-anchor="middle" x="416.34" y="-63.2" font-family="Helvetica,sans-Serif" font-size="10.00">4</text>
</a>
</g>
</g>
<!-- dir_84e79ac80b913c2fb5b9e077744e9498&#45;&gt;dir_654fcaaa959505712bb2ecafa3e1042f -->
<g id="edge7" class="edge">
<title>dir_84e79ac80b913c2fb5b9e077744e9498&#45;&gt;dir_654fcaaa959505712bb2ecafa3e1042f</title>
<path fill="none" stroke="black" d="M428.04,-87.7C437.06,-79.05 448.12,-68.45 457.94,-59.03"/>
<polygon fill="black" stroke="black" points="460.37,-61.55 465.16,-52.1 455.52,-56.5 460.37,-61.55"/>
<g id="a_edge7&#45;headlabel"><a xlink:href="dir_000018_000046.html" target="_top" xlink:title="1">
<text text-anchor="middle" x="459.74" y="-63.59" font-family="Helvetica,sans-Serif" font-size="10.00">1</text>
</a>
</g>
</g>
<!-- dir_84e79ac80b913c2fb5b9e077744e9498&#45;&gt;dir_d87d126959cfe231b8095c5f45fd8690 -->
<g id="edge9" class="edge">
<title>dir_84e79ac80b913c2fb5b9e077744e9498&#45;&gt;dir_d87d126959cfe231b8095c5f45fd8690</title>
<path fill="none" stroke="black" d="M437.27,-91.83C460.26,-80.74 493.35,-64.76 518.59,-52.58"/>
<polygon fill="black" stroke="black" points="520.37,-55.61 527.85,-48.11 517.32,-49.3 520.37,-55.61"/>
<g id="a_edge9&#45;headlabel"><a xlink:href="dir_000018_000035.html" target="_top" xlink:title="1">
<text text-anchor="middle" x="518.36" y="-57.23" font-family="Helvetica,sans-Serif" font-size="10.00">1</text>
</a>
</g>
</g>
<!-- dir_84e79ac80b913c2fb5b9e077744e9498&#45;&gt;dir_dee301ab18d354d094fb7852349ef839 -->
<g id="edge10" class="edge">
<title>dir_84e79ac80b913c2fb5b9e077744e9498&#45;&gt;dir_dee301ab18d354d094fb7852349ef839</title>
<path fill="none" stroke="black" d="M437.23,-97.86C471.05,-88.82 530.66,-72.29 590.27,-52.1"/>
<polygon fill="black" stroke="black" points="591.51,-55.38 599.84,-48.83 589.24,-48.76 591.51,-55.38"/>
<g id="a_edge10&#45;headlabel"><a xlink:href="dir_000018_000010.html" target="_top" xlink:title="3">
<text text-anchor="middle" x="589.03" y="-56.73" font-family="Helvetica,sans-Serif" font-size="10.00">3</text>
</a>
</g>
</g>
<!-- dir_84e79ac80b913c2fb5b9e077744e9498&#45;&gt;dir_fdedb0aba14d44ce9d99bc100e026e6a -->
<g id="edge11" class="edge">
<title>dir_84e79ac80b913c2fb5b9e077744e9498&#45;&gt;dir_fdedb0aba14d44ce9d99bc100e026e6a</title>
<path fill="none" stroke="black" d="M437,-101.6C485.74,-95.03 591.31,-78.84 677,-52 677.1,-51.97 677.19,-51.94 677.29,-51.91"/>
<polygon fill="black" stroke="black" points="678.18,-55.31 686.44,-48.67 675.85,-48.71 678.18,-55.31"/>
<g id="a_edge11&#45;headlabel"><a xlink:href="dir_000018_000009.html" target="_top" xlink:title="1">
<text text-anchor="middle" x="675.74" y="-56.68" font-family="Helvetica,sans-Serif" font-size="10.00">1</text>
</a>
</g>
</g>
<!-- dir_d44c64559bbebec7f509842c48db8b23 -->
<g id="node12" class="node">
<title>dir_d44c64559bbebec7f509842c48db8b23</title>
<g id="a_node12"><a xlink:href="dir_d44c64559bbebec7f509842c48db8b23.html" target="_top" xlink:title="include">
<polygon fill="none" stroke="red" points="818,-52 764,-52 764,-16 818,-16 818,-52"/>
<text text-anchor="middle" x="791" y="-31.5" font-family="Helvetica,sans-Serif" font-size="10.00">include</text>
</a>
</g>
</g>
<!-- dir_84e79ac80b913c2fb5b9e077744e9498&#45;&gt;dir_d44c64559bbebec7f509842c48db8b23 -->
<g id="edge8" class="edge">
<title>dir_84e79ac80b913c2fb5b9e077744e9498&#45;&gt;dir_d44c64559bbebec7f509842c48db8b23</title>
<path fill="none" stroke="black" d="M437.32,-103.84C495.36,-100.75 634.98,-89.99 754.28,-52.88"/>
<polygon fill="black" stroke="black" points="755.46,-56.18 763.92,-49.81 753.33,-49.51 755.46,-56.18"/>
<g id="a_edge8&#45;headlabel"><a xlink:href="dir_000018_000021.html" target="_top" xlink:title="18">
<text text-anchor="middle" x="752.9" y="-57.48" font-family="Helvetica,sans-Serif" font-size="10.00">18</text>
</a>
</g>
</g>
</g>
</svg>
        <g id="navigator" transform="translate(0 0)" fill="#404254">
                <rect fill="#f2f5e9" fill-opacity="0.5" stroke="#606060" stroke-width=".5" x="0" y="0" width="60" height="60"/>
                <use id="zoomplus" xlink:href="#zoomPlus" x="17" y="9" onmousedown="handleZoom(evt,'in')"/>
                <use id="zoomminus" xlink:href="#zoomMin" x="42" y="9" onmousedown="handleZoom(evt,'out')"/>
                <use id="reset" xlink:href="#resetDef" x="30" y="36" onmousedown="handleReset()"/>
                <g id="arrowUp" xlink:href="#dirArrow" transform="translate(30 24)" onmousedown="handlePan(0,-1)">
                  <use xlink:href="#rim" fill="#404040">
                        <set attributeName="fill" to="#808080" begin="arrowUp.mouseover" end="arrowUp.mouseout"/>
                  </use>
                  <path fill="none" stroke="white" stroke-width="1.5" d="M0,-3.0v7 M-2.5,-0.5L0,-3.0L2.5,-0.5"/>
                </g>
                <g id="arrowRight" xlink:href="#dirArrow" transform="rotate(90) translate(36 -43)" onmousedown="handlePan(1,0)">
                  <use xlink:href="#rim" fill="#404040">
                        <set attributeName="fill" to="#808080" begin="arrowRight.mouseover" end="arrowRight.mouseout"/>
                  </use>
                  <path fill="none" stroke="white" stroke-width="1.5" d="M0,-3.0v7 M-2.5,-0.5L0,-3.0L2.5,-0.5"/>
                </g>
                <g id="arrowDown" xlink:href="#dirArrow" transform="rotate(180) translate(-30 -48)" onmousedown="handlePan(0,1)">
                  <use xlink:href="#rim" fill="#404040">
                        <set attributeName="fill" to="#808080" begin="arrowDown.mouseover" end="arrowDown.mouseout"/>
                  </use>
                  <path fill="none" stroke="white" stroke-width="1.5" d="M0,-3.0v7 M-2.5,-0.5L0,-3.0L2.5,-0.5"/>
                </g>
                <g id="arrowLeft" xlink:href="#dirArrow" transform="rotate(270) translate(-36 17)" onmousedown="handlePan(-1,0)">
                  <use xlink:href="#rim" fill="#404040">
                        <set attributeName="fill" to="#808080" begin="arrowLeft.mouseover" end="arrowLeft.mouseout"/>
                  </use>
                  <path fill="none" stroke="white" stroke-width="1.5" d="M0,-3.0v7 M-2.5,-0.5L0,-3.0L2.5,-0.5"/>
                </g>
        </g>
        <svg viewBox="0 0 15 15" width="100%" height="30px" preserveAspectRatio="xMaxYMin meet">
         <g id="arrow_out" transform="scale(0.3 0.3)">
          <a xlink:href="dir_84e79ac80b913c2fb5b9e077744e9498_dep_org.svg" target="_base">
           <rect id="button" ry="5" rx="5" y="6" x="6" height="38" width="38"
                fill="#f2f5e9" fill-opacity="0.5" stroke="#606060" stroke-width="1.0"/>
           <path id="arrow"
             d="M 11.500037,31.436501 C 11.940474,20.09759 22.043105,11.32322 32.158766,21.979434 L 37.068811,17.246167 C 37.068811,17.246167 37.088388,32 37.088388,32 L 22.160133,31.978069 C 22.160133,31.978069 26.997745,27.140456 26.997745,27.140456 C 18.528582,18.264221 13.291696,25.230495 11.500037,31.436501 z"
             style="fill:#404040;"/>
          </a>
         </g>
        </svg>
</svg>
