<?xml version="1.0" encoding="UTF-8" standalone="no"?>
<!DOCTYPE svg PUBLIC "-//W3C//DTD SVG 1.1//EN"
 "http://www.w3.org/Graphics/SVG/1.1/DTD/svg11.dtd">
<!-- Generated by graphviz version 2.43.0 (0)
 -->
<!-- Title: src/enclave/forwarder_types.h Pages: 1 -->
<svg width="1328pt" height="766pt"
 viewBox="0.00 0.00 1328.00 766.00" xmlns="http://www.w3.org/2000/svg" xmlns:xlink="http://www.w3.org/1999/xlink">
<g id="graph0" class="graph" transform="scale(1 1) rotate(0) translate(4 762)">
<title>src/enclave/forwarder_types.h</title>
<polygon fill="white" stroke="transparent" points="-4,4 -4,-762 1324,-762 1324,4 -4,4"/>
<!-- Node1 -->
<g id="node1" class="node">
<title>Node1</title>
<g id="a_node1"><a xlink:title=" ">
<polygon fill="#bfbfbf" stroke="black" points="934,-727.5 934,-757.5 1056,-757.5 1056,-727.5 934,-727.5"/>
<text text-anchor="start" x="942" y="-745.5" font-family="Helvetica,sans-Serif" font-size="10.00">src/enclave/forwarder</text>
<text text-anchor="middle" x="995" y="-734.5" font-family="Helvetica,sans-Serif" font-size="10.00">_types.h</text>
</a>
</g>
</g>
<!-- Node2 -->
<g id="node2" class="node">
<title>Node2</title>
<g id="a_node2"><a xlink:href="rpc__handler_8h.html" target="_top" xlink:title=" ">
<polygon fill="white" stroke="black" points="925,-671.5 925,-690.5 1065,-690.5 1065,-671.5 925,-671.5"/>
<text text-anchor="middle" x="995" y="-678.5" font-family="Helvetica,sans-Serif" font-size="10.00">src/enclave/rpc_handler.h</text>
</a>
</g>
</g>
<!-- Node1&#45;&gt;Node2 -->
<g id="edge1" class="edge">
<title>Node1&#45;&gt;Node2</title>
<path fill="none" stroke="midnightblue" d="M995,-717.29C995,-707.86 995,-697.65 995,-690.66"/>
<polygon fill="midnightblue" stroke="midnightblue" points="991.5,-717.4 995,-727.4 998.5,-717.4 991.5,-717.4"/>
</g>
<!-- Node23 -->
<g id="node23" class="node">
<title>Node23</title>
<g id="a_node23"><a xlink:href="rpc__sessions_8h.html" target="_top" xlink:title=" ">
<polygon fill="white" stroke="black" points="139,-498 139,-517 285,-517 285,-498 139,-498"/>
<text text-anchor="middle" x="212" y="-505" font-family="Helvetica,sans-Serif" font-size="10.00">src/enclave/rpc_sessions.h</text>
</a>
</g>
</g>
<!-- Node1&#45;&gt;Node23 -->
<g id="edge60" class="edge">
<title>Node1&#45;&gt;Node23</title>
<path fill="none" stroke="midnightblue" d="M937.95,-724.52C782.59,-678.29 355.95,-551.34 240.9,-517.1"/>
<polygon fill="midnightblue" stroke="midnightblue" points="937.2,-727.95 947.78,-727.45 939.2,-721.24 937.2,-727.95"/>
</g>
<!-- Node26 -->
<g id="node26" class="node">
<title>Node26</title>
<g id="a_node26"><a xlink:href="forwarder_8h.html" target="_top" xlink:title=" ">
<polygon fill="white" stroke="black" points="1120,-431 1120,-450 1254,-450 1254,-431 1120,-431"/>
<text text-anchor="middle" x="1187" y="-438" font-family="Helvetica,sans-Serif" font-size="10.00">src/node/rpc/forwarder.h</text>
</a>
</g>
</g>
<!-- Node1&#45;&gt;Node26 -->
<g id="edge61" class="edge">
<title>Node1&#45;&gt;Node26</title>
<path fill="none" stroke="midnightblue" d="M1066.04,-730.9C1161.68,-714.58 1320,-679.5 1320,-626 1320,-626 1320,-626 1320,-568 1320,-507.13 1245.96,-466.67 1208.37,-450.05"/>
<polygon fill="midnightblue" stroke="midnightblue" points="1065.41,-727.45 1056.13,-732.56 1066.57,-734.36 1065.41,-727.45"/>
</g>
<!-- Node3 -->
<g id="node3" class="node">
<title>Node3</title>
<g id="a_node3"><a xlink:href="raft__types_8h.html" target="_top" xlink:title=" ">
<polygon fill="white" stroke="black" points="461,-492.5 461,-522.5 581,-522.5 581,-492.5 461,-492.5"/>
<text text-anchor="start" x="469" y="-510.5" font-family="Helvetica,sans-Serif" font-size="10.00">src/consensus/aft/raft</text>
<text text-anchor="middle" x="521" y="-499.5" font-family="Helvetica,sans-Serif" font-size="10.00">_types.h</text>
</a>
</g>
</g>
<!-- Node2&#45;&gt;Node3 -->
<g id="edge2" class="edge">
<title>Node2&#45;&gt;Node3</title>
<path fill="none" stroke="midnightblue" d="M962.09,-668.09C877.15,-637.36 650.86,-555.48 559.78,-522.53"/>
<polygon fill="midnightblue" stroke="midnightblue" points="960.9,-671.38 971.49,-671.5 963.28,-664.8 960.9,-671.38"/>
</g>
<!-- Node21 -->
<g id="node21" class="node">
<title>Node21</title>
<g id="a_node21"><a xlink:href="rpc__map_8h.html" target="_top" xlink:title=" ">
<polygon fill="white" stroke="black" points="1121,-615.5 1121,-634.5 1247,-634.5 1247,-615.5 1121,-615.5"/>
<text text-anchor="middle" x="1184" y="-622.5" font-family="Helvetica,sans-Serif" font-size="10.00">src/enclave/rpc_map.h</text>
</a>
</g>
</g>
<!-- Node2&#45;&gt;Node21 -->
<g id="edge31" class="edge">
<title>Node2&#45;&gt;Node21</title>
<path fill="none" stroke="midnightblue" d="M1035.01,-668.57C1070.67,-658.38 1122.04,-643.7 1154.19,-634.52"/>
<polygon fill="midnightblue" stroke="midnightblue" points="1033.6,-665.33 1024.95,-671.44 1035.52,-672.06 1033.6,-665.33"/>
</g>
<!-- Node2&#45;&gt;Node23 -->
<g id="edge52" class="edge">
<title>Node2&#45;&gt;Node23</title>
<path fill="none" stroke="midnightblue" d="M946.3,-669.33C802.49,-637.84 381.59,-545.65 251.06,-517.06"/>
<polygon fill="midnightblue" stroke="midnightblue" points="945.65,-672.77 956.17,-671.5 947.15,-665.94 945.65,-672.77"/>
</g>
<!-- Node27 -->
<g id="node27" class="node">
<title>Node27</title>
<g id="a_node27"><a xlink:href="frontend_8h.html" target="_top" xlink:title=" ">
<polygon fill="white" stroke="black" points="1061.5,-364 1061.5,-383 1190.5,-383 1190.5,-364 1061.5,-364"/>
<text text-anchor="middle" x="1126" y="-371" font-family="Helvetica,sans-Serif" font-size="10.00">src/node/rpc/frontend.h</text>
</a>
</g>
</g>
<!-- Node2&#45;&gt;Node27 -->
<g id="edge59" class="edge">
<title>Node2&#45;&gt;Node27</title>
<path fill="none" stroke="midnightblue" d="M1019.76,-666.21C1048.49,-648.17 1092,-613.65 1092,-570 1092,-570 1092,-570 1092,-506.5 1092,-458.7 1113.17,-404.15 1122.1,-383.26"/>
<polygon fill="midnightblue" stroke="midnightblue" points="1017.77,-663.32 1011.02,-671.48 1021.39,-669.32 1017.77,-663.32"/>
</g>
<!-- Node30 -->
<g id="node30" class="node">
<title>Node30</title>
<g id="a_node30"><a xlink:href="node__to__node_8h.html" target="_top" xlink:title=" ">
<polygon fill="white" stroke="black" points="926,-498 926,-517 1064,-517 1064,-498 926,-498"/>
<text text-anchor="middle" x="995" y="-505" font-family="Helvetica,sans-Serif" font-size="10.00">src/node/node_to_node.h</text>
</a>
</g>
</g>
<!-- Node2&#45;&gt;Node30 -->
<g id="edge53" class="edge">
<title>Node2&#45;&gt;Node30</title>
<path fill="none" stroke="midnightblue" d="M995,-660.85C995,-623.73 995,-543.33 995,-517.02"/>
<polygon fill="midnightblue" stroke="midnightblue" points="991.5,-661.26 995,-671.26 998.5,-661.26 991.5,-661.26"/>
</g>
<!-- Node4 -->
<g id="node4" class="node">
<title>Node4</title>
<g id="a_node4"><a xlink:href="request__message_8h.html" target="_top" xlink:title=" ">
<polygon fill="white" stroke="black" points="765.5,-425.5 765.5,-455.5 890.5,-455.5 890.5,-425.5 765.5,-425.5"/>
<text text-anchor="start" x="773.5" y="-443.5" font-family="Helvetica,sans-Serif" font-size="10.00">src/consensus/aft/impl</text>
<text text-anchor="middle" x="828" y="-432.5" font-family="Helvetica,sans-Serif" font-size="10.00">/request_message.h</text>
</a>
</g>
</g>
<!-- Node3&#45;&gt;Node4 -->
<g id="edge3" class="edge">
<title>Node3&#45;&gt;Node4</title>
<path fill="none" stroke="midnightblue" d="M591.2,-491.64C643.72,-480.52 714.91,-465.44 765.48,-454.74"/>
<polygon fill="midnightblue" stroke="midnightblue" points="590.35,-488.24 581.29,-493.74 591.8,-495.09 590.35,-488.24"/>
</g>
<!-- Node5 -->
<g id="node5" class="node">
<title>Node5</title>
<g id="a_node5"><a xlink:href="state_8h.html" target="_top" xlink:title=" ">
<polygon fill="white" stroke="black" points="324.5,-425.5 324.5,-455.5 449.5,-455.5 449.5,-425.5 324.5,-425.5"/>
<text text-anchor="start" x="332.5" y="-443.5" font-family="Helvetica,sans-Serif" font-size="10.00">src/consensus/aft/impl</text>
<text text-anchor="middle" x="387" y="-432.5" font-family="Helvetica,sans-Serif" font-size="10.00">/state.h</text>
</a>
</g>
</g>
<!-- Node3&#45;&gt;Node5 -->
<g id="edge4" class="edge">
<title>Node3&#45;&gt;Node5</title>
<path fill="none" stroke="midnightblue" d="M482.85,-487.99C461.61,-477.69 435.59,-465.07 416.02,-455.58"/>
<polygon fill="midnightblue" stroke="midnightblue" points="481.4,-491.18 491.92,-492.4 484.45,-484.88 481.4,-491.18"/>
</g>
<!-- Node6 -->
<g id="node6" class="node">
<title>Node6</title>
<g id="a_node6"><a xlink:href="raft_8h.html" target="_top" xlink:title=" ">
<polygon fill="white" stroke="black" points="428.5,-302.5 428.5,-321.5 557.5,-321.5 557.5,-302.5 428.5,-302.5"/>
<text text-anchor="middle" x="493" y="-309.5" font-family="Helvetica,sans-Serif" font-size="10.00">src/consensus/aft/raft.h</text>
</a>
</g>
</g>
<!-- Node3&#45;&gt;Node6 -->
<g id="edge13" class="edge">
<title>Node3&#45;&gt;Node6</title>
<path fill="none" stroke="midnightblue" d="M450.97,-498.48C398.39,-490.84 332.7,-477.31 316,-456 254.26,-377.21 367.71,-459.63 455,-389 477.02,-371.18 487.38,-337.34 491.19,-321.53"/>
<polygon fill="midnightblue" stroke="midnightblue" points="450.57,-501.96 460.96,-499.88 451.54,-495.02 450.57,-501.96"/>
</g>
<!-- Node12 -->
<g id="node12" class="node">
<title>Node12</title>
<g id="a_node12"><a xlink:href="node__connections_8h.html" target="_top" xlink:title=" ">
<polygon fill="white" stroke="black" points="592.5,-431 592.5,-450 747.5,-450 747.5,-431 592.5,-431"/>
<text text-anchor="middle" x="670" y="-438" font-family="Helvetica,sans-Serif" font-size="10.00">src/host/node_connections.h</text>
</a>
</g>
</g>
<!-- Node3&#45;&gt;Node12 -->
<g id="edge14" class="edge">
<title>Node3&#45;&gt;Node12</title>
<path fill="none" stroke="midnightblue" d="M562.73,-488.3C591.47,-475.76 628.32,-459.68 650.5,-450.01"/>
<polygon fill="midnightblue" stroke="midnightblue" points="561.1,-485.19 553.33,-492.4 563.9,-491.61 561.1,-485.19"/>
</g>
<!-- Node14 -->
<g id="node14" class="node">
<title>Node14</title>
<g id="a_node14"><a xlink:href="node__client_8h.html" target="_top" xlink:title=" ">
<polygon fill="white" stroke="black" points="104,-431 104,-450 230,-450 230,-431 104,-431"/>
<text text-anchor="middle" x="167" y="-438" font-family="Helvetica,sans-Serif" font-size="10.00">src/node/node_client.h</text>
</a>
</g>
</g>
<!-- Node3&#45;&gt;Node14 -->
<g id="edge16" class="edge">
<title>Node3&#45;&gt;Node14</title>
<path fill="none" stroke="midnightblue" d="M450.83,-493.62C380.44,-480.69 274.03,-461.15 213.48,-450.03"/>
<polygon fill="midnightblue" stroke="midnightblue" points="450.48,-497.11 460.95,-495.47 451.75,-490.23 450.48,-497.11"/>
</g>
<!-- Node20 -->
<g id="node20" class="node">
<title>Node20</title>
<g id="a_node20"><a xlink:href="resharing__tracker_8h.html" target="_top" xlink:title=" ">
<polygon fill="white" stroke="black" points="467.5,-425.5 467.5,-455.5 574.5,-455.5 574.5,-425.5 467.5,-425.5"/>
<text text-anchor="start" x="475.5" y="-443.5" font-family="Helvetica,sans-Serif" font-size="10.00">src/node/resharing</text>
<text text-anchor="middle" x="521" y="-432.5" font-family="Helvetica,sans-Serif" font-size="10.00">_tracker.h</text>
</a>
</g>
</g>
<!-- Node3&#45;&gt;Node20 -->
<g id="edge28" class="edge">
<title>Node3&#45;&gt;Node20</title>
<path fill="none" stroke="midnightblue" d="M521,-482.11C521,-473.15 521,-463.32 521,-455.58"/>
<polygon fill="midnightblue" stroke="midnightblue" points="517.5,-482.4 521,-492.4 524.5,-482.4 517.5,-482.4"/>
</g>
<!-- Node5&#45;&gt;Node6 -->
<g id="edge5" class="edge">
<title>Node5&#45;&gt;Node6</title>
<path fill="none" stroke="midnightblue" d="M448.62,-421.09C463.89,-413.58 478.57,-403.2 488,-389 501.76,-368.29 498,-337.01 495.04,-321.86"/>
<polygon fill="midnightblue" stroke="midnightblue" points="446.74,-418.1 439.08,-425.41 449.63,-424.48 446.74,-418.1"/>
</g>
<!-- Node11 -->
<g id="node11" class="node">
<title>Node11</title>
<g id="a_node11"><a xlink:href="resharing_8h.html" target="_top" xlink:title=" ">
<polygon fill="white" stroke="black" points="540,-364 540,-383 656,-383 656,-364 540,-364"/>
<text text-anchor="middle" x="598" y="-371" font-family="Helvetica,sans-Serif" font-size="10.00">src/node/resharing.h</text>
</a>
</g>
</g>
<!-- Node5&#45;&gt;Node11 -->
<g id="edge11" class="edge">
<title>Node5&#45;&gt;Node11</title>
<path fill="none" stroke="midnightblue" d="M442.15,-422.51C483.33,-409.83 537.88,-393.02 570.31,-383.03"/>
<polygon fill="midnightblue" stroke="midnightblue" points="441.05,-419.19 432.52,-425.48 443.11,-425.88 441.05,-419.19"/>
</g>
<!-- Node7 -->
<g id="node7" class="node">
<title>Node7</title>
<g id="a_node7"><a xlink:href="node__state_8h.html" target="_top" xlink:title=" ">
<polygon fill="white" stroke="black" points="601,-174 601,-193 725,-193 725,-174 601,-174"/>
<text text-anchor="middle" x="663" y="-181" font-family="Helvetica,sans-Serif" font-size="10.00">src/node/node_state.h</text>
</a>
</g>
</g>
<!-- Node6&#45;&gt;Node7 -->
<g id="edge6" class="edge">
<title>Node6&#45;&gt;Node7</title>
<path fill="none" stroke="midnightblue" d="M512.89,-296.2C548.6,-269.63 622.52,-214.62 651.23,-193.26"/>
<polygon fill="midnightblue" stroke="midnightblue" points="510.62,-293.53 504.68,-302.31 514.8,-299.14 510.62,-293.53"/>
</g>
<!-- Node8 -->
<g id="node8" class="node">
<title>Node8</title>
<g id="a_node8"><a xlink:href="enclave_2enclave_8h.html" target="_top" xlink:title=" ">
<polygon fill="white" stroke="black" points="986,-56.5 986,-75.5 1108,-75.5 1108,-56.5 986,-56.5"/>
<text text-anchor="middle" x="1047" y="-63.5" font-family="Helvetica,sans-Serif" font-size="10.00">src/enclave/enclave.h</text>
</a>
</g>
</g>
<!-- Node7&#45;&gt;Node8 -->
<g id="edge7" class="edge">
<title>Node7&#45;&gt;Node8</title>
<path fill="none" stroke="midnightblue" d="M677.56,-166.04C693.21,-149.49 719.69,-124.67 748,-112 825.14,-77.47 923.51,-68.57 985.9,-66.73"/>
<polygon fill="midnightblue" stroke="midnightblue" points="674.59,-164.09 670.41,-173.83 679.75,-168.83 674.59,-164.09"/>
</g>
<!-- Node10 -->
<g id="node10" class="node">
<title>Node10</title>
<g id="a_node10"><a xlink:href="gov__effects_8h.html" target="_top" xlink:title=" ">
<polygon fill="white" stroke="black" points="757,-112.5 757,-131.5 901,-131.5 901,-112.5 757,-112.5"/>
<text text-anchor="middle" x="829" y="-119.5" font-family="Helvetica,sans-Serif" font-size="10.00">src/node/rpc/gov_effects.h</text>
</a>
</g>
</g>
<!-- Node7&#45;&gt;Node10 -->
<g id="edge9" class="edge">
<title>Node7&#45;&gt;Node10</title>
<path fill="none" stroke="midnightblue" d="M696.25,-170.58C728.52,-159.02 776.68,-141.75 805.26,-131.51"/>
<polygon fill="midnightblue" stroke="midnightblue" points="695.02,-167.31 686.78,-173.98 697.38,-173.9 695.02,-167.31"/>
</g>
<!-- Node9 -->
<g id="node9" class="node">
<title>Node9</title>
<g id="a_node9"><a xlink:href="enclave_2main_8cpp.html" target="_top" xlink:title=" ">
<polygon fill="white" stroke="black" points="987,-0.5 987,-19.5 1107,-19.5 1107,-0.5 987,-0.5"/>
<text text-anchor="middle" x="1047" y="-7.5" font-family="Helvetica,sans-Serif" font-size="10.00">src/enclave/main.cpp</text>
</a>
</g>
</g>
<!-- Node8&#45;&gt;Node9 -->
<g id="edge8" class="edge">
<title>Node8&#45;&gt;Node9</title>
<path fill="none" stroke="midnightblue" d="M1047,-45.8C1047,-36.91 1047,-26.78 1047,-19.75"/>
<polygon fill="midnightblue" stroke="midnightblue" points="1043.5,-46.08 1047,-56.08 1050.5,-46.08 1043.5,-46.08"/>
</g>
<!-- Node10&#45;&gt;Node8 -->
<g id="edge10" class="edge">
<title>Node10&#45;&gt;Node8</title>
<path fill="none" stroke="midnightblue" d="M873.31,-110.02C914.49,-99.82 974.97,-84.84 1012.62,-75.52"/>
<polygon fill="midnightblue" stroke="midnightblue" points="872.41,-106.64 863.54,-112.44 874.09,-113.44 872.41,-106.64"/>
</g>
<!-- Node11&#45;&gt;Node7 -->
<g id="edge12" class="edge">
<title>Node11&#45;&gt;Node7</title>
<path fill="none" stroke="midnightblue" d="M604.31,-354.26C618.02,-314.6 650.1,-221.82 660.02,-193.12"/>
<polygon fill="midnightblue" stroke="midnightblue" points="600.92,-353.34 600.96,-363.93 607.54,-355.63 600.92,-353.34"/>
</g>
<!-- Node13 -->
<g id="node13" class="node">
<title>Node13</title>
<g id="a_node13"><a xlink:href="host_2main_8cpp.html" target="_top" xlink:title=" ">
<polygon fill="white" stroke="black" points="769.5,-364 769.5,-383 872.5,-383 872.5,-364 769.5,-364"/>
<text text-anchor="middle" x="821" y="-371" font-family="Helvetica,sans-Serif" font-size="10.00">src/host/main.cpp</text>
</a>
</g>
</g>
<!-- Node12&#45;&gt;Node13 -->
<g id="edge15" class="edge">
<title>Node12&#45;&gt;Node13</title>
<path fill="none" stroke="midnightblue" d="M699.55,-426.78C729.45,-413.91 774.88,-394.35 800.87,-383.17"/>
<polygon fill="midnightblue" stroke="midnightblue" points="697.85,-423.7 690.05,-430.87 700.62,-430.13 697.85,-423.7"/>
</g>
<!-- Node14&#45;&gt;Node6 -->
<g id="edge23" class="edge">
<title>Node14&#45;&gt;Node6</title>
<path fill="none" stroke="midnightblue" d="M161.86,-420.97C157.99,-402.59 155.65,-374.79 171,-358 204.56,-321.28 344.54,-313.79 428.49,-312.69"/>
<polygon fill="midnightblue" stroke="midnightblue" points="158.48,-421.91 164.26,-430.79 165.28,-420.24 158.48,-421.91"/>
</g>
<!-- Node15 -->
<g id="node15" class="node">
<title>Node15</title>
<g id="a_node15"><a xlink:href="orc__requests_8h.html" target="_top" xlink:title=" ">
<polygon fill="white" stroke="black" points="326.5,-358.5 326.5,-388.5 445.5,-388.5 445.5,-358.5 326.5,-358.5"/>
<text text-anchor="start" x="334.5" y="-376.5" font-family="Helvetica,sans-Serif" font-size="10.00">src/consensus/aft/orc</text>
<text text-anchor="middle" x="386" y="-365.5" font-family="Helvetica,sans-Serif" font-size="10.00">_requests.h</text>
</a>
</g>
</g>
<!-- Node14&#45;&gt;Node15 -->
<g id="edge17" class="edge">
<title>Node14&#45;&gt;Node15</title>
<path fill="none" stroke="midnightblue" d="M206.03,-427.92C243.16,-416.9 299.09,-400.29 338.74,-388.53"/>
<polygon fill="midnightblue" stroke="midnightblue" points="204.67,-424.67 196.08,-430.87 206.66,-431.38 204.67,-424.67"/>
</g>
<!-- Node18 -->
<g id="node18" class="node">
<title>Node18</title>
<g id="a_node18"><a xlink:href="http__node__client_8h.html" target="_top" xlink:title=" ">
<polygon fill="white" stroke="black" points="355,-235.5 355,-265.5 465,-265.5 465,-235.5 355,-235.5"/>
<text text-anchor="start" x="363" y="-253.5" font-family="Helvetica,sans-Serif" font-size="10.00">src/node/http_node</text>
<text text-anchor="middle" x="410" y="-242.5" font-family="Helvetica,sans-Serif" font-size="10.00">_client.h</text>
</a>
</g>
</g>
<!-- Node14&#45;&gt;Node18 -->
<g id="edge24" class="edge">
<title>Node14&#45;&gt;Node18</title>
<path fill="none" stroke="midnightblue" d="M158.14,-421.63C150.78,-403.99 143.38,-376.98 156,-358 200.09,-291.71 294.27,-266.6 354.74,-257.14"/>
<polygon fill="midnightblue" stroke="midnightblue" points="154.98,-423.15 162.31,-430.8 161.35,-420.25 154.98,-423.15"/>
</g>
<!-- Node19 -->
<g id="node19" class="node">
<title>Node19</title>
<g id="a_node19"><a xlink:href="retired__nodes__cleanup_8h.html" target="_top" xlink:title=" ">
<polygon fill="white" stroke="black" points="180,-358.5 180,-388.5 308,-388.5 308,-358.5 180,-358.5"/>
<text text-anchor="start" x="188" y="-376.5" font-family="Helvetica,sans-Serif" font-size="10.00">src/node/retired_nodes</text>
<text text-anchor="middle" x="244" y="-365.5" font-family="Helvetica,sans-Serif" font-size="10.00">_cleanup.h</text>
</a>
</g>
</g>
<!-- Node14&#45;&gt;Node19 -->
<g id="edge26" class="edge">
<title>Node14&#45;&gt;Node19</title>
<path fill="none" stroke="midnightblue" d="M185.08,-424.24C197.86,-413.45 214.86,-399.1 227.31,-388.59"/>
<polygon fill="midnightblue" stroke="midnightblue" points="182.77,-421.61 177.38,-430.73 187.28,-426.96 182.77,-421.61"/>
</g>
<!-- Node15&#45;&gt;Node6 -->
<g id="edge18" class="edge">
<title>Node15&#45;&gt;Node6</title>
<path fill="none" stroke="midnightblue" d="M420.16,-353.51C439.39,-342.81 462.48,-329.97 477.43,-321.66"/>
<polygon fill="midnightblue" stroke="midnightblue" points="418.4,-350.48 411.36,-358.4 421.8,-356.6 418.4,-350.48"/>
</g>
<!-- Node16 -->
<g id="node16" class="node">
<title>Node16</title>
<g id="a_node16"><a xlink:href="node__frontend_8h.html" target="_top" xlink:title=" ">
<polygon fill="white" stroke="black" points="833,-302.5 833,-321.5 991,-321.5 991,-302.5 833,-302.5"/>
<text text-anchor="middle" x="912" y="-309.5" font-family="Helvetica,sans-Serif" font-size="10.00">src/node/rpc/node_frontend.h</text>
</a>
</g>
</g>
<!-- Node15&#45;&gt;Node16 -->
<g id="edge19" class="edge">
<title>Node15&#45;&gt;Node16</title>
<path fill="none" stroke="midnightblue" d="M455.75,-364.61C554.57,-353.43 734.61,-333.07 836.48,-321.54"/>
<polygon fill="midnightblue" stroke="midnightblue" points="455.11,-361.16 445.57,-365.76 455.9,-368.12 455.11,-361.16"/>
</g>
<!-- Node16&#45;&gt;Node8 -->
<g id="edge20" class="edge">
<title>Node16&#45;&gt;Node8</title>
<path fill="none" stroke="midnightblue" d="M938.22,-297.2C950.45,-289.53 964.21,-278.92 973,-266 1012.86,-207.45 983.42,-175.89 1014,-112 1020.61,-98.19 1031.63,-84.29 1039.1,-75.66"/>
<polygon fill="midnightblue" stroke="midnightblue" points="936.11,-294.38 929.28,-302.48 939.67,-300.41 936.11,-294.38"/>
</g>
<!-- Node17 -->
<g id="node17" class="node">
<title>Node17</title>
<g id="a_node17"><a xlink:href="jwt__key__auto__refresh_8h.html" target="_top" xlink:title=" ">
<polygon fill="white" stroke="black" points="838.5,-235.5 838.5,-265.5 963.5,-265.5 963.5,-235.5 838.5,-235.5"/>
<text text-anchor="start" x="846.5" y="-253.5" font-family="Helvetica,sans-Serif" font-size="10.00">src/node/jwt_key_auto</text>
<text text-anchor="middle" x="901" y="-242.5" font-family="Helvetica,sans-Serif" font-size="10.00">_refresh.h</text>
</a>
</g>
</g>
<!-- Node16&#45;&gt;Node17 -->
<g id="edge21" class="edge">
<title>Node16&#45;&gt;Node17</title>
<path fill="none" stroke="midnightblue" d="M908.58,-292.53C906.97,-283.81 905.08,-273.59 903.59,-265.52"/>
<polygon fill="midnightblue" stroke="midnightblue" points="905.16,-293.28 910.42,-302.48 912.05,-292.01 905.16,-293.28"/>
</g>
<!-- Node17&#45;&gt;Node7 -->
<g id="edge22" class="edge">
<title>Node17&#45;&gt;Node7</title>
<path fill="none" stroke="midnightblue" d="M839.96,-232.83C793.38,-220.11 731.13,-203.11 694.23,-193.03"/>
<polygon fill="midnightblue" stroke="midnightblue" points="839.08,-236.22 849.65,-235.48 840.93,-229.46 839.08,-236.22"/>
</g>
<!-- Node18&#45;&gt;Node7 -->
<g id="edge25" class="edge">
<title>Node18&#45;&gt;Node7</title>
<path fill="none" stroke="midnightblue" d="M474.57,-232.91C524.12,-220.18 590.5,-203.13 629.8,-193.03"/>
<polygon fill="midnightblue" stroke="midnightblue" points="473.4,-229.6 464.59,-235.48 475.14,-236.38 473.4,-229.6"/>
</g>
<!-- Node19&#45;&gt;Node6 -->
<g id="edge27" class="edge">
<title>Node19&#45;&gt;Node6</title>
<path fill="none" stroke="midnightblue" d="M312.49,-356.13C359.41,-344.92 419.75,-330.5 457.4,-321.51"/>
<polygon fill="midnightblue" stroke="midnightblue" points="311.61,-352.75 302.69,-358.47 313.23,-359.55 311.61,-352.75"/>
</g>
<!-- Node20&#45;&gt;Node6 -->
<g id="edge29" class="edge">
<title>Node20&#45;&gt;Node6</title>
<path fill="none" stroke="midnightblue" d="M579.61,-422.45C617.08,-410.96 659.64,-396.56 665,-389 672.97,-377.76 673.42,-368.91 665,-358 651.61,-340.65 600.15,-328.7 556.98,-321.5"/>
<polygon fill="midnightblue" stroke="midnightblue" points="578.27,-419.2 569.72,-425.45 580.3,-425.89 578.27,-419.2"/>
</g>
<!-- Node20&#45;&gt;Node11 -->
<g id="edge30" class="edge">
<title>Node20&#45;&gt;Node11</title>
<path fill="none" stroke="midnightblue" d="M545.67,-418.67C559.89,-406.67 577.01,-392.22 587.7,-383.19"/>
<polygon fill="midnightblue" stroke="midnightblue" points="543.09,-416.27 537.71,-425.4 547.61,-421.62 543.09,-416.27"/>
</g>
<!-- Node21&#45;&gt;Node8 -->
<g id="edge32" class="edge">
<title>Node21&#45;&gt;Node8</title>
<path fill="none" stroke="midnightblue" d="M1208.1,-609.88C1237.12,-590.85 1282,-554.06 1282,-508.5 1282,-508.5 1282,-508.5 1282,-182.5 1282,-104.99 1177.76,-79.49 1108.13,-71.11"/>
<polygon fill="midnightblue" stroke="midnightblue" points="1205.9,-607.13 1199.31,-615.42 1209.64,-613.05 1205.9,-607.13"/>
</g>
<!-- Node22 -->
<g id="node22" class="node">
<title>Node22</title>
<g id="a_node22"><a xlink:href="http__endpoint_8h.html" target="_top" xlink:title=" ">
<polygon fill="white" stroke="black" points="772.5,-559.5 772.5,-578.5 905.5,-578.5 905.5,-559.5 772.5,-559.5"/>
<text text-anchor="middle" x="839" y="-566.5" font-family="Helvetica,sans-Serif" font-size="10.00">src/http/http_endpoint.h</text>
</a>
</g>
</g>
<!-- Node21&#45;&gt;Node22 -->
<g id="edge33" class="edge">
<title>Node21&#45;&gt;Node22</title>
<path fill="none" stroke="midnightblue" d="M1119.18,-613.85C1053.99,-603.65 954.62,-588.1 893.41,-578.52"/>
<polygon fill="midnightblue" stroke="midnightblue" points="1118.91,-617.35 1129.33,-615.44 1120,-610.44 1118.91,-617.35"/>
</g>
<!-- Node21&#45;&gt;Node26 -->
<g id="edge43" class="edge">
<title>Node21&#45;&gt;Node26</title>
<path fill="none" stroke="midnightblue" d="M1184.32,-604.72C1184.96,-565.56 1186.4,-478.09 1186.86,-450.21"/>
<polygon fill="midnightblue" stroke="midnightblue" points="1180.81,-605.14 1184.14,-615.2 1187.81,-605.26 1180.81,-605.14"/>
</g>
<!-- Node22&#45;&gt;Node23 -->
<g id="edge34" class="edge">
<title>Node22&#45;&gt;Node23</title>
<path fill="none" stroke="midnightblue" d="M762.5,-560.74C640.77,-549.19 404.56,-526.77 285.04,-515.43"/>
<polygon fill="midnightblue" stroke="midnightblue" points="762.21,-564.23 772.49,-561.69 762.87,-557.26 762.21,-564.23"/>
</g>
<!-- Node25 -->
<g id="node25" class="node">
<title>Node25</title>
<g id="a_node25"><a xlink:href="acme__challenge__server_8h.html" target="_top" xlink:title=" ">
<polygon fill="white" stroke="black" points="770.5,-492.5 770.5,-522.5 907.5,-522.5 907.5,-492.5 770.5,-492.5"/>
<text text-anchor="start" x="778.5" y="-510.5" font-family="Helvetica,sans-Serif" font-size="10.00">src/host/acme_challenge</text>
<text text-anchor="middle" x="839" y="-499.5" font-family="Helvetica,sans-Serif" font-size="10.00">_server.h</text>
</a>
</g>
</g>
<!-- Node22&#45;&gt;Node25 -->
<g id="edge41" class="edge">
<title>Node22&#45;&gt;Node25</title>
<path fill="none" stroke="midnightblue" d="M839,-549.23C839,-540.59 839,-530.5 839,-522.52"/>
<polygon fill="midnightblue" stroke="midnightblue" points="835.5,-549.48 839,-559.48 842.5,-549.48 835.5,-549.48"/>
</g>
<!-- Node23&#45;&gt;Node7 -->
<g id="edge39" class="edge">
<title>Node23&#45;&gt;Node7</title>
<path fill="none" stroke="midnightblue" d="M156.55,-495.3C130.56,-487.76 100.63,-475.51 79,-456 48.89,-428.85 38,-415.05 38,-374.5 38,-374.5 38,-374.5 38,-311 38,-274.35 40.36,-256.55 70,-235 112.23,-204.3 457.45,-190.6 600.88,-186.19"/>
<polygon fill="midnightblue" stroke="midnightblue" points="155.72,-498.7 166.29,-497.96 157.57,-491.95 155.72,-498.7"/>
</g>
<!-- Node23&#45;&gt;Node8 -->
<g id="edge35" class="edge">
<title>Node23&#45;&gt;Node8</title>
<path fill="none" stroke="midnightblue" d="M135.92,-495.64C105.8,-488.35 72.37,-476.2 47,-456 14.29,-429.96 0,-416.31 0,-374.5 0,-374.5 0,-374.5 0,-182.5 0,-82.66 761.86,-69.11 985.8,-67.28"/>
<polygon fill="midnightblue" stroke="midnightblue" points="135.47,-499.12 145.99,-497.93 137.02,-492.3 135.47,-499.12"/>
</g>
<!-- Node23&#45;&gt;Node11 -->
<g id="edge40" class="edge">
<title>Node23&#45;&gt;Node11</title>
<path fill="none" stroke="midnightblue" d="M227.07,-490.69C245.97,-471.87 280.28,-440.99 316,-425 355.1,-407.5 469.25,-390.68 539.76,-381.56"/>
<polygon fill="midnightblue" stroke="midnightblue" points="224.46,-488.35 219.95,-497.94 229.45,-493.26 224.46,-488.35"/>
</g>
<!-- Node23&#45;&gt;Node14 -->
<g id="edge38" class="edge">
<title>Node23&#45;&gt;Node14</title>
<path fill="none" stroke="midnightblue" d="M200.16,-489.4C191.42,-476.77 179.88,-460.1 172.97,-450.13"/>
<polygon fill="midnightblue" stroke="midnightblue" points="197.36,-491.5 205.93,-497.73 203.12,-487.52 197.36,-491.5"/>
</g>
<!-- Node24 -->
<g id="node24" class="node">
<title>Node24</title>
<g id="a_node24"><a xlink:href="ccf__acme__client_8h.html" target="_top" xlink:title=" ">
<polygon fill="white" stroke="black" points="79.5,-241 79.5,-260 228.5,-260 228.5,-241 79.5,-241"/>
<text text-anchor="middle" x="154" y="-248" font-family="Helvetica,sans-Serif" font-size="10.00">src/node/ccf_acme_client.h</text>
</a>
</g>
</g>
<!-- Node23&#45;&gt;Node24 -->
<g id="edge36" class="edge">
<title>Node23&#45;&gt;Node24</title>
<path fill="none" stroke="midnightblue" d="M151.45,-494.85C129.89,-487.48 107.81,-475.48 95,-456 51.15,-389.31 123.3,-289.57 146.92,-260.03"/>
<polygon fill="midnightblue" stroke="midnightblue" points="150.69,-498.28 161.28,-497.93 152.78,-491.6 150.69,-498.28"/>
</g>
<!-- Node24&#45;&gt;Node7 -->
<g id="edge37" class="edge">
<title>Node24&#45;&gt;Node7</title>
<path fill="none" stroke="midnightblue" d="M230.95,-239.67C332.09,-226.76 507.77,-204.32 600.9,-192.43"/>
<polygon fill="midnightblue" stroke="midnightblue" points="230.28,-236.23 220.8,-240.97 231.17,-243.17 230.28,-236.23"/>
</g>
<!-- Node25&#45;&gt;Node13 -->
<g id="edge42" class="edge">
<title>Node25&#45;&gt;Node13</title>
<path fill="none" stroke="midnightblue" d="M873.52,-486.43C884.01,-478.42 894.27,-468.17 900,-456 905.86,-443.53 906.62,-437.08 900,-425 888.66,-404.3 864.82,-390.85 846.28,-383.07"/>
<polygon fill="midnightblue" stroke="midnightblue" points="871.28,-483.73 865.14,-492.37 875.32,-489.44 871.28,-483.73"/>
</g>
<!-- Node26&#45;&gt;Node8 -->
<g id="edge44" class="edge">
<title>Node26&#45;&gt;Node8</title>
<path fill="none" stroke="midnightblue" d="M1200.06,-422.8C1216.89,-399.57 1244,-355.53 1244,-313 1244,-313 1244,-313 1244,-182.5 1244,-146.25 1231.58,-134.29 1203,-112 1175.88,-90.85 1139.18,-79.64 1108.19,-73.7"/>
<polygon fill="midnightblue" stroke="midnightblue" points="1197.18,-420.8 1193.99,-430.9 1202.79,-425 1197.18,-420.8"/>
</g>
<!-- Node26&#45;&gt;Node27 -->
<g id="edge45" class="edge">
<title>Node26&#45;&gt;Node27</title>
<path fill="none" stroke="midnightblue" d="M1171.64,-423.13C1159.71,-410.42 1143.64,-393.3 1134.1,-383.13"/>
<polygon fill="midnightblue" stroke="midnightblue" points="1169.38,-425.84 1178.77,-430.73 1174.48,-421.05 1169.38,-425.84"/>
</g>
<!-- Node27&#45;&gt;Node7 -->
<g id="edge46" class="edge">
<title>Node27&#45;&gt;Node7</title>
<path fill="none" stroke="midnightblue" d="M1103.63,-358.56C1088.95,-349 1069.64,-335.62 1054,-322 1014.16,-287.31 1019.58,-259.92 973,-235 931.17,-212.62 802.99,-197.33 725.17,-189.84"/>
<polygon fill="midnightblue" stroke="midnightblue" points="1101.8,-361.54 1112.1,-363.99 1105.57,-355.65 1101.8,-361.54"/>
</g>
<!-- Node27&#45;&gt;Node16 -->
<g id="edge49" class="edge">
<title>Node27&#45;&gt;Node16</title>
<path fill="none" stroke="midnightblue" d="M1085.54,-361.25C1043.96,-349.69 980.16,-331.95 942.6,-321.51"/>
<polygon fill="midnightblue" stroke="midnightblue" points="1084.77,-364.67 1095.34,-363.98 1086.64,-357.92 1084.77,-364.67"/>
</g>
<!-- Node28 -->
<g id="node28" class="node">
<title>Node28</title>
<g id="a_node28"><a xlink:href="member__frontend_8h.html" target="_top" xlink:title=" ">
<polygon fill="white" stroke="black" points="1096,-168.5 1096,-198.5 1216,-198.5 1216,-168.5 1096,-168.5"/>
<text text-anchor="start" x="1104" y="-186.5" font-family="Helvetica,sans-Serif" font-size="10.00">src/node/rpc/member</text>
<text text-anchor="middle" x="1156" y="-175.5" font-family="Helvetica,sans-Serif" font-size="10.00">_frontend.h</text>
</a>
</g>
</g>
<!-- Node27&#45;&gt;Node28 -->
<g id="edge47" class="edge">
<title>Node27&#45;&gt;Node28</title>
<path fill="none" stroke="midnightblue" d="M1128.97,-353.88C1134.96,-316.33 1148.38,-232.24 1153.73,-198.7"/>
<polygon fill="midnightblue" stroke="midnightblue" points="1125.49,-353.51 1127.37,-363.93 1132.4,-354.61 1125.49,-353.51"/>
</g>
<!-- Node29 -->
<g id="node29" class="node">
<title>Node29</title>
<g id="a_node29"><a xlink:href="user__frontend_8h.html" target="_top" xlink:title=" ">
<polygon fill="white" stroke="black" points="1022.5,-112.5 1022.5,-131.5 1177.5,-131.5 1177.5,-112.5 1022.5,-112.5"/>
<text text-anchor="middle" x="1100" y="-119.5" font-family="Helvetica,sans-Serif" font-size="10.00">src/node/rpc/user_frontend.h</text>
</a>
</g>
</g>
<!-- Node27&#45;&gt;Node29 -->
<g id="edge50" class="edge">
<title>Node27&#45;&gt;Node29</title>
<path fill="none" stroke="midnightblue" d="M1120.42,-354C1111.25,-322.53 1093.37,-256.39 1087,-199 1085.48,-185.31 1085.07,-181.64 1087,-168 1088.82,-155.12 1093.45,-140.76 1096.66,-131.8"/>
<polygon fill="midnightblue" stroke="midnightblue" points="1117.17,-355.36 1123.37,-363.95 1123.88,-353.37 1117.17,-355.36"/>
</g>
<!-- Node28&#45;&gt;Node8 -->
<g id="edge48" class="edge">
<title>Node28&#45;&gt;Node8</title>
<path fill="none" stroke="midnightblue" d="M1177.05,-160.32C1188.26,-145.74 1197.73,-126.72 1187,-112 1168.95,-87.24 1137.06,-75.81 1108.27,-70.65"/>
<polygon fill="midnightblue" stroke="midnightblue" points="1174.09,-158.4 1170.38,-168.32 1179.47,-162.88 1174.09,-158.4"/>
</g>
<!-- Node29&#45;&gt;Node8 -->
<g id="edge51" class="edge">
<title>Node29&#45;&gt;Node8</title>
<path fill="none" stroke="midnightblue" d="M1084.02,-104.72C1074.68,-95.2 1063.25,-83.56 1055.59,-75.75"/>
<polygon fill="midnightblue" stroke="midnightblue" points="1081.75,-107.4 1091.25,-112.08 1086.74,-102.49 1081.75,-107.4"/>
</g>
<!-- Node30&#45;&gt;Node6 -->
<g id="edge54" class="edge">
<title>Node30&#45;&gt;Node6</title>
<path fill="none" stroke="midnightblue" d="M987.31,-488.71C972.32,-456.43 935.85,-388.67 882,-358 828.17,-327.34 653.83,-317.53 557.85,-314.42"/>
<polygon fill="midnightblue" stroke="midnightblue" points="984.13,-490.17 991.42,-497.86 990.52,-487.3 984.13,-490.17"/>
</g>
<!-- Node30&#45;&gt;Node7 -->
<g id="edge55" class="edge">
<title>Node30&#45;&gt;Node7</title>
<path fill="none" stroke="midnightblue" d="M992.73,-487.57C990.08,-470.43 984.64,-444.89 974,-425 955.14,-389.75 947.76,-379.4 914,-358 820.65,-298.85 751.65,-352.6 683,-266 665.62,-244.08 663.06,-209.2 662.87,-193.12"/>
<polygon fill="midnightblue" stroke="midnightblue" points="989.32,-488.49 994.14,-497.92 996.26,-487.54 989.32,-488.49"/>
</g>
<!-- Node30&#45;&gt;Node26 -->
<g id="edge58" class="edge">
<title>Node30&#45;&gt;Node26</title>
<path fill="none" stroke="midnightblue" d="M1030.15,-494.6C1068.21,-481.71 1128,-461.47 1161.7,-450.06"/>
<polygon fill="midnightblue" stroke="midnightblue" points="1028.85,-491.35 1020.5,-497.87 1031.09,-497.98 1028.85,-491.35"/>
</g>
<!-- Node31 -->
<g id="node31" class="node">
<title>Node31</title>
<g id="a_node31"><a xlink:href="node__to__node__channel__manager_8h.html" target="_top" xlink:title=" ">
<polygon fill="white" stroke="black" points="691.5,-235.5 691.5,-265.5 820.5,-265.5 820.5,-235.5 691.5,-235.5"/>
<text text-anchor="start" x="699.5" y="-253.5" font-family="Helvetica,sans-Serif" font-size="10.00">src/node/node_to_node</text>
<text text-anchor="middle" x="756" y="-242.5" font-family="Helvetica,sans-Serif" font-size="10.00">_channel_manager.h</text>
</a>
</g>
</g>
<!-- Node30&#45;&gt;Node31 -->
<g id="edge56" class="edge">
<title>Node30&#45;&gt;Node31</title>
<path fill="none" stroke="midnightblue" d="M1004.03,-488.51C1017.93,-457.95 1039.94,-395.54 1009,-358 955.73,-293.36 897.6,-362 824,-322 798.75,-308.28 777.2,-281.95 765.47,-265.64"/>
<polygon fill="midnightblue" stroke="midnightblue" points="1000.69,-487.37 999.54,-497.9 1007.01,-490.39 1000.69,-487.37"/>
</g>
<!-- Node31&#45;&gt;Node7 -->
<g id="edge57" class="edge">
<title>Node31&#45;&gt;Node7</title>
<path fill="none" stroke="midnightblue" d="M727.59,-229.64C710.04,-217.37 688.41,-202.26 675.17,-193.01"/>
<polygon fill="midnightblue" stroke="midnightblue" points="725.62,-232.54 735.82,-235.4 729.63,-226.8 725.62,-232.54"/>
</g>
</g>
</svg>
