<?xml version="1.0" encoding="UTF-8" standalone="no"?>
<!DOCTYPE svg PUBLIC "-//W3C//DTD SVG 1.1//EN"
 "http://www.w3.org/Graphics/SVG/1.1/DTD/svg11.dtd">
<!-- Generated by graphviz version 2.43.0 (0)
 -->
<!-- Title: src/http/http_sig.h Pages: 1 -->
<svg width="1319pt" height="710pt"
 viewBox="0.00 0.00 1318.50 710.00" xmlns="http://www.w3.org/2000/svg" xmlns:xlink="http://www.w3.org/1999/xlink">
<g id="graph0" class="graph" transform="scale(1 1) rotate(0) translate(4 706)">
<title>src/http/http_sig.h</title>
<polygon fill="white" stroke="transparent" points="-4,4 -4,-706 1314.5,-706 1314.5,4 -4,4"/>
<!-- Node1 -->
<g id="node1" class="node">
<title>Node1</title>
<g id="a_node1"><a xlink:title=" ">
<polygon fill="#bfbfbf" stroke="black" points="318,-682.5 318,-701.5 422,-701.5 422,-682.5 318,-682.5"/>
<text text-anchor="middle" x="370" y="-689.5" font-family="Helvetica,sans-Serif" font-size="10.00">src/http/http_sig.h</text>
</a>
</g>
</g>
<!-- Node2 -->
<g id="node2" class="node">
<title>Node2</title>
<g id="a_node2"><a xlink:href="rpc__tls__client_8h.html" target="_top" xlink:title=" ">
<polygon fill="white" stroke="black" points="173.5,-615.5 173.5,-645.5 274.5,-645.5 274.5,-615.5 173.5,-615.5"/>
<text text-anchor="start" x="181.5" y="-633.5" font-family="Helvetica,sans-Serif" font-size="10.00">src/clients/rpc_tls</text>
<text text-anchor="middle" x="224" y="-622.5" font-family="Helvetica,sans-Serif" font-size="10.00">_client.h</text>
</a>
</g>
</g>
<!-- Node1&#45;&gt;Node2 -->
<g id="edge1" class="edge">
<title>Node1&#45;&gt;Node2</title>
<path fill="none" stroke="midnightblue" d="M339.55,-678.59C315.88,-668.94 283.03,-655.56 258.41,-645.52"/>
<polygon fill="midnightblue" stroke="midnightblue" points="338.5,-681.94 349.08,-682.48 341.14,-675.46 338.5,-681.94"/>
</g>
<!-- Node7 -->
<g id="node7" class="node">
<title>Node7</title>
<g id="a_node7"><a xlink:href="sig__auth_8cpp.html" target="_top" xlink:title=" ">
<polygon fill="white" stroke="black" points="292.5,-615.5 292.5,-645.5 447.5,-645.5 447.5,-615.5 292.5,-615.5"/>
<text text-anchor="start" x="300.5" y="-633.5" font-family="Helvetica,sans-Serif" font-size="10.00">src/endpoints/authentication</text>
<text text-anchor="middle" x="370" y="-622.5" font-family="Helvetica,sans-Serif" font-size="10.00">/sig_auth.cpp</text>
</a>
</g>
</g>
<!-- Node1&#45;&gt;Node7 -->
<g id="edge7" class="edge">
<title>Node1&#45;&gt;Node7</title>
<path fill="none" stroke="midnightblue" d="M370,-672.23C370,-663.59 370,-653.5 370,-645.52"/>
<polygon fill="midnightblue" stroke="midnightblue" points="366.5,-672.48 370,-682.48 373.5,-672.48 366.5,-672.48"/>
</g>
<!-- Node8 -->
<g id="node8" class="node">
<title>Node8</title>
<g id="a_node8"><a xlink:href="http__rpc__context_8h.html" target="_top" xlink:title=" ">
<polygon fill="white" stroke="black" points="465.5,-621 465.5,-640 612.5,-640 612.5,-621 465.5,-621"/>
<text text-anchor="middle" x="539" y="-628" font-family="Helvetica,sans-Serif" font-size="10.00">src/http/http_rpc_context.h</text>
</a>
</g>
</g>
<!-- Node1&#45;&gt;Node8 -->
<g id="edge8" class="edge">
<title>Node1&#45;&gt;Node8</title>
<path fill="none" stroke="midnightblue" d="M403.85,-679.08C436.7,-667.52 485.74,-650.25 514.83,-640.01"/>
<polygon fill="midnightblue" stroke="midnightblue" points="402.48,-675.85 394.21,-682.48 404.81,-682.46 402.48,-675.85"/>
</g>
<!-- Node3 -->
<g id="node3" class="node">
<title>Node3</title>
<g id="a_node3"><a xlink:href="perf__client_8h.html" target="_top" xlink:title=" ">
<polygon fill="white" stroke="black" points="140.5,-492.5 140.5,-522.5 251.5,-522.5 251.5,-492.5 140.5,-492.5"/>
<text text-anchor="start" x="148.5" y="-510.5" font-family="Helvetica,sans-Serif" font-size="10.00">src/clients/perf/perf</text>
<text text-anchor="middle" x="196" y="-499.5" font-family="Helvetica,sans-Serif" font-size="10.00">_client.h</text>
</a>
</g>
</g>
<!-- Node2&#45;&gt;Node3 -->
<g id="edge2" class="edge">
<title>Node2&#45;&gt;Node3</title>
<path fill="none" stroke="midnightblue" d="M192.42,-609.04C182.73,-600.96 173.24,-590.77 168,-579 159.44,-559.75 172.52,-537.02 183.53,-522.68"/>
<polygon fill="midnightblue" stroke="midnightblue" points="190.48,-611.96 200.53,-615.32 194.77,-606.43 190.48,-611.96"/>
</g>
<!-- Node6 -->
<g id="node6" class="node">
<title>Node6</title>
<g id="a_node6"><a xlink:href="timing_8h.html" target="_top" xlink:title=" ">
<polygon fill="white" stroke="black" points="177,-559.5 177,-578.5 309,-578.5 309,-559.5 177,-559.5"/>
<text text-anchor="middle" x="243" y="-566.5" font-family="Helvetica,sans-Serif" font-size="10.00">src/clients/perf/timing.h</text>
</a>
</g>
</g>
<!-- Node2&#45;&gt;Node6 -->
<g id="edge5" class="edge">
<title>Node2&#45;&gt;Node6</title>
<path fill="none" stroke="midnightblue" d="M231.63,-605.59C234.67,-596.08 237.98,-585.73 240.24,-578.66"/>
<polygon fill="midnightblue" stroke="midnightblue" points="228.21,-604.81 228.5,-615.4 234.88,-606.94 228.21,-604.81"/>
</g>
<!-- Node4 -->
<g id="node4" class="node">
<title>Node4</title>
<g id="a_node4"><a xlink:href="tpcc__client_8cpp.html" target="_top" xlink:title=" ">
<polygon fill="white" stroke="black" points="0,-425.5 0,-455.5 116,-455.5 116,-425.5 0,-425.5"/>
<text text-anchor="start" x="8" y="-443.5" font-family="Helvetica,sans-Serif" font-size="10.00">src/apps/tpcc/clients</text>
<text text-anchor="middle" x="58" y="-432.5" font-family="Helvetica,sans-Serif" font-size="10.00">/tpcc_client.cpp</text>
</a>
</g>
</g>
<!-- Node3&#45;&gt;Node4 -->
<g id="edge3" class="edge">
<title>Node3&#45;&gt;Node4</title>
<path fill="none" stroke="midnightblue" d="M157,-488.13C135.07,-477.8 108.13,-465.11 87.89,-455.58"/>
<polygon fill="midnightblue" stroke="midnightblue" points="155.52,-491.3 166.06,-492.4 158.5,-484.97 155.52,-491.3"/>
</g>
<!-- Node5 -->
<g id="node5" class="node">
<title>Node5</title>
<g id="a_node5"><a xlink:href="scenario__perf__client_8cpp.html" target="_top" xlink:title=" ">
<polygon fill="white" stroke="black" points="134.5,-425.5 134.5,-455.5 267.5,-455.5 267.5,-425.5 134.5,-425.5"/>
<text text-anchor="start" x="142.5" y="-443.5" font-family="Helvetica,sans-Serif" font-size="10.00">src/clients/perf/scenario</text>
<text text-anchor="middle" x="201" y="-432.5" font-family="Helvetica,sans-Serif" font-size="10.00">_perf_client.cpp</text>
</a>
</g>
</g>
<!-- Node3&#45;&gt;Node5 -->
<g id="edge4" class="edge">
<title>Node3&#45;&gt;Node5</title>
<path fill="none" stroke="midnightblue" d="M197.85,-482.4C198.55,-473.37 199.31,-463.41 199.92,-455.58"/>
<polygon fill="midnightblue" stroke="midnightblue" points="194.36,-482.16 197.08,-492.4 201.34,-482.69 194.36,-482.16"/>
</g>
<!-- Node6&#45;&gt;Node3 -->
<g id="edge6" class="edge">
<title>Node6&#45;&gt;Node3</title>
<path fill="none" stroke="midnightblue" d="M229.99,-551.53C222.79,-542.42 213.94,-531.21 207.08,-522.52"/>
<polygon fill="midnightblue" stroke="midnightblue" points="227.32,-553.8 236.27,-559.48 232.81,-549.46 227.32,-553.8"/>
</g>
<!-- Node9 -->
<g id="node9" class="node">
<title>Node9</title>
<g id="a_node9"><a xlink:href="http__endpoint_8h.html" target="_top" xlink:title=" ">
<polygon fill="white" stroke="black" points="908.5,-559.5 908.5,-578.5 1041.5,-578.5 1041.5,-559.5 908.5,-559.5"/>
<text text-anchor="middle" x="975" y="-566.5" font-family="Helvetica,sans-Serif" font-size="10.00">src/http/http_endpoint.h</text>
</a>
</g>
</g>
<!-- Node8&#45;&gt;Node9 -->
<g id="edge9" class="edge">
<title>Node8&#45;&gt;Node9</title>
<path fill="none" stroke="midnightblue" d="M611.46,-619.61C695.62,-608.13 833.06,-589.37 912.65,-578.51"/>
<polygon fill="midnightblue" stroke="midnightblue" points="610.9,-616.16 601.47,-620.98 611.85,-623.09 610.9,-616.16"/>
</g>
<!-- Node20 -->
<g id="node20" class="node">
<title>Node20</title>
<g id="a_node20"><a xlink:href="jwt__key__auto__refresh_8h.html" target="_top" xlink:title=" ">
<polygon fill="white" stroke="black" points="521.5,-235.5 521.5,-265.5 646.5,-265.5 646.5,-235.5 521.5,-235.5"/>
<text text-anchor="start" x="529.5" y="-253.5" font-family="Helvetica,sans-Serif" font-size="10.00">src/node/jwt_key_auto</text>
<text text-anchor="middle" x="584" y="-242.5" font-family="Helvetica,sans-Serif" font-size="10.00">_refresh.h</text>
</a>
</g>
</g>
<!-- Node8&#45;&gt;Node20 -->
<g id="edge36" class="edge">
<title>Node8&#45;&gt;Node20</title>
<path fill="none" stroke="midnightblue" d="M539,-610.94C539,-587.19 539,-544.79 539,-508.5 539,-508.5 539,-508.5 539,-439.5 539,-402.31 539.29,-390.14 558,-358 569.87,-337.61 587.54,-343.61 597,-322 605.09,-303.53 597.73,-280.2 591.24,-265.56"/>
<polygon fill="midnightblue" stroke="midnightblue" points="535.5,-610.99 539,-620.99 542.5,-610.99 535.5,-610.99"/>
</g>
<!-- Node26 -->
<g id="node26" class="node">
<title>Node26</title>
<g id="a_node26"><a xlink:href="forwarder_8h.html" target="_top" xlink:title=" ">
<polygon fill="white" stroke="black" points="325,-431 325,-450 459,-450 459,-431 325,-431"/>
<text text-anchor="middle" x="392" y="-438" font-family="Helvetica,sans-Serif" font-size="10.00">src/node/rpc/forwarder.h</text>
</a>
</g>
</g>
<!-- Node8&#45;&gt;Node26 -->
<g id="edge37" class="edge">
<title>Node8&#45;&gt;Node26</title>
<path fill="none" stroke="midnightblue" d="M525.91,-612.75C495.6,-573.99 421.47,-479.19 398.74,-450.12"/>
<polygon fill="midnightblue" stroke="midnightblue" points="523.38,-615.21 532.3,-620.93 528.9,-610.9 523.38,-615.21"/>
</g>
<!-- Node10 -->
<g id="node10" class="node">
<title>Node10</title>
<g id="a_node10"><a xlink:href="rpc__sessions_8h.html" target="_top" xlink:title=" ">
<polygon fill="white" stroke="black" points="902,-498 902,-517 1048,-517 1048,-498 902,-498"/>
<text text-anchor="middle" x="975" y="-505" font-family="Helvetica,sans-Serif" font-size="10.00">src/enclave/rpc_sessions.h</text>
</a>
</g>
</g>
<!-- Node9&#45;&gt;Node10 -->
<g id="edge10" class="edge">
<title>Node9&#45;&gt;Node10</title>
<path fill="none" stroke="midnightblue" d="M975,-549.32C975,-538.5 975,-525.4 975,-517.01"/>
<polygon fill="midnightblue" stroke="midnightblue" points="971.5,-549.48 975,-559.48 978.5,-549.48 971.5,-549.48"/>
</g>
<!-- Node24 -->
<g id="node24" class="node">
<title>Node24</title>
<g id="a_node24"><a xlink:href="acme__challenge__server_8h.html" target="_top" xlink:title=" ">
<polygon fill="white" stroke="black" points="1128.5,-492.5 1128.5,-522.5 1265.5,-522.5 1265.5,-492.5 1128.5,-492.5"/>
<text text-anchor="start" x="1136.5" y="-510.5" font-family="Helvetica,sans-Serif" font-size="10.00">src/host/acme_challenge</text>
<text text-anchor="middle" x="1197" y="-499.5" font-family="Helvetica,sans-Serif" font-size="10.00">_server.h</text>
</a>
</g>
</g>
<!-- Node9&#45;&gt;Node24 -->
<g id="edge34" class="edge">
<title>Node9&#45;&gt;Node24</title>
<path fill="none" stroke="midnightblue" d="M1016.57,-556.86C1052.81,-547.14 1105.57,-533.01 1144.68,-522.52"/>
<polygon fill="midnightblue" stroke="midnightblue" points="1015.56,-553.51 1006.81,-559.48 1017.37,-560.27 1015.56,-553.51"/>
</g>
<!-- Node11 -->
<g id="node11" class="node">
<title>Node11</title>
<g id="a_node11"><a xlink:href="enclave_2enclave_8h.html" target="_top" xlink:title=" ">
<polygon fill="white" stroke="black" points="432,-56.5 432,-75.5 554,-75.5 554,-56.5 432,-56.5"/>
<text text-anchor="middle" x="493" y="-63.5" font-family="Helvetica,sans-Serif" font-size="10.00">src/enclave/enclave.h</text>
</a>
</g>
</g>
<!-- Node10&#45;&gt;Node11 -->
<g id="edge11" class="edge">
<title>Node10&#45;&gt;Node11</title>
<path fill="none" stroke="midnightblue" d="M1030.59,-495.59C1091,-480.13 1179,-445.43 1179,-374.5 1179,-374.5 1179,-374.5 1179,-182.5 1179,-119.43 722.31,-82.39 554.18,-70.89"/>
<polygon fill="midnightblue" stroke="midnightblue" points="1029.66,-492.22 1020.78,-498 1031.33,-499.02 1029.66,-492.22"/>
</g>
<!-- Node13 -->
<g id="node13" class="node">
<title>Node13</title>
<g id="a_node13"><a xlink:href="ccf__acme__client_8h.html" target="_top" xlink:title=" ">
<polygon fill="white" stroke="black" points="1002.5,-241 1002.5,-260 1151.5,-260 1151.5,-241 1002.5,-241"/>
<text text-anchor="middle" x="1077" y="-248" font-family="Helvetica,sans-Serif" font-size="10.00">src/node/ccf_acme_client.h</text>
</a>
</g>
</g>
<!-- Node10&#45;&gt;Node13 -->
<g id="edge13" class="edge">
<title>Node10&#45;&gt;Node13</title>
<path fill="none" stroke="midnightblue" d="M982.24,-488.39C1002.44,-437.89 1058.88,-296.8 1073.5,-260.24"/>
<polygon fill="midnightblue" stroke="midnightblue" points="978.98,-487.14 978.51,-497.72 985.47,-489.74 978.98,-487.14"/>
</g>
<!-- Node14 -->
<g id="node14" class="node">
<title>Node14</title>
<g id="a_node14"><a xlink:href="node__state_8h.html" target="_top" xlink:title=" ">
<polygon fill="white" stroke="black" points="613,-174 613,-193 737,-193 737,-174 613,-174"/>
<text text-anchor="middle" x="675" y="-181" font-family="Helvetica,sans-Serif" font-size="10.00">src/node/node_state.h</text>
</a>
</g>
</g>
<!-- Node10&#45;&gt;Node14 -->
<g id="edge31" class="edge">
<title>Node10&#45;&gt;Node14</title>
<path fill="none" stroke="midnightblue" d="M975,-487.72C975,-462.12 975,-414.84 975,-374.5 975,-374.5 975,-374.5 975,-311 975,-276.18 981.43,-258.78 956,-235 925.04,-206.06 810.07,-193.25 737.13,-187.93"/>
<polygon fill="midnightblue" stroke="midnightblue" points="971.5,-487.85 975,-497.85 978.5,-487.85 971.5,-487.85"/>
</g>
<!-- Node16 -->
<g id="node16" class="node">
<title>Node16</title>
<g id="a_node16"><a xlink:href="node__client_8h.html" target="_top" xlink:title=" ">
<polygon fill="white" stroke="black" points="744,-431 744,-450 870,-450 870,-431 744,-431"/>
<text text-anchor="middle" x="807" y="-438" font-family="Helvetica,sans-Serif" font-size="10.00">src/node/node_client.h</text>
</a>
</g>
</g>
<!-- Node10&#45;&gt;Node16 -->
<g id="edge18" class="edge">
<title>Node10&#45;&gt;Node16</title>
<path fill="none" stroke="midnightblue" d="M942.96,-494.1C909.61,-481.2 858.25,-461.33 829.13,-450.06"/>
<polygon fill="midnightblue" stroke="midnightblue" points="942.1,-497.52 952.69,-497.87 944.63,-491 942.1,-497.52"/>
</g>
<!-- Node23 -->
<g id="node23" class="node">
<title>Node23</title>
<g id="a_node23"><a xlink:href="resharing_8h.html" target="_top" xlink:title=" ">
<polygon fill="white" stroke="black" points="831,-241 831,-260 947,-260 947,-241 831,-241"/>
<text text-anchor="middle" x="889" y="-248" font-family="Helvetica,sans-Serif" font-size="10.00">src/node/resharing.h</text>
</a>
</g>
</g>
<!-- Node10&#45;&gt;Node23 -->
<g id="edge32" class="edge">
<title>Node10&#45;&gt;Node23</title>
<path fill="none" stroke="midnightblue" d="M968.79,-488.07C951.66,-437.3 904.25,-296.72 891.95,-260.24"/>
<polygon fill="midnightblue" stroke="midnightblue" points="965.53,-489.37 972.04,-497.72 972.16,-487.13 965.53,-489.37"/>
</g>
<!-- Node12 -->
<g id="node12" class="node">
<title>Node12</title>
<g id="a_node12"><a xlink:href="enclave_2main_8cpp.html" target="_top" xlink:title=" ">
<polygon fill="white" stroke="black" points="433,-0.5 433,-19.5 553,-19.5 553,-0.5 433,-0.5"/>
<text text-anchor="middle" x="493" y="-7.5" font-family="Helvetica,sans-Serif" font-size="10.00">src/enclave/main.cpp</text>
</a>
</g>
</g>
<!-- Node11&#45;&gt;Node12 -->
<g id="edge12" class="edge">
<title>Node11&#45;&gt;Node12</title>
<path fill="none" stroke="midnightblue" d="M493,-45.8C493,-36.91 493,-26.78 493,-19.75"/>
<polygon fill="midnightblue" stroke="midnightblue" points="489.5,-46.08 493,-56.08 496.5,-46.08 489.5,-46.08"/>
</g>
<!-- Node13&#45;&gt;Node14 -->
<g id="edge14" class="edge">
<title>Node13&#45;&gt;Node14</title>
<path fill="none" stroke="midnightblue" d="M1015.44,-239.32C1006.57,-237.87 997.55,-236.39 989,-235 897.45,-220.09 790.83,-203 728.35,-193.02"/>
<polygon fill="midnightblue" stroke="midnightblue" points="1014.92,-242.79 1025.35,-240.96 1016.05,-235.88 1014.92,-242.79"/>
</g>
<!-- Node14&#45;&gt;Node11 -->
<g id="edge15" class="edge">
<title>Node14&#45;&gt;Node11</title>
<path fill="none" stroke="midnightblue" d="M644.7,-169.89C623.63,-160.59 595.27,-146.99 572,-132 544.82,-114.5 516.36,-89.03 502.17,-75.77"/>
<polygon fill="midnightblue" stroke="midnightblue" points="643.54,-173.2 654.11,-173.97 646.33,-166.78 643.54,-173.2"/>
</g>
<!-- Node15 -->
<g id="node15" class="node">
<title>Node15</title>
<g id="a_node15"><a xlink:href="gov__effects_8h.html" target="_top" xlink:title=" ">
<polygon fill="white" stroke="black" points="581,-112.5 581,-131.5 725,-131.5 725,-112.5 581,-112.5"/>
<text text-anchor="middle" x="653" y="-119.5" font-family="Helvetica,sans-Serif" font-size="10.00">src/node/rpc/gov_effects.h</text>
</a>
</g>
</g>
<!-- Node14&#45;&gt;Node15 -->
<g id="edge16" class="edge">
<title>Node14&#45;&gt;Node15</title>
<path fill="none" stroke="midnightblue" d="M668.34,-164.5C664.3,-153.55 659.31,-140.07 656.15,-131.51"/>
<polygon fill="midnightblue" stroke="midnightblue" points="665.1,-165.81 671.85,-173.98 671.66,-163.38 665.1,-165.81"/>
</g>
<!-- Node15&#45;&gt;Node11 -->
<g id="edge17" class="edge">
<title>Node15&#45;&gt;Node11</title>
<path fill="none" stroke="midnightblue" d="M617.95,-109.17C587.83,-99 545.1,-84.59 518.23,-75.52"/>
<polygon fill="midnightblue" stroke="midnightblue" points="617.05,-112.56 627.65,-112.44 619.29,-105.93 617.05,-112.56"/>
</g>
<!-- Node17 -->
<g id="node17" class="node">
<title>Node17</title>
<g id="a_node17"><a xlink:href="orc__requests_8h.html" target="_top" xlink:title=" ">
<polygon fill="white" stroke="black" points="567.5,-358.5 567.5,-388.5 686.5,-388.5 686.5,-358.5 567.5,-358.5"/>
<text text-anchor="start" x="575.5" y="-376.5" font-family="Helvetica,sans-Serif" font-size="10.00">src/consensus/aft/orc</text>
<text text-anchor="middle" x="627" y="-365.5" font-family="Helvetica,sans-Serif" font-size="10.00">_requests.h</text>
</a>
</g>
</g>
<!-- Node16&#45;&gt;Node17 -->
<g id="edge19" class="edge">
<title>Node16&#45;&gt;Node17</title>
<path fill="none" stroke="midnightblue" d="M773.34,-427.35C742.83,-416.33 697.87,-400.09 665.85,-388.53"/>
<polygon fill="midnightblue" stroke="midnightblue" points="772.5,-430.76 783.1,-430.87 774.88,-424.18 772.5,-430.76"/>
</g>
<!-- Node18 -->
<g id="node18" class="node">
<title>Node18</title>
<g id="a_node18"><a xlink:href="raft_8h.html" target="_top" xlink:title=" ">
<polygon fill="white" stroke="black" points="644.5,-302.5 644.5,-321.5 773.5,-321.5 773.5,-302.5 644.5,-302.5"/>
<text text-anchor="middle" x="709" y="-309.5" font-family="Helvetica,sans-Serif" font-size="10.00">src/consensus/aft/raft.h</text>
</a>
</g>
</g>
<!-- Node16&#45;&gt;Node18 -->
<g id="edge26" class="edge">
<title>Node16&#45;&gt;Node18</title>
<path fill="none" stroke="midnightblue" d="M779.19,-426.01C763.92,-417.33 745.76,-404.74 734,-389 718.37,-368.08 712.21,-336.9 710.05,-321.81"/>
<polygon fill="midnightblue" stroke="midnightblue" points="777.77,-429.22 788.23,-430.89 781.1,-423.06 777.77,-429.22"/>
</g>
<!-- Node21 -->
<g id="node21" class="node">
<title>Node21</title>
<g id="a_node21"><a xlink:href="http__node__client_8h.html" target="_top" xlink:title=" ">
<polygon fill="white" stroke="black" points="703,-235.5 703,-265.5 813,-265.5 813,-235.5 703,-235.5"/>
<text text-anchor="start" x="711" y="-253.5" font-family="Helvetica,sans-Serif" font-size="10.00">src/node/http_node</text>
<text text-anchor="middle" x="758" y="-242.5" font-family="Helvetica,sans-Serif" font-size="10.00">_client.h</text>
</a>
</g>
</g>
<!-- Node16&#45;&gt;Node21 -->
<g id="edge27" class="edge">
<title>Node16&#45;&gt;Node21</title>
<path fill="none" stroke="midnightblue" d="M838.68,-426.28C854.13,-418.01 871.23,-405.73 880,-389 886.4,-376.8 885.7,-370.54 880,-358 860.52,-315.13 814.3,-282.76 784.67,-265.51"/>
<polygon fill="midnightblue" stroke="midnightblue" points="836.76,-423.32 829.36,-430.91 839.87,-429.59 836.76,-423.32"/>
</g>
<!-- Node22 -->
<g id="node22" class="node">
<title>Node22</title>
<g id="a_node22"><a xlink:href="retired__nodes__cleanup_8h.html" target="_top" xlink:title=" ">
<polygon fill="white" stroke="black" points="743,-358.5 743,-388.5 871,-388.5 871,-358.5 743,-358.5"/>
<text text-anchor="start" x="751" y="-376.5" font-family="Helvetica,sans-Serif" font-size="10.00">src/node/retired_nodes</text>
<text text-anchor="middle" x="807" y="-365.5" font-family="Helvetica,sans-Serif" font-size="10.00">_cleanup.h</text>
</a>
</g>
</g>
<!-- Node16&#45;&gt;Node22 -->
<g id="edge29" class="edge">
<title>Node16&#45;&gt;Node22</title>
<path fill="none" stroke="midnightblue" d="M807,-420.41C807,-410.22 807,-397.9 807,-388.59"/>
<polygon fill="midnightblue" stroke="midnightblue" points="803.5,-420.73 807,-430.73 810.5,-420.73 803.5,-420.73"/>
</g>
<!-- Node17&#45;&gt;Node18 -->
<g id="edge20" class="edge">
<title>Node17&#45;&gt;Node18</title>
<path fill="none" stroke="midnightblue" d="M654.59,-352.48C669.03,-342 685.97,-329.71 697.07,-321.66"/>
<polygon fill="midnightblue" stroke="midnightblue" points="652.47,-349.69 646.43,-358.4 656.58,-355.36 652.47,-349.69"/>
</g>
<!-- Node19 -->
<g id="node19" class="node">
<title>Node19</title>
<g id="a_node19"><a xlink:href="node__frontend_8h.html" target="_top" xlink:title=" ">
<polygon fill="white" stroke="black" points="430,-302.5 430,-321.5 588,-321.5 588,-302.5 430,-302.5"/>
<text text-anchor="middle" x="509" y="-309.5" font-family="Helvetica,sans-Serif" font-size="10.00">src/node/rpc/node_frontend.h</text>
</a>
</g>
</g>
<!-- Node17&#45;&gt;Node19 -->
<g id="edge22" class="edge">
<title>Node17&#45;&gt;Node19</title>
<path fill="none" stroke="midnightblue" d="M589.91,-353.8C568.58,-343.04 542.81,-330.05 526.17,-321.66"/>
<polygon fill="midnightblue" stroke="midnightblue" points="588.53,-357.02 599.04,-358.4 591.68,-350.77 588.53,-357.02"/>
</g>
<!-- Node18&#45;&gt;Node14 -->
<g id="edge21" class="edge">
<title>Node18&#45;&gt;Node14</title>
<path fill="none" stroke="midnightblue" d="M702.53,-292.87C699.73,-284.71 696.52,-274.93 694,-266 686.57,-239.72 679.81,-208.08 676.74,-193.13"/>
<polygon fill="midnightblue" stroke="midnightblue" points="699.28,-294.17 705.89,-302.45 705.88,-291.85 699.28,-294.17"/>
</g>
<!-- Node19&#45;&gt;Node11 -->
<g id="edge23" class="edge">
<title>Node19&#45;&gt;Node11</title>
<path fill="none" stroke="midnightblue" d="M507.76,-292.09C504.51,-242.57 495.85,-110.52 493.56,-75.58"/>
<polygon fill="midnightblue" stroke="midnightblue" points="504.28,-292.57 508.43,-302.32 511.27,-292.11 504.28,-292.57"/>
</g>
<!-- Node19&#45;&gt;Node20 -->
<g id="edge24" class="edge">
<title>Node19&#45;&gt;Node20</title>
<path fill="none" stroke="midnightblue" d="M527.66,-296.2C539.49,-286.81 554.69,-274.75 566.32,-265.52"/>
<polygon fill="midnightblue" stroke="midnightblue" points="525.4,-293.52 519.75,-302.48 529.76,-299 525.4,-293.52"/>
</g>
<!-- Node20&#45;&gt;Node14 -->
<g id="edge25" class="edge">
<title>Node20&#45;&gt;Node14</title>
<path fill="none" stroke="midnightblue" d="M612.27,-229.31C629.36,-217.1 650.25,-202.18 663.09,-193.01"/>
<polygon fill="midnightblue" stroke="midnightblue" points="609.85,-226.74 603.75,-235.4 613.92,-232.43 609.85,-226.74"/>
</g>
<!-- Node21&#45;&gt;Node14 -->
<g id="edge28" class="edge">
<title>Node21&#45;&gt;Node14</title>
<path fill="none" stroke="midnightblue" d="M731.83,-229.01C716.42,-216.94 697.74,-202.3 686.1,-193.19"/>
<polygon fill="midnightblue" stroke="midnightblue" points="729.96,-231.99 739.99,-235.4 734.28,-226.47 729.96,-231.99"/>
</g>
<!-- Node22&#45;&gt;Node18 -->
<g id="edge30" class="edge">
<title>Node22&#45;&gt;Node18</title>
<path fill="none" stroke="midnightblue" d="M775,-353.07C757.53,-342.46 736.77,-329.86 723.26,-321.66"/>
<polygon fill="midnightblue" stroke="midnightblue" points="773.41,-356.2 783.78,-358.4 777.04,-350.22 773.41,-356.2"/>
</g>
<!-- Node23&#45;&gt;Node14 -->
<g id="edge33" class="edge">
<title>Node23&#45;&gt;Node14</title>
<path fill="none" stroke="midnightblue" d="M850.9,-237.93C808.53,-225.06 741.08,-204.57 703.19,-193.06"/>
<polygon fill="midnightblue" stroke="midnightblue" points="850,-241.31 860.58,-240.87 852.03,-234.61 850,-241.31"/>
</g>
<!-- Node25 -->
<g id="node25" class="node">
<title>Node25</title>
<g id="a_node25"><a xlink:href="host_2main_8cpp.html" target="_top" xlink:title=" ">
<polygon fill="white" stroke="black" points="1207.5,-431 1207.5,-450 1310.5,-450 1310.5,-431 1207.5,-431"/>
<text text-anchor="middle" x="1259" y="-438" font-family="Helvetica,sans-Serif" font-size="10.00">src/host/main.cpp</text>
</a>
</g>
</g>
<!-- Node24&#45;&gt;Node25 -->
<g id="edge35" class="edge">
<title>Node24&#45;&gt;Node25</title>
<path fill="none" stroke="midnightblue" d="M1217.51,-485C1228.83,-473.13 1242.26,-459.05 1250.71,-450.19"/>
<polygon fill="midnightblue" stroke="midnightblue" points="1214.82,-482.74 1210.45,-492.4 1219.89,-487.58 1214.82,-482.74"/>
</g>
<!-- Node26&#45;&gt;Node11 -->
<g id="edge38" class="edge">
<title>Node26&#45;&gt;Node11</title>
<path fill="none" stroke="midnightblue" d="M334.65,-428.57C275.86,-413.65 193,-380.63 193,-313 193,-313 193,-313 193,-182.5 193,-131.34 237.62,-133.59 284,-112 330.94,-90.15 388.78,-78.75 431.71,-72.9"/>
<polygon fill="midnightblue" stroke="midnightblue" points="334.04,-432.02 344.59,-430.98 335.69,-425.22 334.04,-432.02"/>
</g>
<!-- Node27 -->
<g id="node27" class="node">
<title>Node27</title>
<g id="a_node27"><a xlink:href="frontend_8h.html" target="_top" xlink:title=" ">
<polygon fill="white" stroke="black" points="327.5,-364 327.5,-383 456.5,-383 456.5,-364 327.5,-364"/>
<text text-anchor="middle" x="392" y="-371" font-family="Helvetica,sans-Serif" font-size="10.00">src/node/rpc/frontend.h</text>
</a>
</g>
</g>
<!-- Node26&#45;&gt;Node27 -->
<g id="edge39" class="edge">
<title>Node26&#45;&gt;Node27</title>
<path fill="none" stroke="midnightblue" d="M392,-420.54C392,-408.17 392,-392.62 392,-383.13"/>
<polygon fill="midnightblue" stroke="midnightblue" points="388.5,-420.73 392,-430.73 395.5,-420.73 388.5,-420.73"/>
</g>
<!-- Node27&#45;&gt;Node14 -->
<g id="edge40" class="edge">
<title>Node27&#45;&gt;Node14</title>
<path fill="none" stroke="midnightblue" d="M396.54,-354.2C400.96,-339.07 408.81,-317.61 421,-302 472.22,-236.43 568.58,-206.01 626.76,-193.05"/>
<polygon fill="midnightblue" stroke="midnightblue" points="393.14,-353.35 393.92,-363.92 399.9,-355.18 393.14,-353.35"/>
</g>
<!-- Node27&#45;&gt;Node19 -->
<g id="edge43" class="edge">
<title>Node27&#45;&gt;Node19</title>
<path fill="none" stroke="midnightblue" d="M417.83,-359.37C440.5,-347.83 472.82,-331.4 492.27,-321.51"/>
<polygon fill="midnightblue" stroke="midnightblue" points="416.09,-356.32 408.76,-363.98 419.26,-362.56 416.09,-356.32"/>
</g>
<!-- Node28 -->
<g id="node28" class="node">
<title>Node28</title>
<g id="a_node28"><a xlink:href="member__frontend_8h.html" target="_top" xlink:title=" ">
<polygon fill="white" stroke="black" points="221,-168.5 221,-198.5 341,-198.5 341,-168.5 221,-168.5"/>
<text text-anchor="start" x="229" y="-186.5" font-family="Helvetica,sans-Serif" font-size="10.00">src/node/rpc/member</text>
<text text-anchor="middle" x="281" y="-175.5" font-family="Helvetica,sans-Serif" font-size="10.00">_frontend.h</text>
</a>
</g>
</g>
<!-- Node27&#45;&gt;Node28 -->
<g id="edge41" class="edge">
<title>Node27&#45;&gt;Node28</title>
<path fill="none" stroke="midnightblue" d="M376.76,-356.15C368.3,-346.61 357.92,-334.1 350,-322 322.21,-279.54 297.66,-224.36 286.85,-198.74"/>
<polygon fill="midnightblue" stroke="midnightblue" points="374.28,-358.63 383.59,-363.68 379.47,-353.92 374.28,-358.63"/>
</g>
<!-- Node29 -->
<g id="node29" class="node">
<title>Node29</title>
<g id="a_node29"><a xlink:href="user__frontend_8h.html" target="_top" xlink:title=" ">
<polygon fill="white" stroke="black" points="309.5,-112.5 309.5,-131.5 464.5,-131.5 464.5,-112.5 309.5,-112.5"/>
<text text-anchor="middle" x="387" y="-119.5" font-family="Helvetica,sans-Serif" font-size="10.00">src/node/rpc/user_frontend.h</text>
</a>
</g>
</g>
<!-- Node27&#45;&gt;Node29 -->
<g id="edge44" class="edge">
<title>Node27&#45;&gt;Node29</title>
<path fill="none" stroke="midnightblue" d="M391.63,-353.84C390.62,-303.64 387.88,-167.1 387.17,-131.55"/>
<polygon fill="midnightblue" stroke="midnightblue" points="388.13,-353.98 391.83,-363.91 395.13,-353.84 388.13,-353.98"/>
</g>
<!-- Node28&#45;&gt;Node11 -->
<g id="edge42" class="edge">
<title>Node28&#45;&gt;Node11</title>
<path fill="none" stroke="midnightblue" d="M281.47,-158.17C283.07,-142.9 287.68,-123.91 300,-112 318.68,-93.95 382.47,-81.54 431.66,-74.39"/>
<polygon fill="midnightblue" stroke="midnightblue" points="277.95,-158.27 280.76,-168.48 284.94,-158.74 277.95,-158.27"/>
</g>
<!-- Node29&#45;&gt;Node11 -->
<g id="edge45" class="edge">
<title>Node29&#45;&gt;Node11</title>
<path fill="none" stroke="midnightblue" d="M413.06,-107.73C432.68,-97.73 459.03,-84.31 476.01,-75.65"/>
<polygon fill="midnightblue" stroke="midnightblue" points="411.35,-104.67 404.03,-112.32 414.53,-110.9 411.35,-104.67"/>
</g>
</g>
</svg>
