<?xml version="1.0" encoding="UTF-8" standalone="no"?>
<!DOCTYPE svg PUBLIC "-//W3C//DTD SVG 1.1//EN"
 "http://www.w3.org/Graphics/SVG/1.1/DTD/svg11.dtd">
<!-- Generated by graphviz version 2.43.0 (0)
 -->
<!-- Title: include/ccf/receipt.h Pages: 1 -->
<svg width="1467pt" height="386pt"
 viewBox="0.00 0.00 1467.00 386.00" xmlns="http://www.w3.org/2000/svg" xmlns:xlink="http://www.w3.org/1999/xlink">
<g id="graph0" class="graph" transform="scale(1 1) rotate(0) translate(4 382)">
<title>include/ccf/receipt.h</title>
<polygon fill="white" stroke="transparent" points="-4,4 -4,-382 1463,-382 1463,4 -4,4"/>
<!-- Node1 -->
<g id="node1" class="node">
<title>Node1</title>
<g id="a_node1"><a xlink:title=" ">
<polygon fill="#bfbfbf" stroke="black" points="553.5,-358.5 553.5,-377.5 668.5,-377.5 668.5,-358.5 553.5,-358.5"/>
<text text-anchor="middle" x="611" y="-365.5" font-family="Helvetica,sans-Serif" font-size="10.00">include/ccf/receipt.h</text>
</a>
</g>
</g>
<!-- Node2 -->
<g id="node2" class="node">
<title>Node2</title>
<g id="a_node2"><a xlink:href="claims__digest_8h.html" target="_top" xlink:title=" ">
<polygon fill="white" stroke="black" points="515,-302.5 515,-321.5 625,-321.5 625,-302.5 515,-302.5"/>
<text text-anchor="middle" x="570" y="-309.5" font-family="Helvetica,sans-Serif" font-size="10.00">ccf/claims_digest.h</text>
</a>
</g>
</g>
<!-- Node1&#45;&gt;Node2 -->
<g id="edge1" class="edge">
<title>Node1&#45;&gt;Node2</title>
<path fill="none" stroke="midnightblue" d="M604.23,-358.08C598.44,-350.46 589.94,-339.26 582.86,-329.94"/>
<polygon fill="midnightblue" stroke="midnightblue" points="585.48,-327.6 576.64,-321.75 579.9,-331.83 585.48,-327.6"/>
</g>
<!-- Node3 -->
<g id="node3" class="node">
<title>Node3</title>
<g id="a_node3"><a xlink:href="sha256__hash_8h.html" target="_top" xlink:title=" ">
<polygon fill="white" stroke="black" points="515,-241 515,-260 655,-260 655,-241 515,-241"/>
<text text-anchor="middle" x="585" y="-248" font-family="Helvetica,sans-Serif" font-size="10.00">ccf/crypto/sha256_hash.h</text>
</a>
</g>
</g>
<!-- Node1&#45;&gt;Node3 -->
<g id="edge31" class="edge">
<title>Node1&#45;&gt;Node3</title>
<path fill="none" stroke="midnightblue" d="M618.02,-358.49C627.44,-345.99 642.1,-321.97 634,-302 628.28,-287.89 616.51,-275.54 605.94,-266.59"/>
<polygon fill="midnightblue" stroke="midnightblue" points="607.86,-263.65 597.86,-260.17 603.51,-269.13 607.86,-263.65"/>
</g>
<!-- Node4 -->
<g id="node4" class="node">
<title>Node4</title>
<g id="a_node4"><a xlink:href="json_8h.html" target="_top" xlink:title=" ">
<polygon fill="white" stroke="black" points="473.5,-174 473.5,-193 550.5,-193 550.5,-174 473.5,-174"/>
<text text-anchor="middle" x="512" y="-181" font-family="Helvetica,sans-Serif" font-size="10.00">ccf/ds/json.h</text>
</a>
</g>
</g>
<!-- Node1&#45;&gt;Node4 -->
<g id="edge32" class="edge">
<title>Node1&#45;&gt;Node4</title>
<path fill="none" stroke="midnightblue" d="M562.23,-358.5C541.21,-352.15 518.61,-341.12 506,-322 481.96,-285.55 495.3,-231.07 504.9,-202.88"/>
<polygon fill="midnightblue" stroke="midnightblue" points="508.31,-203.74 508.43,-193.15 501.73,-201.35 508.31,-203.74"/>
</g>
<!-- Node6 -->
<g id="node6" class="node">
<title>Node6</title>
<g id="a_node6"><a xlink:title=" ">
<polygon fill="white" stroke="#bfbfbf" points="563,-0.5 563,-19.5 607,-19.5 607,-0.5 563,-0.5"/>
<text text-anchor="middle" x="585" y="-7.5" font-family="Helvetica,sans-Serif" font-size="10.00">string</text>
</a>
</g>
</g>
<!-- Node1&#45;&gt;Node6 -->
<g id="edge56" class="edge">
<title>Node1&#45;&gt;Node6</title>
<path fill="none" stroke="midnightblue" d="M553.23,-365.04C426.64,-359.18 136,-336.47 136,-251.5 136,-251.5 136,-251.5 136,-121 136,-87.76 145.08,-74.04 173,-56 241.98,-11.42 455.19,-34.23 552.85,-19.69"/>
<polygon fill="midnightblue" stroke="midnightblue" points="553.5,-23.13 562.77,-18 552.33,-16.22 553.5,-23.13"/>
</g>
<!-- Node19 -->
<g id="node19" class="node">
<title>Node19</title>
<g id="a_node19"><a xlink:href="pem_8h.html" target="_top" xlink:title=" ">
<polygon fill="white" stroke="black" points="676,-241 676,-260 774,-260 774,-241 676,-241"/>
<text text-anchor="middle" x="725" y="-248" font-family="Helvetica,sans-Serif" font-size="10.00">ccf/crypto/pem.h</text>
</a>
</g>
</g>
<!-- Node1&#45;&gt;Node19 -->
<g id="edge23" class="edge">
<title>Node1&#45;&gt;Node19</title>
<path fill="none" stroke="midnightblue" d="M619.57,-358.32C638.63,-339 684.79,-292.24 709.22,-267.48"/>
<polygon fill="midnightblue" stroke="midnightblue" points="711.8,-269.86 716.33,-260.28 706.82,-264.94 711.8,-269.86"/>
</g>
<!-- Node23 -->
<g id="node23" class="node">
<title>Node23</title>
<g id="a_node23"><a xlink:href="openapi_8h.html" target="_top" xlink:title=" ">
<polygon fill="white" stroke="black" points="1007,-241 1007,-260 1103,-260 1103,-241 1007,-241"/>
<text text-anchor="middle" x="1055" y="-248" font-family="Helvetica,sans-Serif" font-size="10.00">ccf/ds/openapi.h</text>
</a>
</g>
</g>
<!-- Node1&#45;&gt;Node23 -->
<g id="edge33" class="edge">
<title>Node1&#45;&gt;Node23</title>
<path fill="none" stroke="midnightblue" d="M625.64,-358.36C650.12,-344.3 701.26,-316.61 748,-302 832.36,-275.62 934.31,-262.33 996.9,-256.18"/>
<polygon fill="midnightblue" stroke="midnightblue" points="997.35,-259.65 1006.97,-255.21 996.68,-252.68 997.35,-259.65"/>
</g>
<!-- Node28 -->
<g id="node28" class="node">
<title>Node28</title>
<g id="a_node28"><a xlink:href="entity__id_8h.html" target="_top" xlink:title=" ">
<polygon fill="white" stroke="black" points="351,-302.5 351,-321.5 437,-321.5 437,-302.5 351,-302.5"/>
<text text-anchor="middle" x="394" y="-309.5" font-family="Helvetica,sans-Serif" font-size="10.00">ccf/entity_id.h</text>
</a>
</g>
</g>
<!-- Node1&#45;&gt;Node28 -->
<g id="edge42" class="edge">
<title>Node1&#45;&gt;Node28</title>
<path fill="none" stroke="midnightblue" d="M576.62,-358.44C539.08,-349.1 478.87,-334.12 437.93,-323.93"/>
<polygon fill="midnightblue" stroke="midnightblue" points="438.77,-320.53 428.22,-321.52 437.08,-327.33 438.77,-320.53"/>
</g>
<!-- Node36 -->
<g id="node36" class="node">
<title>Node36</title>
<g id="a_node36"><a xlink:title=" ">
<polygon fill="white" stroke="#bfbfbf" points="757,-302.5 757,-321.5 813,-321.5 813,-302.5 757,-302.5"/>
<text text-anchor="middle" x="785" y="-309.5" font-family="Helvetica,sans-Serif" font-size="10.00">optional</text>
</a>
</g>
</g>
<!-- Node1&#45;&gt;Node36 -->
<g id="edge55" class="edge">
<title>Node1&#45;&gt;Node36</title>
<path fill="none" stroke="midnightblue" d="M638.57,-358.44C668.1,-349.28 715.12,-334.69 747.88,-324.52"/>
<polygon fill="midnightblue" stroke="midnightblue" points="749.04,-327.82 757.56,-321.52 746.97,-321.14 749.04,-327.82"/>
</g>
<!-- Node2&#45;&gt;Node3 -->
<g id="edge2" class="edge">
<title>Node2&#45;&gt;Node3</title>
<path fill="none" stroke="midnightblue" d="M572.15,-302.48C574.29,-293.99 577.64,-280.7 580.38,-269.82"/>
<polygon fill="midnightblue" stroke="midnightblue" points="583.8,-270.56 582.85,-260.01 577.02,-268.85 583.8,-270.56"/>
</g>
<!-- Node3&#45;&gt;Node4 -->
<g id="edge3" class="edge">
<title>Node3&#45;&gt;Node4</title>
<path fill="none" stroke="midnightblue" d="M575.15,-240.73C563.44,-230.31 543.68,-212.71 529.38,-199.97"/>
<polygon fill="midnightblue" stroke="midnightblue" points="531.49,-197.16 521.69,-193.13 526.83,-202.39 531.49,-197.16"/>
</g>
<!-- Node11 -->
<g id="node11" class="node">
<title>Node11</title>
<g id="a_node11"><a xlink:title=" ">
<polygon fill="white" stroke="#bfbfbf" points="896,-0.5 896,-19.5 938,-19.5 938,-0.5 896,-0.5"/>
<text text-anchor="middle" x="917" y="-7.5" font-family="Helvetica,sans-Serif" font-size="10.00">array</text>
</a>
</g>
</g>
<!-- Node3&#45;&gt;Node11 -->
<g id="edge20" class="edge">
<title>Node3&#45;&gt;Node11</title>
<path fill="none" stroke="midnightblue" d="M583.55,-240.8C581.34,-224.29 579.17,-188.25 598,-168 645.56,-116.84 684.21,-152.48 751,-132 817.84,-111.5 850.57,-127.36 898,-76 909.58,-63.46 914.14,-44.24 915.91,-29.94"/>
<polygon fill="midnightblue" stroke="midnightblue" points="919.42,-30.03 916.82,-19.76 912.44,-29.41 919.42,-30.03"/>
</g>
<!-- Node15 -->
<g id="node15" class="node">
<title>Node15</title>
<g id="a_node15"><a xlink:title=" ">
<polygon fill="white" stroke="#bfbfbf" points="368.5,-56.5 368.5,-75.5 447.5,-75.5 447.5,-56.5 368.5,-56.5"/>
<text text-anchor="middle" x="408" y="-63.5" font-family="Helvetica,sans-Serif" font-size="10.00">fmt/format.h</text>
</a>
</g>
</g>
<!-- Node3&#45;&gt;Node15 -->
<g id="edge22" class="edge">
<title>Node3&#45;&gt;Node15</title>
<path fill="none" stroke="midnightblue" d="M545.3,-240.96C519.58,-233.63 486.92,-220.71 465,-199 432.74,-167.04 417.54,-113.84 411.45,-85.73"/>
<polygon fill="midnightblue" stroke="midnightblue" points="414.83,-84.78 409.43,-75.66 407.97,-86.15 414.83,-84.78"/>
</g>
<!-- Node18 -->
<g id="node18" class="node">
<title>Node18</title>
<g id="a_node18"><a xlink:title=" ">
<polygon fill="white" stroke="#bfbfbf" points="607,-174 607,-193 647,-193 647,-174 607,-174"/>
<text text-anchor="middle" x="627" y="-181" font-family="Helvetica,sans-Serif" font-size="10.00">span</text>
</a>
</g>
</g>
<!-- Node3&#45;&gt;Node18 -->
<g id="edge21" class="edge">
<title>Node3&#45;&gt;Node18</title>
<path fill="none" stroke="midnightblue" d="M590.66,-240.73C597.09,-230.79 607.72,-214.34 615.83,-201.79"/>
<polygon fill="midnightblue" stroke="midnightblue" points="618.94,-203.43 621.43,-193.13 613.06,-199.63 618.94,-203.43"/>
</g>
<!-- Node5 -->
<g id="node5" class="node">
<title>Node5</title>
<g id="a_node5"><a xlink:href="include_2ccf_2crypto_2base64_8h.html" target="_top" xlink:title=" ">
<polygon fill="white" stroke="black" points="465,-56.5 465,-75.5 577,-75.5 577,-56.5 465,-56.5"/>
<text text-anchor="middle" x="521" y="-63.5" font-family="Helvetica,sans-Serif" font-size="10.00">ccf/crypto/base64.h</text>
</a>
</g>
</g>
<!-- Node4&#45;&gt;Node5 -->
<g id="edge4" class="edge">
<title>Node4&#45;&gt;Node5</title>
<path fill="none" stroke="midnightblue" d="M517.5,-173.99C523.42,-164.29 532.45,-147.72 536,-132 539.58,-116.13 534.72,-98.11 529.6,-85.07"/>
<polygon fill="midnightblue" stroke="midnightblue" points="532.78,-83.61 525.59,-75.83 526.35,-86.39 532.78,-83.61"/>
</g>
<!-- Node8 -->
<g id="node8" class="node">
<title>Node8</title>
<g id="a_node8"><a xlink:href="include_2ccf_2ds_2json__schema_8h.html" target="_top" xlink:title=" ">
<polygon fill="white" stroke="black" points="583.5,-112.5 583.5,-131.5 704.5,-131.5 704.5,-112.5 583.5,-112.5"/>
<text text-anchor="middle" x="644" y="-119.5" font-family="Helvetica,sans-Serif" font-size="10.00">ccf/ds/json_schema.h</text>
</a>
</g>
</g>
<!-- Node4&#45;&gt;Node8 -->
<g id="edge7" class="edge">
<title>Node4&#45;&gt;Node8</title>
<path fill="none" stroke="midnightblue" d="M530.91,-173.98C553.16,-163.95 590.31,-147.2 615.93,-135.65"/>
<polygon fill="midnightblue" stroke="midnightblue" points="617.44,-138.81 625.12,-131.51 614.57,-132.43 617.44,-138.81"/>
</g>
<!-- Node4&#45;&gt;Node15 -->
<g id="edge18" class="edge">
<title>Node4&#45;&gt;Node15</title>
<path fill="none" stroke="midnightblue" d="M502.91,-173.79C492.7,-163.9 475.76,-147.17 462,-132 447.44,-115.96 431.71,-96.8 421.01,-83.45"/>
<polygon fill="midnightblue" stroke="midnightblue" points="423.73,-81.25 414.76,-75.61 418.26,-85.62 423.73,-81.25"/>
</g>
<!-- Node17 -->
<g id="node17" class="node">
<title>Node17</title>
<g id="a_node17"><a xlink:title=" ">
<polygon fill="white" stroke="#bfbfbf" points="471,-112.5 471,-131.5 527,-131.5 527,-112.5 471,-112.5"/>
<text text-anchor="middle" x="499" y="-119.5" font-family="Helvetica,sans-Serif" font-size="10.00">sstream</text>
</a>
</g>
</g>
<!-- Node4&#45;&gt;Node17 -->
<g id="edge19" class="edge">
<title>Node4&#45;&gt;Node17</title>
<path fill="none" stroke="midnightblue" d="M510.14,-173.98C508.28,-165.49 505.38,-152.2 503,-141.32"/>
<polygon fill="midnightblue" stroke="midnightblue" points="506.41,-140.53 500.86,-131.51 499.57,-142.03 506.41,-140.53"/>
</g>
<!-- Node5&#45;&gt;Node6 -->
<g id="edge5" class="edge">
<title>Node5&#45;&gt;Node6</title>
<path fill="none" stroke="midnightblue" d="M531.28,-56.32C540.84,-48.26 555.28,-36.08 566.78,-26.37"/>
<polygon fill="midnightblue" stroke="midnightblue" points="569.14,-28.96 574.53,-19.83 564.63,-23.61 569.14,-28.96"/>
</g>
<!-- Node7 -->
<g id="node7" class="node">
<title>Node7</title>
<g id="a_node7"><a xlink:title=" ">
<polygon fill="white" stroke="#bfbfbf" points="497.5,-0.5 497.5,-19.5 544.5,-19.5 544.5,-0.5 497.5,-0.5"/>
<text text-anchor="middle" x="521" y="-7.5" font-family="Helvetica,sans-Serif" font-size="10.00">vector</text>
</a>
</g>
</g>
<!-- Node5&#45;&gt;Node7 -->
<g id="edge6" class="edge">
<title>Node5&#45;&gt;Node7</title>
<path fill="none" stroke="midnightblue" d="M521,-56.08C521,-49.01 521,-38.86 521,-29.99"/>
<polygon fill="midnightblue" stroke="midnightblue" points="524.5,-29.75 521,-19.75 517.5,-29.75 524.5,-29.75"/>
</g>
<!-- Node9 -->
<g id="node9" class="node">
<title>Node9</title>
<g id="a_node9"><a xlink:href="nonstd_8h.html" target="_top" xlink:title=" ">
<polygon fill="white" stroke="black" points="799,-56.5 799,-75.5 889,-75.5 889,-56.5 799,-56.5"/>
<text text-anchor="middle" x="844" y="-63.5" font-family="Helvetica,sans-Serif" font-size="10.00">ccf/ds/nonstd.h</text>
</a>
</g>
</g>
<!-- Node8&#45;&gt;Node9 -->
<g id="edge8" class="edge">
<title>Node8&#45;&gt;Node9</title>
<path fill="none" stroke="midnightblue" d="M675.69,-112.44C710.07,-103.16 765.08,-88.31 802.79,-78.13"/>
<polygon fill="midnightblue" stroke="midnightblue" points="803.72,-81.5 812.46,-75.52 801.89,-74.74 803.72,-81.5"/>
</g>
<!-- Node8&#45;&gt;Node15 -->
<g id="edge16" class="edge">
<title>Node8&#45;&gt;Node15</title>
<path fill="none" stroke="midnightblue" d="M606.61,-112.44C565.61,-103.06 499.75,-87.99 455.22,-77.8"/>
<polygon fill="midnightblue" stroke="midnightblue" points="455.75,-74.34 445.22,-75.52 454.19,-81.16 455.75,-74.34"/>
</g>
<!-- Node16 -->
<g id="node16" class="node">
<title>Node16</title>
<g id="a_node16"><a xlink:title=" ">
<polygon fill="white" stroke="#bfbfbf" points="595,-56.5 595,-75.5 705,-75.5 705,-56.5 595,-56.5"/>
<text text-anchor="middle" x="650" y="-63.5" font-family="Helvetica,sans-Serif" font-size="10.00">nlohmann/json.hpp</text>
</a>
</g>
</g>
<!-- Node8&#45;&gt;Node16 -->
<g id="edge17" class="edge">
<title>Node8&#45;&gt;Node16</title>
<path fill="none" stroke="midnightblue" d="M644.99,-112.08C645.79,-104.93 646.93,-94.64 647.92,-85.69"/>
<polygon fill="midnightblue" stroke="midnightblue" points="651.4,-86.08 649.03,-75.75 644.44,-85.3 651.4,-86.08"/>
</g>
<!-- Node9&#45;&gt;Node6 -->
<g id="edge12" class="edge">
<title>Node9&#45;&gt;Node6</title>
<path fill="none" stroke="midnightblue" d="M802.96,-56.44C751.38,-45.69 663.92,-27.45 617,-17.67"/>
<polygon fill="midnightblue" stroke="midnightblue" points="617.59,-14.22 607.09,-15.6 616.16,-21.07 617.59,-14.22"/>
</g>
<!-- Node9&#45;&gt;Node7 -->
<g id="edge15" class="edge">
<title>Node9&#45;&gt;Node7</title>
<path fill="none" stroke="midnightblue" d="M798.5,-59.55C743.17,-52.56 646.79,-39.25 554.76,-19.94"/>
<polygon fill="midnightblue" stroke="midnightblue" points="555.22,-16.47 544.72,-17.81 553.77,-23.31 555.22,-16.47"/>
</g>
<!-- Node10 -->
<g id="node10" class="node">
<title>Node10</title>
<g id="a_node10"><a xlink:title=" ">
<polygon fill="white" stroke="#bfbfbf" points="659,-0.5 659,-19.5 723,-19.5 723,-0.5 659,-0.5"/>
<text text-anchor="middle" x="691" y="-7.5" font-family="Helvetica,sans-Serif" font-size="10.00">algorithm</text>
</a>
</g>
</g>
<!-- Node9&#45;&gt;Node10 -->
<g id="edge9" class="edge">
<title>Node9&#45;&gt;Node10</title>
<path fill="none" stroke="midnightblue" d="M819.76,-56.44C794.13,-47.4 753.51,-33.06 724.76,-22.92"/>
<polygon fill="midnightblue" stroke="midnightblue" points="725.72,-19.54 715.13,-19.52 723.39,-26.15 725.72,-19.54"/>
</g>
<!-- Node9&#45;&gt;Node11 -->
<g id="edge10" class="edge">
<title>Node9&#45;&gt;Node11</title>
<path fill="none" stroke="midnightblue" d="M855.73,-56.32C866.84,-48.11 883.74,-35.6 896.98,-25.81"/>
<polygon fill="midnightblue" stroke="midnightblue" points="899.1,-28.59 905.06,-19.83 894.94,-22.97 899.1,-28.59"/>
</g>
<!-- Node12 -->
<g id="node12" class="node">
<title>Node12</title>
<g id="a_node12"><a xlink:title=" ">
<polygon fill="white" stroke="#bfbfbf" points="741.5,-0.5 741.5,-19.5 790.5,-19.5 790.5,-0.5 741.5,-0.5"/>
<text text-anchor="middle" x="766" y="-7.5" font-family="Helvetica,sans-Serif" font-size="10.00">cctype</text>
</a>
</g>
</g>
<!-- Node9&#45;&gt;Node12 -->
<g id="edge11" class="edge">
<title>Node9&#45;&gt;Node12</title>
<path fill="none" stroke="midnightblue" d="M831.47,-56.32C819.41,-47.98 800.97,-35.21 786.73,-25.35"/>
<polygon fill="midnightblue" stroke="midnightblue" points="788.72,-22.47 778.5,-19.65 784.73,-28.22 788.72,-22.47"/>
</g>
<!-- Node13 -->
<g id="node13" class="node">
<title>Node13</title>
<g id="a_node13"><a xlink:title=" ">
<polygon fill="white" stroke="#bfbfbf" points="956.5,-0.5 956.5,-19.5 1029.5,-19.5 1029.5,-0.5 956.5,-0.5"/>
<text text-anchor="middle" x="993" y="-7.5" font-family="Helvetica,sans-Serif" font-size="10.00">string_view</text>
</a>
</g>
</g>
<!-- Node9&#45;&gt;Node13 -->
<g id="edge13" class="edge">
<title>Node9&#45;&gt;Node13</title>
<path fill="none" stroke="midnightblue" d="M867.61,-56.44C892.46,-47.44 931.77,-33.19 959.75,-23.05"/>
<polygon fill="midnightblue" stroke="midnightblue" points="961.29,-26.21 969.5,-19.52 958.91,-19.63 961.29,-26.21"/>
</g>
<!-- Node14 -->
<g id="node14" class="node">
<title>Node14</title>
<g id="a_node14"><a xlink:title=" ">
<polygon fill="white" stroke="#bfbfbf" points="808.5,-0.5 808.5,-19.5 877.5,-19.5 877.5,-0.5 808.5,-0.5"/>
<text text-anchor="middle" x="843" y="-7.5" font-family="Helvetica,sans-Serif" font-size="10.00">type_traits</text>
</a>
</g>
</g>
<!-- Node9&#45;&gt;Node14 -->
<g id="edge14" class="edge">
<title>Node9&#45;&gt;Node14</title>
<path fill="none" stroke="midnightblue" d="M843.83,-56.08C843.7,-49.01 843.52,-38.86 843.35,-29.99"/>
<polygon fill="midnightblue" stroke="midnightblue" points="846.85,-29.68 843.16,-19.75 839.85,-29.81 846.85,-29.68"/>
</g>
<!-- Node19&#45;&gt;Node4 -->
<g id="edge24" class="edge">
<title>Node19&#45;&gt;Node4</title>
<path fill="none" stroke="midnightblue" d="M696.72,-240.87C658.89,-229.33 591.75,-208.84 549.67,-196"/>
<polygon fill="midnightblue" stroke="midnightblue" points="550.65,-192.63 540.06,-193.06 548.61,-199.33 550.65,-192.63"/>
</g>
<!-- Node19&#45;&gt;Node7 -->
<g id="edge30" class="edge">
<title>Node19&#45;&gt;Node7</title>
<path fill="none" stroke="midnightblue" d="M717.64,-240.91C710.02,-231.4 698.59,-215.24 694,-199 690.26,-185.74 690.54,-181.34 694,-168 698.59,-150.28 709.41,-149.72 714,-132 722.47,-99.3 735.1,-82.38 714,-56 670.42,-1.53 628.5,-34.46 554.87,-19.88"/>
<polygon fill="midnightblue" stroke="midnightblue" points="555.28,-16.39 544.76,-17.62 553.75,-23.22 555.28,-16.39"/>
</g>
<!-- Node19&#45;&gt;Node13 -->
<g id="edge29" class="edge">
<title>Node19&#45;&gt;Node13</title>
<path fill="none" stroke="midnightblue" d="M774.18,-249.14C818.02,-246.25 881.36,-235.39 922,-199 972.88,-153.44 987.46,-67.63 991.51,-29.77"/>
<polygon fill="midnightblue" stroke="midnightblue" points="995.01,-29.94 992.45,-19.65 988.04,-29.28 995.01,-29.94"/>
</g>
<!-- Node19&#45;&gt;Node18 -->
<g id="edge28" class="edge">
<title>Node19&#45;&gt;Node18</title>
<path fill="none" stroke="midnightblue" d="M711.78,-240.73C695.55,-229.96 667.78,-211.55 648.47,-198.74"/>
<polygon fill="midnightblue" stroke="midnightblue" points="650.28,-195.74 640.01,-193.13 646.41,-201.57 650.28,-195.74"/>
</g>
<!-- Node20 -->
<g id="node20" class="node">
<title>Node20</title>
<g id="a_node20"><a xlink:title=" ">
<polygon fill="white" stroke="#bfbfbf" points="703,-174 703,-193 753,-193 753,-174 703,-174"/>
<text text-anchor="middle" x="728" y="-181" font-family="Helvetica,sans-Serif" font-size="10.00">cstring</text>
</a>
</g>
</g>
<!-- Node19&#45;&gt;Node20 -->
<g id="edge25" class="edge">
<title>Node19&#45;&gt;Node20</title>
<path fill="none" stroke="midnightblue" d="M725.4,-240.73C725.85,-231.18 726.56,-215.62 727.13,-203.28"/>
<polygon fill="midnightblue" stroke="midnightblue" points="730.64,-203.28 727.6,-193.13 723.64,-202.96 730.64,-203.28"/>
</g>
<!-- Node21 -->
<g id="node21" class="node">
<title>Node21</title>
<g id="a_node21"><a xlink:title=" ">
<polygon fill="white" stroke="#bfbfbf" points="771.5,-174 771.5,-193 836.5,-193 836.5,-174 771.5,-174"/>
<text text-anchor="middle" x="804" y="-181" font-family="Helvetica,sans-Serif" font-size="10.00">exception</text>
</a>
</g>
</g>
<!-- Node19&#45;&gt;Node21 -->
<g id="edge26" class="edge">
<title>Node19&#45;&gt;Node21</title>
<path fill="none" stroke="midnightblue" d="M735.65,-240.73C748.45,-230.21 770.12,-212.38 785.63,-199.62"/>
<polygon fill="midnightblue" stroke="midnightblue" points="788.02,-202.18 793.51,-193.13 783.57,-196.78 788.02,-202.18"/>
</g>
<!-- Node22 -->
<g id="node22" class="node">
<title>Node22</title>
<g id="a_node22"><a xlink:title=" ">
<polygon fill="white" stroke="#bfbfbf" points="855,-174 855,-193 913,-193 913,-174 855,-174"/>
<text text-anchor="middle" x="884" y="-181" font-family="Helvetica,sans-Serif" font-size="10.00">memory</text>
</a>
</g>
</g>
<!-- Node19&#45;&gt;Node22 -->
<g id="edge27" class="edge">
<title>Node19&#45;&gt;Node22</title>
<path fill="none" stroke="midnightblue" d="M746.11,-240.87C773.63,-229.62 821.95,-209.87 853.46,-196.99"/>
<polygon fill="midnightblue" stroke="midnightblue" points="855.12,-200.09 863.05,-193.06 852.47,-193.61 855.12,-200.09"/>
</g>
<!-- Node23&#45;&gt;Node4 -->
<g id="edge34" class="edge">
<title>Node23&#45;&gt;Node4</title>
<path fill="none" stroke="midnightblue" d="M1006.86,-245.09C923.42,-237.24 746.63,-219.72 598,-199 585.93,-197.32 572.95,-195.26 560.83,-193.23"/>
<polygon fill="midnightblue" stroke="midnightblue" points="561.33,-189.76 550.89,-191.54 560.16,-196.67 561.33,-189.76"/>
</g>
<!-- Node23&#45;&gt;Node6 -->
<g id="edge41" class="edge">
<title>Node23&#45;&gt;Node6</title>
<path fill="none" stroke="midnightblue" d="M1046.89,-240.77C1031.74,-224.83 997.64,-190.57 964,-168 869.25,-104.43 839.24,-97.61 733,-56 693.97,-40.71 647.51,-27.34 617.19,-19.23"/>
<polygon fill="midnightblue" stroke="midnightblue" points="617.74,-15.75 607.18,-16.58 615.96,-22.52 617.74,-15.75"/>
</g>
<!-- Node23&#45;&gt;Node9 -->
<g id="edge35" class="edge">
<title>Node23&#45;&gt;Node9</title>
<path fill="none" stroke="midnightblue" d="M1055.5,-240.98C1056.41,-217.01 1055.55,-148.39 1019,-112 987.68,-80.81 937.82,-70.32 899.31,-67.2"/>
<polygon fill="midnightblue" stroke="midnightblue" points="899.5,-63.7 889.29,-66.53 899.03,-70.69 899.5,-63.7"/>
</g>
<!-- Node23&#45;&gt;Node16 -->
<g id="edge39" class="edge">
<title>Node23&#45;&gt;Node16</title>
<path fill="none" stroke="midnightblue" d="M1042.63,-240.78C1019.66,-224.86 968.51,-190.62 922,-168 841.57,-128.88 741.86,-95.44 688.31,-78.62"/>
<polygon fill="midnightblue" stroke="midnightblue" points="689.14,-75.21 678.55,-75.58 687.05,-81.89 689.14,-75.21"/>
</g>
<!-- Node24 -->
<g id="node24" class="node">
<title>Node24</title>
<g id="a_node24"><a xlink:href="http__consts_8h.html" target="_top" xlink:title=" ">
<polygon fill="white" stroke="black" points="1145.5,-174 1145.5,-193 1244.5,-193 1244.5,-174 1145.5,-174"/>
<text text-anchor="middle" x="1195" y="-181" font-family="Helvetica,sans-Serif" font-size="10.00">ccf/http_consts.h</text>
</a>
</g>
</g>
<!-- Node23&#45;&gt;Node24 -->
<g id="edge36" class="edge">
<title>Node23&#45;&gt;Node24</title>
<path fill="none" stroke="midnightblue" d="M1073.59,-240.87C1097.54,-229.75 1139.39,-210.32 1167.15,-197.43"/>
<polygon fill="midnightblue" stroke="midnightblue" points="1168.74,-200.55 1176.33,-193.17 1165.79,-194.2 1168.74,-200.55"/>
</g>
<!-- Node25 -->
<g id="node25" class="node">
<title>Node25</title>
<g id="a_node25"><a xlink:href="http__status_8h.html" target="_top" xlink:title=" ">
<polygon fill="white" stroke="black" points="1263,-174 1263,-193 1361,-193 1361,-174 1263,-174"/>
<text text-anchor="middle" x="1312" y="-181" font-family="Helvetica,sans-Serif" font-size="10.00">ccf/http_status.h</text>
</a>
</g>
</g>
<!-- Node23&#45;&gt;Node25 -->
<g id="edge37" class="edge">
<title>Node23&#45;&gt;Node25</title>
<path fill="none" stroke="midnightblue" d="M1088.86,-240.94C1134.99,-229.27 1217.63,-208.37 1268.36,-195.54"/>
<polygon fill="midnightblue" stroke="midnightblue" points="1269.23,-198.93 1278.06,-193.08 1267.51,-192.14 1269.23,-198.93"/>
</g>
<!-- Node26 -->
<g id="node26" class="node">
<title>Node26</title>
<g id="a_node26"><a xlink:title=" ">
<polygon fill="white" stroke="#bfbfbf" points="1379,-174 1379,-193 1459,-193 1459,-174 1379,-174"/>
<text text-anchor="middle" x="1419" y="-181" font-family="Helvetica,sans-Serif" font-size="10.00">llhttp/llhttp.h</text>
</a>
</g>
</g>
<!-- Node23&#45;&gt;Node26 -->
<g id="edge38" class="edge">
<title>Node23&#45;&gt;Node26</title>
<path fill="none" stroke="midnightblue" d="M1103.13,-243.74C1165.24,-235.87 1276.43,-220.25 1370,-199 1374.14,-198.06 1378.44,-196.97 1382.7,-195.81"/>
<polygon fill="midnightblue" stroke="midnightblue" points="1383.8,-199.13 1392.46,-193.03 1381.89,-192.4 1383.8,-199.13"/>
</g>
<!-- Node27 -->
<g id="node27" class="node">
<title>Node27</title>
<g id="a_node27"><a xlink:title=" ">
<polygon fill="white" stroke="#bfbfbf" points="1083,-174 1083,-193 1127,-193 1127,-174 1083,-174"/>
<text text-anchor="middle" x="1105" y="-181" font-family="Helvetica,sans-Serif" font-size="10.00">regex</text>
</a>
</g>
</g>
<!-- Node23&#45;&gt;Node27 -->
<g id="edge40" class="edge">
<title>Node23&#45;&gt;Node27</title>
<path fill="none" stroke="midnightblue" d="M1061.74,-240.73C1069.54,-230.6 1082.55,-213.69 1092.26,-201.06"/>
<polygon fill="midnightblue" stroke="midnightblue" points="1095.04,-203.19 1098.36,-193.13 1089.49,-198.92 1095.04,-203.19"/>
</g>
<!-- Node28&#45;&gt;Node4 -->
<g id="edge43" class="edge">
<title>Node28&#45;&gt;Node4</title>
<path fill="none" stroke="midnightblue" d="M402.11,-302.31C421.65,-281.36 471.56,-227.85 496.84,-200.75"/>
<polygon fill="midnightblue" stroke="midnightblue" points="499.57,-202.96 503.83,-193.26 494.45,-198.18 499.57,-202.96"/>
</g>
<!-- Node28&#45;&gt;Node6 -->
<g id="edge54" class="edge">
<title>Node28&#45;&gt;Node6</title>
<path fill="none" stroke="midnightblue" d="M350.8,-305.72C286.73,-295.21 174,-265.24 174,-184.5 174,-184.5 174,-184.5 174,-121 174,-91.02 169.07,-75.31 192,-56 251.6,-5.81 458.88,-33.17 552.71,-19.68"/>
<polygon fill="midnightblue" stroke="midnightblue" points="553.49,-23.1 562.77,-17.98 552.33,-16.19 553.49,-23.1"/>
</g>
<!-- Node29 -->
<g id="node29" class="node">
<title>Node29</title>
<g id="a_node29"><a xlink:href="blit__serialiser_8h.html" target="_top" xlink:title=" ">
<polygon fill="white" stroke="black" points="321.5,-235.5 321.5,-265.5 420.5,-265.5 420.5,-235.5 321.5,-235.5"/>
<text text-anchor="start" x="329.5" y="-253.5" font-family="Helvetica,sans-Serif" font-size="10.00">ccf/kv/serialisers</text>
<text text-anchor="middle" x="371" y="-242.5" font-family="Helvetica,sans-Serif" font-size="10.00">/blit_serialiser.h</text>
</a>
</g>
</g>
<!-- Node28&#45;&gt;Node29 -->
<g id="edge44" class="edge">
<title>Node28&#45;&gt;Node29</title>
<path fill="none" stroke="midnightblue" d="M390.7,-302.48C387.94,-295.32 383.85,-284.75 380.12,-275.08"/>
<polygon fill="midnightblue" stroke="midnightblue" points="383.29,-273.59 376.42,-265.52 376.76,-276.11 383.29,-273.59"/>
</g>
<!-- Node29&#45;&gt;Node9 -->
<g id="edge45" class="edge">
<title>Node29&#45;&gt;Node9</title>
<path fill="none" stroke="midnightblue" d="M382.67,-235.23C398.96,-216.4 430.43,-183.81 465,-168 566.69,-121.49 607.3,-165.43 714,-132 753.93,-119.49 796.67,-95.92 821.83,-80.86"/>
<polygon fill="midnightblue" stroke="midnightblue" points="823.85,-83.73 830.57,-75.55 820.21,-77.75 823.85,-83.73"/>
</g>
<!-- Node30 -->
<g id="node30" class="node">
<title>Node30</title>
<g id="a_node30"><a xlink:href="serialised__entry_8h.html" target="_top" xlink:title=" ">
<polygon fill="white" stroke="black" points="239.5,-168.5 239.5,-198.5 344.5,-198.5 344.5,-168.5 239.5,-168.5"/>
<text text-anchor="start" x="247.5" y="-186.5" font-family="Helvetica,sans-Serif" font-size="10.00">ccf/kv/serialisers</text>
<text text-anchor="middle" x="292" y="-175.5" font-family="Helvetica,sans-Serif" font-size="10.00">/serialised_entry.h</text>
</a>
</g>
</g>
<!-- Node29&#45;&gt;Node30 -->
<g id="edge46" class="edge">
<title>Node29&#45;&gt;Node30</title>
<path fill="none" stroke="midnightblue" d="M353.86,-235.4C343.09,-226.54 329.02,-214.96 317.02,-205.09"/>
<polygon fill="midnightblue" stroke="midnightblue" points="319.05,-202.23 309.11,-198.58 314.61,-207.63 319.05,-202.23"/>
</g>
<!-- Node31 -->
<g id="node31" class="node">
<title>Node31</title>
<g id="a_node31"><a xlink:href="byte__vector_8h.html" target="_top" xlink:title=" ">
<polygon fill="white" stroke="black" points="234,-112.5 234,-131.5 334,-131.5 334,-112.5 234,-112.5"/>
<text text-anchor="middle" x="284" y="-119.5" font-family="Helvetica,sans-Serif" font-size="10.00">ccf/byte_vector.h</text>
</a>
</g>
</g>
<!-- Node30&#45;&gt;Node31 -->
<g id="edge47" class="edge">
<title>Node30&#45;&gt;Node31</title>
<path fill="none" stroke="midnightblue" d="M290.1,-168.4C289.03,-160.38 287.66,-150.23 286.5,-141.57"/>
<polygon fill="midnightblue" stroke="midnightblue" points="289.97,-141.1 285.16,-131.66 283.03,-142.04 289.97,-141.1"/>
</g>
<!-- Node31&#45;&gt;Node15 -->
<g id="edge52" class="edge">
<title>Node31&#45;&gt;Node15</title>
<path fill="none" stroke="midnightblue" d="M303.65,-112.44C323.96,-103.6 355.9,-89.69 379.1,-79.59"/>
<polygon fill="midnightblue" stroke="midnightblue" points="380.67,-82.72 388.44,-75.52 377.88,-76.3 380.67,-82.72"/>
</g>
<!-- Node32 -->
<g id="node32" class="node">
<title>Node32</title>
<g id="a_node32"><a xlink:href="siphash_8h.html" target="_top" xlink:title=" ">
<polygon fill="white" stroke="black" points="12.5,-56.5 12.5,-75.5 107.5,-75.5 107.5,-56.5 12.5,-56.5"/>
<text text-anchor="middle" x="60" y="-63.5" font-family="Helvetica,sans-Serif" font-size="10.00">ccf/ds/siphash.h</text>
</a>
</g>
</g>
<!-- Node31&#45;&gt;Node32 -->
<g id="edge48" class="edge">
<title>Node31&#45;&gt;Node32</title>
<path fill="none" stroke="midnightblue" d="M248.51,-112.44C209.68,-103.08 147.34,-88.06 105.08,-77.87"/>
<polygon fill="midnightblue" stroke="midnightblue" points="105.87,-74.46 95.33,-75.52 104.23,-81.26 105.87,-74.46"/>
</g>
<!-- Node35 -->
<g id="node35" class="node">
<title>Node35</title>
<g id="a_node35"><a xlink:title=" ">
<polygon fill="white" stroke="#bfbfbf" points="201.5,-56.5 201.5,-75.5 350.5,-75.5 350.5,-56.5 201.5,-56.5"/>
<text text-anchor="middle" x="276" y="-63.5" font-family="Helvetica,sans-Serif" font-size="10.00">small_vector/SmallVector.h</text>
</a>
</g>
</g>
<!-- Node31&#45;&gt;Node35 -->
<g id="edge53" class="edge">
<title>Node31&#45;&gt;Node35</title>
<path fill="none" stroke="midnightblue" d="M282.68,-112.08C281.62,-104.93 280.09,-94.64 278.77,-85.69"/>
<polygon fill="midnightblue" stroke="midnightblue" points="282.22,-85.13 277.3,-75.75 275.3,-86.16 282.22,-85.13"/>
</g>
<!-- Node32&#45;&gt;Node7 -->
<g id="edge51" class="edge">
<title>Node32&#45;&gt;Node7</title>
<path fill="none" stroke="midnightblue" d="M107.71,-57.92C112.53,-57.25 117.36,-56.6 122,-56 256.86,-38.61 417.86,-21.59 486.87,-14.48"/>
<polygon fill="midnightblue" stroke="midnightblue" points="487.54,-17.93 497.13,-13.42 486.83,-10.97 487.54,-17.93"/>
</g>
<!-- Node33 -->
<g id="node33" class="node">
<title>Node33</title>
<g id="a_node33"><a xlink:title=" ">
<polygon fill="white" stroke="#bfbfbf" points="68.5,-0.5 68.5,-19.5 121.5,-19.5 121.5,-0.5 68.5,-0.5"/>
<text text-anchor="middle" x="95" y="-7.5" font-family="Helvetica,sans-Serif" font-size="10.00">cstddef</text>
</a>
</g>
</g>
<!-- Node32&#45;&gt;Node33 -->
<g id="edge49" class="edge">
<title>Node32&#45;&gt;Node33</title>
<path fill="none" stroke="midnightblue" d="M65.78,-56.08C70.67,-48.53 77.83,-37.49 83.83,-28.23"/>
<polygon fill="midnightblue" stroke="midnightblue" points="86.83,-30.05 89.33,-19.75 80.95,-26.24 86.83,-30.05"/>
</g>
<!-- Node34 -->
<g id="node34" class="node">
<title>Node34</title>
<g id="a_node34"><a xlink:title=" ">
<polygon fill="white" stroke="#bfbfbf" points="0,-0.5 0,-19.5 50,-19.5 50,-0.5 0,-0.5"/>
<text text-anchor="middle" x="25" y="-7.5" font-family="Helvetica,sans-Serif" font-size="10.00">cstdint</text>
</a>
</g>
</g>
<!-- Node32&#45;&gt;Node34 -->
<g id="edge50" class="edge">
<title>Node32&#45;&gt;Node34</title>
<path fill="none" stroke="midnightblue" d="M54.22,-56.08C49.33,-48.53 42.17,-37.49 36.17,-28.23"/>
<polygon fill="midnightblue" stroke="midnightblue" points="39.05,-26.24 30.67,-19.75 33.17,-30.05 39.05,-26.24"/>
</g>
</g>
</svg>
