<?xml version="1.0" encoding="UTF-8" standalone="no"?>
<!DOCTYPE svg PUBLIC "-//W3C//DTD SVG 1.1//EN"
 "http://www.w3.org/Graphics/SVG/1.1/DTD/svg11.dtd">
<!-- Generated by graphviz version 2.43.0 (0)
 -->
<!-- Title: Graphical Class Hierarchy Pages: 1 -->
<svg width="324pt" height="78pt"
 viewBox="0.00 0.00 324.00 77.50" xmlns="http://www.w3.org/2000/svg" xmlns:xlink="http://www.w3.org/1999/xlink">
<g id="graph0" class="graph" transform="scale(1 1) rotate(0) translate(4 73.5)">
<title>Graphical Class Hierarchy</title>
<polygon fill="white" stroke="transparent" points="-4,4 -4,-73.5 320,-73.5 320,4 -4,4"/>
<!-- Node0 -->
<g id="node1" class="node">
<title>Node0</title>
<g id="a_node1"><a xlink:href="classasynchost_1_1SocketBehaviour.html" target="_top" xlink:title=" ">
<polygon fill="white" stroke="black" points="0,-22.5 0,-52.5 154,-52.5 154,-22.5 0,-22.5"/>
<text text-anchor="start" x="8" y="-40.5" font-family="Helvetica,sans-Serif" font-size="10.00">asynchost::SocketBehaviour</text>
<text text-anchor="middle" x="77" y="-29.5" font-family="Helvetica,sans-Serif" font-size="10.00">&lt; asynchost::TCP &gt;</text>
</a>
</g>
</g>
<!-- Node1 -->
<g id="node2" class="node">
<title>Node1</title>
<g id="a_node2"><a xlink:href="classACMEServerBehaviour.html" target="_top" xlink:title=" ">
<polygon fill="white" stroke="black" points="190,-50 190,-69 316,-69 316,-50 190,-50"/>
<text text-anchor="middle" x="253" y="-57" font-family="Helvetica,sans-Serif" font-size="10.00">ACMEServerBehaviour</text>
</a>
</g>
</g>
<!-- Node0&#45;&gt;Node1 -->
<g id="edge1" class="edge">
<title>Node0&#45;&gt;Node1</title>
<path fill="none" stroke="midnightblue" d="M164.22,-48.4C172.89,-49.5 181.57,-50.6 189.92,-51.65"/>
<polygon fill="midnightblue" stroke="midnightblue" points="164.43,-44.9 154.07,-47.12 163.55,-51.84 164.43,-44.9"/>
</g>
<!-- Node2 -->
<g id="node3" class="node">
<title>Node2</title>
<g id="a_node3"><a xlink:href="classACMEServerBehaviour_1_1ClientBehaviour.html" target="_top" xlink:title=" ">
<polygon fill="white" stroke="black" points="190,-0.5 190,-30.5 316,-30.5 316,-0.5 190,-0.5"/>
<text text-anchor="start" x="198" y="-18.5" font-family="Helvetica,sans-Serif" font-size="10.00">ACMEServerBehaviour</text>
<text text-anchor="middle" x="253" y="-7.5" font-family="Helvetica,sans-Serif" font-size="10.00">::ClientBehaviour</text>
</a>
</g>
</g>
<!-- Node0&#45;&gt;Node2 -->
<g id="edge2" class="edge">
<title>Node0&#45;&gt;Node2</title>
<path fill="none" stroke="midnightblue" d="M164.22,-26.6C172.89,-25.5 181.57,-24.4 189.92,-23.35"/>
<polygon fill="midnightblue" stroke="midnightblue" points="163.55,-23.16 154.07,-27.88 164.43,-30.1 163.55,-23.16"/>
</g>
</g>
</svg>
