<?xml version="1.0" encoding="UTF-8" standalone="no"?>
<!DOCTYPE svg PUBLIC "-//W3C//DTD SVG 1.1//EN"
 "http://www.w3.org/Graphics/SVG/1.1/DTD/svg11.dtd">
<!-- Generated by graphviz version 2.43.0 (0)
 -->
<!-- Title: src/enclave/interface.h Pages: 1 -->
<svg width="988pt" height="576pt"
 viewBox="0.00 0.00 987.50 576.00" xmlns="http://www.w3.org/2000/svg" xmlns:xlink="http://www.w3.org/1999/xlink">
<g id="graph0" class="graph" transform="scale(1 1) rotate(0) translate(4 572)">
<title>src/enclave/interface.h</title>
<polygon fill="white" stroke="transparent" points="-4,4 -4,-572 983.5,-572 983.5,4 -4,4"/>
<!-- Node1 -->
<g id="node1" class="node">
<title>Node1</title>
<g id="a_node1"><a xlink:title=" ">
<polygon fill="#bfbfbf" stroke="black" points="349,-548.5 349,-567.5 477,-567.5 477,-548.5 349,-548.5"/>
<text text-anchor="middle" x="413" y="-555.5" font-family="Helvetica,sans-Serif" font-size="10.00">src/enclave/interface.h</text>
</a>
</g>
</g>
<!-- Node2 -->
<g id="node2" class="node">
<title>Node2</title>
<g id="a_node2"><a xlink:href="enclave_2enclave_8h.html" target="_top" xlink:title=" ">
<polygon fill="white" stroke="black" points="385,-56.5 385,-75.5 507,-75.5 507,-56.5 385,-56.5"/>
<text text-anchor="middle" x="446" y="-63.5" font-family="Helvetica,sans-Serif" font-size="10.00">src/enclave/enclave.h</text>
</a>
</g>
</g>
<!-- Node1&#45;&gt;Node2 -->
<g id="edge1" class="edge">
<title>Node1&#45;&gt;Node2</title>
<path fill="none" stroke="midnightblue" d="M338.49,-552.47C254.78,-546.41 124.87,-533.82 81,-512 35.28,-489.25 0,-481.57 0,-430.5 0,-430.5 0,-430.5 0,-177 0,-98.64 262.77,-75.77 384.92,-69.37"/>
<polygon fill="midnightblue" stroke="midnightblue" points="338.49,-555.98 348.72,-553.19 338.99,-549 338.49,-555.98"/>
</g>
<!-- Node4 -->
<g id="node4" class="node">
<title>Node4</title>
<g id="a_node4"><a xlink:href="acme__challenge__server_8h.html" target="_top" xlink:title=" ">
<polygon fill="white" stroke="black" points="505.5,-414.5 505.5,-444.5 642.5,-444.5 642.5,-414.5 505.5,-414.5"/>
<text text-anchor="start" x="513.5" y="-432.5" font-family="Helvetica,sans-Serif" font-size="10.00">src/host/acme_challenge</text>
<text text-anchor="middle" x="574" y="-421.5" font-family="Helvetica,sans-Serif" font-size="10.00">_server.h</text>
</a>
</g>
</g>
<!-- Node1&#45;&gt;Node4 -->
<g id="edge3" class="edge">
<title>Node1&#45;&gt;Node4</title>
<path fill="none" stroke="midnightblue" d="M481.35,-546.61C520.5,-539.11 564.16,-527.56 576,-512 590.83,-492.52 584.7,-462.15 579.17,-444.5"/>
<polygon fill="midnightblue" stroke="midnightblue" points="480.71,-543.17 471.52,-548.43 481.99,-550.05 480.71,-543.17"/>
</g>
<!-- Node6 -->
<g id="node6" class="node">
<title>Node6</title>
<g id="a_node6"><a xlink:href="host_2enclave_8h.html" target="_top" xlink:title=" ">
<polygon fill="white" stroke="black" points="689.5,-487 689.5,-506 794.5,-506 794.5,-487 689.5,-487"/>
<text text-anchor="middle" x="742" y="-494" font-family="Helvetica,sans-Serif" font-size="10.00">src/host/enclave.h</text>
</a>
</g>
</g>
<!-- Node1&#45;&gt;Node6 -->
<g id="edge5" class="edge">
<title>Node1&#45;&gt;Node6</title>
<path fill="none" stroke="midnightblue" d="M470.02,-546.69C533.71,-535.17 635.62,-516.74 694.95,-506.01"/>
<polygon fill="midnightblue" stroke="midnightblue" points="469.36,-543.25 460.14,-548.48 470.6,-550.14 469.36,-543.25"/>
</g>
<!-- Node9 -->
<g id="node9" class="node">
<title>Node9</title>
<g id="a_node9"><a xlink:href="handle__ring__buffer_8h.html" target="_top" xlink:title=" ">
<polygon fill="white" stroke="black" points="864.5,-481.5 864.5,-511.5 979.5,-511.5 979.5,-481.5 864.5,-481.5"/>
<text text-anchor="start" x="872.5" y="-499.5" font-family="Helvetica,sans-Serif" font-size="10.00">src/host/handle_ring</text>
<text text-anchor="middle" x="922" y="-488.5" font-family="Helvetica,sans-Serif" font-size="10.00">_buffer.h</text>
</a>
</g>
</g>
<!-- Node1&#45;&gt;Node9 -->
<g id="edge11" class="edge">
<title>Node1&#45;&gt;Node9</title>
<path fill="none" stroke="midnightblue" d="M487.31,-548.62C565.98,-539.71 693.77,-525.12 804,-512 823.68,-509.66 845.19,-507.03 864.39,-504.67"/>
<polygon fill="midnightblue" stroke="midnightblue" points="486.56,-545.18 477.02,-549.78 487.35,-552.14 486.56,-545.18"/>
</g>
<!-- Node10 -->
<g id="node10" class="node">
<title>Node10</title>
<g id="a_node10"><a xlink:href="process__launcher_8h.html" target="_top" xlink:title=" ">
<polygon fill="white" stroke="black" points="415.5,-487 415.5,-506 566.5,-506 566.5,-487 415.5,-487"/>
<text text-anchor="middle" x="491" y="-494" font-family="Helvetica,sans-Serif" font-size="10.00">src/host/process_launcher.h</text>
</a>
</g>
</g>
<!-- Node1&#45;&gt;Node10 -->
<g id="edge13" class="edge">
<title>Node1&#45;&gt;Node10</title>
<path fill="none" stroke="midnightblue" d="M432.28,-542.29C447.24,-530.88 467.46,-515.46 479.85,-506.01"/>
<polygon fill="midnightblue" stroke="midnightblue" points="430,-539.63 424.18,-548.48 434.25,-545.19 430,-539.63"/>
</g>
<!-- Node11 -->
<g id="node11" class="node">
<title>Node11</title>
<g id="a_node11"><a xlink:href="ccf__acme__client_8h.html" target="_top" xlink:title=" ">
<polygon fill="white" stroke="black" points="58.5,-230 58.5,-249 207.5,-249 207.5,-230 58.5,-230"/>
<text text-anchor="middle" x="133" y="-237" font-family="Helvetica,sans-Serif" font-size="10.00">src/node/ccf_acme_client.h</text>
</a>
</g>
</g>
<!-- Node1&#45;&gt;Node11 -->
<g id="edge15" class="edge">
<title>Node1&#45;&gt;Node11</title>
<path fill="none" stroke="midnightblue" d="M338.98,-547.35C229.7,-531.01 38,-493.38 38,-430.5 38,-430.5 38,-430.5 38,-367 38,-332.18 36.92,-319.44 57,-291 70.79,-271.46 94.76,-257.4 112.09,-249.15"/>
<polygon fill="midnightblue" stroke="midnightblue" points="338.56,-550.83 348.96,-548.82 339.58,-543.9 338.56,-550.83"/>
</g>
<!-- Node14 -->
<g id="node14" class="node">
<title>Node14</title>
<g id="a_node14"><a xlink:href="node__call__types_8h.html" target="_top" xlink:title=" ">
<polygon fill="white" stroke="black" points="272.5,-481.5 272.5,-511.5 397.5,-511.5 397.5,-481.5 272.5,-481.5"/>
<text text-anchor="start" x="280.5" y="-499.5" font-family="Helvetica,sans-Serif" font-size="10.00">src/node/rpc/node_call</text>
<text text-anchor="middle" x="335" y="-488.5" font-family="Helvetica,sans-Serif" font-size="10.00">_types.h</text>
</a>
</g>
</g>
<!-- Node1&#45;&gt;Node14 -->
<g id="edge20" class="edge">
<title>Node1&#45;&gt;Node14</title>
<path fill="none" stroke="midnightblue" d="M393.59,-542.2C381.29,-532.81 365.48,-520.75 353.38,-511.52"/>
<polygon fill="midnightblue" stroke="midnightblue" points="391.75,-545.19 401.82,-548.48 396,-539.63 391.75,-545.19"/>
</g>
<!-- Node21 -->
<g id="node21" class="node">
<title>Node21</title>
<g id="a_node21"><a xlink:href="serialization_8h.html" target="_top" xlink:title=" ">
<polygon fill="white" stroke="black" points="293,-358.5 293,-377.5 441,-377.5 441,-358.5 293,-358.5"/>
<text text-anchor="middle" x="367" y="-365.5" font-family="Helvetica,sans-Serif" font-size="10.00">src/node/rpc/serialization.h</text>
</a>
</g>
</g>
<!-- Node1&#45;&gt;Node21 -->
<g id="edge39" class="edge">
<title>Node1&#45;&gt;Node21</title>
<path fill="none" stroke="midnightblue" d="M338.68,-553C310.34,-547.4 280.64,-535.71 263,-512 243.42,-485.69 283.26,-420.69 289,-414 303.55,-397.03 326.19,-384.98 343.33,-377.64"/>
<polygon fill="midnightblue" stroke="midnightblue" points="338.17,-556.46 348.62,-554.73 339.37,-549.57 338.17,-556.46"/>
</g>
<!-- Node3 -->
<g id="node3" class="node">
<title>Node3</title>
<g id="a_node3"><a xlink:href="enclave_2main_8cpp.html" target="_top" xlink:title=" ">
<polygon fill="white" stroke="black" points="386,-0.5 386,-19.5 506,-19.5 506,-0.5 386,-0.5"/>
<text text-anchor="middle" x="446" y="-7.5" font-family="Helvetica,sans-Serif" font-size="10.00">src/enclave/main.cpp</text>
</a>
</g>
</g>
<!-- Node2&#45;&gt;Node3 -->
<g id="edge2" class="edge">
<title>Node2&#45;&gt;Node3</title>
<path fill="none" stroke="midnightblue" d="M446,-45.8C446,-36.91 446,-26.78 446,-19.75"/>
<polygon fill="midnightblue" stroke="midnightblue" points="442.5,-46.08 446,-56.08 449.5,-46.08 442.5,-46.08"/>
</g>
<!-- Node5 -->
<g id="node5" class="node">
<title>Node5</title>
<g id="a_node5"><a xlink:href="host_2main_8cpp.html" target="_top" xlink:title=" ">
<polygon fill="white" stroke="black" points="724.5,-358.5 724.5,-377.5 827.5,-377.5 827.5,-358.5 724.5,-358.5"/>
<text text-anchor="middle" x="776" y="-365.5" font-family="Helvetica,sans-Serif" font-size="10.00">src/host/main.cpp</text>
</a>
</g>
</g>
<!-- Node4&#45;&gt;Node5 -->
<g id="edge4" class="edge">
<title>Node4&#45;&gt;Node5</title>
<path fill="none" stroke="midnightblue" d="M631.48,-411.57C669.26,-400.44 717.09,-386.35 747.12,-377.51"/>
<polygon fill="midnightblue" stroke="midnightblue" points="630.22,-408.29 621.62,-414.47 632.2,-415.01 630.22,-408.29"/>
</g>
<!-- Node6&#45;&gt;Node5 -->
<g id="edge6" class="edge">
<title>Node6&#45;&gt;Node5</title>
<path fill="none" stroke="midnightblue" d="M804.95,-491.08C836.52,-485.31 872.18,-472.59 892,-445 900.04,-433.81 899.78,-425.37 892,-414 877.48,-392.79 851.39,-381.57 827.63,-375.65"/>
<polygon fill="midnightblue" stroke="midnightblue" points="804.17,-487.66 794.86,-492.73 805.3,-494.57 804.17,-487.66"/>
</g>
<!-- Node7 -->
<g id="node7" class="node">
<title>Node7</title>
<g id="a_node7"><a xlink:href="sig__term_8h.html" target="_top" xlink:title=" ">
<polygon fill="white" stroke="black" points="661,-420 661,-439 771,-439 771,-420 661,-420"/>
<text text-anchor="middle" x="716" y="-427" font-family="Helvetica,sans-Serif" font-size="10.00">src/host/sig_term.h</text>
</a>
</g>
</g>
<!-- Node6&#45;&gt;Node7 -->
<g id="edge7" class="edge">
<title>Node6&#45;&gt;Node7</title>
<path fill="none" stroke="midnightblue" d="M734.72,-477.29C729.72,-464.81 723.33,-448.81 719.45,-439.13"/>
<polygon fill="midnightblue" stroke="midnightblue" points="731.53,-478.75 738.49,-486.73 738.03,-476.15 731.53,-478.75"/>
</g>
<!-- Node8 -->
<g id="node8" class="node">
<title>Node8</title>
<g id="a_node8"><a xlink:href="ticker_8h.html" target="_top" xlink:title=" ">
<polygon fill="white" stroke="black" points="789.5,-420 789.5,-439 882.5,-439 882.5,-420 789.5,-420"/>
<text text-anchor="middle" x="836" y="-427" font-family="Helvetica,sans-Serif" font-size="10.00">src/host/ticker.h</text>
</a>
</g>
</g>
<!-- Node6&#45;&gt;Node8 -->
<g id="edge9" class="edge">
<title>Node6&#45;&gt;Node8</title>
<path fill="none" stroke="midnightblue" d="M763.09,-480.92C781.67,-468.07 808.12,-449.78 823.52,-439.13"/>
<polygon fill="midnightblue" stroke="midnightblue" points="760.91,-478.17 754.68,-486.73 764.89,-483.93 760.91,-478.17"/>
</g>
<!-- Node7&#45;&gt;Node5 -->
<g id="edge8" class="edge">
<title>Node7&#45;&gt;Node5</title>
<path fill="none" stroke="midnightblue" d="M731.81,-412.82C743.21,-401.52 758.16,-386.69 767.42,-377.51"/>
<polygon fill="midnightblue" stroke="midnightblue" points="729.23,-410.45 724.6,-419.98 734.16,-415.42 729.23,-410.45"/>
</g>
<!-- Node8&#45;&gt;Node5 -->
<g id="edge10" class="edge">
<title>Node8&#45;&gt;Node5</title>
<path fill="none" stroke="midnightblue" d="M820.19,-412.82C808.79,-401.52 793.84,-386.69 784.58,-377.51"/>
<polygon fill="midnightblue" stroke="midnightblue" points="817.84,-415.42 827.4,-419.98 822.77,-410.45 817.84,-415.42"/>
</g>
<!-- Node9&#45;&gt;Node5 -->
<g id="edge12" class="edge">
<title>Node9&#45;&gt;Node5</title>
<path fill="none" stroke="midnightblue" d="M924.01,-471.11C924.14,-453.31 921.35,-429.65 908,-414 888.05,-390.6 855.4,-379.35 827.57,-373.94"/>
<polygon fill="midnightblue" stroke="midnightblue" points="920.51,-471.19 923.62,-481.31 927.5,-471.45 920.51,-471.19"/>
</g>
<!-- Node10&#45;&gt;Node5 -->
<g id="edge14" class="edge">
<title>Node10&#45;&gt;Node5</title>
<path fill="none" stroke="midnightblue" d="M486.46,-476.97C483.16,-458.58 481.6,-430.79 497,-414 512.15,-397.48 647.85,-381.61 724.27,-373.89"/>
<polygon fill="midnightblue" stroke="midnightblue" points="483.05,-477.73 488.55,-486.79 489.89,-476.28 483.05,-477.73"/>
</g>
<!-- Node12 -->
<g id="node12" class="node">
<title>Node12</title>
<g id="a_node12"><a xlink:href="node__state_8h.html" target="_top" xlink:title=" ">
<polygon fill="white" stroke="black" points="293,-168.5 293,-187.5 417,-187.5 417,-168.5 293,-168.5"/>
<text text-anchor="middle" x="355" y="-175.5" font-family="Helvetica,sans-Serif" font-size="10.00">src/node/node_state.h</text>
</a>
</g>
</g>
<!-- Node11&#45;&gt;Node12 -->
<g id="edge16" class="edge">
<title>Node11&#45;&gt;Node12</title>
<path fill="none" stroke="midnightblue" d="M174.7,-227.32C217.83,-215.76 284.21,-197.97 323.25,-187.51"/>
<polygon fill="midnightblue" stroke="midnightblue" points="173.56,-224.01 164.81,-229.98 175.37,-230.77 173.56,-224.01"/>
</g>
<!-- Node12&#45;&gt;Node2 -->
<g id="edge17" class="edge">
<title>Node12&#45;&gt;Node2</title>
<path fill="none" stroke="midnightblue" d="M353.67,-157.78C353.67,-143.9 355.72,-125.32 365,-112 377.5,-94.04 399.58,-82.47 417.53,-75.56"/>
<polygon fill="midnightblue" stroke="midnightblue" points="350.19,-158.25 354.05,-168.12 357.18,-158 350.19,-158.25"/>
</g>
<!-- Node13 -->
<g id="node13" class="node">
<title>Node13</title>
<g id="a_node13"><a xlink:href="gov__effects_8h.html" target="_top" xlink:title=" ">
<polygon fill="white" stroke="black" points="374,-112.5 374,-131.5 518,-131.5 518,-112.5 374,-112.5"/>
<text text-anchor="middle" x="446" y="-119.5" font-family="Helvetica,sans-Serif" font-size="10.00">src/node/rpc/gov_effects.h</text>
</a>
</g>
</g>
<!-- Node12&#45;&gt;Node13 -->
<g id="edge18" class="edge">
<title>Node12&#45;&gt;Node13</title>
<path fill="none" stroke="midnightblue" d="M378.29,-163.18C395.04,-153.24 417.1,-140.15 431.42,-131.65"/>
<polygon fill="midnightblue" stroke="midnightblue" points="376.43,-160.21 369.62,-168.32 380.01,-166.23 376.43,-160.21"/>
</g>
<!-- Node13&#45;&gt;Node2 -->
<g id="edge19" class="edge">
<title>Node13&#45;&gt;Node2</title>
<path fill="none" stroke="midnightblue" d="M446,-101.8C446,-92.91 446,-82.78 446,-75.75"/>
<polygon fill="midnightblue" stroke="midnightblue" points="442.5,-102.08 446,-112.08 449.5,-102.08 442.5,-102.08"/>
</g>
<!-- Node15 -->
<g id="node15" class="node">
<title>Node15</title>
<g id="a_node15"><a xlink:href="call__types_8h.html" target="_top" xlink:title=" ">
<polygon fill="white" stroke="black" points="298.5,-420 298.5,-439 435.5,-439 435.5,-420 298.5,-420"/>
<text text-anchor="middle" x="367" y="-427" font-family="Helvetica,sans-Serif" font-size="10.00">src/node/rpc/call_types.h</text>
</a>
</g>
</g>
<!-- Node14&#45;&gt;Node15 -->
<g id="edge21" class="edge">
<title>Node14&#45;&gt;Node15</title>
<path fill="none" stroke="midnightblue" d="M346.43,-472.29C352.08,-460.8 358.57,-447.63 362.72,-439.19"/>
<polygon fill="midnightblue" stroke="midnightblue" points="343.22,-470.88 341.94,-481.4 349.5,-473.97 343.22,-470.88"/>
</g>
<!-- Node16 -->
<g id="node16" class="node">
<title>Node16</title>
<g id="a_node16"><a xlink:href="nobuiltins_8cpp.html" target="_top" xlink:title=" ">
<polygon fill="white" stroke="black" points="200.5,-291.5 200.5,-321.5 335.5,-321.5 335.5,-291.5 200.5,-291.5"/>
<text text-anchor="start" x="208.5" y="-309.5" font-family="Helvetica,sans-Serif" font-size="10.00">samples/apps/nobuiltins</text>
<text text-anchor="middle" x="268" y="-298.5" font-family="Helvetica,sans-Serif" font-size="10.00">/nobuiltins.cpp</text>
</a>
</g>
</g>
<!-- Node15&#45;&gt;Node16 -->
<g id="edge22" class="edge">
<title>Node15&#45;&gt;Node16</title>
<path fill="none" stroke="midnightblue" d="M333.66,-415.78C316.35,-407.53 296.3,-395.1 284,-378 271.91,-361.19 268.75,-336.76 268.04,-321.52"/>
<polygon fill="midnightblue" stroke="midnightblue" points="332.38,-419.04 342.93,-419.94 335.24,-412.65 332.38,-419.04"/>
</g>
<!-- Node17 -->
<g id="node17" class="node">
<title>Node17</title>
<g id="a_node17"><a xlink:href="common__endpoint__registry_8cpp.html" target="_top" xlink:title=" ">
<polygon fill="white" stroke="black" points="568,-291.5 568,-321.5 696,-321.5 696,-291.5 568,-291.5"/>
<text text-anchor="start" x="576" y="-309.5" font-family="Helvetica,sans-Serif" font-size="10.00">src/endpoints/common</text>
<text text-anchor="middle" x="632" y="-298.5" font-family="Helvetica,sans-Serif" font-size="10.00">_endpoint_registry.cpp</text>
</a>
</g>
</g>
<!-- Node15&#45;&gt;Node17 -->
<g id="edge23" class="edge">
<title>Node15&#45;&gt;Node17</title>
<path fill="none" stroke="midnightblue" d="M390.05,-414.5C419.66,-396.63 469.55,-366.96 489,-358 520.33,-343.57 557.04,-330.68 585.42,-321.54"/>
<polygon fill="midnightblue" stroke="midnightblue" points="387.95,-411.67 381.21,-419.84 391.58,-417.66 387.95,-411.67"/>
</g>
<!-- Node18 -->
<g id="node18" class="node">
<title>Node18</title>
<g id="a_node18"><a xlink:href="wrap_8cpp.html" target="_top" xlink:title=" ">
<polygon fill="white" stroke="black" points="497.5,-358.5 497.5,-377.5 586.5,-377.5 586.5,-358.5 497.5,-358.5"/>
<text text-anchor="middle" x="542" y="-365.5" font-family="Helvetica,sans-Serif" font-size="10.00">src/js/wrap.cpp</text>
</a>
</g>
</g>
<!-- Node15&#45;&gt;Node18 -->
<g id="edge24" class="edge">
<title>Node15&#45;&gt;Node18</title>
<path fill="none" stroke="midnightblue" d="M401.61,-416.73C435.63,-405.17 486.72,-387.8 516.97,-377.51"/>
<polygon fill="midnightblue" stroke="midnightblue" points="400.41,-413.44 392.07,-419.98 402.67,-420.07 400.41,-413.44"/>
</g>
<!-- Node19 -->
<g id="node19" class="node">
<title>Node19</title>
<g id="a_node19"><a xlink:href="resharing_8h.html" target="_top" xlink:title=" ">
<polygon fill="white" stroke="black" points="66,-297 66,-316 182,-316 182,-297 66,-297"/>
<text text-anchor="middle" x="124" y="-304" font-family="Helvetica,sans-Serif" font-size="10.00">src/node/resharing.h</text>
</a>
</g>
</g>
<!-- Node15&#45;&gt;Node19 -->
<g id="edge25" class="edge">
<title>Node15&#45;&gt;Node19</title>
<path fill="none" stroke="midnightblue" d="M340.73,-415.42C290.8,-390.56 183.44,-337.1 141.39,-316.16"/>
<polygon fill="midnightblue" stroke="midnightblue" points="339.4,-418.67 349.91,-419.99 342.52,-412.4 339.4,-418.67"/>
</g>
<!-- Node20 -->
<g id="node20" class="node">
<title>Node20</title>
<g id="a_node20"><a xlink:href="member__frontend_8h.html" target="_top" xlink:title=" ">
<polygon fill="white" stroke="black" points="714,-291.5 714,-321.5 834,-321.5 834,-291.5 714,-291.5"/>
<text text-anchor="start" x="722" y="-309.5" font-family="Helvetica,sans-Serif" font-size="10.00">src/node/rpc/member</text>
<text text-anchor="middle" x="774" y="-298.5" font-family="Helvetica,sans-Serif" font-size="10.00">_frontend.h</text>
</a>
</g>
</g>
<!-- Node15&#45;&gt;Node20 -->
<g id="edge27" class="edge">
<title>Node15&#45;&gt;Node20</title>
<path fill="none" stroke="midnightblue" d="M426.22,-418.14C472.85,-409.34 539.24,-395.38 596,-378 648.76,-361.85 707.94,-337 743.03,-321.53"/>
<polygon fill="midnightblue" stroke="midnightblue" points="425.47,-414.72 416.28,-420 426.75,-421.6 425.47,-414.72"/>
</g>
<!-- Node15&#45;&gt;Node21 -->
<g id="edge29" class="edge">
<title>Node15&#45;&gt;Node21</title>
<path fill="none" stroke="midnightblue" d="M367,-409.82C367,-399 367,-385.9 367,-377.51"/>
<polygon fill="midnightblue" stroke="midnightblue" points="363.5,-409.98 367,-419.98 370.5,-409.98 363.5,-409.98"/>
</g>
<!-- Node19&#45;&gt;Node12 -->
<g id="edge26" class="edge">
<title>Node19&#45;&gt;Node12</title>
<path fill="none" stroke="midnightblue" d="M148.92,-291.85C196.71,-265.68 299.95,-209.15 339.32,-187.59"/>
<polygon fill="midnightblue" stroke="midnightblue" points="146.97,-288.93 139.88,-296.81 150.33,-295.07 146.97,-288.93"/>
</g>
<!-- Node20&#45;&gt;Node2 -->
<g id="edge28" class="edge">
<title>Node20&#45;&gt;Node2</title>
<path fill="none" stroke="midnightblue" d="M752.69,-283.76C714.17,-245.34 629.19,-164.54 546,-112 521.53,-96.55 490.87,-83.58 469.99,-75.6"/>
<polygon fill="midnightblue" stroke="midnightblue" points="750.65,-286.67 760.19,-291.29 755.61,-281.73 750.65,-286.67"/>
</g>
<!-- Node21&#45;&gt;Node12 -->
<g id="edge32" class="edge">
<title>Node21&#45;&gt;Node12</title>
<path fill="none" stroke="midnightblue" d="M365.8,-348.24C363.25,-308.31 357.37,-216.2 355.55,-187.62"/>
<polygon fill="midnightblue" stroke="midnightblue" points="362.32,-348.68 366.45,-358.43 369.31,-348.23 362.32,-348.68"/>
</g>
<!-- Node21&#45;&gt;Node16 -->
<g id="edge30" class="edge">
<title>Node21&#45;&gt;Node16</title>
<path fill="none" stroke="midnightblue" d="M344.17,-353.28C328.32,-343.75 307.28,-331.11 291.33,-321.52"/>
<polygon fill="midnightblue" stroke="midnightblue" points="342.44,-356.32 352.82,-358.48 346.05,-350.32 342.44,-356.32"/>
</g>
<!-- Node21&#45;&gt;Node17 -->
<g id="edge31" class="edge">
<title>Node21&#45;&gt;Node17</title>
<path fill="none" stroke="midnightblue" d="M414.97,-356.23C458.27,-346.51 522.26,-332.14 569.54,-321.52"/>
<polygon fill="midnightblue" stroke="midnightblue" points="413.96,-352.87 404.97,-358.48 415.49,-359.7 413.96,-352.87"/>
</g>
<!-- Node21&#45;&gt;Node19 -->
<g id="edge33" class="edge">
<title>Node21&#45;&gt;Node19</title>
<path fill="none" stroke="midnightblue" d="M322.24,-356.04C275.07,-344.49 201.76,-326.54 158.75,-316.01"/>
<polygon fill="midnightblue" stroke="midnightblue" points="321.64,-359.5 332.18,-358.48 323.3,-352.7 321.64,-359.5"/>
</g>
<!-- Node21&#45;&gt;Node20 -->
<g id="edge34" class="edge">
<title>Node21&#45;&gt;Node20</title>
<path fill="none" stroke="midnightblue" d="M451.4,-357.54C519.93,-349.43 618.98,-336.74 705,-322 707.9,-321.5 710.85,-320.97 713.84,-320.42"/>
<polygon fill="midnightblue" stroke="midnightblue" points="450.61,-354.11 441.09,-358.75 451.43,-361.06 450.61,-354.11"/>
</g>
<!-- Node22 -->
<g id="node22" class="node">
<title>Node22</title>
<g id="a_node22"><a xlink:href="node__frontend_8h.html" target="_top" xlink:title=" ">
<polygon fill="white" stroke="black" points="392,-297 392,-316 550,-316 550,-297 392,-297"/>
<text text-anchor="middle" x="471" y="-304" font-family="Helvetica,sans-Serif" font-size="10.00">src/node/rpc/node_frontend.h</text>
</a>
</g>
</g>
<!-- Node21&#45;&gt;Node22 -->
<g id="edge35" class="edge">
<title>Node21&#45;&gt;Node22</title>
<path fill="none" stroke="midnightblue" d="M390.77,-353.4C410.88,-341.9 439.07,-325.77 456.13,-316.01"/>
<polygon fill="midnightblue" stroke="midnightblue" points="388.84,-350.47 381.9,-358.48 392.32,-356.55 388.84,-350.47"/>
</g>
<!-- Node22&#45;&gt;Node2 -->
<g id="edge36" class="edge">
<title>Node22&#45;&gt;Node2</title>
<path fill="none" stroke="midnightblue" d="M494.15,-291.11C506.04,-282.3 519.39,-269.87 526,-255 551.8,-196.92 559.23,-166.78 527,-112 516.23,-93.7 495.03,-82.31 477.02,-75.56"/>
<polygon fill="midnightblue" stroke="midnightblue" points="492.08,-288.28 485.86,-296.86 496.07,-294.03 492.08,-288.28"/>
</g>
<!-- Node23 -->
<g id="node23" class="node">
<title>Node23</title>
<g id="a_node23"><a xlink:href="jwt__key__auto__refresh_8h.html" target="_top" xlink:title=" ">
<polygon fill="white" stroke="black" points="392.5,-224.5 392.5,-254.5 517.5,-254.5 517.5,-224.5 392.5,-224.5"/>
<text text-anchor="start" x="400.5" y="-242.5" font-family="Helvetica,sans-Serif" font-size="10.00">src/node/jwt_key_auto</text>
<text text-anchor="middle" x="455" y="-231.5" font-family="Helvetica,sans-Serif" font-size="10.00">_refresh.h</text>
</a>
</g>
</g>
<!-- Node22&#45;&gt;Node23 -->
<g id="edge37" class="edge">
<title>Node22&#45;&gt;Node23</title>
<path fill="none" stroke="midnightblue" d="M466.38,-286.74C463.86,-276.49 460.78,-264 458.47,-254.59"/>
<polygon fill="midnightblue" stroke="midnightblue" points="463.05,-287.86 468.84,-296.73 469.85,-286.19 463.05,-287.86"/>
</g>
<!-- Node23&#45;&gt;Node12 -->
<g id="edge38" class="edge">
<title>Node23&#45;&gt;Node12</title>
<path fill="none" stroke="midnightblue" d="M422.34,-219.07C404.52,-208.46 383.33,-195.86 369.55,-187.66"/>
<polygon fill="midnightblue" stroke="midnightblue" points="420.92,-222.29 431.3,-224.4 424.5,-216.28 420.92,-222.29"/>
</g>
</g>
</svg>
