<?xml version="1.0" encoding="UTF-8" standalone="no"?>
<!DOCTYPE svg PUBLIC "-//W3C//DTD SVG 1.1//EN"
 "http://www.w3.org/Graphics/SVG/1.1/DTD/svg11.dtd">
<!-- Generated by graphviz version 2.43.0 (0)
 -->
<!-- Title: include/ccf/service/tables/jwt.h Pages: 1 -->
<svg width="1919pt" height="520pt"
 viewBox="0.00 0.00 1919.00 520.00" xmlns="http://www.w3.org/2000/svg" xmlns:xlink="http://www.w3.org/1999/xlink">
<g id="graph0" class="graph" transform="scale(1 1) rotate(0) translate(4 516)">
<title>include/ccf/service/tables/jwt.h</title>
<polygon fill="white" stroke="transparent" points="-4,4 -4,-516 1915,-516 1915,4 -4,4"/>
<!-- Node1 -->
<g id="node1" class="node">
<title>Node1</title>
<g id="a_node1"><a xlink:title=" ">
<polygon fill="#bfbfbf" stroke="black" points="487,-481.5 487,-511.5 594,-511.5 594,-481.5 487,-481.5"/>
<text text-anchor="start" x="495" y="-499.5" font-family="Helvetica,sans-Serif" font-size="10.00">include/ccf/service</text>
<text text-anchor="middle" x="540.5" y="-488.5" font-family="Helvetica,sans-Serif" font-size="10.00">/tables/jwt.h</text>
</a>
</g>
</g>
<!-- Node2 -->
<g id="node2" class="node">
<title>Node2</title>
<g id="a_node2"><a xlink:href="jwt__auth_8cpp.html" target="_top" xlink:title=" ">
<polygon fill="white" stroke="black" points="0,-414.5 0,-444.5 155,-444.5 155,-414.5 0,-414.5"/>
<text text-anchor="start" x="8" y="-432.5" font-family="Helvetica,sans-Serif" font-size="10.00">src/endpoints/authentication</text>
<text text-anchor="middle" x="77.5" y="-421.5" font-family="Helvetica,sans-Serif" font-size="10.00">/jwt_auth.cpp</text>
</a>
</g>
</g>
<!-- Node1&#45;&gt;Node2 -->
<g id="edge1" class="edge">
<title>Node1&#45;&gt;Node2</title>
<path fill="none" stroke="midnightblue" d="M476.92,-487.26C402.98,-477.58 277.3,-460.83 169.5,-445 164.86,-444.32 160.09,-443.61 155.28,-442.88"/>
<polygon fill="midnightblue" stroke="midnightblue" points="476.63,-490.75 487,-488.58 477.54,-483.81 476.63,-490.75"/>
</g>
<!-- Node3 -->
<g id="node3" class="node">
<title>Node3</title>
<g id="a_node3"><a xlink:href="wrap_8cpp.html" target="_top" xlink:title=" ">
<polygon fill="white" stroke="black" points="728,-168.5 728,-187.5 817,-187.5 817,-168.5 728,-168.5"/>
<text text-anchor="middle" x="772.5" y="-175.5" font-family="Helvetica,sans-Serif" font-size="10.00">src/js/wrap.cpp</text>
</a>
</g>
</g>
<!-- Node1&#45;&gt;Node3 -->
<g id="edge2" class="edge">
<title>Node1&#45;&gt;Node3</title>
<path fill="none" stroke="midnightblue" d="M476.71,-485.37C374.03,-467.25 183.5,-425.29 183.5,-363.5 183.5,-363.5 183.5,-363.5 183.5,-300 183.5,-248.99 222.65,-244.17 269.5,-224 351.34,-188.77 620.29,-181.12 727.66,-179.46"/>
<polygon fill="midnightblue" stroke="midnightblue" points="476.22,-488.84 486.67,-487.1 477.41,-481.94 476.22,-488.84"/>
</g>
<!-- Node4 -->
<g id="node4" class="node">
<title>Node4</title>
<g id="a_node4"><a xlink:href="jwt__key__auto__refresh_8h.html" target="_top" xlink:title=" ">
<polygon fill="white" stroke="black" points="413,-224.5 413,-254.5 538,-254.5 538,-224.5 413,-224.5"/>
<text text-anchor="start" x="421" y="-242.5" font-family="Helvetica,sans-Serif" font-size="10.00">src/node/jwt_key_auto</text>
<text text-anchor="middle" x="475.5" y="-231.5" font-family="Helvetica,sans-Serif" font-size="10.00">_refresh.h</text>
</a>
</g>
</g>
<!-- Node1&#45;&gt;Node4 -->
<g id="edge3" class="edge">
<title>Node1&#45;&gt;Node4</title>
<path fill="none" stroke="midnightblue" d="M563.14,-474.08C601.64,-435.02 671.7,-350.76 628.5,-291 617.44,-275.7 575.49,-262.49 538.32,-253.43"/>
<polygon fill="midnightblue" stroke="midnightblue" points="560.53,-471.74 555.9,-481.27 565.46,-476.7 560.53,-471.74"/>
</g>
<!-- Node9 -->
<g id="node9" class="node">
<title>Node9</title>
<g id="a_node9"><a xlink:href="frontend_8h.html" target="_top" xlink:title=" ">
<polygon fill="white" stroke="black" points="476,-353 476,-372 605,-372 605,-353 476,-353"/>
<text text-anchor="middle" x="540.5" y="-360" font-family="Helvetica,sans-Serif" font-size="10.00">src/node/rpc/frontend.h</text>
</a>
</g>
</g>
<!-- Node1&#45;&gt;Node9 -->
<g id="edge9" class="edge">
<title>Node1&#45;&gt;Node9</title>
<path fill="none" stroke="midnightblue" d="M540.5,-471.32C540.5,-441.38 540.5,-391.91 540.5,-372.1"/>
<polygon fill="midnightblue" stroke="midnightblue" points="537,-471.37 540.5,-481.37 544,-471.37 537,-471.37"/>
</g>
<!-- Node10 -->
<g id="node10" class="node">
<title>Node10</title>
<g id="a_node10"><a xlink:href="member__frontend_8h.html" target="_top" xlink:title=" ">
<polygon fill="white" stroke="black" points="1624.5,-224.5 1624.5,-254.5 1744.5,-254.5 1744.5,-224.5 1624.5,-224.5"/>
<text text-anchor="start" x="1632.5" y="-242.5" font-family="Helvetica,sans-Serif" font-size="10.00">src/node/rpc/member</text>
<text text-anchor="middle" x="1684.5" y="-231.5" font-family="Helvetica,sans-Serif" font-size="10.00">_frontend.h</text>
</a>
</g>
</g>
<!-- Node1&#45;&gt;Node10 -->
<g id="edge21" class="edge">
<title>Node1&#45;&gt;Node10</title>
<path fill="none" stroke="midnightblue" d="M604.33,-495.06C793.29,-493.32 1347.58,-484.86 1523.5,-445 1599.09,-427.87 1636.4,-438.77 1684.5,-378 1713.1,-341.88 1698.57,-282.07 1689.7,-254.82"/>
<polygon fill="midnightblue" stroke="midnightblue" points="604.25,-491.56 594.28,-495.15 604.31,-498.56 604.25,-491.56"/>
</g>
<!-- Node13 -->
<g id="node13" class="node">
<title>Node13</title>
<g id="a_node13"><a xlink:href="jwt__management_8h.html" target="_top" xlink:title=" ">
<polygon fill="white" stroke="black" points="285,-353 285,-372 458,-372 458,-353 285,-353"/>
<text text-anchor="middle" x="371.5" y="-360" font-family="Helvetica,sans-Serif" font-size="10.00">src/node/rpc/jwt_management.h</text>
</a>
</g>
</g>
<!-- Node1&#45;&gt;Node13 -->
<g id="edge18" class="edge">
<title>Node1&#45;&gt;Node13</title>
<path fill="none" stroke="midnightblue" d="M514.43,-475.14C476.83,-445.77 408.99,-392.78 382.51,-372.1"/>
<polygon fill="midnightblue" stroke="midnightblue" points="512.38,-477.98 522.41,-481.37 516.69,-472.46 512.38,-477.98"/>
</g>
<!-- Node14 -->
<g id="node14" class="node">
<title>Node14</title>
<g id="a_node14"><a xlink:href="network__tables_8h.html" target="_top" xlink:title=" ">
<polygon fill="white" stroke="black" points="1402.5,-414.5 1402.5,-444.5 1514.5,-444.5 1514.5,-414.5 1402.5,-414.5"/>
<text text-anchor="start" x="1410.5" y="-432.5" font-family="Helvetica,sans-Serif" font-size="10.00">src/service/network</text>
<text text-anchor="middle" x="1458.5" y="-421.5" font-family="Helvetica,sans-Serif" font-size="10.00">_tables.h</text>
</a>
</g>
</g>
<!-- Node1&#45;&gt;Node14 -->
<g id="edge22" class="edge">
<title>Node1&#45;&gt;Node14</title>
<path fill="none" stroke="midnightblue" d="M604.25,-490.99C775.06,-478.89 1240.96,-445.9 1402.48,-434.47"/>
<polygon fill="midnightblue" stroke="midnightblue" points="603.89,-487.5 594.16,-491.7 604.38,-494.49 603.89,-487.5"/>
</g>
<!-- Node5 -->
<g id="node5" class="node">
<title>Node5</title>
<g id="a_node5"><a xlink:href="node__state_8h.html" target="_top" xlink:title=" ">
<polygon fill="white" stroke="black" points="1458.5,-168.5 1458.5,-187.5 1582.5,-187.5 1582.5,-168.5 1458.5,-168.5"/>
<text text-anchor="middle" x="1520.5" y="-175.5" font-family="Helvetica,sans-Serif" font-size="10.00">src/node/node_state.h</text>
</a>
</g>
</g>
<!-- Node4&#45;&gt;Node5 -->
<g id="edge4" class="edge">
<title>Node4&#45;&gt;Node5</title>
<path fill="none" stroke="midnightblue" d="M548.48,-228.02C560.82,-226.49 573.51,-225.08 585.5,-224 913.47,-194.54 1308.02,-183.52 1458.29,-180.21"/>
<polygon fill="midnightblue" stroke="midnightblue" points="547.7,-224.59 538.22,-229.32 548.59,-231.53 547.7,-224.59"/>
</g>
<!-- Node6 -->
<g id="node6" class="node">
<title>Node6</title>
<g id="a_node6"><a xlink:href="enclave_2enclave_8h.html" target="_top" xlink:title=" ">
<polygon fill="white" stroke="black" points="1345.5,-56.5 1345.5,-75.5 1467.5,-75.5 1467.5,-56.5 1345.5,-56.5"/>
<text text-anchor="middle" x="1406.5" y="-63.5" font-family="Helvetica,sans-Serif" font-size="10.00">src/enclave/enclave.h</text>
</a>
</g>
</g>
<!-- Node5&#45;&gt;Node6 -->
<g id="edge5" class="edge">
<title>Node5&#45;&gt;Node6</title>
<path fill="none" stroke="midnightblue" d="M1550.7,-163.91C1575.08,-151.49 1602.99,-131.81 1587.5,-112 1572.69,-93.06 1514.16,-80.95 1467.61,-74.12"/>
<polygon fill="midnightblue" stroke="midnightblue" points="1549.1,-160.8 1541.62,-168.31 1552.15,-167.1 1549.1,-160.8"/>
</g>
<!-- Node8 -->
<g id="node8" class="node">
<title>Node8</title>
<g id="a_node8"><a xlink:href="gov__effects_8h.html" target="_top" xlink:title=" ">
<polygon fill="white" stroke="black" points="1434.5,-112.5 1434.5,-131.5 1578.5,-131.5 1578.5,-112.5 1434.5,-112.5"/>
<text text-anchor="middle" x="1506.5" y="-119.5" font-family="Helvetica,sans-Serif" font-size="10.00">src/node/rpc/gov_effects.h</text>
</a>
</g>
</g>
<!-- Node5&#45;&gt;Node8 -->
<g id="edge7" class="edge">
<title>Node5&#45;&gt;Node8</title>
<path fill="none" stroke="midnightblue" d="M1515.68,-158.4C1513.33,-149.36 1510.63,-138.94 1508.77,-131.75"/>
<polygon fill="midnightblue" stroke="midnightblue" points="1512.29,-159.28 1518.19,-168.08 1519.07,-157.52 1512.29,-159.28"/>
</g>
<!-- Node7 -->
<g id="node7" class="node">
<title>Node7</title>
<g id="a_node7"><a xlink:href="enclave_2main_8cpp.html" target="_top" xlink:title=" ">
<polygon fill="white" stroke="black" points="1346.5,-0.5 1346.5,-19.5 1466.5,-19.5 1466.5,-0.5 1346.5,-0.5"/>
<text text-anchor="middle" x="1406.5" y="-7.5" font-family="Helvetica,sans-Serif" font-size="10.00">src/enclave/main.cpp</text>
</a>
</g>
</g>
<!-- Node6&#45;&gt;Node7 -->
<g id="edge6" class="edge">
<title>Node6&#45;&gt;Node7</title>
<path fill="none" stroke="midnightblue" d="M1406.5,-45.8C1406.5,-36.91 1406.5,-26.78 1406.5,-19.75"/>
<polygon fill="midnightblue" stroke="midnightblue" points="1403,-46.08 1406.5,-56.08 1410,-46.08 1403,-46.08"/>
</g>
<!-- Node8&#45;&gt;Node6 -->
<g id="edge8" class="edge">
<title>Node8&#45;&gt;Node6</title>
<path fill="none" stroke="midnightblue" d="M1481.41,-107.45C1462.95,-97.48 1438.4,-84.23 1422.53,-75.65"/>
<polygon fill="midnightblue" stroke="midnightblue" points="1479.97,-110.65 1490.43,-112.32 1483.3,-104.49 1479.97,-110.65"/>
</g>
<!-- Node9&#45;&gt;Node5 -->
<g id="edge10" class="edge">
<title>Node9&#45;&gt;Node5</title>
<path fill="none" stroke="midnightblue" d="M510.92,-348.75C458.72,-324.62 359.83,-270.5 404.5,-224 441.21,-185.78 1229.14,-180.02 1458.43,-179.15"/>
<polygon fill="midnightblue" stroke="midnightblue" points="509.52,-351.96 520.07,-352.9 512.41,-345.58 509.52,-351.96"/>
</g>
<!-- Node9&#45;&gt;Node10 -->
<g id="edge11" class="edge">
<title>Node9&#45;&gt;Node10</title>
<path fill="none" stroke="midnightblue" d="M615.07,-360.84C747.2,-358.67 1030.73,-349.48 1266.5,-311 1301.4,-305.3 1308.85,-298.04 1343.5,-291 1441.15,-271.15 1556.02,-255.76 1624.41,-247.42"/>
<polygon fill="midnightblue" stroke="midnightblue" points="615,-357.34 605.06,-361 615.11,-364.34 615,-357.34"/>
</g>
<!-- Node11 -->
<g id="node11" class="node">
<title>Node11</title>
<g id="a_node11"><a xlink:href="node__frontend_8h.html" target="_top" xlink:title=" ">
<polygon fill="white" stroke="black" points="461.5,-291.5 461.5,-310.5 619.5,-310.5 619.5,-291.5 461.5,-291.5"/>
<text text-anchor="middle" x="540.5" y="-298.5" font-family="Helvetica,sans-Serif" font-size="10.00">src/node/rpc/node_frontend.h</text>
</a>
</g>
</g>
<!-- Node9&#45;&gt;Node11 -->
<g id="edge13" class="edge">
<title>Node9&#45;&gt;Node11</title>
<path fill="none" stroke="midnightblue" d="M540.5,-342.82C540.5,-332 540.5,-318.9 540.5,-310.51"/>
<polygon fill="midnightblue" stroke="midnightblue" points="537,-342.98 540.5,-352.98 544,-342.98 537,-342.98"/>
</g>
<!-- Node12 -->
<g id="node12" class="node">
<title>Node12</title>
<g id="a_node12"><a xlink:href="user__frontend_8h.html" target="_top" xlink:title=" ">
<polygon fill="white" stroke="black" points="250,-291.5 250,-310.5 405,-310.5 405,-291.5 250,-291.5"/>
<text text-anchor="middle" x="327.5" y="-298.5" font-family="Helvetica,sans-Serif" font-size="10.00">src/node/rpc/user_frontend.h</text>
</a>
</g>
</g>
<!-- Node9&#45;&gt;Node12 -->
<g id="edge16" class="edge">
<title>Node9&#45;&gt;Node12</title>
<path fill="none" stroke="midnightblue" d="M500.22,-350.25C458.84,-338.69 395.34,-320.95 357.96,-310.51"/>
<polygon fill="midnightblue" stroke="midnightblue" points="499.41,-353.66 509.98,-352.98 501.29,-346.91 499.41,-353.66"/>
</g>
<!-- Node10&#45;&gt;Node6 -->
<g id="edge12" class="edge">
<title>Node10&#45;&gt;Node6</title>
<path fill="none" stroke="midnightblue" d="M1675.86,-214.79C1664.07,-185.9 1640.14,-137.77 1603.5,-112 1563.76,-84.05 1509.35,-73.17 1467.79,-69.07"/>
<polygon fill="midnightblue" stroke="midnightblue" points="1672.62,-216.1 1679.52,-224.13 1679.13,-213.55 1672.62,-216.1"/>
</g>
<!-- Node11&#45;&gt;Node4 -->
<g id="edge15" class="edge">
<title>Node11&#45;&gt;Node4</title>
<path fill="none" stroke="midnightblue" d="M523.73,-284.65C513.57,-275.35 500.7,-263.57 490.82,-254.52"/>
<polygon fill="midnightblue" stroke="midnightblue" points="521.45,-287.3 531.19,-291.48 526.17,-282.14 521.45,-287.3"/>
</g>
<!-- Node11&#45;&gt;Node6 -->
<g id="edge14" class="edge">
<title>Node11&#45;&gt;Node6</title>
<path fill="none" stroke="midnightblue" d="M452.55,-288.3C433.8,-281.57 416.15,-271.12 404.5,-255 341.51,-167.81 383.68,-173.67 552.5,-112 626.32,-85.03 1162.31,-71.89 1345.39,-68.15"/>
<polygon fill="midnightblue" stroke="midnightblue" points="451.54,-291.65 462.13,-291.41 453.7,-284.99 451.54,-291.65"/>
</g>
<!-- Node12&#45;&gt;Node6 -->
<g id="edge17" class="edge">
<title>Node12&#45;&gt;Node6</title>
<path fill="none" stroke="midnightblue" d="M329.76,-281.51C334.04,-253.71 345.75,-200.91 375.5,-168 413.89,-125.53 436.02,-126.13 491.5,-112 653.71,-70.67 1167.81,-66.88 1345.43,-66.84"/>
<polygon fill="midnightblue" stroke="midnightblue" points="326.29,-281.07 328.38,-291.46 333.22,-282.03 326.29,-281.07"/>
</g>
<!-- Node13&#45;&gt;Node3 -->
<g id="edge19" class="edge">
<title>Node13&#45;&gt;Node3</title>
<path fill="none" stroke="midnightblue" d="M305.44,-350.66C263.87,-340.61 221.4,-322.34 240.5,-291 274.33,-235.5 308.28,-242.82 370.5,-224 496.03,-186.04 652.34,-179.51 727.72,-178.76"/>
<polygon fill="midnightblue" stroke="midnightblue" points="304.86,-354.12 315.39,-352.92 306.41,-347.29 304.86,-354.12"/>
</g>
<!-- Node13&#45;&gt;Node11 -->
<g id="edge20" class="edge">
<title>Node13&#45;&gt;Node11</title>
<path fill="none" stroke="midnightblue" d="M405.35,-349.58C438.2,-338.02 487.24,-320.75 516.33,-310.51"/>
<polygon fill="midnightblue" stroke="midnightblue" points="403.98,-346.35 395.71,-352.98 406.31,-352.96 403.98,-346.35"/>
</g>
<!-- Node15 -->
<g id="node15" class="node">
<title>Node15</title>
<g id="a_node15"><a xlink:href="kv__module__loader_8cpp.html" target="_top" xlink:title=" ">
<polygon fill="white" stroke="black" points="1532,-347.5 1532,-377.5 1675,-377.5 1675,-347.5 1532,-347.5"/>
<text text-anchor="start" x="1540" y="-365.5" font-family="Helvetica,sans-Serif" font-size="10.00">src/apps/js_v8/kv_module</text>
<text text-anchor="middle" x="1603.5" y="-354.5" font-family="Helvetica,sans-Serif" font-size="10.00">_loader.cpp</text>
</a>
</g>
</g>
<!-- Node14&#45;&gt;Node15 -->
<g id="edge23" class="edge">
<title>Node14&#45;&gt;Node15</title>
<path fill="none" stroke="midnightblue" d="M1499.17,-410.27C1522.26,-399.92 1550.74,-387.15 1572.1,-377.58"/>
<polygon fill="midnightblue" stroke="midnightblue" points="1497.66,-407.11 1489.96,-414.4 1500.52,-413.5 1497.66,-407.11"/>
</g>
<!-- Node16 -->
<g id="node16" class="node">
<title>Node16</title>
<g id="a_node16"><a xlink:href="ccf__acme__client_8h.html" target="_top" xlink:title=" ">
<polygon fill="white" stroke="black" points="1762,-353 1762,-372 1911,-372 1911,-353 1762,-353"/>
<text text-anchor="middle" x="1836.5" y="-360" font-family="Helvetica,sans-Serif" font-size="10.00">src/node/ccf_acme_client.h</text>
</a>
</g>
</g>
<!-- Node14&#45;&gt;Node16 -->
<g id="edge24" class="edge">
<title>Node14&#45;&gt;Node16</title>
<path fill="none" stroke="midnightblue" d="M1524.94,-417.08C1599.82,-404.2 1719.83,-383.56 1786.95,-372.02"/>
<polygon fill="midnightblue" stroke="midnightblue" points="1523.94,-413.69 1514.68,-418.84 1525.13,-420.59 1523.94,-413.69"/>
</g>
<!-- Node17 -->
<g id="node17" class="node">
<title>Node17</title>
<g id="a_node17"><a xlink:href="network__state_8h.html" target="_top" xlink:title=" ">
<polygon fill="white" stroke="black" points="1123.5,-353 1123.5,-372 1263.5,-372 1263.5,-353 1123.5,-353"/>
<text text-anchor="middle" x="1193.5" y="-360" font-family="Helvetica,sans-Serif" font-size="10.00">src/node/network_state.h</text>
</a>
</g>
</g>
<!-- Node14&#45;&gt;Node17 -->
<g id="edge26" class="edge">
<title>Node14&#45;&gt;Node17</title>
<path fill="none" stroke="midnightblue" d="M1392.5,-412.31C1340.54,-399.57 1270.17,-382.31 1228.54,-372.09"/>
<polygon fill="midnightblue" stroke="midnightblue" points="1391.75,-415.73 1402.3,-414.72 1393.42,-408.93 1391.75,-415.73"/>
</g>
<!-- Node28 -->
<g id="node28" class="node">
<title>Node28</title>
<g id="a_node28"><a xlink:href="genesis__gen_8h.html" target="_top" xlink:title=" ">
<polygon fill="white" stroke="black" points="1403.5,-347.5 1403.5,-377.5 1513.5,-377.5 1513.5,-347.5 1403.5,-347.5"/>
<text text-anchor="start" x="1411.5" y="-365.5" font-family="Helvetica,sans-Serif" font-size="10.00">src/service/genesis</text>
<text text-anchor="middle" x="1458.5" y="-354.5" font-family="Helvetica,sans-Serif" font-size="10.00">_gen.h</text>
</a>
</g>
</g>
<!-- Node14&#45;&gt;Node28 -->
<g id="edge53" class="edge">
<title>Node14&#45;&gt;Node28</title>
<path fill="none" stroke="midnightblue" d="M1458.5,-404.11C1458.5,-395.15 1458.5,-385.32 1458.5,-377.58"/>
<polygon fill="midnightblue" stroke="midnightblue" points="1455,-404.4 1458.5,-414.4 1462,-404.4 1455,-404.4"/>
</g>
<!-- Node16&#45;&gt;Node5 -->
<g id="edge25" class="edge">
<title>Node16&#45;&gt;Node5</title>
<path fill="none" stroke="midnightblue" d="M1832.97,-342.64C1826.28,-312.46 1808.73,-253.71 1769.5,-224 1740.78,-202.25 1646.67,-189.9 1582.73,-183.83"/>
<polygon fill="midnightblue" stroke="midnightblue" points="1829.59,-343.59 1835.03,-352.69 1836.45,-342.19 1829.59,-343.59"/>
</g>
<!-- Node17&#45;&gt;Node5 -->
<g id="edge43" class="edge">
<title>Node17&#45;&gt;Node5</title>
<path fill="none" stroke="midnightblue" d="M1218.34,-347.97C1247.58,-332.49 1297.95,-307.18 1343.5,-291 1406.07,-268.77 1438.05,-298.17 1488.5,-255 1509.38,-237.13 1516.94,-203.31 1519.42,-187.52"/>
<polygon fill="midnightblue" stroke="midnightblue" points="1216.44,-345.02 1209.27,-352.82 1219.74,-351.2 1216.44,-345.02"/>
</g>
<!-- Node17&#45;&gt;Node6 -->
<g id="edge27" class="edge">
<title>Node17&#45;&gt;Node6</title>
<path fill="none" stroke="midnightblue" d="M1113.22,-353.18C955.86,-336.05 619.18,-295.09 585.5,-255 576.64,-244.45 577.86,-235.47 585.5,-224 670.05,-97.02 1169.5,-72.72 1345.31,-68.08"/>
<polygon fill="midnightblue" stroke="midnightblue" points="1113,-356.67 1123.32,-354.27 1113.76,-349.71 1113,-356.67"/>
</g>
<!-- Node17&#45;&gt;Node11 -->
<g id="edge44" class="edge">
<title>Node17&#45;&gt;Node11</title>
<path fill="none" stroke="midnightblue" d="M1113.34,-354.2C987.46,-342.73 744.9,-320.62 619.65,-309.21"/>
<polygon fill="midnightblue" stroke="midnightblue" points="1113.03,-357.68 1123.31,-355.1 1113.67,-350.71 1113.03,-357.68"/>
</g>
<!-- Node17&#45;&gt;Node12 -->
<g id="edge45" class="edge">
<title>Node17&#45;&gt;Node12</title>
<path fill="none" stroke="midnightblue" d="M1112.92,-356.11C976.82,-346.98 692.73,-327.83 452.5,-311 437.2,-309.93 420.84,-308.76 405.18,-307.64"/>
<polygon fill="midnightblue" stroke="midnightblue" points="1113.04,-359.63 1123.25,-356.8 1113.51,-352.64 1113.04,-359.63"/>
</g>
<!-- Node18 -->
<g id="node18" class="node">
<title>Node18</title>
<g id="a_node18"><a xlink:href="wrap_8h.html" target="_top" xlink:title=" ">
<polygon fill="white" stroke="black" points="1033.5,-291.5 1033.5,-310.5 1111.5,-310.5 1111.5,-291.5 1033.5,-291.5"/>
<text text-anchor="middle" x="1072.5" y="-298.5" font-family="Helvetica,sans-Serif" font-size="10.00">src/js/wrap.h</text>
</a>
</g>
</g>
<!-- Node17&#45;&gt;Node18 -->
<g id="edge28" class="edge">
<title>Node17&#45;&gt;Node18</title>
<path fill="none" stroke="midnightblue" d="M1167.11,-348.52C1143.64,-336.98 1110.01,-320.44 1089.8,-310.51"/>
<polygon fill="midnightblue" stroke="midnightblue" points="1165.65,-351.7 1176.16,-352.98 1168.73,-345.42 1165.65,-351.7"/>
</g>
<!-- Node25 -->
<g id="node25" class="node">
<title>Node25</title>
<g id="a_node25"><a xlink:href="secret__broadcast_8h.html" target="_top" xlink:title=" ">
<polygon fill="white" stroke="black" points="1352,-291.5 1352,-310.5 1505,-310.5 1505,-291.5 1352,-291.5"/>
<text text-anchor="middle" x="1428.5" y="-298.5" font-family="Helvetica,sans-Serif" font-size="10.00">src/node/secret_broadcast.h</text>
</a>
</g>
</g>
<!-- Node17&#45;&gt;Node25 -->
<g id="edge46" class="edge">
<title>Node17&#45;&gt;Node25</title>
<path fill="none" stroke="midnightblue" d="M1237.07,-350.47C1282.7,-338.91 1353.39,-321.02 1394.89,-310.51"/>
<polygon fill="midnightblue" stroke="midnightblue" points="1236,-347.13 1227.17,-352.98 1237.72,-353.91 1236,-347.13"/>
</g>
<!-- Node26 -->
<g id="node26" class="node">
<title>Node26</title>
<g id="a_node26"><a xlink:href="share__manager_8h.html" target="_top" xlink:title=" ">
<polygon fill="white" stroke="black" points="1523,-291.5 1523,-310.5 1668,-310.5 1668,-291.5 1523,-291.5"/>
<text text-anchor="middle" x="1595.5" y="-298.5" font-family="Helvetica,sans-Serif" font-size="10.00">src/node/share_manager.h</text>
</a>
</g>
</g>
<!-- Node17&#45;&gt;Node26 -->
<g id="edge48" class="edge">
<title>Node17&#45;&gt;Node26</title>
<path fill="none" stroke="midnightblue" d="M1261.26,-351.47C1338.94,-339.97 1464.93,-321.33 1538.01,-310.51"/>
<polygon fill="midnightblue" stroke="midnightblue" points="1260.48,-348.05 1251.1,-352.98 1261.5,-354.97 1260.48,-348.05"/>
</g>
<!-- Node27 -->
<g id="node27" class="node">
<title>Node27</title>
<g id="a_node27"><a xlink:href="snapshotter_8h.html" target="_top" xlink:title=" ">
<polygon fill="white" stroke="black" points="1130,-291.5 1130,-310.5 1257,-310.5 1257,-291.5 1130,-291.5"/>
<text text-anchor="middle" x="1193.5" y="-298.5" font-family="Helvetica,sans-Serif" font-size="10.00">src/node/snapshotter.h</text>
</a>
</g>
</g>
<!-- Node17&#45;&gt;Node27 -->
<g id="edge51" class="edge">
<title>Node17&#45;&gt;Node27</title>
<path fill="none" stroke="midnightblue" d="M1193.5,-342.82C1193.5,-332 1193.5,-318.9 1193.5,-310.51"/>
<polygon fill="midnightblue" stroke="midnightblue" points="1190,-342.98 1193.5,-352.98 1197,-342.98 1190,-342.98"/>
</g>
<!-- Node18&#45;&gt;Node3 -->
<g id="edge40" class="edge">
<title>Node18&#45;&gt;Node3</title>
<path fill="none" stroke="midnightblue" d="M1121.2,-291.05C1121.3,-291.03 1121.4,-291.02 1121.5,-291 1225.61,-273.22 1421.22,-301.53 1349.5,-224 1313.59,-185.18 946.61,-179.78 817.3,-179.08"/>
<polygon fill="midnightblue" stroke="midnightblue" points="1120.78,-287.57 1111.53,-292.74 1121.99,-294.47 1120.78,-287.57"/>
</g>
<!-- Node18&#45;&gt;Node5 -->
<g id="edge41" class="edge">
<title>Node18&#45;&gt;Node5</title>
<path fill="none" stroke="midnightblue" d="M1121.2,-291.05C1121.3,-291.03 1121.4,-291.02 1121.5,-291 1253.83,-270.9 1297.32,-307.38 1420.5,-255 1440.56,-246.47 1441.23,-237.3 1458.5,-224 1475.36,-211.02 1495.37,-196.69 1508,-187.76"/>
<polygon fill="midnightblue" stroke="midnightblue" points="1120.83,-287.56 1111.51,-292.61 1121.94,-294.47 1120.83,-287.56"/>
</g>
<!-- Node18&#45;&gt;Node6 -->
<g id="edge30" class="edge">
<title>Node18&#45;&gt;Node6</title>
<path fill="none" stroke="midnightblue" d="M1121.2,-291.05C1121.3,-291.03 1121.4,-291.02 1121.5,-291 1176.67,-281.95 1330.08,-293.62 1370.5,-255 1422.4,-205.41 1412.35,-105.66 1407.94,-75.7"/>
<polygon fill="midnightblue" stroke="midnightblue" points="1120.8,-287.57 1111.53,-292.69 1121.97,-294.47 1120.8,-287.57"/>
</g>
<!-- Node18&#45;&gt;Node10 -->
<g id="edge42" class="edge">
<title>Node18&#45;&gt;Node10</title>
<path fill="none" stroke="midnightblue" d="M1121.91,-291.08C1311.42,-265.59 1522.9,-250.49 1624.3,-244.07"/>
<polygon fill="midnightblue" stroke="midnightblue" points="1121.2,-287.65 1111.76,-292.46 1122.14,-294.58 1121.2,-287.65"/>
</g>
<!-- Node19 -->
<g id="node19" class="node">
<title>Node19</title>
<g id="a_node19"><a xlink:href="js__generic__base_8cpp.html" target="_top" xlink:title=" ">
<polygon fill="white" stroke="black" points="834.5,-224.5 834.5,-254.5 952.5,-254.5 952.5,-224.5 834.5,-224.5"/>
<text text-anchor="start" x="842.5" y="-242.5" font-family="Helvetica,sans-Serif" font-size="10.00">src/apps/js_generic</text>
<text text-anchor="middle" x="893.5" y="-231.5" font-family="Helvetica,sans-Serif" font-size="10.00">/js_generic_base.cpp</text>
</a>
</g>
</g>
<!-- Node18&#45;&gt;Node19 -->
<g id="edge29" class="edge">
<title>Node18&#45;&gt;Node19</title>
<path fill="none" stroke="midnightblue" d="M1037.09,-288.23C1007.94,-278.54 966.55,-264.78 935.69,-254.52"/>
<polygon fill="midnightblue" stroke="midnightblue" points="1036.26,-291.64 1046.85,-291.48 1038.47,-285 1036.26,-291.64"/>
</g>
<!-- Node20 -->
<g id="node20" class="node">
<title>Node20</title>
<g id="a_node20"><a xlink:href="js_2consensus_8cpp.html" target="_top" xlink:title=" ">
<polygon fill="white" stroke="black" points="594.5,-230 594.5,-249 710.5,-249 710.5,-230 594.5,-230"/>
<text text-anchor="middle" x="652.5" y="-237" font-family="Helvetica,sans-Serif" font-size="10.00">src/js/consensus.cpp</text>
</a>
</g>
</g>
<!-- Node18&#45;&gt;Node20 -->
<g id="edge31" class="edge">
<title>Node18&#45;&gt;Node20</title>
<path fill="none" stroke="midnightblue" d="M1023.37,-295.09C954.99,-287.95 827.37,-273.51 719.5,-255 709.65,-253.31 699.05,-251.17 689.25,-249.05"/>
<polygon fill="midnightblue" stroke="midnightblue" points="1023.11,-298.58 1033.42,-296.13 1023.84,-291.62 1023.11,-298.58"/>
</g>
<!-- Node21 -->
<g id="node21" class="node">
<title>Node21</title>
<g id="a_node21"><a xlink:href="conv_8cpp.html" target="_top" xlink:title=" ">
<polygon fill="white" stroke="black" points="728.5,-230 728.5,-249 816.5,-249 816.5,-230 728.5,-230"/>
<text text-anchor="middle" x="772.5" y="-237" font-family="Helvetica,sans-Serif" font-size="10.00">src/js/conv.cpp</text>
</a>
</g>
</g>
<!-- Node18&#45;&gt;Node21 -->
<g id="edge33" class="edge">
<title>Node18&#45;&gt;Node21</title>
<path fill="none" stroke="midnightblue" d="M1023.45,-292.35C973.43,-284.25 893.69,-270.51 825.5,-255 817.78,-253.24 809.49,-251.1 801.82,-249.01"/>
<polygon fill="midnightblue" stroke="midnightblue" points="1022.93,-295.81 1033.36,-293.95 1024.04,-288.9 1022.93,-295.81"/>
</g>
<!-- Node22 -->
<g id="node22" class="node">
<title>Node22</title>
<g id="a_node22"><a xlink:href="js_2crypto_8cpp.html" target="_top" xlink:title=" ">
<polygon fill="white" stroke="black" points="1116.5,-230 1116.5,-249 1212.5,-249 1212.5,-230 1116.5,-230"/>
<text text-anchor="middle" x="1164.5" y="-237" font-family="Helvetica,sans-Serif" font-size="10.00">src/js/crypto.cpp</text>
</a>
</g>
</g>
<!-- Node18&#45;&gt;Node22 -->
<g id="edge35" class="edge">
<title>Node18&#45;&gt;Node22</title>
<path fill="none" stroke="midnightblue" d="M1094.26,-285.93C1111.99,-274.46 1136.46,-258.63 1151.34,-249.01"/>
<polygon fill="midnightblue" stroke="midnightblue" points="1092.18,-283.11 1085.68,-291.48 1095.98,-288.98 1092.18,-283.11"/>
</g>
<!-- Node23 -->
<g id="node23" class="node">
<title>Node23</title>
<g id="a_node23"><a xlink:href="js_2historical_8cpp.html" target="_top" xlink:title=" ">
<polygon fill="white" stroke="black" points="1230.5,-230 1230.5,-249 1340.5,-249 1340.5,-230 1230.5,-230"/>
<text text-anchor="middle" x="1285.5" y="-237" font-family="Helvetica,sans-Serif" font-size="10.00">src/js/historical.cpp</text>
</a>
</g>
</g>
<!-- Node18&#45;&gt;Node23 -->
<g id="edge37" class="edge">
<title>Node18&#45;&gt;Node23</title>
<path fill="none" stroke="midnightblue" d="M1112.78,-288.75C1154.16,-277.19 1217.66,-259.45 1255.04,-249.01"/>
<polygon fill="midnightblue" stroke="midnightblue" points="1111.71,-285.41 1103.02,-291.48 1113.59,-292.16 1111.71,-285.41"/>
</g>
<!-- Node24 -->
<g id="node24" class="node">
<title>Node24</title>
<g id="a_node24"><a xlink:href="openenclave_8cpp.html" target="_top" xlink:title=" ">
<polygon fill="white" stroke="black" points="970.5,-230 970.5,-249 1098.5,-249 1098.5,-230 970.5,-230"/>
<text text-anchor="middle" x="1034.5" y="-237" font-family="Helvetica,sans-Serif" font-size="10.00">src/js/openenclave.cpp</text>
</a>
</g>
</g>
<!-- Node18&#45;&gt;Node24 -->
<g id="edge39" class="edge">
<title>Node18&#45;&gt;Node24</title>
<path fill="none" stroke="midnightblue" d="M1061.65,-283.01C1054.55,-271.89 1045.57,-257.84 1039.93,-249.01"/>
<polygon fill="midnightblue" stroke="midnightblue" points="1058.72,-284.93 1067.06,-291.48 1064.62,-281.16 1058.72,-284.93"/>
</g>
<!-- Node20&#45;&gt;Node3 -->
<g id="edge32" class="edge">
<title>Node20&#45;&gt;Node3</title>
<path fill="none" stroke="midnightblue" d="M678.68,-225.52C701.95,-213.98 735.3,-197.44 755.34,-187.51"/>
<polygon fill="midnightblue" stroke="midnightblue" points="677.1,-222.4 669.69,-229.98 680.21,-228.67 677.1,-222.4"/>
</g>
<!-- Node21&#45;&gt;Node3 -->
<g id="edge34" class="edge">
<title>Node21&#45;&gt;Node3</title>
<path fill="none" stroke="midnightblue" d="M772.5,-219.82C772.5,-209 772.5,-195.9 772.5,-187.51"/>
<polygon fill="midnightblue" stroke="midnightblue" points="769,-219.98 772.5,-229.98 776,-219.98 769,-219.98"/>
</g>
<!-- Node22&#45;&gt;Node3 -->
<g id="edge36" class="edge">
<title>Node22&#45;&gt;Node3</title>
<path fill="none" stroke="midnightblue" d="M1123.47,-227.46C1118.12,-226.2 1112.69,-225.01 1107.5,-224 1004.38,-204.03 881.68,-189.98 817.2,-183.34"/>
<polygon fill="midnightblue" stroke="midnightblue" points="1123.04,-230.96 1133.58,-229.94 1124.71,-224.16 1123.04,-230.96"/>
</g>
<!-- Node23&#45;&gt;Node3 -->
<g id="edge38" class="edge">
<title>Node23&#45;&gt;Node3</title>
<path fill="none" stroke="midnightblue" d="M1241.26,-227.73C1234.66,-226.34 1227.92,-225.04 1221.5,-224 1074.39,-200.06 897.95,-186.85 817.03,-181.64"/>
<polygon fill="midnightblue" stroke="midnightblue" points="1240.92,-231.24 1251.44,-229.97 1242.42,-224.41 1240.92,-231.24"/>
</g>
<!-- Node25&#45;&gt;Node5 -->
<g id="edge47" class="edge">
<title>Node25&#45;&gt;Node5</title>
<path fill="none" stroke="midnightblue" d="M1488.21,-288.12C1506.13,-281.47 1523.84,-271.11 1534.5,-255 1548.42,-233.97 1534.35,-202.84 1525.89,-187.79"/>
<polygon fill="midnightblue" stroke="midnightblue" points="1486.64,-284.95 1478.27,-291.45 1488.87,-291.59 1486.64,-284.95"/>
</g>
<!-- Node26&#45;&gt;Node5 -->
<g id="edge49" class="edge">
<title>Node26&#45;&gt;Node5</title>
<path fill="none" stroke="midnightblue" d="M1592.8,-281.03C1589.82,-264.85 1583.85,-241.49 1572.5,-224 1562.62,-208.78 1546.14,-195.77 1534.38,-187.71"/>
<polygon fill="midnightblue" stroke="midnightblue" points="1589.42,-282.05 1594.48,-291.36 1596.33,-280.93 1589.42,-282.05"/>
</g>
<!-- Node26&#45;&gt;Node10 -->
<g id="edge50" class="edge">
<title>Node26&#45;&gt;Node10</title>
<path fill="none" stroke="midnightblue" d="M1616.83,-285.74C1630.98,-276.28 1649.45,-263.93 1663.52,-254.52"/>
<polygon fill="midnightblue" stroke="midnightblue" points="1614.62,-283.01 1608.25,-291.48 1618.51,-288.83 1614.62,-283.01"/>
</g>
<!-- Node27&#45;&gt;Node5 -->
<g id="edge52" class="edge">
<title>Node27&#45;&gt;Node5</title>
<path fill="none" stroke="midnightblue" d="M1267.04,-290.21C1339.63,-280.12 1442.11,-264.55 1458.5,-255 1486.75,-238.55 1507.5,-204.02 1516.11,-187.79"/>
<polygon fill="midnightblue" stroke="midnightblue" points="1266.43,-286.76 1257,-291.6 1267.39,-293.7 1266.43,-286.76"/>
</g>
<!-- Node28&#45;&gt;Node5 -->
<g id="edge54" class="edge">
<title>Node28&#45;&gt;Node5</title>
<path fill="none" stroke="midnightblue" d="M1523.68,-347.09C1635.58,-325.48 1711.7,-353.47 1753.5,-255 1758.88,-242.32 1762.27,-234.63 1753.5,-224 1732.19,-198.18 1644.05,-187.01 1582.51,-182.29"/>
<polygon fill="midnightblue" stroke="midnightblue" points="1522.9,-343.68 1513.81,-349.11 1524.31,-350.53 1522.9,-343.68"/>
</g>
<!-- Node28&#45;&gt;Node10 -->
<g id="edge55" class="edge">
<title>Node28&#45;&gt;Node10</title>
<path fill="none" stroke="midnightblue" d="M1523.65,-346.95C1587.73,-332.56 1676.19,-312.49 1677.5,-311 1691.07,-295.58 1689.91,-270.28 1687.47,-254.55"/>
<polygon fill="midnightblue" stroke="midnightblue" points="1522.59,-343.6 1513.6,-349.2 1524.12,-350.43 1522.59,-343.6"/>
</g>
<!-- Node28&#45;&gt;Node11 -->
<g id="edge56" class="edge">
<title>Node28&#45;&gt;Node11</title>
<path fill="none" stroke="midnightblue" d="M1392.91,-356.12C1357.3,-353.27 1312.5,-349.79 1272.5,-347 1034.98,-330.44 753.88,-314.06 619.6,-306.44"/>
<polygon fill="midnightblue" stroke="midnightblue" points="1392.93,-359.64 1403.17,-356.95 1393.49,-352.66 1392.93,-359.64"/>
</g>
<!-- Node28&#45;&gt;Node25 -->
<g id="edge57" class="edge">
<title>Node28&#45;&gt;Node25</title>
<path fill="none" stroke="midnightblue" d="M1446.75,-338.2C1441.87,-328.52 1436.51,-317.88 1432.87,-310.66"/>
<polygon fill="midnightblue" stroke="midnightblue" points="1443.76,-340.05 1451.39,-347.4 1450.01,-336.89 1443.76,-340.05"/>
</g>
<!-- Node28&#45;&gt;Node26 -->
<g id="edge58" class="edge">
<title>Node28&#45;&gt;Node26</title>
<path fill="none" stroke="midnightblue" d="M1500.24,-343.37C1525.25,-332.51 1555.9,-319.2 1575.57,-310.66"/>
<polygon fill="midnightblue" stroke="midnightblue" points="1498.75,-340.21 1490.97,-347.4 1501.53,-346.63 1498.75,-340.21"/>
</g>
</g>
</svg>
