<?xml version="1.0" encoding="UTF-8" standalone="no"?>
<!DOCTYPE svg PUBLIC "-//W3C//DTD SVG 1.1//EN"
 "http://www.w3.org/Graphics/SVG/1.1/DTD/svg11.dtd">
<!-- Generated by graphviz version 2.43.0 (0)
 -->
<!-- Title: src/ds/oversized.h Pages: 1 -->
<svg width="1056pt" height="632pt"
 viewBox="0.00 0.00 1056.00 632.00" xmlns="http://www.w3.org/2000/svg" xmlns:xlink="http://www.w3.org/1999/xlink">
<g id="graph0" class="graph" transform="scale(1 1) rotate(0) translate(4 628)">
<title>src/ds/oversized.h</title>
<polygon fill="white" stroke="transparent" points="-4,4 -4,-628 1052,-628 1052,4 -4,4"/>
<!-- Node1 -->
<g id="node1" class="node">
<title>Node1</title>
<g id="a_node1"><a xlink:title=" ">
<polygon fill="#bfbfbf" stroke="black" points="500,-604.5 500,-623.5 604,-623.5 604,-604.5 500,-604.5"/>
<text text-anchor="middle" x="552" y="-611.5" font-family="Helvetica,sans-Serif" font-size="10.00">src/ds/oversized.h</text>
</a>
</g>
</g>
<!-- Node2 -->
<g id="node2" class="node">
<title>Node2</title>
<g id="a_node2"><a xlink:href="common_2configuration_8h.html" target="_top" xlink:title=" ">
<polygon fill="white" stroke="black" points="245,-548.5 245,-567.5 397,-567.5 397,-548.5 245,-548.5"/>
<text text-anchor="middle" x="321" y="-555.5" font-family="Helvetica,sans-Serif" font-size="10.00">src/common/configuration.h</text>
</a>
</g>
</g>
<!-- Node1&#45;&gt;Node2 -->
<g id="edge1" class="edge">
<title>Node1&#45;&gt;Node2</title>
<path fill="none" stroke="midnightblue" d="M505.6,-602.15C461.95,-591.95 397.49,-576.88 357.43,-567.52"/>
<polygon fill="midnightblue" stroke="midnightblue" points="504.86,-605.58 515.4,-604.44 506.46,-598.76 504.86,-605.58"/>
</g>
<!-- Node4 -->
<g id="node4" class="node">
<title>Node4</title>
<g id="a_node4"><a xlink:href="host_2main_8cpp.html" target="_top" xlink:title=" ">
<polygon fill="white" stroke="black" points="530.5,-358.5 530.5,-377.5 633.5,-377.5 633.5,-358.5 530.5,-358.5"/>
<text text-anchor="middle" x="582" y="-365.5" font-family="Helvetica,sans-Serif" font-size="10.00">src/host/main.cpp</text>
</a>
</g>
</g>
<!-- Node1&#45;&gt;Node4 -->
<g id="edge46" class="edge">
<title>Node1&#45;&gt;Node4</title>
<path fill="none" stroke="midnightblue" d="M528.03,-598.88C501.98,-581.99 461.83,-551.03 445,-512 439.54,-499.35 441.87,-494.42 445,-481 452.53,-448.67 453.96,-436.89 478,-414 497.09,-395.82 524.69,-384.35 546.66,-377.54"/>
<polygon fill="midnightblue" stroke="midnightblue" points="526.26,-601.91 536.59,-604.26 529.99,-595.98 526.26,-601.91"/>
</g>
<!-- Node12 -->
<g id="node12" class="node">
<title>Node12</title>
<g id="a_node12"><a xlink:href="enclave_2enclave_8h.html" target="_top" xlink:title=" ">
<polygon fill="white" stroke="black" points="626,-56.5 626,-75.5 748,-75.5 748,-56.5 626,-56.5"/>
<text text-anchor="middle" x="687" y="-63.5" font-family="Helvetica,sans-Serif" font-size="10.00">src/enclave/enclave.h</text>
</a>
</g>
</g>
<!-- Node1&#45;&gt;Node12 -->
<g id="edge27" class="edge">
<title>Node1&#45;&gt;Node12</title>
<path fill="none" stroke="midnightblue" d="M614.2,-611.48C747.36,-606.53 1048,-585.61 1048,-497.5 1048,-497.5 1048,-497.5 1048,-177 1048,-115.08 851.23,-84.63 748.24,-72.94"/>
<polygon fill="midnightblue" stroke="midnightblue" points="614.01,-607.98 604.14,-611.83 614.26,-614.98 614.01,-607.98"/>
</g>
<!-- Node19 -->
<g id="node19" class="node">
<title>Node19</title>
<g id="a_node19"><a xlink:href="interface_8h.html" target="_top" xlink:title=" ">
<polygon fill="white" stroke="black" points="616,-548.5 616,-567.5 744,-567.5 744,-548.5 616,-548.5"/>
<text text-anchor="middle" x="680" y="-555.5" font-family="Helvetica,sans-Serif" font-size="10.00">src/enclave/interface.h</text>
</a>
</g>
</g>
<!-- Node1&#45;&gt;Node19 -->
<g id="edge28" class="edge">
<title>Node1&#45;&gt;Node19</title>
<path fill="none" stroke="midnightblue" d="M581.62,-600.5C605.62,-590.38 638.78,-576.39 659.81,-567.52"/>
<polygon fill="midnightblue" stroke="midnightblue" points="580.14,-597.33 572.28,-604.44 582.86,-603.78 580.14,-597.33"/>
</g>
<!-- Node3 -->
<g id="node3" class="node">
<title>Node3</title>
<g id="a_node3"><a xlink:href="host_2configuration_8h.html" target="_top" xlink:title=" ">
<polygon fill="white" stroke="black" points="265.5,-420 265.5,-439 396.5,-439 396.5,-420 265.5,-420"/>
<text text-anchor="middle" x="331" y="-427" font-family="Helvetica,sans-Serif" font-size="10.00">src/host/configuration.h</text>
</a>
</g>
</g>
<!-- Node2&#45;&gt;Node3 -->
<g id="edge2" class="edge">
<title>Node2&#45;&gt;Node3</title>
<path fill="none" stroke="midnightblue" d="M322.48,-538.31C324.67,-510.58 328.7,-459.63 330.31,-439.26"/>
<polygon fill="midnightblue" stroke="midnightblue" points="318.99,-538.06 321.69,-548.31 325.96,-538.61 318.99,-538.06"/>
</g>
<!-- Node5 -->
<g id="node5" class="node">
<title>Node5</title>
<g id="a_node5"><a xlink:href="node__call__types_8h.html" target="_top" xlink:title=" ">
<polygon fill="white" stroke="black" points="83.5,-481.5 83.5,-511.5 208.5,-511.5 208.5,-481.5 83.5,-481.5"/>
<text text-anchor="start" x="91.5" y="-499.5" font-family="Helvetica,sans-Serif" font-size="10.00">src/node/rpc/node_call</text>
<text text-anchor="middle" x="146" y="-488.5" font-family="Helvetica,sans-Serif" font-size="10.00">_types.h</text>
</a>
</g>
</g>
<!-- Node2&#45;&gt;Node5 -->
<g id="edge4" class="edge">
<title>Node2&#45;&gt;Node5</title>
<path fill="none" stroke="midnightblue" d="M286.38,-545.23C257.89,-535.54 217.42,-521.78 187.24,-511.52"/>
<polygon fill="midnightblue" stroke="midnightblue" points="285.33,-548.57 295.93,-548.48 287.59,-541.94 285.33,-548.57"/>
</g>
<!-- Node3&#45;&gt;Node4 -->
<g id="edge3" class="edge">
<title>Node3&#45;&gt;Node4</title>
<path fill="none" stroke="midnightblue" d="M376.92,-417.61C425.64,-406.07 501.59,-388.06 546.1,-377.51"/>
<polygon fill="midnightblue" stroke="midnightblue" points="375.89,-414.26 366.96,-419.98 377.5,-421.07 375.89,-414.26"/>
</g>
<!-- Node6 -->
<g id="node6" class="node">
<title>Node6</title>
<g id="a_node6"><a xlink:href="call__types_8h.html" target="_top" xlink:title=" ">
<polygon fill="white" stroke="black" points="71.5,-420 71.5,-439 208.5,-439 208.5,-420 71.5,-420"/>
<text text-anchor="middle" x="140" y="-427" font-family="Helvetica,sans-Serif" font-size="10.00">src/node/rpc/call_types.h</text>
</a>
</g>
</g>
<!-- Node5&#45;&gt;Node6 -->
<g id="edge5" class="edge">
<title>Node5&#45;&gt;Node6</title>
<path fill="none" stroke="midnightblue" d="M143.76,-471.25C142.72,-460.02 141.56,-447.38 140.8,-439.19"/>
<polygon fill="midnightblue" stroke="midnightblue" points="140.29,-471.76 144.7,-481.4 147.26,-471.12 140.29,-471.76"/>
</g>
<!-- Node7 -->
<g id="node7" class="node">
<title>Node7</title>
<g id="a_node7"><a xlink:href="nobuiltins_8cpp.html" target="_top" xlink:title=" ">
<polygon fill="white" stroke="black" points="284.5,-291.5 284.5,-321.5 419.5,-321.5 419.5,-291.5 284.5,-291.5"/>
<text text-anchor="start" x="292.5" y="-309.5" font-family="Helvetica,sans-Serif" font-size="10.00">samples/apps/nobuiltins</text>
<text text-anchor="middle" x="352" y="-298.5" font-family="Helvetica,sans-Serif" font-size="10.00">/nobuiltins.cpp</text>
</a>
</g>
</g>
<!-- Node6&#45;&gt;Node7 -->
<g id="edge6" class="edge">
<title>Node6&#45;&gt;Node7</title>
<path fill="none" stroke="midnightblue" d="M164.09,-415.09C182.24,-404.96 207.73,-390.68 230,-378 264.01,-358.63 303.17,-335.93 327.75,-321.64"/>
<polygon fill="midnightblue" stroke="midnightblue" points="162.35,-412.05 155.32,-419.98 165.76,-418.17 162.35,-412.05"/>
</g>
<!-- Node8 -->
<g id="node8" class="node">
<title>Node8</title>
<g id="a_node8"><a xlink:href="common__endpoint__registry_8cpp.html" target="_top" xlink:title=" ">
<polygon fill="white" stroke="black" points="0,-291.5 0,-321.5 128,-321.5 128,-291.5 0,-291.5"/>
<text text-anchor="start" x="8" y="-309.5" font-family="Helvetica,sans-Serif" font-size="10.00">src/endpoints/common</text>
<text text-anchor="middle" x="64" y="-298.5" font-family="Helvetica,sans-Serif" font-size="10.00">_endpoint_registry.cpp</text>
</a>
</g>
</g>
<!-- Node6&#45;&gt;Node8 -->
<g id="edge7" class="edge">
<title>Node6&#45;&gt;Node8</title>
<path fill="none" stroke="midnightblue" d="M129.2,-411.31C114.06,-387.21 86.81,-343.82 72.82,-321.54"/>
<polygon fill="midnightblue" stroke="midnightblue" points="126.25,-413.19 134.53,-419.8 132.18,-409.47 126.25,-413.19"/>
</g>
<!-- Node9 -->
<g id="node9" class="node">
<title>Node9</title>
<g id="a_node9"><a xlink:href="wrap_8cpp.html" target="_top" xlink:title=" ">
<polygon fill="white" stroke="black" points="132.5,-358.5 132.5,-377.5 221.5,-377.5 221.5,-358.5 132.5,-358.5"/>
<text text-anchor="middle" x="177" y="-365.5" font-family="Helvetica,sans-Serif" font-size="10.00">src/js/wrap.cpp</text>
</a>
</g>
</g>
<!-- Node6&#45;&gt;Node9 -->
<g id="edge8" class="edge">
<title>Node6&#45;&gt;Node9</title>
<path fill="none" stroke="midnightblue" d="M150.78,-411.17C157.66,-400.11 166.27,-386.25 171.71,-377.51"/>
<polygon fill="midnightblue" stroke="midnightblue" points="147.61,-409.63 145.3,-419.98 153.55,-413.33 147.61,-409.63"/>
</g>
<!-- Node10 -->
<g id="node10" class="node">
<title>Node10</title>
<g id="a_node10"><a xlink:href="resharing_8h.html" target="_top" xlink:title=" ">
<polygon fill="white" stroke="black" points="614,-297 614,-316 730,-316 730,-297 614,-297"/>
<text text-anchor="middle" x="672" y="-304" font-family="Helvetica,sans-Serif" font-size="10.00">src/node/resharing.h</text>
</a>
</g>
</g>
<!-- Node6&#45;&gt;Node10 -->
<g id="edge9" class="edge">
<title>Node6&#45;&gt;Node10</title>
<path fill="none" stroke="midnightblue" d="M213.01,-418.49C273.01,-409.66 360.02,-395.5 435,-378 513.38,-359.7 604.08,-330.39 647.01,-316.01"/>
<polygon fill="midnightblue" stroke="midnightblue" points="212.27,-415.06 202.88,-419.96 213.28,-421.98 212.27,-415.06"/>
</g>
<!-- Node15 -->
<g id="node15" class="node">
<title>Node15</title>
<g id="a_node15"><a xlink:href="member__frontend_8h.html" target="_top" xlink:title=" ">
<polygon fill="white" stroke="black" points="146,-291.5 146,-321.5 266,-321.5 266,-291.5 146,-291.5"/>
<text text-anchor="start" x="154" y="-309.5" font-family="Helvetica,sans-Serif" font-size="10.00">src/node/rpc/member</text>
<text text-anchor="middle" x="206" y="-298.5" font-family="Helvetica,sans-Serif" font-size="10.00">_frontend.h</text>
</a>
</g>
</g>
<!-- Node6&#45;&gt;Node15 -->
<g id="edge15" class="edge">
<title>Node6&#45;&gt;Node15</title>
<path fill="none" stroke="midnightblue" d="M129.06,-410.99C121.27,-396.1 113.69,-374.57 123,-358 132.34,-341.38 149.61,-329.6 165.98,-321.62"/>
<polygon fill="midnightblue" stroke="midnightblue" points="126.03,-412.75 134.03,-419.7 132.11,-409.28 126.03,-412.75"/>
</g>
<!-- Node16 -->
<g id="node16" class="node">
<title>Node16</title>
<g id="a_node16"><a xlink:href="serialization_8h.html" target="_top" xlink:title=" ">
<polygon fill="white" stroke="black" points="278,-358.5 278,-377.5 426,-377.5 426,-358.5 278,-358.5"/>
<text text-anchor="middle" x="352" y="-365.5" font-family="Helvetica,sans-Serif" font-size="10.00">src/node/rpc/serialization.h</text>
</a>
</g>
</g>
<!-- Node6&#45;&gt;Node16 -->
<g id="edge17" class="edge">
<title>Node6&#45;&gt;Node16</title>
<path fill="none" stroke="midnightblue" d="M180.09,-417.25C221.27,-405.69 284.48,-387.95 321.68,-377.51"/>
<polygon fill="midnightblue" stroke="midnightblue" points="179.06,-413.9 170.37,-419.98 180.95,-420.64 179.06,-413.9"/>
</g>
<!-- Node11 -->
<g id="node11" class="node">
<title>Node11</title>
<g id="a_node11"><a xlink:href="node__state_8h.html" target="_top" xlink:title=" ">
<polygon fill="white" stroke="black" points="662,-168.5 662,-187.5 786,-187.5 786,-168.5 662,-168.5"/>
<text text-anchor="middle" x="724" y="-175.5" font-family="Helvetica,sans-Serif" font-size="10.00">src/node/node_state.h</text>
</a>
</g>
</g>
<!-- Node10&#45;&gt;Node11 -->
<g id="edge10" class="edge">
<title>Node10&#45;&gt;Node11</title>
<path fill="none" stroke="midnightblue" d="M679.38,-287.54C690.71,-259.98 711.95,-208.31 720.4,-187.76"/>
<polygon fill="midnightblue" stroke="midnightblue" points="676.14,-286.23 675.57,-296.81 682.61,-288.89 676.14,-286.23"/>
</g>
<!-- Node11&#45;&gt;Node12 -->
<g id="edge11" class="edge">
<title>Node11&#45;&gt;Node12</title>
<path fill="none" stroke="midnightblue" d="M724.75,-158.02C724.68,-144.76 723.37,-126.83 718,-112 712.89,-97.91 702.28,-84.07 694.91,-75.54"/>
<polygon fill="midnightblue" stroke="midnightblue" points="721.24,-158.22 724.57,-168.29 728.24,-158.35 721.24,-158.22"/>
</g>
<!-- Node14 -->
<g id="node14" class="node">
<title>Node14</title>
<g id="a_node14"><a xlink:href="gov__effects_8h.html" target="_top" xlink:title=" ">
<polygon fill="white" stroke="black" points="565,-112.5 565,-131.5 709,-131.5 709,-112.5 565,-112.5"/>
<text text-anchor="middle" x="637" y="-119.5" font-family="Helvetica,sans-Serif" font-size="10.00">src/node/rpc/gov_effects.h</text>
</a>
</g>
</g>
<!-- Node11&#45;&gt;Node14 -->
<g id="edge13" class="edge">
<title>Node11&#45;&gt;Node14</title>
<path fill="none" stroke="midnightblue" d="M701.28,-162.9C685.33,-153 664.5,-140.07 650.94,-131.65"/>
<polygon fill="midnightblue" stroke="midnightblue" points="699.68,-166.02 710.02,-168.32 703.37,-160.08 699.68,-166.02"/>
</g>
<!-- Node13 -->
<g id="node13" class="node">
<title>Node13</title>
<g id="a_node13"><a xlink:href="enclave_2main_8cpp.html" target="_top" xlink:title=" ">
<polygon fill="white" stroke="black" points="627,-0.5 627,-19.5 747,-19.5 747,-0.5 627,-0.5"/>
<text text-anchor="middle" x="687" y="-7.5" font-family="Helvetica,sans-Serif" font-size="10.00">src/enclave/main.cpp</text>
</a>
</g>
</g>
<!-- Node12&#45;&gt;Node13 -->
<g id="edge12" class="edge">
<title>Node12&#45;&gt;Node13</title>
<path fill="none" stroke="midnightblue" d="M687,-45.8C687,-36.91 687,-26.78 687,-19.75"/>
<polygon fill="midnightblue" stroke="midnightblue" points="683.5,-46.08 687,-56.08 690.5,-46.08 683.5,-46.08"/>
</g>
<!-- Node14&#45;&gt;Node12 -->
<g id="edge14" class="edge">
<title>Node14&#45;&gt;Node12</title>
<path fill="none" stroke="midnightblue" d="M652.08,-104.72C660.89,-95.2 671.67,-83.56 678.9,-75.75"/>
<polygon fill="midnightblue" stroke="midnightblue" points="649.48,-102.37 645.26,-112.08 654.62,-107.12 649.48,-102.37"/>
</g>
<!-- Node15&#45;&gt;Node12 -->
<g id="edge16" class="edge">
<title>Node15&#45;&gt;Node12</title>
<path fill="none" stroke="midnightblue" d="M234.83,-285.55C290.97,-247.42 419.84,-163.43 538,-112 575.04,-95.88 619.63,-83.24 650.33,-75.51"/>
<polygon fill="midnightblue" stroke="midnightblue" points="232.74,-282.73 226.46,-291.26 236.69,-288.51 232.74,-282.73"/>
</g>
<!-- Node16&#45;&gt;Node7 -->
<g id="edge18" class="edge">
<title>Node16&#45;&gt;Node7</title>
<path fill="none" stroke="midnightblue" d="M352,-348.23C352,-339.59 352,-329.5 352,-321.52"/>
<polygon fill="midnightblue" stroke="midnightblue" points="348.5,-348.48 352,-358.48 355.5,-348.48 348.5,-348.48"/>
</g>
<!-- Node16&#45;&gt;Node8 -->
<g id="edge19" class="edge">
<title>Node16&#45;&gt;Node8</title>
<path fill="none" stroke="midnightblue" d="M300.82,-356.43C252.57,-346.46 180.09,-331.48 128.03,-320.73"/>
<polygon fill="midnightblue" stroke="midnightblue" points="300.24,-359.88 310.74,-358.48 301.65,-353.02 300.24,-359.88"/>
</g>
<!-- Node16&#45;&gt;Node10 -->
<g id="edge21" class="edge">
<title>Node16&#45;&gt;Node10</title>
<path fill="none" stroke="midnightblue" d="M413.4,-356.73C464.71,-348 539.75,-334.86 605,-322 614.34,-320.16 624.39,-318.05 633.79,-316.03"/>
<polygon fill="midnightblue" stroke="midnightblue" points="412.74,-353.3 403.47,-358.42 413.91,-360.2 412.74,-353.3"/>
</g>
<!-- Node16&#45;&gt;Node11 -->
<g id="edge20" class="edge">
<title>Node16&#45;&gt;Node11</title>
<path fill="none" stroke="midnightblue" d="M436.28,-363.06C544.05,-357.14 719.23,-344.21 739,-322 773.7,-283.04 741.74,-212.38 728.84,-187.75"/>
<polygon fill="midnightblue" stroke="midnightblue" points="435.86,-359.57 426.06,-363.61 436.24,-366.56 435.86,-359.57"/>
</g>
<!-- Node16&#45;&gt;Node15 -->
<g id="edge22" class="edge">
<title>Node16&#45;&gt;Node15</title>
<path fill="none" stroke="midnightblue" d="M321.55,-354.59C297.88,-344.94 265.03,-331.56 240.41,-321.52"/>
<polygon fill="midnightblue" stroke="midnightblue" points="320.5,-357.94 331.08,-358.48 323.14,-351.46 320.5,-357.94"/>
</g>
<!-- Node17 -->
<g id="node17" class="node">
<title>Node17</title>
<g id="a_node17"><a xlink:href="node__frontend_8h.html" target="_top" xlink:title=" ">
<polygon fill="white" stroke="black" points="438,-297 438,-316 596,-316 596,-297 438,-297"/>
<text text-anchor="middle" x="517" y="-304" font-family="Helvetica,sans-Serif" font-size="10.00">src/node/rpc/node_frontend.h</text>
</a>
</g>
</g>
<!-- Node16&#45;&gt;Node17 -->
<g id="edge23" class="edge">
<title>Node16&#45;&gt;Node17</title>
<path fill="none" stroke="midnightblue" d="M385.05,-355.08C417.12,-343.52 465,-326.25 493.4,-316.01"/>
<polygon fill="midnightblue" stroke="midnightblue" points="383.86,-351.79 375.64,-358.48 386.23,-358.38 383.86,-351.79"/>
</g>
<!-- Node17&#45;&gt;Node12 -->
<g id="edge24" class="edge">
<title>Node17&#45;&gt;Node12</title>
<path fill="none" stroke="midnightblue" d="M515.12,-286.78C512.39,-248.89 511.8,-162.46 556,-112 573.67,-91.83 600.8,-80.69 625.79,-74.55"/>
<polygon fill="midnightblue" stroke="midnightblue" points="511.64,-287.22 515.99,-296.88 518.62,-286.62 511.64,-287.22"/>
</g>
<!-- Node18 -->
<g id="node18" class="node">
<title>Node18</title>
<g id="a_node18"><a xlink:href="jwt__key__auto__refresh_8h.html" target="_top" xlink:title=" ">
<polygon fill="white" stroke="black" points="551.5,-224.5 551.5,-254.5 676.5,-254.5 676.5,-224.5 551.5,-224.5"/>
<text text-anchor="start" x="559.5" y="-242.5" font-family="Helvetica,sans-Serif" font-size="10.00">src/node/jwt_key_auto</text>
<text text-anchor="middle" x="614" y="-231.5" font-family="Helvetica,sans-Serif" font-size="10.00">_refresh.h</text>
</a>
</g>
</g>
<!-- Node17&#45;&gt;Node18 -->
<g id="edge25" class="edge">
<title>Node17&#45;&gt;Node18</title>
<path fill="none" stroke="midnightblue" d="M538.41,-291.15C554.64,-280.27 576.84,-265.4 592.97,-254.59"/>
<polygon fill="midnightblue" stroke="midnightblue" points="536.44,-288.26 530.08,-296.73 540.34,-294.07 536.44,-288.26"/>
</g>
<!-- Node18&#45;&gt;Node11 -->
<g id="edge26" class="edge">
<title>Node18&#45;&gt;Node11</title>
<path fill="none" stroke="midnightblue" d="M649.12,-219.51C668.89,-208.81 692.62,-195.97 707.99,-187.66"/>
<polygon fill="midnightblue" stroke="midnightblue" points="647.2,-216.56 640.07,-224.4 650.53,-222.72 647.2,-216.56"/>
</g>
<!-- Node19&#45;&gt;Node5 -->
<g id="edge44" class="edge">
<title>Node19&#45;&gt;Node5</title>
<path fill="none" stroke="midnightblue" d="M605.66,-551.7C515.02,-544.77 357.31,-531.22 223,-512 218.29,-511.33 213.42,-510.56 208.54,-509.75"/>
<polygon fill="midnightblue" stroke="midnightblue" points="605.6,-555.21 615.83,-552.47 606.12,-548.23 605.6,-555.21"/>
</g>
<!-- Node19&#45;&gt;Node12 -->
<g id="edge29" class="edge">
<title>Node19&#45;&gt;Node12</title>
<path fill="none" stroke="midnightblue" d="M754.33,-551.7C824.75,-545.49 924.42,-533.24 957,-512 993.2,-488.41 1010,-473.71 1010,-430.5 1010,-430.5 1010,-430.5 1010,-177 1010,-122.28 841.77,-89.25 748.13,-75.1"/>
<polygon fill="midnightblue" stroke="midnightblue" points="753.83,-548.23 744.17,-552.57 754.43,-555.2 753.83,-548.23"/>
</g>
<!-- Node19&#45;&gt;Node16 -->
<g id="edge45" class="edge">
<title>Node19&#45;&gt;Node16</title>
<path fill="none" stroke="midnightblue" d="M605.66,-548.7C495.14,-534.61 296.15,-501.83 256,-445 248.05,-433.75 248.61,-425.63 256,-414 268.05,-395.05 290.41,-383.94 310.53,-377.5"/>
<polygon fill="midnightblue" stroke="midnightblue" points="605.39,-552.2 615.75,-549.97 606.26,-545.25 605.39,-552.2"/>
</g>
<!-- Node20 -->
<g id="node20" class="node">
<title>Node20</title>
<g id="a_node20"><a xlink:href="acme__challenge__server_8h.html" target="_top" xlink:title=" ">
<polygon fill="white" stroke="black" points="529.5,-414.5 529.5,-444.5 666.5,-444.5 666.5,-414.5 529.5,-414.5"/>
<text text-anchor="start" x="537.5" y="-432.5" font-family="Helvetica,sans-Serif" font-size="10.00">src/host/acme_challenge</text>
<text text-anchor="middle" x="598" y="-421.5" font-family="Helvetica,sans-Serif" font-size="10.00">_server.h</text>
</a>
</g>
</g>
<!-- Node19&#45;&gt;Node20 -->
<g id="edge30" class="edge">
<title>Node19&#45;&gt;Node20</title>
<path fill="none" stroke="midnightblue" d="M711.84,-543.94C725.24,-536.67 739.45,-526.17 747,-512 753.48,-499.84 755.03,-492.2 747,-481 736.62,-466.52 698.1,-453.68 662.83,-444.57"/>
<polygon fill="midnightblue" stroke="midnightblue" points="710.17,-540.87 702.79,-548.47 713.3,-547.13 710.17,-540.87"/>
</g>
<!-- Node21 -->
<g id="node21" class="node">
<title>Node21</title>
<g id="a_node21"><a xlink:href="host_2enclave_8h.html" target="_top" xlink:title=" ">
<polygon fill="white" stroke="black" points="794.5,-487 794.5,-506 899.5,-506 899.5,-487 794.5,-487"/>
<text text-anchor="middle" x="847" y="-494" font-family="Helvetica,sans-Serif" font-size="10.00">src/host/enclave.h</text>
</a>
</g>
</g>
<!-- Node19&#45;&gt;Node21 -->
<g id="edge32" class="edge">
<title>Node19&#45;&gt;Node21</title>
<path fill="none" stroke="midnightblue" d="M713.45,-545.08C745.91,-533.52 794.37,-516.25 823.12,-506.01"/>
<polygon fill="midnightblue" stroke="midnightblue" points="712.17,-541.82 703.93,-548.48 714.52,-548.42 712.17,-541.82"/>
</g>
<!-- Node24 -->
<g id="node24" class="node">
<title>Node24</title>
<g id="a_node24"><a xlink:href="handle__ring__buffer_8h.html" target="_top" xlink:title=" ">
<polygon fill="white" stroke="black" points="622.5,-481.5 622.5,-511.5 737.5,-511.5 737.5,-481.5 622.5,-481.5"/>
<text text-anchor="start" x="630.5" y="-499.5" font-family="Helvetica,sans-Serif" font-size="10.00">src/host/handle_ring</text>
<text text-anchor="middle" x="680" y="-488.5" font-family="Helvetica,sans-Serif" font-size="10.00">_buffer.h</text>
</a>
</g>
</g>
<!-- Node19&#45;&gt;Node24 -->
<g id="edge38" class="edge">
<title>Node19&#45;&gt;Node24</title>
<path fill="none" stroke="midnightblue" d="M680,-538.23C680,-529.59 680,-519.5 680,-511.52"/>
<polygon fill="midnightblue" stroke="midnightblue" points="676.5,-538.48 680,-548.48 683.5,-538.48 676.5,-538.48"/>
</g>
<!-- Node25 -->
<g id="node25" class="node">
<title>Node25</title>
<g id="a_node25"><a xlink:href="process__launcher_8h.html" target="_top" xlink:title=" ">
<polygon fill="white" stroke="black" points="453.5,-487 453.5,-506 604.5,-506 604.5,-487 453.5,-487"/>
<text text-anchor="middle" x="529" y="-494" font-family="Helvetica,sans-Serif" font-size="10.00">src/host/process_launcher.h</text>
</a>
</g>
</g>
<!-- Node19&#45;&gt;Node25 -->
<g id="edge40" class="edge">
<title>Node19&#45;&gt;Node25</title>
<path fill="none" stroke="midnightblue" d="M648.99,-544.78C619.65,-533.22 576.37,-516.16 550.59,-506.01"/>
<polygon fill="midnightblue" stroke="midnightblue" points="647.78,-548.07 658.37,-548.48 650.34,-541.55 647.78,-548.07"/>
</g>
<!-- Node26 -->
<g id="node26" class="node">
<title>Node26</title>
<g id="a_node26"><a xlink:href="ccf__acme__client_8h.html" target="_top" xlink:title=" ">
<polygon fill="white" stroke="black" points="827.5,-230 827.5,-249 976.5,-249 976.5,-230 827.5,-230"/>
<text text-anchor="middle" x="902" y="-237" font-family="Helvetica,sans-Serif" font-size="10.00">src/node/ccf_acme_client.h</text>
</a>
</g>
</g>
<!-- Node19&#45;&gt;Node26 -->
<g id="edge42" class="edge">
<title>Node19&#45;&gt;Node26</title>
<path fill="none" stroke="midnightblue" d="M754.13,-555.74C840.64,-549.88 972,-525.36 972,-430.5 972,-430.5 972,-430.5 972,-367 972,-317.05 929.7,-268.32 910.87,-249.09"/>
<polygon fill="midnightblue" stroke="midnightblue" points="753.85,-552.25 744.08,-556.35 754.27,-559.24 753.85,-552.25"/>
</g>
<!-- Node20&#45;&gt;Node4 -->
<g id="edge31" class="edge">
<title>Node20&#45;&gt;Node4</title>
<path fill="none" stroke="midnightblue" d="M591.57,-404.59C589.01,-395.08 586.23,-384.73 584.33,-377.66"/>
<polygon fill="midnightblue" stroke="midnightblue" points="588.23,-405.65 594.21,-414.4 594.99,-403.83 588.23,-405.65"/>
</g>
<!-- Node21&#45;&gt;Node4 -->
<g id="edge33" class="edge">
<title>Node21&#45;&gt;Node4</title>
<path fill="none" stroke="midnightblue" d="M838.76,-477.72C829.09,-458.89 811.23,-429.74 787,-414 740.86,-384.03 677.83,-373.76 633.88,-370.37"/>
<polygon fill="midnightblue" stroke="midnightblue" points="835.64,-479.3 843.18,-486.74 841.92,-476.22 835.64,-479.3"/>
</g>
<!-- Node22 -->
<g id="node22" class="node">
<title>Node22</title>
<g id="a_node22"><a xlink:href="sig__term_8h.html" target="_top" xlink:title=" ">
<polygon fill="white" stroke="black" points="834,-420 834,-439 944,-439 944,-420 834,-420"/>
<text text-anchor="middle" x="889" y="-427" font-family="Helvetica,sans-Serif" font-size="10.00">src/host/sig_term.h</text>
</a>
</g>
</g>
<!-- Node21&#45;&gt;Node22 -->
<g id="edge34" class="edge">
<title>Node21&#45;&gt;Node22</title>
<path fill="none" stroke="midnightblue" d="M858.29,-478.03C866.42,-465.45 877.04,-449.01 883.43,-439.13"/>
<polygon fill="midnightblue" stroke="midnightblue" points="855.15,-476.44 852.66,-486.73 861.03,-480.23 855.15,-476.44"/>
</g>
<!-- Node23 -->
<g id="node23" class="node">
<title>Node23</title>
<g id="a_node23"><a xlink:href="ticker_8h.html" target="_top" xlink:title=" ">
<polygon fill="white" stroke="black" points="684.5,-420 684.5,-439 777.5,-439 777.5,-420 684.5,-420"/>
<text text-anchor="middle" x="731" y="-427" font-family="Helvetica,sans-Serif" font-size="10.00">src/host/ticker.h</text>
</a>
</g>
</g>
<!-- Node21&#45;&gt;Node23 -->
<g id="edge36" class="edge">
<title>Node21&#45;&gt;Node23</title>
<path fill="none" stroke="midnightblue" d="M822.53,-481.79C799.54,-468.9 765.84,-450.02 746.4,-439.13"/>
<polygon fill="midnightblue" stroke="midnightblue" points="820.92,-484.9 831.36,-486.73 824.34,-478.79 820.92,-484.9"/>
</g>
<!-- Node22&#45;&gt;Node4 -->
<g id="edge35" class="edge">
<title>Node22&#45;&gt;Node4</title>
<path fill="none" stroke="midnightblue" d="M838.97,-417.86C832.59,-416.54 826.14,-415.23 820,-414 753.61,-400.75 676.59,-386.37 628.57,-377.52"/>
<polygon fill="midnightblue" stroke="midnightblue" points="838.39,-421.32 848.89,-419.93 839.82,-414.46 838.39,-421.32"/>
</g>
<!-- Node23&#45;&gt;Node4 -->
<g id="edge37" class="edge">
<title>Node23&#45;&gt;Node4</title>
<path fill="none" stroke="midnightblue" d="M700.03,-416.13C671.08,-404.57 628.63,-387.62 603.31,-377.51"/>
<polygon fill="midnightblue" stroke="midnightblue" points="699.07,-419.52 709.65,-419.98 701.66,-413.02 699.07,-419.52"/>
</g>
<!-- Node24&#45;&gt;Node4 -->
<g id="edge39" class="edge">
<title>Node24&#45;&gt;Node4</title>
<path fill="none" stroke="midnightblue" d="M615.15,-478.78C573.84,-467.48 526.98,-453.17 521,-445 512.86,-433.88 514.79,-426.3 521,-414 529.54,-397.08 547.78,-384.96 562.09,-377.59"/>
<polygon fill="midnightblue" stroke="midnightblue" points="614.39,-482.2 624.96,-481.44 616.22,-475.44 614.39,-482.2"/>
</g>
<!-- Node25&#45;&gt;Node4 -->
<g id="edge41" class="edge">
<title>Node25&#45;&gt;Node4</title>
<path fill="none" stroke="midnightblue" d="M511.19,-480C494.18,-463.27 473.05,-436.05 487,-414 498.91,-395.19 521.04,-384.08 540.95,-377.62"/>
<polygon fill="midnightblue" stroke="midnightblue" points="508.87,-482.63 518.57,-486.9 513.65,-477.52 508.87,-482.63"/>
</g>
<!-- Node26&#45;&gt;Node11 -->
<g id="edge43" class="edge">
<title>Node26&#45;&gt;Node11</title>
<path fill="none" stroke="midnightblue" d="M866.79,-226.73C832.19,-215.17 780.23,-197.8 749.46,-187.51"/>
<polygon fill="midnightblue" stroke="midnightblue" points="865.9,-230.12 876.5,-229.98 868.12,-223.49 865.9,-230.12"/>
</g>
</g>
</svg>
