<?xml version="1.0" encoding="UTF-8" standalone="no"?>
<!DOCTYPE svg PUBLIC "-//W3C//DTD SVG 1.1//EN"
 "http://www.w3.org/Graphics/SVG/1.1/DTD/svg11.dtd">
<!-- Generated by graphviz version 2.43.0 (0)
 -->
<!-- Title: include/ccf/service/tables/proposals.h Pages: 1 -->
<svg width="1664pt" height="520pt"
 viewBox="0.00 0.00 1664.17 520.00" xmlns="http://www.w3.org/2000/svg" xmlns:xlink="http://www.w3.org/1999/xlink">
<g id="graph0" class="graph" transform="scale(1 1) rotate(0) translate(4 516)">
<title>include/ccf/service/tables/proposals.h</title>
<polygon fill="white" stroke="transparent" points="-4,4 -4,-516 1660.17,-516 1660.17,4 -4,4"/>
<!-- Node1 -->
<g id="node1" class="node">
<title>Node1</title>
<g id="a_node1"><a xlink:title=" ">
<polygon fill="#bfbfbf" stroke="black" points="1380.67,-481.5 1380.67,-511.5 1489.67,-511.5 1489.67,-481.5 1380.67,-481.5"/>
<text text-anchor="start" x="1388.67" y="-499.5" font-family="Helvetica,sans-Serif" font-size="10.00">include/ccf/service</text>
<text text-anchor="middle" x="1435.17" y="-488.5" font-family="Helvetica,sans-Serif" font-size="10.00">/tables/proposals.h</text>
</a>
</g>
</g>
<!-- Node2 -->
<g id="node2" class="node">
<title>Node2</title>
<g id="a_node2"><a xlink:href="gov_8h.html" target="_top" xlink:title=" ">
<polygon fill="white" stroke="black" points="1503.67,-414.5 1503.67,-444.5 1610.67,-444.5 1610.67,-414.5 1503.67,-414.5"/>
<text text-anchor="start" x="1511.67" y="-432.5" font-family="Helvetica,sans-Serif" font-size="10.00">include/ccf/service</text>
<text text-anchor="middle" x="1557.17" y="-421.5" font-family="Helvetica,sans-Serif" font-size="10.00">/tables/gov.h</text>
</a>
</g>
</g>
<!-- Node1&#45;&gt;Node2 -->
<g id="edge1" class="edge">
<title>Node1&#45;&gt;Node2</title>
<path fill="none" stroke="midnightblue" d="M1470.69,-476.57C1489.88,-466.35 1513.18,-453.94 1530.75,-444.58"/>
<polygon fill="midnightblue" stroke="midnightblue" points="1468.82,-473.6 1461.64,-481.4 1472.12,-479.78 1468.82,-473.6"/>
</g>
<!-- Node6 -->
<g id="node6" class="node">
<title>Node6</title>
<g id="a_node6"><a xlink:href="network__tables_8h.html" target="_top" xlink:title=" ">
<polygon fill="white" stroke="black" points="1315.17,-414.5 1315.17,-444.5 1427.17,-444.5 1427.17,-414.5 1315.17,-414.5"/>
<text text-anchor="start" x="1323.17" y="-432.5" font-family="Helvetica,sans-Serif" font-size="10.00">src/service/network</text>
<text text-anchor="middle" x="1371.17" y="-421.5" font-family="Helvetica,sans-Serif" font-size="10.00">_tables.h</text>
</a>
</g>
</g>
<!-- Node1&#45;&gt;Node6 -->
<g id="edge5" class="edge">
<title>Node1&#45;&gt;Node6</title>
<path fill="none" stroke="midnightblue" d="M1414.03,-474.02C1404.49,-464.34 1393.5,-453.17 1385.03,-444.58"/>
<polygon fill="midnightblue" stroke="midnightblue" points="1411.77,-476.73 1421.28,-481.4 1416.76,-471.81 1411.77,-476.73"/>
</g>
<!-- Node3 -->
<g id="node3" class="node">
<title>Node3</title>
<g id="a_node3"><a xlink:href="member__frontend_8h.html" target="_top" xlink:title=" ">
<polygon fill="white" stroke="black" points="1536.17,-224.5 1536.17,-254.5 1656.17,-254.5 1656.17,-224.5 1536.17,-224.5"/>
<text text-anchor="start" x="1544.17" y="-242.5" font-family="Helvetica,sans-Serif" font-size="10.00">src/node/rpc/member</text>
<text text-anchor="middle" x="1596.17" y="-231.5" font-family="Helvetica,sans-Serif" font-size="10.00">_frontend.h</text>
</a>
</g>
</g>
<!-- Node2&#45;&gt;Node3 -->
<g id="edge2" class="edge">
<title>Node2&#45;&gt;Node3</title>
<path fill="none" stroke="midnightblue" d="M1579.75,-406.62C1586.73,-398.38 1593.53,-388.46 1597.17,-378 1612.08,-335.16 1604.31,-280.17 1599.31,-254.66"/>
<polygon fill="midnightblue" stroke="midnightblue" points="1576.95,-404.49 1572.82,-414.25 1582.13,-409.19 1576.95,-404.49"/>
</g>
<!-- Node4 -->
<g id="node4" class="node">
<title>Node4</title>
<g id="a_node4"><a xlink:href="enclave_2enclave_8h.html" target="_top" xlink:title=" ">
<polygon fill="white" stroke="black" points="1000.17,-56.5 1000.17,-75.5 1122.17,-75.5 1122.17,-56.5 1000.17,-56.5"/>
<text text-anchor="middle" x="1061.17" y="-63.5" font-family="Helvetica,sans-Serif" font-size="10.00">src/enclave/enclave.h</text>
</a>
</g>
</g>
<!-- Node3&#45;&gt;Node4 -->
<g id="edge3" class="edge">
<title>Node3&#45;&gt;Node4</title>
<path fill="none" stroke="midnightblue" d="M1557,-220.18C1498.07,-193.22 1382.57,-142.75 1280.17,-112 1225.34,-95.53 1160.99,-83.1 1116.29,-75.52"/>
<polygon fill="midnightblue" stroke="midnightblue" points="1555.76,-223.46 1566.31,-224.45 1558.68,-217.1 1555.76,-223.46"/>
</g>
<!-- Node5 -->
<g id="node5" class="node">
<title>Node5</title>
<g id="a_node5"><a xlink:href="enclave_2main_8cpp.html" target="_top" xlink:title=" ">
<polygon fill="white" stroke="black" points="1001.17,-0.5 1001.17,-19.5 1121.17,-19.5 1121.17,-0.5 1001.17,-0.5"/>
<text text-anchor="middle" x="1061.17" y="-7.5" font-family="Helvetica,sans-Serif" font-size="10.00">src/enclave/main.cpp</text>
</a>
</g>
</g>
<!-- Node4&#45;&gt;Node5 -->
<g id="edge4" class="edge">
<title>Node4&#45;&gt;Node5</title>
<path fill="none" stroke="midnightblue" d="M1061.17,-45.8C1061.17,-36.91 1061.17,-26.78 1061.17,-19.75"/>
<polygon fill="midnightblue" stroke="midnightblue" points="1057.67,-46.08 1061.17,-56.08 1064.67,-46.08 1057.67,-46.08"/>
</g>
<!-- Node7 -->
<g id="node7" class="node">
<title>Node7</title>
<g id="a_node7"><a xlink:href="kv__module__loader_8cpp.html" target="_top" xlink:title=" ">
<polygon fill="white" stroke="black" points="1444.67,-347.5 1444.67,-377.5 1587.67,-377.5 1587.67,-347.5 1444.67,-347.5"/>
<text text-anchor="start" x="1452.67" y="-365.5" font-family="Helvetica,sans-Serif" font-size="10.00">src/apps/js_v8/kv_module</text>
<text text-anchor="middle" x="1516.17" y="-354.5" font-family="Helvetica,sans-Serif" font-size="10.00">_loader.cpp</text>
</a>
</g>
</g>
<!-- Node6&#45;&gt;Node7 -->
<g id="edge6" class="edge">
<title>Node6&#45;&gt;Node7</title>
<path fill="none" stroke="midnightblue" d="M1411.84,-410.27C1434.94,-399.92 1463.41,-387.15 1484.77,-377.58"/>
<polygon fill="midnightblue" stroke="midnightblue" points="1410.33,-407.11 1402.63,-414.4 1413.19,-413.5 1410.33,-407.11"/>
</g>
<!-- Node8 -->
<g id="node8" class="node">
<title>Node8</title>
<g id="a_node8"><a xlink:href="ccf__acme__client_8h.html" target="_top" xlink:title=" ">
<polygon fill="white" stroke="black" points="1148.67,-353 1148.67,-372 1297.67,-372 1297.67,-353 1148.67,-353"/>
<text text-anchor="middle" x="1223.17" y="-360" font-family="Helvetica,sans-Serif" font-size="10.00">src/node/ccf_acme_client.h</text>
</a>
</g>
</g>
<!-- Node6&#45;&gt;Node8 -->
<g id="edge7" class="edge">
<title>Node6&#45;&gt;Node8</title>
<path fill="none" stroke="midnightblue" d="M1329.72,-410.3C1301.18,-397.76 1264.57,-381.68 1242.54,-372.01"/>
<polygon fill="midnightblue" stroke="midnightblue" points="1328.49,-413.58 1339.06,-414.4 1331.31,-407.17 1328.49,-413.58"/>
</g>
<!-- Node11 -->
<g id="node11" class="node">
<title>Node11</title>
<g id="a_node11"><a xlink:href="network__state_8h.html" target="_top" xlink:title=" ">
<polygon fill="white" stroke="black" points="873.17,-353 873.17,-372 1013.17,-372 1013.17,-353 873.17,-353"/>
<text text-anchor="middle" x="943.17" y="-360" font-family="Helvetica,sans-Serif" font-size="10.00">src/node/network_state.h</text>
</a>
</g>
</g>
<!-- Node6&#45;&gt;Node11 -->
<g id="edge12" class="edge">
<title>Node6&#45;&gt;Node11</title>
<path fill="none" stroke="midnightblue" d="M1304.85,-418.43C1221,-405.69 1078.09,-383.99 999.35,-372.03"/>
<polygon fill="midnightblue" stroke="midnightblue" points="1304.37,-421.89 1314.78,-419.94 1305.42,-414.97 1304.37,-421.89"/>
</g>
<!-- Node26 -->
<g id="node26" class="node">
<title>Node26</title>
<g id="a_node26"><a xlink:href="genesis__gen_8h.html" target="_top" xlink:title=" ">
<polygon fill="white" stroke="black" points="1316.17,-347.5 1316.17,-377.5 1426.17,-377.5 1426.17,-347.5 1316.17,-347.5"/>
<text text-anchor="start" x="1324.17" y="-365.5" font-family="Helvetica,sans-Serif" font-size="10.00">src/service/genesis</text>
<text text-anchor="middle" x="1371.17" y="-354.5" font-family="Helvetica,sans-Serif" font-size="10.00">_gen.h</text>
</a>
</g>
</g>
<!-- Node6&#45;&gt;Node26 -->
<g id="edge43" class="edge">
<title>Node6&#45;&gt;Node26</title>
<path fill="none" stroke="midnightblue" d="M1371.17,-404.11C1371.17,-395.15 1371.17,-385.32 1371.17,-377.58"/>
<polygon fill="midnightblue" stroke="midnightblue" points="1367.67,-404.4 1371.17,-414.4 1374.67,-404.4 1367.67,-404.4"/>
</g>
<!-- Node9 -->
<g id="node9" class="node">
<title>Node9</title>
<g id="a_node9"><a xlink:href="node__state_8h.html" target="_top" xlink:title=" ">
<polygon fill="white" stroke="black" points="1132.17,-168.5 1132.17,-187.5 1256.17,-187.5 1256.17,-168.5 1132.17,-168.5"/>
<text text-anchor="middle" x="1194.17" y="-175.5" font-family="Helvetica,sans-Serif" font-size="10.00">src/node/node_state.h</text>
</a>
</g>
</g>
<!-- Node8&#45;&gt;Node9 -->
<g id="edge8" class="edge">
<title>Node8&#45;&gt;Node9</title>
<path fill="none" stroke="midnightblue" d="M1262.74,-348.89C1280.56,-341.01 1299.88,-328.88 1310.17,-311 1314.61,-303.3 1312.14,-299.67 1310.17,-291 1302.88,-258.82 1300.96,-247.87 1278.17,-224 1261.83,-206.89 1237.54,-194.85 1219.27,-187.56"/>
<polygon fill="midnightblue" stroke="midnightblue" points="1260.99,-345.82 1253.06,-352.84 1263.64,-352.3 1260.99,-345.82"/>
</g>
<!-- Node9&#45;&gt;Node4 -->
<g id="edge9" class="edge">
<title>Node9&#45;&gt;Node4</title>
<path fill="none" stroke="midnightblue" d="M1167.33,-163.81C1152.14,-155.7 1133.22,-144.49 1118.17,-132 1097.15,-114.55 1077.21,-89.06 1067.44,-75.78"/>
<polygon fill="midnightblue" stroke="midnightblue" points="1165.76,-166.94 1176.25,-168.44 1168.99,-160.73 1165.76,-166.94"/>
</g>
<!-- Node10 -->
<g id="node10" class="node">
<title>Node10</title>
<g id="a_node10"><a xlink:href="gov__effects_8h.html" target="_top" xlink:title=" ">
<polygon fill="white" stroke="black" points="1127.17,-112.5 1127.17,-131.5 1271.17,-131.5 1271.17,-112.5 1127.17,-112.5"/>
<text text-anchor="middle" x="1199.17" y="-119.5" font-family="Helvetica,sans-Serif" font-size="10.00">src/node/rpc/gov_effects.h</text>
</a>
</g>
</g>
<!-- Node9&#45;&gt;Node10 -->
<g id="edge10" class="edge">
<title>Node9&#45;&gt;Node10</title>
<path fill="none" stroke="midnightblue" d="M1195.92,-158.1C1196.75,-149.14 1197.7,-138.86 1198.36,-131.75"/>
<polygon fill="midnightblue" stroke="midnightblue" points="1192.43,-157.8 1195,-168.08 1199.4,-158.45 1192.43,-157.8"/>
</g>
<!-- Node10&#45;&gt;Node4 -->
<g id="edge11" class="edge">
<title>Node10&#45;&gt;Node4</title>
<path fill="none" stroke="midnightblue" d="M1167.92,-108.77C1142,-98.63 1105.81,-84.47 1082.94,-75.52"/>
<polygon fill="midnightblue" stroke="midnightblue" points="1166.72,-112.06 1177.31,-112.44 1169.27,-105.54 1166.72,-112.06"/>
</g>
<!-- Node11&#45;&gt;Node4 -->
<g id="edge13" class="edge">
<title>Node11&#45;&gt;Node4</title>
<path fill="none" stroke="midnightblue" d="M862.93,-359.57C635.19,-353.04 1.17,-327.07 1.17,-240.5 1.17,-240.5 1.17,-240.5 1.17,-177 1.17,-146.9 -3.52,-130.57 20.17,-112 58.86,-81.68 782.41,-70.4 999.87,-67.69"/>
<polygon fill="midnightblue" stroke="midnightblue" points="863.04,-363.08 873.14,-359.86 863.24,-356.08 863.04,-363.08"/>
</g>
<!-- Node11&#45;&gt;Node9 -->
<g id="edge29" class="edge">
<title>Node11&#45;&gt;Node9</title>
<path fill="none" stroke="midnightblue" d="M943.7,-342.94C945.09,-327.32 949.4,-305.31 962.17,-291 991.13,-258.55 1013.74,-273.35 1053.17,-255 1100.57,-232.94 1154.4,-202.29 1179.64,-187.57"/>
<polygon fill="midnightblue" stroke="midnightblue" points="940.2,-342.8 943.12,-352.98 947.19,-343.2 940.2,-342.8"/>
</g>
<!-- Node12 -->
<g id="node12" class="node">
<title>Node12</title>
<g id="a_node12"><a xlink:href="wrap_8h.html" target="_top" xlink:title=" ">
<polygon fill="white" stroke="black" points="676.17,-291.5 676.17,-310.5 754.17,-310.5 754.17,-291.5 676.17,-291.5"/>
<text text-anchor="middle" x="715.17" y="-298.5" font-family="Helvetica,sans-Serif" font-size="10.00">src/js/wrap.h</text>
</a>
</g>
</g>
<!-- Node11&#45;&gt;Node12 -->
<g id="edge14" class="edge">
<title>Node11&#45;&gt;Node12</title>
<path fill="none" stroke="midnightblue" d="M900.62,-350.4C856.34,-338.84 787.96,-321 747.78,-310.51"/>
<polygon fill="midnightblue" stroke="midnightblue" points="899.95,-353.84 910.51,-352.98 901.71,-347.06 899.95,-353.84"/>
</g>
<!-- Node20 -->
<g id="node20" class="node">
<title>Node20</title>
<g id="a_node20"><a xlink:href="node__frontend_8h.html" target="_top" xlink:title=" ">
<polygon fill="white" stroke="black" points="971.17,-291.5 971.17,-310.5 1129.17,-310.5 1129.17,-291.5 971.17,-291.5"/>
<text text-anchor="middle" x="1050.17" y="-298.5" font-family="Helvetica,sans-Serif" font-size="10.00">src/node/rpc/node_frontend.h</text>
</a>
</g>
</g>
<!-- Node11&#45;&gt;Node20 -->
<g id="edge30" class="edge">
<title>Node11&#45;&gt;Node20</title>
<path fill="none" stroke="midnightblue" d="M967.35,-348.06C988.05,-336.54 1017.24,-320.31 1034.87,-310.51"/>
<polygon fill="midnightblue" stroke="midnightblue" points="965.54,-345.06 958.5,-352.98 968.94,-351.17 965.54,-345.06"/>
</g>
<!-- Node22 -->
<g id="node22" class="node">
<title>Node22</title>
<g id="a_node22"><a xlink:href="user__frontend_8h.html" target="_top" xlink:title=" ">
<polygon fill="white" stroke="black" points="29.67,-112.5 29.67,-131.5 184.67,-131.5 184.67,-112.5 29.67,-112.5"/>
<text text-anchor="middle" x="107.17" y="-119.5" font-family="Helvetica,sans-Serif" font-size="10.00">src/node/rpc/user_frontend.h</text>
</a>
</g>
</g>
<!-- Node11&#45;&gt;Node22 -->
<g id="edge34" class="edge">
<title>Node11&#45;&gt;Node22</title>
<path fill="none" stroke="midnightblue" d="M862.8,-360.96C684.22,-358.15 261.72,-342.23 154.17,-255 114.87,-223.13 108.41,-155.91 107.36,-131.82"/>
<polygon fill="midnightblue" stroke="midnightblue" points="862.87,-364.46 872.92,-361.1 862.97,-357.46 862.87,-364.46"/>
</g>
<!-- Node23 -->
<g id="node23" class="node">
<title>Node23</title>
<g id="a_node23"><a xlink:href="secret__broadcast_8h.html" target="_top" xlink:title=" ">
<polygon fill="white" stroke="black" points="1147.67,-291.5 1147.67,-310.5 1300.67,-310.5 1300.67,-291.5 1147.67,-291.5"/>
<text text-anchor="middle" x="1224.17" y="-298.5" font-family="Helvetica,sans-Serif" font-size="10.00">src/node/secret_broadcast.h</text>
</a>
</g>
</g>
<!-- Node11&#45;&gt;Node23 -->
<g id="edge36" class="edge">
<title>Node11&#45;&gt;Node23</title>
<path fill="none" stroke="midnightblue" d="M993.22,-350.9C1047.7,-339.37 1133.73,-321.15 1183.99,-310.51"/>
<polygon fill="midnightblue" stroke="midnightblue" points="992.49,-347.48 983.43,-352.98 993.94,-354.33 992.49,-347.48"/>
</g>
<!-- Node24 -->
<g id="node24" class="node">
<title>Node24</title>
<g id="a_node24"><a xlink:href="share__manager_8h.html" target="_top" xlink:title=" ">
<polygon fill="white" stroke="black" points="1357.67,-291.5 1357.67,-310.5 1502.67,-310.5 1502.67,-291.5 1357.67,-291.5"/>
<text text-anchor="middle" x="1430.17" y="-298.5" font-family="Helvetica,sans-Serif" font-size="10.00">src/node/share_manager.h</text>
</a>
</g>
</g>
<!-- Node11&#45;&gt;Node24 -->
<g id="edge38" class="edge">
<title>Node11&#45;&gt;Node24</title>
<path fill="none" stroke="midnightblue" d="M1022.96,-351.75C1116.86,-340.28 1271.27,-321.41 1360.53,-310.51"/>
<polygon fill="midnightblue" stroke="midnightblue" points="1022.45,-348.29 1012.95,-352.98 1023.3,-355.24 1022.45,-348.29"/>
</g>
<!-- Node25 -->
<g id="node25" class="node">
<title>Node25</title>
<g id="a_node25"><a xlink:href="snapshotter_8h.html" target="_top" xlink:title=" ">
<polygon fill="white" stroke="black" points="787.67,-291.5 787.67,-310.5 914.67,-310.5 914.67,-291.5 787.67,-291.5"/>
<text text-anchor="middle" x="851.17" y="-298.5" font-family="Helvetica,sans-Serif" font-size="10.00">src/node/snapshotter.h</text>
</a>
</g>
</g>
<!-- Node11&#45;&gt;Node25 -->
<g id="edge41" class="edge">
<title>Node11&#45;&gt;Node25</title>
<path fill="none" stroke="midnightblue" d="M921.42,-347.43C903.68,-335.96 879.21,-320.13 864.33,-310.51"/>
<polygon fill="midnightblue" stroke="midnightblue" points="919.69,-350.48 929.99,-352.98 923.49,-344.61 919.69,-350.48"/>
</g>
<!-- Node12&#45;&gt;Node3 -->
<g id="edge28" class="edge">
<title>Node12&#45;&gt;Node3</title>
<path fill="none" stroke="midnightblue" d="M764.49,-292.57C769.11,-291.99 773.72,-291.45 778.17,-291 1060.91,-262.12 1400.44,-247.56 1536,-242.56"/>
<polygon fill="midnightblue" stroke="midnightblue" points="763.89,-289.12 754.43,-293.9 764.8,-296.06 763.89,-289.12"/>
</g>
<!-- Node12&#45;&gt;Node4 -->
<g id="edge16" class="edge">
<title>Node12&#45;&gt;Node4</title>
<path fill="none" stroke="midnightblue" d="M665.46,-299.69C536.3,-298.38 197.78,-291.47 164.17,-255 154.83,-244.87 155.66,-234.83 164.17,-224 267.71,-92.23 814.92,-71.03 999.96,-67.64"/>
<polygon fill="midnightblue" stroke="midnightblue" points="665.81,-303.2 675.84,-299.79 665.88,-296.2 665.81,-303.2"/>
</g>
<!-- Node12&#45;&gt;Node9 -->
<g id="edge27" class="edge">
<title>Node12&#45;&gt;Node9</title>
<path fill="none" stroke="midnightblue" d="M764.49,-292.7C832.43,-282.41 948.44,-263.91 966.17,-255 984.15,-245.96 981.42,-233.48 999.17,-224 1040.39,-201.99 1092.13,-190.68 1131.95,-184.91"/>
<polygon fill="midnightblue" stroke="midnightblue" points="763.8,-289.27 754.43,-294.22 764.84,-296.19 763.8,-289.27"/>
</g>
<!-- Node13 -->
<g id="node13" class="node">
<title>Node13</title>
<g id="a_node13"><a xlink:href="js__generic__base_8cpp.html" target="_top" xlink:title=" ">
<polygon fill="white" stroke="black" points="521.17,-224.5 521.17,-254.5 639.17,-254.5 639.17,-224.5 521.17,-224.5"/>
<text text-anchor="start" x="529.17" y="-242.5" font-family="Helvetica,sans-Serif" font-size="10.00">src/apps/js_generic</text>
<text text-anchor="middle" x="580.17" y="-231.5" font-family="Helvetica,sans-Serif" font-size="10.00">/js_generic_base.cpp</text>
</a>
</g>
</g>
<!-- Node12&#45;&gt;Node13 -->
<g id="edge15" class="edge">
<title>Node12&#45;&gt;Node13</title>
<path fill="none" stroke="midnightblue" d="M686.43,-287.33C664.58,-277.7 634.55,-264.47 611.99,-254.52"/>
<polygon fill="midnightblue" stroke="midnightblue" points="685.27,-290.64 695.83,-291.48 688.09,-284.24 685.27,-290.64"/>
</g>
<!-- Node14 -->
<g id="node14" class="node">
<title>Node14</title>
<g id="a_node14"><a xlink:href="js_2consensus_8cpp.html" target="_top" xlink:title=" ">
<polygon fill="white" stroke="black" points="657.17,-230 657.17,-249 773.17,-249 773.17,-230 657.17,-230"/>
<text text-anchor="middle" x="715.17" y="-237" font-family="Helvetica,sans-Serif" font-size="10.00">src/js/consensus.cpp</text>
</a>
</g>
</g>
<!-- Node12&#45;&gt;Node14 -->
<g id="edge17" class="edge">
<title>Node12&#45;&gt;Node14</title>
<path fill="none" stroke="midnightblue" d="M715.17,-281.32C715.17,-270.5 715.17,-257.4 715.17,-249.01"/>
<polygon fill="midnightblue" stroke="midnightblue" points="711.67,-281.48 715.17,-291.48 718.67,-281.48 711.67,-281.48"/>
</g>
<!-- Node15 -->
<g id="node15" class="node">
<title>Node15</title>
<g id="a_node15"><a xlink:href="wrap_8cpp.html" target="_top" xlink:title=" ">
<polygon fill="white" stroke="black" points="403.67,-168.5 403.67,-187.5 492.67,-187.5 492.67,-168.5 403.67,-168.5"/>
<text text-anchor="middle" x="448.17" y="-175.5" font-family="Helvetica,sans-Serif" font-size="10.00">src/js/wrap.cpp</text>
</a>
</g>
</g>
<!-- Node12&#45;&gt;Node15 -->
<g id="edge26" class="edge">
<title>Node12&#45;&gt;Node15</title>
<path fill="none" stroke="midnightblue" d="M747.01,-286.94C760.41,-279.67 774.62,-269.17 782.17,-255 788.65,-242.84 791.24,-234.37 782.17,-224 745.1,-181.6 574.93,-177.52 492.79,-178.11"/>
<polygon fill="midnightblue" stroke="midnightblue" points="745.34,-283.87 737.96,-291.47 748.47,-290.13 745.34,-283.87"/>
</g>
<!-- Node16 -->
<g id="node16" class="node">
<title>Node16</title>
<g id="a_node16"><a xlink:href="conv_8cpp.html" target="_top" xlink:title=" ">
<polygon fill="white" stroke="black" points="173.17,-230 173.17,-249 261.17,-249 261.17,-230 173.17,-230"/>
<text text-anchor="middle" x="217.17" y="-237" font-family="Helvetica,sans-Serif" font-size="10.00">src/js/conv.cpp</text>
</a>
</g>
</g>
<!-- Node12&#45;&gt;Node16 -->
<g id="edge19" class="edge">
<title>Node12&#45;&gt;Node16</title>
<path fill="none" stroke="midnightblue" d="M665.78,-297.69C583.26,-293.24 412.38,-281.45 270.17,-255 261.92,-253.46 253.08,-251.27 245.03,-249.05"/>
<polygon fill="midnightblue" stroke="midnightblue" points="665.7,-301.19 675.87,-298.22 666.07,-294.2 665.7,-301.19"/>
</g>
<!-- Node17 -->
<g id="node17" class="node">
<title>Node17</title>
<g id="a_node17"><a xlink:href="js_2crypto_8cpp.html" target="_top" xlink:title=" ">
<polygon fill="white" stroke="black" points="279.17,-230 279.17,-249 375.17,-249 375.17,-230 279.17,-230"/>
<text text-anchor="middle" x="327.17" y="-237" font-family="Helvetica,sans-Serif" font-size="10.00">src/js/crypto.cpp</text>
</a>
</g>
</g>
<!-- Node12&#45;&gt;Node17 -->
<g id="edge21" class="edge">
<title>Node12&#45;&gt;Node17</title>
<path fill="none" stroke="midnightblue" d="M666,-295.09C601.11,-288.2 483.46,-274.31 384.17,-255 375.65,-253.34 366.51,-251.19 358.09,-249.05"/>
<polygon fill="midnightblue" stroke="midnightblue" points="665.64,-298.57 675.95,-296.13 666.38,-291.61 665.64,-298.57"/>
</g>
<!-- Node18 -->
<g id="node18" class="node">
<title>Node18</title>
<g id="a_node18"><a xlink:href="js_2historical_8cpp.html" target="_top" xlink:title=" ">
<polygon fill="white" stroke="black" points="393.17,-230 393.17,-249 503.17,-249 503.17,-230 393.17,-230"/>
<text text-anchor="middle" x="448.17" y="-237" font-family="Helvetica,sans-Serif" font-size="10.00">src/js/historical.cpp</text>
</a>
</g>
</g>
<!-- Node12&#45;&gt;Node18 -->
<g id="edge23" class="edge">
<title>Node12&#45;&gt;Node18</title>
<path fill="none" stroke="midnightblue" d="M666.22,-289.21C625.09,-280.14 564.78,-266.79 512.17,-255 503.61,-253.08 494.41,-251.01 485.73,-249.04"/>
<polygon fill="midnightblue" stroke="midnightblue" points="665.72,-292.69 676.24,-291.43 667.23,-285.85 665.72,-292.69"/>
</g>
<!-- Node19 -->
<g id="node19" class="node">
<title>Node19</title>
<g id="a_node19"><a xlink:href="openenclave_8cpp.html" target="_top" xlink:title=" ">
<polygon fill="white" stroke="black" points="829.17,-230 829.17,-249 957.17,-249 957.17,-230 829.17,-230"/>
<text text-anchor="middle" x="893.17" y="-237" font-family="Helvetica,sans-Serif" font-size="10.00">src/js/openenclave.cpp</text>
</a>
</g>
</g>
<!-- Node12&#45;&gt;Node19 -->
<g id="edge25" class="edge">
<title>Node12&#45;&gt;Node19</title>
<path fill="none" stroke="midnightblue" d="M750.38,-288.23C784.98,-276.67 836.94,-259.3 867.72,-249.01"/>
<polygon fill="midnightblue" stroke="midnightblue" points="749.05,-284.99 740.68,-291.48 751.27,-291.62 749.05,-284.99"/>
</g>
<!-- Node14&#45;&gt;Node15 -->
<g id="edge18" class="edge">
<title>Node14&#45;&gt;Node15</title>
<path fill="none" stroke="midnightblue" d="M666.97,-227.76C615.18,-216.22 533.91,-198.11 486.36,-187.51"/>
<polygon fill="midnightblue" stroke="midnightblue" points="666.4,-231.22 676.92,-229.98 667.92,-224.38 666.4,-231.22"/>
</g>
<!-- Node16&#45;&gt;Node15 -->
<g id="edge20" class="edge">
<title>Node16&#45;&gt;Node15</title>
<path fill="none" stroke="midnightblue" d="M257.7,-227.33C261.91,-226.19 266.12,-225.07 270.17,-224 319.96,-210.9 377.77,-196.42 413.66,-187.51"/>
<polygon fill="midnightblue" stroke="midnightblue" points="256.71,-223.97 247.97,-229.96 258.54,-230.72 256.71,-223.97"/>
</g>
<!-- Node17&#45;&gt;Node15 -->
<g id="edge22" class="edge">
<title>Node17&#45;&gt;Node15</title>
<path fill="none" stroke="midnightblue" d="M353.57,-225.52C377.03,-213.98 410.67,-197.44 430.87,-187.51"/>
<polygon fill="midnightblue" stroke="midnightblue" points="351.94,-222.42 344.51,-229.98 355.03,-228.7 351.94,-222.42"/>
</g>
<!-- Node18&#45;&gt;Node15 -->
<g id="edge24" class="edge">
<title>Node18&#45;&gt;Node15</title>
<path fill="none" stroke="midnightblue" d="M448.17,-219.82C448.17,-209 448.17,-195.9 448.17,-187.51"/>
<polygon fill="midnightblue" stroke="midnightblue" points="444.67,-219.98 448.17,-229.98 451.67,-219.98 444.67,-219.98"/>
</g>
<!-- Node20&#45;&gt;Node4 -->
<g id="edge31" class="edge">
<title>Node20&#45;&gt;Node4</title>
<path fill="none" stroke="midnightblue" d="M1051.05,-281.36C1053.29,-233.95 1059.13,-110.15 1060.75,-75.9"/>
<polygon fill="midnightblue" stroke="midnightblue" points="1047.55,-281.28 1050.58,-291.43 1054.54,-281.61 1047.55,-281.28"/>
</g>
<!-- Node21 -->
<g id="node21" class="node">
<title>Node21</title>
<g id="a_node21"><a xlink:href="jwt__key__auto__refresh_8h.html" target="_top" xlink:title=" ">
<polygon fill="white" stroke="black" points="1127.67,-224.5 1127.67,-254.5 1252.67,-254.5 1252.67,-224.5 1127.67,-224.5"/>
<text text-anchor="start" x="1135.67" y="-242.5" font-family="Helvetica,sans-Serif" font-size="10.00">src/node/jwt_key_auto</text>
<text text-anchor="middle" x="1190.17" y="-231.5" font-family="Helvetica,sans-Serif" font-size="10.00">_refresh.h</text>
</a>
</g>
</g>
<!-- Node20&#45;&gt;Node21 -->
<g id="edge32" class="edge">
<title>Node20&#45;&gt;Node21</title>
<path fill="none" stroke="midnightblue" d="M1079.68,-287.46C1102.35,-277.82 1133.67,-264.51 1157.18,-254.52"/>
<polygon fill="midnightblue" stroke="midnightblue" points="1078.06,-284.34 1070.23,-291.48 1080.8,-290.78 1078.06,-284.34"/>
</g>
<!-- Node21&#45;&gt;Node9 -->
<g id="edge33" class="edge">
<title>Node21&#45;&gt;Node9</title>
<path fill="none" stroke="midnightblue" d="M1191.8,-214.29C1192.43,-204.86 1193.12,-194.65 1193.59,-187.66"/>
<polygon fill="midnightblue" stroke="midnightblue" points="1188.3,-214.19 1191.12,-224.4 1195.28,-214.66 1188.3,-214.19"/>
</g>
<!-- Node22&#45;&gt;Node4 -->
<g id="edge35" class="edge">
<title>Node22&#45;&gt;Node4</title>
<path fill="none" stroke="midnightblue" d="M195.23,-112.3C196.55,-112.2 197.87,-112.1 199.17,-112 499.17,-89.51 858.74,-74.62 999.97,-69.24"/>
<polygon fill="midnightblue" stroke="midnightblue" points="194.63,-108.84 184.95,-113.14 195.2,-115.82 194.63,-108.84"/>
</g>
<!-- Node23&#45;&gt;Node9 -->
<g id="edge37" class="edge">
<title>Node23&#45;&gt;Node9</title>
<path fill="none" stroke="midnightblue" d="M1242.28,-284.24C1249.98,-276.33 1258.12,-266.09 1262.17,-255 1266.9,-242.06 1268.69,-236.14 1262.17,-224 1252.79,-206.54 1233.33,-194.72 1217.63,-187.59"/>
<polygon fill="midnightblue" stroke="midnightblue" points="1239.7,-281.86 1234.89,-291.3 1244.53,-286.93 1239.7,-281.86"/>
</g>
<!-- Node24&#45;&gt;Node3 -->
<g id="edge40" class="edge">
<title>Node24&#45;&gt;Node3</title>
<path fill="none" stroke="midnightblue" d="M1463.72,-287.98C1490.71,-278.3 1528.68,-264.69 1557.05,-254.52"/>
<polygon fill="midnightblue" stroke="midnightblue" points="1462.19,-284.81 1453.96,-291.48 1464.55,-291.4 1462.19,-284.81"/>
</g>
<!-- Node24&#45;&gt;Node9 -->
<g id="edge39" class="edge">
<title>Node24&#45;&gt;Node9</title>
<path fill="none" stroke="midnightblue" d="M1415.73,-283.83C1399.61,-266.69 1371.97,-239.95 1343.17,-224 1310.78,-206.07 1270.39,-194.44 1239.83,-187.51"/>
<polygon fill="midnightblue" stroke="midnightblue" points="1413.33,-286.39 1422.68,-291.38 1418.48,-281.65 1413.33,-286.39"/>
</g>
<!-- Node25&#45;&gt;Node9 -->
<g id="edge42" class="edge">
<title>Node25&#45;&gt;Node9</title>
<path fill="none" stroke="midnightblue" d="M891.39,-288.67C921.31,-280.03 963.03,-267.52 999.17,-255 1063.72,-232.65 1138.63,-202.14 1173.87,-187.51"/>
<polygon fill="midnightblue" stroke="midnightblue" points="890.37,-285.33 881.72,-291.45 892.3,-292.05 890.37,-285.33"/>
</g>
<!-- Node26&#45;&gt;Node3 -->
<g id="edge45" class="edge">
<title>Node26&#45;&gt;Node3</title>
<path fill="none" stroke="midnightblue" d="M1436.25,-344.8C1481.71,-332.77 1535.89,-317.54 1545.17,-311 1565.92,-296.39 1581.4,-270.59 1589.59,-254.58"/>
<polygon fill="midnightblue" stroke="midnightblue" points="1435.18,-341.47 1426.4,-347.4 1436.96,-348.24 1435.18,-341.47"/>
</g>
<!-- Node26&#45;&gt;Node9 -->
<g id="edge44" class="edge">
<title>Node26&#45;&gt;Node9</title>
<path fill="none" stroke="midnightblue" d="M1436.4,-345.91C1468.7,-336.74 1502.78,-324.34 1512.17,-311 1517.29,-303.73 1516.86,-298.55 1512.17,-291 1458.89,-205.07 1332.71,-184.11 1256.28,-179.57"/>
<polygon fill="midnightblue" stroke="midnightblue" points="1435.17,-342.62 1426.47,-348.66 1437.04,-349.37 1435.17,-342.62"/>
</g>
<!-- Node26&#45;&gt;Node20 -->
<g id="edge46" class="edge">
<title>Node26&#45;&gt;Node20</title>
<path fill="none" stroke="midnightblue" d="M1305.85,-346.79C1230.06,-331.74 1153.31,-318.71 1103.47,-310.54"/>
<polygon fill="midnightblue" stroke="midnightblue" points="1305.56,-350.3 1316.05,-348.83 1306.93,-343.44 1305.56,-350.3"/>
</g>
<!-- Node26&#45;&gt;Node23 -->
<g id="edge47" class="edge">
<title>Node26&#45;&gt;Node23</title>
<path fill="none" stroke="midnightblue" d="M1326.74,-343.52C1299.84,-332.63 1266.75,-319.23 1245.56,-310.66"/>
<polygon fill="midnightblue" stroke="midnightblue" points="1325.75,-346.89 1336.34,-347.4 1328.38,-340.4 1325.75,-346.89"/>
</g>
<!-- Node26&#45;&gt;Node24 -->
<g id="edge48" class="edge">
<title>Node26&#45;&gt;Node24</title>
<path fill="none" stroke="midnightblue" d="M1392.49,-340C1402.54,-329.86 1413.98,-318.33 1421.59,-310.66"/>
<polygon fill="midnightblue" stroke="midnightblue" points="1389.71,-337.83 1385.15,-347.4 1394.68,-342.76 1389.71,-337.83"/>
</g>
</g>
</svg>
