<?xml version="1.0" encoding="UTF-8" standalone="no"?>
<!DOCTYPE svg PUBLIC "-//W3C//DTD SVG 1.1//EN"
 "http://www.w3.org/Graphics/SVG/1.1/DTD/svg11.dtd">
<!-- Generated by graphviz version 2.43.0 (0)
 -->
<!-- Title: src/host/proxy.h Pages: 1 -->
<svg width="1041pt" height="274pt"
 viewBox="0.00 0.00 1040.87 274.00" xmlns="http://www.w3.org/2000/svg" xmlns:xlink="http://www.w3.org/1999/xlink">
<g id="graph0" class="graph" transform="scale(1 1) rotate(0) translate(4 270)">
<title>src/host/proxy.h</title>
<polygon fill="white" stroke="transparent" points="-4,4 -4,-270 1036.87,-270 1036.87,4 -4,4"/>
<!-- Node1 -->
<g id="node1" class="node">
<title>Node1</title>
<g id="a_node1"><a xlink:title=" ">
<polygon fill="#bfbfbf" stroke="black" points="435.5,-246.5 435.5,-265.5 528.5,-265.5 528.5,-246.5 435.5,-246.5"/>
<text text-anchor="middle" x="482" y="-253.5" font-family="Helvetica,sans-Serif" font-size="10.00">src/host/proxy.h</text>
</a>
</g>
</g>
<!-- Node2 -->
<g id="node2" class="node">
<title>Node2</title>
<g id="a_node2"><a xlink:href="after__io_8h.html" target="_top" xlink:title=" ">
<polygon fill="white" stroke="black" points="180,-190.5 180,-209.5 284,-209.5 284,-190.5 180,-190.5"/>
<text text-anchor="middle" x="232" y="-197.5" font-family="Helvetica,sans-Serif" font-size="10.00">src/host/after_io.h</text>
</a>
</g>
</g>
<!-- Node1&#45;&gt;Node2 -->
<g id="edge1" class="edge">
<title>Node1&#45;&gt;Node2</title>
<path fill="none" stroke="midnightblue" d="M432.38,-244.28C385.13,-234.08 314.96,-218.92 271.43,-209.52"/>
<polygon fill="midnightblue" stroke="midnightblue" points="431.87,-247.75 442.39,-246.44 433.35,-240.91 431.87,-247.75"/>
</g>
<!-- Node3 -->
<g id="node3" class="node">
<title>Node3</title>
<g id="a_node3"><a xlink:href="before__io_8h.html" target="_top" xlink:title=" ">
<polygon fill="white" stroke="black" points="340.5,-190.5 340.5,-209.5 453.5,-209.5 453.5,-190.5 340.5,-190.5"/>
<text text-anchor="middle" x="397" y="-197.5" font-family="Helvetica,sans-Serif" font-size="10.00">src/host/before_io.h</text>
</a>
</g>
</g>
<!-- Node1&#45;&gt;Node3 -->
<g id="edge2" class="edge">
<title>Node1&#45;&gt;Node3</title>
<path fill="none" stroke="midnightblue" d="M459.81,-240.9C444.22,-231 423.87,-218.07 410.62,-209.65"/>
<polygon fill="midnightblue" stroke="midnightblue" points="458.03,-243.92 468.34,-246.32 461.78,-238.01 458.03,-243.92"/>
</g>
<!-- Node4 -->
<g id="node4" class="node">
<title>Node4</title>
<g id="a_node4"><a xlink:href="tcp_8h.html" target="_top" xlink:title=" ">
<polygon fill="white" stroke="black" points="356,-129 356,-148 438,-148 438,-129 356,-129"/>
<text text-anchor="middle" x="397" y="-136" font-family="Helvetica,sans-Serif" font-size="10.00">src/host/tcp.h</text>
</a>
</g>
</g>
<!-- Node1&#45;&gt;Node4 -->
<g id="edge17" class="edge">
<title>Node1&#45;&gt;Node4</title>
<path fill="none" stroke="midnightblue" d="M479.31,-236.07C476.65,-222.33 471.54,-203.81 462,-190 449.25,-171.54 427.69,-156.73 412.92,-148.03"/>
<polygon fill="midnightblue" stroke="midnightblue" points="475.92,-236.99 481.01,-246.28 482.82,-235.84 475.92,-236.99"/>
</g>
<!-- Node9 -->
<g id="node9" class="node">
<title>Node9</title>
<g id="a_node9"><a xlink:href="udp_8h.html" target="_top" xlink:title=" ">
<polygon fill="white" stroke="black" points="252.5,-129 252.5,-148 337.5,-148 337.5,-129 252.5,-129"/>
<text text-anchor="middle" x="295" y="-136" font-family="Helvetica,sans-Serif" font-size="10.00">src/host/udp.h</text>
</a>
</g>
</g>
<!-- Node1&#45;&gt;Node9 -->
<g id="edge28" class="edge">
<title>Node1&#45;&gt;Node9</title>
<path fill="none" stroke="midnightblue" d="M425.06,-249C394.36,-243.26 357.45,-232.01 331,-210 311.14,-193.47 301.04,-163.2 297.07,-148.28"/>
<polygon fill="midnightblue" stroke="midnightblue" points="424.77,-252.5 435.22,-250.75 425.95,-245.6 424.77,-252.5"/>
</g>
<!-- Node10 -->
<g id="node10" class="node">
<title>Node10</title>
<g id="a_node10"><a xlink:href="every__io_8h.html" target="_top" xlink:title=" ">
<polygon fill="white" stroke="black" points="704.5,-190.5 704.5,-209.5 813.5,-209.5 813.5,-190.5 704.5,-190.5"/>
<text text-anchor="middle" x="759" y="-197.5" font-family="Helvetica,sans-Serif" font-size="10.00">src/host/every_io.h</text>
</a>
</g>
</g>
<!-- Node1&#45;&gt;Node10 -->
<g id="edge12" class="edge">
<title>Node1&#45;&gt;Node10</title>
<path fill="none" stroke="midnightblue" d="M536,-244.47C588.35,-234.27 666.77,-218.98 715.31,-209.52"/>
<polygon fill="midnightblue" stroke="midnightblue" points="535.04,-241.09 525.89,-246.44 536.38,-247.97 535.04,-241.09"/>
</g>
<!-- Node11 -->
<g id="node11" class="node">
<title>Node11</title>
<g id="a_node11"><a xlink:href="signal_8h.html" target="_top" xlink:title=" ">
<polygon fill="white" stroke="black" points="590,-190.5 590,-209.5 686,-209.5 686,-190.5 590,-190.5"/>
<text text-anchor="middle" x="638" y="-197.5" font-family="Helvetica,sans-Serif" font-size="10.00">src/host/signal.h</text>
</a>
</g>
</g>
<!-- Node1&#45;&gt;Node11 -->
<g id="edge13" class="edge">
<title>Node1&#45;&gt;Node11</title>
<path fill="none" stroke="midnightblue" d="M516.17,-243.17C545.54,-233 587.2,-218.59 613.4,-209.52"/>
<polygon fill="midnightblue" stroke="midnightblue" points="515.02,-239.86 506.72,-246.44 517.31,-246.48 515.02,-239.86"/>
</g>
<!-- Node14 -->
<g id="node14" class="node">
<title>Node14</title>
<g id="a_node14"><a xlink:href="timer_8h.html" target="_top" xlink:title=" ">
<polygon fill="white" stroke="black" points="512,-129 512,-148 604,-148 604,-129 512,-129"/>
<text text-anchor="middle" x="558" y="-136" font-family="Helvetica,sans-Serif" font-size="10.00">src/host/timer.h</text>
</a>
</g>
</g>
<!-- Node1&#45;&gt;Node14 -->
<g id="edge18" class="edge">
<title>Node1&#45;&gt;Node14</title>
<path fill="none" stroke="midnightblue" d="M493.29,-237.84C509.73,-212.86 539.67,-167.36 552.22,-148.28"/>
<polygon fill="midnightblue" stroke="midnightblue" points="490.29,-236.04 487.71,-246.32 496.13,-239.89 490.29,-236.04"/>
</g>
<!-- Node3&#45;&gt;Node4 -->
<g id="edge3" class="edge">
<title>Node3&#45;&gt;Node4</title>
<path fill="none" stroke="midnightblue" d="M397,-180.32C397,-169.5 397,-156.4 397,-148.01"/>
<polygon fill="midnightblue" stroke="midnightblue" points="393.5,-180.48 397,-190.48 400.5,-180.48 393.5,-180.48"/>
</g>
<!-- Node3&#45;&gt;Node9 -->
<g id="edge10" class="edge">
<title>Node3&#45;&gt;Node9</title>
<path fill="none" stroke="midnightblue" d="M373.69,-185.4C353.96,-173.9 326.31,-157.77 309.59,-148.01"/>
<polygon fill="midnightblue" stroke="midnightblue" points="371.98,-188.46 382.39,-190.48 375.51,-182.41 371.98,-188.46"/>
</g>
<!-- Node5 -->
<g id="node5" class="node">
<title>Node5</title>
<g id="a_node5"><a xlink:href="acme__challenge__server_8h.html" target="_top" xlink:title=" ">
<polygon fill="white" stroke="black" points="164.5,-56.5 164.5,-86.5 301.5,-86.5 301.5,-56.5 164.5,-56.5"/>
<text text-anchor="start" x="172.5" y="-74.5" font-family="Helvetica,sans-Serif" font-size="10.00">src/host/acme_challenge</text>
<text text-anchor="middle" x="233" y="-63.5" font-family="Helvetica,sans-Serif" font-size="10.00">_server.h</text>
</a>
</g>
</g>
<!-- Node4&#45;&gt;Node5 -->
<g id="edge4" class="edge">
<title>Node4&#45;&gt;Node5</title>
<path fill="none" stroke="midnightblue" d="M365.61,-125.06C337.83,-114.05 297.32,-97.99 268.39,-86.53"/>
<polygon fill="midnightblue" stroke="midnightblue" points="364.64,-128.44 375.22,-128.87 367.22,-121.93 364.64,-128.44"/>
</g>
<!-- Node7 -->
<g id="node7" class="node">
<title>Node7</title>
<g id="a_node7"><a xlink:href="node__connections_8h.html" target="_top" xlink:title=" ">
<polygon fill="white" stroke="black" points="319.5,-62 319.5,-81 474.5,-81 474.5,-62 319.5,-62"/>
<text text-anchor="middle" x="397" y="-69" font-family="Helvetica,sans-Serif" font-size="10.00">src/host/node_connections.h</text>
</a>
</g>
</g>
<!-- Node4&#45;&gt;Node7 -->
<g id="edge6" class="edge">
<title>Node4&#45;&gt;Node7</title>
<path fill="none" stroke="midnightblue" d="M397,-118.54C397,-106.17 397,-90.62 397,-81.13"/>
<polygon fill="midnightblue" stroke="midnightblue" points="393.5,-118.73 397,-128.73 400.5,-118.73 393.5,-118.73"/>
</g>
<!-- Node8 -->
<g id="node8" class="node">
<title>Node8</title>
<g id="a_node8"><a xlink:href="rpc__connections_8h.html" target="_top" xlink:title=" ">
<polygon fill="white" stroke="black" points="0,-62 0,-81 146,-81 146,-62 0,-62"/>
<text text-anchor="middle" x="73" y="-69" font-family="Helvetica,sans-Serif" font-size="10.00">src/host/rpc_connections.h</text>
</a>
</g>
</g>
<!-- Node4&#45;&gt;Node8 -->
<g id="edge8" class="edge">
<title>Node4&#45;&gt;Node8</title>
<path fill="none" stroke="midnightblue" d="M358.86,-126.24C354.54,-125.08 350.18,-123.98 346,-123 324.41,-117.95 192.82,-94.07 120.51,-81.04"/>
<polygon fill="midnightblue" stroke="midnightblue" points="358.23,-129.69 368.8,-128.97 360.09,-122.94 358.23,-129.69"/>
</g>
<!-- Node6 -->
<g id="node6" class="node">
<title>Node6</title>
<g id="a_node6"><a xlink:href="host_2main_8cpp.html" target="_top" xlink:title=" ">
<polygon fill="white" stroke="black" points="576.5,-0.5 576.5,-19.5 679.5,-19.5 679.5,-0.5 576.5,-0.5"/>
<text text-anchor="middle" x="628" y="-7.5" font-family="Helvetica,sans-Serif" font-size="10.00">src/host/main.cpp</text>
</a>
</g>
</g>
<!-- Node5&#45;&gt;Node6 -->
<g id="edge5" class="edge">
<title>Node5&#45;&gt;Node6</title>
<path fill="none" stroke="midnightblue" d="M311.69,-55.76C410.69,-39.61 515.42,-25.49 576.39,-17.57"/>
<polygon fill="midnightblue" stroke="midnightblue" points="311.12,-52.31 301.82,-57.38 312.25,-59.21 311.12,-52.31"/>
</g>
<!-- Node7&#45;&gt;Node6 -->
<g id="edge7" class="edge">
<title>Node7&#45;&gt;Node6</title>
<path fill="none" stroke="midnightblue" d="M439.83,-59.47C484.68,-47.91 554.17,-30.02 594.96,-19.51"/>
<polygon fill="midnightblue" stroke="midnightblue" points="438.91,-56.09 430.1,-61.98 440.65,-62.87 438.91,-56.09"/>
</g>
<!-- Node8&#45;&gt;Node6 -->
<g id="edge9" class="edge">
<title>Node8&#45;&gt;Node6</title>
<path fill="none" stroke="midnightblue" d="M127.71,-60.2C136.8,-58.67 146.15,-57.2 155,-56 307.65,-35.28 489.3,-20.84 576.4,-14.55"/>
<polygon fill="midnightblue" stroke="midnightblue" points="126.84,-56.8 117.58,-61.95 128.03,-63.69 126.84,-56.8"/>
</g>
<!-- Node9&#45;&gt;Node8 -->
<g id="edge11" class="edge">
<title>Node9&#45;&gt;Node8</title>
<path fill="none" stroke="midnightblue" d="M255.76,-126.01C211.82,-113.15 141.63,-92.59 102.25,-81.06"/>
<polygon fill="midnightblue" stroke="midnightblue" points="254.94,-129.42 265.52,-128.87 256.91,-122.7 254.94,-129.42"/>
</g>
<!-- Node12 -->
<g id="node12" class="node">
<title>Node12</title>
<g id="a_node12"><a xlink:href="v8__oe__stubs_8cpp.html" target="_top" xlink:title=" ">
<polygon fill="white" stroke="black" points="622,-123.5 622,-153.5 740,-153.5 740,-123.5 622,-123.5"/>
<text text-anchor="start" x="630" y="-141.5" font-family="Helvetica,sans-Serif" font-size="10.00">src/apps/js_v8/v8_oe</text>
<text text-anchor="middle" x="681" y="-130.5" font-family="Helvetica,sans-Serif" font-size="10.00">_stubs.cpp</text>
</a>
</g>
</g>
<!-- Node11&#45;&gt;Node12 -->
<g id="edge14" class="edge">
<title>Node11&#45;&gt;Node12</title>
<path fill="none" stroke="midnightblue" d="M650.11,-182.25C656.66,-173.19 664.65,-162.12 670.87,-153.52"/>
<polygon fill="midnightblue" stroke="midnightblue" points="647.18,-180.32 644.16,-190.48 652.86,-184.42 647.18,-180.32"/>
</g>
<!-- Node13 -->
<g id="node13" class="node">
<title>Node13</title>
<g id="a_node13"><a xlink:href="sig__term_8h.html" target="_top" xlink:title=" ">
<polygon fill="white" stroke="black" points="874,-129 874,-148 984,-148 984,-129 874,-129"/>
<text text-anchor="middle" x="929" y="-136" font-family="Helvetica,sans-Serif" font-size="10.00">src/host/sig_term.h</text>
</a>
</g>
</g>
<!-- Node11&#45;&gt;Node13 -->
<g id="edge15" class="edge">
<title>Node11&#45;&gt;Node13</title>
<path fill="none" stroke="midnightblue" d="M689.83,-188.4C746.25,-176.87 835.34,-158.65 887.38,-148.01"/>
<polygon fill="midnightblue" stroke="midnightblue" points="688.79,-185.04 679.69,-190.48 690.19,-191.9 688.79,-185.04"/>
</g>
<!-- Node13&#45;&gt;Node6 -->
<g id="edge16" class="edge">
<title>Node13&#45;&gt;Node6</title>
<path fill="none" stroke="midnightblue" d="M963.64,-125.24C1000.61,-110.33 1050.75,-83.71 1026,-56 1003.3,-30.59 782.06,-17.71 679.6,-13.07"/>
<polygon fill="midnightblue" stroke="midnightblue" points="962.15,-122.06 954.1,-128.95 964.69,-128.59 962.15,-122.06"/>
</g>
<!-- Node14&#45;&gt;Node7 -->
<g id="edge23" class="edge">
<title>Node14&#45;&gt;Node7</title>
<path fill="none" stroke="midnightblue" d="M527.3,-125.1C495.33,-112.2 446.11,-92.33 418.21,-81.06"/>
<polygon fill="midnightblue" stroke="midnightblue" points="526.04,-128.37 536.62,-128.87 528.66,-121.88 526.04,-128.37"/>
</g>
<!-- Node15 -->
<g id="node15" class="node">
<title>Node15</title>
<g id="a_node15"><a xlink:href="handle__ring__buffer_8h.html" target="_top" xlink:title=" ">
<polygon fill="white" stroke="black" points="641.5,-56.5 641.5,-86.5 756.5,-86.5 756.5,-56.5 641.5,-56.5"/>
<text text-anchor="start" x="649.5" y="-74.5" font-family="Helvetica,sans-Serif" font-size="10.00">src/host/handle_ring</text>
<text text-anchor="middle" x="699" y="-63.5" font-family="Helvetica,sans-Serif" font-size="10.00">_buffer.h</text>
</a>
</g>
</g>
<!-- Node14&#45;&gt;Node15 -->
<g id="edge19" class="edge">
<title>Node14&#45;&gt;Node15</title>
<path fill="none" stroke="midnightblue" d="M585.94,-124.62C609.79,-113.63 644.03,-97.84 668.57,-86.53"/>
<polygon fill="midnightblue" stroke="midnightblue" points="584.34,-121.5 576.72,-128.87 587.27,-127.86 584.34,-121.5"/>
</g>
<!-- Node16 -->
<g id="node16" class="node">
<title>Node16</title>
<g id="a_node16"><a xlink:href="load__monitor_8h.html" target="_top" xlink:title=" ">
<polygon fill="white" stroke="black" points="774.5,-62 774.5,-81 905.5,-81 905.5,-62 774.5,-62"/>
<text text-anchor="middle" x="840" y="-69" font-family="Helvetica,sans-Serif" font-size="10.00">src/host/load_monitor.h</text>
</a>
</g>
</g>
<!-- Node14&#45;&gt;Node16 -->
<g id="edge21" class="edge">
<title>Node14&#45;&gt;Node16</title>
<path fill="none" stroke="midnightblue" d="M599.5,-126.38C604.05,-125.21 608.62,-124.06 613,-123 677.93,-107.23 753.78,-90.74 799.29,-81.06"/>
<polygon fill="midnightblue" stroke="midnightblue" points="598.45,-123.03 589.65,-128.93 600.21,-129.81 598.45,-123.03"/>
</g>
<!-- Node17 -->
<g id="node17" class="node">
<title>Node17</title>
<g id="a_node17"><a xlink:href="ticker_8h.html" target="_top" xlink:title=" ">
<polygon fill="white" stroke="black" points="923.5,-62 923.5,-81 1016.5,-81 1016.5,-62 923.5,-62"/>
<text text-anchor="middle" x="970" y="-69" font-family="Helvetica,sans-Serif" font-size="10.00">src/host/ticker.h</text>
</a>
</g>
</g>
<!-- Node14&#45;&gt;Node17 -->
<g id="edge24" class="edge">
<title>Node14&#45;&gt;Node17</title>
<path fill="none" stroke="midnightblue" d="M597.2,-126.46C602.49,-125.18 607.86,-123.98 613,-123 745.79,-97.71 782.21,-112.29 915,-87 923.44,-85.39 932.49,-83.2 940.77,-81.01"/>
<polygon fill="midnightblue" stroke="midnightblue" points="596.06,-123.13 587.23,-128.99 597.78,-129.92 596.06,-123.13"/>
</g>
<!-- Node18 -->
<g id="node18" class="node">
<title>Node18</title>
<g id="a_node18"><a xlink:href="time__updater_8h.html" target="_top" xlink:title=" ">
<polygon fill="white" stroke="black" points="492.5,-62 492.5,-81 623.5,-81 623.5,-62 492.5,-62"/>
<text text-anchor="middle" x="558" y="-69" font-family="Helvetica,sans-Serif" font-size="10.00">src/host/time_updater.h</text>
</a>
</g>
</g>
<!-- Node14&#45;&gt;Node18 -->
<g id="edge26" class="edge">
<title>Node14&#45;&gt;Node18</title>
<path fill="none" stroke="midnightblue" d="M558,-118.54C558,-106.17 558,-90.62 558,-81.13"/>
<polygon fill="midnightblue" stroke="midnightblue" points="554.5,-118.73 558,-128.73 561.5,-118.73 554.5,-118.73"/>
</g>
<!-- Node15&#45;&gt;Node6 -->
<g id="edge20" class="edge">
<title>Node15&#45;&gt;Node6</title>
<path fill="none" stroke="midnightblue" d="M674.41,-49.89C662.06,-39.54 647.76,-27.56 638.33,-19.66"/>
<polygon fill="midnightblue" stroke="midnightblue" points="672.26,-52.66 682.17,-56.4 676.76,-47.29 672.26,-52.66"/>
</g>
<!-- Node16&#45;&gt;Node6 -->
<g id="edge22" class="edge">
<title>Node16&#45;&gt;Node6</title>
<path fill="none" stroke="midnightblue" d="M799.91,-59.25C758.73,-47.69 695.52,-29.95 658.32,-19.51"/>
<polygon fill="midnightblue" stroke="midnightblue" points="799.05,-62.64 809.63,-61.98 800.94,-55.9 799.05,-62.64"/>
</g>
<!-- Node17&#45;&gt;Node6 -->
<g id="edge25" class="edge">
<title>Node17&#45;&gt;Node6</title>
<path fill="none" stroke="midnightblue" d="M929.82,-59.4C924.85,-58.18 919.82,-57.01 915,-56 833.31,-38.87 737.29,-25.08 679.61,-17.47"/>
<polygon fill="midnightblue" stroke="midnightblue" points="929.32,-62.88 939.87,-61.96 931.05,-56.1 929.32,-62.88"/>
</g>
<!-- Node18&#45;&gt;Node6 -->
<g id="edge27" class="edge">
<title>Node18&#45;&gt;Node6</title>
<path fill="none" stroke="midnightblue" d="M575.68,-55.47C589.07,-44.09 606.98,-28.87 617.99,-19.51"/>
<polygon fill="midnightblue" stroke="midnightblue" points="573.38,-52.83 568.03,-61.98 577.92,-58.17 573.38,-52.83"/>
</g>
</g>
</svg>
