<?xml version="1.0" encoding="UTF-8" standalone="no"?>
<!DOCTYPE svg PUBLIC "-//W3C//DTD SVG 1.1//EN"
 "http://www.w3.org/Graphics/SVG/1.1/DTD/svg11.dtd">
<!-- Generated by graphviz version 2.43.0 (0)
 -->
<!-- Title: src/enclave/rpc_map.h Pages: 1 -->
<svg width="1087pt" height="632pt"
 viewBox="0.00 0.00 1087.28 632.00" xmlns="http://www.w3.org/2000/svg" xmlns:xlink="http://www.w3.org/1999/xlink">
<g id="graph0" class="graph" transform="scale(1 1) rotate(0) translate(4 628)">
<title>src/enclave/rpc_map.h</title>
<polygon fill="white" stroke="transparent" points="-4,4 -4,-628 1083.28,-628 1083.28,4 -4,4"/>
<!-- Node1 -->
<g id="node1" class="node">
<title>Node1</title>
<g id="a_node1"><a xlink:title=" ">
<polygon fill="#bfbfbf" stroke="black" points="119,-604.5 119,-623.5 245,-623.5 245,-604.5 119,-604.5"/>
<text text-anchor="middle" x="182" y="-611.5" font-family="Helvetica,sans-Serif" font-size="10.00">src/enclave/rpc_map.h</text>
</a>
</g>
</g>
<!-- Node2 -->
<g id="node2" class="node">
<title>Node2</title>
<g id="a_node2"><a xlink:href="enclave_2enclave_8h.html" target="_top" xlink:title=" ">
<polygon fill="white" stroke="black" points="717,-56.5 717,-75.5 839,-75.5 839,-56.5 717,-56.5"/>
<text text-anchor="middle" x="778" y="-63.5" font-family="Helvetica,sans-Serif" font-size="10.00">src/enclave/enclave.h</text>
</a>
</g>
</g>
<!-- Node1&#45;&gt;Node2 -->
<g id="edge1" class="edge">
<title>Node1&#45;&gt;Node2</title>
<path fill="none" stroke="midnightblue" d="M125.39,-601.97C71.97,-587.89 0,-557.74 0,-497.5 0,-497.5 0,-497.5 0,-182.5 0,-110.13 533.55,-78.41 716.95,-69.65"/>
<polygon fill="midnightblue" stroke="midnightblue" points="124.58,-605.38 135.13,-604.42 126.28,-598.59 124.58,-605.38"/>
</g>
<!-- Node4 -->
<g id="node4" class="node">
<title>Node4</title>
<g id="a_node4"><a xlink:href="http__endpoint_8h.html" target="_top" xlink:title=" ">
<polygon fill="white" stroke="black" points="115.5,-548.5 115.5,-567.5 248.5,-567.5 248.5,-548.5 115.5,-548.5"/>
<text text-anchor="middle" x="182" y="-555.5" font-family="Helvetica,sans-Serif" font-size="10.00">src/http/http_endpoint.h</text>
</a>
</g>
</g>
<!-- Node1&#45;&gt;Node4 -->
<g id="edge3" class="edge">
<title>Node1&#45;&gt;Node4</title>
<path fill="none" stroke="midnightblue" d="M182,-593.8C182,-584.91 182,-574.78 182,-567.75"/>
<polygon fill="midnightblue" stroke="midnightblue" points="178.5,-594.08 182,-604.08 185.5,-594.08 178.5,-594.08"/>
</g>
<!-- Node19 -->
<g id="node19" class="node">
<title>Node19</title>
<g id="a_node19"><a xlink:href="forwarder_8h.html" target="_top" xlink:title=" ">
<polygon fill="white" stroke="black" points="831,-425.5 831,-444.5 965,-444.5 965,-425.5 831,-425.5"/>
<text text-anchor="middle" x="898" y="-432.5" font-family="Helvetica,sans-Serif" font-size="10.00">src/node/rpc/forwarder.h</text>
</a>
</g>
</g>
<!-- Node1&#45;&gt;Node19 -->
<g id="edge29" class="edge">
<title>Node1&#45;&gt;Node19</title>
<path fill="none" stroke="midnightblue" d="M226.3,-602.05C357.99,-569.49 745.26,-473.76 863.39,-444.55"/>
<polygon fill="midnightblue" stroke="midnightblue" points="225.4,-598.67 216.53,-604.46 227.08,-605.46 225.4,-598.67"/>
</g>
<!-- Node3 -->
<g id="node3" class="node">
<title>Node3</title>
<g id="a_node3"><a xlink:href="enclave_2main_8cpp.html" target="_top" xlink:title=" ">
<polygon fill="white" stroke="black" points="718,-0.5 718,-19.5 838,-19.5 838,-0.5 718,-0.5"/>
<text text-anchor="middle" x="778" y="-7.5" font-family="Helvetica,sans-Serif" font-size="10.00">src/enclave/main.cpp</text>
</a>
</g>
</g>
<!-- Node2&#45;&gt;Node3 -->
<g id="edge2" class="edge">
<title>Node2&#45;&gt;Node3</title>
<path fill="none" stroke="midnightblue" d="M778,-45.8C778,-36.91 778,-26.78 778,-19.75"/>
<polygon fill="midnightblue" stroke="midnightblue" points="774.5,-46.08 778,-56.08 781.5,-46.08 774.5,-46.08"/>
</g>
<!-- Node5 -->
<g id="node5" class="node">
<title>Node5</title>
<g id="a_node5"><a xlink:href="rpc__sessions_8h.html" target="_top" xlink:title=" ">
<polygon fill="white" stroke="black" points="190,-487 190,-506 336,-506 336,-487 190,-487"/>
<text text-anchor="middle" x="263" y="-494" font-family="Helvetica,sans-Serif" font-size="10.00">src/enclave/rpc_sessions.h</text>
</a>
</g>
</g>
<!-- Node4&#45;&gt;Node5 -->
<g id="edge4" class="edge">
<title>Node4&#45;&gt;Node5</title>
<path fill="none" stroke="midnightblue" d="M202.02,-542.29C217.56,-530.88 238.55,-515.46 251.42,-506.01"/>
<polygon fill="midnightblue" stroke="midnightblue" points="199.59,-539.73 193.61,-548.48 203.74,-545.38 199.59,-539.73"/>
</g>
<!-- Node17 -->
<g id="node17" class="node">
<title>Node17</title>
<g id="a_node17"><a xlink:href="acme__challenge__server_8h.html" target="_top" xlink:title=" ">
<polygon fill="white" stroke="black" points="32.5,-481.5 32.5,-511.5 169.5,-511.5 169.5,-481.5 32.5,-481.5"/>
<text text-anchor="start" x="40.5" y="-499.5" font-family="Helvetica,sans-Serif" font-size="10.00">src/host/acme_challenge</text>
<text text-anchor="middle" x="101" y="-488.5" font-family="Helvetica,sans-Serif" font-size="10.00">_server.h</text>
</a>
</g>
</g>
<!-- Node4&#45;&gt;Node17 -->
<g id="edge27" class="edge">
<title>Node4&#45;&gt;Node17</title>
<path fill="none" stroke="midnightblue" d="M162.22,-542.47C149.39,-533.05 132.77,-520.84 120.09,-511.52"/>
<polygon fill="midnightblue" stroke="midnightblue" points="160.26,-545.38 170.39,-548.48 164.41,-539.73 160.26,-545.38"/>
</g>
<!-- Node5&#45;&gt;Node2 -->
<g id="edge5" class="edge">
<title>Node5&#45;&gt;Node2</title>
<path fill="none" stroke="midnightblue" d="M248.31,-479.27C210.58,-435.61 117.35,-313.61 177,-235 242.98,-148.05 577.44,-93.89 716.85,-74.78"/>
<polygon fill="midnightblue" stroke="midnightblue" points="245.81,-481.74 255.05,-486.93 251.06,-477.11 245.81,-481.74"/>
</g>
<!-- Node6 -->
<g id="node6" class="node">
<title>Node6</title>
<g id="a_node6"><a xlink:href="ccf__acme__client_8h.html" target="_top" xlink:title=" ">
<polygon fill="white" stroke="black" points="185.5,-241 185.5,-260 334.5,-260 334.5,-241 185.5,-241"/>
<text text-anchor="middle" x="260" y="-248" font-family="Helvetica,sans-Serif" font-size="10.00">src/node/ccf_acme_client.h</text>
</a>
</g>
</g>
<!-- Node5&#45;&gt;Node6 -->
<g id="edge6" class="edge">
<title>Node5&#45;&gt;Node6</title>
<path fill="none" stroke="midnightblue" d="M257,-476.85C254.27,-467.41 251.36,-455.72 250,-445 242.01,-381.95 243.8,-365.25 250,-302 251.47,-287.06 255.31,-269.98 257.79,-260"/>
<polygon fill="midnightblue" stroke="midnightblue" points="253.74,-478.15 260.01,-486.69 260.43,-476.11 253.74,-478.15"/>
</g>
<!-- Node7 -->
<g id="node7" class="node">
<title>Node7</title>
<g id="a_node7"><a xlink:href="node__state_8h.html" target="_top" xlink:title=" ">
<polygon fill="white" stroke="black" points="566,-174 566,-193 690,-193 690,-174 566,-174"/>
<text text-anchor="middle" x="628" y="-181" font-family="Helvetica,sans-Serif" font-size="10.00">src/node/node_state.h</text>
</a>
</g>
</g>
<!-- Node5&#45;&gt;Node7 -->
<g id="edge24" class="edge">
<title>Node5&#45;&gt;Node7</title>
<path fill="none" stroke="midnightblue" d="M346.19,-487.23C463.13,-473.27 662,-439.91 662,-374.5 662,-374.5 662,-374.5 662,-311 662,-265.29 641.04,-213.38 632.03,-193.18"/>
<polygon fill="midnightblue" stroke="midnightblue" points="345.71,-483.77 336.18,-488.41 346.52,-490.72 345.71,-483.77"/>
</g>
<!-- Node9 -->
<g id="node9" class="node">
<title>Node9</title>
<g id="a_node9"><a xlink:href="node__client_8h.html" target="_top" xlink:title=" ">
<polygon fill="white" stroke="black" points="331,-425.5 331,-444.5 457,-444.5 457,-425.5 331,-425.5"/>
<text text-anchor="middle" x="394" y="-432.5" font-family="Helvetica,sans-Serif" font-size="10.00">src/node/node_client.h</text>
</a>
</g>
</g>
<!-- Node5&#45;&gt;Node9 -->
<g id="edge11" class="edge">
<title>Node5&#45;&gt;Node9</title>
<path fill="none" stroke="midnightblue" d="M290.9,-482.83C316.33,-471.28 353.2,-454.53 375.27,-444.51"/>
<polygon fill="midnightblue" stroke="midnightblue" points="289.43,-479.65 281.77,-486.98 292.32,-486.03 289.43,-479.65"/>
</g>
<!-- Node16 -->
<g id="node16" class="node">
<title>Node16</title>
<g id="a_node16"><a xlink:href="resharing_8h.html" target="_top" xlink:title=" ">
<polygon fill="white" stroke="black" points="352,-241 352,-260 468,-260 468,-241 352,-241"/>
<text text-anchor="middle" x="410" y="-248" font-family="Helvetica,sans-Serif" font-size="10.00">src/node/resharing.h</text>
</a>
</g>
</g>
<!-- Node5&#45;&gt;Node16 -->
<g id="edge25" class="edge">
<title>Node5&#45;&gt;Node16</title>
<path fill="none" stroke="midnightblue" d="M266.86,-477.13C273.15,-449.73 287.37,-397.21 311,-358 336.15,-316.27 379.65,-276.93 399.53,-260.09"/>
<polygon fill="midnightblue" stroke="midnightblue" points="263.43,-476.4 264.7,-486.92 270.27,-477.91 263.43,-476.4"/>
</g>
<!-- Node6&#45;&gt;Node7 -->
<g id="edge7" class="edge">
<title>Node6&#45;&gt;Node7</title>
<path fill="none" stroke="midnightblue" d="M318.35,-239.19C390.62,-226.43 512.41,-204.92 579.7,-193.03"/>
<polygon fill="midnightblue" stroke="midnightblue" points="317.73,-235.75 308.49,-240.94 318.94,-242.64 317.73,-235.75"/>
</g>
<!-- Node7&#45;&gt;Node2 -->
<g id="edge8" class="edge">
<title>Node7&#45;&gt;Node2</title>
<path fill="none" stroke="midnightblue" d="M628.36,-163.79C629.65,-148.08 633.91,-126.01 647,-112 665.14,-92.59 692.03,-81.55 716.73,-75.27"/>
<polygon fill="midnightblue" stroke="midnightblue" points="624.86,-163.75 627.87,-173.91 631.85,-164.09 624.86,-163.75"/>
</g>
<!-- Node8 -->
<g id="node8" class="node">
<title>Node8</title>
<g id="a_node8"><a xlink:href="gov__effects_8h.html" target="_top" xlink:title=" ">
<polygon fill="white" stroke="black" points="656,-112.5 656,-131.5 800,-131.5 800,-112.5 656,-112.5"/>
<text text-anchor="middle" x="728" y="-119.5" font-family="Helvetica,sans-Serif" font-size="10.00">src/node/rpc/gov_effects.h</text>
</a>
</g>
</g>
<!-- Node7&#45;&gt;Node8 -->
<g id="edge9" class="edge">
<title>Node7&#45;&gt;Node8</title>
<path fill="none" stroke="midnightblue" d="M651.12,-168.74C670.44,-157.25 697.37,-141.22 713.7,-131.51"/>
<polygon fill="midnightblue" stroke="midnightblue" points="649.13,-165.85 642.33,-173.98 652.71,-171.87 649.13,-165.85"/>
</g>
<!-- Node8&#45;&gt;Node2 -->
<g id="edge10" class="edge">
<title>Node8&#45;&gt;Node2</title>
<path fill="none" stroke="midnightblue" d="M743.08,-104.72C751.89,-95.2 762.67,-83.56 769.9,-75.75"/>
<polygon fill="midnightblue" stroke="midnightblue" points="740.48,-102.37 736.26,-112.08 745.62,-107.12 740.48,-102.37"/>
</g>
<!-- Node10 -->
<g id="node10" class="node">
<title>Node10</title>
<g id="a_node10"><a xlink:href="orc__requests_8h.html" target="_top" xlink:title=" ">
<polygon fill="white" stroke="black" points="514.5,-358.5 514.5,-388.5 633.5,-388.5 633.5,-358.5 514.5,-358.5"/>
<text text-anchor="start" x="522.5" y="-376.5" font-family="Helvetica,sans-Serif" font-size="10.00">src/consensus/aft/orc</text>
<text text-anchor="middle" x="574" y="-365.5" font-family="Helvetica,sans-Serif" font-size="10.00">_requests.h</text>
</a>
</g>
</g>
<!-- Node9&#45;&gt;Node10 -->
<g id="edge12" class="edge">
<title>Node9&#45;&gt;Node10</title>
<path fill="none" stroke="midnightblue" d="M429.61,-422.23C458.92,-412.54 500.54,-398.78 531.58,-388.52"/>
<polygon fill="midnightblue" stroke="midnightblue" points="428.19,-419.01 419.79,-425.48 430.38,-425.66 428.19,-419.01"/>
</g>
<!-- Node11 -->
<g id="node11" class="node">
<title>Node11</title>
<g id="a_node11"><a xlink:href="raft_8h.html" target="_top" xlink:title=" ">
<polygon fill="white" stroke="black" points="462.5,-302.5 462.5,-321.5 591.5,-321.5 591.5,-302.5 462.5,-302.5"/>
<text text-anchor="middle" x="527" y="-309.5" font-family="Helvetica,sans-Serif" font-size="10.00">src/consensus/aft/raft.h</text>
</a>
</g>
</g>
<!-- Node9&#45;&gt;Node11 -->
<g id="edge19" class="edge">
<title>Node9&#45;&gt;Node11</title>
<path fill="none" stroke="midnightblue" d="M420.69,-420.53C435.23,-412.48 453.04,-401.43 467,-389 490.6,-367.98 511.9,-336.85 521.55,-321.79"/>
<polygon fill="midnightblue" stroke="midnightblue" points="418.84,-417.55 411.68,-425.36 422.15,-423.72 418.84,-417.55"/>
</g>
<!-- Node14 -->
<g id="node14" class="node">
<title>Node14</title>
<g id="a_node14"><a xlink:href="http__node__client_8h.html" target="_top" xlink:title=" ">
<polygon fill="white" stroke="black" points="486,-235.5 486,-265.5 596,-265.5 596,-235.5 486,-235.5"/>
<text text-anchor="start" x="494" y="-253.5" font-family="Helvetica,sans-Serif" font-size="10.00">src/node/http_node</text>
<text text-anchor="middle" x="541" y="-242.5" font-family="Helvetica,sans-Serif" font-size="10.00">_client.h</text>
</a>
</g>
</g>
<!-- Node9&#45;&gt;Node14 -->
<g id="edge20" class="edge">
<title>Node9&#45;&gt;Node14</title>
<path fill="none" stroke="midnightblue" d="M358.55,-421.2C344.22,-414.06 329.16,-403.61 321,-389 314.28,-376.97 313.68,-369.67 321,-358 341.29,-325.64 441.81,-286.14 499.71,-265.53"/>
<polygon fill="midnightblue" stroke="midnightblue" points="357.24,-424.44 367.79,-425.41 360.15,-418.08 357.24,-424.44"/>
</g>
<!-- Node15 -->
<g id="node15" class="node">
<title>Node15</title>
<g id="a_node15"><a xlink:href="retired__nodes__cleanup_8h.html" target="_top" xlink:title=" ">
<polygon fill="white" stroke="black" points="330,-358.5 330,-388.5 458,-388.5 458,-358.5 330,-358.5"/>
<text text-anchor="start" x="338" y="-376.5" font-family="Helvetica,sans-Serif" font-size="10.00">src/node/retired_nodes</text>
<text text-anchor="middle" x="394" y="-365.5" font-family="Helvetica,sans-Serif" font-size="10.00">_cleanup.h</text>
</a>
</g>
</g>
<!-- Node9&#45;&gt;Node15 -->
<g id="edge22" class="edge">
<title>Node9&#45;&gt;Node15</title>
<path fill="none" stroke="midnightblue" d="M394,-415.23C394,-406.59 394,-396.5 394,-388.52"/>
<polygon fill="midnightblue" stroke="midnightblue" points="390.5,-415.48 394,-425.48 397.5,-415.48 390.5,-415.48"/>
</g>
<!-- Node10&#45;&gt;Node11 -->
<g id="edge13" class="edge">
<title>Node10&#45;&gt;Node11</title>
<path fill="none" stroke="midnightblue" d="M556.55,-350.4C548.65,-340.41 539.78,-329.18 533.84,-321.66"/>
<polygon fill="midnightblue" stroke="midnightblue" points="553.92,-352.72 562.86,-358.4 559.41,-348.38 553.92,-352.72"/>
</g>
<!-- Node12 -->
<g id="node12" class="node">
<title>Node12</title>
<g id="a_node12"><a xlink:href="node__frontend_8h.html" target="_top" xlink:title=" ">
<polygon fill="white" stroke="black" points="690,-302.5 690,-321.5 848,-321.5 848,-302.5 690,-302.5"/>
<text text-anchor="middle" x="769" y="-309.5" font-family="Helvetica,sans-Serif" font-size="10.00">src/node/rpc/node_frontend.h</text>
</a>
</g>
</g>
<!-- Node10&#45;&gt;Node12 -->
<g id="edge15" class="edge">
<title>Node10&#45;&gt;Node12</title>
<path fill="none" stroke="midnightblue" d="M630.17,-355.36C666.45,-344.29 712.08,-330.37 740.91,-321.57"/>
<polygon fill="midnightblue" stroke="midnightblue" points="628.76,-352.13 620.21,-358.4 630.8,-358.83 628.76,-352.13"/>
</g>
<!-- Node11&#45;&gt;Node7 -->
<g id="edge14" class="edge">
<title>Node11&#45;&gt;Node7</title>
<path fill="none" stroke="midnightblue" d="M561.17,-298.33C576.58,-291.03 593.79,-280.41 605,-266 622.34,-243.72 626.61,-209.02 627.66,-193.06"/>
<polygon fill="midnightblue" stroke="midnightblue" points="559.61,-295.2 551.88,-302.45 562.44,-301.6 559.61,-295.2"/>
</g>
<!-- Node12&#45;&gt;Node2 -->
<g id="edge16" class="edge">
<title>Node12&#45;&gt;Node2</title>
<path fill="none" stroke="midnightblue" d="M795.32,-297.05C806.66,-289.51 818.75,-279.05 825,-266 839.3,-236.16 843.11,-200.91 809,-112 803.63,-98.01 793.08,-84.14 785.79,-75.58"/>
<polygon fill="midnightblue" stroke="midnightblue" points="793.19,-294.25 786.5,-302.46 796.85,-300.21 793.19,-294.25"/>
</g>
<!-- Node13 -->
<g id="node13" class="node">
<title>Node13</title>
<g id="a_node13"><a xlink:href="jwt__key__auto__refresh_8h.html" target="_top" xlink:title=" ">
<polygon fill="white" stroke="black" points="690.5,-235.5 690.5,-265.5 815.5,-265.5 815.5,-235.5 690.5,-235.5"/>
<text text-anchor="start" x="698.5" y="-253.5" font-family="Helvetica,sans-Serif" font-size="10.00">src/node/jwt_key_auto</text>
<text text-anchor="middle" x="753" y="-242.5" font-family="Helvetica,sans-Serif" font-size="10.00">_refresh.h</text>
</a>
</g>
</g>
<!-- Node12&#45;&gt;Node13 -->
<g id="edge17" class="edge">
<title>Node12&#45;&gt;Node13</title>
<path fill="none" stroke="midnightblue" d="M764.11,-292.82C761.75,-284.04 758.96,-273.68 756.77,-265.52"/>
<polygon fill="midnightblue" stroke="midnightblue" points="760.73,-293.73 766.71,-302.48 767.49,-291.91 760.73,-293.73"/>
</g>
<!-- Node13&#45;&gt;Node7 -->
<g id="edge18" class="edge">
<title>Node13&#45;&gt;Node7</title>
<path fill="none" stroke="midnightblue" d="M716.73,-230.64C692.81,-218.2 662.64,-202.51 644.36,-193.01"/>
<polygon fill="midnightblue" stroke="midnightblue" points="715.39,-233.89 725.88,-235.4 718.62,-227.68 715.39,-233.89"/>
</g>
<!-- Node14&#45;&gt;Node7 -->
<g id="edge21" class="edge">
<title>Node14&#45;&gt;Node7</title>
<path fill="none" stroke="midnightblue" d="M567.98,-229.34C584.22,-217.21 604.06,-202.39 616.36,-193.19"/>
<polygon fill="midnightblue" stroke="midnightblue" points="565.79,-226.61 559.88,-235.4 569.98,-232.21 565.79,-226.61"/>
</g>
<!-- Node15&#45;&gt;Node11 -->
<g id="edge23" class="edge">
<title>Node15&#45;&gt;Node11</title>
<path fill="none" stroke="midnightblue" d="M434.84,-354.23C459.06,-343.39 488.64,-330.16 507.65,-321.66"/>
<polygon fill="midnightblue" stroke="midnightblue" points="433.22,-351.12 425.52,-358.4 436.08,-357.51 433.22,-351.12"/>
</g>
<!-- Node16&#45;&gt;Node7 -->
<g id="edge26" class="edge">
<title>Node16&#45;&gt;Node7</title>
<path fill="none" stroke="midnightblue" d="M448.54,-238.01C491.68,-225.15 560.61,-204.59 599.28,-193.06"/>
<polygon fill="midnightblue" stroke="midnightblue" points="447.53,-234.66 438.95,-240.87 449.53,-241.37 447.53,-234.66"/>
</g>
<!-- Node18 -->
<g id="node18" class="node">
<title>Node18</title>
<g id="a_node18"><a xlink:href="host_2main_8cpp.html" target="_top" xlink:title=" ">
<polygon fill="white" stroke="black" points="28.5,-425.5 28.5,-444.5 131.5,-444.5 131.5,-425.5 28.5,-425.5"/>
<text text-anchor="middle" x="80" y="-432.5" font-family="Helvetica,sans-Serif" font-size="10.00">src/host/main.cpp</text>
</a>
</g>
</g>
<!-- Node17&#45;&gt;Node18 -->
<g id="edge28" class="edge">
<title>Node17&#45;&gt;Node18</title>
<path fill="none" stroke="midnightblue" d="M92.67,-471.9C89.28,-462.3 85.58,-451.81 83.06,-444.66"/>
<polygon fill="midnightblue" stroke="midnightblue" points="89.39,-473.13 96.02,-481.4 96,-470.8 89.39,-473.13"/>
</g>
<!-- Node19&#45;&gt;Node2 -->
<g id="edge30" class="edge">
<title>Node19&#45;&gt;Node2</title>
<path fill="none" stroke="midnightblue" d="M949.28,-422.78C1002.49,-407.75 1078,-375.44 1078,-313 1078,-313 1078,-313 1078,-182.5 1078,-150.05 1083.11,-133.72 1059,-112 1027.47,-83.61 911.77,-73.06 839.03,-69.19"/>
<polygon fill="midnightblue" stroke="midnightblue" points="948.04,-419.49 939.3,-425.47 949.86,-426.24 948.04,-419.49"/>
</g>
<!-- Node20 -->
<g id="node20" class="node">
<title>Node20</title>
<g id="a_node20"><a xlink:href="frontend_8h.html" target="_top" xlink:title=" ">
<polygon fill="white" stroke="black" points="833.5,-364 833.5,-383 962.5,-383 962.5,-364 833.5,-364"/>
<text text-anchor="middle" x="898" y="-371" font-family="Helvetica,sans-Serif" font-size="10.00">src/node/rpc/frontend.h</text>
</a>
</g>
</g>
<!-- Node19&#45;&gt;Node20 -->
<g id="edge31" class="edge">
<title>Node19&#45;&gt;Node20</title>
<path fill="none" stroke="midnightblue" d="M898,-415.32C898,-404.5 898,-391.4 898,-383.01"/>
<polygon fill="midnightblue" stroke="midnightblue" points="894.5,-415.48 898,-425.48 901.5,-415.48 894.5,-415.48"/>
</g>
<!-- Node20&#45;&gt;Node7 -->
<g id="edge32" class="edge">
<title>Node20&#45;&gt;Node7</title>
<path fill="none" stroke="midnightblue" d="M893.38,-353.93C884.99,-324.16 864.36,-265.98 825,-235 786.57,-204.75 732.07,-192.45 690.12,-187.54"/>
<polygon fill="midnightblue" stroke="midnightblue" points="890.06,-355.06 896.01,-363.83 896.83,-353.27 890.06,-355.06"/>
</g>
<!-- Node20&#45;&gt;Node12 -->
<g id="edge35" class="edge">
<title>Node20&#45;&gt;Node12</title>
<path fill="none" stroke="midnightblue" d="M870.19,-359.67C845.16,-348.13 809.08,-331.49 787.45,-321.51"/>
<polygon fill="midnightblue" stroke="midnightblue" points="868.97,-362.96 879.52,-363.98 871.9,-356.61 868.97,-362.96"/>
</g>
<!-- Node21 -->
<g id="node21" class="node">
<title>Node21</title>
<g id="a_node21"><a xlink:href="member__frontend_8h.html" target="_top" xlink:title=" ">
<polygon fill="white" stroke="black" points="856,-168.5 856,-198.5 976,-198.5 976,-168.5 856,-168.5"/>
<text text-anchor="start" x="864" y="-186.5" font-family="Helvetica,sans-Serif" font-size="10.00">src/node/rpc/member</text>
<text text-anchor="middle" x="916" y="-175.5" font-family="Helvetica,sans-Serif" font-size="10.00">_frontend.h</text>
</a>
</g>
</g>
<!-- Node20&#45;&gt;Node21 -->
<g id="edge33" class="edge">
<title>Node20&#45;&gt;Node21</title>
<path fill="none" stroke="midnightblue" d="M899.78,-353.88C903.38,-316.33 911.43,-232.24 914.64,-198.7"/>
<polygon fill="midnightblue" stroke="midnightblue" points="896.29,-353.65 898.82,-363.93 903.26,-354.31 896.29,-353.65"/>
</g>
<!-- Node22 -->
<g id="node22" class="node">
<title>Node22</title>
<g id="a_node22"><a xlink:href="user__frontend_8h.html" target="_top" xlink:title=" ">
<polygon fill="white" stroke="black" points="894.5,-112.5 894.5,-131.5 1049.5,-131.5 1049.5,-112.5 894.5,-112.5"/>
<text text-anchor="middle" x="972" y="-119.5" font-family="Helvetica,sans-Serif" font-size="10.00">src/node/rpc/user_frontend.h</text>
</a>
</g>
</g>
<!-- Node20&#45;&gt;Node22 -->
<g id="edge36" class="edge">
<title>Node20&#45;&gt;Node22</title>
<path fill="none" stroke="midnightblue" d="M910.17,-355.18C930.46,-325.1 970.43,-260.54 985,-199 990.73,-174.77 981.27,-145.63 975.67,-131.5"/>
<polygon fill="midnightblue" stroke="midnightblue" points="907.1,-353.46 904.33,-363.68 912.87,-357.42 907.1,-353.46"/>
</g>
<!-- Node21&#45;&gt;Node2 -->
<g id="edge34" class="edge">
<title>Node21&#45;&gt;Node2</title>
<path fill="none" stroke="midnightblue" d="M894.98,-160.86C880.58,-146.44 860.75,-127.38 842,-112 825.3,-98.3 804.66,-84.26 791.41,-75.59"/>
<polygon fill="midnightblue" stroke="midnightblue" points="892.86,-163.69 902.38,-168.34 897.84,-158.77 892.86,-163.69"/>
</g>
<!-- Node22&#45;&gt;Node2 -->
<g id="edge37" class="edge">
<title>Node22&#45;&gt;Node2</title>
<path fill="none" stroke="midnightblue" d="M931.4,-109.7C894.78,-99.51 841.74,-84.74 808.6,-75.52"/>
<polygon fill="midnightblue" stroke="midnightblue" points="930.69,-113.13 941.26,-112.44 932.56,-106.39 930.69,-113.13"/>
</g>
</g>
</svg>
