<?xml version="1.0" encoding="UTF-8" standalone="no"?>
<!DOCTYPE svg PUBLIC "-//W3C//DTD SVG 1.1//EN"
 "http://www.w3.org/Graphics/SVG/1.1/DTD/svg11.dtd">
<!-- Generated by graphviz version 2.43.0 (0)
 -->
<!-- Title: src/enclave/rpc_sessions.h Pages: 1 -->
<!--zoomable 509 -->
<svg id="main" version="1.1" xmlns="http://www.w3.org/2000/svg" xmlns:xlink="http://www.w3.org/1999/xlink" xml:space="preserve" onload="init(evt)">
<style type="text/css"><![CDATA[
.edge:hover path { stroke: red; }
.edge:hover polygon { stroke: red; fill: red; }
]]></style>
<script type="text/javascript"><![CDATA[
var edges = document.getElementsByTagName('g');
if (edges && edges.length) {
  for (var i=0;i<edges.length;i++) {
    if (edges[i].id.substr(0,4)=='edge') {
      edges[i].setAttribute('class','edge');
    }
  }
}
]]></script>
        <defs>
                <circle id="rim" cx="0" cy="0" r="7"/>
                <circle id="rim2" cx="0" cy="0" r="3.5"/>
                <g id="zoomPlus">
                        <use xlink:href="#rim" fill="#404040">
                                <set attributeName="fill" to="#808080" begin="zoomplus.mouseover" end="zoomplus.mouseout"/>
                        </use>
                        <path d="M-4,0h8M0,-4v8" fill="none" stroke="white" stroke-width="1.5" pointer-events="none"/>
                </g>
                <g id="zoomMin">
                        <use xlink:href="#rim" fill="#404040">
                                <set attributeName="fill" to="#808080" begin="zoomminus.mouseover" end="zoomminus.mouseout"/>
                        </use>
                        <path d="M-4,0h8" fill="none" stroke="white" stroke-width="1.5" pointer-events="none"/>
                </g>
                <g id="dirArrow">
                        <path fill="none" stroke="white" stroke-width="1.5" d="M0,-3.0v7 M-2.5,-0.5L0,-3.0L2.5,-0.5"/>
                </g>
               <g id="resetDef">
                       <use xlink:href="#rim2" fill="#404040">
                               <set attributeName="fill" to="#808080" begin="reset.mouseover" end="reset.mouseout"/>
                       </use>
               </g>
        </defs>

<script type="text/javascript">
var viewWidth = 713;
var viewHeight = 509;
var sectionId = 'dynsection-1';
</script>
<script xlink:href="svgpan.js"/>
<svg id="graph" class="graph">
<g id="viewport">
<title>src/enclave/rpc_sessions.h</title>
<polygon fill="white" stroke="transparent" points="-4,4 -4,-505 708.5,-505 708.5,4 -4,4"/>
<!-- Node1 -->
<g id="node1" class="node">
<title>Node1</title>
<g id="a_node1"><a xlink:title=" ">
<polygon fill="#bfbfbf" stroke="black" points="150,-481.5 150,-500.5 296,-500.5 296,-481.5 150,-481.5"/>
<text text-anchor="middle" x="223" y="-488.5" font-family="Helvetica,sans-Serif" font-size="10.00">src/enclave/rpc_sessions.h</text>
</a>
</g>
</g>
<!-- Node2 -->
<g id="node2" class="node">
<title>Node2</title>
<g id="a_node2"><a xlink:href="enclave_2enclave_8h.html" target="_top" xlink:title=" ">
<polygon fill="white" stroke="black" points="159,-56.5 159,-75.5 281,-75.5 281,-56.5 159,-56.5"/>
<text text-anchor="middle" x="220" y="-63.5" font-family="Helvetica,sans-Serif" font-size="10.00">src/enclave/enclave.h</text>
</a>
</g>
</g>
<!-- Node1&#45;&gt;Node2 -->
<g id="edge1" class="edge">
<title>Node1&#45;&gt;Node2</title>
<path fill="none" stroke="midnightblue" d="M139.93,-480.62C76.54,-468.3 0,-439.89 0,-374.5 0,-374.5 0,-374.5 0,-177 0,-105.69 93.62,-80.6 158.72,-71.78"/>
<polygon fill="midnightblue" stroke="midnightblue" points="139.51,-484.11 149.98,-482.47 140.78,-477.22 139.51,-484.11"/>
</g>
<!-- Node4 -->
<g id="node4" class="node">
<title>Node4</title>
<g id="a_node4"><a xlink:href="ccf__acme__client_8h.html" target="_top" xlink:title=" ">
<polygon fill="white" stroke="black" points="555.5,-230 555.5,-249 704.5,-249 704.5,-230 555.5,-230"/>
<text text-anchor="middle" x="630" y="-237" font-family="Helvetica,sans-Serif" font-size="10.00">src/node/ccf_acme_client.h</text>
</a>
</g>
</g>
<!-- Node1&#45;&gt;Node4 -->
<g id="edge3" class="edge">
<title>Node1&#45;&gt;Node4</title>
<path fill="none" stroke="midnightblue" d="M306.46,-482.63C371.63,-475.61 455.85,-463.36 485,-445 565.28,-394.44 613.98,-281.69 626.67,-249.34"/>
<polygon fill="midnightblue" stroke="midnightblue" points="305.75,-479.18 296.17,-483.71 306.48,-486.14 305.75,-479.18"/>
</g>
<!-- Node5 -->
<g id="node5" class="node">
<title>Node5</title>
<g id="a_node5"><a xlink:href="node__state_8h.html" target="_top" xlink:title=" ">
<polygon fill="white" stroke="black" points="261,-168.5 261,-187.5 385,-187.5 385,-168.5 261,-168.5"/>
<text text-anchor="middle" x="323" y="-175.5" font-family="Helvetica,sans-Serif" font-size="10.00">src/node/node_state.h</text>
</a>
</g>
</g>
<!-- Node1&#45;&gt;Node5 -->
<g id="edge21" class="edge">
<title>Node1&#45;&gt;Node5</title>
<path fill="none" stroke="midnightblue" d="M164.5,-479.02C110.3,-465.07 38,-435.1 38,-374.5 38,-374.5 38,-374.5 38,-305.5 38,-208.74 176.95,-185.43 260.81,-180.17"/>
<polygon fill="midnightblue" stroke="midnightblue" points="163.85,-482.47 174.39,-481.45 165.51,-475.67 163.85,-482.47"/>
</g>
<!-- Node7 -->
<g id="node7" class="node">
<title>Node7</title>
<g id="a_node7"><a xlink:href="node__client_8h.html" target="_top" xlink:title=" ">
<polygon fill="white" stroke="black" points="160,-425.5 160,-444.5 286,-444.5 286,-425.5 160,-425.5"/>
<text text-anchor="middle" x="223" y="-432.5" font-family="Helvetica,sans-Serif" font-size="10.00">src/node/node_client.h</text>
</a>
</g>
</g>
<!-- Node1&#45;&gt;Node7 -->
<g id="edge8" class="edge">
<title>Node1&#45;&gt;Node7</title>
<path fill="none" stroke="midnightblue" d="M223,-470.8C223,-461.91 223,-451.78 223,-444.75"/>
<polygon fill="midnightblue" stroke="midnightblue" points="219.5,-471.08 223,-481.08 226.5,-471.08 219.5,-471.08"/>
</g>
<!-- Node14 -->
<g id="node14" class="node">
<title>Node14</title>
<g id="a_node14"><a xlink:href="resharing_8h.html" target="_top" xlink:title=" ">
<polygon fill="white" stroke="black" points="360,-425.5 360,-444.5 476,-444.5 476,-425.5 360,-425.5"/>
<text text-anchor="middle" x="418" y="-432.5" font-family="Helvetica,sans-Serif" font-size="10.00">src/node/resharing.h</text>
</a>
</g>
</g>
<!-- Node1&#45;&gt;Node14 -->
<g id="edge22" class="edge">
<title>Node1&#45;&gt;Node14</title>
<path fill="none" stroke="midnightblue" d="M263.81,-478.7C300.61,-468.51 353.93,-453.74 387.25,-444.52"/>
<polygon fill="midnightblue" stroke="midnightblue" points="262.6,-475.4 253.9,-481.44 264.47,-482.15 262.6,-475.4"/>
</g>
<!-- Node3 -->
<g id="node3" class="node">
<title>Node3</title>
<g id="a_node3"><a xlink:href="enclave_2main_8cpp.html" target="_top" xlink:title=" ">
<polygon fill="white" stroke="black" points="160,-0.5 160,-19.5 280,-19.5 280,-0.5 160,-0.5"/>
<text text-anchor="middle" x="220" y="-7.5" font-family="Helvetica,sans-Serif" font-size="10.00">src/enclave/main.cpp</text>
</a>
</g>
</g>
<!-- Node2&#45;&gt;Node3 -->
<g id="edge2" class="edge">
<title>Node2&#45;&gt;Node3</title>
<path fill="none" stroke="midnightblue" d="M220,-45.8C220,-36.91 220,-26.78 220,-19.75"/>
<polygon fill="midnightblue" stroke="midnightblue" points="216.5,-46.08 220,-56.08 223.5,-46.08 216.5,-46.08"/>
</g>
<!-- Node4&#45;&gt;Node5 -->
<g id="edge4" class="edge">
<title>Node4&#45;&gt;Node5</title>
<path fill="none" stroke="midnightblue" d="M576.06,-228.05C516.58,-216.52 422.03,-198.19 366.9,-187.51"/>
<polygon fill="midnightblue" stroke="midnightblue" points="575.53,-231.51 586.01,-229.98 576.86,-224.64 575.53,-231.51"/>
</g>
<!-- Node5&#45;&gt;Node2 -->
<g id="edge5" class="edge">
<title>Node5&#45;&gt;Node2</title>
<path fill="none" stroke="midnightblue" d="M297.92,-163.23C284.95,-155.28 269.48,-144.4 258,-132 241.83,-114.55 229.45,-89.06 223.64,-75.78"/>
<polygon fill="midnightblue" stroke="midnightblue" points="296.44,-166.42 306.83,-168.49 300,-160.39 296.44,-166.42"/>
</g>
<!-- Node6 -->
<g id="node6" class="node">
<title>Node6</title>
<g id="a_node6"><a xlink:href="gov__effects_8h.html" target="_top" xlink:title=" ">
<polygon fill="white" stroke="black" points="267,-112.5 267,-131.5 411,-131.5 411,-112.5 267,-112.5"/>
<text text-anchor="middle" x="339" y="-119.5" font-family="Helvetica,sans-Serif" font-size="10.00">src/node/rpc/gov_effects.h</text>
</a>
</g>
</g>
<!-- Node5&#45;&gt;Node6 -->
<g id="edge6" class="edge">
<title>Node5&#45;&gt;Node6</title>
<path fill="none" stroke="midnightblue" d="M328.51,-158.4C331.19,-149.36 334.28,-138.94 336.41,-131.75"/>
<polygon fill="midnightblue" stroke="midnightblue" points="325.13,-157.5 325.64,-168.08 331.84,-159.49 325.13,-157.5"/>
</g>
<!-- Node6&#45;&gt;Node2 -->
<g id="edge7" class="edge">
<title>Node6&#45;&gt;Node2</title>
<path fill="none" stroke="midnightblue" d="M310.86,-108.23C288.6,-98.13 258.14,-84.31 238.77,-75.52"/>
<polygon fill="midnightblue" stroke="midnightblue" points="309.59,-111.5 320.14,-112.44 312.48,-105.12 309.59,-111.5"/>
</g>
<!-- Node8 -->
<g id="node8" class="node">
<title>Node8</title>
<g id="a_node8"><a xlink:href="orc__requests_8h.html" target="_top" xlink:title=" ">
<polygon fill="white" stroke="black" points="250.5,-358.5 250.5,-388.5 369.5,-388.5 369.5,-358.5 250.5,-358.5"/>
<text text-anchor="start" x="258.5" y="-376.5" font-family="Helvetica,sans-Serif" font-size="10.00">src/consensus/aft/orc</text>
<text text-anchor="middle" x="310" y="-365.5" font-family="Helvetica,sans-Serif" font-size="10.00">_requests.h</text>
</a>
</g>
</g>
<!-- Node7&#45;&gt;Node8 -->
<g id="edge9" class="edge">
<title>Node7&#45;&gt;Node8</title>
<path fill="none" stroke="midnightblue" d="M243.85,-419.74C257.68,-410.28 275.74,-397.93 289.5,-388.52"/>
<polygon fill="midnightblue" stroke="midnightblue" points="241.74,-416.94 235.46,-425.48 245.7,-422.72 241.74,-416.94"/>
</g>
<!-- Node9 -->
<g id="node9" class="node">
<title>Node9</title>
<g id="a_node9"><a xlink:href="raft_8h.html" target="_top" xlink:title=" ">
<polygon fill="white" stroke="black" points="66.5,-297 66.5,-316 195.5,-316 195.5,-297 66.5,-297"/>
<text text-anchor="middle" x="131" y="-304" font-family="Helvetica,sans-Serif" font-size="10.00">src/consensus/aft/raft.h</text>
</a>
</g>
</g>
<!-- Node7&#45;&gt;Node9 -->
<g id="edge16" class="edge">
<title>Node7&#45;&gt;Node9</title>
<path fill="none" stroke="midnightblue" d="M150.12,-424.65C128.88,-418.15 107.93,-407.25 95,-389 78.01,-365.02 106.07,-331.74 121.67,-316.18"/>
<polygon fill="midnightblue" stroke="midnightblue" points="149.3,-428.05 159.87,-427.33 151.16,-421.31 149.3,-428.05"/>
</g>
<!-- Node12 -->
<g id="node12" class="node">
<title>Node12</title>
<g id="a_node12"><a xlink:href="http__node__client_8h.html" target="_top" xlink:title=" ">
<polygon fill="white" stroke="black" points="390,-291.5 390,-321.5 500,-321.5 500,-291.5 390,-291.5"/>
<text text-anchor="start" x="398" y="-309.5" font-family="Helvetica,sans-Serif" font-size="10.00">src/node/http_node</text>
<text text-anchor="middle" x="445" y="-298.5" font-family="Helvetica,sans-Serif" font-size="10.00">_client.h</text>
</a>
</g>
</g>
<!-- Node7&#45;&gt;Node12 -->
<g id="edge17" class="edge">
<title>Node7&#45;&gt;Node12</title>
<path fill="none" stroke="midnightblue" d="M291.95,-423.26C320.27,-416.57 352.36,-405.9 378,-389 404.77,-371.36 426.25,-339.75 437.16,-321.52"/>
<polygon fill="midnightblue" stroke="midnightblue" points="291.1,-419.86 282.11,-425.46 292.63,-426.69 291.1,-419.86"/>
</g>
<!-- Node13 -->
<g id="node13" class="node">
<title>Node13</title>
<g id="a_node13"><a xlink:href="retired__nodes__cleanup_8h.html" target="_top" xlink:title=" ">
<polygon fill="white" stroke="black" points="104,-358.5 104,-388.5 232,-388.5 232,-358.5 104,-358.5"/>
<text text-anchor="start" x="112" y="-376.5" font-family="Helvetica,sans-Serif" font-size="10.00">src/node/retired_nodes</text>
<text text-anchor="middle" x="168" y="-365.5" font-family="Helvetica,sans-Serif" font-size="10.00">_cleanup.h</text>
</a>
</g>
</g>
<!-- Node7&#45;&gt;Node13 -->
<g id="edge19" class="edge">
<title>Node7&#45;&gt;Node13</title>
<path fill="none" stroke="midnightblue" d="M208.29,-418.09C199.78,-408.88 189.16,-397.39 180.96,-388.52"/>
<polygon fill="midnightblue" stroke="midnightblue" points="205.76,-420.51 215.12,-425.48 210.9,-415.76 205.76,-420.51"/>
</g>
<!-- Node8&#45;&gt;Node9 -->
<g id="edge10" class="edge">
<title>Node8&#45;&gt;Node9</title>
<path fill="none" stroke="midnightblue" d="M261.66,-354.95C226.89,-342.32 181.53,-325.85 154.43,-316.01"/>
<polygon fill="midnightblue" stroke="midnightblue" points="260.57,-358.27 271.16,-358.4 262.95,-351.69 260.57,-358.27"/>
</g>
<!-- Node10 -->
<g id="node10" class="node">
<title>Node10</title>
<g id="a_node10"><a xlink:href="node__frontend_8h.html" target="_top" xlink:title=" ">
<polygon fill="white" stroke="black" points="214,-297 214,-316 372,-316 372,-297 214,-297"/>
<text text-anchor="middle" x="293" y="-304" font-family="Helvetica,sans-Serif" font-size="10.00">src/node/rpc/node_frontend.h</text>
</a>
</g>
</g>
<!-- Node8&#45;&gt;Node10 -->
<g id="edge12" class="edge">
<title>Node8&#45;&gt;Node10</title>
<path fill="none" stroke="midnightblue" d="M303.75,-348.6C300.79,-337.28 297.44,-324.46 295.27,-316.19"/>
<polygon fill="midnightblue" stroke="midnightblue" points="300.39,-349.61 306.31,-358.4 307.17,-347.84 300.39,-349.61"/>
</g>
<!-- Node9&#45;&gt;Node5 -->
<g id="edge11" class="edge">
<title>Node9&#45;&gt;Node5</title>
<path fill="none" stroke="midnightblue" d="M148.43,-290.36C168.69,-273.16 203.5,-244.77 236,-224 258.5,-209.62 286.12,-195.95 304.12,-187.53"/>
<polygon fill="midnightblue" stroke="midnightblue" points="146,-287.83 140.69,-297 150.56,-293.15 146,-287.83"/>
</g>
<!-- Node10&#45;&gt;Node2 -->
<g id="edge13" class="edge">
<title>Node10&#45;&gt;Node2</title>
<path fill="none" stroke="midnightblue" d="M269.48,-291.08C257.3,-282.26 243.45,-269.83 236,-255 204.69,-192.65 214.41,-103.91 218.55,-75.85"/>
<polygon fill="midnightblue" stroke="midnightblue" points="267.7,-294.1 277.94,-296.84 271.65,-288.32 267.7,-294.1"/>
</g>
<!-- Node11 -->
<g id="node11" class="node">
<title>Node11</title>
<g id="a_node11"><a xlink:href="jwt__key__auto__refresh_8h.html" target="_top" xlink:title=" ">
<polygon fill="white" stroke="black" points="245.5,-224.5 245.5,-254.5 370.5,-254.5 370.5,-224.5 245.5,-224.5"/>
<text text-anchor="start" x="253.5" y="-242.5" font-family="Helvetica,sans-Serif" font-size="10.00">src/node/jwt_key_auto</text>
<text text-anchor="middle" x="308" y="-231.5" font-family="Helvetica,sans-Serif" font-size="10.00">_refresh.h</text>
</a>
</g>
</g>
<!-- Node10&#45;&gt;Node11 -->
<g id="edge14" class="edge">
<title>Node10&#45;&gt;Node11</title>
<path fill="none" stroke="midnightblue" d="M297.33,-286.74C299.7,-276.49 302.58,-264 304.75,-254.59"/>
<polygon fill="midnightblue" stroke="midnightblue" points="293.86,-286.2 295.02,-296.73 300.68,-287.78 293.86,-286.2"/>
</g>
<!-- Node11&#45;&gt;Node5 -->
<g id="edge15" class="edge">
<title>Node11&#45;&gt;Node5</title>
<path fill="none" stroke="midnightblue" d="M314.03,-214.59C316.43,-205.08 319.03,-194.73 320.82,-187.66"/>
<polygon fill="midnightblue" stroke="midnightblue" points="310.61,-213.85 311.55,-224.4 317.39,-215.56 310.61,-213.85"/>
</g>
<!-- Node12&#45;&gt;Node5 -->
<g id="edge18" class="edge">
<title>Node12&#45;&gt;Node5</title>
<path fill="none" stroke="midnightblue" d="M429.02,-283.25C416.33,-266.23 397.67,-242.6 379,-224 365.04,-210.09 346.98,-196.21 335.2,-187.62"/>
<polygon fill="midnightblue" stroke="midnightblue" points="426.34,-285.5 435.08,-291.48 431.98,-281.35 426.34,-285.5"/>
</g>
<!-- Node13&#45;&gt;Node9 -->
<g id="edge20" class="edge">
<title>Node13&#45;&gt;Node9</title>
<path fill="none" stroke="midnightblue" d="M154.98,-349.63C148.4,-338.07 140.8,-324.71 135.95,-316.19"/>
<polygon fill="midnightblue" stroke="midnightblue" points="151.98,-351.44 159.97,-358.4 158.07,-347.97 151.98,-351.44"/>
</g>
<!-- Node14&#45;&gt;Node5 -->
<g id="edge23" class="edge">
<title>Node14&#45;&gt;Node5</title>
<path fill="none" stroke="midnightblue" d="M439.82,-419.1C474.36,-393.56 535.17,-339.5 509,-291 477.23,-232.12 400.1,-201.05 355.78,-187.53"/>
<polygon fill="midnightblue" stroke="midnightblue" points="437.35,-416.56 431.27,-425.24 441.43,-422.25 437.35,-416.56"/>
</g>
</g>
</svg>
        <g id="navigator" transform="translate(0 0)" fill="#404254">
                <rect fill="#f2f5e9" fill-opacity="0.5" stroke="#606060" stroke-width=".5" x="0" y="0" width="60" height="60"/>
                <use id="zoomplus" xlink:href="#zoomPlus" x="17" y="9" onmousedown="handleZoom(evt,'in')"/>
                <use id="zoomminus" xlink:href="#zoomMin" x="42" y="9" onmousedown="handleZoom(evt,'out')"/>
                <use id="reset" xlink:href="#resetDef" x="30" y="36" onmousedown="handleReset()"/>
                <g id="arrowUp" xlink:href="#dirArrow" transform="translate(30 24)" onmousedown="handlePan(0,-1)">
                  <use xlink:href="#rim" fill="#404040">
                        <set attributeName="fill" to="#808080" begin="arrowUp.mouseover" end="arrowUp.mouseout"/>
                  </use>
                  <path fill="none" stroke="white" stroke-width="1.5" d="M0,-3.0v7 M-2.5,-0.5L0,-3.0L2.5,-0.5"/>
                </g>
                <g id="arrowRight" xlink:href="#dirArrow" transform="rotate(90) translate(36 -43)" onmousedown="handlePan(1,0)">
                  <use xlink:href="#rim" fill="#404040">
                        <set attributeName="fill" to="#808080" begin="arrowRight.mouseover" end="arrowRight.mouseout"/>
                  </use>
                  <path fill="none" stroke="white" stroke-width="1.5" d="M0,-3.0v7 M-2.5,-0.5L0,-3.0L2.5,-0.5"/>
                </g>
                <g id="arrowDown" xlink:href="#dirArrow" transform="rotate(180) translate(-30 -48)" onmousedown="handlePan(0,1)">
                  <use xlink:href="#rim" fill="#404040">
                        <set attributeName="fill" to="#808080" begin="arrowDown.mouseover" end="arrowDown.mouseout"/>
                  </use>
                  <path fill="none" stroke="white" stroke-width="1.5" d="M0,-3.0v7 M-2.5,-0.5L0,-3.0L2.5,-0.5"/>
                </g>
                <g id="arrowLeft" xlink:href="#dirArrow" transform="rotate(270) translate(-36 17)" onmousedown="handlePan(-1,0)">
                  <use xlink:href="#rim" fill="#404040">
                        <set attributeName="fill" to="#808080" begin="arrowLeft.mouseover" end="arrowLeft.mouseout"/>
                  </use>
                  <path fill="none" stroke="white" stroke-width="1.5" d="M0,-3.0v7 M-2.5,-0.5L0,-3.0L2.5,-0.5"/>
                </g>
        </g>
        <svg viewBox="0 0 15 15" width="100%" height="30px" preserveAspectRatio="xMaxYMin meet">
         <g id="arrow_out" transform="scale(0.3 0.3)">
          <a xlink:href="rpc__sessions_8h__dep__incl_org.svg" target="_base">
           <rect id="button" ry="5" rx="5" y="6" x="6" height="38" width="38"
                fill="#f2f5e9" fill-opacity="0.5" stroke="#606060" stroke-width="1.0"/>
           <path id="arrow"
             d="M 11.500037,31.436501 C 11.940474,20.09759 22.043105,11.32322 32.158766,21.979434 L 37.068811,17.246167 C 37.068811,17.246167 37.088388,32 37.088388,32 L 22.160133,31.978069 C 22.160133,31.978069 26.997745,27.140456 26.997745,27.140456 C 18.528582,18.264221 13.291696,25.230495 11.500037,31.436501 z"
             style="fill:#404040;"/>
          </a>
         </g>
        </svg>
</svg>
