<?xml version="1.0" encoding="UTF-8" standalone="no"?>
<!DOCTYPE svg PUBLIC "-//W3C//DTD SVG 1.1//EN"
 "http://www.w3.org/Graphics/SVG/1.1/DTD/svg11.dtd">
<!-- Generated by graphviz version 2.43.0 (0)
 -->
<!-- Title: src/enclave/rpc_handler.h Pages: 1 -->
<svg width="1618pt" height="699pt"
 viewBox="0.00 0.00 1618.49 699.00" xmlns="http://www.w3.org/2000/svg" xmlns:xlink="http://www.w3.org/1999/xlink">
<g id="graph0" class="graph" transform="scale(1 1) rotate(0) translate(4 695)">
<title>src/enclave/rpc_handler.h</title>
<polygon fill="white" stroke="transparent" points="-4,4 -4,-695 1614.49,-695 1614.49,4 -4,4"/>
<!-- Node1 -->
<g id="node1" class="node">
<title>Node1</title>
<g id="a_node1"><a xlink:title=" ">
<polygon fill="#bfbfbf" stroke="black" points="1116.49,-671.5 1116.49,-690.5 1256.49,-690.5 1256.49,-671.5 1116.49,-671.5"/>
<text text-anchor="middle" x="1186.49" y="-678.5" font-family="Helvetica,sans-Serif" font-size="10.00">src/enclave/rpc_handler.h</text>
</a>
</g>
</g>
<!-- Node2 -->
<g id="node2" class="node">
<title>Node2</title>
<g id="a_node2"><a xlink:href="raft__types_8h.html" target="_top" xlink:title=" ">
<polygon fill="white" stroke="black" points="294.49,-492.5 294.49,-522.5 414.49,-522.5 414.49,-492.5 294.49,-492.5"/>
<text text-anchor="start" x="302.49" y="-510.5" font-family="Helvetica,sans-Serif" font-size="10.00">src/consensus/aft/raft</text>
<text text-anchor="middle" x="354.49" y="-499.5" font-family="Helvetica,sans-Serif" font-size="10.00">_types.h</text>
</a>
</g>
</g>
<!-- Node1&#45;&gt;Node2 -->
<g id="edge1" class="edge">
<title>Node1&#45;&gt;Node2</title>
<path fill="none" stroke="midnightblue" d="M1135.18,-669.42C989.02,-639.3 570.93,-553.12 414.52,-520.87"/>
<polygon fill="midnightblue" stroke="midnightblue" points="1134.73,-672.9 1145.23,-671.5 1136.14,-666.05 1134.73,-672.9"/>
</g>
<!-- Node20 -->
<g id="node20" class="node">
<title>Node20</title>
<g id="a_node20"><a xlink:href="rpc__map_8h.html" target="_top" xlink:title=" ">
<polygon fill="white" stroke="black" points="1383.49,-615.5 1383.49,-634.5 1509.49,-634.5 1509.49,-615.5 1383.49,-615.5"/>
<text text-anchor="middle" x="1446.49" y="-622.5" font-family="Helvetica,sans-Serif" font-size="10.00">src/enclave/rpc_map.h</text>
</a>
</g>
</g>
<!-- Node1&#45;&gt;Node20 -->
<g id="edge30" class="edge">
<title>Node1&#45;&gt;Node20</title>
<path fill="none" stroke="midnightblue" d="M1237.48,-669.41C1286.62,-659.2 1360.02,-643.96 1405.48,-634.52"/>
<polygon fill="midnightblue" stroke="midnightblue" points="1236.77,-665.98 1227.69,-671.44 1238.19,-672.84 1236.77,-665.98"/>
</g>
<!-- Node22 -->
<g id="node22" class="node">
<title>Node22</title>
<g id="a_node22"><a xlink:href="rpc__sessions_8h.html" target="_top" xlink:title=" ">
<polygon fill="white" stroke="black" points="1034.49,-498 1034.49,-517 1180.49,-517 1180.49,-498 1034.49,-498"/>
<text text-anchor="middle" x="1107.49" y="-505" font-family="Helvetica,sans-Serif" font-size="10.00">src/enclave/rpc_sessions.h</text>
</a>
</g>
</g>
<!-- Node1&#45;&gt;Node22 -->
<g id="edge51" class="edge">
<title>Node1&#45;&gt;Node22</title>
<path fill="none" stroke="midnightblue" d="M1187.47,-661.17C1187.94,-636.18 1185.79,-591.46 1167.49,-559 1157.06,-540.5 1137.06,-525.79 1123.03,-517.13"/>
<polygon fill="midnightblue" stroke="midnightblue" points="1183.97,-661.31 1187.11,-671.42 1190.96,-661.55 1183.97,-661.31"/>
</g>
<!-- Node26 -->
<g id="node26" class="node">
<title>Node26</title>
<g id="a_node26"><a xlink:href="frontend_8h.html" target="_top" xlink:title=" ">
<polygon fill="white" stroke="black" points="1344.99,-364 1344.99,-383 1473.99,-383 1473.99,-364 1344.99,-364"/>
<text text-anchor="middle" x="1409.49" y="-371" font-family="Helvetica,sans-Serif" font-size="10.00">src/node/rpc/frontend.h</text>
</a>
</g>
</g>
<!-- Node1&#45;&gt;Node26 -->
<g id="edge58" class="edge">
<title>Node1&#45;&gt;Node26</title>
<path fill="none" stroke="midnightblue" d="M1239.67,-668.72C1288.88,-654.8 1354.49,-625.77 1354.49,-570 1354.49,-570 1354.49,-570 1354.49,-506.5 1354.49,-469.31 1358.18,-458.9 1373.49,-425 1380.76,-408.91 1393.49,-392.71 1401.7,-383.14"/>
<polygon fill="midnightblue" stroke="midnightblue" points="1238.5,-665.41 1229.75,-671.39 1240.32,-672.17 1238.5,-665.41"/>
</g>
<!-- Node29 -->
<g id="node29" class="node">
<title>Node29</title>
<g id="a_node29"><a xlink:href="node__to__node_8h.html" target="_top" xlink:title=" ">
<polygon fill="white" stroke="black" points="878.49,-498 878.49,-517 1016.49,-517 1016.49,-498 878.49,-498"/>
<text text-anchor="middle" x="947.49" y="-505" font-family="Helvetica,sans-Serif" font-size="10.00">src/node/node_to_node.h</text>
</a>
</g>
</g>
<!-- Node1&#45;&gt;Node29 -->
<g id="edge52" class="edge">
<title>Node1&#45;&gt;Node29</title>
<path fill="none" stroke="midnightblue" d="M1159.87,-666.95C1125.2,-649.36 1063.49,-615.94 1016.49,-579 991.44,-559.32 966.37,-531.02 954.53,-517.02"/>
<polygon fill="midnightblue" stroke="midnightblue" points="1158.39,-670.12 1168.9,-671.48 1161.53,-663.87 1158.39,-670.12"/>
</g>
<!-- Node3 -->
<g id="node3" class="node">
<title>Node3</title>
<g id="a_node3"><a xlink:href="request__message_8h.html" target="_top" xlink:title=" ">
<polygon fill="white" stroke="black" points="14.99,-425.5 14.99,-455.5 139.99,-455.5 139.99,-425.5 14.99,-425.5"/>
<text text-anchor="start" x="22.99" y="-443.5" font-family="Helvetica,sans-Serif" font-size="10.00">src/consensus/aft/impl</text>
<text text-anchor="middle" x="77.49" y="-432.5" font-family="Helvetica,sans-Serif" font-size="10.00">/request_message.h</text>
</a>
</g>
</g>
<!-- Node2&#45;&gt;Node3 -->
<g id="edge2" class="edge">
<title>Node2&#45;&gt;Node3</title>
<path fill="none" stroke="midnightblue" d="M284.96,-490.19C239.6,-479.54 180.98,-465.78 137.62,-455.61"/>
<polygon fill="midnightblue" stroke="midnightblue" points="284.19,-493.6 294.73,-492.48 285.79,-486.78 284.19,-493.6"/>
</g>
<!-- Node4 -->
<g id="node4" class="node">
<title>Node4</title>
<g id="a_node4"><a xlink:href="state_8h.html" target="_top" xlink:title=" ">
<polygon fill="white" stroke="black" points="157.99,-425.5 157.99,-455.5 282.99,-455.5 282.99,-425.5 157.99,-425.5"/>
<text text-anchor="start" x="165.99" y="-443.5" font-family="Helvetica,sans-Serif" font-size="10.00">src/consensus/aft/impl</text>
<text text-anchor="middle" x="220.49" y="-432.5" font-family="Helvetica,sans-Serif" font-size="10.00">/state.h</text>
</a>
</g>
</g>
<!-- Node2&#45;&gt;Node4 -->
<g id="edge3" class="edge">
<title>Node2&#45;&gt;Node4</title>
<path fill="none" stroke="midnightblue" d="M316.33,-487.99C295.09,-477.69 269.07,-465.07 249.51,-455.58"/>
<polygon fill="midnightblue" stroke="midnightblue" points="314.89,-491.18 325.41,-492.4 317.94,-484.88 314.89,-491.18"/>
</g>
<!-- Node5 -->
<g id="node5" class="node">
<title>Node5</title>
<g id="a_node5"><a xlink:href="raft_8h.html" target="_top" xlink:title=" ">
<polygon fill="white" stroke="black" points="489.99,-302.5 489.99,-321.5 618.99,-321.5 618.99,-302.5 489.99,-302.5"/>
<text text-anchor="middle" x="554.49" y="-309.5" font-family="Helvetica,sans-Serif" font-size="10.00">src/consensus/aft/raft.h</text>
</a>
</g>
</g>
<!-- Node2&#45;&gt;Node5 -->
<g id="edge12" class="edge">
<title>Node2&#45;&gt;Node5</title>
<path fill="none" stroke="midnightblue" d="M284.03,-506.69C192.89,-505.26 41.64,-496.62 6.49,-456 -2.53,-445.58 -1.65,-436.11 6.49,-425 63.06,-347.8 357.43,-323.08 489.84,-315.8"/>
<polygon fill="midnightblue" stroke="midnightblue" points="284.24,-510.19 294.29,-506.82 284.33,-503.19 284.24,-510.19"/>
</g>
<!-- Node11 -->
<g id="node11" class="node">
<title>Node11</title>
<g id="a_node11"><a xlink:href="node__connections_8h.html" target="_top" xlink:title=" ">
<polygon fill="white" stroke="black" points="425.99,-431 425.99,-450 580.99,-450 580.99,-431 425.99,-431"/>
<text text-anchor="middle" x="503.49" y="-438" font-family="Helvetica,sans-Serif" font-size="10.00">src/host/node_connections.h</text>
</a>
</g>
</g>
<!-- Node2&#45;&gt;Node11 -->
<g id="edge13" class="edge">
<title>Node2&#45;&gt;Node11</title>
<path fill="none" stroke="midnightblue" d="M396.22,-488.3C424.95,-475.76 461.81,-459.68 483.99,-450.01"/>
<polygon fill="midnightblue" stroke="midnightblue" points="394.59,-485.19 386.82,-492.4 397.39,-491.61 394.59,-485.19"/>
</g>
<!-- Node13 -->
<g id="node13" class="node">
<title>Node13</title>
<g id="a_node13"><a xlink:href="node__client_8h.html" target="_top" xlink:title=" ">
<polygon fill="white" stroke="black" points="737.49,-431 737.49,-450 863.49,-450 863.49,-431 737.49,-431"/>
<text text-anchor="middle" x="800.49" y="-438" font-family="Helvetica,sans-Serif" font-size="10.00">src/node/node_client.h</text>
</a>
</g>
</g>
<!-- Node2&#45;&gt;Node13 -->
<g id="edge15" class="edge">
<title>Node2&#45;&gt;Node13</title>
<path fill="none" stroke="midnightblue" d="M424.75,-496.26C512.3,-483.5 660.32,-461.93 742,-450.02"/>
<polygon fill="midnightblue" stroke="midnightblue" points="424.03,-492.83 414.64,-497.73 425.04,-499.75 424.03,-492.83"/>
</g>
<!-- Node19 -->
<g id="node19" class="node">
<title>Node19</title>
<g id="a_node19"><a xlink:href="resharing__tracker_8h.html" target="_top" xlink:title=" ">
<polygon fill="white" stroke="black" points="300.99,-425.5 300.99,-455.5 407.99,-455.5 407.99,-425.5 300.99,-425.5"/>
<text text-anchor="start" x="308.99" y="-443.5" font-family="Helvetica,sans-Serif" font-size="10.00">src/node/resharing</text>
<text text-anchor="middle" x="354.49" y="-432.5" font-family="Helvetica,sans-Serif" font-size="10.00">_tracker.h</text>
</a>
</g>
</g>
<!-- Node2&#45;&gt;Node19 -->
<g id="edge27" class="edge">
<title>Node2&#45;&gt;Node19</title>
<path fill="none" stroke="midnightblue" d="M354.49,-482.11C354.49,-473.15 354.49,-463.32 354.49,-455.58"/>
<polygon fill="midnightblue" stroke="midnightblue" points="350.99,-482.4 354.49,-492.4 357.99,-482.4 350.99,-482.4"/>
</g>
<!-- Node4&#45;&gt;Node5 -->
<g id="edge4" class="edge">
<title>Node4&#45;&gt;Node5</title>
<path fill="none" stroke="midnightblue" d="M219.33,-415.34C219.85,-396.92 223.82,-372.36 239.49,-358 275.02,-325.43 408.47,-316.36 489.84,-313.88"/>
<polygon fill="midnightblue" stroke="midnightblue" points="215.83,-415.36 219.36,-425.34 222.83,-415.33 215.83,-415.36"/>
</g>
<!-- Node10 -->
<g id="node10" class="node">
<title>Node10</title>
<g id="a_node10"><a xlink:href="resharing_8h.html" target="_top" xlink:title=" ">
<polygon fill="white" stroke="black" points="248.49,-364 248.49,-383 364.49,-383 364.49,-364 248.49,-364"/>
<text text-anchor="middle" x="306.49" y="-371" font-family="Helvetica,sans-Serif" font-size="10.00">src/node/resharing.h</text>
</a>
</g>
</g>
<!-- Node4&#45;&gt;Node10 -->
<g id="edge10" class="edge">
<title>Node4&#45;&gt;Node10</title>
<path fill="none" stroke="midnightblue" d="M247.16,-419.34C263.21,-407.21 282.82,-392.39 294.99,-383.19"/>
<polygon fill="midnightblue" stroke="midnightblue" points="245.02,-416.57 239.15,-425.4 249.24,-422.16 245.02,-416.57"/>
</g>
<!-- Node6 -->
<g id="node6" class="node">
<title>Node6</title>
<g id="a_node6"><a xlink:href="node__state_8h.html" target="_top" xlink:title=" ">
<polygon fill="white" stroke="black" points="938.49,-174 938.49,-193 1062.49,-193 1062.49,-174 938.49,-174"/>
<text text-anchor="middle" x="1000.49" y="-181" font-family="Helvetica,sans-Serif" font-size="10.00">src/node/node_state.h</text>
</a>
</g>
</g>
<!-- Node5&#45;&gt;Node6 -->
<g id="edge5" class="edge">
<title>Node5&#45;&gt;Node6</title>
<path fill="none" stroke="midnightblue" d="M560.96,-292.77C568.32,-274.9 582.17,-248.43 603.49,-235 657.86,-200.74 840.97,-189.62 938.36,-186.09"/>
<polygon fill="midnightblue" stroke="midnightblue" points="557.68,-291.55 557.36,-302.14 564.21,-294.06 557.68,-291.55"/>
</g>
<!-- Node7 -->
<g id="node7" class="node">
<title>Node7</title>
<g id="a_node7"><a xlink:href="enclave_2enclave_8h.html" target="_top" xlink:title=" ">
<polygon fill="white" stroke="black" points="1280.49,-56.5 1280.49,-75.5 1402.49,-75.5 1402.49,-56.5 1280.49,-56.5"/>
<text text-anchor="middle" x="1341.49" y="-63.5" font-family="Helvetica,sans-Serif" font-size="10.00">src/enclave/enclave.h</text>
</a>
</g>
</g>
<!-- Node6&#45;&gt;Node7 -->
<g id="edge6" class="edge">
<title>Node6&#45;&gt;Node7</title>
<path fill="none" stroke="midnightblue" d="M1035.36,-170.69C1104.1,-147.41 1255.63,-96.08 1315.97,-75.64"/>
<polygon fill="midnightblue" stroke="midnightblue" points="1034.19,-167.39 1025.84,-173.91 1036.44,-174.02 1034.19,-167.39"/>
</g>
<!-- Node9 -->
<g id="node9" class="node">
<title>Node9</title>
<g id="a_node9"><a xlink:href="gov__effects_8h.html" target="_top" xlink:title=" ">
<polygon fill="white" stroke="black" points="965.49,-112.5 965.49,-131.5 1109.49,-131.5 1109.49,-112.5 965.49,-112.5"/>
<text text-anchor="middle" x="1037.49" y="-119.5" font-family="Helvetica,sans-Serif" font-size="10.00">src/node/rpc/gov_effects.h</text>
</a>
</g>
</g>
<!-- Node6&#45;&gt;Node9 -->
<g id="edge8" class="edge">
<title>Node6&#45;&gt;Node9</title>
<path fill="none" stroke="midnightblue" d="M1011.27,-165.17C1018.14,-154.11 1026.76,-140.25 1032.2,-131.51"/>
<polygon fill="midnightblue" stroke="midnightblue" points="1008.1,-163.63 1005.79,-173.98 1014.04,-167.33 1008.1,-163.63"/>
</g>
<!-- Node8 -->
<g id="node8" class="node">
<title>Node8</title>
<g id="a_node8"><a xlink:href="enclave_2main_8cpp.html" target="_top" xlink:title=" ">
<polygon fill="white" stroke="black" points="1281.49,-0.5 1281.49,-19.5 1401.49,-19.5 1401.49,-0.5 1281.49,-0.5"/>
<text text-anchor="middle" x="1341.49" y="-7.5" font-family="Helvetica,sans-Serif" font-size="10.00">src/enclave/main.cpp</text>
</a>
</g>
</g>
<!-- Node7&#45;&gt;Node8 -->
<g id="edge7" class="edge">
<title>Node7&#45;&gt;Node8</title>
<path fill="none" stroke="midnightblue" d="M1341.49,-45.8C1341.49,-36.91 1341.49,-26.78 1341.49,-19.75"/>
<polygon fill="midnightblue" stroke="midnightblue" points="1337.99,-46.08 1341.49,-56.08 1344.99,-46.08 1337.99,-46.08"/>
</g>
<!-- Node9&#45;&gt;Node7 -->
<g id="edge9" class="edge">
<title>Node9&#45;&gt;Node7</title>
<path fill="none" stroke="midnightblue" d="M1095.68,-110.66C1153.13,-100.46 1239.94,-85.04 1293.54,-75.52"/>
<polygon fill="midnightblue" stroke="midnightblue" points="1094.89,-107.25 1085.66,-112.44 1096.12,-114.14 1094.89,-107.25"/>
</g>
<!-- Node10&#45;&gt;Node6 -->
<g id="edge11" class="edge">
<title>Node10&#45;&gt;Node6</title>
<path fill="none" stroke="midnightblue" d="M327.48,-358.13C370.73,-329.33 473.86,-264.74 570.49,-235 697.11,-196.03 853.2,-186.79 938.16,-184.8"/>
<polygon fill="midnightblue" stroke="midnightblue" points="325.3,-355.38 318.95,-363.87 329.2,-361.19 325.3,-355.38"/>
</g>
<!-- Node12 -->
<g id="node12" class="node">
<title>Node12</title>
<g id="a_node12"><a xlink:href="host_2main_8cpp.html" target="_top" xlink:title=" ">
<polygon fill="white" stroke="black" points="420.99,-364 420.99,-383 523.99,-383 523.99,-364 420.99,-364"/>
<text text-anchor="middle" x="472.49" y="-371" font-family="Helvetica,sans-Serif" font-size="10.00">src/host/main.cpp</text>
</a>
</g>
</g>
<!-- Node11&#45;&gt;Node12 -->
<g id="edge14" class="edge">
<title>Node11&#45;&gt;Node12</title>
<path fill="none" stroke="midnightblue" d="M494.98,-421.66C489,-409.13 481.27,-392.91 476.6,-383.13"/>
<polygon fill="midnightblue" stroke="midnightblue" points="491.84,-423.21 499.31,-430.73 498.16,-420.2 491.84,-423.21"/>
</g>
<!-- Node13&#45;&gt;Node5 -->
<g id="edge22" class="edge">
<title>Node13&#45;&gt;Node5</title>
<path fill="none" stroke="midnightblue" d="M744.1,-428.96C696,-419.19 631.27,-403.95 609.49,-389 583.7,-371.31 565.66,-337.4 558.25,-321.56"/>
<polygon fill="midnightblue" stroke="midnightblue" points="743.6,-432.43 754.09,-430.96 744.97,-425.57 743.6,-432.43"/>
</g>
<!-- Node14 -->
<g id="node14" class="node">
<title>Node14</title>
<g id="a_node14"><a xlink:href="orc__requests_8h.html" target="_top" xlink:title=" ">
<polygon fill="white" stroke="black" points="764.99,-358.5 764.99,-388.5 883.99,-388.5 883.99,-358.5 764.99,-358.5"/>
<text text-anchor="start" x="772.99" y="-376.5" font-family="Helvetica,sans-Serif" font-size="10.00">src/consensus/aft/orc</text>
<text text-anchor="middle" x="824.49" y="-365.5" font-family="Helvetica,sans-Serif" font-size="10.00">_requests.h</text>
</a>
</g>
</g>
<!-- Node13&#45;&gt;Node14 -->
<g id="edge16" class="edge">
<title>Node13&#45;&gt;Node14</title>
<path fill="none" stroke="midnightblue" d="M807.3,-421.06C811.1,-410.75 815.77,-398.1 819.29,-388.59"/>
<polygon fill="midnightblue" stroke="midnightblue" points="803.91,-420.14 803.73,-430.73 810.47,-422.57 803.91,-420.14"/>
</g>
<!-- Node17 -->
<g id="node17" class="node">
<title>Node17</title>
<g id="a_node17"><a xlink:href="http__node__client_8h.html" target="_top" xlink:title=" ">
<polygon fill="white" stroke="black" points="612.49,-235.5 612.49,-265.5 722.49,-265.5 722.49,-235.5 612.49,-235.5"/>
<text text-anchor="start" x="620.49" y="-253.5" font-family="Helvetica,sans-Serif" font-size="10.00">src/node/http_node</text>
<text text-anchor="middle" x="667.49" y="-242.5" font-family="Helvetica,sans-Serif" font-size="10.00">_client.h</text>
</a>
</g>
</g>
<!-- Node13&#45;&gt;Node17 -->
<g id="edge23" class="edge">
<title>Node13&#45;&gt;Node17</title>
<path fill="none" stroke="midnightblue" d="M843.15,-427.38C862.06,-419.65 882.48,-407.51 893.49,-389 900.53,-377.16 900.87,-369.64 893.49,-358 872.64,-325.13 769.92,-285.99 710.39,-265.54"/>
<polygon fill="midnightblue" stroke="midnightblue" points="841.87,-424.12 833.75,-430.93 844.34,-430.67 841.87,-424.12"/>
</g>
<!-- Node18 -->
<g id="node18" class="node">
<title>Node18</title>
<g id="a_node18"><a xlink:href="retired__nodes__cleanup_8h.html" target="_top" xlink:title=" ">
<polygon fill="white" stroke="black" points="618.49,-358.5 618.49,-388.5 746.49,-388.5 746.49,-358.5 618.49,-358.5"/>
<text text-anchor="start" x="626.49" y="-376.5" font-family="Helvetica,sans-Serif" font-size="10.00">src/node/retired_nodes</text>
<text text-anchor="middle" x="682.49" y="-365.5" font-family="Helvetica,sans-Serif" font-size="10.00">_cleanup.h</text>
</a>
</g>
</g>
<!-- Node13&#45;&gt;Node18 -->
<g id="edge25" class="edge">
<title>Node13&#45;&gt;Node18</title>
<path fill="none" stroke="midnightblue" d="M775.8,-425.9C755.95,-414.97 728.15,-399.65 708.07,-388.59"/>
<polygon fill="midnightblue" stroke="midnightblue" points="774.13,-428.97 784.58,-430.73 777.5,-422.84 774.13,-428.97"/>
</g>
<!-- Node14&#45;&gt;Node5 -->
<g id="edge17" class="edge">
<title>Node14&#45;&gt;Node5</title>
<path fill="none" stroke="midnightblue" d="M754.84,-357.15C703.36,-345.81 635.16,-330.78 593.09,-321.51"/>
<polygon fill="midnightblue" stroke="midnightblue" points="754.38,-360.63 764.9,-359.37 755.89,-353.8 754.38,-360.63"/>
</g>
<!-- Node15 -->
<g id="node15" class="node">
<title>Node15</title>
<g id="a_node15"><a xlink:href="node__frontend_8h.html" target="_top" xlink:title=" ">
<polygon fill="white" stroke="black" points="1130.49,-302.5 1130.49,-321.5 1288.49,-321.5 1288.49,-302.5 1130.49,-302.5"/>
<text text-anchor="middle" x="1209.49" y="-309.5" font-family="Helvetica,sans-Serif" font-size="10.00">src/node/rpc/node_frontend.h</text>
</a>
</g>
</g>
<!-- Node14&#45;&gt;Node15 -->
<g id="edge18" class="edge">
<title>Node14&#45;&gt;Node15</title>
<path fill="none" stroke="midnightblue" d="M894.47,-361.68C969.13,-350.15 1085.86,-332.11 1154.3,-321.53"/>
<polygon fill="midnightblue" stroke="midnightblue" points="893.57,-358.28 884.22,-363.27 894.64,-365.2 893.57,-358.28"/>
</g>
<!-- Node15&#45;&gt;Node7 -->
<g id="edge19" class="edge">
<title>Node15&#45;&gt;Node7</title>
<path fill="none" stroke="midnightblue" d="M1233.37,-296.8C1244.61,-289.01 1257.31,-278.41 1265.49,-266 1304.62,-206.68 1277.42,-175.91 1308.49,-112 1315.18,-98.23 1326.18,-84.32 1333.63,-75.68"/>
<polygon fill="midnightblue" stroke="midnightblue" points="1231.23,-294.02 1224.79,-302.43 1235.07,-299.88 1231.23,-294.02"/>
</g>
<!-- Node16 -->
<g id="node16" class="node">
<title>Node16</title>
<g id="a_node16"><a xlink:href="jwt__key__auto__refresh_8h.html" target="_top" xlink:title=" ">
<polygon fill="white" stroke="black" points="1130.99,-235.5 1130.99,-265.5 1255.99,-265.5 1255.99,-235.5 1130.99,-235.5"/>
<text text-anchor="start" x="1138.99" y="-253.5" font-family="Helvetica,sans-Serif" font-size="10.00">src/node/jwt_key_auto</text>
<text text-anchor="middle" x="1193.49" y="-242.5" font-family="Helvetica,sans-Serif" font-size="10.00">_refresh.h</text>
</a>
</g>
</g>
<!-- Node15&#45;&gt;Node16 -->
<g id="edge20" class="edge">
<title>Node15&#45;&gt;Node16</title>
<path fill="none" stroke="midnightblue" d="M1204.6,-292.82C1202.24,-284.04 1199.45,-273.68 1197.26,-265.52"/>
<polygon fill="midnightblue" stroke="midnightblue" points="1201.22,-293.73 1207.2,-302.48 1207.98,-291.91 1201.22,-293.73"/>
</g>
<!-- Node16&#45;&gt;Node6 -->
<g id="edge21" class="edge">
<title>Node16&#45;&gt;Node6</title>
<path fill="none" stroke="midnightblue" d="M1141.85,-232.11C1104.3,-219.46 1055.1,-202.89 1025.75,-193.01"/>
<polygon fill="midnightblue" stroke="midnightblue" points="1141.02,-235.52 1151.61,-235.4 1143.25,-228.89 1141.02,-235.52"/>
</g>
<!-- Node17&#45;&gt;Node6 -->
<g id="edge24" class="edge">
<title>Node17&#45;&gt;Node6</title>
<path fill="none" stroke="midnightblue" d="M732.67,-235C816.01,-217.97 900.81,-202.36 952.47,-193.05"/>
<polygon fill="midnightblue" stroke="midnightblue" points="731.87,-231.6 722.78,-237.03 733.28,-238.45 731.87,-231.6"/>
</g>
<!-- Node18&#45;&gt;Node5 -->
<g id="edge26" class="edge">
<title>Node18&#45;&gt;Node5</title>
<path fill="none" stroke="midnightblue" d="M642.87,-354.08C619.62,-343.28 591.32,-330.12 573.11,-321.66"/>
<polygon fill="midnightblue" stroke="midnightblue" points="641.61,-357.36 652.15,-358.4 644.56,-351.01 641.61,-357.36"/>
</g>
<!-- Node19&#45;&gt;Node5 -->
<g id="edge28" class="edge">
<title>Node19&#45;&gt;Node5</title>
<path fill="none" stroke="midnightblue" d="M365.62,-416.37C375.54,-398.07 391.69,-373.15 412.49,-358 438.3,-339.19 472.26,-328.06 500.49,-321.57"/>
<polygon fill="midnightblue" stroke="midnightblue" points="362.51,-414.76 361.01,-425.25 368.72,-417.98 362.51,-414.76"/>
</g>
<!-- Node19&#45;&gt;Node10 -->
<g id="edge29" class="edge">
<title>Node19&#45;&gt;Node10</title>
<path fill="none" stroke="midnightblue" d="M338.11,-417.32C329.45,-405.6 319.33,-391.88 312.91,-383.19"/>
<polygon fill="midnightblue" stroke="midnightblue" points="335.32,-419.43 344.07,-425.4 340.95,-415.27 335.32,-419.43"/>
</g>
<!-- Node20&#45;&gt;Node7 -->
<g id="edge31" class="edge">
<title>Node20&#45;&gt;Node7</title>
<path fill="none" stroke="midnightblue" d="M1493.4,-612.54C1541.87,-597.56 1610.49,-566.17 1610.49,-508.5 1610.49,-508.5 1610.49,-508.5 1610.49,-182.5 1610.49,-147.32 1602.61,-133.14 1574.49,-112 1547.94,-92.04 1462.39,-79.37 1402.71,-72.73"/>
<polygon fill="midnightblue" stroke="midnightblue" points="1492.3,-609.21 1483.7,-615.4 1494.29,-615.92 1492.3,-609.21"/>
</g>
<!-- Node21 -->
<g id="node21" class="node">
<title>Node21</title>
<g id="a_node21"><a xlink:href="http__endpoint_8h.html" target="_top" xlink:title=" ">
<polygon fill="white" stroke="black" points="1024.99,-559.5 1024.99,-578.5 1157.99,-578.5 1157.99,-559.5 1024.99,-559.5"/>
<text text-anchor="middle" x="1091.49" y="-566.5" font-family="Helvetica,sans-Serif" font-size="10.00">src/http/http_endpoint.h</text>
</a>
</g>
</g>
<!-- Node20&#45;&gt;Node21 -->
<g id="edge32" class="edge">
<title>Node20&#45;&gt;Node21</title>
<path fill="none" stroke="midnightblue" d="M1380.2,-613.92C1313.13,-603.71 1210.59,-588.12 1147.48,-578.52"/>
<polygon fill="midnightblue" stroke="midnightblue" points="1379.83,-617.4 1390.24,-615.44 1380.88,-610.48 1379.83,-617.4"/>
</g>
<!-- Node25 -->
<g id="node25" class="node">
<title>Node25</title>
<g id="a_node25"><a xlink:href="forwarder_8h.html" target="_top" xlink:title=" ">
<polygon fill="white" stroke="black" points="1382.49,-431 1382.49,-450 1516.49,-450 1516.49,-431 1382.49,-431"/>
<text text-anchor="middle" x="1449.49" y="-438" font-family="Helvetica,sans-Serif" font-size="10.00">src/node/rpc/forwarder.h</text>
</a>
</g>
</g>
<!-- Node20&#45;&gt;Node25 -->
<g id="edge42" class="edge">
<title>Node20&#45;&gt;Node25</title>
<path fill="none" stroke="midnightblue" d="M1446.81,-604.72C1447.45,-565.56 1448.89,-478.09 1449.35,-450.21"/>
<polygon fill="midnightblue" stroke="midnightblue" points="1443.3,-605.14 1446.63,-615.2 1450.3,-605.26 1443.3,-605.14"/>
</g>
<!-- Node21&#45;&gt;Node22 -->
<g id="edge33" class="edge">
<title>Node21&#45;&gt;Node22</title>
<path fill="none" stroke="midnightblue" d="M1096.42,-549.66C1099.35,-538.77 1102.92,-525.49 1105.2,-517.01"/>
<polygon fill="midnightblue" stroke="midnightblue" points="1093,-548.91 1093.78,-559.48 1099.76,-550.73 1093,-548.91"/>
</g>
<!-- Node24 -->
<g id="node24" class="node">
<title>Node24</title>
<g id="a_node24"><a xlink:href="acme__challenge__server_8h.html" target="_top" xlink:title=" ">
<polygon fill="white" stroke="black" points="650.99,-492.5 650.99,-522.5 787.99,-522.5 787.99,-492.5 650.99,-492.5"/>
<text text-anchor="start" x="658.99" y="-510.5" font-family="Helvetica,sans-Serif" font-size="10.00">src/host/acme_challenge</text>
<text text-anchor="middle" x="719.49" y="-499.5" font-family="Helvetica,sans-Serif" font-size="10.00">_server.h</text>
</a>
</g>
</g>
<!-- Node21&#45;&gt;Node24 -->
<g id="edge40" class="edge">
<title>Node21&#45;&gt;Node24</title>
<path fill="none" stroke="midnightblue" d="M1028.23,-557.88C961.55,-547.22 856.85,-530.47 788.19,-519.49"/>
<polygon fill="midnightblue" stroke="midnightblue" points="1027.76,-561.35 1038.19,-559.48 1028.87,-554.44 1027.76,-561.35"/>
</g>
<!-- Node22&#45;&gt;Node6 -->
<g id="edge38" class="edge">
<title>Node22&#45;&gt;Node6</title>
<path fill="none" stroke="midnightblue" d="M1106.33,-487.73C1104.85,-462.14 1102.49,-414.87 1102.49,-374.5 1102.49,-374.5 1102.49,-374.5 1102.49,-311 1102.49,-276.29 1104.97,-263.03 1084.49,-235 1069.63,-214.67 1043.88,-200.96 1024.79,-193.02"/>
<polygon fill="midnightblue" stroke="midnightblue" points="1102.85,-488.08 1106.93,-497.86 1109.83,-487.66 1102.85,-488.08"/>
</g>
<!-- Node22&#45;&gt;Node7 -->
<g id="edge34" class="edge">
<title>Node22&#45;&gt;Node7</title>
<path fill="none" stroke="midnightblue" d="M1129.47,-492.3C1170.03,-464.81 1256.3,-400.07 1297.49,-322 1343.61,-234.58 1342.96,-109.09 1341.86,-75.52"/>
<polygon fill="midnightblue" stroke="midnightblue" points="1127.46,-489.43 1121.08,-497.89 1131.35,-495.26 1127.46,-489.43"/>
</g>
<!-- Node22&#45;&gt;Node10 -->
<g id="edge39" class="edge">
<title>Node22&#45;&gt;Node10</title>
<path fill="none" stroke="midnightblue" d="M1051.51,-496.18C1042.81,-494.7 1033.92,-493.25 1025.49,-492 893.97,-472.42 859.52,-478.6 728.49,-456 666.54,-445.32 652.12,-437.39 590.49,-425 509.73,-408.76 415.49,-392.54 358.44,-383.02"/>
<polygon fill="midnightblue" stroke="midnightblue" points="1051.14,-499.67 1061.59,-497.93 1052.33,-492.77 1051.14,-499.67"/>
</g>
<!-- Node22&#45;&gt;Node13 -->
<g id="edge37" class="edge">
<title>Node22&#45;&gt;Node13</title>
<path fill="none" stroke="midnightblue" d="M1056.97,-495.8C996.55,-483.01 896.64,-461.86 841.03,-450.08"/>
<polygon fill="midnightblue" stroke="midnightblue" points="1056.53,-499.29 1067.04,-497.94 1057.98,-492.44 1056.53,-499.29"/>
</g>
<!-- Node23 -->
<g id="node23" class="node">
<title>Node23</title>
<g id="a_node23"><a xlink:href="ccf__acme__client_8h.html" target="_top" xlink:title=" ">
<polygon fill="white" stroke="black" points="925.99,-241 925.99,-260 1074.99,-260 1074.99,-241 925.99,-241"/>
<text text-anchor="middle" x="1000.49" y="-248" font-family="Helvetica,sans-Serif" font-size="10.00">src/node/ccf_acme_client.h</text>
</a>
</g>
</g>
<!-- Node22&#45;&gt;Node23 -->
<g id="edge35" class="edge">
<title>Node22&#45;&gt;Node23</title>
<path fill="none" stroke="midnightblue" d="M1099.89,-488.39C1078.7,-437.89 1019.5,-296.8 1004.16,-260.24"/>
<polygon fill="midnightblue" stroke="midnightblue" points="1096.71,-489.86 1103.81,-497.72 1103.16,-487.15 1096.71,-489.86"/>
</g>
<!-- Node23&#45;&gt;Node6 -->
<g id="edge36" class="edge">
<title>Node23&#45;&gt;Node6</title>
<path fill="none" stroke="midnightblue" d="M1000.49,-230.54C1000.49,-218.17 1000.49,-202.62 1000.49,-193.13"/>
<polygon fill="midnightblue" stroke="midnightblue" points="996.99,-230.73 1000.49,-240.73 1003.99,-230.73 996.99,-230.73"/>
</g>
<!-- Node24&#45;&gt;Node12 -->
<g id="edge41" class="edge">
<title>Node24&#45;&gt;Node12</title>
<path fill="none" stroke="midnightblue" d="M691.05,-486.68C665.42,-469.27 626.36,-443.85 590.49,-425 558.54,-408.2 519.77,-392.44 495.61,-383.13"/>
<polygon fill="midnightblue" stroke="midnightblue" points="689.3,-489.73 699.53,-492.48 693.25,-483.95 689.3,-489.73"/>
</g>
<!-- Node25&#45;&gt;Node7 -->
<g id="edge43" class="edge">
<title>Node25&#45;&gt;Node7</title>
<path fill="none" stroke="midnightblue" d="M1477.58,-426.19C1513.88,-406.8 1572.49,-367.13 1572.49,-313 1572.49,-313 1572.49,-313 1572.49,-182.5 1572.49,-150.05 1577.05,-134.32 1553.49,-112 1532.08,-91.72 1457.41,-79.4 1402.72,-72.9"/>
<polygon fill="midnightblue" stroke="midnightblue" points="1475.73,-423.21 1468.44,-430.9 1478.93,-429.43 1475.73,-423.21"/>
</g>
<!-- Node25&#45;&gt;Node26 -->
<g id="edge44" class="edge">
<title>Node25&#45;&gt;Node26</title>
<path fill="none" stroke="midnightblue" d="M1438.74,-422.03C1431,-409.45 1420.88,-393.01 1414.8,-383.13"/>
<polygon fill="midnightblue" stroke="midnightblue" points="1435.87,-424.05 1444.09,-430.73 1441.83,-420.38 1435.87,-424.05"/>
</g>
<!-- Node26&#45;&gt;Node6 -->
<g id="edge45" class="edge">
<title>Node26&#45;&gt;Node6</title>
<path fill="none" stroke="midnightblue" d="M1397.47,-355.93C1375.09,-326.44 1323.98,-265.1 1265.49,-235 1201.36,-201.99 1118.49,-190.42 1062.63,-186.44"/>
<polygon fill="midnightblue" stroke="midnightblue" points="1394.69,-358.06 1403.46,-363.99 1400.3,-353.88 1394.69,-358.06"/>
</g>
<!-- Node26&#45;&gt;Node15 -->
<g id="edge48" class="edge">
<title>Node26&#45;&gt;Node15</title>
<path fill="none" stroke="midnightblue" d="M1370.93,-361.03C1332.06,-349.46 1272.97,-331.88 1238.09,-321.51"/>
<polygon fill="midnightblue" stroke="midnightblue" points="1370.25,-364.48 1380.83,-363.98 1372.25,-357.77 1370.25,-364.48"/>
</g>
<!-- Node27 -->
<g id="node27" class="node">
<title>Node27</title>
<g id="a_node27"><a xlink:href="member__frontend_8h.html" target="_top" xlink:title=" ">
<polygon fill="white" stroke="black" points="1350.49,-168.5 1350.49,-198.5 1470.49,-198.5 1470.49,-168.5 1350.49,-168.5"/>
<text text-anchor="start" x="1358.49" y="-186.5" font-family="Helvetica,sans-Serif" font-size="10.00">src/node/rpc/member</text>
<text text-anchor="middle" x="1410.49" y="-175.5" font-family="Helvetica,sans-Serif" font-size="10.00">_frontend.h</text>
</a>
</g>
</g>
<!-- Node26&#45;&gt;Node27 -->
<g id="edge46" class="edge">
<title>Node26&#45;&gt;Node27</title>
<path fill="none" stroke="midnightblue" d="M1409.59,-353.88C1409.79,-316.33 1410.24,-232.24 1410.41,-198.7"/>
<polygon fill="midnightblue" stroke="midnightblue" points="1406.09,-353.91 1409.53,-363.93 1413.09,-353.95 1406.09,-353.91"/>
</g>
<!-- Node28 -->
<g id="node28" class="node">
<title>Node28</title>
<g id="a_node28"><a xlink:href="user__frontend_8h.html" target="_top" xlink:title=" ">
<polygon fill="white" stroke="black" points="1388.99,-112.5 1388.99,-131.5 1543.99,-131.5 1543.99,-112.5 1388.99,-112.5"/>
<text text-anchor="middle" x="1466.49" y="-119.5" font-family="Helvetica,sans-Serif" font-size="10.00">src/node/rpc/user_frontend.h</text>
</a>
</g>
</g>
<!-- Node26&#45;&gt;Node28 -->
<g id="edge49" class="edge">
<title>Node26&#45;&gt;Node28</title>
<path fill="none" stroke="midnightblue" d="M1419.28,-354.86C1435.63,-324.26 1467.87,-258.87 1479.49,-199 1484.18,-174.82 1475.41,-146.14 1470.11,-131.92"/>
<polygon fill="midnightblue" stroke="midnightblue" points="1416.09,-353.38 1414.39,-363.84 1422.24,-356.73 1416.09,-353.38"/>
</g>
<!-- Node27&#45;&gt;Node7 -->
<g id="edge47" class="edge">
<title>Node27&#45;&gt;Node7</title>
<path fill="none" stroke="midnightblue" d="M1396.8,-159.58C1381.41,-133.82 1357.2,-93.3 1346.67,-75.67"/>
<polygon fill="midnightblue" stroke="midnightblue" points="1393.9,-161.55 1402.03,-168.34 1399.9,-157.96 1393.9,-161.55"/>
</g>
<!-- Node28&#45;&gt;Node7 -->
<g id="edge50" class="edge">
<title>Node28&#45;&gt;Node7</title>
<path fill="none" stroke="midnightblue" d="M1437.25,-108.37C1413.84,-98.26 1381.65,-84.35 1361.2,-75.52"/>
<polygon fill="midnightblue" stroke="midnightblue" points="1436.11,-111.69 1446.68,-112.44 1438.89,-105.26 1436.11,-111.69"/>
</g>
<!-- Node29&#45;&gt;Node5 -->
<g id="edge53" class="edge">
<title>Node29&#45;&gt;Node5</title>
<path fill="none" stroke="midnightblue" d="M890.08,-496.05C796.14,-477.75 615.85,-437.23 574.49,-389 557.61,-369.32 554.77,-336.99 554.43,-321.63"/>
<polygon fill="midnightblue" stroke="midnightblue" points="889.51,-499.5 900,-497.96 890.84,-492.63 889.51,-499.5"/>
</g>
<!-- Node29&#45;&gt;Node6 -->
<g id="edge54" class="edge">
<title>Node29&#45;&gt;Node6</title>
<path fill="none" stroke="midnightblue" d="M950.03,-487.92C951.9,-471.37 953.76,-446.52 951.49,-425 942.47,-339.69 875.45,-309.78 917.49,-235 929.31,-213.97 953.82,-200.68 973.16,-193.04"/>
<polygon fill="midnightblue" stroke="midnightblue" points="946.55,-487.55 948.78,-497.91 953.49,-488.42 946.55,-487.55"/>
</g>
<!-- Node29&#45;&gt;Node25 -->
<g id="edge57" class="edge">
<title>Node29&#45;&gt;Node25</title>
<path fill="none" stroke="midnightblue" d="M1000.69,-496.13C1008.98,-494.65 1017.45,-493.22 1025.49,-492 1151.17,-472.85 1298.75,-456.7 1382.48,-448.12"/>
<polygon fill="midnightblue" stroke="midnightblue" points="999.94,-492.71 990.72,-497.94 1001.19,-499.6 999.94,-492.71"/>
</g>
<!-- Node30 -->
<g id="node30" class="node">
<title>Node30</title>
<g id="a_node30"><a xlink:href="node__to__node__channel__manager_8h.html" target="_top" xlink:title=" ">
<polygon fill="white" stroke="black" points="740.99,-235.5 740.99,-265.5 869.99,-265.5 869.99,-235.5 740.99,-235.5"/>
<text text-anchor="start" x="748.99" y="-253.5" font-family="Helvetica,sans-Serif" font-size="10.00">src/node/node_to_node</text>
<text text-anchor="middle" x="805.49" y="-242.5" font-family="Helvetica,sans-Serif" font-size="10.00">_channel_manager.h</text>
</a>
</g>
</g>
<!-- Node29&#45;&gt;Node30 -->
<g id="edge55" class="edge">
<title>Node29&#45;&gt;Node30</title>
<path fill="none" stroke="midnightblue" d="M945.84,-487.82C942.58,-458.49 933.43,-400.6 909.49,-358 887.58,-319.02 847.79,-284.09 824.29,-265.53"/>
<polygon fill="midnightblue" stroke="midnightblue" points="942.36,-488.28 946.84,-497.88 949.33,-487.59 942.36,-488.28"/>
</g>
<!-- Node30&#45;&gt;Node6 -->
<g id="edge56" class="edge">
<title>Node30&#45;&gt;Node6</title>
<path fill="none" stroke="midnightblue" d="M857.67,-232.11C895.6,-219.46 945.31,-202.89 974.97,-193.01"/>
<polygon fill="midnightblue" stroke="midnightblue" points="856.18,-228.91 847.8,-235.4 858.39,-235.55 856.18,-228.91"/>
</g>
</g>
</svg>
