<?xml version="1.0" encoding="UTF-8" standalone="no"?>
<!DOCTYPE svg PUBLIC "-//W3C//DTD SVG 1.1//EN"
 "http://www.w3.org/Graphics/SVG/1.1/DTD/svg11.dtd">
<!-- Generated by graphviz version 2.43.0 (0)
 -->
<!-- Title: src/service/tables/secrets.h Pages: 1 -->
<svg width="2348pt" height="732pt"
 viewBox="0.00 0.00 2348.26 732.00" xmlns="http://www.w3.org/2000/svg" xmlns:xlink="http://www.w3.org/1999/xlink">
<g id="graph0" class="graph" transform="scale(1 1) rotate(0) translate(4 728)">
<title>src/service/tables/secrets.h</title>
<polygon fill="white" stroke="transparent" points="-4,4 -4,-728 2344.26,-728 2344.26,4 -4,4"/>
<!-- Node1 -->
<g id="node1" class="node">
<title>Node1</title>
<g id="a_node1"><a xlink:title=" ">
<polygon fill="#bfbfbf" stroke="black" points="1379.26,-693.5 1379.26,-723.5 1481.26,-723.5 1481.26,-693.5 1379.26,-693.5"/>
<text text-anchor="start" x="1387.26" y="-711.5" font-family="Helvetica,sans-Serif" font-size="10.00">src/service/tables</text>
<text text-anchor="middle" x="1430.26" y="-700.5" font-family="Helvetica,sans-Serif" font-size="10.00">/secrets.h</text>
</a>
</g>
</g>
<!-- Node2 -->
<g id="node2" class="node">
<title>Node2</title>
<g id="a_node2"><a xlink:href="ledger__secret_8h.html" target="_top" xlink:title=" ">
<polygon fill="white" stroke="black" points="1362.26,-637.5 1362.26,-656.5 1498.26,-656.5 1498.26,-637.5 1362.26,-637.5"/>
<text text-anchor="middle" x="1430.26" y="-644.5" font-family="Helvetica,sans-Serif" font-size="10.00">src/node/ledger_secret.h</text>
</a>
</g>
</g>
<!-- Node1&#45;&gt;Node2 -->
<g id="edge1" class="edge">
<title>Node1&#45;&gt;Node2</title>
<path fill="none" stroke="midnightblue" d="M1430.26,-683.29C1430.26,-673.86 1430.26,-663.65 1430.26,-656.66"/>
<polygon fill="midnightblue" stroke="midnightblue" points="1426.76,-683.4 1430.26,-693.4 1433.76,-683.4 1426.76,-683.4"/>
</g>
<!-- Node3 -->
<g id="node3" class="node">
<title>Node3</title>
<g id="a_node3"><a xlink:href="ledger__secrets_8h.html" target="_top" xlink:title=" ">
<polygon fill="white" stroke="black" points="1455.76,-581.5 1455.76,-600.5 1596.76,-600.5 1596.76,-581.5 1455.76,-581.5"/>
<text text-anchor="middle" x="1526.26" y="-588.5" font-family="Helvetica,sans-Serif" font-size="10.00">src/node/ledger_secrets.h</text>
</a>
</g>
</g>
<!-- Node1&#45;&gt;Node3 -->
<g id="edge70" class="edge">
<title>Node1&#45;&gt;Node3</title>
<path fill="none" stroke="midnightblue" d="M1470.94,-688.2C1484.16,-680.18 1497.83,-669.74 1507.26,-657 1519.99,-639.8 1524.22,-614.21 1525.61,-600.84"/>
<polygon fill="midnightblue" stroke="midnightblue" points="1468.87,-685.35 1461.93,-693.36 1472.34,-691.43 1468.87,-685.35"/>
</g>
<!-- Node34 -->
<g id="node34" class="node">
<title>Node34</title>
<g id="a_node34"><a xlink:href="network__tables_8h.html" target="_top" xlink:title=" ">
<polygon fill="white" stroke="black" points="1072.26,-447.5 1072.26,-477.5 1184.26,-477.5 1184.26,-447.5 1072.26,-447.5"/>
<text text-anchor="start" x="1080.26" y="-465.5" font-family="Helvetica,sans-Serif" font-size="10.00">src/service/network</text>
<text text-anchor="middle" x="1128.26" y="-454.5" font-family="Helvetica,sans-Serif" font-size="10.00">_tables.h</text>
</a>
</g>
</g>
<!-- Node1&#45;&gt;Node34 -->
<g id="edge71" class="edge">
<title>Node1&#45;&gt;Node34</title>
<path fill="none" stroke="midnightblue" d="M1398.3,-687.86C1384.2,-678.86 1367.61,-667.81 1353.26,-657 1270.32,-594.56 1178.55,-510.53 1143.23,-477.59"/>
<polygon fill="midnightblue" stroke="midnightblue" points="1396.83,-691.07 1407.16,-693.45 1400.57,-685.15 1396.83,-691.07"/>
</g>
<!-- Node2&#45;&gt;Node3 -->
<g id="edge2" class="edge">
<title>Node2&#45;&gt;Node3</title>
<path fill="none" stroke="midnightblue" d="M1454.83,-632.18C1472.5,-622.24 1495.77,-609.15 1510.87,-600.65"/>
<polygon fill="midnightblue" stroke="midnightblue" points="1452.68,-629.37 1445.68,-637.32 1456.12,-635.47 1452.68,-629.37"/>
</g>
<!-- Node4 -->
<g id="node4" class="node">
<title>Node4</title>
<g id="a_node4"><a xlink:href="node_2encryptor_8h.html" target="_top" xlink:title=" ">
<polygon fill="white" stroke="black" points="2072.26,-252 2072.26,-271 2188.26,-271 2188.26,-252 2072.26,-252"/>
<text text-anchor="middle" x="2130.26" y="-259" font-family="Helvetica,sans-Serif" font-size="10.00">src/node/encryptor.h</text>
</a>
</g>
</g>
<!-- Node3&#45;&gt;Node4 -->
<g id="edge3" class="edge">
<title>Node3&#45;&gt;Node4</title>
<path fill="none" stroke="midnightblue" d="M1606.92,-585.23C1805.55,-572.42 2302.26,-533.39 2302.26,-463.5 2302.26,-463.5 2302.26,-463.5 2302.26,-394.5 2302.26,-357.31 2308.35,-340.45 2283.26,-313 2259.01,-286.47 2220.56,-273.85 2188.27,-267.86"/>
<polygon fill="midnightblue" stroke="midnightblue" points="1606.59,-581.75 1596.84,-585.88 1607.04,-588.73 1606.59,-581.75"/>
</g>
<!-- Node5 -->
<g id="node5" class="node">
<title>Node5</title>
<g id="a_node5"><a xlink:href="historical__queries_8h.html" target="_top" xlink:title=" ">
<polygon fill="white" stroke="black" points="2077.26,-179.5 2077.26,-209.5 2183.26,-209.5 2183.26,-179.5 2077.26,-179.5"/>
<text text-anchor="start" x="2085.26" y="-197.5" font-family="Helvetica,sans-Serif" font-size="10.00">src/node/historical</text>
<text text-anchor="middle" x="2130.26" y="-186.5" font-family="Helvetica,sans-Serif" font-size="10.00">_queries.h</text>
</a>
</g>
</g>
<!-- Node3&#45;&gt;Node5 -->
<g id="edge13" class="edge">
<title>Node3&#45;&gt;Node5</title>
<path fill="none" stroke="midnightblue" d="M1606.92,-587.09C1750.01,-581.44 2042.61,-567.51 2142.26,-545 2235.08,-524.03 2340.26,-558.66 2340.26,-463.5 2340.26,-463.5 2340.26,-463.5 2340.26,-327.5 2340.26,-253.54 2245.74,-219.41 2183.52,-204.95"/>
<polygon fill="midnightblue" stroke="midnightblue" points="1606.74,-583.6 1596.88,-587.49 1607.01,-590.59 1606.74,-583.6"/>
</g>
<!-- Node11 -->
<g id="node11" class="node">
<title>Node11</title>
<g id="a_node11"><a xlink:href="network__state_8h.html" target="_top" xlink:title=" ">
<polygon fill="white" stroke="black" points="1058.26,-386 1058.26,-405 1198.26,-405 1198.26,-386 1058.26,-386"/>
<text text-anchor="middle" x="1128.26" y="-393" font-family="Helvetica,sans-Serif" font-size="10.00">src/node/network_state.h</text>
</a>
</g>
</g>
<!-- Node3&#45;&gt;Node11 -->
<g id="edge14" class="edge">
<title>Node3&#45;&gt;Node11</title>
<path fill="none" stroke="midnightblue" d="M1445.26,-583.62C1377.63,-577.01 1287.56,-564.81 1257.26,-545 1213.72,-516.53 1228.51,-485.26 1193.26,-447 1177.58,-429.97 1155.71,-414.27 1141.77,-405.04"/>
<polygon fill="midnightblue" stroke="midnightblue" points="1445.2,-587.13 1455.48,-584.6 1445.86,-580.16 1445.2,-587.13"/>
</g>
<!-- Node24 -->
<g id="node24" class="node">
<title>Node24</title>
<g id="a_node24"><a xlink:href="secret__broadcast_8h.html" target="_top" xlink:title=" ">
<polygon fill="white" stroke="black" points="1396.76,-319 1396.76,-338 1549.76,-338 1549.76,-319 1396.76,-319"/>
<text text-anchor="middle" x="1473.26" y="-326" font-family="Helvetica,sans-Serif" font-size="10.00">src/node/secret_broadcast.h</text>
</a>
</g>
</g>
<!-- Node3&#45;&gt;Node24 -->
<g id="edge62" class="edge">
<title>Node3&#45;&gt;Node24</title>
<path fill="none" stroke="midnightblue" d="M1527.61,-571.28C1529.68,-533.76 1531.14,-447.21 1507.26,-380 1501.46,-363.67 1489.14,-347.54 1481.03,-338.05"/>
<polygon fill="midnightblue" stroke="midnightblue" points="1524.12,-571.07 1526.98,-581.27 1531.11,-571.51 1524.12,-571.07"/>
</g>
<!-- Node25 -->
<g id="node25" class="node">
<title>Node25</title>
<g id="a_node25"><a xlink:href="share__manager_8h.html" target="_top" xlink:title=" ">
<polygon fill="white" stroke="black" points="1156.76,-319 1156.76,-338 1301.76,-338 1301.76,-319 1156.76,-319"/>
<text text-anchor="middle" x="1229.26" y="-326" font-family="Helvetica,sans-Serif" font-size="10.00">src/node/share_manager.h</text>
</a>
</g>
</g>
<!-- Node3&#45;&gt;Node25 -->
<g id="edge63" class="edge">
<title>Node3&#45;&gt;Node25</title>
<path fill="none" stroke="midnightblue" d="M1508.78,-574.67C1453.29,-525.99 1282.24,-375.97 1239.18,-338.2"/>
<polygon fill="midnightblue" stroke="midnightblue" points="1506.55,-577.37 1516.38,-581.33 1511.17,-572.11 1506.55,-577.37"/>
</g>
<!-- Node27 -->
<g id="node27" class="node">
<title>Node27</title>
<g id="a_node27"><a xlink:href="call__types_8h.html" target="_top" xlink:title=" ">
<polygon fill="white" stroke="black" points="1710.76,-453 1710.76,-472 1847.76,-472 1847.76,-453 1710.76,-453"/>
<text text-anchor="middle" x="1779.26" y="-460" font-family="Helvetica,sans-Serif" font-size="10.00">src/node/rpc/call_types.h</text>
</a>
</g>
</g>
<!-- Node3&#45;&gt;Node27 -->
<g id="edge46" class="edge">
<title>Node3&#45;&gt;Node27</title>
<path fill="none" stroke="midnightblue" d="M1538.77,-573.19C1552.5,-555.9 1576.1,-529.39 1602.26,-514 1639.45,-492.13 1686.63,-479.28 1722.93,-472.02"/>
<polygon fill="midnightblue" stroke="midnightblue" points="1535.87,-571.23 1532.53,-581.28 1541.41,-575.5 1535.87,-571.23"/>
</g>
<!-- Node32 -->
<g id="node32" class="node">
<title>Node32</title>
<g id="a_node32"><a xlink:href="node__call__types_8h.html" target="_top" xlink:title=" ">
<polygon fill="white" stroke="black" points="1611.76,-514.5 1611.76,-544.5 1736.76,-544.5 1736.76,-514.5 1611.76,-514.5"/>
<text text-anchor="start" x="1619.76" y="-532.5" font-family="Helvetica,sans-Serif" font-size="10.00">src/node/rpc/node_call</text>
<text text-anchor="middle" x="1674.26" y="-521.5" font-family="Helvetica,sans-Serif" font-size="10.00">_types.h</text>
</a>
</g>
</g>
<!-- Node3&#45;&gt;Node32 -->
<g id="edge60" class="edge">
<title>Node3&#45;&gt;Node32</title>
<path fill="none" stroke="midnightblue" d="M1556.81,-577.72C1580.83,-568.06 1614.31,-554.6 1639.38,-544.52"/>
<polygon fill="midnightblue" stroke="midnightblue" points="1555.44,-574.5 1547.46,-581.48 1558.05,-580.99 1555.44,-574.5"/>
</g>
<!-- Node33 -->
<g id="node33" class="node">
<title>Node33</title>
<g id="a_node33"><a xlink:href="genesis__gen_8h.html" target="_top" xlink:title=" ">
<polygon fill="white" stroke="black" points="1388.26,-380.5 1388.26,-410.5 1498.26,-410.5 1498.26,-380.5 1388.26,-380.5"/>
<text text-anchor="start" x="1396.26" y="-398.5" font-family="Helvetica,sans-Serif" font-size="10.00">src/service/genesis</text>
<text text-anchor="middle" x="1443.26" y="-387.5" font-family="Helvetica,sans-Serif" font-size="10.00">_gen.h</text>
</a>
</g>
</g>
<!-- Node3&#45;&gt;Node33 -->
<g id="edge64" class="edge">
<title>Node3&#45;&gt;Node33</title>
<path fill="none" stroke="midnightblue" d="M1518.58,-572.1C1502.2,-533.92 1464.14,-445.19 1449.32,-410.63"/>
<polygon fill="midnightblue" stroke="midnightblue" points="1515.43,-573.63 1522.59,-581.44 1521.86,-570.87 1515.43,-573.63"/>
</g>
<!-- Node4&#45;&gt;Node5 -->
<g id="edge4" class="edge">
<title>Node4&#45;&gt;Node5</title>
<path fill="none" stroke="midnightblue" d="M2130.26,-241.41C2130.26,-231.22 2130.26,-218.9 2130.26,-209.59"/>
<polygon fill="midnightblue" stroke="midnightblue" points="2126.76,-241.73 2130.26,-251.73 2133.76,-241.73 2126.76,-241.73"/>
</g>
<!-- Node9 -->
<g id="node9" class="node">
<title>Node9</title>
<g id="a_node9"><a xlink:href="node__state_8h.html" target="_top" xlink:title=" ">
<polygon fill="white" stroke="black" points="1411.26,-185 1411.26,-204 1535.26,-204 1535.26,-185 1411.26,-185"/>
<text text-anchor="middle" x="1473.26" y="-192" font-family="Helvetica,sans-Serif" font-size="10.00">src/node/node_state.h</text>
</a>
</g>
</g>
<!-- Node4&#45;&gt;Node9 -->
<g id="edge9" class="edge">
<title>Node4&#45;&gt;Node9</title>
<path fill="none" stroke="midnightblue" d="M2062.16,-253.76C1933.98,-241.08 1658.71,-213.85 1535.32,-201.64"/>
<polygon fill="midnightblue" stroke="midnightblue" points="2061.95,-257.26 2072.24,-254.76 2062.64,-250.29 2061.95,-257.26"/>
</g>
<!-- Node6 -->
<g id="node6" class="node">
<title>Node6</title>
<g id="a_node6"><a xlink:href="enclave_2enclave_8h.html" target="_top" xlink:title=" ">
<polygon fill="white" stroke="black" points="1369.26,-56.5 1369.26,-75.5 1491.26,-75.5 1491.26,-56.5 1369.26,-56.5"/>
<text text-anchor="middle" x="1430.26" y="-63.5" font-family="Helvetica,sans-Serif" font-size="10.00">src/enclave/enclave.h</text>
</a>
</g>
</g>
<!-- Node5&#45;&gt;Node6 -->
<g id="edge5" class="edge">
<title>Node5&#45;&gt;Node6</title>
<path fill="none" stroke="midnightblue" d="M2131.72,-169.32C2131.4,-150.69 2127.56,-125.83 2111.26,-112 2064.6,-72.39 1649.62,-67.4 1491.28,-66.96"/>
<polygon fill="midnightblue" stroke="midnightblue" points="2128.21,-169.39 2131.56,-179.45 2135.21,-169.5 2128.21,-169.39"/>
</g>
<!-- Node8 -->
<g id="node8" class="node">
<title>Node8</title>
<g id="a_node8"><a xlink:href="historical__transaction__fetcher_8h.html" target="_top" xlink:title=" ">
<polygon fill="white" stroke="black" points="1976.76,-112.5 1976.76,-142.5 2101.76,-142.5 2101.76,-112.5 1976.76,-112.5"/>
<text text-anchor="start" x="1984.76" y="-130.5" font-family="Helvetica,sans-Serif" font-size="10.00">src/indexing/historical</text>
<text text-anchor="middle" x="2039.26" y="-119.5" font-family="Helvetica,sans-Serif" font-size="10.00">_transaction_fetcher.h</text>
</a>
</g>
</g>
<!-- Node5&#45;&gt;Node8 -->
<g id="edge7" class="edge">
<title>Node5&#45;&gt;Node8</title>
<path fill="none" stroke="midnightblue" d="M2102.19,-173.45C2088.19,-163.45 2071.6,-151.6 2058.97,-142.58"/>
<polygon fill="midnightblue" stroke="midnightblue" points="2100.34,-176.43 2110.51,-179.4 2104.41,-170.74 2100.34,-176.43"/>
</g>
<!-- Node7 -->
<g id="node7" class="node">
<title>Node7</title>
<g id="a_node7"><a xlink:href="enclave_2main_8cpp.html" target="_top" xlink:title=" ">
<polygon fill="white" stroke="black" points="1370.26,-0.5 1370.26,-19.5 1490.26,-19.5 1490.26,-0.5 1370.26,-0.5"/>
<text text-anchor="middle" x="1430.26" y="-7.5" font-family="Helvetica,sans-Serif" font-size="10.00">src/enclave/main.cpp</text>
</a>
</g>
</g>
<!-- Node6&#45;&gt;Node7 -->
<g id="edge6" class="edge">
<title>Node6&#45;&gt;Node7</title>
<path fill="none" stroke="midnightblue" d="M1430.26,-45.8C1430.26,-36.91 1430.26,-26.78 1430.26,-19.75"/>
<polygon fill="midnightblue" stroke="midnightblue" points="1426.76,-46.08 1430.26,-56.08 1433.76,-46.08 1426.76,-46.08"/>
</g>
<!-- Node8&#45;&gt;Node6 -->
<g id="edge8" class="edge">
<title>Node8&#45;&gt;Node6</title>
<path fill="none" stroke="midnightblue" d="M1966.72,-112.63C1965.22,-112.41 1963.73,-112.2 1962.26,-112 1792.58,-88.91 1590.73,-75.71 1491.52,-70.15"/>
<polygon fill="midnightblue" stroke="midnightblue" points="1966.31,-116.11 1976.73,-114.17 1967.38,-109.19 1966.31,-116.11"/>
</g>
<!-- Node9&#45;&gt;Node6 -->
<g id="edge10" class="edge">
<title>Node9&#45;&gt;Node6</title>
<path fill="none" stroke="midnightblue" d="M1490.18,-177.29C1505.56,-160.5 1524.05,-133.74 1511.26,-112 1500.49,-93.7 1479.29,-82.31 1461.28,-75.56"/>
<polygon fill="midnightblue" stroke="midnightblue" points="1487.48,-175.04 1483.03,-184.66 1492.5,-179.92 1487.48,-175.04"/>
</g>
<!-- Node10 -->
<g id="node10" class="node">
<title>Node10</title>
<g id="a_node10"><a xlink:href="gov__effects_8h.html" target="_top" xlink:title=" ">
<polygon fill="white" stroke="black" points="1358.26,-118 1358.26,-137 1502.26,-137 1502.26,-118 1358.26,-118"/>
<text text-anchor="middle" x="1430.26" y="-125" font-family="Helvetica,sans-Serif" font-size="10.00">src/node/rpc/gov_effects.h</text>
</a>
</g>
</g>
<!-- Node9&#45;&gt;Node10 -->
<g id="edge11" class="edge">
<title>Node9&#45;&gt;Node10</title>
<path fill="none" stroke="midnightblue" d="M1461.71,-176.03C1453.38,-163.45 1442.5,-147.01 1435.97,-137.13"/>
<polygon fill="midnightblue" stroke="midnightblue" points="1459.02,-178.32 1467.46,-184.73 1464.86,-174.46 1459.02,-178.32"/>
</g>
<!-- Node10&#45;&gt;Node6 -->
<g id="edge12" class="edge">
<title>Node10&#45;&gt;Node6</title>
<path fill="none" stroke="midnightblue" d="M1430.26,-107.82C1430.26,-97 1430.26,-83.9 1430.26,-75.51"/>
<polygon fill="midnightblue" stroke="midnightblue" points="1426.76,-107.98 1430.26,-117.98 1433.76,-107.98 1426.76,-107.98"/>
</g>
<!-- Node11&#45;&gt;Node6 -->
<g id="edge15" class="edge">
<title>Node11&#45;&gt;Node6</title>
<path fill="none" stroke="midnightblue" d="M1059.77,-384.15C1014.55,-375.75 961.15,-362.3 947.26,-344 880.95,-256.66 939.24,-171.66 1031.26,-112 1085.59,-76.78 1271.14,-68.98 1368.88,-67.35"/>
<polygon fill="midnightblue" stroke="midnightblue" points="1059.41,-387.64 1069.87,-385.96 1060.65,-380.75 1059.41,-387.64"/>
</g>
<!-- Node11&#45;&gt;Node9 -->
<g id="edge32" class="edge">
<title>Node11&#45;&gt;Node9</title>
<path fill="none" stroke="midnightblue" d="M1128.97,-375.8C1130.43,-358.28 1134.74,-332.01 1147.26,-313 1174.89,-271.06 1192.47,-266.62 1238.26,-246 1293.81,-220.98 1362.44,-208.07 1411.15,-201.6"/>
<polygon fill="midnightblue" stroke="midnightblue" points="1125.47,-375.7 1128.36,-385.89 1132.45,-376.11 1125.47,-375.7"/>
</g>
<!-- Node12 -->
<g id="node12" class="node">
<title>Node12</title>
<g id="a_node12"><a xlink:href="wrap_8h.html" target="_top" xlink:title=" ">
<polygon fill="white" stroke="black" points="563.26,-319 563.26,-338 641.26,-338 641.26,-319 563.26,-319"/>
<text text-anchor="middle" x="602.26" y="-326" font-family="Helvetica,sans-Serif" font-size="10.00">src/js/wrap.h</text>
</a>
</g>
</g>
<!-- Node11&#45;&gt;Node12 -->
<g id="edge16" class="edge">
<title>Node11&#45;&gt;Node12</title>
<path fill="none" stroke="midnightblue" d="M1049.12,-384.72C934.69,-370.58 727.32,-344.95 641.29,-334.32"/>
<polygon fill="midnightblue" stroke="midnightblue" points="1048.87,-388.22 1059.22,-385.97 1049.73,-381.27 1048.87,-388.22"/>
</g>
<!-- Node21 -->
<g id="node21" class="node">
<title>Node21</title>
<g id="a_node21"><a xlink:href="node__frontend_8h.html" target="_top" xlink:title=" ">
<polygon fill="white" stroke="black" points="1606.26,-319 1606.26,-338 1764.26,-338 1764.26,-319 1606.26,-319"/>
<text text-anchor="middle" x="1685.26" y="-326" font-family="Helvetica,sans-Serif" font-size="10.00">src/node/rpc/node_frontend.h</text>
</a>
</g>
</g>
<!-- Node11&#45;&gt;Node21 -->
<g id="edge33" class="edge">
<title>Node11&#45;&gt;Node21</title>
<path fill="none" stroke="midnightblue" d="M1208.73,-385.11C1316.94,-372.48 1507.79,-350.21 1612.11,-338.04"/>
<polygon fill="midnightblue" stroke="midnightblue" points="1208.05,-381.67 1198.52,-386.3 1208.86,-388.62 1208.05,-381.67"/>
</g>
<!-- Node23 -->
<g id="node23" class="node">
<title>Node23</title>
<g id="a_node23"><a xlink:href="user__frontend_8h.html" target="_top" xlink:title=" ">
<polygon fill="white" stroke="black" points="1040.76,-118 1040.76,-137 1195.76,-137 1195.76,-118 1040.76,-118"/>
<text text-anchor="middle" x="1118.26" y="-125" font-family="Helvetica,sans-Serif" font-size="10.00">src/node/rpc/user_frontend.h</text>
</a>
</g>
</g>
<!-- Node11&#45;&gt;Node23 -->
<g id="edge37" class="edge">
<title>Node11&#45;&gt;Node23</title>
<path fill="none" stroke="midnightblue" d="M1048.06,-389.9C1016.4,-383.67 982.95,-370.62 963.26,-344 904.33,-264.34 1053.71,-166.48 1103.07,-137.18"/>
<polygon fill="midnightblue" stroke="midnightblue" points="1047.8,-393.41 1058.25,-391.69 1049.01,-386.51 1047.8,-393.41"/>
</g>
<!-- Node11&#45;&gt;Node24 -->
<g id="edge39" class="edge">
<title>Node11&#45;&gt;Node24</title>
<path fill="none" stroke="midnightblue" d="M1183.79,-384.04C1251.65,-371.25 1365.15,-349.87 1427.98,-338.03"/>
<polygon fill="midnightblue" stroke="midnightblue" points="1182.9,-380.64 1173.72,-385.94 1184.19,-387.52 1182.9,-380.64"/>
</g>
<!-- Node11&#45;&gt;Node25 -->
<g id="edge41" class="edge">
<title>Node11&#45;&gt;Node25</title>
<path fill="none" stroke="midnightblue" d="M1150.37,-380.27C1170.37,-367.4 1199.15,-348.88 1215.85,-338.13"/>
<polygon fill="midnightblue" stroke="midnightblue" points="1148.4,-377.38 1141.88,-385.73 1152.18,-383.27 1148.4,-377.38"/>
</g>
<!-- Node26 -->
<g id="node26" class="node">
<title>Node26</title>
<g id="a_node26"><a xlink:href="snapshotter_8h.html" target="_top" xlink:title=" ">
<polygon fill="white" stroke="black" points="972.76,-319 972.76,-338 1099.76,-338 1099.76,-319 972.76,-319"/>
<text text-anchor="middle" x="1036.26" y="-326" font-family="Helvetica,sans-Serif" font-size="10.00">src/node/snapshotter.h</text>
</a>
</g>
</g>
<!-- Node11&#45;&gt;Node26 -->
<g id="edge44" class="edge">
<title>Node11&#45;&gt;Node26</title>
<path fill="none" stroke="midnightblue" d="M1107.62,-379.92C1089.44,-367.07 1063.55,-348.78 1048.47,-338.13"/>
<polygon fill="midnightblue" stroke="midnightblue" points="1105.67,-382.82 1115.85,-385.73 1109.7,-377.1 1105.67,-382.82"/>
</g>
<!-- Node12&#45;&gt;Node6 -->
<g id="edge18" class="edge">
<title>Node12&#45;&gt;Node6</title>
<path fill="none" stroke="midnightblue" d="M651.64,-327.11C697.59,-324.3 765.64,-313.58 811.26,-277 875,-225.9 824.79,-158.06 892.26,-112 930.87,-85.65 1236.03,-73.04 1368.85,-68.76"/>
<polygon fill="midnightblue" stroke="midnightblue" points="651.43,-323.62 641.62,-327.62 651.78,-330.61 651.43,-323.62"/>
</g>
<!-- Node12&#45;&gt;Node9 -->
<g id="edge29" class="edge">
<title>Node12&#45;&gt;Node9</title>
<path fill="none" stroke="midnightblue" d="M651.35,-317.84C700.33,-308.07 777.67,-292.27 844.26,-277 899.63,-264.31 912.29,-255.74 968.26,-246 1126.46,-218.46 1315.36,-204.54 1411.06,-198.8"/>
<polygon fill="midnightblue" stroke="midnightblue" points="650.47,-314.45 641.34,-319.84 651.83,-321.32 650.47,-314.45"/>
</g>
<!-- Node13 -->
<g id="node13" class="node">
<title>Node13</title>
<g id="a_node13"><a xlink:href="js__generic__base_8cpp.html" target="_top" xlink:title=" ">
<polygon fill="white" stroke="black" points="684.26,-246.5 684.26,-276.5 802.26,-276.5 802.26,-246.5 684.26,-246.5"/>
<text text-anchor="start" x="692.26" y="-264.5" font-family="Helvetica,sans-Serif" font-size="10.00">src/apps/js_generic</text>
<text text-anchor="middle" x="743.26" y="-253.5" font-family="Helvetica,sans-Serif" font-size="10.00">/js_generic_base.cpp</text>
</a>
</g>
</g>
<!-- Node12&#45;&gt;Node13 -->
<g id="edge17" class="edge">
<title>Node12&#45;&gt;Node13</title>
<path fill="none" stroke="midnightblue" d="M630.2,-314.62C654.05,-303.63 688.29,-287.84 712.83,-276.53"/>
<polygon fill="midnightblue" stroke="midnightblue" points="628.6,-311.5 620.98,-318.87 631.53,-317.86 628.6,-311.5"/>
</g>
<!-- Node14 -->
<g id="node14" class="node">
<title>Node14</title>
<g id="a_node14"><a xlink:href="js_2consensus_8cpp.html" target="_top" xlink:title=" ">
<polygon fill="white" stroke="black" points="404.26,-252 404.26,-271 520.26,-271 520.26,-252 404.26,-252"/>
<text text-anchor="middle" x="462.26" y="-259" font-family="Helvetica,sans-Serif" font-size="10.00">src/js/consensus.cpp</text>
</a>
</g>
</g>
<!-- Node12&#45;&gt;Node14 -->
<g id="edge19" class="edge">
<title>Node12&#45;&gt;Node14</title>
<path fill="none" stroke="midnightblue" d="M574.5,-314.61C546.77,-301.74 504.92,-282.31 480.93,-271.17"/>
<polygon fill="midnightblue" stroke="midnightblue" points="573.13,-317.83 583.67,-318.87 576.07,-311.48 573.13,-317.83"/>
</g>
<!-- Node15 -->
<g id="node15" class="node">
<title>Node15</title>
<g id="a_node15"><a xlink:href="wrap_8cpp.html" target="_top" xlink:title=" ">
<polygon fill="white" stroke="black" points="133.76,-185 133.76,-204 222.76,-204 222.76,-185 133.76,-185"/>
<text text-anchor="middle" x="178.26" y="-192" font-family="Helvetica,sans-Serif" font-size="10.00">src/js/wrap.cpp</text>
</a>
</g>
</g>
<!-- Node12&#45;&gt;Node15 -->
<g id="edge28" class="edge">
<title>Node12&#45;&gt;Node15</title>
<path fill="none" stroke="midnightblue" d="M552.74,-325.48C443,-320.48 186.98,-305.83 161.26,-277 142.79,-256.29 161.59,-220.8 172.14,-204.35"/>
<polygon fill="midnightblue" stroke="midnightblue" points="552.75,-328.98 562.89,-325.93 553.06,-321.99 552.75,-328.98"/>
</g>
<!-- Node16 -->
<g id="node16" class="node">
<title>Node16</title>
<g id="a_node16"><a xlink:href="conv_8cpp.html" target="_top" xlink:title=" ">
<polygon fill="white" stroke="black" points="170.26,-252 170.26,-271 258.26,-271 258.26,-252 170.26,-252"/>
<text text-anchor="middle" x="214.26" y="-259" font-family="Helvetica,sans-Serif" font-size="10.00">src/js/conv.cpp</text>
</a>
</g>
</g>
<!-- Node12&#45;&gt;Node16 -->
<g id="edge21" class="edge">
<title>Node12&#45;&gt;Node16</title>
<path fill="none" stroke="midnightblue" d="M553,-321.91C487.39,-314.05 367.9,-298.28 267.26,-277 259.33,-275.32 250.82,-273.16 242.99,-271.02"/>
<polygon fill="midnightblue" stroke="midnightblue" points="552.71,-325.4 563.05,-323.1 553.53,-318.45 552.71,-325.4"/>
</g>
<!-- Node17 -->
<g id="node17" class="node">
<title>Node17</title>
<g id="a_node17"><a xlink:href="js_2crypto_8cpp.html" target="_top" xlink:title=" ">
<polygon fill="white" stroke="black" points="18.26,-252 18.26,-271 114.26,-271 114.26,-252 18.26,-252"/>
<text text-anchor="middle" x="66.26" y="-259" font-family="Helvetica,sans-Serif" font-size="10.00">src/js/crypto.cpp</text>
</a>
</g>
</g>
<!-- Node12&#45;&gt;Node17 -->
<g id="edge23" class="edge">
<title>Node12&#45;&gt;Node17</title>
<path fill="none" stroke="midnightblue" d="M552.97,-324.27C466.52,-318.14 282.13,-303.09 128.26,-277 118.78,-275.39 108.58,-273.2 99.25,-271.01"/>
<polygon fill="midnightblue" stroke="midnightblue" points="552.8,-327.76 563.02,-324.97 553.29,-320.78 552.8,-327.76"/>
</g>
<!-- Node18 -->
<g id="node18" class="node">
<title>Node18</title>
<g id="a_node18"><a xlink:href="js_2historical_8cpp.html" target="_top" xlink:title=" ">
<polygon fill="white" stroke="black" points="276.26,-252 276.26,-271 386.26,-271 386.26,-252 276.26,-252"/>
<text text-anchor="middle" x="331.26" y="-259" font-family="Helvetica,sans-Serif" font-size="10.00">src/js/historical.cpp</text>
</a>
</g>
</g>
<!-- Node12&#45;&gt;Node18 -->
<g id="edge25" class="edge">
<title>Node12&#45;&gt;Node18</title>
<path fill="none" stroke="midnightblue" d="M556.67,-316.56C503.24,-303.75 415.83,-282.78 367.05,-271.08"/>
<polygon fill="midnightblue" stroke="midnightblue" points="556.01,-320.01 566.55,-318.94 557.65,-313.2 556.01,-320.01"/>
</g>
<!-- Node19 -->
<g id="node19" class="node">
<title>Node19</title>
<g id="a_node19"><a xlink:href="openenclave_8cpp.html" target="_top" xlink:title=" ">
<polygon fill="white" stroke="black" points="538.26,-252 538.26,-271 666.26,-271 666.26,-252 538.26,-252"/>
<text text-anchor="middle" x="602.26" y="-259" font-family="Helvetica,sans-Serif" font-size="10.00">src/js/openenclave.cpp</text>
</a>
</g>
</g>
<!-- Node12&#45;&gt;Node19 -->
<g id="edge27" class="edge">
<title>Node12&#45;&gt;Node19</title>
<path fill="none" stroke="midnightblue" d="M602.26,-308.54C602.26,-296.17 602.26,-280.62 602.26,-271.13"/>
<polygon fill="midnightblue" stroke="midnightblue" points="598.76,-308.73 602.26,-318.73 605.76,-308.73 598.76,-308.73"/>
</g>
<!-- Node20 -->
<g id="node20" class="node">
<title>Node20</title>
<g id="a_node20"><a xlink:href="member__frontend_8h.html" target="_top" xlink:title=" ">
<polygon fill="white" stroke="black" points="1270.26,-246.5 1270.26,-276.5 1390.26,-276.5 1390.26,-246.5 1270.26,-246.5"/>
<text text-anchor="start" x="1278.26" y="-264.5" font-family="Helvetica,sans-Serif" font-size="10.00">src/node/rpc/member</text>
<text text-anchor="middle" x="1330.26" y="-253.5" font-family="Helvetica,sans-Serif" font-size="10.00">_frontend.h</text>
</a>
</g>
</g>
<!-- Node12&#45;&gt;Node20 -->
<g id="edge30" class="edge">
<title>Node12&#45;&gt;Node20</title>
<path fill="none" stroke="midnightblue" d="M651.4,-323.11C780.57,-311.58 1129.36,-280.44 1270.13,-267.87"/>
<polygon fill="midnightblue" stroke="midnightblue" points="651.05,-319.63 641.4,-324.01 651.67,-326.6 651.05,-319.63"/>
</g>
<!-- Node14&#45;&gt;Node15 -->
<g id="edge20" class="edge">
<title>Node14&#45;&gt;Node15</title>
<path fill="none" stroke="midnightblue" d="M414.83,-249.64C358.87,-236.84 267,-215.81 215.76,-204.08"/>
<polygon fill="midnightblue" stroke="midnightblue" points="414.31,-253.12 424.84,-251.94 415.87,-246.29 414.31,-253.12"/>
</g>
<!-- Node16&#45;&gt;Node15 -->
<g id="edge22" class="edge">
<title>Node16&#45;&gt;Node15</title>
<path fill="none" stroke="midnightblue" d="M204.38,-242.66C197.44,-230.13 188.46,-213.91 183.04,-204.13"/>
<polygon fill="midnightblue" stroke="midnightblue" points="201.5,-244.68 209.41,-251.73 207.62,-241.29 201.5,-244.68"/>
</g>
<!-- Node17&#45;&gt;Node15 -->
<g id="edge24" class="edge">
<title>Node17&#45;&gt;Node15</title>
<path fill="none" stroke="midnightblue" d="M90.18,-246.62C112.37,-233.74 144.7,-214.98 163.39,-204.13"/>
<polygon fill="midnightblue" stroke="midnightblue" points="88.26,-243.69 81.36,-251.73 91.77,-249.74 88.26,-243.69"/>
</g>
<!-- Node18&#45;&gt;Node15 -->
<g id="edge26" class="edge">
<title>Node18&#45;&gt;Node15</title>
<path fill="none" stroke="midnightblue" d="M301.72,-247.95C271.42,-235.08 225.11,-215.4 198.66,-204.17"/>
<polygon fill="midnightblue" stroke="midnightblue" points="300.37,-251.18 310.94,-251.87 303.11,-244.74 300.37,-251.18"/>
</g>
<!-- Node20&#45;&gt;Node6 -->
<g id="edge31" class="edge">
<title>Node20&#45;&gt;Node6</title>
<path fill="none" stroke="midnightblue" d="M1327.07,-236.31C1324.23,-204.86 1323.83,-149.53 1349.26,-112 1361.44,-94.02 1383.3,-82.49 1401.24,-75.61"/>
<polygon fill="midnightblue" stroke="midnightblue" points="1323.6,-236.8 1328.14,-246.37 1330.57,-236.06 1323.6,-236.8"/>
</g>
<!-- Node21&#45;&gt;Node6 -->
<g id="edge34" class="edge">
<title>Node21&#45;&gt;Node6</title>
<path fill="none" stroke="midnightblue" d="M1712.13,-313.63C1725.65,-305.07 1740.72,-292.71 1748.26,-277 1754.22,-264.58 1755.01,-258.01 1748.26,-246 1689.22,-140.92 1542.31,-93.16 1470.73,-75.56"/>
<polygon fill="midnightblue" stroke="midnightblue" points="1709.97,-310.84 1703.14,-318.94 1713.53,-316.87 1709.97,-310.84"/>
</g>
<!-- Node22 -->
<g id="node22" class="node">
<title>Node22</title>
<g id="a_node22"><a xlink:href="jwt__key__auto__refresh_8h.html" target="_top" xlink:title=" ">
<polygon fill="white" stroke="black" points="1614.76,-246.5 1614.76,-276.5 1739.76,-276.5 1739.76,-246.5 1614.76,-246.5"/>
<text text-anchor="start" x="1622.76" y="-264.5" font-family="Helvetica,sans-Serif" font-size="10.00">src/node/jwt_key_auto</text>
<text text-anchor="middle" x="1677.26" y="-253.5" font-family="Helvetica,sans-Serif" font-size="10.00">_refresh.h</text>
</a>
</g>
</g>
<!-- Node21&#45;&gt;Node22 -->
<g id="edge35" class="edge">
<title>Node21&#45;&gt;Node22</title>
<path fill="none" stroke="midnightblue" d="M1682.95,-308.74C1681.69,-298.49 1680.15,-286 1678.99,-276.59"/>
<polygon fill="midnightblue" stroke="midnightblue" points="1679.49,-309.24 1684.18,-318.73 1686.43,-308.38 1679.49,-309.24"/>
</g>
<!-- Node22&#45;&gt;Node9 -->
<g id="edge36" class="edge">
<title>Node22&#45;&gt;Node9</title>
<path fill="none" stroke="midnightblue" d="M1623.69,-243.43C1583.9,-230.75 1531.32,-214 1500.03,-204.03"/>
<polygon fill="midnightblue" stroke="midnightblue" points="1622.66,-246.77 1633.25,-246.48 1624.78,-240.11 1622.66,-246.77"/>
</g>
<!-- Node23&#45;&gt;Node6 -->
<g id="edge38" class="edge">
<title>Node23&#45;&gt;Node6</title>
<path fill="none" stroke="midnightblue" d="M1173.08,-116.05C1233.52,-104.52 1329.61,-86.19 1385.64,-75.51"/>
<polygon fill="midnightblue" stroke="midnightblue" points="1172.13,-112.66 1162.96,-117.98 1173.44,-119.54 1172.13,-112.66"/>
</g>
<!-- Node24&#45;&gt;Node9 -->
<g id="edge40" class="edge">
<title>Node24&#45;&gt;Node9</title>
<path fill="none" stroke="midnightblue" d="M1473.26,-308.78C1473.26,-279.75 1473.26,-225.04 1473.26,-204.02"/>
<polygon fill="midnightblue" stroke="midnightblue" points="1469.76,-308.84 1473.26,-318.84 1476.76,-308.84 1469.76,-308.84"/>
</g>
<!-- Node25&#45;&gt;Node9 -->
<g id="edge42" class="edge">
<title>Node25&#45;&gt;Node9</title>
<path fill="none" stroke="midnightblue" d="M1231.55,-308.93C1234.85,-290.29 1242.74,-262.09 1261.26,-246 1283.47,-226.71 1356.92,-212.22 1411.16,-203.82"/>
<polygon fill="midnightblue" stroke="midnightblue" points="1228.08,-308.47 1230.06,-318.88 1235,-309.51 1228.08,-308.47"/>
</g>
<!-- Node25&#45;&gt;Node20 -->
<g id="edge43" class="edge">
<title>Node25&#45;&gt;Node20</title>
<path fill="none" stroke="midnightblue" d="M1251.55,-313.15C1268.46,-302.27 1291.56,-287.4 1308.37,-276.59"/>
<polygon fill="midnightblue" stroke="midnightblue" points="1249.4,-310.38 1242.88,-318.73 1253.18,-316.27 1249.4,-310.38"/>
</g>
<!-- Node26&#45;&gt;Node9 -->
<g id="edge45" class="edge">
<title>Node26&#45;&gt;Node9</title>
<path fill="none" stroke="midnightblue" d="M1047.29,-310.4C1060.66,-291.26 1085.05,-260.97 1114.26,-246 1164.81,-220.1 1322.55,-205.61 1411.19,-199.33"/>
<polygon fill="midnightblue" stroke="midnightblue" points="1044.33,-308.54 1041.65,-318.79 1050.14,-312.45 1044.33,-308.54"/>
</g>
<!-- Node27&#45;&gt;Node15 -->
<g id="edge49" class="edge">
<title>Node27&#45;&gt;Node15</title>
<path fill="none" stroke="midnightblue" d="M1700.54,-457.58C1566.59,-450.57 1285.83,-434.4 1049.26,-411 991.29,-405.27 47.73,-320.75 9.26,-277 -29.78,-232.6 71.49,-210.19 133.73,-200.91"/>
<polygon fill="midnightblue" stroke="midnightblue" points="1700.54,-461.09 1710.71,-458.11 1700.9,-454.1 1700.54,-461.09"/>
</g>
<!-- Node27&#45;&gt;Node20 -->
<g id="edge52" class="edge">
<title>Node27&#45;&gt;Node20</title>
<path fill="none" stroke="midnightblue" d="M1700.34,-461.26C1597.96,-459.34 1426.8,-450.14 1379.26,-411 1337.76,-376.83 1331.14,-306.68 1330.28,-276.65"/>
<polygon fill="midnightblue" stroke="midnightblue" points="1700.58,-464.76 1710.64,-461.43 1700.7,-457.76 1700.58,-464.76"/>
</g>
<!-- Node28 -->
<g id="node28" class="node">
<title>Node28</title>
<g id="a_node28"><a xlink:href="nobuiltins_8cpp.html" target="_top" xlink:title=" ">
<polygon fill="white" stroke="black" points="2138.76,-313.5 2138.76,-343.5 2273.76,-343.5 2273.76,-313.5 2138.76,-313.5"/>
<text text-anchor="start" x="2146.76" y="-331.5" font-family="Helvetica,sans-Serif" font-size="10.00">samples/apps/nobuiltins</text>
<text text-anchor="middle" x="2206.26" y="-320.5" font-family="Helvetica,sans-Serif" font-size="10.00">/nobuiltins.cpp</text>
</a>
</g>
</g>
<!-- Node27&#45;&gt;Node28 -->
<g id="edge47" class="edge">
<title>Node27&#45;&gt;Node28</title>
<path fill="none" stroke="midnightblue" d="M1858.07,-452.71C1912.29,-445.21 1985.4,-432.18 2047.26,-411 2098.62,-393.41 2154.06,-361.79 2184,-343.53"/>
<polygon fill="midnightblue" stroke="midnightblue" points="1857.27,-449.29 1847.83,-454.1 1858.21,-456.23 1857.27,-449.29"/>
</g>
<!-- Node29 -->
<g id="node29" class="node">
<title>Node29</title>
<g id="a_node29"><a xlink:href="common__endpoint__registry_8cpp.html" target="_top" xlink:title=" ">
<polygon fill="white" stroke="black" points="1782.26,-313.5 1782.26,-343.5 1910.26,-343.5 1910.26,-313.5 1782.26,-313.5"/>
<text text-anchor="start" x="1790.26" y="-331.5" font-family="Helvetica,sans-Serif" font-size="10.00">src/endpoints/common</text>
<text text-anchor="middle" x="1846.26" y="-320.5" font-family="Helvetica,sans-Serif" font-size="10.00">_endpoint_registry.cpp</text>
</a>
</g>
</g>
<!-- Node27&#45;&gt;Node29 -->
<g id="edge48" class="edge">
<title>Node27&#45;&gt;Node29</title>
<path fill="none" stroke="midnightblue" d="M1788.35,-443.6C1801.79,-417.11 1826.71,-368.01 1839.01,-343.78"/>
<polygon fill="midnightblue" stroke="midnightblue" points="1785.06,-442.34 1783.66,-452.84 1791.3,-445.51 1785.06,-442.34"/>
</g>
<!-- Node30 -->
<g id="node30" class="node">
<title>Node30</title>
<g id="a_node30"><a xlink:href="resharing_8h.html" target="_top" xlink:title=" ">
<polygon fill="white" stroke="black" points="2004.26,-319 2004.26,-338 2120.26,-338 2120.26,-319 2004.26,-319"/>
<text text-anchor="middle" x="2062.26" y="-326" font-family="Helvetica,sans-Serif" font-size="10.00">src/node/resharing.h</text>
</a>
</g>
</g>
<!-- Node27&#45;&gt;Node30 -->
<g id="edge50" class="edge">
<title>Node27&#45;&gt;Node30</title>
<path fill="none" stroke="midnightblue" d="M1857.8,-452.57C1918.38,-444.34 1995.95,-430.45 2021.26,-411 2045.62,-392.28 2056.61,-355.13 2060.5,-338.23"/>
<polygon fill="midnightblue" stroke="midnightblue" points="1857.31,-449.11 1847.86,-453.89 1858.23,-456.05 1857.31,-449.11"/>
</g>
<!-- Node31 -->
<g id="node31" class="node">
<title>Node31</title>
<g id="a_node31"><a xlink:href="serialization_8h.html" target="_top" xlink:title=" ">
<polygon fill="white" stroke="black" points="1864.26,-386 1864.26,-405 2012.26,-405 2012.26,-386 1864.26,-386"/>
<text text-anchor="middle" x="1938.26" y="-393" font-family="Helvetica,sans-Serif" font-size="10.00">src/node/rpc/serialization.h</text>
</a>
</g>
</g>
<!-- Node27&#45;&gt;Node31 -->
<g id="edge53" class="edge">
<title>Node27&#45;&gt;Node31</title>
<path fill="none" stroke="midnightblue" d="M1809.99,-448.94C1841.57,-436.03 1889.88,-416.28 1917.31,-405.06"/>
<polygon fill="midnightblue" stroke="midnightblue" points="1808.31,-445.84 1800.37,-452.87 1810.95,-452.32 1808.31,-445.84"/>
</g>
<!-- Node30&#45;&gt;Node9 -->
<g id="edge51" class="edge">
<title>Node30&#45;&gt;Node9</title>
<path fill="none" stroke="midnightblue" d="M2038.97,-313.83C2006.11,-295.22 1943.73,-262.38 1886.26,-246 1765.04,-211.45 1617.18,-200.54 1535.33,-197.09"/>
<polygon fill="midnightblue" stroke="midnightblue" points="2037.38,-316.95 2047.8,-318.89 2040.86,-310.88 2037.38,-316.95"/>
</g>
<!-- Node31&#45;&gt;Node9 -->
<g id="edge56" class="edge">
<title>Node31&#45;&gt;Node9</title>
<path fill="none" stroke="midnightblue" d="M1944.85,-376.17C1949.99,-358.34 1954.31,-331.34 1941.26,-313 1914.94,-276.01 1792.16,-257.58 1748.26,-246 1675.74,-226.87 1590.59,-212.44 1534.47,-204"/>
<polygon fill="midnightblue" stroke="midnightblue" points="1941.44,-375.33 1941.68,-385.92 1948.1,-377.49 1941.44,-375.33"/>
</g>
<!-- Node31&#45;&gt;Node20 -->
<g id="edge58" class="edge">
<title>Node31&#45;&gt;Node20</title>
<path fill="none" stroke="midnightblue" d="M1939.65,-375.92C1939.94,-357.04 1937.08,-328.43 1919.26,-313 1899.45,-295.85 1536.31,-273.92 1390.31,-265.75"/>
<polygon fill="midnightblue" stroke="midnightblue" points="1936.15,-375.83 1939.19,-385.98 1943.15,-376.15 1936.15,-375.83"/>
</g>
<!-- Node31&#45;&gt;Node21 -->
<g id="edge59" class="edge">
<title>Node31&#45;&gt;Node21</title>
<path fill="none" stroke="midnightblue" d="M1895.07,-383.4C1845.14,-370.58 1764.03,-349.74 1718.67,-338.08"/>
<polygon fill="midnightblue" stroke="midnightblue" points="1894.37,-386.84 1904.92,-385.94 1896.11,-380.06 1894.37,-386.84"/>
</g>
<!-- Node31&#45;&gt;Node28 -->
<g id="edge54" class="edge">
<title>Node31&#45;&gt;Node28</title>
<path fill="none" stroke="midnightblue" d="M1983.42,-383.55C2028.78,-372.55 2098.85,-355.55 2148.29,-343.56"/>
<polygon fill="midnightblue" stroke="midnightblue" points="1982.47,-380.18 1973.57,-385.94 1984.12,-386.98 1982.47,-380.18"/>
</g>
<!-- Node31&#45;&gt;Node29 -->
<g id="edge55" class="edge">
<title>Node31&#45;&gt;Node29</title>
<path fill="none" stroke="midnightblue" d="M1917.52,-379.85C1902.17,-369 1881.37,-354.3 1866.2,-343.59"/>
<polygon fill="midnightblue" stroke="midnightblue" points="1915.67,-382.82 1925.85,-385.73 1919.7,-377.1 1915.67,-382.82"/>
</g>
<!-- Node31&#45;&gt;Node30 -->
<g id="edge57" class="edge">
<title>Node31&#45;&gt;Node30</title>
<path fill="none" stroke="midnightblue" d="M1963.82,-381.1C1988.37,-368.23 2024.75,-349.16 2045.73,-338.17"/>
<polygon fill="midnightblue" stroke="midnightblue" points="1961.96,-378.13 1954.73,-385.87 1965.21,-384.33 1961.96,-378.13"/>
</g>
<!-- Node32&#45;&gt;Node27 -->
<g id="edge61" class="edge">
<title>Node32&#45;&gt;Node27</title>
<path fill="none" stroke="midnightblue" d="M1705.8,-508.97C1725.71,-496.65 1750.43,-481.35 1765.52,-472.01"/>
<polygon fill="midnightblue" stroke="midnightblue" points="1703.7,-506.16 1697.04,-514.4 1707.39,-512.11 1703.7,-506.16"/>
</g>
<!-- Node33&#45;&gt;Node9 -->
<g id="edge65" class="edge">
<title>Node33&#45;&gt;Node9</title>
<path fill="none" stroke="midnightblue" d="M1508.05,-380.68C1527.51,-373.17 1546.73,-361.65 1558.26,-344 1591.88,-292.51 1515.56,-227.2 1485.11,-204.08"/>
<polygon fill="midnightblue" stroke="midnightblue" points="1506.77,-377.42 1498.51,-384.05 1509.1,-384.02 1506.77,-377.42"/>
</g>
<!-- Node33&#45;&gt;Node20 -->
<g id="edge66" class="edge">
<title>Node33&#45;&gt;Node20</title>
<path fill="none" stroke="midnightblue" d="M1417.95,-373.84C1407.91,-365.1 1396.56,-354.53 1387.26,-344 1367.94,-322.13 1349.29,-293.62 1338.84,-276.76"/>
<polygon fill="midnightblue" stroke="midnightblue" points="1415.77,-376.58 1425.65,-380.41 1420.31,-371.26 1415.77,-376.58"/>
</g>
<!-- Node33&#45;&gt;Node21 -->
<g id="edge67" class="edge">
<title>Node33&#45;&gt;Node21</title>
<path fill="none" stroke="midnightblue" d="M1505.32,-377.83C1552.68,-365.11 1615.99,-348.11 1653.51,-338.03"/>
<polygon fill="midnightblue" stroke="midnightblue" points="1504.22,-374.5 1495.47,-380.48 1506.04,-381.26 1504.22,-374.5"/>
</g>
<!-- Node33&#45;&gt;Node24 -->
<g id="edge68" class="edge">
<title>Node33&#45;&gt;Node24</title>
<path fill="none" stroke="midnightblue" d="M1453.97,-371.29C1459.27,-359.8 1465.35,-346.63 1469.25,-338.19"/>
<polygon fill="midnightblue" stroke="midnightblue" points="1450.78,-369.85 1449.77,-380.4 1457.14,-372.78 1450.78,-369.85"/>
</g>
<!-- Node33&#45;&gt;Node25 -->
<g id="edge69" class="edge">
<title>Node33&#45;&gt;Node25</title>
<path fill="none" stroke="midnightblue" d="M1387.32,-377.51C1345.56,-364.83 1290.24,-348.02 1257.34,-338.03"/>
<polygon fill="midnightblue" stroke="midnightblue" points="1386.5,-380.92 1397.09,-380.48 1388.54,-374.22 1386.5,-380.92"/>
</g>
<!-- Node34&#45;&gt;Node11 -->
<g id="edge75" class="edge">
<title>Node34&#45;&gt;Node11</title>
<path fill="none" stroke="midnightblue" d="M1128.26,-437.25C1128.26,-426.02 1128.26,-413.38 1128.26,-405.19"/>
<polygon fill="midnightblue" stroke="midnightblue" points="1124.76,-437.4 1128.26,-447.4 1131.76,-437.4 1124.76,-437.4"/>
</g>
<!-- Node34&#45;&gt;Node33 -->
<g id="edge76" class="edge">
<title>Node34&#45;&gt;Node33</title>
<path fill="none" stroke="midnightblue" d="M1194.65,-447.8C1252.15,-435.94 1334.33,-418.98 1388.22,-407.86"/>
<polygon fill="midnightblue" stroke="midnightblue" points="1193.66,-444.43 1184.58,-449.88 1195.08,-451.29 1193.66,-444.43"/>
</g>
<!-- Node35 -->
<g id="node35" class="node">
<title>Node35</title>
<g id="a_node35"><a xlink:href="kv__module__loader_8cpp.html" target="_top" xlink:title=" ">
<polygon fill="white" stroke="black" points="298.76,-380.5 298.76,-410.5 441.76,-410.5 441.76,-380.5 298.76,-380.5"/>
<text text-anchor="start" x="306.76" y="-398.5" font-family="Helvetica,sans-Serif" font-size="10.00">src/apps/js_v8/kv_module</text>
<text text-anchor="middle" x="370.26" y="-387.5" font-family="Helvetica,sans-Serif" font-size="10.00">_loader.cpp</text>
</a>
</g>
</g>
<!-- Node34&#45;&gt;Node35 -->
<g id="edge72" class="edge">
<title>Node34&#45;&gt;Node35</title>
<path fill="none" stroke="midnightblue" d="M1061.99,-458.88C940.38,-453.55 673.53,-439.47 450.26,-411 447.6,-410.66 444.89,-410.29 442.16,-409.9"/>
<polygon fill="midnightblue" stroke="midnightblue" points="1062.11,-462.38 1072.25,-459.32 1062.41,-455.39 1062.11,-462.38"/>
</g>
<!-- Node36 -->
<g id="node36" class="node">
<title>Node36</title>
<g id="a_node36"><a xlink:href="ccf__acme__client_8h.html" target="_top" xlink:title=" ">
<polygon fill="white" stroke="black" points="459.76,-386 459.76,-405 608.76,-405 608.76,-386 459.76,-386"/>
<text text-anchor="middle" x="534.26" y="-393" font-family="Helvetica,sans-Serif" font-size="10.00">src/node/ccf_acme_client.h</text>
</a>
</g>
</g>
<!-- Node34&#45;&gt;Node36 -->
<g id="edge73" class="edge">
<title>Node34&#45;&gt;Node36</title>
<path fill="none" stroke="midnightblue" d="M1061.73,-456.22C964.84,-448.23 779.33,-431.76 622.26,-411 609.37,-409.3 595.46,-407.15 582.59,-405.03"/>
<polygon fill="midnightblue" stroke="midnightblue" points="1061.71,-459.73 1071.97,-457.06 1062.29,-452.76 1061.71,-459.73"/>
</g>
<!-- Node36&#45;&gt;Node9 -->
<g id="edge74" class="edge">
<title>Node36&#45;&gt;Node9</title>
<path fill="none" stroke="midnightblue" d="M569.7,-382.8C655.17,-355.01 879.84,-284.46 1072.26,-246 1190.95,-222.27 1331.76,-207.59 1410.99,-200.54"/>
<polygon fill="midnightblue" stroke="midnightblue" points="568.4,-379.54 559.98,-385.97 570.57,-386.2 568.4,-379.54"/>
</g>
</g>
</svg>
