<?xml version="1.0" encoding="UTF-8" standalone="no"?>
<!DOCTYPE svg PUBLIC "-//W3C//DTD SVG 1.1//EN"
 "http://www.w3.org/Graphics/SVG/1.1/DTD/svg11.dtd">
<!-- Generated by graphviz version 2.43.0 (0)
 -->
<!-- Title: include/ccf/serdes.h Pages: 1 -->
<svg width="1475pt" height="475pt"
 viewBox="0.00 0.00 1474.50 475.00" xmlns="http://www.w3.org/2000/svg" xmlns:xlink="http://www.w3.org/1999/xlink">
<g id="graph0" class="graph" transform="scale(1 1) rotate(0) translate(4 471)">
<title>include/ccf/serdes.h</title>
<polygon fill="white" stroke="transparent" points="-4,4 -4,-471 1470.5,-471 1470.5,4 -4,4"/>
<!-- Node1 -->
<g id="node1" class="node">
<title>Node1</title>
<g id="a_node1"><a xlink:title=" ">
<polygon fill="#bfbfbf" stroke="black" points="1019,-447.5 1019,-466.5 1132,-466.5 1132,-447.5 1019,-447.5"/>
<text text-anchor="middle" x="1075.5" y="-454.5" font-family="Helvetica,sans-Serif" font-size="10.00">include/ccf/serdes.h</text>
</a>
</g>
</g>
<!-- Node2 -->
<g id="node2" class="node">
<title>Node2</title>
<g id="a_node2"><a xlink:href="json__handler_8h.html" target="_top" xlink:title=" ">
<polygon fill="white" stroke="black" points="381,-386 381,-405 524,-405 524,-386 381,-386"/>
<text text-anchor="middle" x="452.5" y="-393" font-family="Helvetica,sans-Serif" font-size="10.00">include/ccf/json_handler.h</text>
</a>
</g>
</g>
<!-- Node1&#45;&gt;Node2 -->
<g id="edge1" class="edge">
<title>Node1&#45;&gt;Node2</title>
<path fill="none" stroke="midnightblue" d="M1008.84,-449.63C890.78,-438.36 645.91,-414.97 524.28,-403.36"/>
<polygon fill="midnightblue" stroke="midnightblue" points="1008.55,-453.12 1018.84,-450.59 1009.22,-446.15 1008.55,-453.12"/>
</g>
<!-- Node13 -->
<g id="node13" class="node">
<title>Node13</title>
<g id="a_node13"><a xlink:href="jwt__key__auto__refresh_8h.html" target="_top" xlink:title=" ">
<polygon fill="white" stroke="black" points="819,-246.5 819,-276.5 944,-276.5 944,-246.5 819,-246.5"/>
<text text-anchor="start" x="827" y="-264.5" font-family="Helvetica,sans-Serif" font-size="10.00">src/node/jwt_key_auto</text>
<text text-anchor="middle" x="881.5" y="-253.5" font-family="Helvetica,sans-Serif" font-size="10.00">_refresh.h</text>
</a>
</g>
</g>
<!-- Node1&#45;&gt;Node13 -->
<g id="edge28" class="edge">
<title>Node1&#45;&gt;Node13</title>
<path fill="none" stroke="midnightblue" d="M1021.91,-444.5C1001.13,-437.72 978.54,-427.19 962.5,-411 929.62,-377.82 948.42,-353.12 924.5,-313 916.48,-299.55 904.85,-286.14 895.7,-276.52"/>
<polygon fill="midnightblue" stroke="midnightblue" points="1021.02,-447.88 1031.61,-447.44 1023.06,-441.19 1021.02,-447.88"/>
</g>
<!-- Node14 -->
<g id="node14" class="node">
<title>Node14</title>
<g id="a_node14"><a xlink:href="node__state_8h.html" target="_top" xlink:title=" ">
<polygon fill="white" stroke="black" points="951.5,-185 951.5,-204 1075.5,-204 1075.5,-185 951.5,-185"/>
<text text-anchor="middle" x="1013.5" y="-192" font-family="Helvetica,sans-Serif" font-size="10.00">src/node/node_state.h</text>
</a>
</g>
</g>
<!-- Node1&#45;&gt;Node14 -->
<g id="edge29" class="edge">
<title>Node1&#45;&gt;Node14</title>
<path fill="none" stroke="midnightblue" d="M1087.74,-438.83C1092.75,-430.79 1097.95,-420.82 1100.5,-411 1118.9,-340.01 1137.09,-309.55 1100.5,-246 1088.3,-224.81 1063.42,-211.69 1043.39,-204.16"/>
<polygon fill="midnightblue" stroke="midnightblue" points="1084.75,-437.01 1082.13,-447.27 1090.58,-440.89 1084.75,-437.01"/>
</g>
<!-- Node16 -->
<g id="node16" class="node">
<title>Node16</title>
<g id="a_node16"><a xlink:href="rpc__tls__client_8h.html" target="_top" xlink:title=" ">
<polygon fill="white" stroke="black" points="1193,-380.5 1193,-410.5 1294,-410.5 1294,-380.5 1193,-380.5"/>
<text text-anchor="start" x="1201" y="-398.5" font-family="Helvetica,sans-Serif" font-size="10.00">src/clients/rpc_tls</text>
<text text-anchor="middle" x="1243.5" y="-387.5" font-family="Helvetica,sans-Serif" font-size="10.00">_client.h</text>
</a>
</g>
</g>
<!-- Node1&#45;&gt;Node16 -->
<g id="edge18" class="edge">
<title>Node1&#45;&gt;Node16</title>
<path fill="none" stroke="midnightblue" d="M1109.09,-444.1C1136.43,-434.42 1175.07,-420.74 1203.91,-410.52"/>
<polygon fill="midnightblue" stroke="midnightblue" points="1107.83,-440.84 1099.57,-447.48 1110.17,-447.44 1107.83,-440.84"/>
</g>
<!-- Node21 -->
<g id="node21" class="node">
<title>Node21</title>
<g id="a_node21"><a xlink:href="orc__requests_8h.html" target="_top" xlink:title=" ">
<polygon fill="white" stroke="black" points="972,-380.5 972,-410.5 1091,-410.5 1091,-380.5 972,-380.5"/>
<text text-anchor="start" x="980" y="-398.5" font-family="Helvetica,sans-Serif" font-size="10.00">src/consensus/aft/orc</text>
<text text-anchor="middle" x="1031.5" y="-387.5" font-family="Helvetica,sans-Serif" font-size="10.00">_requests.h</text>
</a>
</g>
</g>
<!-- Node1&#45;&gt;Node21 -->
<g id="edge24" class="edge">
<title>Node1&#45;&gt;Node21</title>
<path fill="none" stroke="midnightblue" d="M1063.11,-439.25C1056.41,-430.19 1048.23,-419.12 1041.87,-410.52"/>
<polygon fill="midnightblue" stroke="midnightblue" points="1060.44,-441.52 1069.2,-447.48 1066.06,-437.35 1060.44,-441.52"/>
</g>
<!-- Node23 -->
<g id="node23" class="node">
<title>Node23</title>
<g id="a_node23"><a xlink:href="resharing_8h.html" target="_top" xlink:title=" ">
<polygon fill="white" stroke="black" points="1147.5,-252 1147.5,-271 1263.5,-271 1263.5,-252 1147.5,-252"/>
<text text-anchor="middle" x="1205.5" y="-259" font-family="Helvetica,sans-Serif" font-size="10.00">src/node/resharing.h</text>
</a>
</g>
</g>
<!-- Node1&#45;&gt;Node23 -->
<g id="edge30" class="edge">
<title>Node1&#45;&gt;Node23</title>
<path fill="none" stroke="midnightblue" d="M1098.74,-441.67C1110.27,-433.71 1123.78,-422.99 1133.5,-411 1171.03,-364.71 1195.1,-295.61 1202.81,-271.32"/>
<polygon fill="midnightblue" stroke="midnightblue" points="1096.8,-438.76 1090.4,-447.2 1100.67,-444.6 1096.8,-438.76"/>
</g>
<!-- Node3 -->
<g id="node3" class="node">
<title>Node3</title>
<g id="a_node3"><a xlink:href="logging_8cpp.html" target="_top" xlink:title=" ">
<polygon fill="white" stroke="black" points="317,-313.5 317,-343.5 440,-343.5 440,-313.5 317,-313.5"/>
<text text-anchor="start" x="325" y="-331.5" font-family="Helvetica,sans-Serif" font-size="10.00">samples/apps/logging</text>
<text text-anchor="middle" x="378.5" y="-320.5" font-family="Helvetica,sans-Serif" font-size="10.00">/logging.cpp</text>
</a>
</g>
</g>
<!-- Node2&#45;&gt;Node3 -->
<g id="edge2" class="edge">
<title>Node2&#45;&gt;Node3</title>
<path fill="none" stroke="midnightblue" d="M434.77,-378.93C422.53,-368.18 406.4,-354 394.54,-343.59"/>
<polygon fill="midnightblue" stroke="midnightblue" points="432.7,-381.76 442.52,-385.73 437.32,-376.5 432.7,-381.76"/>
</g>
<!-- Node4 -->
<g id="node4" class="node">
<title>Node4</title>
<g id="a_node4"><a xlink:href="nobuiltins_8cpp.html" target="_top" xlink:title=" ">
<polygon fill="white" stroke="black" points="458,-313.5 458,-343.5 593,-343.5 593,-313.5 458,-313.5"/>
<text text-anchor="start" x="466" y="-331.5" font-family="Helvetica,sans-Serif" font-size="10.00">samples/apps/nobuiltins</text>
<text text-anchor="middle" x="525.5" y="-320.5" font-family="Helvetica,sans-Serif" font-size="10.00">/nobuiltins.cpp</text>
</a>
</g>
</g>
<!-- Node2&#45;&gt;Node4 -->
<g id="edge3" class="edge">
<title>Node2&#45;&gt;Node4</title>
<path fill="none" stroke="midnightblue" d="M469.99,-378.93C482.06,-368.18 497.98,-354 509.68,-343.59"/>
<polygon fill="midnightblue" stroke="midnightblue" points="467.49,-376.47 462.35,-385.73 472.14,-381.7 467.49,-376.47"/>
</g>
<!-- Node5 -->
<g id="node5" class="node">
<title>Node5</title>
<g id="a_node5"><a xlink:href="common__endpoint__registry_8cpp.html" target="_top" xlink:title=" ">
<polygon fill="white" stroke="black" points="611.5,-313.5 611.5,-343.5 739.5,-343.5 739.5,-313.5 611.5,-313.5"/>
<text text-anchor="start" x="619.5" y="-331.5" font-family="Helvetica,sans-Serif" font-size="10.00">src/endpoints/common</text>
<text text-anchor="middle" x="675.5" y="-320.5" font-family="Helvetica,sans-Serif" font-size="10.00">_endpoint_registry.cpp</text>
</a>
</g>
</g>
<!-- Node2&#45;&gt;Node5 -->
<g id="edge4" class="edge">
<title>Node2&#45;&gt;Node5</title>
<path fill="none" stroke="midnightblue" d="M491.76,-383.06C529.57,-372.04 586.83,-355.34 627.37,-343.53"/>
<polygon fill="midnightblue" stroke="midnightblue" points="490.73,-379.71 482.11,-385.87 492.69,-386.43 490.73,-379.71"/>
</g>
<!-- Node6 -->
<g id="node6" class="node">
<title>Node6</title>
<g id="a_node6"><a xlink:href="json__handler_8cpp.html" target="_top" xlink:title=" ">
<polygon fill="white" stroke="black" points="0,-313.5 0,-343.5 105,-343.5 105,-313.5 0,-313.5"/>
<text text-anchor="start" x="8" y="-331.5" font-family="Helvetica,sans-Serif" font-size="10.00">src/endpoints/json</text>
<text text-anchor="middle" x="52.5" y="-320.5" font-family="Helvetica,sans-Serif" font-size="10.00">_handler.cpp</text>
</a>
</g>
</g>
<!-- Node2&#45;&gt;Node6 -->
<g id="edge5" class="edge">
<title>Node2&#45;&gt;Node6</title>
<path fill="none" stroke="midnightblue" d="M373.47,-384.67C304.55,-375.64 202.04,-361.09 113.5,-344 110.72,-343.46 107.88,-342.89 105.01,-342.28"/>
<polygon fill="midnightblue" stroke="midnightblue" points="373.02,-388.14 383.38,-385.96 373.92,-381.2 373.02,-388.14"/>
</g>
<!-- Node7 -->
<g id="node7" class="node">
<title>Node7</title>
<g id="a_node7"><a xlink:href="acme__challenge__server_8h.html" target="_top" xlink:title=" ">
<polygon fill="white" stroke="black" points="123,-313.5 123,-343.5 260,-343.5 260,-313.5 123,-313.5"/>
<text text-anchor="start" x="131" y="-331.5" font-family="Helvetica,sans-Serif" font-size="10.00">src/host/acme_challenge</text>
<text text-anchor="middle" x="191.5" y="-320.5" font-family="Helvetica,sans-Serif" font-size="10.00">_server.h</text>
</a>
</g>
</g>
<!-- Node2&#45;&gt;Node7 -->
<g id="edge6" class="edge">
<title>Node2&#45;&gt;Node7</title>
<path fill="none" stroke="midnightblue" d="M408.24,-383.48C364.06,-372.47 296,-355.52 247.95,-343.56"/>
<polygon fill="midnightblue" stroke="midnightblue" points="407.56,-386.92 418.11,-385.94 409.25,-380.12 407.56,-386.92"/>
</g>
<!-- Node9 -->
<g id="node9" class="node">
<title>Node9</title>
<g id="a_node9"><a xlink:href="member__frontend_8h.html" target="_top" xlink:title=" ">
<polygon fill="white" stroke="black" points="435.5,-112.5 435.5,-142.5 555.5,-142.5 555.5,-112.5 435.5,-112.5"/>
<text text-anchor="start" x="443.5" y="-130.5" font-family="Helvetica,sans-Serif" font-size="10.00">src/node/rpc/member</text>
<text text-anchor="middle" x="495.5" y="-119.5" font-family="Helvetica,sans-Serif" font-size="10.00">_frontend.h</text>
</a>
</g>
</g>
<!-- Node2&#45;&gt;Node9 -->
<g id="edge8" class="edge">
<title>Node2&#45;&gt;Node9</title>
<path fill="none" stroke="midnightblue" d="M370.92,-384.47C346.53,-377.23 322.36,-364.91 307.5,-344 299.52,-332.77 302.17,-325.7 307.5,-313 341.3,-232.46 429.32,-169.4 471.83,-142.57"/>
<polygon fill="midnightblue" stroke="midnightblue" points="370.06,-387.87 380.62,-387.1 371.88,-381.11 370.06,-387.87"/>
</g>
<!-- Node12 -->
<g id="node12" class="node">
<title>Node12</title>
<g id="a_node12"><a xlink:href="node__frontend_8h.html" target="_top" xlink:title=" ">
<polygon fill="white" stroke="black" points="757.5,-319 757.5,-338 915.5,-338 915.5,-319 757.5,-319"/>
<text text-anchor="middle" x="836.5" y="-326" font-family="Helvetica,sans-Serif" font-size="10.00">src/node/rpc/node_frontend.h</text>
</a>
</g>
</g>
<!-- Node2&#45;&gt;Node12 -->
<g id="edge11" class="edge">
<title>Node2&#45;&gt;Node12</title>
<path fill="none" stroke="midnightblue" d="M513.38,-384.19C588.8,-371.43 715.89,-349.92 786.1,-338.03"/>
<polygon fill="midnightblue" stroke="midnightblue" points="512.37,-380.82 503.1,-385.94 513.54,-387.72 512.37,-380.82"/>
</g>
<!-- Node8 -->
<g id="node8" class="node">
<title>Node8</title>
<g id="a_node8"><a xlink:href="host_2main_8cpp.html" target="_top" xlink:title=" ">
<polygon fill="white" stroke="black" points="140,-252 140,-271 243,-271 243,-252 140,-252"/>
<text text-anchor="middle" x="191.5" y="-259" font-family="Helvetica,sans-Serif" font-size="10.00">src/host/main.cpp</text>
</a>
</g>
</g>
<!-- Node7&#45;&gt;Node8 -->
<g id="edge7" class="edge">
<title>Node7&#45;&gt;Node8</title>
<path fill="none" stroke="midnightblue" d="M191.5,-303.25C191.5,-292.02 191.5,-279.38 191.5,-271.19"/>
<polygon fill="midnightblue" stroke="midnightblue" points="188,-303.4 191.5,-313.4 195,-303.4 188,-303.4"/>
</g>
<!-- Node10 -->
<g id="node10" class="node">
<title>Node10</title>
<g id="a_node10"><a xlink:href="enclave_2enclave_8h.html" target="_top" xlink:title=" ">
<polygon fill="white" stroke="black" points="772.5,-56.5 772.5,-75.5 894.5,-75.5 894.5,-56.5 772.5,-56.5"/>
<text text-anchor="middle" x="833.5" y="-63.5" font-family="Helvetica,sans-Serif" font-size="10.00">src/enclave/enclave.h</text>
</a>
</g>
</g>
<!-- Node9&#45;&gt;Node10 -->
<g id="edge9" class="edge">
<title>Node9&#45;&gt;Node10</title>
<path fill="none" stroke="midnightblue" d="M565.39,-114.2C630.99,-102.65 727.39,-85.68 784.96,-75.54"/>
<polygon fill="midnightblue" stroke="midnightblue" points="564.78,-110.75 555.54,-115.93 565.99,-117.64 564.78,-110.75"/>
</g>
<!-- Node11 -->
<g id="node11" class="node">
<title>Node11</title>
<g id="a_node11"><a xlink:href="enclave_2main_8cpp.html" target="_top" xlink:title=" ">
<polygon fill="white" stroke="black" points="773.5,-0.5 773.5,-19.5 893.5,-19.5 893.5,-0.5 773.5,-0.5"/>
<text text-anchor="middle" x="833.5" y="-7.5" font-family="Helvetica,sans-Serif" font-size="10.00">src/enclave/main.cpp</text>
</a>
</g>
</g>
<!-- Node10&#45;&gt;Node11 -->
<g id="edge10" class="edge">
<title>Node10&#45;&gt;Node11</title>
<path fill="none" stroke="midnightblue" d="M833.5,-45.8C833.5,-36.91 833.5,-26.78 833.5,-19.75"/>
<polygon fill="midnightblue" stroke="midnightblue" points="830,-46.08 833.5,-56.08 837,-46.08 830,-46.08"/>
</g>
<!-- Node12&#45;&gt;Node10 -->
<g id="edge12" class="edge">
<title>Node12&#45;&gt;Node10</title>
<path fill="none" stroke="midnightblue" d="M824.43,-310.08C818.69,-300.73 812.44,-288.74 809.5,-277 790.33,-200.47 820.29,-104.37 830.37,-75.55"/>
<polygon fill="midnightblue" stroke="midnightblue" points="821.69,-312.28 830.08,-318.75 827.56,-308.46 821.69,-312.28"/>
</g>
<!-- Node12&#45;&gt;Node13 -->
<g id="edge13" class="edge">
<title>Node12&#45;&gt;Node13</title>
<path fill="none" stroke="midnightblue" d="M848.37,-310.35C855.66,-299.82 864.88,-286.5 871.75,-276.59"/>
<polygon fill="midnightblue" stroke="midnightblue" points="845.38,-308.52 842.57,-318.73 851.14,-312.5 845.38,-308.52"/>
</g>
<!-- Node13&#45;&gt;Node14 -->
<g id="edge14" class="edge">
<title>Node13&#45;&gt;Node14</title>
<path fill="none" stroke="midnightblue" d="M919.14,-241.97C944.49,-229.48 976.75,-213.6 996.22,-204.01"/>
<polygon fill="midnightblue" stroke="midnightblue" points="917.57,-238.84 910.14,-246.4 920.66,-245.12 917.57,-238.84"/>
</g>
<!-- Node14&#45;&gt;Node10 -->
<g id="edge15" class="edge">
<title>Node14&#45;&gt;Node10</title>
<path fill="none" stroke="midnightblue" d="M985.95,-180.55C966.93,-171.14 941.4,-157.54 920.5,-143 889.55,-121.47 857.14,-90.57 842.1,-75.68"/>
<polygon fill="midnightblue" stroke="midnightblue" points="984.45,-183.72 994.97,-184.95 987.52,-177.42 984.45,-183.72"/>
</g>
<!-- Node15 -->
<g id="node15" class="node">
<title>Node15</title>
<g id="a_node15"><a xlink:href="gov__effects_8h.html" target="_top" xlink:title=" ">
<polygon fill="white" stroke="black" points="929.5,-118 929.5,-137 1073.5,-137 1073.5,-118 929.5,-118"/>
<text text-anchor="middle" x="1001.5" y="-125" font-family="Helvetica,sans-Serif" font-size="10.00">src/node/rpc/gov_effects.h</text>
</a>
</g>
</g>
<!-- Node14&#45;&gt;Node15 -->
<g id="edge16" class="edge">
<title>Node14&#45;&gt;Node15</title>
<path fill="none" stroke="midnightblue" d="M1010,-174.54C1007.72,-162.17 1004.85,-146.62 1003.09,-137.13"/>
<polygon fill="midnightblue" stroke="midnightblue" points="1006.62,-175.54 1011.88,-184.73 1013.51,-174.26 1006.62,-175.54"/>
</g>
<!-- Node15&#45;&gt;Node10 -->
<g id="edge17" class="edge">
<title>Node15&#45;&gt;Node10</title>
<path fill="none" stroke="midnightblue" d="M967.85,-114.58C935.2,-103.02 886.45,-85.75 857.53,-75.51"/>
<polygon fill="midnightblue" stroke="midnightblue" points="966.83,-117.94 977.43,-117.98 969.17,-111.34 966.83,-117.94"/>
</g>
<!-- Node17 -->
<g id="node17" class="node">
<title>Node17</title>
<g id="a_node17"><a xlink:href="perf__client_8h.html" target="_top" xlink:title=" ">
<polygon fill="white" stroke="black" points="1282,-246.5 1282,-276.5 1393,-276.5 1393,-246.5 1282,-246.5"/>
<text text-anchor="start" x="1290" y="-264.5" font-family="Helvetica,sans-Serif" font-size="10.00">src/clients/perf/perf</text>
<text text-anchor="middle" x="1337.5" y="-253.5" font-family="Helvetica,sans-Serif" font-size="10.00">_client.h</text>
</a>
</g>
</g>
<!-- Node16&#45;&gt;Node17 -->
<g id="edge19" class="edge">
<title>Node16&#45;&gt;Node17</title>
<path fill="none" stroke="midnightblue" d="M1244.55,-369.88C1246.34,-352.64 1250.93,-329.78 1262.5,-313 1273.37,-297.23 1290.91,-285.03 1306.3,-276.56"/>
<polygon fill="midnightblue" stroke="midnightblue" points="1241.02,-370.03 1243.73,-380.28 1248,-370.58 1241.02,-370.03"/>
</g>
<!-- Node20 -->
<g id="node20" class="node">
<title>Node20</title>
<g id="a_node20"><a xlink:href="timing_8h.html" target="_top" xlink:title=" ">
<polygon fill="white" stroke="black" points="1271.5,-319 1271.5,-338 1403.5,-338 1403.5,-319 1271.5,-319"/>
<text text-anchor="middle" x="1337.5" y="-326" font-family="Helvetica,sans-Serif" font-size="10.00">src/clients/perf/timing.h</text>
</a>
</g>
</g>
<!-- Node16&#45;&gt;Node20 -->
<g id="edge22" class="edge">
<title>Node16&#45;&gt;Node20</title>
<path fill="none" stroke="midnightblue" d="M1272.22,-374.64C1289.96,-362.37 1311.81,-347.26 1325.2,-338.01"/>
<polygon fill="midnightblue" stroke="midnightblue" points="1270.13,-371.83 1263.9,-380.4 1274.11,-377.59 1270.13,-371.83"/>
</g>
<!-- Node18 -->
<g id="node18" class="node">
<title>Node18</title>
<g id="a_node18"><a xlink:href="tpcc__client_8cpp.html" target="_top" xlink:title=" ">
<polygon fill="white" stroke="black" points="1350.5,-179.5 1350.5,-209.5 1466.5,-209.5 1466.5,-179.5 1350.5,-179.5"/>
<text text-anchor="start" x="1358.5" y="-197.5" font-family="Helvetica,sans-Serif" font-size="10.00">src/apps/tpcc/clients</text>
<text text-anchor="middle" x="1408.5" y="-186.5" font-family="Helvetica,sans-Serif" font-size="10.00">/tpcc_client.cpp</text>
</a>
</g>
</g>
<!-- Node17&#45;&gt;Node18 -->
<g id="edge20" class="edge">
<title>Node17&#45;&gt;Node18</title>
<path fill="none" stroke="midnightblue" d="M1360.33,-239.6C1371.05,-229.78 1383.55,-218.34 1393.12,-209.58"/>
<polygon fill="midnightblue" stroke="midnightblue" points="1357.92,-237.06 1352.91,-246.4 1362.65,-242.22 1357.92,-237.06"/>
</g>
<!-- Node19 -->
<g id="node19" class="node">
<title>Node19</title>
<g id="a_node19"><a xlink:href="scenario__perf__client_8cpp.html" target="_top" xlink:title=" ">
<polygon fill="white" stroke="black" points="1199,-179.5 1199,-209.5 1332,-209.5 1332,-179.5 1199,-179.5"/>
<text text-anchor="start" x="1207" y="-197.5" font-family="Helvetica,sans-Serif" font-size="10.00">src/clients/perf/scenario</text>
<text text-anchor="middle" x="1265.5" y="-186.5" font-family="Helvetica,sans-Serif" font-size="10.00">_perf_client.cpp</text>
</a>
</g>
</g>
<!-- Node17&#45;&gt;Node19 -->
<g id="edge21" class="edge">
<title>Node17&#45;&gt;Node19</title>
<path fill="none" stroke="midnightblue" d="M1314.35,-239.6C1303.48,-229.78 1290.8,-218.34 1281.09,-209.58"/>
<polygon fill="midnightblue" stroke="midnightblue" points="1312.11,-242.29 1321.88,-246.4 1316.8,-237.1 1312.11,-242.29"/>
</g>
<!-- Node20&#45;&gt;Node17 -->
<g id="edge23" class="edge">
<title>Node20&#45;&gt;Node17</title>
<path fill="none" stroke="midnightblue" d="M1337.5,-308.41C1337.5,-298.22 1337.5,-285.9 1337.5,-276.59"/>
<polygon fill="midnightblue" stroke="midnightblue" points="1334,-308.73 1337.5,-318.73 1341,-308.73 1334,-308.73"/>
</g>
<!-- Node21&#45;&gt;Node12 -->
<g id="edge27" class="edge">
<title>Node21&#45;&gt;Node12</title>
<path fill="none" stroke="midnightblue" d="M979.32,-377.11C941.39,-364.46 891.68,-347.89 862.02,-338.01"/>
<polygon fill="midnightblue" stroke="midnightblue" points="978.59,-380.55 989.19,-380.4 980.81,-373.91 978.59,-380.55"/>
</g>
<!-- Node22 -->
<g id="node22" class="node">
<title>Node22</title>
<g id="a_node22"><a xlink:href="raft_8h.html" target="_top" xlink:title=" ">
<polygon fill="white" stroke="black" points="962,-252 962,-271 1091,-271 1091,-252 962,-252"/>
<text text-anchor="middle" x="1026.5" y="-259" font-family="Helvetica,sans-Serif" font-size="10.00">src/consensus/aft/raft.h</text>
</a>
</g>
</g>
<!-- Node21&#45;&gt;Node22 -->
<g id="edge25" class="edge">
<title>Node21&#45;&gt;Node22</title>
<path fill="none" stroke="midnightblue" d="M1030.58,-370.32C1029.45,-340.38 1027.58,-290.91 1026.83,-271.1"/>
<polygon fill="midnightblue" stroke="midnightblue" points="1027.09,-370.51 1030.96,-380.37 1034.08,-370.25 1027.09,-370.51"/>
</g>
<!-- Node22&#45;&gt;Node14 -->
<g id="edge26" class="edge">
<title>Node22&#45;&gt;Node14</title>
<path fill="none" stroke="midnightblue" d="M1022.78,-241.91C1020.3,-229.49 1017.14,-213.72 1015.23,-204.13"/>
<polygon fill="midnightblue" stroke="midnightblue" points="1019.35,-242.61 1024.75,-251.73 1026.22,-241.24 1019.35,-242.61"/>
</g>
<!-- Node23&#45;&gt;Node14 -->
<g id="edge31" class="edge">
<title>Node23&#45;&gt;Node14</title>
<path fill="none" stroke="midnightblue" d="M1170.35,-248.6C1132.29,-235.71 1072.5,-215.47 1038.8,-204.06"/>
<polygon fill="midnightblue" stroke="midnightblue" points="1169.41,-251.98 1180,-251.87 1171.65,-245.35 1169.41,-251.98"/>
</g>
</g>
</svg>
