<?xml version="1.0" encoding="UTF-8" standalone="no"?>
<!DOCTYPE svg PUBLIC "-//W3C//DTD SVG 1.1//EN"
 "http://www.w3.org/Graphics/SVG/1.1/DTD/svg11.dtd">
<!-- Generated by graphviz version 2.43.0 (0)
 -->
<!-- Title: include/ccf/service/tables/service.h Pages: 1 -->
<svg width="2445pt" height="598pt"
 viewBox="0.00 0.00 2445.00 598.00" xmlns="http://www.w3.org/2000/svg" xmlns:xlink="http://www.w3.org/1999/xlink">
<g id="graph0" class="graph" transform="scale(1 1) rotate(0) translate(4 594)">
<title>include/ccf/service/tables/service.h</title>
<polygon fill="white" stroke="transparent" points="-4,4 -4,-594 2441,-594 2441,4 -4,4"/>
<!-- Node1 -->
<g id="node1" class="node">
<title>Node1</title>
<g id="a_node1"><a xlink:title=" ">
<polygon fill="#bfbfbf" stroke="black" points="1136.5,-559.5 1136.5,-589.5 1243.5,-589.5 1243.5,-559.5 1136.5,-559.5"/>
<text text-anchor="start" x="1144.5" y="-577.5" font-family="Helvetica,sans-Serif" font-size="10.00">include/ccf/service</text>
<text text-anchor="middle" x="1190" y="-566.5" font-family="Helvetica,sans-Serif" font-size="10.00">/tables/service.h</text>
</a>
</g>
</g>
<!-- Node2 -->
<g id="node2" class="node">
<title>Node2</title>
<g id="a_node2"><a xlink:href="historical__queries__adapter_8cpp.html" target="_top" xlink:title=" ">
<polygon fill="white" stroke="black" points="663,-492.5 663,-522.5 783,-522.5 783,-492.5 663,-492.5"/>
<text text-anchor="start" x="671" y="-510.5" font-family="Helvetica,sans-Serif" font-size="10.00">src/node/historical</text>
<text text-anchor="middle" x="723" y="-499.5" font-family="Helvetica,sans-Serif" font-size="10.00">_queries_adapter.cpp</text>
</a>
</g>
</g>
<!-- Node1&#45;&gt;Node2 -->
<g id="edge1" class="edge">
<title>Node1&#45;&gt;Node2</title>
<path fill="none" stroke="midnightblue" d="M1126.31,-566.62C1048.42,-557.9 912.68,-541.74 797,-523 792.48,-522.27 787.81,-521.46 783.12,-520.62"/>
<polygon fill="midnightblue" stroke="midnightblue" points="1126.12,-570.12 1136.44,-567.75 1126.89,-563.16 1126.12,-570.12"/>
</g>
<!-- Node3 -->
<g id="node3" class="node">
<title>Node3</title>
<g id="a_node3"><a xlink:href="node__state_8h.html" target="_top" xlink:title=" ">
<polygon fill="white" stroke="black" points="1190,-168.5 1190,-187.5 1314,-187.5 1314,-168.5 1190,-168.5"/>
<text text-anchor="middle" x="1252" y="-175.5" font-family="Helvetica,sans-Serif" font-size="10.00">src/node/node_state.h</text>
</a>
</g>
</g>
<!-- Node1&#45;&gt;Node3 -->
<g id="edge2" class="edge">
<title>Node1&#45;&gt;Node3</title>
<path fill="none" stroke="midnightblue" d="M1126.05,-564.17C1007.32,-543.65 770.07,-485.86 830,-358 869.51,-273.7 906.47,-263.02 991,-224 1054.77,-194.57 1135.36,-184.24 1190,-180.69"/>
<polygon fill="midnightblue" stroke="midnightblue" points="1125.68,-567.66 1136.12,-565.87 1126.84,-560.75 1125.68,-567.66"/>
</g>
<!-- Node7 -->
<g id="node7" class="node">
<title>Node7</title>
<g id="a_node7"><a xlink:href="frontend_8h.html" target="_top" xlink:title=" ">
<polygon fill="white" stroke="black" points="1562.5,-364 1562.5,-383 1691.5,-383 1691.5,-364 1562.5,-364"/>
<text text-anchor="middle" x="1627" y="-371" font-family="Helvetica,sans-Serif" font-size="10.00">src/node/rpc/frontend.h</text>
</a>
</g>
</g>
<!-- Node1&#45;&gt;Node7 -->
<g id="edge7" class="edge">
<title>Node1&#45;&gt;Node7</title>
<path fill="none" stroke="midnightblue" d="M1230.28,-555.16C1321.68,-513.53 1541.94,-413.24 1607.97,-383.16"/>
<polygon fill="midnightblue" stroke="midnightblue" points="1228.73,-552.02 1221.08,-559.35 1231.63,-558.39 1228.73,-552.02"/>
</g>
<!-- Node12 -->
<g id="node12" class="node">
<title>Node12</title>
<g id="a_node12"><a xlink:href="node__call__types_8h.html" target="_top" xlink:title=" ">
<polygon fill="white" stroke="black" points="1681.5,-492.5 1681.5,-522.5 1806.5,-522.5 1806.5,-492.5 1681.5,-492.5"/>
<text text-anchor="start" x="1689.5" y="-510.5" font-family="Helvetica,sans-Serif" font-size="10.00">src/node/rpc/node_call</text>
<text text-anchor="middle" x="1744" y="-499.5" font-family="Helvetica,sans-Serif" font-size="10.00">_types.h</text>
</a>
</g>
</g>
<!-- Node1&#45;&gt;Node12 -->
<g id="edge17" class="edge">
<title>Node1&#45;&gt;Node12</title>
<path fill="none" stroke="midnightblue" d="M1253.62,-566.04C1360.47,-553.5 1574.7,-528.36 1681.08,-515.88"/>
<polygon fill="midnightblue" stroke="midnightblue" points="1253.15,-562.57 1243.62,-567.21 1253.96,-569.52 1253.15,-562.57"/>
</g>
<!-- Node19 -->
<g id="node19" class="node">
<title>Node19</title>
<g id="a_node19"><a xlink:href="network__tables_8h.html" target="_top" xlink:title=" ">
<polygon fill="white" stroke="black" points="1134,-425.5 1134,-455.5 1246,-455.5 1246,-425.5 1134,-425.5"/>
<text text-anchor="start" x="1142" y="-443.5" font-family="Helvetica,sans-Serif" font-size="10.00">src/service/network</text>
<text text-anchor="middle" x="1190" y="-432.5" font-family="Helvetica,sans-Serif" font-size="10.00">_tables.h</text>
</a>
</g>
</g>
<!-- Node1&#45;&gt;Node19 -->
<g id="edge32" class="edge">
<title>Node1&#45;&gt;Node19</title>
<path fill="none" stroke="midnightblue" d="M1190,-549.02C1190,-521.51 1190,-477.79 1190,-455.52"/>
<polygon fill="midnightblue" stroke="midnightblue" points="1186.5,-549.37 1190,-559.37 1193.5,-549.37 1186.5,-549.37"/>
</g>
<!-- Node4 -->
<g id="node4" class="node">
<title>Node4</title>
<g id="a_node4"><a xlink:href="enclave_2enclave_8h.html" target="_top" xlink:title=" ">
<polygon fill="white" stroke="black" points="1291,-56.5 1291,-75.5 1413,-75.5 1413,-56.5 1291,-56.5"/>
<text text-anchor="middle" x="1352" y="-63.5" font-family="Helvetica,sans-Serif" font-size="10.00">src/enclave/enclave.h</text>
</a>
</g>
</g>
<!-- Node3&#45;&gt;Node4 -->
<g id="edge3" class="edge">
<title>Node3&#45;&gt;Node4</title>
<path fill="none" stroke="midnightblue" d="M1287.75,-164.41C1303.65,-157.17 1321.36,-146.57 1333,-132 1346.5,-115.1 1350.41,-88.91 1351.54,-75.52"/>
<polygon fill="midnightblue" stroke="midnightblue" points="1286,-161.36 1278.16,-168.49 1288.73,-167.8 1286,-161.36"/>
</g>
<!-- Node6 -->
<g id="node6" class="node">
<title>Node6</title>
<g id="a_node6"><a xlink:href="gov__effects_8h.html" target="_top" xlink:title=" ">
<polygon fill="white" stroke="black" points="1180,-112.5 1180,-131.5 1324,-131.5 1324,-112.5 1180,-112.5"/>
<text text-anchor="middle" x="1252" y="-119.5" font-family="Helvetica,sans-Serif" font-size="10.00">src/node/rpc/gov_effects.h</text>
</a>
</g>
</g>
<!-- Node3&#45;&gt;Node6 -->
<g id="edge5" class="edge">
<title>Node3&#45;&gt;Node6</title>
<path fill="none" stroke="midnightblue" d="M1252,-157.8C1252,-148.91 1252,-138.78 1252,-131.75"/>
<polygon fill="midnightblue" stroke="midnightblue" points="1248.5,-158.08 1252,-168.08 1255.5,-158.08 1248.5,-158.08"/>
</g>
<!-- Node5 -->
<g id="node5" class="node">
<title>Node5</title>
<g id="a_node5"><a xlink:href="enclave_2main_8cpp.html" target="_top" xlink:title=" ">
<polygon fill="white" stroke="black" points="1292,-0.5 1292,-19.5 1412,-19.5 1412,-0.5 1292,-0.5"/>
<text text-anchor="middle" x="1352" y="-7.5" font-family="Helvetica,sans-Serif" font-size="10.00">src/enclave/main.cpp</text>
</a>
</g>
</g>
<!-- Node4&#45;&gt;Node5 -->
<g id="edge4" class="edge">
<title>Node4&#45;&gt;Node5</title>
<path fill="none" stroke="midnightblue" d="M1352,-45.8C1352,-36.91 1352,-26.78 1352,-19.75"/>
<polygon fill="midnightblue" stroke="midnightblue" points="1348.5,-46.08 1352,-56.08 1355.5,-46.08 1348.5,-46.08"/>
</g>
<!-- Node6&#45;&gt;Node4 -->
<g id="edge6" class="edge">
<title>Node6&#45;&gt;Node4</title>
<path fill="none" stroke="midnightblue" d="M1277.09,-107.45C1295.55,-97.48 1320.1,-84.23 1335.97,-75.65"/>
<polygon fill="midnightblue" stroke="midnightblue" points="1275.2,-104.49 1268.07,-112.32 1278.53,-110.65 1275.2,-104.49"/>
</g>
<!-- Node7&#45;&gt;Node3 -->
<g id="edge8" class="edge">
<title>Node7&#45;&gt;Node3</title>
<path fill="none" stroke="midnightblue" d="M1627.65,-353.56C1627.23,-335.28 1623.7,-307.94 1608,-291 1585.37,-266.59 1369.67,-209.2 1285.45,-187.51"/>
<polygon fill="midnightblue" stroke="midnightblue" points="1624.15,-353.58 1627.59,-363.6 1631.15,-353.62 1624.15,-353.58"/>
</g>
<!-- Node8 -->
<g id="node8" class="node">
<title>Node8</title>
<g id="a_node8"><a xlink:href="member__frontend_8h.html" target="_top" xlink:title=" ">
<polygon fill="white" stroke="black" points="1781,-224.5 1781,-254.5 1901,-254.5 1901,-224.5 1781,-224.5"/>
<text text-anchor="start" x="1789" y="-242.5" font-family="Helvetica,sans-Serif" font-size="10.00">src/node/rpc/member</text>
<text text-anchor="middle" x="1841" y="-231.5" font-family="Helvetica,sans-Serif" font-size="10.00">_frontend.h</text>
</a>
</g>
</g>
<!-- Node7&#45;&gt;Node8 -->
<g id="edge9" class="edge">
<title>Node7&#45;&gt;Node8</title>
<path fill="none" stroke="midnightblue" d="M1701.75,-365.93C1760.65,-359.03 1835.93,-345.76 1855,-322 1870.55,-302.63 1858.69,-272.22 1849.36,-254.54"/>
<polygon fill="midnightblue" stroke="midnightblue" points="1701.25,-362.47 1691.71,-367.07 1702.04,-369.42 1701.25,-362.47"/>
</g>
<!-- Node9 -->
<g id="node9" class="node">
<title>Node9</title>
<g id="a_node9"><a xlink:href="node__frontend_8h.html" target="_top" xlink:title=" ">
<polygon fill="white" stroke="black" points="1655,-297 1655,-316 1813,-316 1813,-297 1655,-297"/>
<text text-anchor="middle" x="1734" y="-304" font-family="Helvetica,sans-Serif" font-size="10.00">src/node/rpc/node_frontend.h</text>
</a>
</g>
</g>
<!-- Node7&#45;&gt;Node9 -->
<g id="edge11" class="edge">
<title>Node7&#45;&gt;Node9</title>
<path fill="none" stroke="midnightblue" d="M1650.14,-358.44C1671.33,-345.57 1702.02,-326.93 1719.8,-316.13"/>
<polygon fill="midnightblue" stroke="midnightblue" points="1648.16,-355.55 1641.43,-363.73 1651.79,-361.53 1648.16,-355.55"/>
</g>
<!-- Node11 -->
<g id="node11" class="node">
<title>Node11</title>
<g id="a_node11"><a xlink:href="user__frontend_8h.html" target="_top" xlink:title=" ">
<polygon fill="white" stroke="black" points="1443.5,-297 1443.5,-316 1598.5,-316 1598.5,-297 1443.5,-297"/>
<text text-anchor="middle" x="1521" y="-304" font-family="Helvetica,sans-Serif" font-size="10.00">src/node/rpc/user_frontend.h</text>
</a>
</g>
</g>
<!-- Node7&#45;&gt;Node11 -->
<g id="edge15" class="edge">
<title>Node7&#45;&gt;Node11</title>
<path fill="none" stroke="midnightblue" d="M1604.08,-358.44C1583.08,-345.57 1552.68,-326.93 1535.07,-316.13"/>
<polygon fill="midnightblue" stroke="midnightblue" points="1602.35,-361.49 1612.7,-363.73 1606.01,-355.52 1602.35,-361.49"/>
</g>
<!-- Node8&#45;&gt;Node4 -->
<g id="edge10" class="edge">
<title>Node8&#45;&gt;Node4</title>
<path fill="none" stroke="midnightblue" d="M1831.19,-215.35C1817.35,-185.84 1789.11,-135.81 1748,-112 1692.54,-79.88 1509.98,-70.68 1413.31,-68.05"/>
<polygon fill="midnightblue" stroke="midnightblue" points="1828.02,-216.83 1835.33,-224.5 1834.4,-213.94 1828.02,-216.83"/>
</g>
<!-- Node9&#45;&gt;Node4 -->
<g id="edge12" class="edge">
<title>Node9&#45;&gt;Node4</title>
<path fill="none" stroke="midnightblue" d="M1727.01,-287.46C1715.18,-258.91 1688.73,-202.94 1651,-168 1616.99,-136.5 1605.91,-129.56 1563,-112 1514.64,-92.21 1456.33,-80.63 1413.28,-74.18"/>
<polygon fill="midnightblue" stroke="midnightblue" points="1723.86,-288.99 1730.83,-296.97 1730.35,-286.38 1723.86,-288.99"/>
</g>
<!-- Node10 -->
<g id="node10" class="node">
<title>Node10</title>
<g id="a_node10"><a xlink:href="jwt__key__auto__refresh_8h.html" target="_top" xlink:title=" ">
<polygon fill="white" stroke="black" points="1542.5,-224.5 1542.5,-254.5 1667.5,-254.5 1667.5,-224.5 1542.5,-224.5"/>
<text text-anchor="start" x="1550.5" y="-242.5" font-family="Helvetica,sans-Serif" font-size="10.00">src/node/jwt_key_auto</text>
<text text-anchor="middle" x="1605" y="-231.5" font-family="Helvetica,sans-Serif" font-size="10.00">_refresh.h</text>
</a>
</g>
</g>
<!-- Node9&#45;&gt;Node10 -->
<g id="edge13" class="edge">
<title>Node9&#45;&gt;Node10</title>
<path fill="none" stroke="midnightblue" d="M1707.89,-292.34C1686.17,-281.4 1655.33,-265.86 1633.09,-254.65"/>
<polygon fill="midnightblue" stroke="midnightblue" points="1706.36,-295.49 1716.87,-296.87 1709.51,-289.24 1706.36,-295.49"/>
</g>
<!-- Node10&#45;&gt;Node3 -->
<g id="edge14" class="edge">
<title>Node10&#45;&gt;Node3</title>
<path fill="none" stroke="midnightblue" d="M1532.44,-224.78C1530.95,-224.52 1529.47,-224.26 1528,-224 1451.37,-210.54 1362.53,-196.3 1306.79,-187.53"/>
<polygon fill="midnightblue" stroke="midnightblue" points="1531.95,-228.25 1542.41,-226.58 1533.19,-221.36 1531.95,-228.25"/>
</g>
<!-- Node11&#45;&gt;Node4 -->
<g id="edge16" class="edge">
<title>Node11&#45;&gt;Node4</title>
<path fill="none" stroke="midnightblue" d="M1592.27,-294.98C1644.1,-283.95 1701.26,-262.66 1677,-224 1617.72,-129.52 1483.75,-90.52 1407.62,-75.53"/>
<polygon fill="midnightblue" stroke="midnightblue" points="1591.45,-291.58 1582.34,-296.99 1592.84,-298.44 1591.45,-291.58"/>
</g>
<!-- Node13 -->
<g id="node13" class="node">
<title>Node13</title>
<g id="a_node13"><a xlink:href="call__types_8h.html" target="_top" xlink:title=" ">
<polygon fill="white" stroke="black" points="1918.5,-431 1918.5,-450 2055.5,-450 2055.5,-431 1918.5,-431"/>
<text text-anchor="middle" x="1987" y="-438" font-family="Helvetica,sans-Serif" font-size="10.00">src/node/rpc/call_types.h</text>
</a>
</g>
</g>
<!-- Node12&#45;&gt;Node13 -->
<g id="edge18" class="edge">
<title>Node12&#45;&gt;Node13</title>
<path fill="none" stroke="midnightblue" d="M1806.32,-489.83C1853.88,-477.11 1917.44,-460.11 1955.12,-450.03"/>
<polygon fill="midnightblue" stroke="midnightblue" points="1805.18,-486.51 1796.43,-492.48 1806.99,-493.27 1805.18,-486.51"/>
</g>
<!-- Node13&#45;&gt;Node8 -->
<g id="edge24" class="edge">
<title>Node13&#45;&gt;Node8</title>
<path fill="none" stroke="midnightblue" d="M1974.78,-422.85C1946.61,-384.45 1877.49,-290.24 1851.3,-254.53"/>
<polygon fill="midnightblue" stroke="midnightblue" points="1971.99,-424.96 1980.73,-430.95 1977.63,-420.82 1971.99,-424.96"/>
</g>
<!-- Node14 -->
<g id="node14" class="node">
<title>Node14</title>
<g id="a_node14"><a xlink:href="nobuiltins_8cpp.html" target="_top" xlink:title=" ">
<polygon fill="white" stroke="black" points="2155.5,-291.5 2155.5,-321.5 2290.5,-321.5 2290.5,-291.5 2155.5,-291.5"/>
<text text-anchor="start" x="2163.5" y="-309.5" font-family="Helvetica,sans-Serif" font-size="10.00">samples/apps/nobuiltins</text>
<text text-anchor="middle" x="2223" y="-298.5" font-family="Helvetica,sans-Serif" font-size="10.00">/nobuiltins.cpp</text>
</a>
</g>
</g>
<!-- Node13&#45;&gt;Node14 -->
<g id="edge19" class="edge">
<title>Node13&#45;&gt;Node14</title>
<path fill="none" stroke="midnightblue" d="M2065.87,-431.14C2101.04,-424.28 2141.35,-411.77 2172,-389 2195.45,-371.58 2210.67,-339.89 2217.96,-321.58"/>
<polygon fill="midnightblue" stroke="midnightblue" points="2064.83,-427.77 2055.62,-433.01 2066.09,-434.66 2064.83,-427.77"/>
</g>
<!-- Node15 -->
<g id="node15" class="node">
<title>Node15</title>
<g id="a_node15"><a xlink:href="common__endpoint__registry_8cpp.html" target="_top" xlink:title=" ">
<polygon fill="white" stroke="black" points="2309,-291.5 2309,-321.5 2437,-321.5 2437,-291.5 2309,-291.5"/>
<text text-anchor="start" x="2317" y="-309.5" font-family="Helvetica,sans-Serif" font-size="10.00">src/endpoints/common</text>
<text text-anchor="middle" x="2373" y="-298.5" font-family="Helvetica,sans-Serif" font-size="10.00">_endpoint_registry.cpp</text>
</a>
</g>
</g>
<!-- Node13&#45;&gt;Node15 -->
<g id="edge20" class="edge">
<title>Node13&#45;&gt;Node15</title>
<path fill="none" stroke="midnightblue" d="M2044.98,-429.02C2088.12,-420.42 2148.07,-406.78 2199,-389 2253.48,-369.98 2313.79,-339.44 2347.17,-321.65"/>
<polygon fill="midnightblue" stroke="midnightblue" points="2044.09,-425.63 2034.95,-430.99 2045.44,-432.49 2044.09,-425.63"/>
</g>
<!-- Node16 -->
<g id="node16" class="node">
<title>Node16</title>
<g id="a_node16"><a xlink:href="wrap_8cpp.html" target="_top" xlink:title=" ">
<polygon fill="white" stroke="black" points="371.5,-168.5 371.5,-187.5 460.5,-187.5 460.5,-168.5 371.5,-168.5"/>
<text text-anchor="middle" x="416" y="-175.5" font-family="Helvetica,sans-Serif" font-size="10.00">src/js/wrap.cpp</text>
</a>
</g>
</g>
<!-- Node13&#45;&gt;Node16 -->
<g id="edge21" class="edge">
<title>Node13&#45;&gt;Node16</title>
<path fill="none" stroke="midnightblue" d="M1908.1,-438.49C1693.42,-435.31 1109.47,-423.55 1030,-389 1005.79,-378.47 882.95,-235.11 859,-224 788.96,-191.51 558.51,-182.32 460.62,-179.86"/>
<polygon fill="midnightblue" stroke="midnightblue" points="1908.3,-442 1918.35,-438.64 1908.4,-435 1908.3,-442"/>
</g>
<!-- Node17 -->
<g id="node17" class="node">
<title>Node17</title>
<g id="a_node17"><a xlink:href="resharing_8h.html" target="_top" xlink:title=" ">
<polygon fill="white" stroke="black" points="1983,-297 1983,-316 2099,-316 2099,-297 1983,-297"/>
<text text-anchor="middle" x="2041" y="-304" font-family="Helvetica,sans-Serif" font-size="10.00">src/node/resharing.h</text>
</a>
</g>
</g>
<!-- Node13&#45;&gt;Node17 -->
<g id="edge22" class="edge">
<title>Node13&#45;&gt;Node17</title>
<path fill="none" stroke="midnightblue" d="M1989.39,-420.32C1991.98,-403.38 1997,-378.29 2006,-358 2013.09,-342.01 2025.46,-325.78 2033.44,-316.18"/>
<polygon fill="midnightblue" stroke="midnightblue" points="1985.87,-420.2 1987.97,-430.59 1992.8,-421.16 1985.87,-420.2"/>
</g>
<!-- Node18 -->
<g id="node18" class="node">
<title>Node18</title>
<g id="a_node18"><a xlink:href="serialization_8h.html" target="_top" xlink:title=" ">
<polygon fill="white" stroke="black" points="2015,-364 2015,-383 2163,-383 2163,-364 2015,-364"/>
<text text-anchor="middle" x="2089" y="-371" font-family="Helvetica,sans-Serif" font-size="10.00">src/node/rpc/serialization.h</text>
</a>
</g>
</g>
<!-- Node13&#45;&gt;Node18 -->
<g id="edge25" class="edge">
<title>Node13&#45;&gt;Node18</title>
<path fill="none" stroke="midnightblue" d="M2009.33,-425.27C2029.52,-412.4 2058.59,-393.88 2075.46,-383.13"/>
<polygon fill="midnightblue" stroke="midnightblue" points="2007.31,-422.41 2000.76,-430.73 2011.07,-428.31 2007.31,-422.41"/>
</g>
<!-- Node17&#45;&gt;Node3 -->
<g id="edge23" class="edge">
<title>Node17&#45;&gt;Node3</title>
<path fill="none" stroke="midnightblue" d="M2023.17,-290.37C1999.22,-271.04 1954.49,-238.37 1910,-224 1800.29,-188.57 1456.03,-181.03 1314.11,-179.43"/>
<polygon fill="midnightblue" stroke="midnightblue" points="2021.07,-293.17 2031.02,-296.83 2025.52,-287.77 2021.07,-293.17"/>
</g>
<!-- Node18&#45;&gt;Node3 -->
<g id="edge28" class="edge">
<title>Node18&#45;&gt;Node3</title>
<path fill="none" stroke="midnightblue" d="M2100.18,-355.29C2109.98,-337.81 2120.84,-310.58 2108,-291 2067.08,-228.57 2026.55,-241.54 1954,-224 1833.44,-194.86 1462.24,-183.63 1314.04,-180.24"/>
<polygon fill="midnightblue" stroke="midnightblue" points="2097.16,-353.52 2094.99,-363.89 2103.15,-357.13 2097.16,-353.52"/>
</g>
<!-- Node18&#45;&gt;Node8 -->
<g id="edge30" class="edge">
<title>Node18&#45;&gt;Node8</title>
<path fill="none" stroke="midnightblue" d="M2056.33,-360.29C2032.81,-351 2000.67,-337.24 1974,-322 1953.55,-310.31 1950.86,-303.67 1931,-291 1910.31,-277.8 1885.99,-264.26 1867.85,-254.53"/>
<polygon fill="midnightblue" stroke="midnightblue" points="2055.25,-363.63 2065.84,-363.99 2057.79,-357.11 2055.25,-363.63"/>
</g>
<!-- Node18&#45;&gt;Node9 -->
<g id="edge31" class="edge">
<title>Node18&#45;&gt;Node9</title>
<path fill="none" stroke="midnightblue" d="M2032.29,-362.12C1962.51,-349.34 1845.37,-327.89 1780.6,-316.03"/>
<polygon fill="midnightblue" stroke="midnightblue" points="2031.76,-365.58 2042.22,-363.94 2033.02,-358.69 2031.76,-365.58"/>
</g>
<!-- Node18&#45;&gt;Node14 -->
<g id="edge26" class="edge">
<title>Node18&#45;&gt;Node14</title>
<path fill="none" stroke="midnightblue" d="M2115.85,-359.47C2138.51,-348.49 2170.86,-332.79 2194.08,-321.53"/>
<polygon fill="midnightblue" stroke="midnightblue" points="2114.26,-356.35 2106.79,-363.87 2117.32,-362.65 2114.26,-356.35"/>
</g>
<!-- Node18&#45;&gt;Node15 -->
<g id="edge27" class="edge">
<title>Node18&#45;&gt;Node15</title>
<path fill="none" stroke="midnightblue" d="M2136.25,-361.69C2184.3,-350.69 2258.96,-333.6 2311.57,-321.56"/>
<polygon fill="midnightblue" stroke="midnightblue" points="2135.39,-358.29 2126.42,-363.94 2136.95,-365.12 2135.39,-358.29"/>
</g>
<!-- Node18&#45;&gt;Node17 -->
<g id="edge29" class="edge">
<title>Node18&#45;&gt;Node17</title>
<path fill="none" stroke="midnightblue" d="M2076.38,-355.4C2067.05,-342.77 2054.74,-326.1 2047.37,-316.13"/>
<polygon fill="midnightblue" stroke="midnightblue" points="2073.77,-357.77 2082.53,-363.73 2079.4,-353.61 2073.77,-357.77"/>
</g>
<!-- Node20 -->
<g id="node20" class="node">
<title>Node20</title>
<g id="a_node20"><a xlink:href="kv__module__loader_8cpp.html" target="_top" xlink:title=" ">
<polygon fill="white" stroke="black" points="839.5,-358.5 839.5,-388.5 982.5,-388.5 982.5,-358.5 839.5,-358.5"/>
<text text-anchor="start" x="847.5" y="-376.5" font-family="Helvetica,sans-Serif" font-size="10.00">src/apps/js_v8/kv_module</text>
<text text-anchor="middle" x="911" y="-365.5" font-family="Helvetica,sans-Serif" font-size="10.00">_loader.cpp</text>
</a>
</g>
</g>
<!-- Node19&#45;&gt;Node20 -->
<g id="edge33" class="edge">
<title>Node19&#45;&gt;Node20</title>
<path fill="none" stroke="midnightblue" d="M1123.95,-424.11C1077.68,-413.33 1016.34,-399.04 971.38,-388.57"/>
<polygon fill="midnightblue" stroke="midnightblue" points="1123.34,-427.56 1133.88,-426.42 1124.93,-420.75 1123.34,-427.56"/>
</g>
<!-- Node21 -->
<g id="node21" class="node">
<title>Node21</title>
<g id="a_node21"><a xlink:href="ccf__acme__client_8h.html" target="_top" xlink:title=" ">
<polygon fill="white" stroke="black" points="1197.5,-364 1197.5,-383 1346.5,-383 1346.5,-364 1197.5,-364"/>
<text text-anchor="middle" x="1272" y="-371" font-family="Helvetica,sans-Serif" font-size="10.00">src/node/ccf_acme_client.h</text>
</a>
</g>
</g>
<!-- Node19&#45;&gt;Node21 -->
<g id="edge34" class="edge">
<title>Node19&#45;&gt;Node21</title>
<path fill="none" stroke="midnightblue" d="M1215.85,-419.01C1231.07,-406.94 1249.54,-392.3 1261.03,-383.19"/>
<polygon fill="midnightblue" stroke="midnightblue" points="1213.46,-416.44 1207.79,-425.4 1217.8,-421.93 1213.46,-416.44"/>
</g>
<!-- Node22 -->
<g id="node22" class="node">
<title>Node22</title>
<g id="a_node22"><a xlink:href="network__state_8h.html" target="_top" xlink:title=" ">
<polygon fill="white" stroke="black" points="1039,-364 1039,-383 1179,-383 1179,-364 1039,-364"/>
<text text-anchor="middle" x="1109" y="-371" font-family="Helvetica,sans-Serif" font-size="10.00">src/node/network_state.h</text>
</a>
</g>
</g>
<!-- Node19&#45;&gt;Node22 -->
<g id="edge36" class="edge">
<title>Node19&#45;&gt;Node22</title>
<path fill="none" stroke="midnightblue" d="M1164.46,-419.01C1149.43,-406.94 1131.19,-392.3 1119.83,-383.19"/>
<polygon fill="midnightblue" stroke="midnightblue" points="1162.43,-421.87 1172.42,-425.4 1166.82,-416.41 1162.43,-421.87"/>
</g>
<!-- Node33 -->
<g id="node33" class="node">
<title>Node33</title>
<g id="a_node33"><a xlink:href="genesis__gen_8h.html" target="_top" xlink:title=" ">
<polygon fill="white" stroke="black" points="1365,-358.5 1365,-388.5 1475,-388.5 1475,-358.5 1365,-358.5"/>
<text text-anchor="start" x="1373" y="-376.5" font-family="Helvetica,sans-Serif" font-size="10.00">src/service/genesis</text>
<text text-anchor="middle" x="1420" y="-365.5" font-family="Helvetica,sans-Serif" font-size="10.00">_gen.h</text>
</a>
</g>
</g>
<!-- Node19&#45;&gt;Node33 -->
<g id="edge63" class="edge">
<title>Node19&#45;&gt;Node33</title>
<path fill="none" stroke="midnightblue" d="M1249.39,-422.71C1286.82,-412.14 1334.6,-398.63 1370.07,-388.61"/>
<polygon fill="midnightblue" stroke="midnightblue" points="1248.29,-419.39 1239.62,-425.48 1250.2,-426.12 1248.29,-419.39"/>
</g>
<!-- Node21&#45;&gt;Node3 -->
<g id="edge35" class="edge">
<title>Node21&#45;&gt;Node3</title>
<path fill="none" stroke="midnightblue" d="M1257.04,-355.79C1249.76,-346.53 1241.79,-334.41 1238,-322 1225.28,-280.34 1231.46,-267.06 1238,-224 1239.97,-211.06 1244.94,-196.72 1248.4,-187.78"/>
<polygon fill="midnightblue" stroke="midnightblue" points="1254.54,-358.26 1263.64,-363.7 1259.92,-353.78 1254.54,-358.26"/>
</g>
<!-- Node22&#45;&gt;Node3 -->
<g id="edge53" class="edge">
<title>Node22&#45;&gt;Node3</title>
<path fill="none" stroke="midnightblue" d="M1066.79,-360.36C1047.68,-352.6 1026.78,-340.43 1015,-322 991.52,-285.27 983.15,-257.53 1011,-224 1033.33,-197.11 1126.22,-186.2 1189.93,-181.84"/>
<polygon fill="midnightblue" stroke="midnightblue" points="1065.68,-363.69 1076.27,-363.93 1068.15,-357.13 1065.68,-363.69"/>
</g>
<!-- Node22&#45;&gt;Node4 -->
<g id="edge37" class="edge">
<title>Node22&#45;&gt;Node4</title>
<path fill="none" stroke="midnightblue" d="M1033.9,-362.73C1019.66,-361.03 1004.88,-359.37 991,-358 880.65,-347.1 0,-351.38 0,-240.5 0,-240.5 0,-240.5 0,-177 0,-111.32 1027.05,-76.57 1290.84,-68.73"/>
<polygon fill="midnightblue" stroke="midnightblue" points="1033.79,-366.24 1044.14,-363.97 1034.64,-359.29 1033.79,-366.24"/>
</g>
<!-- Node22&#45;&gt;Node9 -->
<g id="edge54" class="edge">
<title>Node22&#45;&gt;Node9</title>
<path fill="none" stroke="midnightblue" d="M1161.07,-362.21C1170.03,-360.65 1179.26,-359.17 1188,-358 1373.68,-333.06 1421.59,-340.71 1608,-322 1625.86,-320.21 1645.11,-318.09 1663.07,-316.03"/>
<polygon fill="midnightblue" stroke="midnightblue" points="1160.33,-358.79 1151.11,-364 1161.57,-365.68 1160.33,-358.79"/>
</g>
<!-- Node22&#45;&gt;Node11 -->
<g id="edge55" class="edge">
<title>Node22&#45;&gt;Node11</title>
<path fill="none" stroke="midnightblue" d="M1164.1,-362.12C1172.11,-360.69 1180.26,-359.27 1188,-358 1297.46,-339.98 1325.41,-339.22 1435,-322 1446.82,-320.14 1459.53,-318.05 1471.46,-316.05"/>
<polygon fill="midnightblue" stroke="midnightblue" points="1163.29,-358.71 1154.07,-363.93 1164.53,-365.6 1163.29,-358.71"/>
</g>
<!-- Node23 -->
<g id="node23" class="node">
<title>Node23</title>
<g id="a_node23"><a xlink:href="wrap_8h.html" target="_top" xlink:title=" ">
<polygon fill="white" stroke="black" points="519,-297 519,-316 597,-316 597,-297 519,-297"/>
<text text-anchor="middle" x="558" y="-304" font-family="Helvetica,sans-Serif" font-size="10.00">src/js/wrap.h</text>
</a>
</g>
</g>
<!-- Node22&#45;&gt;Node23 -->
<g id="edge38" class="edge">
<title>Node22&#45;&gt;Node23</title>
<path fill="none" stroke="midnightblue" d="M1030.4,-362.77C1017.25,-361.16 1003.74,-359.53 991,-358 845.78,-340.61 673.06,-320.7 597.12,-311.98"/>
<polygon fill="midnightblue" stroke="midnightblue" points="1030.02,-366.25 1040.37,-363.99 1030.87,-359.3 1030.02,-366.25"/>
</g>
<!-- Node30 -->
<g id="node30" class="node">
<title>Node30</title>
<g id="a_node30"><a xlink:href="secret__broadcast_8h.html" target="_top" xlink:title=" ">
<polygon fill="white" stroke="black" points="1032.5,-297 1032.5,-316 1185.5,-316 1185.5,-297 1032.5,-297"/>
<text text-anchor="middle" x="1109" y="-304" font-family="Helvetica,sans-Serif" font-size="10.00">src/node/secret_broadcast.h</text>
</a>
</g>
</g>
<!-- Node22&#45;&gt;Node30 -->
<g id="edge56" class="edge">
<title>Node22&#45;&gt;Node30</title>
<path fill="none" stroke="midnightblue" d="M1109,-353.54C1109,-341.17 1109,-325.62 1109,-316.13"/>
<polygon fill="midnightblue" stroke="midnightblue" points="1105.5,-353.73 1109,-363.73 1112.5,-353.73 1105.5,-353.73"/>
</g>
<!-- Node31 -->
<g id="node31" class="node">
<title>Node31</title>
<g id="a_node31"><a xlink:href="share__manager_8h.html" target="_top" xlink:title=" ">
<polygon fill="white" stroke="black" points="1280.5,-297 1280.5,-316 1425.5,-316 1425.5,-297 1280.5,-297"/>
<text text-anchor="middle" x="1353" y="-304" font-family="Helvetica,sans-Serif" font-size="10.00">src/node/share_manager.h</text>
</a>
</g>
</g>
<!-- Node22&#45;&gt;Node31 -->
<g id="edge58" class="edge">
<title>Node22&#45;&gt;Node31</title>
<path fill="none" stroke="midnightblue" d="M1150.96,-361.32C1199.13,-348.49 1277.13,-327.71 1320.78,-316.08"/>
<polygon fill="midnightblue" stroke="midnightblue" points="1149.91,-357.98 1141.15,-363.94 1151.71,-364.74 1149.91,-357.98"/>
</g>
<!-- Node32 -->
<g id="node32" class="node">
<title>Node32</title>
<g id="a_node32"><a xlink:href="snapshotter_8h.html" target="_top" xlink:title=" ">
<polygon fill="white" stroke="black" points="1020.5,-230 1020.5,-249 1147.5,-249 1147.5,-230 1020.5,-230"/>
<text text-anchor="middle" x="1084" y="-237" font-family="Helvetica,sans-Serif" font-size="10.00">src/node/snapshotter.h</text>
</a>
</g>
</g>
<!-- Node22&#45;&gt;Node32 -->
<g id="edge61" class="edge">
<title>Node22&#45;&gt;Node32</title>
<path fill="none" stroke="midnightblue" d="M1070.25,-359.95C1052.53,-352.04 1033.23,-339.88 1023,-322 1016.16,-310.04 1017.14,-303.47 1023,-291 1032.01,-271.84 1052.26,-257.46 1066.96,-249.04"/>
<polygon fill="midnightblue" stroke="midnightblue" points="1069.29,-363.34 1079.87,-363.91 1071.96,-356.87 1069.29,-363.34"/>
</g>
<!-- Node23&#45;&gt;Node3 -->
<g id="edge51" class="edge">
<title>Node23&#45;&gt;Node3</title>
<path fill="none" stroke="midnightblue" d="M606.99,-300.32C667.1,-293.28 771.77,-278.76 859,-255 896.19,-244.87 902.69,-233.7 940,-224 1025.14,-201.86 1126.38,-189.78 1189.93,-183.86"/>
<polygon fill="midnightblue" stroke="midnightblue" points="606.55,-296.85 597.02,-301.47 607.35,-303.8 606.55,-296.85"/>
</g>
<!-- Node23&#45;&gt;Node4 -->
<g id="edge40" class="edge">
<title>Node23&#45;&gt;Node4</title>
<path fill="none" stroke="midnightblue" d="M508.61,-304.2C388.16,-300.54 86.95,-288.12 57,-255 47.76,-244.78 48.18,-234.59 57,-224 137.14,-127.81 1045.03,-80.65 1290.91,-69.59"/>
<polygon fill="midnightblue" stroke="midnightblue" points="508.57,-307.71 518.67,-304.5 508.78,-300.71 508.57,-307.71"/>
</g>
<!-- Node23&#45;&gt;Node8 -->
<g id="edge52" class="edge">
<title>Node23&#45;&gt;Node8</title>
<path fill="none" stroke="midnightblue" d="M607.44,-304.03C764.16,-299.2 1263.97,-282.57 1677,-255 1711.37,-252.71 1749.72,-249.36 1780.69,-246.46"/>
<polygon fill="midnightblue" stroke="midnightblue" points="607.07,-300.54 597.18,-304.34 607.28,-307.54 607.07,-300.54"/>
</g>
<!-- Node23&#45;&gt;Node16 -->
<g id="edge50" class="edge">
<title>Node23&#45;&gt;Node16</title>
<path fill="none" stroke="midnightblue" d="M558.47,-286.46C557.9,-268.29 554.24,-241.22 539,-224 519.11,-201.53 487.03,-190.26 460.62,-184.63"/>
<polygon fill="midnightblue" stroke="midnightblue" points="554.97,-286.69 558.5,-296.68 561.97,-286.67 554.97,-286.69"/>
</g>
<!-- Node24 -->
<g id="node24" class="node">
<title>Node24</title>
<g id="a_node24"><a xlink:href="js__generic__base_8cpp.html" target="_top" xlink:title=" ">
<polygon fill="white" stroke="black" points="586,-224.5 586,-254.5 704,-254.5 704,-224.5 586,-224.5"/>
<text text-anchor="start" x="594" y="-242.5" font-family="Helvetica,sans-Serif" font-size="10.00">src/apps/js_generic</text>
<text text-anchor="middle" x="645" y="-231.5" font-family="Helvetica,sans-Serif" font-size="10.00">/js_generic_base.cpp</text>
</a>
</g>
</g>
<!-- Node23&#45;&gt;Node24 -->
<g id="edge39" class="edge">
<title>Node23&#45;&gt;Node24</title>
<path fill="none" stroke="midnightblue" d="M578.02,-290.54C592.5,-279.73 611.94,-265.2 626.14,-254.59"/>
<polygon fill="midnightblue" stroke="midnightblue" points="575.65,-287.94 569.73,-296.73 579.84,-293.55 575.65,-287.94"/>
</g>
<!-- Node25 -->
<g id="node25" class="node">
<title>Node25</title>
<g id="a_node25"><a xlink:href="js_2consensus_8cpp.html" target="_top" xlink:title=" ">
<polygon fill="white" stroke="black" points="66,-230 66,-249 182,-249 182,-230 66,-230"/>
<text text-anchor="middle" x="124" y="-237" font-family="Helvetica,sans-Serif" font-size="10.00">src/js/consensus.cpp</text>
</a>
</g>
</g>
<!-- Node23&#45;&gt;Node25 -->
<g id="edge41" class="edge">
<title>Node23&#45;&gt;Node25</title>
<path fill="none" stroke="midnightblue" d="M508.79,-299.94C438.19,-291.69 304.18,-275 191,-255 181.27,-253.28 170.81,-251.15 161.11,-249.06"/>
<polygon fill="midnightblue" stroke="midnightblue" points="508.4,-303.42 518.74,-301.1 509.21,-296.47 508.4,-303.42"/>
</g>
<!-- Node26 -->
<g id="node26" class="node">
<title>Node26</title>
<g id="a_node26"><a xlink:href="conv_8cpp.html" target="_top" xlink:title=" ">
<polygon fill="white" stroke="black" points="314,-230 314,-249 402,-249 402,-230 314,-230"/>
<text text-anchor="middle" x="358" y="-237" font-family="Helvetica,sans-Serif" font-size="10.00">src/js/conv.cpp</text>
</a>
</g>
</g>
<!-- Node23&#45;&gt;Node26 -->
<g id="edge43" class="edge">
<title>Node23&#45;&gt;Node26</title>
<path fill="none" stroke="midnightblue" d="M521.89,-293.77C482.27,-280.89 419.6,-260.52 384.35,-249.06"/>
<polygon fill="midnightblue" stroke="midnightblue" points="520.85,-297.11 531.44,-296.87 523.01,-290.45 520.85,-297.11"/>
</g>
<!-- Node27 -->
<g id="node27" class="node">
<title>Node27</title>
<g id="a_node27"><a xlink:href="js_2crypto_8cpp.html" target="_top" xlink:title=" ">
<polygon fill="white" stroke="black" points="200,-230 200,-249 296,-249 296,-230 200,-230"/>
<text text-anchor="middle" x="248" y="-237" font-family="Helvetica,sans-Serif" font-size="10.00">src/js/crypto.cpp</text>
</a>
</g>
</g>
<!-- Node23&#45;&gt;Node27 -->
<g id="edge45" class="edge">
<title>Node23&#45;&gt;Node27</title>
<path fill="none" stroke="midnightblue" d="M508.75,-296.46C457.65,-286.89 375.49,-270.99 305,-255 297.03,-253.19 288.48,-251.1 280.48,-249.07"/>
<polygon fill="midnightblue" stroke="midnightblue" points="508.39,-299.95 518.86,-298.34 509.67,-293.07 508.39,-299.95"/>
</g>
<!-- Node28 -->
<g id="node28" class="node">
<title>Node28</title>
<g id="a_node28"><a xlink:href="js_2historical_8cpp.html" target="_top" xlink:title=" ">
<polygon fill="white" stroke="black" points="420,-230 420,-249 530,-249 530,-230 420,-230"/>
<text text-anchor="middle" x="475" y="-237" font-family="Helvetica,sans-Serif" font-size="10.00">src/js/historical.cpp</text>
</a>
</g>
</g>
<!-- Node23&#45;&gt;Node28 -->
<g id="edge47" class="edge">
<title>Node23&#45;&gt;Node28</title>
<path fill="none" stroke="midnightblue" d="M538.93,-290.57C522.55,-277.74 499.5,-259.69 486.02,-249.13"/>
<polygon fill="midnightblue" stroke="midnightblue" points="536.78,-293.32 546.81,-296.73 541.09,-287.81 536.78,-293.32"/>
</g>
<!-- Node29 -->
<g id="node29" class="node">
<title>Node29</title>
<g id="a_node29"><a xlink:href="openenclave_8cpp.html" target="_top" xlink:title=" ">
<polygon fill="white" stroke="black" points="722,-230 722,-249 850,-249 850,-230 722,-230"/>
<text text-anchor="middle" x="786" y="-237" font-family="Helvetica,sans-Serif" font-size="10.00">src/js/openenclave.cpp</text>
</a>
</g>
</g>
<!-- Node23&#45;&gt;Node29 -->
<g id="edge49" class="edge">
<title>Node23&#45;&gt;Node29</title>
<path fill="none" stroke="midnightblue" d="M598.02,-294.09C643.12,-281.23 715.43,-260.62 755.96,-249.06"/>
<polygon fill="midnightblue" stroke="midnightblue" points="596.93,-290.76 588.28,-296.87 598.85,-297.49 596.93,-290.76"/>
</g>
<!-- Node25&#45;&gt;Node16 -->
<g id="edge42" class="edge">
<title>Node25&#45;&gt;Node16</title>
<path fill="none" stroke="midnightblue" d="M173.03,-227.8C179.08,-226.5 185.18,-225.21 191,-224 253.98,-210.89 327.05,-196.41 372.4,-187.51"/>
<polygon fill="midnightblue" stroke="midnightblue" points="171.99,-224.44 162.95,-229.96 173.46,-231.28 171.99,-224.44"/>
</g>
<!-- Node26&#45;&gt;Node16 -->
<g id="edge44" class="edge">
<title>Node26&#45;&gt;Node16</title>
<path fill="none" stroke="midnightblue" d="M373.6,-222.5C384.58,-211.24 398.84,-196.6 407.71,-187.51"/>
<polygon fill="midnightblue" stroke="midnightblue" points="370.78,-220.37 366.31,-229.98 375.8,-225.26 370.78,-220.37"/>
</g>
<!-- Node27&#45;&gt;Node16 -->
<g id="edge46" class="edge">
<title>Node27&#45;&gt;Node16</title>
<path fill="none" stroke="midnightblue" d="M281.65,-226.58C314.3,-215.02 363.05,-197.75 391.97,-187.51"/>
<polygon fill="midnightblue" stroke="midnightblue" points="280.33,-223.34 272.07,-229.98 282.67,-229.94 280.33,-223.34"/>
</g>
<!-- Node28&#45;&gt;Node16 -->
<g id="edge48" class="edge">
<title>Node28&#45;&gt;Node16</title>
<path fill="none" stroke="midnightblue" d="M459.46,-222.82C448.25,-211.52 433.54,-196.69 424.44,-187.51"/>
<polygon fill="midnightblue" stroke="midnightblue" points="457.02,-225.34 466.55,-229.98 461.99,-220.41 457.02,-225.34"/>
</g>
<!-- Node30&#45;&gt;Node3 -->
<g id="edge57" class="edge">
<title>Node30&#45;&gt;Node3</title>
<path fill="none" stroke="midnightblue" d="M1126.02,-290.1C1144.24,-273.65 1174.05,-246.85 1200,-224 1214.52,-211.22 1231.48,-196.59 1241.99,-187.58"/>
<polygon fill="midnightblue" stroke="midnightblue" points="1123.59,-287.58 1118.52,-296.88 1128.28,-292.77 1123.59,-287.58"/>
</g>
<!-- Node31&#45;&gt;Node3 -->
<g id="edge59" class="edge">
<title>Node31&#45;&gt;Node3</title>
<path fill="none" stroke="midnightblue" d="M1339.81,-288.97C1318.12,-261.82 1275.69,-208.67 1258.99,-187.76"/>
<polygon fill="midnightblue" stroke="midnightblue" points="1337.08,-291.17 1346.06,-296.81 1342.55,-286.81 1337.08,-291.17"/>
</g>
<!-- Node31&#45;&gt;Node8 -->
<g id="edge60" class="edge">
<title>Node31&#45;&gt;Node8</title>
<path fill="none" stroke="midnightblue" d="M1408.98,-295.21C1417.68,-293.72 1426.57,-292.27 1435,-291 1557.39,-272.58 1701.27,-255.84 1780.68,-247.02"/>
<polygon fill="midnightblue" stroke="midnightblue" points="1408.16,-291.8 1398.9,-296.96 1409.35,-298.69 1408.16,-291.8"/>
</g>
<!-- Node32&#45;&gt;Node3 -->
<g id="edge62" class="edge">
<title>Node32&#45;&gt;Node3</title>
<path fill="none" stroke="midnightblue" d="M1117.65,-226.58C1150.3,-215.02 1199.05,-197.75 1227.97,-187.51"/>
<polygon fill="midnightblue" stroke="midnightblue" points="1116.33,-223.34 1108.07,-229.98 1118.67,-229.94 1116.33,-223.34"/>
</g>
<!-- Node33&#45;&gt;Node3 -->
<g id="edge64" class="edge">
<title>Node33&#45;&gt;Node3</title>
<path fill="none" stroke="midnightblue" d="M1354.91,-357.67C1320.13,-348.39 1282.22,-335.64 1271,-322 1237.76,-281.57 1246.13,-211.84 1250.32,-187.6"/>
<polygon fill="midnightblue" stroke="midnightblue" points="1354.05,-361.06 1364.61,-360.19 1355.81,-354.29 1354.05,-361.06"/>
</g>
<!-- Node33&#45;&gt;Node8 -->
<g id="edge65" class="edge">
<title>Node33&#45;&gt;Node8</title>
<path fill="none" stroke="midnightblue" d="M1485.46,-365.24C1597.77,-352.65 1815.8,-327.59 1822,-322 1840.89,-304.98 1842.83,-273.15 1842.17,-254.7"/>
<polygon fill="midnightblue" stroke="midnightblue" points="1484.81,-361.79 1475.26,-366.38 1485.58,-368.75 1484.81,-361.79"/>
</g>
<!-- Node33&#45;&gt;Node9 -->
<g id="edge66" class="edge">
<title>Node33&#45;&gt;Node9</title>
<path fill="none" stroke="midnightblue" d="M1485.18,-359.01C1547.52,-346.1 1639.65,-327.03 1692.56,-316.08"/>
<polygon fill="midnightblue" stroke="midnightblue" points="1484.14,-355.65 1475.05,-361.1 1485.56,-362.5 1484.14,-355.65"/>
</g>
<!-- Node33&#45;&gt;Node30 -->
<g id="edge67" class="edge">
<title>Node33&#45;&gt;Node30</title>
<path fill="none" stroke="midnightblue" d="M1354.73,-357.96C1277.05,-341.38 1198.8,-325.5 1151.71,-316.04"/>
<polygon fill="midnightblue" stroke="midnightblue" points="1354.18,-361.43 1364.7,-360.1 1355.65,-354.58 1354.18,-361.43"/>
</g>
<!-- Node33&#45;&gt;Node31 -->
<g id="edge68" class="edge">
<title>Node33&#45;&gt;Node31</title>
<path fill="none" stroke="midnightblue" d="M1398.18,-351.34C1385.88,-339.4 1371.18,-325.14 1361.96,-316.19"/>
<polygon fill="midnightblue" stroke="midnightblue" points="1395.85,-353.94 1405.46,-358.4 1400.72,-348.92 1395.85,-353.94"/>
</g>
</g>
</svg>
