<?xml version="1.0" encoding="UTF-8" standalone="no"?>
<!DOCTYPE svg PUBLIC "-//W3C//DTD SVG 1.1//EN"
 "http://www.w3.org/Graphics/SVG/1.1/DTD/svg11.dtd">
<!-- Generated by graphviz version 2.43.0 (0)
 -->
<!-- Title: src/service/tables/signatures.h Pages: 1 -->
<svg width="2425pt" height="654pt"
 viewBox="0.00 0.00 2425.22 654.00" xmlns="http://www.w3.org/2000/svg" xmlns:xlink="http://www.w3.org/1999/xlink">
<g id="graph0" class="graph" transform="scale(1 1) rotate(0) translate(4 650)">
<title>src/service/tables/signatures.h</title>
<polygon fill="white" stroke="transparent" points="-4,4 -4,-650 2421.22,-650 2421.22,4 -4,4"/>
<!-- Node1 -->
<g id="node1" class="node">
<title>Node1</title>
<g id="a_node1"><a xlink:title=" ">
<polygon fill="#bfbfbf" stroke="black" points="620.22,-615.5 620.22,-645.5 722.22,-645.5 722.22,-615.5 620.22,-615.5"/>
<text text-anchor="start" x="628.22" y="-633.5" font-family="Helvetica,sans-Serif" font-size="10.00">src/service/tables</text>
<text text-anchor="middle" x="671.22" y="-622.5" font-family="Helvetica,sans-Serif" font-size="10.00">/signatures.h</text>
</a>
</g>
</g>
<!-- Node2 -->
<g id="node2" class="node">
<title>Node2</title>
<g id="a_node2"><a xlink:href="raft_8h.html" target="_top" xlink:title=" ">
<polygon fill="white" stroke="black" points="195.72,-503.5 195.72,-522.5 324.72,-522.5 324.72,-503.5 195.72,-503.5"/>
<text text-anchor="middle" x="260.22" y="-510.5" font-family="Helvetica,sans-Serif" font-size="10.00">src/consensus/aft/raft.h</text>
</a>
</g>
</g>
<!-- Node1&#45;&gt;Node2 -->
<g id="edge1" class="edge">
<title>Node1&#45;&gt;Node2</title>
<path fill="none" stroke="midnightblue" d="M611.55,-612.73C522.57,-587.73 358.32,-541.57 290.62,-522.54"/>
<polygon fill="midnightblue" stroke="midnightblue" points="610.66,-616.12 621.23,-615.45 612.55,-609.38 610.66,-616.12"/>
</g>
<!-- Node7 -->
<g id="node7" class="node">
<title>Node7</title>
<g id="a_node7"><a xlink:href="deserialise_8h.html" target="_top" xlink:title=" ">
<polygon fill="white" stroke="black" points="740.72,-559.5 740.72,-578.5 851.72,-578.5 851.72,-559.5 740.72,-559.5"/>
<text text-anchor="middle" x="796.22" y="-566.5" font-family="Helvetica,sans-Serif" font-size="10.00">src/kv/deserialise.h</text>
</a>
</g>
</g>
<!-- Node1&#45;&gt;Node7 -->
<g id="edge7" class="edge">
<title>Node1&#45;&gt;Node7</title>
<path fill="none" stroke="midnightblue" d="M709.91,-611.08C732.61,-600.28 760.25,-587.12 778.03,-578.66"/>
<polygon fill="midnightblue" stroke="midnightblue" points="708.37,-607.94 700.84,-615.4 711.38,-614.26 708.37,-607.94"/>
</g>
<!-- Node13 -->
<g id="node13" class="node">
<title>Node13</title>
<g id="a_node13"><a xlink:href="history_8h.html" target="_top" xlink:title=" ">
<polygon fill="white" stroke="black" points="438.22,-442 438.22,-461 540.22,-461 540.22,-442 438.22,-442"/>
<text text-anchor="middle" x="489.22" y="-449" font-family="Helvetica,sans-Serif" font-size="10.00">src/node/history.h</text>
</a>
</g>
</g>
<!-- Node1&#45;&gt;Node13 -->
<g id="edge76" class="edge">
<title>Node1&#45;&gt;Node13</title>
<path fill="none" stroke="midnightblue" d="M646.08,-608.85C635.44,-599.89 623.03,-589.15 612.22,-579 566.88,-536.45 516.1,-481.84 497.02,-461.05"/>
<polygon fill="midnightblue" stroke="midnightblue" points="643.9,-611.59 653.82,-615.32 648.39,-606.22 643.9,-611.59"/>
</g>
<!-- Node26 -->
<g id="node26" class="node">
<title>Node26</title>
<g id="a_node26"><a xlink:href="network__tables_8h.html" target="_top" xlink:title=" ">
<polygon fill="white" stroke="black" points="1058.22,-436.5 1058.22,-466.5 1170.22,-466.5 1170.22,-436.5 1058.22,-436.5"/>
<text text-anchor="start" x="1066.22" y="-454.5" font-family="Helvetica,sans-Serif" font-size="10.00">src/service/network</text>
<text text-anchor="middle" x="1114.22" y="-443.5" font-family="Helvetica,sans-Serif" font-size="10.00">_tables.h</text>
</a>
</g>
</g>
<!-- Node1&#45;&gt;Node26 -->
<g id="edge79" class="edge">
<title>Node1&#45;&gt;Node26</title>
<path fill="none" stroke="midnightblue" d="M732.34,-616.6C770.08,-607.82 819.17,-594.91 861.22,-579 948.72,-545.89 1046.09,-492.01 1090.19,-466.6"/>
<polygon fill="midnightblue" stroke="midnightblue" points="731.47,-613.21 722.51,-618.86 733.04,-620.03 731.47,-613.21"/>
</g>
<!-- Node41 -->
<g id="node41" class="node">
<title>Node41</title>
<g id="a_node41"><a xlink:href="src_2node_2hooks_8h.html" target="_top" xlink:title=" ">
<polygon fill="white" stroke="black" points="621.72,-559.5 621.72,-578.5 720.72,-578.5 720.72,-559.5 621.72,-559.5"/>
<text text-anchor="middle" x="671.22" y="-566.5" font-family="Helvetica,sans-Serif" font-size="10.00">src/node/hooks.h</text>
</a>
</g>
</g>
<!-- Node1&#45;&gt;Node41 -->
<g id="edge77" class="edge">
<title>Node1&#45;&gt;Node41</title>
<path fill="none" stroke="midnightblue" d="M671.22,-605.29C671.22,-595.86 671.22,-585.65 671.22,-578.66"/>
<polygon fill="midnightblue" stroke="midnightblue" points="667.72,-605.4 671.22,-615.4 674.72,-605.4 667.72,-605.4"/>
</g>
<!-- Node3 -->
<g id="node3" class="node">
<title>Node3</title>
<g id="a_node3"><a xlink:href="node__state_8h.html" target="_top" xlink:title=" ">
<polygon fill="white" stroke="black" points="877.22,-179.5 877.22,-198.5 1001.22,-198.5 1001.22,-179.5 877.22,-179.5"/>
<text text-anchor="middle" x="939.22" y="-186.5" font-family="Helvetica,sans-Serif" font-size="10.00">src/node/node_state.h</text>
</a>
</g>
</g>
<!-- Node2&#45;&gt;Node3 -->
<g id="edge2" class="edge">
<title>Node2&#45;&gt;Node3</title>
<path fill="none" stroke="midnightblue" d="M185.46,-501.83C119.31,-488.13 33.22,-456.63 33.22,-385.5 33.22,-385.5 33.22,-385.5 33.22,-316.5 33.22,-286.39 -103.78,-313.62 181.22,-235 311.64,-199.02 720.18,-191.81 877.04,-190.36"/>
<polygon fill="midnightblue" stroke="midnightblue" points="184.99,-505.3 195.47,-503.8 186.34,-498.43 184.99,-505.3"/>
</g>
<!-- Node4 -->
<g id="node4" class="node">
<title>Node4</title>
<g id="a_node4"><a xlink:href="enclave_2enclave_8h.html" target="_top" xlink:title=" ">
<polygon fill="white" stroke="black" points="1226.22,-56.5 1226.22,-75.5 1348.22,-75.5 1348.22,-56.5 1226.22,-56.5"/>
<text text-anchor="middle" x="1287.22" y="-63.5" font-family="Helvetica,sans-Serif" font-size="10.00">src/enclave/enclave.h</text>
</a>
</g>
</g>
<!-- Node3&#45;&gt;Node4 -->
<g id="edge3" class="edge">
<title>Node3&#45;&gt;Node4</title>
<path fill="none" stroke="midnightblue" d="M973.34,-176.14C1043.19,-151.85 1201.09,-96.95 1262.31,-75.66"/>
<polygon fill="midnightblue" stroke="midnightblue" points="971.98,-172.9 963.69,-179.49 974.28,-179.51 971.98,-172.9"/>
</g>
<!-- Node6 -->
<g id="node6" class="node">
<title>Node6</title>
<g id="a_node6"><a xlink:href="gov__effects_8h.html" target="_top" xlink:title=" ">
<polygon fill="white" stroke="black" points="899.22,-118 899.22,-137 1043.22,-137 1043.22,-118 899.22,-118"/>
<text text-anchor="middle" x="971.22" y="-125" font-family="Helvetica,sans-Serif" font-size="10.00">src/node/rpc/gov_effects.h</text>
</a>
</g>
</g>
<!-- Node3&#45;&gt;Node6 -->
<g id="edge5" class="edge">
<title>Node3&#45;&gt;Node6</title>
<path fill="none" stroke="midnightblue" d="M948.72,-170.33C954.64,-159.33 961.99,-145.66 966.64,-137.01"/>
<polygon fill="midnightblue" stroke="midnightblue" points="945.46,-169.01 943.8,-179.48 951.62,-172.33 945.46,-169.01"/>
</g>
<!-- Node5 -->
<g id="node5" class="node">
<title>Node5</title>
<g id="a_node5"><a xlink:href="enclave_2main_8cpp.html" target="_top" xlink:title=" ">
<polygon fill="white" stroke="black" points="1227.22,-0.5 1227.22,-19.5 1347.22,-19.5 1347.22,-0.5 1227.22,-0.5"/>
<text text-anchor="middle" x="1287.22" y="-7.5" font-family="Helvetica,sans-Serif" font-size="10.00">src/enclave/main.cpp</text>
</a>
</g>
</g>
<!-- Node4&#45;&gt;Node5 -->
<g id="edge4" class="edge">
<title>Node4&#45;&gt;Node5</title>
<path fill="none" stroke="midnightblue" d="M1287.22,-45.8C1287.22,-36.91 1287.22,-26.78 1287.22,-19.75"/>
<polygon fill="midnightblue" stroke="midnightblue" points="1283.72,-46.08 1287.22,-56.08 1290.72,-46.08 1283.72,-46.08"/>
</g>
<!-- Node6&#45;&gt;Node4 -->
<g id="edge6" class="edge">
<title>Node6&#45;&gt;Node4</title>
<path fill="none" stroke="midnightblue" d="M1026.36,-116.12C1087.56,-104.59 1185.16,-86.22 1242.03,-75.51"/>
<polygon fill="midnightblue" stroke="midnightblue" points="1025.67,-112.69 1016.49,-117.98 1026.97,-119.56 1025.67,-112.69"/>
</g>
<!-- Node8 -->
<g id="node8" class="node">
<title>Node8</title>
<g id="a_node8"><a xlink:href="store_8h.html" target="_top" xlink:title=" ">
<polygon fill="white" stroke="black" points="756.72,-503.5 756.72,-522.5 839.72,-522.5 839.72,-503.5 756.72,-503.5"/>
<text text-anchor="middle" x="798.22" y="-510.5" font-family="Helvetica,sans-Serif" font-size="10.00">src/kv/store.h</text>
</a>
</g>
</g>
<!-- Node7&#45;&gt;Node8 -->
<g id="edge8" class="edge">
<title>Node7&#45;&gt;Node8</title>
<path fill="none" stroke="midnightblue" d="M796.93,-548.8C797.26,-539.91 797.63,-529.78 797.89,-522.75"/>
<polygon fill="midnightblue" stroke="midnightblue" points="793.42,-548.96 796.55,-559.08 800.42,-549.22 793.42,-548.96"/>
</g>
<!-- Node9 -->
<g id="node9" class="node">
<title>Node9</title>
<g id="a_node9"><a xlink:href="indexer_8h.html" target="_top" xlink:title=" ">
<polygon fill="white" stroke="black" points="737.72,-442 737.72,-461 860.72,-461 860.72,-442 737.72,-442"/>
<text text-anchor="middle" x="799.22" y="-449" font-family="Helvetica,sans-Serif" font-size="10.00">src/indexing/indexer.h</text>
</a>
</g>
</g>
<!-- Node8&#45;&gt;Node9 -->
<g id="edge9" class="edge">
<title>Node8&#45;&gt;Node9</title>
<path fill="none" stroke="midnightblue" d="M798.53,-493.32C798.71,-482.5 798.93,-469.4 799.08,-461.01"/>
<polygon fill="midnightblue" stroke="midnightblue" points="795.03,-493.42 798.36,-503.48 802.03,-493.54 795.03,-493.42"/>
</g>
<!-- Node10 -->
<g id="node10" class="node">
<title>Node10</title>
<g id="a_node10"><a xlink:href="visit__each__entry__in__map_8cpp.html" target="_top" xlink:title=" ">
<polygon fill="white" stroke="black" points="878.72,-436.5 878.72,-466.5 1039.72,-466.5 1039.72,-436.5 878.72,-436.5"/>
<text text-anchor="start" x="886.72" y="-454.5" font-family="Helvetica,sans-Serif" font-size="10.00">src/indexing/strategies</text>
<text text-anchor="middle" x="959.22" y="-443.5" font-family="Helvetica,sans-Serif" font-size="10.00">/visit_each_entry_in_map.cpp</text>
</a>
</g>
</g>
<!-- Node8&#45;&gt;Node10 -->
<g id="edge11" class="edge">
<title>Node8&#45;&gt;Node10</title>
<path fill="none" stroke="midnightblue" d="M830.76,-499.98C856.93,-490.3 893.76,-476.69 921.27,-466.52"/>
<polygon fill="midnightblue" stroke="midnightblue" points="829.45,-496.73 821.29,-503.48 831.88,-503.29 829.45,-496.73"/>
</g>
<!-- Node11 -->
<g id="node11" class="node">
<title>Node11</title>
<g id="a_node11"><a xlink:href="historical__queries_8h.html" target="_top" xlink:title=" ">
<polygon fill="white" stroke="black" points="61.22,-302.5 61.22,-332.5 167.22,-332.5 167.22,-302.5 61.22,-302.5"/>
<text text-anchor="start" x="69.22" y="-320.5" font-family="Helvetica,sans-Serif" font-size="10.00">src/node/historical</text>
<text text-anchor="middle" x="114.22" y="-309.5" font-family="Helvetica,sans-Serif" font-size="10.00">_queries.h</text>
</a>
</g>
</g>
<!-- Node8&#45;&gt;Node11 -->
<g id="edge12" class="edge">
<title>Node8&#45;&gt;Node11</title>
<path fill="none" stroke="midnightblue" d="M746.27,-510.82C643.06,-506.57 407.13,-487.24 233.22,-400 194.5,-380.58 153.76,-350.19 131.42,-332.52"/>
<polygon fill="midnightblue" stroke="midnightblue" points="746.3,-514.32 756.43,-511.2 746.57,-507.33 746.3,-514.32"/>
</g>
<!-- Node8&#45;&gt;Node13 -->
<g id="edge16" class="edge">
<title>Node8&#45;&gt;Node13</title>
<path fill="none" stroke="midnightblue" d="M746.58,-502.06C686.94,-490.57 589.8,-471.87 533.47,-461.02"/>
<polygon fill="midnightblue" stroke="midnightblue" points="746.06,-505.52 756.55,-503.98 747.39,-498.65 746.06,-505.52"/>
</g>
<!-- Node15 -->
<g id="node15" class="node">
<title>Node15</title>
<g id="a_node15"><a xlink:href="snapshotter_8h.html" target="_top" xlink:title=" ">
<polygon fill="white" stroke="black" points="602.72,-241 602.72,-260 729.72,-260 729.72,-241 602.72,-241"/>
<text text-anchor="middle" x="666.22" y="-248" font-family="Helvetica,sans-Serif" font-size="10.00">src/node/snapshotter.h</text>
</a>
</g>
</g>
<!-- Node8&#45;&gt;Node15 -->
<g id="edge39" class="edge">
<title>Node8&#45;&gt;Node15</title>
<path fill="none" stroke="midnightblue" d="M768.25,-498.75C754.5,-491.26 739.1,-480.65 729.22,-467 684.7,-405.53 708.39,-374.27 685.22,-302 680.47,-287.19 673.89,-270.35 669.85,-260.35"/>
<polygon fill="midnightblue" stroke="midnightblue" points="766.91,-502 777.41,-503.43 770.1,-495.76 766.91,-502"/>
</g>
<!-- Node21 -->
<g id="node21" class="node">
<title>Node21</title>
<g id="a_node21"><a xlink:href="frontend_8h.html" target="_top" xlink:title=" ">
<polygon fill="white" stroke="black" points="1495.72,-375 1495.72,-394 1624.72,-394 1624.72,-375 1495.72,-375"/>
<text text-anchor="middle" x="1560.22" y="-382" font-family="Helvetica,sans-Serif" font-size="10.00">src/node/rpc/frontend.h</text>
</a>
</g>
</g>
<!-- Node8&#45;&gt;Node21 -->
<g id="edge29" class="edge">
<title>Node8&#45;&gt;Node21</title>
<path fill="none" stroke="midnightblue" d="M850.2,-507.41C923.75,-500.56 1062.26,-486.37 1179.22,-467 1308.01,-445.67 1459.16,-410.18 1525.75,-394"/>
<polygon fill="midnightblue" stroke="midnightblue" points="849.47,-503.96 839.84,-508.37 850.11,-510.93 849.47,-503.96"/>
</g>
<!-- Node8&#45;&gt;Node26 -->
<g id="edge40" class="edge">
<title>Node8&#45;&gt;Node26</title>
<path fill="none" stroke="midnightblue" d="M850.15,-503.35C901,-494.72 980.6,-480.8 1049.22,-467 1052.05,-466.43 1054.95,-465.83 1057.88,-465.22"/>
<polygon fill="midnightblue" stroke="midnightblue" points="849.34,-499.93 840.07,-505.05 850.51,-506.83 849.34,-499.93"/>
</g>
<!-- Node9&#45;&gt;Node3 -->
<g id="edge10" class="edge">
<title>Node9&#45;&gt;Node3</title>
<path fill="none" stroke="midnightblue" d="M792.77,-432.01C780,-391.77 756.33,-295.04 800.22,-235 817.88,-210.84 848.79,-199.39 876.99,-194.07"/>
<polygon fill="midnightblue" stroke="midnightblue" points="789.47,-433.2 795.95,-441.58 796.12,-430.99 789.47,-433.2"/>
</g>
<!-- Node11&#45;&gt;Node4 -->
<g id="edge13" class="edge">
<title>Node11&#45;&gt;Node4</title>
<path fill="none" stroke="midnightblue" d="M118.4,-292.21C122.47,-274.65 130.17,-251.25 144.22,-235 243.85,-119.73 314.23,-138.84 464.22,-112 610.54,-85.82 1061.38,-72.5 1226.12,-68.4"/>
<polygon fill="midnightblue" stroke="midnightblue" points="114.92,-291.77 116.31,-302.27 121.77,-293.19 114.92,-291.77"/>
</g>
<!-- Node12 -->
<g id="node12" class="node">
<title>Node12</title>
<g id="a_node12"><a xlink:href="historical__transaction__fetcher_8h.html" target="_top" xlink:title=" ">
<polygon fill="white" stroke="black" points="473.72,-112.5 473.72,-142.5 598.72,-142.5 598.72,-112.5 473.72,-112.5"/>
<text text-anchor="start" x="481.72" y="-130.5" font-family="Helvetica,sans-Serif" font-size="10.00">src/indexing/historical</text>
<text text-anchor="middle" x="536.22" y="-119.5" font-family="Helvetica,sans-Serif" font-size="10.00">_transaction_fetcher.h</text>
</a>
</g>
</g>
<!-- Node11&#45;&gt;Node12 -->
<g id="edge14" class="edge">
<title>Node11&#45;&gt;Node12</title>
<path fill="none" stroke="midnightblue" d="M127.68,-293.56C139.57,-275.2 158.52,-250.1 181.22,-235 272.16,-174.49 398.58,-147.4 473.45,-136.02"/>
<polygon fill="midnightblue" stroke="midnightblue" points="124.6,-291.87 122.27,-302.21 130.54,-295.58 124.6,-291.87"/>
</g>
<!-- Node12&#45;&gt;Node4 -->
<g id="edge15" class="edge">
<title>Node12&#45;&gt;Node4</title>
<path fill="none" stroke="midnightblue" d="M609.27,-120.71C756.97,-109.01 1088.72,-82.73 1225.97,-71.85"/>
<polygon fill="midnightblue" stroke="midnightblue" points="608.65,-117.25 598.96,-121.53 609.2,-124.23 608.65,-117.25"/>
</g>
<!-- Node13&#45;&gt;Node3 -->
<g id="edge18" class="edge">
<title>Node13&#45;&gt;Node3</title>
<path fill="none" stroke="midnightblue" d="M483.23,-432.32C474.74,-403.27 462.35,-345.26 482.22,-302 501.29,-260.47 518.38,-253.38 560.22,-235 615.58,-210.68 784.62,-198.17 877.12,-192.98"/>
<polygon fill="midnightblue" stroke="midnightblue" points="479.91,-433.43 486.21,-441.94 486.59,-431.35 479.91,-433.43"/>
</g>
<!-- Node13&#45;&gt;Node11 -->
<g id="edge17" class="edge">
<title>Node13&#45;&gt;Node11</title>
<path fill="none" stroke="midnightblue" d="M446.18,-439.33C410.73,-429.82 359.31,-415.29 315.22,-400 254.38,-378.9 185.14,-349.62 145.86,-332.51"/>
<polygon fill="midnightblue" stroke="midnightblue" points="445.63,-442.81 456.19,-442 447.43,-436.04 445.63,-442.81"/>
</g>
<!-- Node14 -->
<g id="node14" class="node">
<title>Node14</title>
<g id="a_node14"><a xlink:href="snapshot__serdes_8h.html" target="_top" xlink:title=" ">
<polygon fill="white" stroke="black" points="491.22,-308 491.22,-327 643.22,-327 643.22,-308 491.22,-308"/>
<text text-anchor="middle" x="567.22" y="-315" font-family="Helvetica,sans-Serif" font-size="10.00">src/node/snapshot_serdes.h</text>
</a>
</g>
</g>
<!-- Node13&#45;&gt;Node14 -->
<g id="edge19" class="edge">
<title>Node13&#45;&gt;Node14</title>
<path fill="none" stroke="midnightblue" d="M499.61,-432.92C516.57,-404.2 549.6,-348.32 562.18,-327.02"/>
<polygon fill="midnightblue" stroke="midnightblue" points="496.41,-431.45 494.34,-441.84 502.44,-435.01 496.41,-431.45"/>
</g>
<!-- Node16 -->
<g id="node16" class="node">
<title>Node16</title>
<g id="a_node16"><a xlink:href="tx__receipt__impl_8h.html" target="_top" xlink:title=" ">
<polygon fill="white" stroke="black" points="324.22,-369.5 324.22,-399.5 434.22,-399.5 434.22,-369.5 324.22,-369.5"/>
<text text-anchor="start" x="332.22" y="-387.5" font-family="Helvetica,sans-Serif" font-size="10.00">src/node/tx_receipt</text>
<text text-anchor="middle" x="379.22" y="-376.5" font-family="Helvetica,sans-Serif" font-size="10.00">_impl.h</text>
</a>
</g>
</g>
<!-- Node13&#45;&gt;Node16 -->
<g id="edge22" class="edge">
<title>Node13&#45;&gt;Node16</title>
<path fill="none" stroke="midnightblue" d="M465.7,-436.6C447.23,-425.69 421.62,-410.55 403.06,-399.59"/>
<polygon fill="midnightblue" stroke="midnightblue" points="463.99,-439.66 474.38,-441.73 467.55,-433.63 463.99,-439.66"/>
</g>
<!-- Node14&#45;&gt;Node15 -->
<g id="edge20" class="edge">
<title>Node14&#45;&gt;Node15</title>
<path fill="none" stroke="midnightblue" d="M589.16,-302.09C608.74,-289.24 636.78,-270.83 653.08,-260.13"/>
<polygon fill="midnightblue" stroke="midnightblue" points="587.01,-299.32 580.57,-307.73 590.85,-305.17 587.01,-299.32"/>
</g>
<!-- Node15&#45;&gt;Node3 -->
<g id="edge21" class="edge">
<title>Node15&#45;&gt;Node3</title>
<path fill="none" stroke="midnightblue" d="M715.17,-238.83C768.12,-227.29 851.46,-209.13 900.18,-198.51"/>
<polygon fill="midnightblue" stroke="midnightblue" points="714.36,-235.43 705.33,-240.98 715.85,-242.27 714.36,-235.43"/>
</g>
<!-- Node16&#45;&gt;Node11 -->
<g id="edge26" class="edge">
<title>Node16&#45;&gt;Node11</title>
<path fill="none" stroke="midnightblue" d="M314.02,-367.51C268.98,-356.46 209.8,-341.95 167.57,-331.59"/>
<polygon fill="midnightblue" stroke="midnightblue" points="313.44,-370.97 323.99,-369.95 315.11,-364.17 313.44,-370.97"/>
</g>
<!-- Node16&#45;&gt;Node14 -->
<g id="edge28" class="edge">
<title>Node16&#45;&gt;Node14</title>
<path fill="none" stroke="midnightblue" d="M429.52,-366.11C466.1,-353.46 514.02,-336.89 542.61,-327.01"/>
<polygon fill="midnightblue" stroke="midnightblue" points="428.32,-362.82 420.01,-369.4 430.61,-369.44 428.32,-362.82"/>
</g>
<!-- Node17 -->
<g id="node17" class="node">
<title>Node17</title>
<g id="a_node17"><a xlink:href="src_2apps_2js__v8_2tmpl_2receipt_8h.html" target="_top" xlink:title=" ">
<polygon fill="white" stroke="black" points="323.72,-302.5 323.72,-332.5 434.72,-332.5 434.72,-302.5 323.72,-302.5"/>
<text text-anchor="start" x="331.72" y="-320.5" font-family="Helvetica,sans-Serif" font-size="10.00">src/apps/js_v8/tmpl</text>
<text text-anchor="middle" x="379.22" y="-309.5" font-family="Helvetica,sans-Serif" font-size="10.00">/receipt.h</text>
</a>
</g>
</g>
<!-- Node16&#45;&gt;Node17 -->
<g id="edge23" class="edge">
<title>Node16&#45;&gt;Node17</title>
<path fill="none" stroke="midnightblue" d="M379.22,-359.11C379.22,-350.15 379.22,-340.32 379.22,-332.58"/>
<polygon fill="midnightblue" stroke="midnightblue" points="375.72,-359.4 379.22,-369.4 382.72,-359.4 375.72,-359.4"/>
</g>
<!-- Node20 -->
<g id="node20" class="node">
<title>Node20</title>
<g id="a_node20"><a xlink:href="historical__queries__adapter_8cpp.html" target="_top" xlink:title=" ">
<polygon fill="white" stroke="black" points="185.22,-302.5 185.22,-332.5 305.22,-332.5 305.22,-302.5 185.22,-302.5"/>
<text text-anchor="start" x="193.22" y="-320.5" font-family="Helvetica,sans-Serif" font-size="10.00">src/node/historical</text>
<text text-anchor="middle" x="245.22" y="-309.5" font-family="Helvetica,sans-Serif" font-size="10.00">_queries_adapter.cpp</text>
</a>
</g>
</g>
<!-- Node16&#45;&gt;Node20 -->
<g id="edge27" class="edge">
<title>Node16&#45;&gt;Node20</title>
<path fill="none" stroke="midnightblue" d="M341.06,-364.99C319.82,-354.69 293.8,-342.07 274.24,-332.58"/>
<polygon fill="midnightblue" stroke="midnightblue" points="339.62,-368.18 350.14,-369.4 342.67,-361.88 339.62,-368.18"/>
</g>
<!-- Node18 -->
<g id="node18" class="node">
<title>Node18</title>
<g id="a_node18"><a xlink:href="historical__state_8cpp.html" target="_top" xlink:title=" ">
<polygon fill="white" stroke="black" points="319.72,-235.5 319.72,-265.5 434.72,-265.5 434.72,-235.5 319.72,-235.5"/>
<text text-anchor="start" x="327.72" y="-253.5" font-family="Helvetica,sans-Serif" font-size="10.00">src/apps/js_v8/tmpl</text>
<text text-anchor="middle" x="377.22" y="-242.5" font-family="Helvetica,sans-Serif" font-size="10.00">/historical_state.cpp</text>
</a>
</g>
</g>
<!-- Node17&#45;&gt;Node18 -->
<g id="edge24" class="edge">
<title>Node17&#45;&gt;Node18</title>
<path fill="none" stroke="midnightblue" d="M378.47,-292.11C378.19,-283.15 377.89,-273.32 377.65,-265.58"/>
<polygon fill="midnightblue" stroke="midnightblue" points="374.98,-292.51 378.78,-302.4 381.98,-292.29 374.98,-292.51"/>
</g>
<!-- Node19 -->
<g id="node19" class="node">
<title>Node19</title>
<g id="a_node19"><a xlink:href="apps_2js__v8_2tmpl_2receipt_8cpp.html" target="_top" xlink:title=" ">
<polygon fill="white" stroke="black" points="190.72,-235.5 190.72,-265.5 301.72,-265.5 301.72,-235.5 190.72,-235.5"/>
<text text-anchor="start" x="198.72" y="-253.5" font-family="Helvetica,sans-Serif" font-size="10.00">src/apps/js_v8/tmpl</text>
<text text-anchor="middle" x="246.22" y="-242.5" font-family="Helvetica,sans-Serif" font-size="10.00">/receipt.cpp</text>
</a>
</g>
</g>
<!-- Node17&#45;&gt;Node19 -->
<g id="edge25" class="edge">
<title>Node17&#45;&gt;Node19</title>
<path fill="none" stroke="midnightblue" d="M341.35,-297.99C320.27,-287.69 294.44,-275.07 275.02,-265.58"/>
<polygon fill="midnightblue" stroke="midnightblue" points="339.84,-301.15 350.36,-302.4 342.91,-294.86 339.84,-301.15"/>
</g>
<!-- Node21&#45;&gt;Node3 -->
<g id="edge30" class="edge">
<title>Node21&#45;&gt;Node3</title>
<path fill="none" stroke="midnightblue" d="M1548.01,-366.8C1533.6,-348.28 1507.93,-318.79 1479.22,-302 1427.47,-271.73 1406.17,-284.74 1349.22,-266 1312.6,-253.95 1305.56,-244.56 1268.22,-235 1176.91,-211.61 1068.03,-199.74 1001.27,-194.22"/>
<polygon fill="midnightblue" stroke="midnightblue" points="1545.32,-369.05 1554.14,-374.91 1550.9,-364.83 1545.32,-369.05"/>
</g>
<!-- Node22 -->
<g id="node22" class="node">
<title>Node22</title>
<g id="a_node22"><a xlink:href="member__frontend_8h.html" target="_top" xlink:title=" ">
<polygon fill="white" stroke="black" points="1391.22,-235.5 1391.22,-265.5 1511.22,-265.5 1511.22,-235.5 1391.22,-235.5"/>
<text text-anchor="start" x="1399.22" y="-253.5" font-family="Helvetica,sans-Serif" font-size="10.00">src/node/rpc/member</text>
<text text-anchor="middle" x="1451.22" y="-242.5" font-family="Helvetica,sans-Serif" font-size="10.00">_frontend.h</text>
</a>
</g>
</g>
<!-- Node21&#45;&gt;Node22 -->
<g id="edge31" class="edge">
<title>Node21&#45;&gt;Node22</title>
<path fill="none" stroke="midnightblue" d="M1610.9,-372.34C1658.51,-359.51 1718.64,-335.79 1691.22,-302 1689.78,-300.22 1581.93,-278.04 1511.31,-263.67"/>
<polygon fill="midnightblue" stroke="midnightblue" points="1609.77,-369.02 1600.97,-374.91 1611.53,-375.79 1609.77,-369.02"/>
</g>
<!-- Node23 -->
<g id="node23" class="node">
<title>Node23</title>
<g id="a_node23"><a xlink:href="node__frontend_8h.html" target="_top" xlink:title=" ">
<polygon fill="white" stroke="black" points="1312.22,-308 1312.22,-327 1470.22,-327 1470.22,-308 1312.22,-308"/>
<text text-anchor="middle" x="1391.22" y="-315" font-family="Helvetica,sans-Serif" font-size="10.00">src/node/rpc/node_frontend.h</text>
</a>
</g>
</g>
<!-- Node21&#45;&gt;Node23 -->
<g id="edge33" class="edge">
<title>Node21&#45;&gt;Node23</title>
<path fill="none" stroke="midnightblue" d="M1528.42,-371.27C1494.88,-358.37 1442.9,-338.38 1413.48,-327.06"/>
<polygon fill="midnightblue" stroke="midnightblue" points="1527.19,-374.55 1537.78,-374.87 1529.7,-368.01 1527.19,-374.55"/>
</g>
<!-- Node25 -->
<g id="node25" class="node">
<title>Node25</title>
<g id="a_node25"><a xlink:href="user__frontend_8h.html" target="_top" xlink:title=" ">
<polygon fill="white" stroke="black" points="1526.72,-308 1526.72,-327 1681.72,-327 1681.72,-308 1526.72,-308"/>
<text text-anchor="middle" x="1604.22" y="-315" font-family="Helvetica,sans-Serif" font-size="10.00">src/node/rpc/user_frontend.h</text>
</a>
</g>
</g>
<!-- Node21&#45;&gt;Node25 -->
<g id="edge37" class="edge">
<title>Node21&#45;&gt;Node25</title>
<path fill="none" stroke="midnightblue" d="M1571.79,-366.4C1580.34,-353.77 1591.62,-337.1 1598.38,-327.13"/>
<polygon fill="midnightblue" stroke="midnightblue" points="1568.86,-364.49 1566.15,-374.73 1574.66,-368.41 1568.86,-364.49"/>
</g>
<!-- Node22&#45;&gt;Node4 -->
<g id="edge32" class="edge">
<title>Node22&#45;&gt;Node4</title>
<path fill="none" stroke="midnightblue" d="M1443.47,-225.63C1432.75,-195.76 1410.81,-144.59 1377.22,-112 1359.42,-94.73 1333.67,-82.77 1314.27,-75.55"/>
<polygon fill="midnightblue" stroke="midnightblue" points="1440.22,-226.93 1446.8,-235.24 1446.84,-224.64 1440.22,-226.93"/>
</g>
<!-- Node23&#45;&gt;Node4 -->
<g id="edge34" class="edge">
<title>Node23&#45;&gt;Node4</title>
<path fill="none" stroke="midnightblue" d="M1375.21,-300.61C1366.5,-291.22 1356.13,-278.71 1349.22,-266 1312.24,-197.96 1293.76,-104.62 1288.69,-75.82"/>
<polygon fill="midnightblue" stroke="midnightblue" points="1372.85,-303.21 1382.3,-307.99 1377.89,-298.35 1372.85,-303.21"/>
</g>
<!-- Node24 -->
<g id="node24" class="node">
<title>Node24</title>
<g id="a_node24"><a xlink:href="jwt__key__auto__refresh_8h.html" target="_top" xlink:title=" ">
<polygon fill="white" stroke="black" points="1133.72,-235.5 1133.72,-265.5 1258.72,-265.5 1258.72,-235.5 1133.72,-235.5"/>
<text text-anchor="start" x="1141.72" y="-253.5" font-family="Helvetica,sans-Serif" font-size="10.00">src/node/jwt_key_auto</text>
<text text-anchor="middle" x="1196.22" y="-242.5" font-family="Helvetica,sans-Serif" font-size="10.00">_refresh.h</text>
</a>
</g>
</g>
<!-- Node23&#45;&gt;Node24 -->
<g id="edge35" class="edge">
<title>Node23&#45;&gt;Node24</title>
<path fill="none" stroke="midnightblue" d="M1355.62,-304.63C1322.55,-293.61 1273.3,-277.19 1238.3,-265.53"/>
<polygon fill="midnightblue" stroke="midnightblue" points="1354.73,-308.03 1365.32,-307.87 1356.94,-301.39 1354.73,-308.03"/>
</g>
<!-- Node24&#45;&gt;Node3 -->
<g id="edge36" class="edge">
<title>Node24&#45;&gt;Node3</title>
<path fill="none" stroke="midnightblue" d="M1125.83,-233.2C1077.36,-221.98 1014.9,-207.52 975.96,-198.51"/>
<polygon fill="midnightblue" stroke="midnightblue" points="1125.11,-236.63 1135.64,-235.47 1126.69,-229.81 1125.11,-236.63"/>
</g>
<!-- Node25&#45;&gt;Node4 -->
<g id="edge38" class="edge">
<title>Node25&#45;&gt;Node4</title>
<path fill="none" stroke="midnightblue" d="M1546.43,-306.12C1485,-294.65 1394.94,-276.43 1382.22,-266 1324.21,-218.46 1347.36,-178.78 1313.22,-112 1306.65,-99.15 1298.13,-84.78 1292.67,-75.82"/>
<polygon fill="midnightblue" stroke="midnightblue" points="1545.94,-309.59 1556.41,-307.97 1547.22,-302.7 1545.94,-309.59"/>
</g>
<!-- Node27 -->
<g id="node27" class="node">
<title>Node27</title>
<g id="a_node27"><a xlink:href="kv__module__loader_8cpp.html" target="_top" xlink:title=" ">
<polygon fill="white" stroke="black" points="1334.72,-369.5 1334.72,-399.5 1477.72,-399.5 1477.72,-369.5 1334.72,-369.5"/>
<text text-anchor="start" x="1342.72" y="-387.5" font-family="Helvetica,sans-Serif" font-size="10.00">src/apps/js_v8/kv_module</text>
<text text-anchor="middle" x="1406.22" y="-376.5" font-family="Helvetica,sans-Serif" font-size="10.00">_loader.cpp</text>
</a>
</g>
</g>
<!-- Node26&#45;&gt;Node27 -->
<g id="edge41" class="edge">
<title>Node26&#45;&gt;Node27</title>
<path fill="none" stroke="midnightblue" d="M1180.35,-435.78C1229.17,-424.91 1295.2,-410.21 1343.25,-399.52"/>
<polygon fill="midnightblue" stroke="midnightblue" points="1179.52,-432.38 1170.52,-437.97 1181.04,-439.21 1179.52,-432.38"/>
</g>
<!-- Node28 -->
<g id="node28" class="node">
<title>Node28</title>
<g id="a_node28"><a xlink:href="ccf__acme__client_8h.html" target="_top" xlink:title=" ">
<polygon fill="white" stroke="black" points="833.72,-375 833.72,-394 982.72,-394 982.72,-375 833.72,-375"/>
<text text-anchor="middle" x="908.22" y="-382" font-family="Helvetica,sans-Serif" font-size="10.00">src/node/ccf_acme_client.h</text>
</a>
</g>
</g>
<!-- Node26&#45;&gt;Node28 -->
<g id="edge42" class="edge">
<title>Node26&#45;&gt;Node28</title>
<path fill="none" stroke="midnightblue" d="M1060.12,-433.43C1019.95,-420.75 966.85,-404 935.25,-394.03"/>
<polygon fill="midnightblue" stroke="midnightblue" points="1059.18,-436.8 1069.77,-436.48 1061.29,-430.13 1059.18,-436.8"/>
</g>
<!-- Node29 -->
<g id="node29" class="node">
<title>Node29</title>
<g id="a_node29"><a xlink:href="network__state_8h.html" target="_top" xlink:title=" ">
<polygon fill="white" stroke="black" points="1176.22,-375 1176.22,-394 1316.22,-394 1316.22,-375 1176.22,-375"/>
<text text-anchor="middle" x="1246.22" y="-382" font-family="Helvetica,sans-Serif" font-size="10.00">src/node/network_state.h</text>
</a>
</g>
</g>
<!-- Node26&#45;&gt;Node29 -->
<g id="edge44" class="edge">
<title>Node26&#45;&gt;Node29</title>
<path fill="none" stroke="midnightblue" d="M1151.85,-431.97C1177.21,-419.48 1209.47,-403.6 1228.94,-394.01"/>
<polygon fill="midnightblue" stroke="midnightblue" points="1150.29,-428.84 1142.86,-436.4 1153.38,-435.12 1150.29,-428.84"/>
</g>
<!-- Node40 -->
<g id="node40" class="node">
<title>Node40</title>
<g id="a_node40"><a xlink:href="genesis__gen_8h.html" target="_top" xlink:title=" ">
<polygon fill="white" stroke="black" points="1048.22,-369.5 1048.22,-399.5 1158.22,-399.5 1158.22,-369.5 1048.22,-369.5"/>
<text text-anchor="start" x="1056.22" y="-387.5" font-family="Helvetica,sans-Serif" font-size="10.00">src/service/genesis</text>
<text text-anchor="middle" x="1103.22" y="-376.5" font-family="Helvetica,sans-Serif" font-size="10.00">_gen.h</text>
</a>
</g>
</g>
<!-- Node26&#45;&gt;Node40 -->
<g id="edge70" class="edge">
<title>Node26&#45;&gt;Node40</title>
<path fill="none" stroke="midnightblue" d="M1110.14,-426.4C1108.61,-417.37 1106.93,-407.41 1105.6,-399.58"/>
<polygon fill="midnightblue" stroke="midnightblue" points="1106.71,-427.12 1111.83,-436.4 1113.61,-425.95 1106.71,-427.12"/>
</g>
<!-- Node28&#45;&gt;Node3 -->
<g id="edge43" class="edge">
<title>Node28&#45;&gt;Node3</title>
<path fill="none" stroke="midnightblue" d="M868.71,-371.22C850.55,-363.37 830.74,-351.17 820.22,-333 798.39,-295.31 795.46,-270.83 820.22,-235 833.4,-215.92 855.79,-204.92 877.61,-198.58"/>
<polygon fill="midnightblue" stroke="midnightblue" points="867.42,-374.47 878,-374.94 870.02,-367.97 867.42,-374.47"/>
</g>
<!-- Node29&#45;&gt;Node3 -->
<g id="edge61" class="edge">
<title>Node29&#45;&gt;Node3</title>
<path fill="none" stroke="midnightblue" d="M1246.73,-364.42C1246.19,-346.22 1242.56,-319.13 1227.22,-302 1195.15,-266.19 1170.03,-283.4 1125.22,-266 1092.36,-253.24 1084.82,-248.41 1052.22,-235 1020.78,-222.07 984.19,-207.6 961.36,-198.65"/>
<polygon fill="midnightblue" stroke="midnightblue" points="1243.23,-364.66 1246.74,-374.66 1250.23,-364.66 1243.23,-364.66"/>
</g>
<!-- Node29&#45;&gt;Node4 -->
<g id="edge45" class="edge">
<title>Node29&#45;&gt;Node4</title>
<path fill="none" stroke="midnightblue" d="M1298,-373.2C1307.36,-371.6 1317.06,-370.11 1326.22,-369 1447.26,-354.33 2417.22,-373.42 2417.22,-251.5 2417.22,-251.5 2417.22,-251.5 2417.22,-188 2417.22,-79.55 1583.63,-68.13 1348.37,-67.07"/>
<polygon fill="midnightblue" stroke="midnightblue" points="1297.25,-369.78 1288.01,-374.97 1298.47,-376.67 1297.25,-369.78"/>
</g>
<!-- Node29&#45;&gt;Node15 -->
<g id="edge69" class="edge">
<title>Node29&#45;&gt;Node15</title>
<path fill="none" stroke="midnightblue" d="M1184.79,-372.87C1148.4,-365.03 1102.14,-352.32 1064.22,-333 1044.49,-322.95 1045.56,-310.74 1025.22,-302 973.46,-279.77 818.56,-263.94 730.07,-256.42"/>
<polygon fill="midnightblue" stroke="midnightblue" points="1184.27,-376.33 1194.77,-374.95 1185.7,-369.48 1184.27,-376.33"/>
</g>
<!-- Node29&#45;&gt;Node23 -->
<g id="edge62" class="edge">
<title>Node29&#45;&gt;Node23</title>
<path fill="none" stroke="midnightblue" d="M1274.97,-370.61C1303.69,-357.74 1347.04,-338.31 1371.88,-327.17"/>
<polygon fill="midnightblue" stroke="midnightblue" points="1273.17,-367.58 1265.47,-374.87 1276.03,-373.97 1273.17,-367.58"/>
</g>
<!-- Node29&#45;&gt;Node25 -->
<g id="edge63" class="edge">
<title>Node29&#45;&gt;Node25</title>
<path fill="none" stroke="midnightblue" d="M1303.41,-373.12C1373.77,-360.34 1491.91,-338.89 1557.23,-327.03"/>
<polygon fill="midnightblue" stroke="midnightblue" points="1302.6,-369.71 1293.39,-374.94 1303.85,-376.59 1302.6,-369.71"/>
</g>
<!-- Node30 -->
<g id="node30" class="node">
<title>Node30</title>
<g id="a_node30"><a xlink:href="wrap_8h.html" target="_top" xlink:title=" ">
<polygon fill="white" stroke="black" points="1820.22,-308 1820.22,-327 1898.22,-327 1898.22,-308 1820.22,-308"/>
<text text-anchor="middle" x="1859.22" y="-315" font-family="Helvetica,sans-Serif" font-size="10.00">src/js/wrap.h</text>
</a>
</g>
</g>
<!-- Node29&#45;&gt;Node30 -->
<g id="edge46" class="edge">
<title>Node29&#45;&gt;Node30</title>
<path fill="none" stroke="midnightblue" d="M1299.58,-373.18C1308.46,-371.65 1317.58,-370.19 1326.22,-369 1374.79,-362.31 1705.38,-332.34 1820.1,-322.01"/>
<polygon fill="midnightblue" stroke="midnightblue" points="1298.94,-369.74 1289.71,-374.93 1300.16,-376.63 1298.94,-369.74"/>
</g>
<!-- Node38 -->
<g id="node38" class="node">
<title>Node38</title>
<g id="a_node38"><a xlink:href="secret__broadcast_8h.html" target="_top" xlink:title=" ">
<polygon fill="white" stroke="black" points="862.72,-308 862.72,-327 1015.72,-327 1015.72,-308 862.72,-308"/>
<text text-anchor="middle" x="939.22" y="-315" font-family="Helvetica,sans-Serif" font-size="10.00">src/node/secret_broadcast.h</text>
</a>
</g>
</g>
<!-- Node29&#45;&gt;Node38 -->
<g id="edge64" class="edge">
<title>Node29&#45;&gt;Node38</title>
<path fill="none" stroke="midnightblue" d="M1195.7,-372.8C1135.28,-360.01 1035.37,-338.86 979.76,-327.08"/>
<polygon fill="midnightblue" stroke="midnightblue" points="1195.26,-376.29 1205.77,-374.94 1196.71,-369.44 1195.26,-376.29"/>
</g>
<!-- Node39 -->
<g id="node39" class="node">
<title>Node39</title>
<g id="a_node39"><a xlink:href="share__manager_8h.html" target="_top" xlink:title=" ">
<polygon fill="white" stroke="black" points="1072.72,-308 1072.72,-327 1217.72,-327 1217.72,-308 1072.72,-308"/>
<text text-anchor="middle" x="1145.22" y="-315" font-family="Helvetica,sans-Serif" font-size="10.00">src/node/share_manager.h</text>
</a>
</g>
</g>
<!-- Node29&#45;&gt;Node39 -->
<g id="edge66" class="edge">
<title>Node29&#45;&gt;Node39</title>
<path fill="none" stroke="midnightblue" d="M1224.11,-369.27C1204.11,-356.4 1175.33,-337.88 1158.62,-327.13"/>
<polygon fill="midnightblue" stroke="midnightblue" points="1222.29,-372.27 1232.6,-374.73 1226.08,-366.38 1222.29,-372.27"/>
</g>
<!-- Node30&#45;&gt;Node3 -->
<g id="edge59" class="edge">
<title>Node30&#45;&gt;Node3</title>
<path fill="none" stroke="midnightblue" d="M1809.66,-311.31C1736.17,-303.08 1602.21,-285.92 1558.22,-266 1538.36,-257.01 1540.45,-243.1 1520.22,-235 1427.35,-197.82 1131.28,-191.23 1001.35,-190.15"/>
<polygon fill="midnightblue" stroke="midnightblue" points="1809.73,-314.83 1820.05,-312.45 1810.49,-307.88 1809.73,-314.83"/>
</g>
<!-- Node30&#45;&gt;Node4 -->
<g id="edge48" class="edge">
<title>Node30&#45;&gt;Node4</title>
<path fill="none" stroke="midnightblue" d="M1859.9,-297.53C1859.51,-279.22 1856.01,-251.86 1840.22,-235 1708.38,-94.18 1462.69,-70.12 1348.49,-66.87"/>
<polygon fill="midnightblue" stroke="midnightblue" points="1856.4,-297.56 1859.82,-307.58 1863.4,-297.61 1856.4,-297.56"/>
</g>
<!-- Node30&#45;&gt;Node22 -->
<g id="edge60" class="edge">
<title>Node30&#45;&gt;Node22</title>
<path fill="none" stroke="midnightblue" d="M1810.05,-309.75C1744.82,-300.63 1626.14,-283.51 1525.22,-266 1520.7,-265.22 1516.04,-264.38 1511.35,-263.51"/>
<polygon fill="midnightblue" stroke="midnightblue" points="1809.66,-313.23 1820.05,-311.14 1810.63,-306.29 1809.66,-313.23"/>
</g>
<!-- Node31 -->
<g id="node31" class="node">
<title>Node31</title>
<g id="a_node31"><a xlink:href="js__generic__base_8cpp.html" target="_top" xlink:title=" ">
<polygon fill="white" stroke="black" points="1713.22,-235.5 1713.22,-265.5 1831.22,-265.5 1831.22,-235.5 1713.22,-235.5"/>
<text text-anchor="start" x="1721.22" y="-253.5" font-family="Helvetica,sans-Serif" font-size="10.00">src/apps/js_generic</text>
<text text-anchor="middle" x="1772.22" y="-242.5" font-family="Helvetica,sans-Serif" font-size="10.00">/js_generic_base.cpp</text>
</a>
</g>
</g>
<!-- Node30&#45;&gt;Node31 -->
<g id="edge47" class="edge">
<title>Node30&#45;&gt;Node31</title>
<path fill="none" stroke="midnightblue" d="M1839.2,-301.54C1824.72,-290.73 1805.28,-276.2 1791.08,-265.59"/>
<polygon fill="midnightblue" stroke="midnightblue" points="1837.38,-304.55 1847.49,-307.73 1841.57,-298.94 1837.38,-304.55"/>
</g>
<!-- Node32 -->
<g id="node32" class="node">
<title>Node32</title>
<g id="a_node32"><a xlink:href="js_2consensus_8cpp.html" target="_top" xlink:title=" ">
<polygon fill="white" stroke="black" points="1887.22,-241 1887.22,-260 2003.22,-260 2003.22,-241 1887.22,-241"/>
<text text-anchor="middle" x="1945.22" y="-248" font-family="Helvetica,sans-Serif" font-size="10.00">src/js/consensus.cpp</text>
</a>
</g>
</g>
<!-- Node30&#45;&gt;Node32 -->
<g id="edge49" class="edge">
<title>Node30&#45;&gt;Node32</title>
<path fill="none" stroke="midnightblue" d="M1878.97,-301.57C1895.95,-288.74 1919.83,-270.69 1933.8,-260.13"/>
<polygon fill="midnightblue" stroke="midnightblue" points="1876.68,-298.91 1870.82,-307.73 1880.9,-304.5 1876.68,-298.91"/>
</g>
<!-- Node33 -->
<g id="node33" class="node">
<title>Node33</title>
<g id="a_node33"><a xlink:href="wrap_8cpp.html" target="_top" xlink:title=" ">
<polygon fill="white" stroke="black" points="2058.72,-179.5 2058.72,-198.5 2147.72,-198.5 2147.72,-179.5 2058.72,-179.5"/>
<text text-anchor="middle" x="2103.22" y="-186.5" font-family="Helvetica,sans-Serif" font-size="10.00">src/js/wrap.cpp</text>
</a>
</g>
</g>
<!-- Node30&#45;&gt;Node33 -->
<g id="edge58" class="edge">
<title>Node30&#45;&gt;Node33</title>
<path fill="none" stroke="midnightblue" d="M1908.02,-305.43C1939.07,-297.19 1979.46,-284.21 2012.22,-266 2016.74,-263.49 2070.26,-218.07 2093.05,-198.67"/>
<polygon fill="midnightblue" stroke="midnightblue" points="1907.1,-302.05 1898.29,-307.94 1908.85,-308.83 1907.1,-302.05"/>
</g>
<!-- Node34 -->
<g id="node34" class="node">
<title>Node34</title>
<g id="a_node34"><a xlink:href="conv_8cpp.html" target="_top" xlink:title=" ">
<polygon fill="white" stroke="black" points="2059.22,-241 2059.22,-260 2147.22,-260 2147.22,-241 2059.22,-241"/>
<text text-anchor="middle" x="2103.22" y="-248" font-family="Helvetica,sans-Serif" font-size="10.00">src/js/conv.cpp</text>
</a>
</g>
</g>
<!-- Node30&#45;&gt;Node34 -->
<g id="edge51" class="edge">
<title>Node30&#45;&gt;Node34</title>
<path fill="none" stroke="midnightblue" d="M1901.17,-305.32C1949.35,-292.49 2027.35,-271.71 2071,-260.08"/>
<polygon fill="midnightblue" stroke="midnightblue" points="1900.13,-301.98 1891.37,-307.94 1901.93,-308.74 1900.13,-301.98"/>
</g>
<!-- Node35 -->
<g id="node35" class="node">
<title>Node35</title>
<g id="a_node35"><a xlink:href="js_2crypto_8cpp.html" target="_top" xlink:title=" ">
<polygon fill="white" stroke="black" points="2165.22,-241 2165.22,-260 2261.22,-260 2261.22,-241 2165.22,-241"/>
<text text-anchor="middle" x="2213.22" y="-248" font-family="Helvetica,sans-Serif" font-size="10.00">src/js/crypto.cpp</text>
</a>
</g>
</g>
<!-- Node30&#45;&gt;Node35 -->
<g id="edge53" class="edge">
<title>Node30&#45;&gt;Node35</title>
<path fill="none" stroke="midnightblue" d="M1908.5,-309.37C1967.61,-300.52 2069.58,-284.36 2156.22,-266 2164.51,-264.24 2173.42,-262.1 2181.67,-260.01"/>
<polygon fill="midnightblue" stroke="midnightblue" points="1907.7,-305.95 1898.33,-310.88 1908.73,-312.87 1907.7,-305.95"/>
</g>
<!-- Node36 -->
<g id="node36" class="node">
<title>Node36</title>
<g id="a_node36"><a xlink:href="js_2historical_8cpp.html" target="_top" xlink:title=" ">
<polygon fill="white" stroke="black" points="2279.22,-241 2279.22,-260 2389.22,-260 2389.22,-241 2279.22,-241"/>
<text text-anchor="middle" x="2334.22" y="-248" font-family="Helvetica,sans-Serif" font-size="10.00">src/js/historical.cpp</text>
</a>
</g>
</g>
<!-- Node30&#45;&gt;Node36 -->
<g id="edge55" class="edge">
<title>Node30&#45;&gt;Node36</title>
<path fill="none" stroke="midnightblue" d="M1908.63,-312.05C1986.05,-304.71 2140.51,-288.6 2270.22,-266 2279.76,-264.34 2290.02,-262.18 2299.47,-260.04"/>
<polygon fill="midnightblue" stroke="midnightblue" points="1907.86,-308.61 1898.23,-313.03 1908.51,-315.58 1907.86,-308.61"/>
</g>
<!-- Node37 -->
<g id="node37" class="node">
<title>Node37</title>
<g id="a_node37"><a xlink:href="openenclave_8cpp.html" target="_top" xlink:title=" ">
<polygon fill="white" stroke="black" points="1567.22,-241 1567.22,-260 1695.22,-260 1695.22,-241 1567.22,-241"/>
<text text-anchor="middle" x="1631.22" y="-248" font-family="Helvetica,sans-Serif" font-size="10.00">src/js/openenclave.cpp</text>
</a>
</g>
</g>
<!-- Node30&#45;&gt;Node37 -->
<g id="edge57" class="edge">
<title>Node30&#45;&gt;Node37</title>
<path fill="none" stroke="midnightblue" d="M1819.2,-305.09C1774.09,-292.23 1701.79,-271.62 1661.26,-260.06"/>
<polygon fill="midnightblue" stroke="midnightblue" points="1818.37,-308.49 1828.94,-307.87 1820.28,-301.76 1818.37,-308.49"/>
</g>
<!-- Node32&#45;&gt;Node33 -->
<g id="edge50" class="edge">
<title>Node32&#45;&gt;Node33</title>
<path fill="none" stroke="midnightblue" d="M1977.26,-237.43C2007.97,-225.87 2053.54,-208.71 2080.62,-198.51"/>
<polygon fill="midnightblue" stroke="midnightblue" points="1975.98,-234.18 1967.86,-240.98 1978.45,-240.73 1975.98,-234.18"/>
</g>
<!-- Node34&#45;&gt;Node33 -->
<g id="edge52" class="edge">
<title>Node34&#45;&gt;Node33</title>
<path fill="none" stroke="midnightblue" d="M2103.22,-230.82C2103.22,-220 2103.22,-206.9 2103.22,-198.51"/>
<polygon fill="midnightblue" stroke="midnightblue" points="2099.72,-230.98 2103.22,-240.98 2106.72,-230.98 2099.72,-230.98"/>
</g>
<!-- Node35&#45;&gt;Node33 -->
<g id="edge54" class="edge">
<title>Node35&#45;&gt;Node33</title>
<path fill="none" stroke="midnightblue" d="M2188.65,-236.21C2167.35,-224.69 2137.15,-208.36 2118.95,-198.51"/>
<polygon fill="midnightblue" stroke="midnightblue" points="2187,-239.3 2197.46,-240.98 2190.33,-233.14 2187,-239.3"/>
</g>
<!-- Node36&#45;&gt;Node33 -->
<g id="edge56" class="edge">
<title>Node36&#45;&gt;Node33</title>
<path fill="none" stroke="midnightblue" d="M2291.39,-238.47C2246.53,-226.91 2177.05,-209.02 2136.25,-198.51"/>
<polygon fill="midnightblue" stroke="midnightblue" points="2290.56,-241.87 2301.12,-240.98 2292.31,-235.09 2290.56,-241.87"/>
</g>
<!-- Node38&#45;&gt;Node3 -->
<g id="edge65" class="edge">
<title>Node38&#45;&gt;Node3</title>
<path fill="none" stroke="midnightblue" d="M939.22,-297.44C939.22,-269.62 939.22,-219.04 939.22,-198.76"/>
<polygon fill="midnightblue" stroke="midnightblue" points="935.72,-297.81 939.22,-307.81 942.72,-297.81 935.72,-297.81"/>
</g>
<!-- Node39&#45;&gt;Node3 -->
<g id="edge67" class="edge">
<title>Node39&#45;&gt;Node3</title>
<path fill="none" stroke="midnightblue" d="M1122.45,-302.52C1079.61,-276.21 988.16,-220.06 953.2,-198.59"/>
<polygon fill="midnightblue" stroke="midnightblue" points="1120.71,-305.55 1131.06,-307.81 1124.37,-299.59 1120.71,-305.55"/>
</g>
<!-- Node39&#45;&gt;Node22 -->
<g id="edge68" class="edge">
<title>Node39&#45;&gt;Node22</title>
<path fill="none" stroke="midnightblue" d="M1195.49,-305.82C1249.09,-294.44 1333.94,-276.41 1391.05,-264.28"/>
<polygon fill="midnightblue" stroke="midnightblue" points="1194.59,-302.43 1185.54,-307.94 1196.05,-309.28 1194.59,-302.43"/>
</g>
<!-- Node40&#45;&gt;Node3 -->
<g id="edge71" class="edge">
<title>Node40&#45;&gt;Node3</title>
<path fill="none" stroke="midnightblue" d="M1038.13,-374.61C968.33,-364.41 865.88,-347.26 854.22,-333 816.38,-286.72 895.31,-221.78 926.91,-198.62"/>
<polygon fill="midnightblue" stroke="midnightblue" points="1037.78,-378.09 1048.18,-376.06 1038.78,-371.17 1037.78,-378.09"/>
</g>
<!-- Node40&#45;&gt;Node22 -->
<g id="edge72" class="edge">
<title>Node40&#45;&gt;Node22</title>
<path fill="none" stroke="midnightblue" d="M1147.13,-365.62C1170.85,-355.97 1200.64,-343.83 1227.22,-333 1261,-319.23 1269.05,-314.78 1303.22,-302 1338.18,-288.92 1378.28,-275.32 1407.92,-265.53"/>
<polygon fill="midnightblue" stroke="midnightblue" points="1145.64,-362.45 1137.7,-369.46 1148.28,-368.93 1145.64,-362.45"/>
</g>
<!-- Node40&#45;&gt;Node23 -->
<g id="edge73" class="edge">
<title>Node40&#45;&gt;Node23</title>
<path fill="none" stroke="midnightblue" d="M1168.38,-368.74C1239.31,-352.71 1310.6,-336.65 1353.17,-327.07"/>
<polygon fill="midnightblue" stroke="midnightblue" points="1167.36,-365.38 1158.38,-371 1168.9,-372.21 1167.36,-365.38"/>
</g>
<!-- Node40&#45;&gt;Node38 -->
<g id="edge74" class="edge">
<title>Node40&#45;&gt;Node38</title>
<path fill="none" stroke="midnightblue" d="M1058.11,-365.62C1026.37,-353.04 985.31,-336.77 960.68,-327.01"/>
<polygon fill="midnightblue" stroke="midnightblue" points="1057.05,-368.97 1067.63,-369.4 1059.63,-362.46 1057.05,-368.97"/>
</g>
<!-- Node40&#45;&gt;Node39 -->
<g id="edge75" class="edge">
<title>Node40&#45;&gt;Node39</title>
<path fill="none" stroke="midnightblue" d="M1117.77,-360.97C1125.3,-349.33 1134.04,-335.8 1139.6,-327.19"/>
<polygon fill="midnightblue" stroke="midnightblue" points="1114.82,-359.1 1112.33,-369.4 1120.7,-362.9 1114.82,-359.1"/>
</g>
<!-- Node41&#45;&gt;Node3 -->
<g id="edge78" class="edge">
<title>Node41&#45;&gt;Node3</title>
<path fill="none" stroke="midnightblue" d="M671.22,-549.29C671.22,-526.45 671.22,-486.64 671.22,-452.5 671.22,-452.5 671.22,-452.5 671.22,-383.5 671.22,-346.31 674.01,-332.14 652.22,-302 634.22,-277.11 608.25,-292.79 593.22,-266 586.47,-253.99 584.13,-245.35 593.22,-235 611.61,-214.06 782.31,-199.98 876.87,-193.71"/>
<polygon fill="midnightblue" stroke="midnightblue" points="667.72,-549.31 671.22,-559.31 674.72,-549.31 667.72,-549.31"/>
</g>
</g>
</svg>
