<?xml version="1.0" encoding="UTF-8" standalone="no"?>
<!DOCTYPE svg PUBLIC "-//W3C//DTD SVG 1.1//EN"
 "http://www.w3.org/Graphics/SVG/1.1/DTD/svg11.dtd">
<!-- Generated by graphviz version 2.43.0 (0)
 -->
<!-- Title: src/service/tables/snapshot_evidence.h Pages: 1 -->
<svg width="2363pt" height="654pt"
 viewBox="0.00 0.00 2363.29 654.00" xmlns="http://www.w3.org/2000/svg" xmlns:xlink="http://www.w3.org/1999/xlink">
<g id="graph0" class="graph" transform="scale(1 1) rotate(0) translate(4 650)">
<title>src/service/tables/snapshot_evidence.h</title>
<polygon fill="white" stroke="transparent" points="-4,4 -4,-650 2359.29,-650 2359.29,4 -4,4"/>
<!-- Node1 -->
<g id="node1" class="node">
<title>Node1</title>
<g id="a_node1"><a xlink:title=" ">
<polygon fill="#bfbfbf" stroke="black" points="823,-615.5 823,-645.5 945,-645.5 945,-615.5 823,-615.5"/>
<text text-anchor="start" x="831" y="-633.5" font-family="Helvetica,sans-Serif" font-size="10.00">src/service/tables</text>
<text text-anchor="middle" x="884" y="-622.5" font-family="Helvetica,sans-Serif" font-size="10.00">/snapshot_evidence.h</text>
</a>
</g>
</g>
<!-- Node2 -->
<g id="node2" class="node">
<title>Node2</title>
<g id="a_node2"><a xlink:href="deserialise_8h.html" target="_top" xlink:title=" ">
<polygon fill="white" stroke="black" points="658.5,-559.5 658.5,-578.5 769.5,-578.5 769.5,-559.5 658.5,-559.5"/>
<text text-anchor="middle" x="714" y="-566.5" font-family="Helvetica,sans-Serif" font-size="10.00">src/kv/deserialise.h</text>
</a>
</g>
</g>
<!-- Node1&#45;&gt;Node2 -->
<g id="edge1" class="edge">
<title>Node1&#45;&gt;Node2</title>
<path fill="none" stroke="midnightblue" d="M834.25,-612.09C802.86,-601.1 763.67,-587.39 738.74,-578.66"/>
<polygon fill="midnightblue" stroke="midnightblue" points="833.12,-615.4 843.71,-615.4 835.43,-608.79 833.12,-615.4"/>
</g>
<!-- Node14 -->
<g id="node14" class="node">
<title>Node14</title>
<g id="a_node14"><a xlink:href="snapshotter_8h.html" target="_top" xlink:title=" ">
<polygon fill="white" stroke="black" points="638.5,-241 638.5,-260 765.5,-260 765.5,-241 638.5,-241"/>
<text text-anchor="middle" x="702" y="-248" font-family="Helvetica,sans-Serif" font-size="10.00">src/node/snapshotter.h</text>
</a>
</g>
</g>
<!-- Node1&#45;&gt;Node14 -->
<g id="edge74" class="edge">
<title>Node1&#45;&gt;Node14</title>
<path fill="none" stroke="midnightblue" d="M883.24,-605.26C880.74,-565.24 870.26,-484.92 827,-436 800.37,-405.88 770.47,-430.27 744,-400 706.96,-357.65 702.43,-284.85 701.99,-260.06"/>
<polygon fill="midnightblue" stroke="midnightblue" points="879.76,-605.61 883.76,-615.42 886.75,-605.25 879.76,-605.61"/>
</g>
<!-- Node25 -->
<g id="node25" class="node">
<title>Node25</title>
<g id="a_node25"><a xlink:href="network__tables_8h.html" target="_top" xlink:title=" ">
<polygon fill="white" stroke="black" points="999,-436.5 999,-466.5 1111,-466.5 1111,-436.5 999,-436.5"/>
<text text-anchor="start" x="1007" y="-454.5" font-family="Helvetica,sans-Serif" font-size="10.00">src/service/network</text>
<text text-anchor="middle" x="1055" y="-443.5" font-family="Helvetica,sans-Serif" font-size="10.00">_tables.h</text>
</a>
</g>
</g>
<!-- Node1&#45;&gt;Node25 -->
<g id="edge75" class="edge">
<title>Node1&#45;&gt;Node25</title>
<path fill="none" stroke="midnightblue" d="M904.68,-608.09C940.06,-571.47 1011.28,-497.76 1041.23,-466.75"/>
<polygon fill="midnightblue" stroke="midnightblue" points="902.14,-605.69 897.7,-615.31 907.17,-610.55 902.14,-605.69"/>
</g>
<!-- Node3 -->
<g id="node3" class="node">
<title>Node3</title>
<g id="a_node3"><a xlink:href="store_8h.html" target="_top" xlink:title=" ">
<polygon fill="white" stroke="black" points="629.5,-503.5 629.5,-522.5 712.5,-522.5 712.5,-503.5 629.5,-503.5"/>
<text text-anchor="middle" x="671" y="-510.5" font-family="Helvetica,sans-Serif" font-size="10.00">src/kv/store.h</text>
</a>
</g>
</g>
<!-- Node2&#45;&gt;Node3 -->
<g id="edge2" class="edge">
<title>Node2&#45;&gt;Node3</title>
<path fill="none" stroke="midnightblue" d="M700.58,-551.14C693.09,-541.74 684.06,-530.4 677.97,-522.75"/>
<polygon fill="midnightblue" stroke="midnightblue" points="697.93,-553.44 706.9,-559.08 703.41,-549.08 697.93,-553.44"/>
</g>
<!-- Node4 -->
<g id="node4" class="node">
<title>Node4</title>
<g id="a_node4"><a xlink:href="indexer_8h.html" target="_top" xlink:title=" ">
<polygon fill="white" stroke="black" points="476.5,-442 476.5,-461 599.5,-461 599.5,-442 476.5,-442"/>
<text text-anchor="middle" x="538" y="-449" font-family="Helvetica,sans-Serif" font-size="10.00">src/indexing/indexer.h</text>
</a>
</g>
</g>
<!-- Node3&#45;&gt;Node4 -->
<g id="edge3" class="edge">
<title>Node3&#45;&gt;Node4</title>
<path fill="none" stroke="midnightblue" d="M642.67,-499.33C616.85,-487.78 579.42,-471.03 557.02,-461.01"/>
<polygon fill="midnightblue" stroke="midnightblue" points="641.39,-502.59 651.94,-503.48 644.25,-496.2 641.39,-502.59"/>
</g>
<!-- Node9 -->
<g id="node9" class="node">
<title>Node9</title>
<g id="a_node9"><a xlink:href="visit__each__entry__in__map_8cpp.html" target="_top" xlink:title=" ">
<polygon fill="white" stroke="black" points="656.5,-436.5 656.5,-466.5 817.5,-466.5 817.5,-436.5 656.5,-436.5"/>
<text text-anchor="start" x="664.5" y="-454.5" font-family="Helvetica,sans-Serif" font-size="10.00">src/indexing/strategies</text>
<text text-anchor="middle" x="737" y="-443.5" font-family="Helvetica,sans-Serif" font-size="10.00">/visit_each_entry_in_map.cpp</text>
</a>
</g>
</g>
<!-- Node3&#45;&gt;Node9 -->
<g id="edge9" class="edge">
<title>Node3&#45;&gt;Node9</title>
<path fill="none" stroke="midnightblue" d="M688.03,-496.65C698.35,-487.35 711.41,-475.57 721.45,-466.52"/>
<polygon fill="midnightblue" stroke="midnightblue" points="685.54,-494.18 680.46,-503.48 690.23,-499.38 685.54,-494.18"/>
</g>
<!-- Node10 -->
<g id="node10" class="node">
<title>Node10</title>
<g id="a_node10"><a xlink:href="historical__queries_8h.html" target="_top" xlink:title=" ">
<polygon fill="white" stroke="black" points="0,-302.5 0,-332.5 106,-332.5 106,-302.5 0,-302.5"/>
<text text-anchor="start" x="8" y="-320.5" font-family="Helvetica,sans-Serif" font-size="10.00">src/node/historical</text>
<text text-anchor="middle" x="53" y="-309.5" font-family="Helvetica,sans-Serif" font-size="10.00">_queries.h</text>
</a>
</g>
</g>
<!-- Node3&#45;&gt;Node10 -->
<g id="edge10" class="edge">
<title>Node3&#45;&gt;Node10</title>
<path fill="none" stroke="midnightblue" d="M619.31,-508.71C553.89,-503.68 438.14,-491.93 342,-467 262.59,-446.41 242.39,-438.61 170,-400 132.43,-379.96 92.53,-350.06 70.39,-332.59"/>
<polygon fill="midnightblue" stroke="midnightblue" points="619.13,-512.2 629.36,-509.46 619.65,-505.22 619.13,-512.2"/>
</g>
<!-- Node12 -->
<g id="node12" class="node">
<title>Node12</title>
<g id="a_node12"><a xlink:href="history_8h.html" target="_top" xlink:title=" ">
<polygon fill="white" stroke="black" points="351,-442 351,-461 453,-461 453,-442 351,-442"/>
<text text-anchor="middle" x="402" y="-449" font-family="Helvetica,sans-Serif" font-size="10.00">src/node/history.h</text>
</a>
</g>
</g>
<!-- Node3&#45;&gt;Node12 -->
<g id="edge14" class="edge">
<title>Node3&#45;&gt;Node12</title>
<path fill="none" stroke="midnightblue" d="M622.44,-501.26C570.25,-489.72 488.38,-471.61 440.47,-461.01"/>
<polygon fill="midnightblue" stroke="midnightblue" points="621.94,-504.73 632.46,-503.48 623.45,-497.9 621.94,-504.73"/>
</g>
<!-- Node3&#45;&gt;Node14 -->
<g id="edge37" class="edge">
<title>Node3&#45;&gt;Node14</title>
<path fill="none" stroke="midnightblue" d="M659.58,-494.44C655.02,-486.42 650.31,-476.58 648,-467 644.78,-453.6 646.78,-449.72 648,-436 653.35,-375.73 650.88,-358.7 672,-302 677.84,-286.33 688.51,-270.01 695.42,-260.31"/>
<polygon fill="midnightblue" stroke="midnightblue" points="656.71,-496.46 664.9,-503.19 662.69,-492.83 656.71,-496.46"/>
</g>
<!-- Node20 -->
<g id="node20" class="node">
<title>Node20</title>
<g id="a_node20"><a xlink:href="frontend_8h.html" target="_top" xlink:title=" ">
<polygon fill="white" stroke="black" points="752.5,-375 752.5,-394 881.5,-394 881.5,-375 752.5,-375"/>
<text text-anchor="middle" x="817" y="-382" font-family="Helvetica,sans-Serif" font-size="10.00">src/node/rpc/frontend.h</text>
</a>
</g>
</g>
<!-- Node3&#45;&gt;Node20 -->
<g id="edge27" class="edge">
<title>Node3&#45;&gt;Node20</title>
<path fill="none" stroke="midnightblue" d="M722.71,-503.9C763.05,-496.41 814.31,-483.87 827,-467 843.45,-445.13 829.6,-410.22 821.65,-394.13"/>
<polygon fill="midnightblue" stroke="midnightblue" points="721.94,-500.49 712.72,-505.7 723.18,-507.37 721.94,-500.49"/>
</g>
<!-- Node3&#45;&gt;Node25 -->
<g id="edge38" class="edge">
<title>Node3&#45;&gt;Node25</title>
<path fill="none" stroke="midnightblue" d="M723.03,-503.94C795.12,-492.77 924.85,-472.67 998.99,-461.18"/>
<polygon fill="midnightblue" stroke="midnightblue" points="722.17,-500.53 712.83,-505.52 723.24,-507.45 722.17,-500.53"/>
</g>
<!-- Node5 -->
<g id="node5" class="node">
<title>Node5</title>
<g id="a_node5"><a xlink:href="node__state_8h.html" target="_top" xlink:title=" ">
<polygon fill="white" stroke="black" points="995,-179.5 995,-198.5 1119,-198.5 1119,-179.5 995,-179.5"/>
<text text-anchor="middle" x="1057" y="-186.5" font-family="Helvetica,sans-Serif" font-size="10.00">src/node/node_state.h</text>
</a>
</g>
</g>
<!-- Node4&#45;&gt;Node5 -->
<g id="edge4" class="edge">
<title>Node4&#45;&gt;Node5</title>
<path fill="none" stroke="midnightblue" d="M546.41,-432.52C557.09,-409.57 575.92,-368.55 591,-333 609.31,-289.85 592.64,-263.31 630,-235 658.44,-213.44 883.27,-198.96 994.76,-193.03"/>
<polygon fill="midnightblue" stroke="midnightblue" points="543.18,-431.17 542.13,-441.72 549.52,-434.13 543.18,-431.17"/>
</g>
<!-- Node6 -->
<g id="node6" class="node">
<title>Node6</title>
<g id="a_node6"><a xlink:href="enclave_2enclave_8h.html" target="_top" xlink:title=" ">
<polygon fill="white" stroke="black" points="1096,-56.5 1096,-75.5 1218,-75.5 1218,-56.5 1096,-56.5"/>
<text text-anchor="middle" x="1157" y="-63.5" font-family="Helvetica,sans-Serif" font-size="10.00">src/enclave/enclave.h</text>
</a>
</g>
</g>
<!-- Node5&#45;&gt;Node6 -->
<g id="edge5" class="edge">
<title>Node5&#45;&gt;Node6</title>
<path fill="none" stroke="midnightblue" d="M1093.7,-175.31C1109.47,-168.12 1126.81,-157.59 1138,-143 1153.56,-122.71 1156.51,-91.23 1156.98,-75.94"/>
<polygon fill="midnightblue" stroke="midnightblue" points="1091.99,-172.23 1084.15,-179.36 1094.72,-178.67 1091.99,-172.23"/>
</g>
<!-- Node8 -->
<g id="node8" class="node">
<title>Node8</title>
<g id="a_node8"><a xlink:href="gov__effects_8h.html" target="_top" xlink:title=" ">
<polygon fill="white" stroke="black" points="985,-118 985,-137 1129,-137 1129,-118 985,-118"/>
<text text-anchor="middle" x="1057" y="-125" font-family="Helvetica,sans-Serif" font-size="10.00">src/node/rpc/gov_effects.h</text>
</a>
</g>
</g>
<!-- Node5&#45;&gt;Node8 -->
<g id="edge7" class="edge">
<title>Node5&#45;&gt;Node8</title>
<path fill="none" stroke="midnightblue" d="M1057,-169.32C1057,-158.5 1057,-145.4 1057,-137.01"/>
<polygon fill="midnightblue" stroke="midnightblue" points="1053.5,-169.48 1057,-179.48 1060.5,-169.48 1053.5,-169.48"/>
</g>
<!-- Node7 -->
<g id="node7" class="node">
<title>Node7</title>
<g id="a_node7"><a xlink:href="enclave_2main_8cpp.html" target="_top" xlink:title=" ">
<polygon fill="white" stroke="black" points="1097,-0.5 1097,-19.5 1217,-19.5 1217,-0.5 1097,-0.5"/>
<text text-anchor="middle" x="1157" y="-7.5" font-family="Helvetica,sans-Serif" font-size="10.00">src/enclave/main.cpp</text>
</a>
</g>
</g>
<!-- Node6&#45;&gt;Node7 -->
<g id="edge6" class="edge">
<title>Node6&#45;&gt;Node7</title>
<path fill="none" stroke="midnightblue" d="M1157,-45.8C1157,-36.91 1157,-26.78 1157,-19.75"/>
<polygon fill="midnightblue" stroke="midnightblue" points="1153.5,-46.08 1157,-56.08 1160.5,-46.08 1153.5,-46.08"/>
</g>
<!-- Node8&#45;&gt;Node6 -->
<g id="edge8" class="edge">
<title>Node8&#45;&gt;Node6</title>
<path fill="none" stroke="midnightblue" d="M1080.12,-112.74C1099.44,-101.25 1126.37,-85.22 1142.7,-75.51"/>
<polygon fill="midnightblue" stroke="midnightblue" points="1078.13,-109.85 1071.33,-117.98 1081.71,-115.87 1078.13,-109.85"/>
</g>
<!-- Node10&#45;&gt;Node6 -->
<g id="edge11" class="edge">
<title>Node10&#45;&gt;Node6</title>
<path fill="none" stroke="midnightblue" d="M56.11,-292.45C59.38,-275.01 65.96,-251.66 79,-235 161.51,-129.55 222.85,-138.94 354,-112 495.65,-82.9 933.74,-71.43 1095.86,-68.11"/>
<polygon fill="midnightblue" stroke="midnightblue" points="52.64,-292 54.48,-302.43 59.55,-293.13 52.64,-292"/>
</g>
<!-- Node11 -->
<g id="node11" class="node">
<title>Node11</title>
<g id="a_node11"><a xlink:href="historical__transaction__fetcher_8h.html" target="_top" xlink:title=" ">
<polygon fill="white" stroke="black" points="362.5,-112.5 362.5,-142.5 487.5,-142.5 487.5,-112.5 362.5,-112.5"/>
<text text-anchor="start" x="370.5" y="-130.5" font-family="Helvetica,sans-Serif" font-size="10.00">src/indexing/historical</text>
<text text-anchor="middle" x="425" y="-119.5" font-family="Helvetica,sans-Serif" font-size="10.00">_transaction_fetcher.h</text>
</a>
</g>
</g>
<!-- Node10&#45;&gt;Node11 -->
<g id="edge12" class="edge">
<title>Node10&#45;&gt;Node11</title>
<path fill="none" stroke="midnightblue" d="M64.79,-293.5C75.21,-275.27 92,-250.39 113,-235 188.7,-179.5 295.46,-151.41 362.41,-138.38"/>
<polygon fill="midnightblue" stroke="midnightblue" points="61.68,-291.88 59.93,-302.33 67.82,-295.26 61.68,-291.88"/>
</g>
<!-- Node11&#45;&gt;Node6 -->
<g id="edge13" class="edge">
<title>Node11&#45;&gt;Node6</title>
<path fill="none" stroke="midnightblue" d="M497.8,-120.58C642.03,-108.86 961.69,-82.88 1095.85,-71.97"/>
<polygon fill="midnightblue" stroke="midnightblue" points="497.41,-117.1 487.73,-121.4 497.98,-124.08 497.41,-117.1"/>
</g>
<!-- Node12&#45;&gt;Node5 -->
<g id="edge16" class="edge">
<title>Node12&#45;&gt;Node5</title>
<path fill="none" stroke="midnightblue" d="M398.75,-431.85C394.52,-401.22 390.88,-339.88 421,-302 491.69,-213.09 848.92,-194.76 994.81,-190.98"/>
<polygon fill="midnightblue" stroke="midnightblue" points="395.33,-432.64 400.33,-441.98 402.25,-431.56 395.33,-432.64"/>
</g>
<!-- Node12&#45;&gt;Node10 -->
<g id="edge15" class="edge">
<title>Node12&#45;&gt;Node10</title>
<path fill="none" stroke="midnightblue" d="M364.41,-438.84C333.49,-429.05 288.63,-414.39 250,-400 191.21,-378.1 123.91,-349.47 85.14,-332.63"/>
<polygon fill="midnightblue" stroke="midnightblue" points="363.74,-442.3 374.33,-441.96 365.85,-435.62 363.74,-442.3"/>
</g>
<!-- Node13 -->
<g id="node13" class="node">
<title>Node13</title>
<g id="a_node13"><a xlink:href="snapshot__serdes_8h.html" target="_top" xlink:title=" ">
<polygon fill="white" stroke="black" points="430,-308 430,-327 582,-327 582,-308 430,-308"/>
<text text-anchor="middle" x="506" y="-315" font-family="Helvetica,sans-Serif" font-size="10.00">src/node/snapshot_serdes.h</text>
</a>
</g>
</g>
<!-- Node12&#45;&gt;Node13 -->
<g id="edge17" class="edge">
<title>Node12&#45;&gt;Node13</title>
<path fill="none" stroke="midnightblue" d="M415.27,-433.66C437.7,-405.18 482.36,-348.5 499.29,-327.02"/>
<polygon fill="midnightblue" stroke="midnightblue" points="412.26,-431.82 408.82,-441.84 417.76,-436.15 412.26,-431.82"/>
</g>
<!-- Node15 -->
<g id="node15" class="node">
<title>Node15</title>
<g id="a_node15"><a xlink:href="tx__receipt__impl_8h.html" target="_top" xlink:title=" ">
<polygon fill="white" stroke="black" points="259,-369.5 259,-399.5 369,-399.5 369,-369.5 259,-369.5"/>
<text text-anchor="start" x="267" y="-387.5" font-family="Helvetica,sans-Serif" font-size="10.00">src/node/tx_receipt</text>
<text text-anchor="middle" x="314" y="-376.5" font-family="Helvetica,sans-Serif" font-size="10.00">_impl.h</text>
</a>
</g>
</g>
<!-- Node12&#45;&gt;Node15 -->
<g id="edge20" class="edge">
<title>Node12&#45;&gt;Node15</title>
<path fill="none" stroke="midnightblue" d="M381.75,-435.54C367.11,-424.73 347.44,-410.2 333.07,-399.59"/>
<polygon fill="midnightblue" stroke="midnightblue" points="380.01,-438.61 390.13,-441.73 384.17,-432.98 380.01,-438.61"/>
</g>
<!-- Node13&#45;&gt;Node14 -->
<g id="edge18" class="edge">
<title>Node13&#45;&gt;Node14</title>
<path fill="none" stroke="midnightblue" d="M541.88,-304.6C580.74,-291.71 641.77,-271.47 676.18,-260.06"/>
<polygon fill="midnightblue" stroke="midnightblue" points="540.42,-301.4 532.03,-307.87 542.62,-308.04 540.42,-301.4"/>
</g>
<!-- Node14&#45;&gt;Node5 -->
<g id="edge19" class="edge">
<title>Node14&#45;&gt;Node5</title>
<path fill="none" stroke="midnightblue" d="M763.1,-239.26C831.79,-227.75 942.09,-209.26 1006.23,-198.51"/>
<polygon fill="midnightblue" stroke="midnightblue" points="762.15,-235.87 752.86,-240.98 763.3,-242.77 762.15,-235.87"/>
</g>
<!-- Node15&#45;&gt;Node10 -->
<g id="edge24" class="edge">
<title>Node15&#45;&gt;Node10</title>
<path fill="none" stroke="midnightblue" d="M249.21,-367.37C205.15,-356.39 147.55,-342.05 106.17,-331.74"/>
<polygon fill="midnightblue" stroke="midnightblue" points="248.42,-370.77 258.97,-369.79 250.11,-363.98 248.42,-370.77"/>
</g>
<!-- Node15&#45;&gt;Node13 -->
<g id="edge26" class="edge">
<title>Node15&#45;&gt;Node13</title>
<path fill="none" stroke="midnightblue" d="M365.37,-366.11C402.73,-353.46 451.67,-336.89 480.87,-327.01"/>
<polygon fill="midnightblue" stroke="midnightblue" points="364.01,-362.87 355.66,-369.4 366.26,-369.5 364.01,-362.87"/>
</g>
<!-- Node16 -->
<g id="node16" class="node">
<title>Node16</title>
<g id="a_node16"><a xlink:href="src_2apps_2js__v8_2tmpl_2receipt_8h.html" target="_top" xlink:title=" ">
<polygon fill="white" stroke="black" points="124.5,-302.5 124.5,-332.5 235.5,-332.5 235.5,-302.5 124.5,-302.5"/>
<text text-anchor="start" x="132.5" y="-320.5" font-family="Helvetica,sans-Serif" font-size="10.00">src/apps/js_v8/tmpl</text>
<text text-anchor="middle" x="180" y="-309.5" font-family="Helvetica,sans-Serif" font-size="10.00">/receipt.h</text>
</a>
</g>
</g>
<!-- Node15&#45;&gt;Node16 -->
<g id="edge21" class="edge">
<title>Node15&#45;&gt;Node16</title>
<path fill="none" stroke="midnightblue" d="M275.85,-364.99C254.61,-354.69 228.59,-342.07 209.02,-332.58"/>
<polygon fill="midnightblue" stroke="midnightblue" points="274.4,-368.18 284.92,-369.4 277.45,-361.88 274.4,-368.18"/>
</g>
<!-- Node19 -->
<g id="node19" class="node">
<title>Node19</title>
<g id="a_node19"><a xlink:href="historical__queries__adapter_8cpp.html" target="_top" xlink:title=" ">
<polygon fill="white" stroke="black" points="254,-302.5 254,-332.5 374,-332.5 374,-302.5 254,-302.5"/>
<text text-anchor="start" x="262" y="-320.5" font-family="Helvetica,sans-Serif" font-size="10.00">src/node/historical</text>
<text text-anchor="middle" x="314" y="-309.5" font-family="Helvetica,sans-Serif" font-size="10.00">_queries_adapter.cpp</text>
</a>
</g>
</g>
<!-- Node15&#45;&gt;Node19 -->
<g id="edge25" class="edge">
<title>Node15&#45;&gt;Node19</title>
<path fill="none" stroke="midnightblue" d="M314,-359.11C314,-350.15 314,-340.32 314,-332.58"/>
<polygon fill="midnightblue" stroke="midnightblue" points="310.5,-359.4 314,-369.4 317.5,-359.4 310.5,-359.4"/>
</g>
<!-- Node17 -->
<g id="node17" class="node">
<title>Node17</title>
<g id="a_node17"><a xlink:href="historical__state_8cpp.html" target="_top" xlink:title=" ">
<polygon fill="white" stroke="black" points="121.5,-235.5 121.5,-265.5 236.5,-265.5 236.5,-235.5 121.5,-235.5"/>
<text text-anchor="start" x="129.5" y="-253.5" font-family="Helvetica,sans-Serif" font-size="10.00">src/apps/js_v8/tmpl</text>
<text text-anchor="middle" x="179" y="-242.5" font-family="Helvetica,sans-Serif" font-size="10.00">/historical_state.cpp</text>
</a>
</g>
</g>
<!-- Node16&#45;&gt;Node17 -->
<g id="edge22" class="edge">
<title>Node16&#45;&gt;Node17</title>
<path fill="none" stroke="midnightblue" d="M179.62,-292.11C179.49,-283.15 179.34,-273.32 179.22,-265.58"/>
<polygon fill="midnightblue" stroke="midnightblue" points="176.13,-292.45 179.78,-302.4 183.13,-292.34 176.13,-292.45"/>
</g>
<!-- Node18 -->
<g id="node18" class="node">
<title>Node18</title>
<g id="a_node18"><a xlink:href="apps_2js__v8_2tmpl_2receipt_8cpp.html" target="_top" xlink:title=" ">
<polygon fill="white" stroke="black" points="254.5,-235.5 254.5,-265.5 365.5,-265.5 365.5,-235.5 254.5,-235.5"/>
<text text-anchor="start" x="262.5" y="-253.5" font-family="Helvetica,sans-Serif" font-size="10.00">src/apps/js_v8/tmpl</text>
<text text-anchor="middle" x="310" y="-242.5" font-family="Helvetica,sans-Serif" font-size="10.00">/receipt.cpp</text>
</a>
</g>
</g>
<!-- Node16&#45;&gt;Node18 -->
<g id="edge23" class="edge">
<title>Node16&#45;&gt;Node18</title>
<path fill="none" stroke="midnightblue" d="M217.29,-297.85C237.85,-287.58 262.95,-275.03 281.85,-265.58"/>
<polygon fill="midnightblue" stroke="midnightblue" points="215.59,-294.79 208.21,-302.4 218.72,-301.05 215.59,-294.79"/>
</g>
<!-- Node20&#45;&gt;Node5 -->
<g id="edge28" class="edge">
<title>Node20&#45;&gt;Node5</title>
<path fill="none" stroke="midnightblue" d="M801.03,-367.38C786.07,-350.27 767.97,-322.86 782,-302 829.32,-231.63 929.38,-205.45 994.86,-195.73"/>
<polygon fill="midnightblue" stroke="midnightblue" points="798.61,-369.92 807.96,-374.88 803.75,-365.16 798.61,-369.92"/>
</g>
<!-- Node21 -->
<g id="node21" class="node">
<title>Node21</title>
<g id="a_node21"><a xlink:href="member__frontend_8h.html" target="_top" xlink:title=" ">
<polygon fill="white" stroke="black" points="2214,-235.5 2214,-265.5 2334,-265.5 2334,-235.5 2214,-235.5"/>
<text text-anchor="start" x="2222" y="-253.5" font-family="Helvetica,sans-Serif" font-size="10.00">src/node/rpc/member</text>
<text text-anchor="middle" x="2274" y="-242.5" font-family="Helvetica,sans-Serif" font-size="10.00">_frontend.h</text>
</a>
</g>
</g>
<!-- Node20&#45;&gt;Node21 -->
<g id="edge29" class="edge">
<title>Node20&#45;&gt;Node21</title>
<path fill="none" stroke="midnightblue" d="M864.55,-373.06C873.31,-371.46 882.4,-370.01 891,-369 1292.57,-321.99 1397.78,-374.07 1800,-333 1949.94,-317.69 2124.08,-283.45 2213.76,-264.59"/>
<polygon fill="midnightblue" stroke="midnightblue" points="863.63,-369.68 854.47,-375 864.95,-376.55 863.63,-369.68"/>
</g>
<!-- Node22 -->
<g id="node22" class="node">
<title>Node22</title>
<g id="a_node22"><a xlink:href="node__frontend_8h.html" target="_top" xlink:title=" ">
<polygon fill="white" stroke="black" points="1040,-308 1040,-327 1198,-327 1198,-308 1040,-308"/>
<text text-anchor="middle" x="1119" y="-315" font-family="Helvetica,sans-Serif" font-size="10.00">src/node/rpc/node_frontend.h</text>
</a>
</g>
</g>
<!-- Node20&#45;&gt;Node22 -->
<g id="edge31" class="edge">
<title>Node20&#45;&gt;Node22</title>
<path fill="none" stroke="midnightblue" d="M866.7,-372.8C926.13,-360.01 1024.41,-338.86 1079.12,-327.08"/>
<polygon fill="midnightblue" stroke="midnightblue" points="865.83,-369.41 856.79,-374.94 867.3,-376.25 865.83,-369.41"/>
</g>
<!-- Node24 -->
<g id="node24" class="node">
<title>Node24</title>
<g id="a_node24"><a xlink:href="user__frontend_8h.html" target="_top" xlink:title=" ">
<polygon fill="white" stroke="black" points="790.5,-308 790.5,-327 945.5,-327 945.5,-308 790.5,-308"/>
<text text-anchor="middle" x="868" y="-315" font-family="Helvetica,sans-Serif" font-size="10.00">src/node/rpc/user_frontend.h</text>
</a>
</g>
</g>
<!-- Node20&#45;&gt;Node24 -->
<g id="edge35" class="edge">
<title>Node20&#45;&gt;Node24</title>
<path fill="none" stroke="midnightblue" d="M830.13,-366.77C840.07,-354.1 853.33,-337.2 861.23,-327.13"/>
<polygon fill="midnightblue" stroke="midnightblue" points="827.3,-364.71 823.88,-374.73 832.8,-369.03 827.3,-364.71"/>
</g>
<!-- Node21&#45;&gt;Node6 -->
<g id="edge30" class="edge">
<title>Node21&#45;&gt;Node6</title>
<path fill="none" stroke="midnightblue" d="M2214.09,-232.66C2107.56,-203.38 1877.77,-143.24 1680,-112 1514.14,-85.8 1316.11,-74.01 1218.13,-69.45"/>
<polygon fill="midnightblue" stroke="midnightblue" points="2213.44,-236.11 2224.01,-235.39 2215.3,-229.36 2213.44,-236.11"/>
</g>
<!-- Node22&#45;&gt;Node6 -->
<g id="edge32" class="edge">
<title>Node22&#45;&gt;Node6</title>
<path fill="none" stroke="midnightblue" d="M1141.35,-302.1C1179.59,-275.93 1256.16,-216.4 1284,-143 1288.89,-130.12 1291.95,-123.25 1284,-112 1268.95,-90.7 1242.92,-79.42 1218.32,-73.47"/>
<polygon fill="midnightblue" stroke="midnightblue" points="1139.29,-299.27 1132.94,-307.75 1143.19,-305.08 1139.29,-299.27"/>
</g>
<!-- Node23 -->
<g id="node23" class="node">
<title>Node23</title>
<g id="a_node23"><a xlink:href="jwt__key__auto__refresh_8h.html" target="_top" xlink:title=" ">
<polygon fill="white" stroke="black" points="1040.5,-235.5 1040.5,-265.5 1165.5,-265.5 1165.5,-235.5 1040.5,-235.5"/>
<text text-anchor="start" x="1048.5" y="-253.5" font-family="Helvetica,sans-Serif" font-size="10.00">src/node/jwt_key_auto</text>
<text text-anchor="middle" x="1103" y="-242.5" font-family="Helvetica,sans-Serif" font-size="10.00">_refresh.h</text>
</a>
</g>
</g>
<!-- Node22&#45;&gt;Node23 -->
<g id="edge33" class="edge">
<title>Node22&#45;&gt;Node23</title>
<path fill="none" stroke="midnightblue" d="M1114.38,-297.74C1111.86,-287.49 1108.78,-275 1106.47,-265.59"/>
<polygon fill="midnightblue" stroke="midnightblue" points="1111.05,-298.86 1116.84,-307.73 1117.85,-297.19 1111.05,-298.86"/>
</g>
<!-- Node23&#45;&gt;Node5 -->
<g id="edge34" class="edge">
<title>Node23&#45;&gt;Node5</title>
<path fill="none" stroke="midnightblue" d="M1085.92,-227.4C1078.19,-217.41 1069.51,-206.18 1063.69,-198.66"/>
<polygon fill="midnightblue" stroke="midnightblue" points="1083.21,-229.63 1092.1,-235.4 1088.75,-225.35 1083.21,-229.63"/>
</g>
<!-- Node24&#45;&gt;Node6 -->
<g id="edge36" class="edge">
<title>Node24&#45;&gt;Node6</title>
<path fill="none" stroke="midnightblue" d="M872.28,-298.09C882.64,-257.76 913.01,-161.32 976,-112 1010.04,-85.35 1057.8,-74.26 1095.71,-69.74"/>
<polygon fill="midnightblue" stroke="midnightblue" points="868.86,-297.34 869.88,-307.89 875.66,-299.01 868.86,-297.34"/>
</g>
<!-- Node26 -->
<g id="node26" class="node">
<title>Node26</title>
<g id="a_node26"><a xlink:href="kv__module__loader_8cpp.html" target="_top" xlink:title=" ">
<polygon fill="white" stroke="black" points="1225.5,-369.5 1225.5,-399.5 1368.5,-399.5 1368.5,-369.5 1225.5,-369.5"/>
<text text-anchor="start" x="1233.5" y="-387.5" font-family="Helvetica,sans-Serif" font-size="10.00">src/apps/js_v8/kv_module</text>
<text text-anchor="middle" x="1297" y="-376.5" font-family="Helvetica,sans-Serif" font-size="10.00">_loader.cpp</text>
</a>
</g>
</g>
<!-- Node25&#45;&gt;Node26 -->
<g id="edge39" class="edge">
<title>Node25&#45;&gt;Node26</title>
<path fill="none" stroke="midnightblue" d="M1116.99,-433.85C1156.45,-423.25 1206.99,-409.68 1244.46,-399.61"/>
<polygon fill="midnightblue" stroke="midnightblue" points="1115.96,-430.5 1107.21,-436.48 1117.78,-437.26 1115.96,-430.5"/>
</g>
<!-- Node27 -->
<g id="node27" class="node">
<title>Node27</title>
<g id="a_node27"><a xlink:href="ccf__acme__client_8h.html" target="_top" xlink:title=" ">
<polygon fill="white" stroke="black" points="899.5,-375 899.5,-394 1048.5,-394 1048.5,-375 899.5,-375"/>
<text text-anchor="middle" x="974" y="-382" font-family="Helvetica,sans-Serif" font-size="10.00">src/node/ccf_acme_client.h</text>
</a>
</g>
</g>
<!-- Node25&#45;&gt;Node27 -->
<g id="edge40" class="edge">
<title>Node25&#45;&gt;Node27</title>
<path fill="none" stroke="midnightblue" d="M1029.46,-430.01C1014.43,-417.94 996.19,-403.3 984.83,-394.19"/>
<polygon fill="midnightblue" stroke="midnightblue" points="1027.43,-432.87 1037.42,-436.4 1031.82,-427.41 1027.43,-432.87"/>
</g>
<!-- Node28 -->
<g id="node28" class="node">
<title>Node28</title>
<g id="a_node28"><a xlink:href="network__state_8h.html" target="_top" xlink:title=" ">
<polygon fill="white" stroke="black" points="1067,-375 1067,-394 1207,-394 1207,-375 1067,-375"/>
<text text-anchor="middle" x="1137" y="-382" font-family="Helvetica,sans-Serif" font-size="10.00">src/node/network_state.h</text>
</a>
</g>
</g>
<!-- Node25&#45;&gt;Node28 -->
<g id="edge42" class="edge">
<title>Node25&#45;&gt;Node28</title>
<path fill="none" stroke="midnightblue" d="M1080.85,-430.01C1096.07,-417.94 1114.54,-403.3 1126.03,-394.19"/>
<polygon fill="midnightblue" stroke="midnightblue" points="1078.46,-427.44 1072.79,-436.4 1082.8,-432.93 1078.46,-427.44"/>
</g>
<!-- Node39 -->
<g id="node39" class="node">
<title>Node39</title>
<g id="a_node39"><a xlink:href="genesis__gen_8h.html" target="_top" xlink:title=" ">
<polygon fill="white" stroke="black" points="1387,-369.5 1387,-399.5 1497,-399.5 1497,-369.5 1387,-369.5"/>
<text text-anchor="start" x="1395" y="-387.5" font-family="Helvetica,sans-Serif" font-size="10.00">src/service/genesis</text>
<text text-anchor="middle" x="1442" y="-376.5" font-family="Helvetica,sans-Serif" font-size="10.00">_gen.h</text>
</a>
</g>
</g>
<!-- Node25&#45;&gt;Node39 -->
<g id="edge68" class="edge">
<title>Node25&#45;&gt;Node39</title>
<path fill="none" stroke="midnightblue" d="M1121.39,-441.46C1186.85,-432.23 1289.63,-416.9 1378,-400 1380.91,-399.44 1383.89,-398.85 1386.89,-398.23"/>
<polygon fill="midnightblue" stroke="midnightblue" points="1120.63,-438.03 1111.22,-442.89 1121.61,-444.96 1120.63,-438.03"/>
</g>
<!-- Node27&#45;&gt;Node5 -->
<g id="edge41" class="edge">
<title>Node27&#45;&gt;Node5</title>
<path fill="none" stroke="midnightblue" d="M978.08,-364.77C984.85,-335.82 999.96,-278.94 1023,-235 1030.18,-221.3 1041.45,-207.37 1049.03,-198.71"/>
<polygon fill="midnightblue" stroke="midnightblue" points="974.62,-364.21 975.83,-374.73 981.45,-365.75 974.62,-364.21"/>
</g>
<!-- Node28&#45;&gt;Node5 -->
<g id="edge59" class="edge">
<title>Node28&#45;&gt;Node5</title>
<path fill="none" stroke="midnightblue" d="M1085.33,-371.74C1064.75,-364.25 1043.12,-352.2 1031,-333 1026.11,-325.25 1022.96,-268.85 1032,-235 1035.64,-221.36 1044.31,-207.41 1050.42,-198.74"/>
<polygon fill="midnightblue" stroke="midnightblue" points="1084.39,-375.11 1094.98,-374.96 1086.61,-368.47 1084.39,-375.11"/>
</g>
<!-- Node28&#45;&gt;Node6 -->
<g id="edge43" class="edge">
<title>Node28&#45;&gt;Node6</title>
<path fill="none" stroke="midnightblue" d="M1191.29,-373.05C1261.72,-359.36 1376.01,-336.68 1379,-333 1421.59,-280.61 1218.75,-115.54 1168.19,-75.71"/>
<polygon fill="midnightblue" stroke="midnightblue" points="1190.39,-369.66 1181.24,-375 1191.72,-376.53 1190.39,-369.66"/>
</g>
<!-- Node28&#45;&gt;Node14 -->
<g id="edge67" class="edge">
<title>Node28&#45;&gt;Node14</title>
<path fill="none" stroke="midnightblue" d="M1082.79,-373.17C1074.5,-371.7 1066.03,-370.26 1058,-369 935.79,-349.83 892.73,-388.16 782,-333 747.39,-315.76 719.09,-277.5 707.57,-260.24"/>
<polygon fill="midnightblue" stroke="midnightblue" points="1082.32,-376.64 1092.78,-374.97 1083.56,-369.75 1082.32,-376.64"/>
</g>
<!-- Node28&#45;&gt;Node22 -->
<g id="edge60" class="edge">
<title>Node28&#45;&gt;Node22</title>
<path fill="none" stroke="midnightblue" d="M1131.85,-364.91C1128.41,-352.49 1124.04,-336.72 1121.39,-327.13"/>
<polygon fill="midnightblue" stroke="midnightblue" points="1128.53,-366.03 1134.57,-374.73 1135.28,-364.16 1128.53,-366.03"/>
</g>
<!-- Node28&#45;&gt;Node24 -->
<g id="edge61" class="edge">
<title>Node28&#45;&gt;Node24</title>
<path fill="none" stroke="midnightblue" d="M1091.74,-372.56C1038.71,-359.75 951.95,-338.78 903.52,-327.08"/>
<polygon fill="midnightblue" stroke="midnightblue" points="1091.01,-375.99 1101.56,-374.94 1092.66,-369.18 1091.01,-375.99"/>
</g>
<!-- Node29 -->
<g id="node29" class="node">
<title>Node29</title>
<g id="a_node29"><a xlink:href="wrap_8h.html" target="_top" xlink:title=" ">
<polygon fill="white" stroke="black" points="1713,-308 1713,-327 1791,-327 1791,-308 1713,-308"/>
<text text-anchor="middle" x="1752" y="-315" font-family="Helvetica,sans-Serif" font-size="10.00">src/js/wrap.h</text>
</a>
</g>
</g>
<!-- Node28&#45;&gt;Node29 -->
<g id="edge44" class="edge">
<title>Node28&#45;&gt;Node29</title>
<path fill="none" stroke="midnightblue" d="M1190.05,-373.23C1199.02,-371.68 1208.26,-370.2 1217,-369 1401.85,-343.57 1624.41,-327.05 1712.93,-321.04"/>
<polygon fill="midnightblue" stroke="midnightblue" points="1189.31,-369.81 1180.07,-375 1190.53,-376.7 1189.31,-369.81"/>
</g>
<!-- Node37 -->
<g id="node37" class="node">
<title>Node37</title>
<g id="a_node37"><a xlink:href="secret__broadcast_8h.html" target="_top" xlink:title=" ">
<polygon fill="white" stroke="black" points="1216.5,-308 1216.5,-327 1369.5,-327 1369.5,-308 1216.5,-308"/>
<text text-anchor="middle" x="1293" y="-315" font-family="Helvetica,sans-Serif" font-size="10.00">src/node/secret_broadcast.h</text>
</a>
</g>
</g>
<!-- Node28&#45;&gt;Node37 -->
<g id="edge62" class="edge">
<title>Node28&#45;&gt;Node37</title>
<path fill="none" stroke="midnightblue" d="M1167.12,-370.95C1198.01,-358.08 1245.23,-338.4 1272.2,-327.17"/>
<polygon fill="midnightblue" stroke="midnightblue" points="1165.6,-367.79 1157.72,-374.87 1168.29,-374.25 1165.6,-367.79"/>
</g>
<!-- Node38 -->
<g id="node38" class="node">
<title>Node38</title>
<g id="a_node38"><a xlink:href="share__manager_8h.html" target="_top" xlink:title=" ">
<polygon fill="white" stroke="black" points="2036.5,-308 2036.5,-327 2181.5,-327 2181.5,-308 2036.5,-308"/>
<text text-anchor="middle" x="2109" y="-315" font-family="Helvetica,sans-Serif" font-size="10.00">src/node/share_manager.h</text>
</a>
</g>
</g>
<!-- Node28&#45;&gt;Node38 -->
<g id="edge64" class="edge">
<title>Node28&#45;&gt;Node38</title>
<path fill="none" stroke="midnightblue" d="M1188.45,-373.15C1197.92,-371.54 1207.73,-370.06 1217,-369 1545.03,-331.48 1629.7,-356.89 1959,-333 1984.18,-331.17 2011.69,-328.66 2036.2,-326.24"/>
<polygon fill="midnightblue" stroke="midnightblue" points="1187.6,-369.75 1178.37,-374.94 1188.83,-376.64 1187.6,-369.75"/>
</g>
<!-- Node29&#45;&gt;Node5 -->
<g id="edge57" class="edge">
<title>Node29&#45;&gt;Node5</title>
<path fill="none" stroke="midnightblue" d="M1702.34,-312.03C1628.39,-304.91 1485.13,-289.39 1365,-266 1311.35,-255.55 1299.03,-248.22 1246,-235 1193.31,-221.87 1132.14,-207.45 1094,-198.57"/>
<polygon fill="midnightblue" stroke="midnightblue" points="1702.45,-315.55 1712.74,-313.02 1703.11,-308.58 1702.45,-315.55"/>
</g>
<!-- Node29&#45;&gt;Node6 -->
<g id="edge46" class="edge">
<title>Node29&#45;&gt;Node6</title>
<path fill="none" stroke="midnightblue" d="M1731.96,-301.71C1718.57,-291.75 1700.61,-278.24 1685,-266 1667.85,-252.55 1666,-245.69 1647,-235 1491.81,-147.69 1283.56,-94.94 1197.16,-75.52"/>
<polygon fill="midnightblue" stroke="midnightblue" points="1729.92,-304.55 1740.03,-307.7 1734.09,-298.93 1729.92,-304.55"/>
</g>
<!-- Node29&#45;&gt;Node21 -->
<g id="edge58" class="edge">
<title>Node29&#45;&gt;Node21</title>
<path fill="none" stroke="midnightblue" d="M1801.46,-312.55C1884.97,-305.54 2059.08,-289.41 2205,-266 2207.9,-265.53 2210.86,-265.03 2213.85,-264.49"/>
<polygon fill="midnightblue" stroke="midnightblue" points="1800.93,-309.09 1791.25,-313.4 1801.51,-316.06 1800.93,-309.09"/>
</g>
<!-- Node30 -->
<g id="node30" class="node">
<title>Node30</title>
<g id="a_node30"><a xlink:href="js__generic__base_8cpp.html" target="_top" xlink:title=" ">
<polygon fill="white" stroke="black" points="1520,-235.5 1520,-265.5 1638,-265.5 1638,-235.5 1520,-235.5"/>
<text text-anchor="start" x="1528" y="-253.5" font-family="Helvetica,sans-Serif" font-size="10.00">src/apps/js_generic</text>
<text text-anchor="middle" x="1579" y="-242.5" font-family="Helvetica,sans-Serif" font-size="10.00">/js_generic_base.cpp</text>
</a>
</g>
</g>
<!-- Node29&#45;&gt;Node30 -->
<g id="edge45" class="edge">
<title>Node29&#45;&gt;Node30</title>
<path fill="none" stroke="midnightblue" d="M1719.65,-304.35C1690.33,-293.33 1647.12,-277.09 1616.34,-265.53"/>
<polygon fill="midnightblue" stroke="midnightblue" points="1718.43,-307.63 1729.03,-307.87 1720.9,-301.07 1718.43,-307.63"/>
</g>
<!-- Node31 -->
<g id="node31" class="node">
<title>Node31</title>
<g id="a_node31"><a xlink:href="js_2consensus_8cpp.html" target="_top" xlink:title=" ">
<polygon fill="white" stroke="black" points="1694,-241 1694,-260 1810,-260 1810,-241 1694,-241"/>
<text text-anchor="middle" x="1752" y="-248" font-family="Helvetica,sans-Serif" font-size="10.00">src/js/consensus.cpp</text>
</a>
</g>
</g>
<!-- Node29&#45;&gt;Node31 -->
<g id="edge47" class="edge">
<title>Node29&#45;&gt;Node31</title>
<path fill="none" stroke="midnightblue" d="M1752,-297.54C1752,-285.17 1752,-269.62 1752,-260.13"/>
<polygon fill="midnightblue" stroke="midnightblue" points="1748.5,-297.73 1752,-307.73 1755.5,-297.73 1748.5,-297.73"/>
</g>
<!-- Node32 -->
<g id="node32" class="node">
<title>Node32</title>
<g id="a_node32"><a xlink:href="wrap_8cpp.html" target="_top" xlink:title=" ">
<polygon fill="white" stroke="black" points="1865.5,-179.5 1865.5,-198.5 1954.5,-198.5 1954.5,-179.5 1865.5,-179.5"/>
<text text-anchor="middle" x="1910" y="-186.5" font-family="Helvetica,sans-Serif" font-size="10.00">src/js/wrap.cpp</text>
</a>
</g>
</g>
<!-- Node29&#45;&gt;Node32 -->
<g id="edge56" class="edge">
<title>Node29&#45;&gt;Node32</title>
<path fill="none" stroke="midnightblue" d="M1772.08,-301.77C1785.5,-291.83 1803.46,-278.33 1819,-266 1848.99,-242.2 1883.44,-212.86 1900.04,-198.6"/>
<polygon fill="midnightblue" stroke="midnightblue" points="1769.97,-298.98 1764,-307.74 1774.12,-304.62 1769.97,-298.98"/>
</g>
<!-- Node33 -->
<g id="node33" class="node">
<title>Node33</title>
<g id="a_node33"><a xlink:href="conv_8cpp.html" target="_top" xlink:title=" ">
<polygon fill="white" stroke="black" points="1866,-241 1866,-260 1954,-260 1954,-241 1866,-241"/>
<text text-anchor="middle" x="1910" y="-248" font-family="Helvetica,sans-Serif" font-size="10.00">src/js/conv.cpp</text>
</a>
</g>
</g>
<!-- Node29&#45;&gt;Node33 -->
<g id="edge49" class="edge">
<title>Node29&#45;&gt;Node33</title>
<path fill="none" stroke="midnightblue" d="M1782.51,-303.95C1813.79,-291.08 1861.62,-271.4 1888.93,-260.17"/>
<polygon fill="midnightblue" stroke="midnightblue" points="1780.9,-300.83 1772.98,-307.87 1783.56,-307.3 1780.9,-300.83"/>
</g>
<!-- Node34 -->
<g id="node34" class="node">
<title>Node34</title>
<g id="a_node34"><a xlink:href="js_2crypto_8cpp.html" target="_top" xlink:title=" ">
<polygon fill="white" stroke="black" points="1972,-241 1972,-260 2068,-260 2068,-241 1972,-241"/>
<text text-anchor="middle" x="2020" y="-248" font-family="Helvetica,sans-Serif" font-size="10.00">src/js/crypto.cpp</text>
</a>
</g>
</g>
<!-- Node29&#45;&gt;Node34 -->
<g id="edge51" class="edge">
<title>Node29&#45;&gt;Node34</title>
<path fill="none" stroke="midnightblue" d="M1798.09,-305.67C1840.87,-295.57 1906.29,-280 1963,-266 1970.73,-264.09 1979.04,-262 1986.87,-260.01"/>
<polygon fill="midnightblue" stroke="midnightblue" points="1797.18,-302.29 1788.25,-307.99 1798.79,-309.1 1797.18,-302.29"/>
</g>
<!-- Node35 -->
<g id="node35" class="node">
<title>Node35</title>
<g id="a_node35"><a xlink:href="js_2historical_8cpp.html" target="_top" xlink:title=" ">
<polygon fill="white" stroke="black" points="2086,-241 2086,-260 2196,-260 2196,-241 2086,-241"/>
<text text-anchor="middle" x="2141" y="-248" font-family="Helvetica,sans-Serif" font-size="10.00">src/js/historical.cpp</text>
</a>
</g>
</g>
<!-- Node29&#45;&gt;Node35 -->
<g id="edge53" class="edge">
<title>Node29&#45;&gt;Node35</title>
<path fill="none" stroke="midnightblue" d="M1801.35,-309.91C1865.2,-301.13 1979.77,-284.55 2077,-266 2086.18,-264.25 2096.04,-262.13 2105.21,-260.06"/>
<polygon fill="midnightblue" stroke="midnightblue" points="1800.6,-306.48 1791.17,-311.3 1801.55,-313.41 1800.6,-306.48"/>
</g>
<!-- Node36 -->
<g id="node36" class="node">
<title>Node36</title>
<g id="a_node36"><a xlink:href="openenclave_8cpp.html" target="_top" xlink:title=" ">
<polygon fill="white" stroke="black" points="1374,-241 1374,-260 1502,-260 1502,-241 1374,-241"/>
<text text-anchor="middle" x="1438" y="-248" font-family="Helvetica,sans-Serif" font-size="10.00">src/js/openenclave.cpp</text>
</a>
</g>
</g>
<!-- Node29&#45;&gt;Node36 -->
<g id="edge55" class="edge">
<title>Node29&#45;&gt;Node36</title>
<path fill="none" stroke="midnightblue" d="M1702.99,-306.36C1641.39,-293.6 1536.76,-271.94 1479.12,-260.01"/>
<polygon fill="midnightblue" stroke="midnightblue" points="1702.36,-309.8 1712.87,-308.4 1703.78,-302.94 1702.36,-309.8"/>
</g>
<!-- Node31&#45;&gt;Node32 -->
<g id="edge48" class="edge">
<title>Node31&#45;&gt;Node32</title>
<path fill="none" stroke="midnightblue" d="M1784.04,-237.43C1814.75,-225.87 1860.32,-208.71 1887.4,-198.51"/>
<polygon fill="midnightblue" stroke="midnightblue" points="1782.76,-234.18 1774.64,-240.98 1785.23,-240.73 1782.76,-234.18"/>
</g>
<!-- Node33&#45;&gt;Node32 -->
<g id="edge50" class="edge">
<title>Node33&#45;&gt;Node32</title>
<path fill="none" stroke="midnightblue" d="M1910,-230.82C1910,-220 1910,-206.9 1910,-198.51"/>
<polygon fill="midnightblue" stroke="midnightblue" points="1906.5,-230.98 1910,-240.98 1913.5,-230.98 1906.5,-230.98"/>
</g>
<!-- Node34&#45;&gt;Node32 -->
<g id="edge52" class="edge">
<title>Node34&#45;&gt;Node32</title>
<path fill="none" stroke="midnightblue" d="M1995.43,-236.21C1974.13,-224.69 1943.93,-208.36 1925.73,-198.51"/>
<polygon fill="midnightblue" stroke="midnightblue" points="1993.78,-239.3 2004.24,-240.98 1997.11,-233.14 1993.78,-239.3"/>
</g>
<!-- Node35&#45;&gt;Node32 -->
<g id="edge54" class="edge">
<title>Node35&#45;&gt;Node32</title>
<path fill="none" stroke="midnightblue" d="M2098.17,-238.47C2053.32,-226.91 1983.83,-209.02 1943.04,-198.51"/>
<polygon fill="midnightblue" stroke="midnightblue" points="2097.35,-241.87 2107.9,-240.98 2099.09,-235.09 2097.35,-241.87"/>
</g>
<!-- Node37&#45;&gt;Node5 -->
<g id="edge63" class="edge">
<title>Node37&#45;&gt;Node5</title>
<path fill="none" stroke="midnightblue" d="M1271.31,-302.16C1256.27,-292.15 1235.81,-278.41 1218,-266 1198.67,-252.53 1195.74,-246.18 1175,-235 1145.86,-219.29 1110.04,-206.46 1085.56,-198.57"/>
<polygon fill="midnightblue" stroke="midnightblue" points="1269.64,-305.25 1279.91,-307.87 1273.51,-299.42 1269.64,-305.25"/>
</g>
<!-- Node38&#45;&gt;Node5 -->
<g id="edge65" class="edge">
<title>Node38&#45;&gt;Node5</title>
<path fill="none" stroke="midnightblue" d="M2191.7,-312.58C2277.61,-305.7 2393.01,-286.8 2343,-235 2321.5,-212.74 1373.4,-195.3 1119.17,-191.01"/>
<polygon fill="midnightblue" stroke="midnightblue" points="2191.36,-309.1 2181.65,-313.34 2191.88,-316.08 2191.36,-309.1"/>
</g>
<!-- Node38&#45;&gt;Node21 -->
<g id="edge66" class="edge">
<title>Node38&#45;&gt;Node21</title>
<path fill="none" stroke="midnightblue" d="M2140.22,-304.2C2168.18,-293.19 2209.16,-277.04 2238.39,-265.53"/>
<polygon fill="midnightblue" stroke="midnightblue" points="2138.93,-300.95 2130.91,-307.87 2141.5,-307.46 2138.93,-300.95"/>
</g>
<!-- Node39&#45;&gt;Node5 -->
<g id="edge69" class="edge">
<title>Node39&#45;&gt;Node5</title>
<path fill="none" stroke="midnightblue" d="M1429.95,-360.7C1419.04,-342.21 1401.27,-316.86 1379,-302 1328.06,-268 1300.1,-294.69 1246,-266 1227.35,-256.11 1228.55,-245.09 1210,-235 1176.93,-217 1135.81,-205.42 1104.54,-198.53"/>
<polygon fill="midnightblue" stroke="midnightblue" points="1426.91,-362.43 1434.89,-369.4 1433,-358.98 1426.91,-362.43"/>
</g>
<!-- Node39&#45;&gt;Node21 -->
<g id="edge70" class="edge">
<title>Node39&#45;&gt;Node21</title>
<path fill="none" stroke="midnightblue" d="M1507.31,-381.69C1678.17,-376.57 2129.5,-360.6 2191,-333 2223.61,-318.37 2250.81,-285.01 2264.48,-265.81"/>
<polygon fill="midnightblue" stroke="midnightblue" points="1507.08,-378.19 1497.19,-381.98 1507.29,-385.19 1507.08,-378.19"/>
</g>
<!-- Node39&#45;&gt;Node22 -->
<g id="edge71" class="edge">
<title>Node39&#45;&gt;Node22</title>
<path fill="none" stroke="midnightblue" d="M1376.6,-368.74C1296.52,-351.97 1214.65,-336.34 1164.93,-327.02"/>
<polygon fill="midnightblue" stroke="midnightblue" points="1376.36,-372.27 1386.87,-370.9 1377.8,-365.41 1376.36,-372.27"/>
</g>
<!-- Node39&#45;&gt;Node37 -->
<g id="edge72" class="edge">
<title>Node39&#45;&gt;Node37</title>
<path fill="none" stroke="midnightblue" d="M1400.27,-365.3C1371.53,-352.76 1334.68,-336.68 1312.5,-327.01"/>
<polygon fill="midnightblue" stroke="midnightblue" points="1399.1,-368.61 1409.67,-369.4 1401.9,-362.19 1399.1,-368.61"/>
</g>
<!-- Node39&#45;&gt;Node38 -->
<g id="edge73" class="edge">
<title>Node39&#45;&gt;Node38</title>
<path fill="none" stroke="midnightblue" d="M1507.36,-377.13C1632.62,-364.92 1905.66,-338.32 2036.4,-325.58"/>
<polygon fill="midnightblue" stroke="midnightblue" points="1506.76,-373.67 1497.15,-378.13 1507.44,-380.64 1506.76,-373.67"/>
</g>
</g>
</svg>
