<?xml version="1.0" encoding="UTF-8" standalone="no"?>
<!DOCTYPE svg PUBLIC "-//W3C//DTD SVG 1.1//EN"
 "http://www.w3.org/Graphics/SVG/1.1/DTD/svg11.dtd">
<!-- Generated by graphviz version 2.43.0 (0)
 -->
<!-- Title: ccf::ACMEClientConfig Pages: 1 -->
<svg width="303pt" height="254pt"
 viewBox="0.00 0.00 303.00 254.00" xmlns="http://www.w3.org/2000/svg" xmlns:xlink="http://www.w3.org/1999/xlink">
<g id="graph0" class="graph" transform="scale(1 1) rotate(0) translate(4 250)">
<title>ccf::ACMEClientConfig</title>
<polygon fill="white" stroke="transparent" points="-4,4 -4,-250 299,-250 299,4 -4,4"/>
<!-- Node1 -->
<g id="node1" class="node">
<title>Node1</title>
<g id="a_node1"><a xlink:title=" ">
<polygon fill="#bfbfbf" stroke="black" points="0,-0.5 0,-19.5 124,-19.5 124,-0.5 0,-0.5"/>
<text text-anchor="middle" x="62" y="-7.5" font-family="Helvetica,sans-Serif" font-size="10.00">ccf::ACMEClientConfig</text>
</a>
</g>
</g>
<!-- Node2 -->
<g id="node2" class="node">
<title>Node2</title>
<g id="a_node2"><a xlink:title=" ">
<polygon fill="white" stroke="black" points="155,-85 155,-104 295,-104 295,-85 155,-85"/>
<text text-anchor="middle" x="225" y="-92" font-family="Helvetica,sans-Serif" font-size="10.00">std::vector&lt; std::string &gt;</text>
</a>
</g>
</g>
<!-- Node2&#45;&gt;Node1 -->
<g id="edge1" class="edge">
<title>Node2&#45;&gt;Node1</title>
<path fill="none" stroke="#9a32cd" stroke-dasharray="5,2" d="M198.95,-80.31C165.25,-63.26 107.52,-34.04 78.98,-19.6"/>
<polygon fill="#9a32cd" stroke="#9a32cd" points="197.67,-83.59 208.17,-84.98 200.83,-77.34 197.67,-83.59"/>
<text text-anchor="middle" x="180" y="-52" font-family="Helvetica,sans-Serif" font-size="10.00"> ca_certs</text>
<text text-anchor="middle" x="180" y="-41" font-family="Helvetica,sans-Serif" font-size="10.00">contact</text>
</g>
<!-- Node3 -->
<g id="node3" class="node">
<title>Node3</title>
<g id="a_node3"><a xlink:title=" ">
<polygon fill="white" stroke="black" points="29.5,-158.5 29.5,-177.5 94.5,-177.5 94.5,-158.5 29.5,-158.5"/>
<text text-anchor="middle" x="62" y="-165.5" font-family="Helvetica,sans-Serif" font-size="10.00">std::string</text>
</a>
</g>
</g>
<!-- Node3&#45;&gt;Node1 -->
<g id="edge4" class="edge">
<title>Node3&#45;&gt;Node1</title>
<path fill="none" stroke="#9a32cd" stroke-dasharray="5,2" d="M59.07,-148.3C57.52,-137.44 55.78,-123.48 55,-111 52.89,-77.13 58.06,-36.84 60.64,-19.56"/>
<polygon fill="#9a32cd" stroke="#9a32cd" points="55.63,-148.93 60.57,-158.3 62.55,-147.89 55.63,-148.93"/>
<text text-anchor="middle" x="100.5" y="-103" font-family="Helvetica,sans-Serif" font-size="10.00"> challenge_type</text>
<text text-anchor="middle" x="100.5" y="-92" font-family="Helvetica,sans-Serif" font-size="10.00">directory_url</text>
<text text-anchor="middle" x="100.5" y="-81" font-family="Helvetica,sans-Serif" font-size="10.00">service_dns_name</text>
</g>
<!-- Node3&#45;&gt;Node2 -->
<g id="edge2" class="edge">
<title>Node3&#45;&gt;Node2</title>
<path fill="none" stroke="#9a32cd" stroke-dasharray="5,2" d="M91.23,-154.18C124.28,-139.68 177.16,-116.49 205.52,-104.04"/>
<polygon fill="#9a32cd" stroke="#9a32cd" points="89.41,-151.15 81.66,-158.38 92.23,-157.56 89.41,-151.15"/>
<text text-anchor="middle" x="172.5" y="-132" font-family="Helvetica,sans-Serif" font-size="10.00"> elements</text>
</g>
<!-- Node4 -->
<g id="node4" class="node">
<title>Node4</title>
<g id="a_node4"><a xlink:title=" ">
<polygon fill="white" stroke="black" points="10,-215.5 10,-245.5 114,-245.5 114,-215.5 10,-215.5"/>
<text text-anchor="start" x="18" y="-233.5" font-family="Helvetica,sans-Serif" font-size="10.00">std::basic_string&lt;</text>
<text text-anchor="middle" x="62" y="-222.5" font-family="Helvetica,sans-Serif" font-size="10.00"> Char &gt;</text>
</a>
</g>
</g>
<!-- Node4&#45;&gt;Node3 -->
<g id="edge3" class="edge">
<title>Node4&#45;&gt;Node3</title>
<path fill="none" stroke="midnightblue" d="M62,-205.35C62,-195.51 62,-184.78 62,-177.54"/>
<polygon fill="midnightblue" stroke="midnightblue" points="58.5,-205.47 62,-215.47 65.5,-205.47 58.5,-205.47"/>
</g>
</g>
</svg>
