<?xml version="1.0" encoding="UTF-8" standalone="no"?>
<!DOCTYPE svg PUBLIC "-//W3C//DTD SVG 1.1//EN"
 "http://www.w3.org/Graphics/SVG/1.1/DTD/svg11.dtd">
<!-- Generated by graphviz version 2.43.0 (0)
 -->
<!-- Title: ccf::NodeInfoNetwork_v2::ACME Pages: 1 -->
<svg width="512pt" height="410pt"
 viewBox="0.00 0.00 512.00 410.00" xmlns="http://www.w3.org/2000/svg" xmlns:xlink="http://www.w3.org/1999/xlink">
<g id="graph0" class="graph" transform="scale(1 1) rotate(0) translate(4 406)">
<title>ccf::NodeInfoNetwork_v2::ACME</title>
<polygon fill="white" stroke="transparent" points="-4,4 -4,-406 508,-406 508,4 -4,4"/>
<!-- Node1 -->
<g id="node1" class="node">
<title>Node1</title>
<g id="a_node1"><a xlink:title=" ">
<polygon fill="#bfbfbf" stroke="black" points="0,-0.5 0,-30.5 122,-30.5 122,-0.5 0,-0.5"/>
<text text-anchor="start" x="8" y="-18.5" font-family="Helvetica,sans-Serif" font-size="10.00">ccf::NodeInfoNetwork</text>
<text text-anchor="middle" x="61" y="-7.5" font-family="Helvetica,sans-Serif" font-size="10.00">_v2::ACME</text>
</a>
</g>
</g>
<!-- Node2 -->
<g id="node2" class="node">
<title>Node2</title>
<g id="a_node2"><a xlink:title=" ">
<polygon fill="white" stroke="black" points="140,-78.5 140,-108.5 278,-108.5 278,-78.5 140,-78.5"/>
<text text-anchor="start" x="148" y="-96.5" font-family="Helvetica,sans-Serif" font-size="10.00">std::map&lt; std::string,</text>
<text text-anchor="middle" x="209" y="-85.5" font-family="Helvetica,sans-Serif" font-size="10.00"> ccf::ACMEClientConfig &gt;</text>
</a>
</g>
</g>
<!-- Node2&#45;&gt;Node1 -->
<g id="edge1" class="edge">
<title>Node2&#45;&gt;Node1</title>
<path fill="none" stroke="#9a32cd" stroke-dasharray="5,2" d="M172.34,-73.67C146.33,-60.32 111.97,-42.68 88.34,-30.54"/>
<polygon fill="#9a32cd" stroke="#9a32cd" points="171.01,-76.93 181.51,-78.38 174.21,-70.7 171.01,-76.93"/>
<text text-anchor="middle" x="180.5" y="-52" font-family="Helvetica,sans-Serif" font-size="10.00"> configurations</text>
</g>
<!-- Node3 -->
<g id="node3" class="node">
<title>Node3</title>
<g id="a_node3"><a xlink:title=" ">
<polygon fill="white" stroke="black" points="199.5,-314.5 199.5,-333.5 264.5,-333.5 264.5,-314.5 199.5,-314.5"/>
<text text-anchor="middle" x="232" y="-321.5" font-family="Helvetica,sans-Serif" font-size="10.00">std::string</text>
</a>
</g>
</g>
<!-- Node3&#45;&gt;Node1 -->
<g id="edge8" class="edge">
<title>Node3&#45;&gt;Node1</title>
<path fill="none" stroke="#9a32cd" stroke-dasharray="5,2" d="M189.55,-315.56C134.38,-304.66 45,-282.26 45,-251.5 45,-251.5 45,-251.5 45,-92.5 45,-70.52 51.49,-45.72 56.2,-30.6"/>
<polygon fill="#9a32cd" stroke="#9a32cd" points="188.95,-319.01 199.43,-317.46 190.27,-312.13 188.95,-319.01"/>
<text text-anchor="middle" x="113" y="-163.5" font-family="Helvetica,sans-Serif" font-size="10.00"> challenge_server_interface</text>
</g>
<!-- Node3&#45;&gt;Node2 -->
<g id="edge2" class="edge">
<title>Node3&#45;&gt;Node2</title>
<path fill="none" stroke="#9a32cd" stroke-dasharray="5,2" d="M230.12,-304.31C225.64,-259.79 214.41,-148.24 210.43,-108.69"/>
<polygon fill="#9a32cd" stroke="#9a32cd" points="226.64,-304.72 231.13,-314.32 233.61,-304.02 226.64,-304.72"/>
<text text-anchor="middle" x="235" y="-202.5" font-family="Helvetica,sans-Serif" font-size="10.00"> keys</text>
</g>
<!-- Node5 -->
<g id="node5" class="node">
<title>Node5</title>
<g id="a_node5"><a xlink:href="structccf_1_1ACMEClientConfig.html" target="_top" xlink:title=" ">
<polygon fill="white" stroke="black" points="237,-156.5 237,-175.5 361,-175.5 361,-156.5 237,-156.5"/>
<text text-anchor="middle" x="299" y="-163.5" font-family="Helvetica,sans-Serif" font-size="10.00">ccf::ACMEClientConfig</text>
</a>
</g>
</g>
<!-- Node3&#45;&gt;Node5 -->
<g id="edge7" class="edge">
<title>Node3&#45;&gt;Node5</title>
<path fill="none" stroke="#9a32cd" stroke-dasharray="5,2" d="M237.79,-304.62C243.72,-286.42 253.52,-257.9 264,-234 273.38,-212.61 286.64,-188.57 293.85,-175.91"/>
<polygon fill="#9a32cd" stroke="#9a32cd" points="234.43,-303.66 234.71,-314.26 241.09,-305.8 234.43,-303.66"/>
<text text-anchor="middle" x="309.5" y="-259" font-family="Helvetica,sans-Serif" font-size="10.00"> challenge_type</text>
<text text-anchor="middle" x="309.5" y="-248" font-family="Helvetica,sans-Serif" font-size="10.00">directory_url</text>
<text text-anchor="middle" x="309.5" y="-237" font-family="Helvetica,sans-Serif" font-size="10.00">service_dns_name</text>
</g>
<!-- Node6 -->
<g id="node6" class="node">
<title>Node6</title>
<g id="a_node6"><a xlink:title=" ">
<polygon fill="white" stroke="black" points="364,-241 364,-260 504,-260 504,-241 364,-241"/>
<text text-anchor="middle" x="434" y="-248" font-family="Helvetica,sans-Serif" font-size="10.00">std::vector&lt; std::string &gt;</text>
</a>
</g>
</g>
<!-- Node3&#45;&gt;Node6 -->
<g id="edge6" class="edge">
<title>Node3&#45;&gt;Node6</title>
<path fill="none" stroke="#9a32cd" stroke-dasharray="5,2" d="M265.87,-311.01C306.63,-296.59 374.03,-272.73 409.86,-260.04"/>
<polygon fill="#9a32cd" stroke="#9a32cd" points="264.62,-307.74 256.37,-314.38 266.96,-314.34 264.62,-307.74"/>
<text text-anchor="middle" x="363.5" y="-288" font-family="Helvetica,sans-Serif" font-size="10.00"> elements</text>
</g>
<!-- Node4 -->
<g id="node4" class="node">
<title>Node4</title>
<g id="a_node4"><a xlink:title=" ">
<polygon fill="white" stroke="black" points="180,-371.5 180,-401.5 284,-401.5 284,-371.5 180,-371.5"/>
<text text-anchor="start" x="188" y="-389.5" font-family="Helvetica,sans-Serif" font-size="10.00">std::basic_string&lt;</text>
<text text-anchor="middle" x="232" y="-378.5" font-family="Helvetica,sans-Serif" font-size="10.00"> Char &gt;</text>
</a>
</g>
</g>
<!-- Node4&#45;&gt;Node3 -->
<g id="edge3" class="edge">
<title>Node4&#45;&gt;Node3</title>
<path fill="none" stroke="midnightblue" d="M232,-361.35C232,-351.51 232,-340.78 232,-333.54"/>
<polygon fill="midnightblue" stroke="midnightblue" points="228.5,-361.47 232,-371.47 235.5,-361.47 228.5,-361.47"/>
</g>
<!-- Node5&#45;&gt;Node2 -->
<g id="edge4" class="edge">
<title>Node5&#45;&gt;Node2</title>
<path fill="none" stroke="#9a32cd" stroke-dasharray="5,2" d="M280.01,-150.13C264.37,-137.87 242.33,-120.61 226.97,-108.58"/>
<polygon fill="#9a32cd" stroke="#9a32cd" points="277.93,-152.94 287.96,-156.36 282.25,-147.43 277.93,-152.94"/>
<text text-anchor="middle" x="286.5" y="-130" font-family="Helvetica,sans-Serif" font-size="10.00"> elements</text>
</g>
<!-- Node6&#45;&gt;Node5 -->
<g id="edge5" class="edge">
<title>Node6&#45;&gt;Node5</title>
<path fill="none" stroke="#9a32cd" stroke-dasharray="5,2" d="M411.33,-235.65C383.29,-218.51 336.39,-189.85 313.07,-175.6"/>
<polygon fill="#9a32cd" stroke="#9a32cd" points="409.7,-238.75 420.06,-240.98 413.35,-232.78 409.7,-238.75"/>
<text text-anchor="middle" x="400" y="-208" font-family="Helvetica,sans-Serif" font-size="10.00"> ca_certs</text>
<text text-anchor="middle" x="400" y="-197" font-family="Helvetica,sans-Serif" font-size="10.00">contact</text>
</g>
</g>
</svg>
