<?xml version="1.0" encoding="UTF-8" standalone="no"?>
<!DOCTYPE svg PUBLIC "-//W3C//DTD SVG 1.1//EN"
 "http://www.w3.org/Graphics/SVG/1.1/DTD/svg11.dtd">
<!-- Generated by graphviz version 2.43.0 (0)
 -->
<!-- Title: src/host/tcp.h Pages: 1 -->
<svg width="483pt" height="151pt"
 viewBox="0.00 0.00 482.50 151.00" xmlns="http://www.w3.org/2000/svg" xmlns:xlink="http://www.w3.org/1999/xlink">
<g id="graph0" class="graph" transform="scale(1 1) rotate(0) translate(4 147)">
<title>src/host/tcp.h</title>
<polygon fill="white" stroke="transparent" points="-4,4 -4,-147 478.5,-147 478.5,4 -4,4"/>
<!-- Node1 -->
<g id="node1" class="node">
<title>Node1</title>
<g id="a_node1"><a xlink:title=" ">
<polygon fill="#bfbfbf" stroke="black" points="191.5,-123.5 191.5,-142.5 273.5,-142.5 273.5,-123.5 191.5,-123.5"/>
<text text-anchor="middle" x="232.5" y="-130.5" font-family="Helvetica,sans-Serif" font-size="10.00">src/host/tcp.h</text>
</a>
</g>
</g>
<!-- Node2 -->
<g id="node2" class="node">
<title>Node2</title>
<g id="a_node2"><a xlink:href="acme__challenge__server_8h.html" target="_top" xlink:title=" ">
<polygon fill="white" stroke="black" points="0,-56.5 0,-86.5 137,-86.5 137,-56.5 0,-56.5"/>
<text text-anchor="start" x="8" y="-74.5" font-family="Helvetica,sans-Serif" font-size="10.00">src/host/acme_challenge</text>
<text text-anchor="middle" x="68.5" y="-63.5" font-family="Helvetica,sans-Serif" font-size="10.00">_server.h</text>
</a>
</g>
</g>
<!-- Node1&#45;&gt;Node2 -->
<g id="edge1" class="edge">
<title>Node1&#45;&gt;Node2</title>
<path fill="none" stroke="midnightblue" d="M199.36,-119.98C172.69,-110.3 135.18,-96.69 107.15,-86.52"/>
<polygon fill="midnightblue" stroke="midnightblue" points="198.41,-123.35 209,-123.48 200.8,-116.77 198.41,-123.35"/>
</g>
<!-- Node4 -->
<g id="node4" class="node">
<title>Node4</title>
<g id="a_node4"><a xlink:href="node__connections_8h.html" target="_top" xlink:title=" ">
<polygon fill="white" stroke="black" points="155,-62 155,-81 310,-81 310,-62 155,-62"/>
<text text-anchor="middle" x="232.5" y="-69" font-family="Helvetica,sans-Serif" font-size="10.00">src/host/node_connections.h</text>
</a>
</g>
</g>
<!-- Node1&#45;&gt;Node4 -->
<g id="edge3" class="edge">
<title>Node1&#45;&gt;Node4</title>
<path fill="none" stroke="midnightblue" d="M232.5,-113.32C232.5,-102.5 232.5,-89.4 232.5,-81.01"/>
<polygon fill="midnightblue" stroke="midnightblue" points="229,-113.48 232.5,-123.48 236,-113.48 229,-113.48"/>
</g>
<!-- Node5 -->
<g id="node5" class="node">
<title>Node5</title>
<g id="a_node5"><a xlink:href="rpc__connections_8h.html" target="_top" xlink:title=" ">
<polygon fill="white" stroke="black" points="328.5,-62 328.5,-81 474.5,-81 474.5,-62 328.5,-62"/>
<text text-anchor="middle" x="401.5" y="-69" font-family="Helvetica,sans-Serif" font-size="10.00">src/host/rpc_connections.h</text>
</a>
</g>
</g>
<!-- Node1&#45;&gt;Node5 -->
<g id="edge5" class="edge">
<title>Node1&#45;&gt;Node5</title>
<path fill="none" stroke="midnightblue" d="M266.35,-120.08C299.2,-108.52 348.24,-91.25 377.33,-81.01"/>
<polygon fill="midnightblue" stroke="midnightblue" points="264.98,-116.85 256.71,-123.48 267.31,-123.46 264.98,-116.85"/>
</g>
<!-- Node3 -->
<g id="node3" class="node">
<title>Node3</title>
<g id="a_node3"><a xlink:href="host_2main_8cpp.html" target="_top" xlink:title=" ">
<polygon fill="white" stroke="black" points="181,-0.5 181,-19.5 284,-19.5 284,-0.5 181,-0.5"/>
<text text-anchor="middle" x="232.5" y="-7.5" font-family="Helvetica,sans-Serif" font-size="10.00">src/host/main.cpp</text>
</a>
</g>
</g>
<!-- Node2&#45;&gt;Node3 -->
<g id="edge2" class="edge">
<title>Node2&#45;&gt;Node3</title>
<path fill="none" stroke="midnightblue" d="M116.89,-52.94C147.11,-41.98 184.68,-28.35 208.64,-19.66"/>
<polygon fill="midnightblue" stroke="midnightblue" points="115.57,-49.7 107.37,-56.4 117.96,-56.28 115.57,-49.7"/>
</g>
<!-- Node4&#45;&gt;Node3 -->
<g id="edge4" class="edge">
<title>Node4&#45;&gt;Node3</title>
<path fill="none" stroke="midnightblue" d="M232.5,-51.82C232.5,-41 232.5,-27.9 232.5,-19.51"/>
<polygon fill="midnightblue" stroke="midnightblue" points="229,-51.98 232.5,-61.98 236,-51.98 229,-51.98"/>
</g>
<!-- Node5&#45;&gt;Node3 -->
<g id="edge6" class="edge">
<title>Node5&#45;&gt;Node3</title>
<path fill="none" stroke="midnightblue" d="M367.65,-58.58C334.8,-47.02 285.76,-29.75 256.67,-19.51"/>
<polygon fill="midnightblue" stroke="midnightblue" points="366.69,-61.96 377.29,-61.98 369.02,-55.35 366.69,-61.96"/>
</g>
</g>
</svg>
