<?xml version="1.0" encoding="UTF-8" standalone="no"?>
<!DOCTYPE svg PUBLIC "-//W3C//DTD SVG 1.1//EN"
 "http://www.w3.org/Graphics/SVG/1.1/DTD/svg11.dtd">
<!-- Generated by graphviz version 2.43.0 (0)
 -->
<!-- Title: src/tls/tls.h Pages: 1 -->
<svg width="1340pt" height="990pt"
 viewBox="0.00 0.00 1339.50 990.00" xmlns="http://www.w3.org/2000/svg" xmlns:xlink="http://www.w3.org/1999/xlink">
<g id="graph0" class="graph" transform="scale(1 1) rotate(0) translate(4 986)">
<title>src/tls/tls.h</title>
<polygon fill="white" stroke="transparent" points="-4,4 -4,-986 1335.5,-986 1335.5,4 -4,4"/>
<!-- Node1 -->
<g id="node1" class="node">
<title>Node1</title>
<g id="a_node1"><a xlink:title=" ">
<polygon fill="#bfbfbf" stroke="black" points="945.5,-962.5 945.5,-981.5 1015.5,-981.5 1015.5,-962.5 945.5,-962.5"/>
<text text-anchor="middle" x="980.5" y="-969.5" font-family="Helvetica,sans-Serif" font-size="10.00">src/tls/tls.h</text>
</a>
</g>
</g>
<!-- Node2 -->
<g id="node2" class="node">
<title>Node2</title>
<g id="a_node2"><a xlink:href="tls__endpoint_8h.html" target="_top" xlink:title=" ">
<polygon fill="white" stroke="black" points="849.5,-850.5 849.5,-869.5 993.5,-869.5 993.5,-850.5 849.5,-850.5"/>
<text text-anchor="middle" x="921.5" y="-857.5" font-family="Helvetica,sans-Serif" font-size="10.00">src/enclave/tls_endpoint.h</text>
</a>
</g>
</g>
<!-- Node1&#45;&gt;Node2 -->
<g id="edge1" class="edge">
<title>Node1&#45;&gt;Node2</title>
<path fill="none" stroke="midnightblue" d="M971.02,-953.32C958.17,-929.37 935.74,-887.55 926.11,-869.59"/>
<polygon fill="midnightblue" stroke="midnightblue" points="968.06,-955.21 975.87,-962.37 974.23,-951.9 968.06,-955.21"/>
</g>
<!-- Node37 -->
<g id="node37" class="node">
<title>Node37</title>
<g id="a_node37"><a xlink:href="context_8h.html" target="_top" xlink:title=" ">
<polygon fill="white" stroke="black" points="983,-906.5 983,-925.5 1078,-925.5 1078,-906.5 983,-906.5"/>
<text text-anchor="middle" x="1030.5" y="-913.5" font-family="Helvetica,sans-Serif" font-size="10.00">src/tls/context.h</text>
</a>
</g>
</g>
<!-- Node1&#45;&gt;Node37 -->
<g id="edge60" class="edge">
<title>Node1&#45;&gt;Node37</title>
<path fill="none" stroke="midnightblue" d="M995.58,-954.72C1004.39,-945.2 1015.17,-933.56 1022.4,-925.75"/>
<polygon fill="midnightblue" stroke="midnightblue" points="992.98,-952.37 988.76,-962.08 998.12,-957.12 992.98,-952.37"/>
</g>
<!-- Node3 -->
<g id="node3" class="node">
<title>Node3</title>
<g id="a_node3"><a xlink:href="http__parser_8h.html" target="_top" xlink:title=" ">
<polygon fill="white" stroke="black" points="718.5,-738.5 718.5,-757.5 838.5,-757.5 838.5,-738.5 718.5,-738.5"/>
<text text-anchor="middle" x="778.5" y="-745.5" font-family="Helvetica,sans-Serif" font-size="10.00">src/http/http_parser.h</text>
</a>
</g>
</g>
<!-- Node2&#45;&gt;Node3 -->
<g id="edge2" class="edge">
<title>Node2&#45;&gt;Node3</title>
<path fill="none" stroke="midnightblue" d="M890.22,-846.35C872.84,-838.49 851.39,-827.34 834.5,-814 812.99,-797.01 793.47,-770.87 784.19,-757.5"/>
<polygon fill="midnightblue" stroke="midnightblue" points="888.84,-849.57 899.4,-850.38 891.65,-843.16 888.84,-849.57"/>
</g>
<!-- Node36 -->
<g id="node36" class="node">
<title>Node36</title>
<g id="a_node36"><a xlink:href="http__proc_8h.html" target="_top" xlink:title=" ">
<polygon fill="white" stroke="black" points="844,-794.5 844,-813.5 955,-813.5 955,-794.5 844,-794.5"/>
<text text-anchor="middle" x="899.5" y="-801.5" font-family="Helvetica,sans-Serif" font-size="10.00">src/http/http_proc.h</text>
</a>
</g>
</g>
<!-- Node2&#45;&gt;Node36 -->
<g id="edge58" class="edge">
<title>Node2&#45;&gt;Node36</title>
<path fill="none" stroke="midnightblue" d="M914.04,-840.69C910.33,-831.59 906.02,-821.01 903.07,-813.75"/>
<polygon fill="midnightblue" stroke="midnightblue" points="910.85,-842.14 917.87,-850.08 917.34,-839.5 910.85,-842.14"/>
</g>
<!-- Node4 -->
<g id="node4" class="node">
<title>Node4</title>
<g id="a_node4"><a xlink:href="rpc__tls__client_8h.html" target="_top" xlink:title=" ">
<polygon fill="white" stroke="black" points="374,-615.5 374,-645.5 475,-645.5 475,-615.5 374,-615.5"/>
<text text-anchor="start" x="382" y="-633.5" font-family="Helvetica,sans-Serif" font-size="10.00">src/clients/rpc_tls</text>
<text text-anchor="middle" x="424.5" y="-622.5" font-family="Helvetica,sans-Serif" font-size="10.00">_client.h</text>
</a>
</g>
</g>
<!-- Node3&#45;&gt;Node4 -->
<g id="edge3" class="edge">
<title>Node3&#45;&gt;Node4</title>
<path fill="none" stroke="midnightblue" d="M708.14,-743.13C655.32,-738.23 582.15,-727.14 522.5,-702 489.86,-688.25 457.61,-661.93 439.45,-645.63"/>
<polygon fill="midnightblue" stroke="midnightblue" points="708.15,-746.64 718.42,-744.03 708.76,-739.67 708.15,-746.64"/>
</g>
<!-- Node9 -->
<g id="node9" class="node">
<title>Node9</title>
<g id="a_node9"><a xlink:href="acme__challenge__server_8h.html" target="_top" xlink:title=" ">
<polygon fill="white" stroke="black" points="616,-492.5 616,-522.5 753,-522.5 753,-492.5 616,-492.5"/>
<text text-anchor="start" x="624" y="-510.5" font-family="Helvetica,sans-Serif" font-size="10.00">src/host/acme_challenge</text>
<text text-anchor="middle" x="684.5" y="-499.5" font-family="Helvetica,sans-Serif" font-size="10.00">_server.h</text>
</a>
</g>
</g>
<!-- Node3&#45;&gt;Node9 -->
<g id="edge9" class="edge">
<title>Node3&#45;&gt;Node9</title>
<path fill="none" stroke="midnightblue" d="M760.52,-731.61C740.69,-713.41 709.69,-681.14 695.5,-646 678.46,-603.81 680.65,-548.51 682.92,-522.79"/>
<polygon fill="midnightblue" stroke="midnightblue" points="758.22,-734.25 768.01,-738.29 762.89,-729.02 758.22,-734.25"/>
</g>
<!-- Node11 -->
<g id="node11" class="node">
<title>Node11</title>
<g id="a_node11"><a xlink:href="http__endpoint_8h.html" target="_top" xlink:title=" ">
<polygon fill="white" stroke="black" points="810,-559.5 810,-578.5 943,-578.5 943,-559.5 810,-559.5"/>
<text text-anchor="middle" x="876.5" y="-566.5" font-family="Helvetica,sans-Serif" font-size="10.00">src/http/http_endpoint.h</text>
</a>
</g>
</g>
<!-- Node3&#45;&gt;Node11 -->
<g id="edge11" class="edge">
<title>Node3&#45;&gt;Node11</title>
<path fill="none" stroke="midnightblue" d="M795.42,-731.25C814.28,-712.7 844.26,-680.08 860.5,-646 871.29,-623.36 874.85,-593.5 875.99,-578.86"/>
<polygon fill="midnightblue" stroke="midnightblue" points="792.87,-728.85 788.09,-738.3 797.72,-733.89 792.87,-728.85"/>
</g>
<!-- Node26 -->
<g id="node26" class="node">
<title>Node26</title>
<g id="a_node26"><a xlink:href="http__jwt_8h.html" target="_top" xlink:title=" ">
<polygon fill="white" stroke="black" points="131,-682.5 131,-701.5 236,-701.5 236,-682.5 131,-682.5"/>
<text text-anchor="middle" x="183.5" y="-689.5" font-family="Helvetica,sans-Serif" font-size="10.00">src/http/http_jwt.h</text>
</a>
</g>
</g>
<!-- Node3&#45;&gt;Node26 -->
<g id="edge37" class="edge">
<title>Node3&#45;&gt;Node26</title>
<path fill="none" stroke="midnightblue" d="M708.22,-740.62C587.56,-729.67 343.66,-707.54 236.28,-697.79"/>
<polygon fill="midnightblue" stroke="midnightblue" points="708.17,-744.13 718.45,-741.55 708.81,-737.16 708.17,-744.13"/>
</g>
<!-- Node31 -->
<g id="node31" class="node">
<title>Node31</title>
<g id="a_node31"><a xlink:href="http__rpc__context_8h.html" target="_top" xlink:title=" ">
<polygon fill="white" stroke="black" points="705,-621 705,-640 852,-640 852,-621 705,-621"/>
<text text-anchor="middle" x="778.5" y="-628" font-family="Helvetica,sans-Serif" font-size="10.00">src/http/http_rpc_context.h</text>
</a>
</g>
</g>
<!-- Node3&#45;&gt;Node31 -->
<g id="edge46" class="edge">
<title>Node3&#45;&gt;Node31</title>
<path fill="none" stroke="midnightblue" d="M778.5,-728.16C778.5,-702.87 778.5,-658.94 778.5,-640.28"/>
<polygon fill="midnightblue" stroke="midnightblue" points="775,-728.32 778.5,-738.32 782,-728.32 775,-728.32"/>
</g>
<!-- Node33 -->
<g id="node33" class="node">
<title>Node33</title>
<g id="a_node33"><a xlink:href="http__sig_8h.html" target="_top" xlink:title=" ">
<polygon fill="white" stroke="black" points="531.5,-682.5 531.5,-701.5 635.5,-701.5 635.5,-682.5 531.5,-682.5"/>
<text text-anchor="middle" x="583.5" y="-689.5" font-family="Helvetica,sans-Serif" font-size="10.00">src/http/http_sig.h</text>
</a>
</g>
</g>
<!-- Node3&#45;&gt;Node33 -->
<g id="edge52" class="edge">
<title>Node3&#45;&gt;Node33</title>
<path fill="none" stroke="midnightblue" d="M737.69,-735.7C700.89,-725.51 647.57,-710.74 614.25,-701.52"/>
<polygon fill="midnightblue" stroke="midnightblue" points="737.03,-739.15 747.6,-738.44 738.9,-732.4 737.03,-739.15"/>
</g>
<!-- Node35 -->
<g id="node35" class="node">
<title>Node35</title>
<g id="a_node35"><a xlink:href="acme__client_8h.html" target="_top" xlink:title=" ">
<polygon fill="white" stroke="black" points="907,-682.5 907,-701.5 1036,-701.5 1036,-682.5 907,-682.5"/>
<text text-anchor="middle" x="971.5" y="-689.5" font-family="Helvetica,sans-Serif" font-size="10.00">src/node/acme_client.h</text>
</a>
</g>
</g>
<!-- Node3&#45;&gt;Node35 -->
<g id="edge56" class="edge">
<title>Node3&#45;&gt;Node35</title>
<path fill="none" stroke="midnightblue" d="M818.89,-735.7C855.32,-725.51 908.09,-710.74 941.06,-701.52"/>
<polygon fill="midnightblue" stroke="midnightblue" points="817.77,-732.38 809.08,-738.44 819.65,-739.12 817.77,-732.38"/>
</g>
<!-- Node5 -->
<g id="node5" class="node">
<title>Node5</title>
<g id="a_node5"><a xlink:href="perf__client_8h.html" target="_top" xlink:title=" ">
<polygon fill="white" stroke="black" points="326,-492.5 326,-522.5 437,-522.5 437,-492.5 326,-492.5"/>
<text text-anchor="start" x="334" y="-510.5" font-family="Helvetica,sans-Serif" font-size="10.00">src/clients/perf/perf</text>
<text text-anchor="middle" x="381.5" y="-499.5" font-family="Helvetica,sans-Serif" font-size="10.00">_client.h</text>
</a>
</g>
</g>
<!-- Node4&#45;&gt;Node5 -->
<g id="edge4" class="edge">
<title>Node4&#45;&gt;Node5</title>
<path fill="none" stroke="midnightblue" d="M401.13,-608.02C393.73,-599.75 386.45,-589.7 382.5,-579 375.63,-560.4 377.05,-537.11 379.03,-522.51"/>
<polygon fill="midnightblue" stroke="midnightblue" points="398.72,-610.56 408.16,-615.37 403.78,-605.72 398.72,-610.56"/>
</g>
<!-- Node8 -->
<g id="node8" class="node">
<title>Node8</title>
<g id="a_node8"><a xlink:href="timing_8h.html" target="_top" xlink:title=" ">
<polygon fill="white" stroke="black" points="391.5,-559.5 391.5,-578.5 523.5,-578.5 523.5,-559.5 391.5,-559.5"/>
<text text-anchor="middle" x="457.5" y="-566.5" font-family="Helvetica,sans-Serif" font-size="10.00">src/clients/perf/timing.h</text>
</a>
</g>
</g>
<!-- Node4&#45;&gt;Node8 -->
<g id="edge7" class="edge">
<title>Node4&#45;&gt;Node8</title>
<path fill="none" stroke="midnightblue" d="M437.26,-606.5C442.67,-596.74 448.65,-585.96 452.7,-578.66"/>
<polygon fill="midnightblue" stroke="midnightblue" points="434.11,-604.96 432.32,-615.4 440.23,-608.35 434.11,-604.96"/>
</g>
<!-- Node6 -->
<g id="node6" class="node">
<title>Node6</title>
<g id="a_node6"><a xlink:href="tpcc__client_8cpp.html" target="_top" xlink:title=" ">
<polygon fill="white" stroke="black" points="211.5,-425.5 211.5,-455.5 327.5,-455.5 327.5,-425.5 211.5,-425.5"/>
<text text-anchor="start" x="219.5" y="-443.5" font-family="Helvetica,sans-Serif" font-size="10.00">src/apps/tpcc/clients</text>
<text text-anchor="middle" x="269.5" y="-432.5" font-family="Helvetica,sans-Serif" font-size="10.00">/tpcc_client.cpp</text>
</a>
</g>
</g>
<!-- Node5&#45;&gt;Node6 -->
<g id="edge5" class="edge">
<title>Node5&#45;&gt;Node6</title>
<path fill="none" stroke="midnightblue" d="M348.41,-487.3C330.88,-477.12 309.74,-464.85 293.75,-455.58"/>
<polygon fill="midnightblue" stroke="midnightblue" points="346.79,-490.4 357.2,-492.4 350.31,-484.35 346.79,-490.4"/>
</g>
<!-- Node7 -->
<g id="node7" class="node">
<title>Node7</title>
<g id="a_node7"><a xlink:href="scenario__perf__client_8cpp.html" target="_top" xlink:title=" ">
<polygon fill="white" stroke="black" points="346,-425.5 346,-455.5 479,-455.5 479,-425.5 346,-425.5"/>
<text text-anchor="start" x="354" y="-443.5" font-family="Helvetica,sans-Serif" font-size="10.00">src/clients/perf/scenario</text>
<text text-anchor="middle" x="412.5" y="-432.5" font-family="Helvetica,sans-Serif" font-size="10.00">_perf_client.cpp</text>
</a>
</g>
</g>
<!-- Node5&#45;&gt;Node7 -->
<g id="edge6" class="edge">
<title>Node5&#45;&gt;Node7</title>
<path fill="none" stroke="midnightblue" d="M392.57,-483.28C396.99,-474.02 401.93,-463.66 405.79,-455.58"/>
<polygon fill="midnightblue" stroke="midnightblue" points="389.37,-481.86 388.23,-492.4 395.69,-484.88 389.37,-481.86"/>
</g>
<!-- Node8&#45;&gt;Node5 -->
<g id="edge8" class="edge">
<title>Node8&#45;&gt;Node5</title>
<path fill="none" stroke="midnightblue" d="M438.59,-553.2C426.61,-543.81 411.2,-531.75 399.41,-522.52"/>
<polygon fill="midnightblue" stroke="midnightblue" points="436.58,-556.07 446.61,-559.48 440.89,-550.55 436.58,-556.07"/>
</g>
<!-- Node10 -->
<g id="node10" class="node">
<title>Node10</title>
<g id="a_node10"><a xlink:href="host_2main_8cpp.html" target="_top" xlink:title=" ">
<polygon fill="white" stroke="black" points="650,-431 650,-450 753,-450 753,-431 650,-431"/>
<text text-anchor="middle" x="701.5" y="-438" font-family="Helvetica,sans-Serif" font-size="10.00">src/host/main.cpp</text>
</a>
</g>
</g>
<!-- Node9&#45;&gt;Node10 -->
<g id="edge10" class="edge">
<title>Node9&#45;&gt;Node10</title>
<path fill="none" stroke="midnightblue" d="M690.75,-482.6C693.71,-471.28 697.06,-458.46 699.23,-450.19"/>
<polygon fill="midnightblue" stroke="midnightblue" points="687.33,-481.84 688.19,-492.4 694.11,-483.61 687.33,-481.84"/>
</g>
<!-- Node11&#45;&gt;Node9 -->
<g id="edge36" class="edge">
<title>Node11&#45;&gt;Node9</title>
<path fill="none" stroke="midnightblue" d="M839.34,-556.48C808.03,-546.78 763.14,-532.87 729.75,-522.52"/>
<polygon fill="midnightblue" stroke="midnightblue" points="838.4,-559.86 848.99,-559.48 840.48,-553.17 838.4,-559.86"/>
</g>
<!-- Node12 -->
<g id="node12" class="node">
<title>Node12</title>
<g id="a_node12"><a xlink:href="rpc__sessions_8h.html" target="_top" xlink:title=" ">
<polygon fill="white" stroke="black" points="1022.5,-498 1022.5,-517 1168.5,-517 1168.5,-498 1022.5,-498"/>
<text text-anchor="middle" x="1095.5" y="-505" font-family="Helvetica,sans-Serif" font-size="10.00">src/enclave/rpc_sessions.h</text>
</a>
</g>
</g>
<!-- Node11&#45;&gt;Node12 -->
<g id="edge12" class="edge">
<title>Node11&#45;&gt;Node12</title>
<path fill="none" stroke="midnightblue" d="M917.64,-556.82C960.18,-545.26 1025.67,-527.47 1064.18,-517.01"/>
<polygon fill="midnightblue" stroke="midnightblue" points="916.61,-553.48 907.88,-559.48 918.45,-560.23 916.61,-553.48"/>
</g>
<!-- Node13 -->
<g id="node13" class="node">
<title>Node13</title>
<g id="a_node13"><a xlink:href="enclave_2enclave_8h.html" target="_top" xlink:title=" ">
<polygon fill="white" stroke="black" points="598.5,-56.5 598.5,-75.5 720.5,-75.5 720.5,-56.5 598.5,-56.5"/>
<text text-anchor="middle" x="659.5" y="-63.5" font-family="Helvetica,sans-Serif" font-size="10.00">src/enclave/enclave.h</text>
</a>
</g>
</g>
<!-- Node12&#45;&gt;Node13 -->
<g id="edge13" class="edge">
<title>Node12&#45;&gt;Node13</title>
<path fill="none" stroke="midnightblue" d="M1075.23,-492.05C1050.39,-474.73 1006.64,-445.49 966.5,-425 928.13,-405.41 906.39,-420.03 876.5,-389 826.08,-336.65 859.8,-296.76 821.5,-235 777.51,-164.07 699.42,-98.51 670.59,-75.6"/>
<polygon fill="midnightblue" stroke="midnightblue" points="1073.3,-494.97 1083.49,-497.85 1077.32,-489.24 1073.3,-494.97"/>
</g>
<!-- Node15 -->
<g id="node15" class="node">
<title>Node15</title>
<g id="a_node15"><a xlink:href="ccf__acme__client_8h.html" target="_top" xlink:title=" ">
<polygon fill="white" stroke="black" points="809,-431 809,-450 958,-450 958,-431 809,-431"/>
<text text-anchor="middle" x="883.5" y="-438" font-family="Helvetica,sans-Serif" font-size="10.00">src/node/ccf_acme_client.h</text>
</a>
</g>
</g>
<!-- Node12&#45;&gt;Node15 -->
<g id="edge15" class="edge">
<title>Node12&#45;&gt;Node15</title>
<path fill="none" stroke="midnightblue" d="M1057.76,-494.93C1015.78,-482.06 948.96,-461.57 911.43,-450.06"/>
<polygon fill="midnightblue" stroke="midnightblue" points="1056.76,-498.28 1067.35,-497.87 1058.81,-491.59 1056.76,-498.28"/>
</g>
<!-- Node16 -->
<g id="node16" class="node">
<title>Node16</title>
<g id="a_node16"><a xlink:href="node__state_8h.html" target="_top" xlink:title=" ">
<polygon fill="white" stroke="black" points="955.5,-174 955.5,-193 1079.5,-193 1079.5,-174 955.5,-174"/>
<text text-anchor="middle" x="1017.5" y="-181" font-family="Helvetica,sans-Serif" font-size="10.00">src/node/node_state.h</text>
</a>
</g>
</g>
<!-- Node12&#45;&gt;Node16 -->
<g id="edge33" class="edge">
<title>Node12&#45;&gt;Node16</title>
<path fill="none" stroke="midnightblue" d="M1148.34,-495.38C1206.99,-479.57 1293.5,-444.41 1293.5,-374.5 1293.5,-374.5 1293.5,-374.5 1293.5,-311 1293.5,-276.18 1299.74,-258.98 1274.5,-235 1247.06,-208.92 1146.6,-195.4 1079.71,-189.14"/>
<polygon fill="midnightblue" stroke="midnightblue" points="1147.27,-492.04 1138.46,-497.93 1149.02,-498.82 1147.27,-492.04"/>
</g>
<!-- Node18 -->
<g id="node18" class="node">
<title>Node18</title>
<g id="a_node18"><a xlink:href="node__client_8h.html" target="_top" xlink:title=" ">
<polygon fill="white" stroke="black" points="1032.5,-431 1032.5,-450 1158.5,-450 1158.5,-431 1032.5,-431"/>
<text text-anchor="middle" x="1095.5" y="-438" font-family="Helvetica,sans-Serif" font-size="10.00">src/node/node_client.h</text>
</a>
</g>
</g>
<!-- Node12&#45;&gt;Node18 -->
<g id="edge20" class="edge">
<title>Node12&#45;&gt;Node18</title>
<path fill="none" stroke="midnightblue" d="M1095.5,-487.54C1095.5,-475.17 1095.5,-459.62 1095.5,-450.13"/>
<polygon fill="midnightblue" stroke="midnightblue" points="1092,-487.73 1095.5,-497.73 1099,-487.73 1092,-487.73"/>
</g>
<!-- Node25 -->
<g id="node25" class="node">
<title>Node25</title>
<g id="a_node25"><a xlink:href="resharing_8h.html" target="_top" xlink:title=" ">
<polygon fill="white" stroke="black" points="1149.5,-241 1149.5,-260 1265.5,-260 1265.5,-241 1149.5,-241"/>
<text text-anchor="middle" x="1207.5" y="-248" font-family="Helvetica,sans-Serif" font-size="10.00">src/node/resharing.h</text>
</a>
</g>
</g>
<!-- Node12&#45;&gt;Node25 -->
<g id="edge34" class="edge">
<title>Node12&#45;&gt;Node25</title>
<path fill="none" stroke="midnightblue" d="M1122.41,-492.92C1137.45,-484.16 1155.51,-471.5 1167.5,-456 1215.29,-394.18 1210.91,-291.09 1208.38,-260.39"/>
<polygon fill="midnightblue" stroke="midnightblue" points="1120.56,-489.94 1113.52,-497.86 1123.96,-496.06 1120.56,-489.94"/>
</g>
<!-- Node14 -->
<g id="node14" class="node">
<title>Node14</title>
<g id="a_node14"><a xlink:href="enclave_2main_8cpp.html" target="_top" xlink:title=" ">
<polygon fill="white" stroke="black" points="599.5,-0.5 599.5,-19.5 719.5,-19.5 719.5,-0.5 599.5,-0.5"/>
<text text-anchor="middle" x="659.5" y="-7.5" font-family="Helvetica,sans-Serif" font-size="10.00">src/enclave/main.cpp</text>
</a>
</g>
</g>
<!-- Node13&#45;&gt;Node14 -->
<g id="edge14" class="edge">
<title>Node13&#45;&gt;Node14</title>
<path fill="none" stroke="midnightblue" d="M659.5,-45.8C659.5,-36.91 659.5,-26.78 659.5,-19.75"/>
<polygon fill="midnightblue" stroke="midnightblue" points="656,-46.08 659.5,-56.08 663,-46.08 656,-46.08"/>
</g>
<!-- Node15&#45;&gt;Node16 -->
<g id="edge16" class="edge">
<title>Node15&#45;&gt;Node16</title>
<path fill="none" stroke="midnightblue" d="M877.58,-420.88C873.21,-403.99 869.17,-378.64 876.5,-358 903.26,-282.65 978.25,-216.22 1006.53,-193.15"/>
<polygon fill="midnightblue" stroke="midnightblue" points="874.26,-421.99 880.39,-430.63 880.99,-420.05 874.26,-421.99"/>
</g>
<!-- Node16&#45;&gt;Node13 -->
<g id="edge17" class="edge">
<title>Node16&#45;&gt;Node13</title>
<path fill="none" stroke="midnightblue" d="M1025.34,-164.2C1030.73,-148.43 1034.91,-126.04 1022.5,-112 1002.87,-89.78 818.7,-76.03 720.51,-70.22"/>
<polygon fill="midnightblue" stroke="midnightblue" points="1021.94,-163.29 1021.6,-173.88 1028.47,-165.81 1021.94,-163.29"/>
</g>
<!-- Node17 -->
<g id="node17" class="node">
<title>Node17</title>
<g id="a_node17"><a xlink:href="gov__effects_8h.html" target="_top" xlink:title=" ">
<polygon fill="white" stroke="black" points="869.5,-112.5 869.5,-131.5 1013.5,-131.5 1013.5,-112.5 869.5,-112.5"/>
<text text-anchor="middle" x="941.5" y="-119.5" font-family="Helvetica,sans-Serif" font-size="10.00">src/node/rpc/gov_effects.h</text>
</a>
</g>
</g>
<!-- Node16&#45;&gt;Node17 -->
<g id="edge18" class="edge">
<title>Node16&#45;&gt;Node17</title>
<path fill="none" stroke="midnightblue" d="M998.72,-167.79C984.14,-156.38 964.44,-140.96 952.37,-131.51"/>
<polygon fill="midnightblue" stroke="midnightblue" points="996.58,-170.57 1006.61,-173.98 1000.89,-165.05 996.58,-170.57"/>
</g>
<!-- Node17&#45;&gt;Node13 -->
<g id="edge19" class="edge">
<title>Node17&#45;&gt;Node13</title>
<path fill="none" stroke="midnightblue" d="M886.86,-110.54C833.56,-100.33 753.5,-85 703.97,-75.52"/>
<polygon fill="midnightblue" stroke="midnightblue" points="886.34,-114 896.82,-112.44 887.65,-107.13 886.34,-114"/>
</g>
<!-- Node19 -->
<g id="node19" class="node">
<title>Node19</title>
<g id="a_node19"><a xlink:href="orc__requests_8h.html" target="_top" xlink:title=" ">
<polygon fill="white" stroke="black" points="886,-358.5 886,-388.5 1005,-388.5 1005,-358.5 886,-358.5"/>
<text text-anchor="start" x="894" y="-376.5" font-family="Helvetica,sans-Serif" font-size="10.00">src/consensus/aft/orc</text>
<text text-anchor="middle" x="945.5" y="-365.5" font-family="Helvetica,sans-Serif" font-size="10.00">_requests.h</text>
</a>
</g>
</g>
<!-- Node18&#45;&gt;Node19 -->
<g id="edge21" class="edge">
<title>Node18&#45;&gt;Node19</title>
<path fill="none" stroke="midnightblue" d="M1066.12,-426.77C1040.73,-415.77 1004.1,-399.89 977.87,-388.53"/>
<polygon fill="midnightblue" stroke="midnightblue" points="1065.01,-430.1 1075.58,-430.87 1067.8,-423.68 1065.01,-430.1"/>
</g>
<!-- Node20 -->
<g id="node20" class="node">
<title>Node20</title>
<g id="a_node20"><a xlink:href="raft_8h.html" target="_top" xlink:title=" ">
<polygon fill="white" stroke="black" points="976,-302.5 976,-321.5 1105,-321.5 1105,-302.5 976,-302.5"/>
<text text-anchor="middle" x="1040.5" y="-309.5" font-family="Helvetica,sans-Serif" font-size="10.00">src/consensus/aft/raft.h</text>
</a>
</g>
</g>
<!-- Node18&#45;&gt;Node20 -->
<g id="edge28" class="edge">
<title>Node18&#45;&gt;Node20</title>
<path fill="none" stroke="midnightblue" d="M1123.08,-425.9C1137.04,-417.4 1152.67,-405 1160.5,-389 1166.56,-376.62 1168.35,-369.32 1160.5,-358 1147.26,-338.89 1124.83,-327.88 1102.92,-321.55"/>
<polygon fill="midnightblue" stroke="midnightblue" points="1121.2,-422.94 1114.24,-430.93 1124.66,-429.03 1121.2,-422.94"/>
</g>
<!-- Node23 -->
<g id="node23" class="node">
<title>Node23</title>
<g id="a_node23"><a xlink:href="http__node__client_8h.html" target="_top" xlink:title=" ">
<polygon fill="white" stroke="black" points="1021.5,-235.5 1021.5,-265.5 1131.5,-265.5 1131.5,-235.5 1021.5,-235.5"/>
<text text-anchor="start" x="1029.5" y="-253.5" font-family="Helvetica,sans-Serif" font-size="10.00">src/node/http_node</text>
<text text-anchor="middle" x="1076.5" y="-242.5" font-family="Helvetica,sans-Serif" font-size="10.00">_client.h</text>
</a>
</g>
</g>
<!-- Node18&#45;&gt;Node23 -->
<g id="edge29" class="edge">
<title>Node18&#45;&gt;Node23</title>
<path fill="none" stroke="midnightblue" d="M1130.99,-426.91C1147.99,-418.87 1166.73,-406.61 1176.5,-389 1183.19,-376.95 1181.57,-370.81 1176.5,-358 1160.54,-317.67 1121.28,-283.7 1096.97,-265.59"/>
<polygon fill="midnightblue" stroke="midnightblue" points="1129.55,-423.72 1121.8,-430.94 1132.36,-430.13 1129.55,-423.72"/>
</g>
<!-- Node24 -->
<g id="node24" class="node">
<title>Node24</title>
<g id="a_node24"><a xlink:href="retired__nodes__cleanup_8h.html" target="_top" xlink:title=" ">
<polygon fill="white" stroke="black" points="1023.5,-358.5 1023.5,-388.5 1151.5,-388.5 1151.5,-358.5 1023.5,-358.5"/>
<text text-anchor="start" x="1031.5" y="-376.5" font-family="Helvetica,sans-Serif" font-size="10.00">src/node/retired_nodes</text>
<text text-anchor="middle" x="1087.5" y="-365.5" font-family="Helvetica,sans-Serif" font-size="10.00">_cleanup.h</text>
</a>
</g>
</g>
<!-- Node18&#45;&gt;Node24 -->
<g id="edge31" class="edge">
<title>Node18&#45;&gt;Node24</title>
<path fill="none" stroke="midnightblue" d="M1093.19,-420.74C1091.93,-410.49 1090.39,-398 1089.23,-388.59"/>
<polygon fill="midnightblue" stroke="midnightblue" points="1089.73,-421.24 1094.42,-430.73 1096.67,-420.38 1089.73,-421.24"/>
</g>
<!-- Node19&#45;&gt;Node20 -->
<g id="edge22" class="edge">
<title>Node19&#45;&gt;Node20</title>
<path fill="none" stroke="midnightblue" d="M976.52,-353.07C993.46,-342.46 1013.58,-329.86 1026.68,-321.66"/>
<polygon fill="midnightblue" stroke="midnightblue" points="974.63,-350.13 968.01,-358.4 978.35,-356.06 974.63,-350.13"/>
</g>
<!-- Node21 -->
<g id="node21" class="node">
<title>Node21</title>
<g id="a_node21"><a xlink:href="node__frontend_8h.html" target="_top" xlink:title=" ">
<polygon fill="white" stroke="black" points="595.5,-302.5 595.5,-321.5 753.5,-321.5 753.5,-302.5 595.5,-302.5"/>
<text text-anchor="middle" x="674.5" y="-309.5" font-family="Helvetica,sans-Serif" font-size="10.00">src/node/rpc/node_frontend.h</text>
</a>
</g>
</g>
<!-- Node19&#45;&gt;Node21 -->
<g id="edge24" class="edge">
<title>Node19&#45;&gt;Node21</title>
<path fill="none" stroke="midnightblue" d="M875.92,-357.22C824.21,-345.87 755.56,-330.8 713.24,-321.51"/>
<polygon fill="midnightblue" stroke="midnightblue" points="875.17,-360.64 885.69,-359.37 876.68,-353.81 875.17,-360.64"/>
</g>
<!-- Node20&#45;&gt;Node16 -->
<g id="edge23" class="edge">
<title>Node20&#45;&gt;Node16</title>
<path fill="none" stroke="midnightblue" d="M1026.99,-294.3C1021.33,-286.25 1015.4,-276.16 1012.5,-266 1005.18,-240.37 1011.31,-208.43 1015.08,-193.27"/>
<polygon fill="midnightblue" stroke="midnightblue" points="1024.28,-296.52 1033.09,-302.41 1029.88,-292.31 1024.28,-296.52"/>
</g>
<!-- Node21&#45;&gt;Node13 -->
<g id="edge25" class="edge">
<title>Node21&#45;&gt;Node13</title>
<path fill="none" stroke="midnightblue" d="M673.34,-292.09C670.29,-242.57 662.18,-110.52 660.03,-75.58"/>
<polygon fill="midnightblue" stroke="midnightblue" points="669.86,-292.55 673.97,-302.32 676.85,-292.12 669.86,-292.55"/>
</g>
<!-- Node22 -->
<g id="node22" class="node">
<title>Node22</title>
<g id="a_node22"><a xlink:href="jwt__key__auto__refresh_8h.html" target="_top" xlink:title=" ">
<polygon fill="white" stroke="black" points="688,-235.5 688,-265.5 813,-265.5 813,-235.5 688,-235.5"/>
<text text-anchor="start" x="696" y="-253.5" font-family="Helvetica,sans-Serif" font-size="10.00">src/node/jwt_key_auto</text>
<text text-anchor="middle" x="750.5" y="-242.5" font-family="Helvetica,sans-Serif" font-size="10.00">_refresh.h</text>
</a>
</g>
</g>
<!-- Node21&#45;&gt;Node22 -->
<g id="edge26" class="edge">
<title>Node21&#45;&gt;Node22</title>
<path fill="none" stroke="midnightblue" d="M693.41,-296.2C705.39,-286.81 720.8,-274.75 732.59,-265.52"/>
<polygon fill="midnightblue" stroke="midnightblue" points="691.11,-293.55 685.39,-302.48 695.42,-299.07 691.11,-293.55"/>
</g>
<!-- Node22&#45;&gt;Node16 -->
<g id="edge27" class="edge">
<title>Node22&#45;&gt;Node16</title>
<path fill="none" stroke="midnightblue" d="M817.99,-233.07C870.35,-220.32 940.81,-203.17 982.47,-193.03"/>
<polygon fill="midnightblue" stroke="midnightblue" points="816.99,-229.71 808.11,-235.48 818.65,-236.51 816.99,-229.71"/>
</g>
<!-- Node23&#45;&gt;Node16 -->
<g id="edge30" class="edge">
<title>Node23&#45;&gt;Node16</title>
<path fill="none" stroke="midnightblue" d="M1056.67,-227.66C1045.97,-215.86 1033.35,-201.97 1025.39,-193.19"/>
<polygon fill="midnightblue" stroke="midnightblue" points="1054.39,-230.34 1063.7,-235.4 1059.57,-225.64 1054.39,-230.34"/>
</g>
<!-- Node24&#45;&gt;Node20 -->
<g id="edge32" class="edge">
<title>Node24&#45;&gt;Node20</title>
<path fill="none" stroke="midnightblue" d="M1070.05,-350.4C1062.15,-340.41 1053.28,-329.18 1047.34,-321.66"/>
<polygon fill="midnightblue" stroke="midnightblue" points="1067.42,-352.72 1076.36,-358.4 1072.91,-348.38 1067.42,-352.72"/>
</g>
<!-- Node25&#45;&gt;Node16 -->
<g id="edge35" class="edge">
<title>Node25&#45;&gt;Node16</title>
<path fill="none" stroke="midnightblue" d="M1172.72,-237.6C1135.05,-224.71 1075.88,-204.47 1042.53,-193.06"/>
<polygon fill="midnightblue" stroke="midnightblue" points="1171.67,-240.94 1182.27,-240.87 1173.94,-234.32 1171.67,-240.94"/>
</g>
<!-- Node27 -->
<g id="node27" class="node">
<title>Node27</title>
<g id="a_node27"><a xlink:href="jwt__auth_8cpp.html" target="_top" xlink:title=" ">
<polygon fill="white" stroke="black" points="0,-615.5 0,-645.5 155,-645.5 155,-615.5 0,-615.5"/>
<text text-anchor="start" x="8" y="-633.5" font-family="Helvetica,sans-Serif" font-size="10.00">src/endpoints/authentication</text>
<text text-anchor="middle" x="77.5" y="-622.5" font-family="Helvetica,sans-Serif" font-size="10.00">/jwt_auth.cpp</text>
</a>
</g>
</g>
<!-- Node26&#45;&gt;Node27 -->
<g id="edge38" class="edge">
<title>Node26&#45;&gt;Node27</title>
<path fill="none" stroke="midnightblue" d="M159.52,-677.54C142.51,-667.99 119.72,-655.2 102.48,-645.52"/>
<polygon fill="midnightblue" stroke="midnightblue" points="157.88,-680.63 168.31,-682.48 161.31,-674.53 157.88,-680.63"/>
</g>
<!-- Node28 -->
<g id="node28" class="node">
<title>Node28</title>
<g id="a_node28"><a xlink:href="frontend_8h.html" target="_top" xlink:title=" ">
<polygon fill="white" stroke="black" points="410,-364 410,-383 539,-383 539,-364 410,-364"/>
<text text-anchor="middle" x="474.5" y="-371" font-family="Helvetica,sans-Serif" font-size="10.00">src/node/rpc/frontend.h</text>
</a>
</g>
</g>
<!-- Node26&#45;&gt;Node28 -->
<g id="edge39" class="edge">
<title>Node26&#45;&gt;Node28</title>
<path fill="none" stroke="midnightblue" d="M183.5,-672.44C183.5,-648.69 183.5,-606.29 183.5,-570 183.5,-570 183.5,-570 183.5,-506.5 183.5,-469.31 175.61,-450.7 202.5,-425 231.58,-397.21 339.05,-384.17 409.88,-378.47"/>
<polygon fill="midnightblue" stroke="midnightblue" points="180,-672.49 183.5,-682.49 187,-672.49 180,-672.49"/>
</g>
<!-- Node28&#45;&gt;Node16 -->
<g id="edge40" class="edge">
<title>Node28&#45;&gt;Node16</title>
<path fill="none" stroke="midnightblue" d="M491.64,-356.94C524.91,-327.69 601.75,-264.81 678.5,-235 770.57,-199.24 885.78,-188.62 955.4,-185.58"/>
<polygon fill="midnightblue" stroke="midnightblue" points="488.94,-354.66 483.79,-363.92 493.59,-359.89 488.94,-354.66"/>
</g>
<!-- Node28&#45;&gt;Node21 -->
<g id="edge43" class="edge">
<title>Node28&#45;&gt;Node21</title>
<path fill="none" stroke="midnightblue" d="M513.06,-361.03C551.93,-349.46 611.02,-331.88 645.9,-321.51"/>
<polygon fill="midnightblue" stroke="midnightblue" points="511.74,-357.77 503.16,-363.98 513.74,-364.48 511.74,-357.77"/>
</g>
<!-- Node29 -->
<g id="node29" class="node">
<title>Node29</title>
<g id="a_node29"><a xlink:href="member__frontend_8h.html" target="_top" xlink:title=" ">
<polygon fill="white" stroke="black" points="317.5,-168.5 317.5,-198.5 437.5,-198.5 437.5,-168.5 317.5,-168.5"/>
<text text-anchor="start" x="325.5" y="-186.5" font-family="Helvetica,sans-Serif" font-size="10.00">src/node/rpc/member</text>
<text text-anchor="middle" x="377.5" y="-175.5" font-family="Helvetica,sans-Serif" font-size="10.00">_frontend.h</text>
</a>
</g>
</g>
<!-- Node28&#45;&gt;Node29 -->
<g id="edge41" class="edge">
<title>Node28&#45;&gt;Node29</title>
<path fill="none" stroke="midnightblue" d="M465.39,-354.84C446.27,-317.78 402.28,-232.53 384.83,-198.7"/>
<polygon fill="midnightblue" stroke="midnightblue" points="462.38,-356.65 470.08,-363.93 468.61,-353.44 462.38,-356.65"/>
</g>
<!-- Node30 -->
<g id="node30" class="node">
<title>Node30</title>
<g id="a_node30"><a xlink:href="user__frontend_8h.html" target="_top" xlink:title=" ">
<polygon fill="white" stroke="black" points="397,-112.5 397,-131.5 552,-131.5 552,-112.5 397,-112.5"/>
<text text-anchor="middle" x="474.5" y="-119.5" font-family="Helvetica,sans-Serif" font-size="10.00">src/node/rpc/user_frontend.h</text>
</a>
</g>
</g>
<!-- Node28&#45;&gt;Node30 -->
<g id="edge44" class="edge">
<title>Node28&#45;&gt;Node30</title>
<path fill="none" stroke="midnightblue" d="M474.5,-353.84C474.5,-303.64 474.5,-167.1 474.5,-131.55"/>
<polygon fill="midnightblue" stroke="midnightblue" points="471,-353.91 474.5,-363.91 478,-353.91 471,-353.91"/>
</g>
<!-- Node29&#45;&gt;Node13 -->
<g id="edge42" class="edge">
<title>Node29&#45;&gt;Node13</title>
<path fill="none" stroke="midnightblue" d="M374.27,-157.93C373.71,-142.72 375.89,-123.88 387.5,-112 416.02,-82.82 527.2,-72.55 598.29,-68.94"/>
<polygon fill="midnightblue" stroke="midnightblue" points="370.8,-158.51 375.05,-168.22 377.78,-157.98 370.8,-158.51"/>
</g>
<!-- Node30&#45;&gt;Node13 -->
<g id="edge45" class="edge">
<title>Node30&#45;&gt;Node13</title>
<path fill="none" stroke="midnightblue" d="M513.67,-109.57C548.57,-99.38 598.85,-84.7 630.32,-75.52"/>
<polygon fill="midnightblue" stroke="midnightblue" points="512.43,-106.28 503.81,-112.44 514.39,-113 512.43,-106.28"/>
</g>
<!-- Node31&#45;&gt;Node11 -->
<g id="edge47" class="edge">
<title>Node31&#45;&gt;Node11</title>
<path fill="none" stroke="midnightblue" d="M801.16,-615.74C820.09,-604.25 846.49,-588.22 862.49,-578.51"/>
<polygon fill="midnightblue" stroke="midnightblue" points="799.27,-612.79 792.54,-620.98 802.91,-618.78 799.27,-612.79"/>
</g>
<!-- Node31&#45;&gt;Node22 -->
<g id="edge48" class="edge">
<title>Node31&#45;&gt;Node22</title>
<path fill="none" stroke="midnightblue" d="M779.25,-610.94C780.13,-587.2 781.5,-544.8 781.5,-508.5 781.5,-508.5 781.5,-508.5 781.5,-372.5 781.5,-332.82 765.66,-288.04 756.62,-265.73"/>
<polygon fill="midnightblue" stroke="midnightblue" points="775.75,-610.87 778.86,-620.99 782.74,-611.14 775.75,-610.87"/>
</g>
<!-- Node32 -->
<g id="node32" class="node">
<title>Node32</title>
<g id="a_node32"><a xlink:href="forwarder_8h.html" target="_top" xlink:title=" ">
<polygon fill="white" stroke="black" points="497.5,-431 497.5,-450 631.5,-450 631.5,-431 497.5,-431"/>
<text text-anchor="middle" x="564.5" y="-438" font-family="Helvetica,sans-Serif" font-size="10.00">src/node/rpc/forwarder.h</text>
</a>
</g>
</g>
<!-- Node31&#45;&gt;Node32 -->
<g id="edge49" class="edge">
<title>Node31&#45;&gt;Node32</title>
<path fill="none" stroke="midnightblue" d="M748.12,-616.85C710.8,-600.06 647.42,-567.27 606.5,-523 585.75,-500.56 572.5,-465.93 567.17,-450.03"/>
<polygon fill="midnightblue" stroke="midnightblue" points="746.9,-620.14 757.47,-620.97 749.73,-613.74 746.9,-620.14"/>
</g>
<!-- Node32&#45;&gt;Node13 -->
<g id="edge50" class="edge">
<title>Node32&#45;&gt;Node13</title>
<path fill="none" stroke="midnightblue" d="M566.67,-420.52C569.91,-393.84 576.71,-343.83 586.5,-302 607.53,-212.15 645.04,-106.62 656.25,-75.84"/>
<polygon fill="midnightblue" stroke="midnightblue" points="563.16,-420.39 565.46,-430.73 570.11,-421.21 563.16,-420.39"/>
</g>
<!-- Node32&#45;&gt;Node28 -->
<g id="edge51" class="edge">
<title>Node32&#45;&gt;Node28</title>
<path fill="none" stroke="midnightblue" d="M543.82,-424.57C526.06,-411.74 501.06,-393.69 486.45,-383.13"/>
<polygon fill="midnightblue" stroke="midnightblue" points="542.21,-427.72 552.36,-430.73 546.3,-422.04 542.21,-427.72"/>
</g>
<!-- Node33&#45;&gt;Node4 -->
<g id="edge53" class="edge">
<title>Node33&#45;&gt;Node4</title>
<path fill="none" stroke="midnightblue" d="M551.03,-678.85C525.2,-669.18 489.03,-655.65 461.97,-645.52"/>
<polygon fill="midnightblue" stroke="midnightblue" points="550.13,-682.25 560.72,-682.48 552.58,-675.69 550.13,-682.25"/>
</g>
<!-- Node33&#45;&gt;Node31 -->
<g id="edge55" class="edge">
<title>Node33&#45;&gt;Node31</title>
<path fill="none" stroke="midnightblue" d="M621.1,-679.53C658.99,-667.96 716.61,-650.38 750.61,-640.01"/>
<polygon fill="midnightblue" stroke="midnightblue" points="619.98,-676.21 611.44,-682.48 622.02,-682.9 619.98,-676.21"/>
</g>
<!-- Node34 -->
<g id="node34" class="node">
<title>Node34</title>
<g id="a_node34"><a xlink:href="sig__auth_8cpp.html" target="_top" xlink:title=" ">
<polygon fill="white" stroke="black" points="493,-615.5 493,-645.5 648,-645.5 648,-615.5 493,-615.5"/>
<text text-anchor="start" x="501" y="-633.5" font-family="Helvetica,sans-Serif" font-size="10.00">src/endpoints/authentication</text>
<text text-anchor="middle" x="570.5" y="-622.5" font-family="Helvetica,sans-Serif" font-size="10.00">/sig_auth.cpp</text>
</a>
</g>
</g>
<!-- Node33&#45;&gt;Node34 -->
<g id="edge54" class="edge">
<title>Node33&#45;&gt;Node34</title>
<path fill="none" stroke="midnightblue" d="M579.46,-672.53C577.56,-663.81 575.33,-653.59 573.56,-645.52"/>
<polygon fill="midnightblue" stroke="midnightblue" points="576.08,-673.45 581.64,-682.48 582.92,-671.96 576.08,-673.45"/>
</g>
<!-- Node35&#45;&gt;Node15 -->
<g id="edge57" class="edge">
<title>Node35&#45;&gt;Node15</title>
<path fill="none" stroke="midnightblue" d="M970.84,-672.07C969.44,-645.94 965.08,-597.69 951.5,-559 936.05,-514.97 903.82,-468.76 890.01,-450.08"/>
<polygon fill="midnightblue" stroke="midnightblue" points="967.36,-672.56 971.3,-682.4 974.35,-672.25 967.36,-672.56"/>
</g>
<!-- Node36&#45;&gt;Node3 -->
<g id="edge59" class="edge">
<title>Node36&#45;&gt;Node3</title>
<path fill="none" stroke="midnightblue" d="M871.19,-790.37C848.53,-780.26 817.37,-766.35 797.58,-757.52"/>
<polygon fill="midnightblue" stroke="midnightblue" points="869.77,-793.56 880.33,-794.44 872.62,-787.17 869.77,-793.56"/>
</g>
<!-- Node37&#45;&gt;Node2 -->
<g id="edge62" class="edge">
<title>Node37&#45;&gt;Node2</title>
<path fill="none" stroke="midnightblue" d="M1003.98,-901.86C983.77,-891.85 956.51,-878.35 938.97,-869.65"/>
<polygon fill="midnightblue" stroke="midnightblue" points="1002.47,-905.02 1012.99,-906.32 1005.58,-898.75 1002.47,-905.02"/>
</g>
<!-- Node37&#45;&gt;Node12 -->
<g id="edge61" class="edge">
<title>Node37&#45;&gt;Node12</title>
<path fill="none" stroke="midnightblue" d="M1048.99,-899.63C1070.32,-880.06 1102.5,-844.06 1102.5,-805 1102.5,-805 1102.5,-805 1102.5,-629.5 1102.5,-587.42 1098.23,-537.24 1096.36,-517.3"/>
<polygon fill="midnightblue" stroke="midnightblue" points="1046.62,-897.06 1041.44,-906.3 1051.25,-902.3 1046.62,-897.06"/>
</g>
<!-- Node38 -->
<g id="node38" class="node">
<title>Node38</title>
<g id="a_node38"><a xlink:href="client_8h.html" target="_top" xlink:title=" ">
<polygon fill="white" stroke="black" points="1131,-559.5 1131,-578.5 1216,-578.5 1216,-559.5 1131,-559.5"/>
<text text-anchor="middle" x="1173.5" y="-566.5" font-family="Helvetica,sans-Serif" font-size="10.00">src/tls/client.h</text>
</a>
</g>
</g>
<!-- Node37&#45;&gt;Node38 -->
<g id="edge63" class="edge">
<title>Node37&#45;&gt;Node38</title>
<path fill="none" stroke="midnightblue" d="M1064.33,-902.5C1101.65,-886.26 1156.5,-854.05 1156.5,-805 1156.5,-805 1156.5,-805 1156.5,-691 1156.5,-648.57 1166.88,-598.59 1171.42,-578.75"/>
<polygon fill="midnightblue" stroke="midnightblue" points="1062.68,-899.39 1054.79,-906.47 1065.37,-905.86 1062.68,-899.39"/>
</g>
<!-- Node39 -->
<g id="node39" class="node">
<title>Node39</title>
<g id="a_node39"><a xlink:href="server_8h.html" target="_top" xlink:title=" ">
<polygon fill="white" stroke="black" points="986.5,-794.5 986.5,-813.5 1074.5,-813.5 1074.5,-794.5 986.5,-794.5"/>
<text text-anchor="middle" x="1030.5" y="-801.5" font-family="Helvetica,sans-Serif" font-size="10.00">src/tls/server.h</text>
</a>
</g>
</g>
<!-- Node37&#45;&gt;Node39 -->
<g id="edge66" class="edge">
<title>Node37&#45;&gt;Node39</title>
<path fill="none" stroke="midnightblue" d="M1030.5,-896.35C1030.5,-872.25 1030.5,-831.31 1030.5,-813.59"/>
<polygon fill="midnightblue" stroke="midnightblue" points="1027,-896.37 1030.5,-906.37 1034,-896.37 1027,-896.37"/>
</g>
<!-- Node38&#45;&gt;Node12 -->
<g id="edge64" class="edge">
<title>Node38&#45;&gt;Node12</title>
<path fill="none" stroke="midnightblue" d="M1154.22,-553.29C1139.26,-541.88 1119.04,-526.46 1106.65,-517.01"/>
<polygon fill="midnightblue" stroke="midnightblue" points="1152.25,-556.19 1162.32,-559.48 1156.5,-550.63 1152.25,-556.19"/>
</g>
<!-- Node38&#45;&gt;Node16 -->
<g id="edge65" class="edge">
<title>Node38&#45;&gt;Node16</title>
<path fill="none" stroke="midnightblue" d="M1212.03,-556.09C1258.8,-538.96 1331.5,-502.52 1331.5,-441.5 1331.5,-441.5 1331.5,-441.5 1331.5,-311 1331.5,-274 1326.64,-257.81 1297.5,-235 1264.39,-209.08 1151.48,-195.3 1079.56,-188.98"/>
<polygon fill="midnightblue" stroke="midnightblue" points="1210.75,-552.83 1202.48,-559.46 1213.07,-559.44 1210.75,-552.83"/>
</g>
<!-- Node39&#45;&gt;Node12 -->
<g id="edge67" class="edge">
<title>Node39&#45;&gt;Node12</title>
<path fill="none" stroke="midnightblue" d="M1039.56,-785.34C1049.63,-764.03 1064.5,-726.84 1064.5,-693 1064.5,-693 1064.5,-693 1064.5,-629.5 1064.5,-586.13 1083.42,-536.67 1091.7,-517.11"/>
<polygon fill="midnightblue" stroke="midnightblue" points="1036.36,-783.92 1035.09,-794.44 1042.64,-787.01 1036.36,-783.92"/>
</g>
</g>
</svg>
