<?xml version="1.0" encoding="UTF-8" standalone="no"?>
<!DOCTYPE svg PUBLIC "-//W3C//DTD SVG 1.1//EN"
 "http://www.w3.org/Graphics/SVG/1.1/DTD/svg11.dtd">
<!-- Generated by graphviz version 2.43.0 (0)
 -->
<!-- Title: src/tls/msg_types.h Pages: 1 -->
<svg width="1143pt" height="945pt"
 viewBox="0.00 0.00 1143.06 945.00" xmlns="http://www.w3.org/2000/svg" xmlns:xlink="http://www.w3.org/1999/xlink">
<g id="graph0" class="graph" transform="scale(1 1) rotate(0) translate(4 941)">
<title>src/tls/msg_types.h</title>
<polygon fill="white" stroke="transparent" points="-4,4 -4,-941 1139.06,-941 1139.06,4 -4,4"/>
<!-- Node1 -->
<g id="node1" class="node">
<title>Node1</title>
<g id="a_node1"><a xlink:title=" ">
<polygon fill="#bfbfbf" stroke="black" points="694.06,-917.5 694.06,-936.5 805.06,-936.5 805.06,-917.5 694.06,-917.5"/>
<text text-anchor="middle" x="749.56" y="-924.5" font-family="Helvetica,sans-Serif" font-size="10.00">src/tls/msg_types.h</text>
</a>
</g>
</g>
<!-- Node2 -->
<g id="node2" class="node">
<title>Node2</title>
<g id="a_node2"><a xlink:href="client__endpoint_8h.html" target="_top" xlink:title=" ">
<polygon fill="white" stroke="black" points="697.56,-794.5 697.56,-824.5 799.56,-824.5 799.56,-794.5 697.56,-794.5"/>
<text text-anchor="start" x="705.56" y="-812.5" font-family="Helvetica,sans-Serif" font-size="10.00">src/enclave/client</text>
<text text-anchor="middle" x="748.56" y="-801.5" font-family="Helvetica,sans-Serif" font-size="10.00">_endpoint.h</text>
</a>
</g>
</g>
<!-- Node1&#45;&gt;Node2 -->
<g id="edge1" class="edge">
<title>Node1&#45;&gt;Node2</title>
<path fill="none" stroke="midnightblue" d="M749.4,-907.07C749.2,-883.9 748.86,-845.22 748.68,-824.55"/>
<polygon fill="midnightblue" stroke="midnightblue" points="745.9,-907.35 749.49,-917.32 752.9,-907.29 745.9,-907.35"/>
</g>
<!-- Node20 -->
<g id="node20" class="node">
<title>Node20</title>
<g id="a_node20"><a xlink:href="tls__endpoint_8h.html" target="_top" xlink:title=" ">
<polygon fill="white" stroke="black" points="577.56,-861.5 577.56,-880.5 721.56,-880.5 721.56,-861.5 577.56,-861.5"/>
<text text-anchor="middle" x="649.56" y="-868.5" font-family="Helvetica,sans-Serif" font-size="10.00">src/enclave/tls_endpoint.h</text>
</a>
</g>
</g>
<!-- Node1&#45;&gt;Node20 -->
<g id="edge29" class="edge">
<title>Node1&#45;&gt;Node20</title>
<path fill="none" stroke="midnightblue" d="M724.47,-912.45C706.01,-902.48 681.47,-889.23 665.59,-880.65"/>
<polygon fill="midnightblue" stroke="midnightblue" points="723.03,-915.65 733.5,-917.32 726.36,-909.49 723.03,-915.65"/>
</g>
<!-- Node38 -->
<g id="node38" class="node">
<title>Node38</title>
<g id="a_node38"><a xlink:href="rpc__connections_8h.html" target="_top" xlink:title=" ">
<polygon fill="white" stroke="black" points="874.56,-738.5 874.56,-757.5 1020.56,-757.5 1020.56,-738.5 874.56,-738.5"/>
<text text-anchor="middle" x="947.56" y="-745.5" font-family="Helvetica,sans-Serif" font-size="10.00">src/host/rpc_connections.h</text>
</a>
</g>
</g>
<!-- Node1&#45;&gt;Node38 -->
<g id="edge62" class="edge">
<title>Node1&#45;&gt;Node38</title>
<path fill="none" stroke="midnightblue" d="M766.74,-910.64C806.91,-874.73 905.95,-786.19 937.64,-757.87"/>
<polygon fill="midnightblue" stroke="midnightblue" points="764.23,-908.19 759.11,-917.46 768.9,-913.41 764.23,-908.19"/>
</g>
<!-- Node3 -->
<g id="node3" class="node">
<title>Node3</title>
<g id="a_node3"><a xlink:href="http__endpoint_8h.html" target="_top" xlink:title=" ">
<polygon fill="white" stroke="black" points="679.06,-559.5 679.06,-578.5 812.06,-578.5 812.06,-559.5 679.06,-559.5"/>
<text text-anchor="middle" x="745.56" y="-566.5" font-family="Helvetica,sans-Serif" font-size="10.00">src/http/http_endpoint.h</text>
</a>
</g>
</g>
<!-- Node2&#45;&gt;Node3 -->
<g id="edge2" class="edge">
<title>Node2&#45;&gt;Node3</title>
<path fill="none" stroke="midnightblue" d="M748.25,-783.99C747.6,-731.98 746.1,-612.55 745.67,-578.95"/>
<polygon fill="midnightblue" stroke="midnightblue" points="744.76,-784.34 748.38,-794.29 751.76,-784.25 744.76,-784.34"/>
</g>
<!-- Node4 -->
<g id="node4" class="node">
<title>Node4</title>
<g id="a_node4"><a xlink:href="rpc__sessions_8h.html" target="_top" xlink:title=" ">
<polygon fill="white" stroke="black" points="672.56,-498 672.56,-517 818.56,-517 818.56,-498 672.56,-498"/>
<text text-anchor="middle" x="745.56" y="-505" font-family="Helvetica,sans-Serif" font-size="10.00">src/enclave/rpc_sessions.h</text>
</a>
</g>
</g>
<!-- Node3&#45;&gt;Node4 -->
<g id="edge3" class="edge">
<title>Node3&#45;&gt;Node4</title>
<path fill="none" stroke="midnightblue" d="M745.56,-549.32C745.56,-538.5 745.56,-525.4 745.56,-517.01"/>
<polygon fill="midnightblue" stroke="midnightblue" points="742.06,-549.48 745.56,-559.48 749.06,-549.48 742.06,-549.48"/>
</g>
<!-- Node18 -->
<g id="node18" class="node">
<title>Node18</title>
<g id="a_node18"><a xlink:href="acme__challenge__server_8h.html" target="_top" xlink:title=" ">
<polygon fill="white" stroke="black" points="837.06,-492.5 837.06,-522.5 974.06,-522.5 974.06,-492.5 837.06,-492.5"/>
<text text-anchor="start" x="845.06" y="-510.5" font-family="Helvetica,sans-Serif" font-size="10.00">src/host/acme_challenge</text>
<text text-anchor="middle" x="905.56" y="-499.5" font-family="Helvetica,sans-Serif" font-size="10.00">_server.h</text>
</a>
</g>
</g>
<!-- Node3&#45;&gt;Node18 -->
<g id="edge27" class="edge">
<title>Node3&#45;&gt;Node18</title>
<path fill="none" stroke="midnightblue" d="M777.9,-555.98C803.91,-546.3 840.51,-532.69 867.85,-522.52"/>
<polygon fill="midnightblue" stroke="midnightblue" points="776.64,-552.71 768.49,-559.48 779.08,-559.27 776.64,-552.71"/>
</g>
<!-- Node5 -->
<g id="node5" class="node">
<title>Node5</title>
<g id="a_node5"><a xlink:href="enclave_2enclave_8h.html" target="_top" xlink:title=" ">
<polygon fill="white" stroke="black" points="286.56,-56.5 286.56,-75.5 408.56,-75.5 408.56,-56.5 286.56,-56.5"/>
<text text-anchor="middle" x="347.56" y="-63.5" font-family="Helvetica,sans-Serif" font-size="10.00">src/enclave/enclave.h</text>
</a>
</g>
</g>
<!-- Node4&#45;&gt;Node5 -->
<g id="edge4" class="edge">
<title>Node4&#45;&gt;Node5</title>
<path fill="none" stroke="midnightblue" d="M785.37,-495.09C857.76,-473.13 1003.56,-422.91 1003.56,-374.5 1003.56,-374.5 1003.56,-374.5 1003.56,-182.5 1003.56,-122.44 571.54,-83.79 408.69,-71.36"/>
<polygon fill="midnightblue" stroke="midnightblue" points="784.24,-491.77 775.66,-497.99 786.25,-498.48 784.24,-491.77"/>
</g>
<!-- Node7 -->
<g id="node7" class="node">
<title>Node7</title>
<g id="a_node7"><a xlink:href="ccf__acme__client_8h.html" target="_top" xlink:title=" ">
<polygon fill="white" stroke="black" points="514.06,-431 514.06,-450 663.06,-450 663.06,-431 514.06,-431"/>
<text text-anchor="middle" x="588.56" y="-438" font-family="Helvetica,sans-Serif" font-size="10.00">src/node/ccf_acme_client.h</text>
</a>
</g>
</g>
<!-- Node4&#45;&gt;Node7 -->
<g id="edge6" class="edge">
<title>Node4&#45;&gt;Node7</title>
<path fill="none" stroke="midnightblue" d="M715.25,-493.95C684.16,-481.08 636.64,-461.4 609.5,-450.17"/>
<polygon fill="midnightblue" stroke="midnightblue" points="714.14,-497.28 724.71,-497.87 716.81,-490.81 714.14,-497.28"/>
</g>
<!-- Node8 -->
<g id="node8" class="node">
<title>Node8</title>
<g id="a_node8"><a xlink:href="node__state_8h.html" target="_top" xlink:title=" ">
<polygon fill="white" stroke="black" points="467.56,-174 467.56,-193 591.56,-193 591.56,-174 467.56,-174"/>
<text text-anchor="middle" x="529.56" y="-181" font-family="Helvetica,sans-Serif" font-size="10.00">src/node/node_state.h</text>
</a>
</g>
</g>
<!-- Node4&#45;&gt;Node8 -->
<g id="edge24" class="edge">
<title>Node4&#45;&gt;Node8</title>
<path fill="none" stroke="midnightblue" d="M733.54,-489.35C720.16,-471.31 697.05,-443.08 671.56,-425 638.1,-401.26 613.64,-419.82 586.56,-389 586.14,-388.51 542.62,-231.61 531.92,-193"/>
<polygon fill="midnightblue" stroke="midnightblue" points="730.92,-491.69 739.61,-497.75 736.59,-487.59 730.92,-491.69"/>
</g>
<!-- Node10 -->
<g id="node10" class="node">
<title>Node10</title>
<g id="a_node10"><a xlink:href="node__client_8h.html" target="_top" xlink:title=" ">
<polygon fill="white" stroke="black" points="734.56,-431 734.56,-450 860.56,-450 860.56,-431 734.56,-431"/>
<text text-anchor="middle" x="797.56" y="-438" font-family="Helvetica,sans-Serif" font-size="10.00">src/node/node_client.h</text>
</a>
</g>
</g>
<!-- Node4&#45;&gt;Node10 -->
<g id="edge11" class="edge">
<title>Node4&#45;&gt;Node10</title>
<path fill="none" stroke="midnightblue" d="M758.95,-489.77C769.08,-477.1 782.6,-460.2 790.66,-450.13"/>
<polygon fill="midnightblue" stroke="midnightblue" points="756.09,-487.74 752.57,-497.73 761.55,-492.11 756.09,-487.74"/>
</g>
<!-- Node17 -->
<g id="node17" class="node">
<title>Node17</title>
<g id="a_node17"><a xlink:href="resharing_8h.html" target="_top" xlink:title=" ">
<polygon fill="white" stroke="black" points="842.56,-241 842.56,-260 958.56,-260 958.56,-241 842.56,-241"/>
<text text-anchor="middle" x="900.56" y="-248" font-family="Helvetica,sans-Serif" font-size="10.00">src/node/resharing.h</text>
</a>
</g>
</g>
<!-- Node4&#45;&gt;Node17 -->
<g id="edge25" class="edge">
<title>Node4&#45;&gt;Node17</title>
<path fill="none" stroke="midnightblue" d="M794.78,-495.13C819.52,-487.41 848.61,-475.05 869.56,-456 927.47,-403.33 909.23,-292.07 902.54,-260.2"/>
<polygon fill="midnightblue" stroke="midnightblue" points="793.79,-491.77 785.19,-497.96 795.77,-498.48 793.79,-491.77"/>
</g>
<!-- Node6 -->
<g id="node6" class="node">
<title>Node6</title>
<g id="a_node6"><a xlink:href="enclave_2main_8cpp.html" target="_top" xlink:title=" ">
<polygon fill="white" stroke="black" points="287.56,-0.5 287.56,-19.5 407.56,-19.5 407.56,-0.5 287.56,-0.5"/>
<text text-anchor="middle" x="347.56" y="-7.5" font-family="Helvetica,sans-Serif" font-size="10.00">src/enclave/main.cpp</text>
</a>
</g>
</g>
<!-- Node5&#45;&gt;Node6 -->
<g id="edge5" class="edge">
<title>Node5&#45;&gt;Node6</title>
<path fill="none" stroke="midnightblue" d="M347.56,-45.8C347.56,-36.91 347.56,-26.78 347.56,-19.75"/>
<polygon fill="midnightblue" stroke="midnightblue" points="344.06,-46.08 347.56,-56.08 351.06,-46.08 344.06,-46.08"/>
</g>
<!-- Node7&#45;&gt;Node8 -->
<g id="edge7" class="edge">
<title>Node7&#45;&gt;Node8</title>
<path fill="none" stroke="midnightblue" d="M574.02,-423C566.64,-413.66 558.25,-401.4 553.56,-389 526.38,-317.11 527.93,-221.73 529.12,-193.02"/>
<polygon fill="midnightblue" stroke="midnightblue" points="571.56,-425.51 580.65,-430.96 576.94,-421.04 571.56,-425.51"/>
</g>
<!-- Node8&#45;&gt;Node5 -->
<g id="edge8" class="edge">
<title>Node8&#45;&gt;Node5</title>
<path fill="none" stroke="midnightblue" d="M503.5,-169.29C484.8,-159.56 459.2,-145.68 437.56,-132 408.07,-113.36 375.29,-88.58 358.62,-75.67"/>
<polygon fill="midnightblue" stroke="midnightblue" points="502.09,-172.51 512.58,-173.98 505.3,-166.29 502.09,-172.51"/>
</g>
<!-- Node9 -->
<g id="node9" class="node">
<title>Node9</title>
<g id="a_node9"><a xlink:href="gov__effects_8h.html" target="_top" xlink:title=" ">
<polygon fill="white" stroke="black" points="446.56,-112.5 446.56,-131.5 590.56,-131.5 590.56,-112.5 446.56,-112.5"/>
<text text-anchor="middle" x="518.56" y="-119.5" font-family="Helvetica,sans-Serif" font-size="10.00">src/node/rpc/gov_effects.h</text>
</a>
</g>
</g>
<!-- Node8&#45;&gt;Node9 -->
<g id="edge9" class="edge">
<title>Node8&#45;&gt;Node9</title>
<path fill="none" stroke="midnightblue" d="M526.11,-163.82C524.11,-153 521.69,-139.9 520.14,-131.51"/>
<polygon fill="midnightblue" stroke="midnightblue" points="522.73,-164.78 527.99,-173.98 529.61,-163.51 522.73,-164.78"/>
</g>
<!-- Node9&#45;&gt;Node5 -->
<g id="edge10" class="edge">
<title>Node9&#45;&gt;Node5</title>
<path fill="none" stroke="midnightblue" d="M481.53,-109.3C449.3,-99.13 403.37,-84.62 374.53,-75.52"/>
<polygon fill="midnightblue" stroke="midnightblue" points="480.88,-112.77 491.47,-112.44 482.98,-106.09 480.88,-112.77"/>
</g>
<!-- Node11 -->
<g id="node11" class="node">
<title>Node11</title>
<g id="a_node11"><a xlink:href="orc__requests_8h.html" target="_top" xlink:title=" ">
<polygon fill="white" stroke="black" points="596.06,-358.5 596.06,-388.5 715.06,-388.5 715.06,-358.5 596.06,-358.5"/>
<text text-anchor="start" x="604.06" y="-376.5" font-family="Helvetica,sans-Serif" font-size="10.00">src/consensus/aft/orc</text>
<text text-anchor="middle" x="655.56" y="-365.5" font-family="Helvetica,sans-Serif" font-size="10.00">_requests.h</text>
</a>
</g>
</g>
<!-- Node10&#45;&gt;Node11 -->
<g id="edge12" class="edge">
<title>Node10&#45;&gt;Node11</title>
<path fill="none" stroke="midnightblue" d="M769.43,-426.62C745.4,-415.63 710.92,-399.84 686.21,-388.53"/>
<polygon fill="midnightblue" stroke="midnightblue" points="768.16,-429.89 778.71,-430.87 771.07,-423.52 768.16,-429.89"/>
</g>
<!-- Node12 -->
<g id="node12" class="node">
<title>Node12</title>
<g id="a_node12"><a xlink:href="raft_8h.html" target="_top" xlink:title=" ">
<polygon fill="white" stroke="black" points="605.06,-302.5 605.06,-321.5 734.06,-321.5 734.06,-302.5 605.06,-302.5"/>
<text text-anchor="middle" x="669.56" y="-309.5" font-family="Helvetica,sans-Serif" font-size="10.00">src/consensus/aft/raft.h</text>
</a>
</g>
</g>
<!-- Node10&#45;&gt;Node12 -->
<g id="edge19" class="edge">
<title>Node10&#45;&gt;Node12</title>
<path fill="none" stroke="midnightblue" d="M824.58,-426.06C852.83,-410.23 890.51,-382.91 870.56,-358 853.63,-336.86 786.34,-324.98 734.23,-318.8"/>
<polygon fill="midnightblue" stroke="midnightblue" points="822.6,-423.15 815.45,-430.97 825.92,-429.32 822.6,-423.15"/>
</g>
<!-- Node15 -->
<g id="node15" class="node">
<title>Node15</title>
<g id="a_node15"><a xlink:href="http__node__client_8h.html" target="_top" xlink:title=" ">
<polygon fill="white" stroke="black" points="679.56,-235.5 679.56,-265.5 789.56,-265.5 789.56,-235.5 679.56,-235.5"/>
<text text-anchor="start" x="687.56" y="-253.5" font-family="Helvetica,sans-Serif" font-size="10.00">src/node/http_node</text>
<text text-anchor="middle" x="734.56" y="-242.5" font-family="Helvetica,sans-Serif" font-size="10.00">_client.h</text>
</a>
</g>
</g>
<!-- Node10&#45;&gt;Node15 -->
<g id="edge20" class="edge">
<title>Node10&#45;&gt;Node15</title>
<path fill="none" stroke="midnightblue" d="M838.34,-427.27C856.8,-419.47 876.85,-407.3 887.56,-389 894.52,-377.11 893.94,-370.21 887.56,-358 863.44,-311.81 809.14,-281.6 772.17,-265.53"/>
<polygon fill="midnightblue" stroke="midnightblue" points="836.93,-424.07 828.89,-430.96 839.48,-430.59 836.93,-424.07"/>
</g>
<!-- Node16 -->
<g id="node16" class="node">
<title>Node16</title>
<g id="a_node16"><a xlink:href="retired__nodes__cleanup_8h.html" target="_top" xlink:title=" ">
<polygon fill="white" stroke="black" points="733.56,-358.5 733.56,-388.5 861.56,-388.5 861.56,-358.5 733.56,-358.5"/>
<text text-anchor="start" x="741.56" y="-376.5" font-family="Helvetica,sans-Serif" font-size="10.00">src/node/retired_nodes</text>
<text text-anchor="middle" x="797.56" y="-365.5" font-family="Helvetica,sans-Serif" font-size="10.00">_cleanup.h</text>
</a>
</g>
</g>
<!-- Node10&#45;&gt;Node16 -->
<g id="edge22" class="edge">
<title>Node10&#45;&gt;Node16</title>
<path fill="none" stroke="midnightblue" d="M797.56,-420.41C797.56,-410.22 797.56,-397.9 797.56,-388.59"/>
<polygon fill="midnightblue" stroke="midnightblue" points="794.06,-420.73 797.56,-430.73 801.06,-420.73 794.06,-420.73"/>
</g>
<!-- Node11&#45;&gt;Node12 -->
<g id="edge13" class="edge">
<title>Node11&#45;&gt;Node12</title>
<path fill="none" stroke="midnightblue" d="M661.19,-348.59C663.43,-339.08 665.86,-328.73 667.52,-321.66"/>
<polygon fill="midnightblue" stroke="midnightblue" points="657.76,-347.86 658.88,-358.4 664.58,-349.47 657.76,-347.86"/>
</g>
<!-- Node13 -->
<g id="node13" class="node">
<title>Node13</title>
<g id="a_node13"><a xlink:href="node__frontend_8h.html" target="_top" xlink:title=" ">
<polygon fill="white" stroke="black" points="300.56,-302.5 300.56,-321.5 458.56,-321.5 458.56,-302.5 300.56,-302.5"/>
<text text-anchor="middle" x="379.56" y="-309.5" font-family="Helvetica,sans-Serif" font-size="10.00">src/node/rpc/node_frontend.h</text>
</a>
</g>
</g>
<!-- Node11&#45;&gt;Node13 -->
<g id="edge15" class="edge">
<title>Node11&#45;&gt;Node13</title>
<path fill="none" stroke="midnightblue" d="M586.04,-357.51C533.22,-346.13 462.48,-330.87 419.01,-321.5"/>
<polygon fill="midnightblue" stroke="midnightblue" points="585.5,-360.98 596.01,-359.66 586.98,-354.13 585.5,-360.98"/>
</g>
<!-- Node12&#45;&gt;Node8 -->
<g id="edge14" class="edge">
<title>Node12&#45;&gt;Node8</title>
<path fill="none" stroke="midnightblue" d="M652.43,-295.52C622.75,-268.7 562.7,-214.44 539.25,-193.26"/>
<polygon fill="midnightblue" stroke="midnightblue" points="650.17,-298.2 659.94,-302.31 654.87,-293 650.17,-298.2"/>
</g>
<!-- Node13&#45;&gt;Node5 -->
<g id="edge16" class="edge">
<title>Node13&#45;&gt;Node5</title>
<path fill="none" stroke="midnightblue" d="M373.51,-292.93C371,-284.79 368.28,-275 366.56,-266 352.73,-193.38 348.76,-103.84 347.82,-75.81"/>
<polygon fill="midnightblue" stroke="midnightblue" points="370.19,-294.04 376.59,-302.49 376.85,-291.9 370.19,-294.04"/>
</g>
<!-- Node14 -->
<g id="node14" class="node">
<title>Node14</title>
<g id="a_node14"><a xlink:href="jwt__key__auto__refresh_8h.html" target="_top" xlink:title=" ">
<polygon fill="white" stroke="black" points="376.06,-235.5 376.06,-265.5 501.06,-265.5 501.06,-235.5 376.06,-235.5"/>
<text text-anchor="start" x="384.06" y="-253.5" font-family="Helvetica,sans-Serif" font-size="10.00">src/node/jwt_key_auto</text>
<text text-anchor="middle" x="438.56" y="-242.5" font-family="Helvetica,sans-Serif" font-size="10.00">_refresh.h</text>
</a>
</g>
</g>
<!-- Node13&#45;&gt;Node14 -->
<g id="edge17" class="edge">
<title>Node13&#45;&gt;Node14</title>
<path fill="none" stroke="midnightblue" d="M395.06,-295.37C404.24,-286.11 415.77,-274.48 424.66,-265.52"/>
<polygon fill="midnightblue" stroke="midnightblue" points="392.57,-292.91 388.02,-302.48 397.54,-297.84 392.57,-292.91"/>
</g>
<!-- Node14&#45;&gt;Node8 -->
<g id="edge18" class="edge">
<title>Node14&#45;&gt;Node8</title>
<path fill="none" stroke="midnightblue" d="M466.83,-229.31C483.92,-217.1 504.81,-202.18 517.65,-193.01"/>
<polygon fill="midnightblue" stroke="midnightblue" points="464.41,-226.74 458.31,-235.4 468.48,-232.43 464.41,-226.74"/>
</g>
<!-- Node15&#45;&gt;Node8 -->
<g id="edge21" class="edge">
<title>Node15&#45;&gt;Node8</title>
<path fill="none" stroke="midnightblue" d="M680.73,-232.43C640.75,-219.75 587.91,-203 556.46,-193.03"/>
<polygon fill="midnightblue" stroke="midnightblue" points="679.74,-235.79 690.33,-235.48 681.86,-229.12 679.74,-235.79"/>
</g>
<!-- Node16&#45;&gt;Node12 -->
<g id="edge23" class="edge">
<title>Node16&#45;&gt;Node12</title>
<path fill="none" stroke="midnightblue" d="M757.94,-354.08C734.69,-343.28 706.4,-330.12 688.19,-321.66"/>
<polygon fill="midnightblue" stroke="midnightblue" points="756.68,-357.36 767.23,-358.4 759.63,-351.01 756.68,-357.36"/>
</g>
<!-- Node17&#45;&gt;Node8 -->
<g id="edge26" class="edge">
<title>Node17&#45;&gt;Node8</title>
<path fill="none" stroke="midnightblue" d="M841.74,-239.19C768.88,-226.43 646.09,-204.92 578.26,-193.03"/>
<polygon fill="midnightblue" stroke="midnightblue" points="841.22,-242.66 851.68,-240.94 842.43,-235.76 841.22,-242.66"/>
</g>
<!-- Node19 -->
<g id="node19" class="node">
<title>Node19</title>
<g id="a_node19"><a xlink:href="host_2main_8cpp.html" target="_top" xlink:title=" ">
<polygon fill="white" stroke="black" points="1032.06,-431 1032.06,-450 1135.06,-450 1135.06,-431 1032.06,-431"/>
<text text-anchor="middle" x="1083.56" y="-438" font-family="Helvetica,sans-Serif" font-size="10.00">src/host/main.cpp</text>
</a>
</g>
</g>
<!-- Node18&#45;&gt;Node19 -->
<g id="edge28" class="edge">
<title>Node18&#45;&gt;Node19</title>
<path fill="none" stroke="midnightblue" d="M953.63,-488.95C988.21,-476.32 1033.31,-459.85 1060.27,-450.01"/>
<polygon fill="midnightblue" stroke="midnightblue" points="952.38,-485.68 944.19,-492.4 954.78,-492.25 952.38,-485.68"/>
</g>
<!-- Node21 -->
<g id="node21" class="node">
<title>Node21</title>
<g id="a_node21"><a xlink:href="http__parser_8h.html" target="_top" xlink:title=" ">
<polygon fill="white" stroke="black" points="508.56,-738.5 508.56,-757.5 628.56,-757.5 628.56,-738.5 508.56,-738.5"/>
<text text-anchor="middle" x="568.56" y="-745.5" font-family="Helvetica,sans-Serif" font-size="10.00">src/http/http_parser.h</text>
</a>
</g>
</g>
<!-- Node20&#45;&gt;Node21 -->
<g id="edge30" class="edge">
<title>Node20&#45;&gt;Node21</title>
<path fill="none" stroke="midnightblue" d="M648.14,-851.3C646.12,-834.97 641.27,-811.24 629.56,-794 618.55,-777.78 599.69,-765.19 585.85,-757.51"/>
<polygon fill="midnightblue" stroke="midnightblue" points="644.65,-851.65 649.13,-861.25 651.62,-850.96 644.65,-851.65"/>
</g>
<!-- Node37 -->
<g id="node37" class="node">
<title>Node37</title>
<g id="a_node37"><a xlink:href="http__proc_8h.html" target="_top" xlink:title=" ">
<polygon fill="white" stroke="black" points="510.06,-800 510.06,-819 621.06,-819 621.06,-800 510.06,-800"/>
<text text-anchor="middle" x="565.56" y="-807" font-family="Helvetica,sans-Serif" font-size="10.00">src/http/http_proc.h</text>
</a>
</g>
</g>
<!-- Node20&#45;&gt;Node37 -->
<g id="edge60" class="edge">
<title>Node20&#45;&gt;Node37</title>
<path fill="none" stroke="midnightblue" d="M629.25,-855.61C613.09,-844.17 591.04,-828.55 577.57,-819.01"/>
<polygon fill="midnightblue" stroke="midnightblue" points="627.34,-858.55 637.53,-861.48 631.39,-852.84 627.34,-858.55"/>
</g>
<!-- Node21&#45;&gt;Node3 -->
<g id="edge38" class="edge">
<title>Node21&#45;&gt;Node3</title>
<path fill="none" stroke="midnightblue" d="M593.52,-733.27C607.24,-725.12 624.16,-714.03 637.56,-702 682.73,-661.45 724.82,-601.2 739.79,-578.8"/>
<polygon fill="midnightblue" stroke="midnightblue" points="591.51,-730.39 584.6,-738.43 595.01,-736.45 591.51,-730.39"/>
</g>
<!-- Node21&#45;&gt;Node18 -->
<g id="edge37" class="edge">
<title>Node21&#45;&gt;Node18</title>
<path fill="none" stroke="midnightblue" d="M598.72,-734.33C617.34,-726.04 641.43,-714.47 661.56,-702 754.87,-644.21 853.62,-556.4 890.51,-522.52"/>
<polygon fill="midnightblue" stroke="midnightblue" points="597.29,-731.13 589.53,-738.35 600.09,-737.55 597.29,-731.13"/>
</g>
<!-- Node22 -->
<g id="node22" class="node">
<title>Node22</title>
<g id="a_node22"><a xlink:href="rpc__tls__client_8h.html" target="_top" xlink:title=" ">
<polygon fill="white" stroke="black" points="203.06,-615.5 203.06,-645.5 304.06,-645.5 304.06,-615.5 203.06,-615.5"/>
<text text-anchor="start" x="211.06" y="-633.5" font-family="Helvetica,sans-Serif" font-size="10.00">src/clients/rpc_tls</text>
<text text-anchor="middle" x="253.56" y="-622.5" font-family="Helvetica,sans-Serif" font-size="10.00">_client.h</text>
</a>
</g>
</g>
<!-- Node21&#45;&gt;Node22 -->
<g id="edge31" class="edge">
<title>Node21&#45;&gt;Node22</title>
<path fill="none" stroke="midnightblue" d="M511.93,-736.43C475.95,-728.85 428.75,-717.27 388.56,-702 347.53,-686.41 302.95,-661.39 276.67,-645.73"/>
<polygon fill="midnightblue" stroke="midnightblue" points="511.27,-739.87 521.77,-738.47 512.69,-733.02 511.27,-739.87"/>
</g>
<!-- Node27 -->
<g id="node27" class="node">
<title>Node27</title>
<g id="a_node27"><a xlink:href="http__jwt_8h.html" target="_top" xlink:title=" ">
<polygon fill="white" stroke="black" points="55.06,-682.5 55.06,-701.5 160.06,-701.5 160.06,-682.5 55.06,-682.5"/>
<text text-anchor="middle" x="107.56" y="-689.5" font-family="Helvetica,sans-Serif" font-size="10.00">src/http/http_jwt.h</text>
</a>
</g>
</g>
<!-- Node21&#45;&gt;Node27 -->
<g id="edge39" class="edge">
<title>Node21&#45;&gt;Node27</title>
<path fill="none" stroke="midnightblue" d="M498.13,-738.75C405.15,-727.86 243.52,-708.93 160.35,-699.18"/>
<polygon fill="midnightblue" stroke="midnightblue" points="497.95,-742.25 508.29,-739.94 498.77,-735.3 497.95,-742.25"/>
</g>
<!-- Node32 -->
<g id="node32" class="node">
<title>Node32</title>
<g id="a_node32"><a xlink:href="http__rpc__context_8h.html" target="_top" xlink:title=" ">
<polygon fill="white" stroke="black" points="495.06,-621 495.06,-640 642.06,-640 642.06,-621 495.06,-621"/>
<text text-anchor="middle" x="568.56" y="-628" font-family="Helvetica,sans-Serif" font-size="10.00">src/http/http_rpc_context.h</text>
</a>
</g>
</g>
<!-- Node21&#45;&gt;Node32 -->
<g id="edge48" class="edge">
<title>Node21&#45;&gt;Node32</title>
<path fill="none" stroke="midnightblue" d="M568.56,-728.16C568.56,-702.87 568.56,-658.94 568.56,-640.28"/>
<polygon fill="midnightblue" stroke="midnightblue" points="565.06,-728.32 568.56,-738.32 572.06,-728.32 565.06,-728.32"/>
</g>
<!-- Node34 -->
<g id="node34" class="node">
<title>Node34</title>
<g id="a_node34"><a xlink:href="http__sig_8h.html" target="_top" xlink:title=" ">
<polygon fill="white" stroke="black" points="397.56,-682.5 397.56,-701.5 501.56,-701.5 501.56,-682.5 397.56,-682.5"/>
<text text-anchor="middle" x="449.56" y="-689.5" font-family="Helvetica,sans-Serif" font-size="10.00">src/http/http_sig.h</text>
</a>
</g>
</g>
<!-- Node21&#45;&gt;Node34 -->
<g id="edge54" class="edge">
<title>Node21&#45;&gt;Node34</title>
<path fill="none" stroke="midnightblue" d="M540.43,-734.23C518.17,-724.13 487.71,-710.31 468.33,-701.52"/>
<polygon fill="midnightblue" stroke="midnightblue" points="539.15,-737.5 549.71,-738.44 542.05,-731.12 539.15,-737.5"/>
</g>
<!-- Node36 -->
<g id="node36" class="node">
<title>Node36</title>
<g id="a_node36"><a xlink:href="acme__client_8h.html" target="_top" xlink:title=" ">
<polygon fill="white" stroke="black" points="528.06,-559.5 528.06,-578.5 657.06,-578.5 657.06,-559.5 528.06,-559.5"/>
<text text-anchor="middle" x="592.56" y="-566.5" font-family="Helvetica,sans-Serif" font-size="10.00">src/node/acme_client.h</text>
</a>
</g>
</g>
<!-- Node21&#45;&gt;Node36 -->
<g id="edge58" class="edge">
<title>Node21&#45;&gt;Node36</title>
<path fill="none" stroke="midnightblue" d="M586.83,-731.75C606.9,-713.69 637.95,-681.55 650.56,-646 655.17,-633.02 656.62,-627.37 650.56,-615 642.38,-598.29 624.66,-586 610.95,-578.53"/>
<polygon fill="midnightblue" stroke="midnightblue" points="584.47,-729.17 579.24,-738.39 589.07,-734.44 584.47,-729.17"/>
</g>
<!-- Node23 -->
<g id="node23" class="node">
<title>Node23</title>
<g id="a_node23"><a xlink:href="perf__client_8h.html" target="_top" xlink:title=" ">
<polygon fill="white" stroke="black" points="152.06,-492.5 152.06,-522.5 263.06,-522.5 263.06,-492.5 152.06,-492.5"/>
<text text-anchor="start" x="160.06" y="-510.5" font-family="Helvetica,sans-Serif" font-size="10.00">src/clients/perf/perf</text>
<text text-anchor="middle" x="207.56" y="-499.5" font-family="Helvetica,sans-Serif" font-size="10.00">_client.h</text>
</a>
</g>
</g>
<!-- Node22&#45;&gt;Node23 -->
<g id="edge32" class="edge">
<title>Node22&#45;&gt;Node23</title>
<path fill="none" stroke="midnightblue" d="M220.94,-609.3C210.88,-601.23 201.02,-590.99 195.56,-579 187.23,-560.69 194.25,-537.32 200.53,-522.63"/>
<polygon fill="midnightblue" stroke="midnightblue" points="218.87,-612.12 228.97,-615.29 223.05,-606.51 218.87,-612.12"/>
</g>
<!-- Node26 -->
<g id="node26" class="node">
<title>Node26</title>
<g id="a_node26"><a xlink:href="timing_8h.html" target="_top" xlink:title=" ">
<polygon fill="white" stroke="black" points="204.56,-559.5 204.56,-578.5 336.56,-578.5 336.56,-559.5 204.56,-559.5"/>
<text text-anchor="middle" x="270.56" y="-566.5" font-family="Helvetica,sans-Serif" font-size="10.00">src/clients/perf/timing.h</text>
</a>
</g>
</g>
<!-- Node22&#45;&gt;Node26 -->
<g id="edge35" class="edge">
<title>Node22&#45;&gt;Node26</title>
<path fill="none" stroke="midnightblue" d="M260.39,-605.59C263.11,-596.08 266.07,-585.73 268.09,-578.66"/>
<polygon fill="midnightblue" stroke="midnightblue" points="256.97,-604.82 257.59,-615.4 263.7,-606.75 256.97,-604.82"/>
</g>
<!-- Node24 -->
<g id="node24" class="node">
<title>Node24</title>
<g id="a_node24"><a xlink:href="tpcc__client_8cpp.html" target="_top" xlink:title=" ">
<polygon fill="white" stroke="black" points="181.56,-425.5 181.56,-455.5 297.56,-455.5 297.56,-425.5 181.56,-425.5"/>
<text text-anchor="start" x="189.56" y="-443.5" font-family="Helvetica,sans-Serif" font-size="10.00">src/apps/tpcc/clients</text>
<text text-anchor="middle" x="239.56" y="-432.5" font-family="Helvetica,sans-Serif" font-size="10.00">/tpcc_client.cpp</text>
</a>
</g>
</g>
<!-- Node23&#45;&gt;Node24 -->
<g id="edge33" class="edge">
<title>Node23&#45;&gt;Node24</title>
<path fill="none" stroke="midnightblue" d="M218.99,-483.28C223.55,-474.02 228.65,-463.66 232.63,-455.58"/>
<polygon fill="midnightblue" stroke="midnightblue" points="215.78,-481.88 214.51,-492.4 222.06,-484.97 215.78,-481.88"/>
</g>
<!-- Node25 -->
<g id="node25" class="node">
<title>Node25</title>
<g id="a_node25"><a xlink:href="scenario__perf__client_8cpp.html" target="_top" xlink:title=" ">
<polygon fill="white" stroke="black" points="30.06,-425.5 30.06,-455.5 163.06,-455.5 163.06,-425.5 30.06,-425.5"/>
<text text-anchor="start" x="38.06" y="-443.5" font-family="Helvetica,sans-Serif" font-size="10.00">src/clients/perf/scenario</text>
<text text-anchor="middle" x="96.56" y="-432.5" font-family="Helvetica,sans-Serif" font-size="10.00">_perf_client.cpp</text>
</a>
</g>
</g>
<!-- Node23&#45;&gt;Node25 -->
<g id="edge34" class="edge">
<title>Node23&#45;&gt;Node25</title>
<path fill="none" stroke="midnightblue" d="M174.77,-487.3C157.4,-477.12 136.44,-464.85 120.6,-455.58"/>
<polygon fill="midnightblue" stroke="midnightblue" points="173.08,-490.36 183.48,-492.4 176.62,-484.32 173.08,-490.36"/>
</g>
<!-- Node26&#45;&gt;Node23 -->
<g id="edge36" class="edge">
<title>Node26&#45;&gt;Node23</title>
<path fill="none" stroke="midnightblue" d="M254.01,-552.37C244.21,-543.11 231.9,-531.48 222.41,-522.52"/>
<polygon fill="midnightblue" stroke="midnightblue" points="251.86,-555.15 261.54,-559.48 256.67,-550.06 251.86,-555.15"/>
</g>
<!-- Node28 -->
<g id="node28" class="node">
<title>Node28</title>
<g id="a_node28"><a xlink:href="jwt__auth_8cpp.html" target="_top" xlink:title=" ">
<polygon fill="white" stroke="black" points="30.06,-615.5 30.06,-645.5 185.06,-645.5 185.06,-615.5 30.06,-615.5"/>
<text text-anchor="start" x="38.06" y="-633.5" font-family="Helvetica,sans-Serif" font-size="10.00">src/endpoints/authentication</text>
<text text-anchor="middle" x="107.56" y="-622.5" font-family="Helvetica,sans-Serif" font-size="10.00">/jwt_auth.cpp</text>
</a>
</g>
</g>
<!-- Node27&#45;&gt;Node28 -->
<g id="edge40" class="edge">
<title>Node27&#45;&gt;Node28</title>
<path fill="none" stroke="midnightblue" d="M107.56,-672.23C107.56,-663.59 107.56,-653.5 107.56,-645.52"/>
<polygon fill="midnightblue" stroke="midnightblue" points="104.06,-672.48 107.56,-682.48 111.06,-672.48 104.06,-672.48"/>
</g>
<!-- Node29 -->
<g id="node29" class="node">
<title>Node29</title>
<g id="a_node29"><a xlink:href="frontend_8h.html" target="_top" xlink:title=" ">
<polygon fill="white" stroke="black" points="115.06,-364 115.06,-383 244.06,-383 244.06,-364 115.06,-364"/>
<text text-anchor="middle" x="179.56" y="-371" font-family="Helvetica,sans-Serif" font-size="10.00">src/node/rpc/frontend.h</text>
</a>
</g>
</g>
<!-- Node27&#45;&gt;Node29 -->
<g id="edge41" class="edge">
<title>Node27&#45;&gt;Node29</title>
<path fill="none" stroke="midnightblue" d="M67.54,-678.64C50.78,-671.58 32.47,-661.05 20.56,-646 -1.04,-618.69 1.56,-604.82 1.56,-570 1.56,-570 1.56,-570 1.56,-506.5 1.56,-469.31 -4.69,-452.31 20.56,-425 44.74,-398.84 82.39,-386.16 114.99,-380.05"/>
<polygon fill="midnightblue" stroke="midnightblue" points="66.58,-682.03 77.17,-682.41 69.14,-675.51 66.58,-682.03"/>
</g>
<!-- Node29&#45;&gt;Node8 -->
<g id="edge42" class="edge">
<title>Node29&#45;&gt;Node8</title>
<path fill="none" stroke="midnightblue" d="M196.35,-357.09C227.62,-329.11 297.87,-269.66 366.56,-235 406.24,-214.98 455.38,-201.09 489.27,-193.01"/>
<polygon fill="midnightblue" stroke="midnightblue" points="194,-354.49 188.93,-363.79 198.69,-359.68 194,-354.49"/>
</g>
<!-- Node29&#45;&gt;Node13 -->
<g id="edge45" class="edge">
<title>Node29&#45;&gt;Node13</title>
<path fill="none" stroke="midnightblue" d="M218.12,-361.03C256.99,-349.46 316.08,-331.88 350.96,-321.51"/>
<polygon fill="midnightblue" stroke="midnightblue" points="216.8,-357.77 208.22,-363.98 218.8,-364.48 216.8,-357.77"/>
</g>
<!-- Node30 -->
<g id="node30" class="node">
<title>Node30</title>
<g id="a_node30"><a xlink:href="member__frontend_8h.html" target="_top" xlink:title=" ">
<polygon fill="white" stroke="black" points="123.56,-168.5 123.56,-198.5 243.56,-198.5 243.56,-168.5 123.56,-168.5"/>
<text text-anchor="start" x="131.56" y="-186.5" font-family="Helvetica,sans-Serif" font-size="10.00">src/node/rpc/member</text>
<text text-anchor="middle" x="183.56" y="-175.5" font-family="Helvetica,sans-Serif" font-size="10.00">_frontend.h</text>
</a>
</g>
</g>
<!-- Node29&#45;&gt;Node30 -->
<g id="edge43" class="edge">
<title>Node29&#45;&gt;Node30</title>
<path fill="none" stroke="midnightblue" d="M179.96,-353.88C180.76,-316.33 182.55,-232.24 183.26,-198.7"/>
<polygon fill="midnightblue" stroke="midnightblue" points="176.46,-353.86 179.74,-363.93 183.46,-354.01 176.46,-353.86"/>
</g>
<!-- Node31 -->
<g id="node31" class="node">
<title>Node31</title>
<g id="a_node31"><a xlink:href="user__frontend_8h.html" target="_top" xlink:title=" ">
<polygon fill="white" stroke="black" points="26.06,-112.5 26.06,-131.5 181.06,-131.5 181.06,-112.5 26.06,-112.5"/>
<text text-anchor="middle" x="103.56" y="-119.5" font-family="Helvetica,sans-Serif" font-size="10.00">src/node/rpc/user_frontend.h</text>
</a>
</g>
</g>
<!-- Node29&#45;&gt;Node31 -->
<g id="edge46" class="edge">
<title>Node29&#45;&gt;Node31</title>
<path fill="none" stroke="midnightblue" d="M171.37,-354.57C157.53,-323.53 129.57,-257.51 114.56,-199 108.4,-174.98 105.39,-145.74 104.2,-131.55"/>
<polygon fill="midnightblue" stroke="midnightblue" points="168.18,-356.01 175.48,-363.69 174.56,-353.13 168.18,-356.01"/>
</g>
<!-- Node30&#45;&gt;Node5 -->
<g id="edge44" class="edge">
<title>Node30&#45;&gt;Node5</title>
<path fill="none" stroke="midnightblue" d="M202.7,-161.15C216.86,-146.17 237.16,-126.33 257.56,-112 279.43,-96.64 307.31,-83.56 326.2,-75.53"/>
<polygon fill="midnightblue" stroke="midnightblue" points="200.13,-158.78 195.88,-168.49 205.25,-163.54 200.13,-158.78"/>
</g>
<!-- Node31&#45;&gt;Node5 -->
<g id="edge47" class="edge">
<title>Node31&#45;&gt;Node5</title>
<path fill="none" stroke="midnightblue" d="M151.99,-110.28C198.1,-100.08 266.59,-84.92 309.08,-75.52"/>
<polygon fill="midnightblue" stroke="midnightblue" points="151.23,-106.87 142.22,-112.44 152.74,-113.7 151.23,-106.87"/>
</g>
<!-- Node32&#45;&gt;Node3 -->
<g id="edge49" class="edge">
<title>Node32&#45;&gt;Node3</title>
<path fill="none" stroke="midnightblue" d="M603.57,-617.73C637.98,-606.17 689.65,-588.8 720.25,-578.51"/>
<polygon fill="midnightblue" stroke="midnightblue" points="602.29,-614.47 593.92,-620.98 604.52,-621.11 602.29,-614.47"/>
</g>
<!-- Node32&#45;&gt;Node14 -->
<g id="edge50" class="edge">
<title>Node32&#45;&gt;Node14</title>
<path fill="none" stroke="midnightblue" d="M549.27,-614.28C525.02,-593.3 486.56,-552.99 486.56,-508.5 486.56,-508.5 486.56,-508.5 486.56,-372.5 486.56,-331.37 462.3,-287.56 448.28,-265.68"/>
<polygon fill="midnightblue" stroke="midnightblue" points="547.24,-617.15 557.16,-620.87 551.73,-611.78 547.24,-617.15"/>
</g>
<!-- Node33 -->
<g id="node33" class="node">
<title>Node33</title>
<g id="a_node33"><a xlink:href="forwarder_8h.html" target="_top" xlink:title=" ">
<polygon fill="white" stroke="black" points="315.56,-431 315.56,-450 449.56,-450 449.56,-431 315.56,-431"/>
<text text-anchor="middle" x="382.56" y="-438" font-family="Helvetica,sans-Serif" font-size="10.00">src/node/rpc/forwarder.h</text>
</a>
</g>
</g>
<!-- Node32&#45;&gt;Node33 -->
<g id="edge51" class="edge">
<title>Node32&#45;&gt;Node33</title>
<path fill="none" stroke="midnightblue" d="M535.53,-617.1C515.71,-608.52 490.88,-595.65 472.56,-579 428.86,-539.28 396.99,-473.89 386.39,-450.32"/>
<polygon fill="midnightblue" stroke="midnightblue" points="534.22,-620.35 544.8,-620.97 536.92,-613.89 534.22,-620.35"/>
</g>
<!-- Node33&#45;&gt;Node5 -->
<g id="edge52" class="edge">
<title>Node33&#45;&gt;Node5</title>
<path fill="none" stroke="midnightblue" d="M364.88,-424.01C342.77,-403.35 306.06,-364.4 291.56,-322 259.44,-228.08 323.26,-108.23 342.38,-75.55"/>
<polygon fill="midnightblue" stroke="midnightblue" points="362.55,-426.63 372.3,-430.77 367.26,-421.45 362.55,-426.63"/>
</g>
<!-- Node33&#45;&gt;Node29 -->
<g id="edge53" class="edge">
<title>Node33&#45;&gt;Node29</title>
<path fill="none" stroke="midnightblue" d="M345.91,-427.77C305.69,-414.89 242.09,-394.52 206.31,-383.06"/>
<polygon fill="midnightblue" stroke="midnightblue" points="345.01,-431.15 355.61,-430.87 347.15,-424.49 345.01,-431.15"/>
</g>
<!-- Node34&#45;&gt;Node22 -->
<g id="edge55" class="edge">
<title>Node34&#45;&gt;Node22</title>
<path fill="none" stroke="midnightblue" d="M411.62,-679.48C379.67,-669.78 333.84,-655.87 299.76,-645.52"/>
<polygon fill="midnightblue" stroke="midnightblue" points="410.89,-682.92 421.48,-682.48 412.93,-676.22 410.89,-682.92"/>
</g>
<!-- Node34&#45;&gt;Node32 -->
<g id="edge57" class="edge">
<title>Node34&#45;&gt;Node32</title>
<path fill="none" stroke="midnightblue" d="M475.83,-677.87C498.89,-666.33 531.76,-649.9 551.54,-640.01"/>
<polygon fill="midnightblue" stroke="midnightblue" points="473.99,-674.87 466.61,-682.48 477.12,-681.13 473.99,-674.87"/>
</g>
<!-- Node35 -->
<g id="node35" class="node">
<title>Node35</title>
<g id="a_node35"><a xlink:href="sig__auth_8cpp.html" target="_top" xlink:title=" ">
<polygon fill="white" stroke="black" points="322.06,-615.5 322.06,-645.5 477.06,-645.5 477.06,-615.5 322.06,-615.5"/>
<text text-anchor="start" x="330.06" y="-633.5" font-family="Helvetica,sans-Serif" font-size="10.00">src/endpoints/authentication</text>
<text text-anchor="middle" x="399.56" y="-622.5" font-family="Helvetica,sans-Serif" font-size="10.00">/sig_auth.cpp</text>
</a>
</g>
</g>
<!-- Node34&#45;&gt;Node35 -->
<g id="edge56" class="edge">
<title>Node34&#45;&gt;Node35</title>
<path fill="none" stroke="midnightblue" d="M435.96,-674.81C428.26,-665.65 418.72,-654.3 411.35,-645.52"/>
<polygon fill="midnightblue" stroke="midnightblue" points="433.29,-677.07 442.4,-682.48 438.64,-672.57 433.29,-677.07"/>
</g>
<!-- Node36&#45;&gt;Node7 -->
<g id="edge59" class="edge">
<title>Node36&#45;&gt;Node7</title>
<path fill="none" stroke="midnightblue" d="M591.97,-549.31C591.09,-521.58 589.48,-470.63 588.84,-450.26"/>
<polygon fill="midnightblue" stroke="midnightblue" points="588.47,-549.42 592.29,-559.31 595.47,-549.2 588.47,-549.42"/>
</g>
<!-- Node37&#45;&gt;Node21 -->
<g id="edge61" class="edge">
<title>Node37&#45;&gt;Node21</title>
<path fill="none" stroke="midnightblue" d="M566.5,-789.82C567.05,-779 567.71,-765.9 568.13,-757.51"/>
<polygon fill="midnightblue" stroke="midnightblue" points="563,-789.81 565.99,-799.98 569.99,-790.16 563,-789.81"/>
</g>
<!-- Node38&#45;&gt;Node19 -->
<g id="edge63" class="edge">
<title>Node38&#45;&gt;Node19</title>
<path fill="none" stroke="midnightblue" d="M972.23,-732.95C1001.84,-714.04 1047.56,-677.41 1047.56,-631.5 1047.56,-631.5 1047.56,-631.5 1047.56,-568 1047.56,-522.1 1069.75,-470.3 1079.29,-450.15"/>
<polygon fill="midnightblue" stroke="midnightblue" points="970.31,-730.02 963.63,-738.24 973.98,-735.98 970.31,-730.02"/>
</g>
</g>
</svg>
